<svg width="30" height="30" viewBox="0 0 30 30" fill="none" xmlns="http://www.w3.org/2000/svg">
<path d="M12 16.641C12.5927 16.165 13.057 15.7753 13.393 15.472C13.729 15.164 14.0113 14.8443 14.24 14.513C14.4733 14.177 14.59 13.848 14.59 13.526C14.59 13.2227 14.5153 12.9847 14.366 12.812C14.2213 12.6347 13.9857 12.546 13.659 12.546C13.3417 12.546 13.0943 12.6463 12.917 12.847C12.7443 13.043 12.651 13.3067 12.637 13.638H12.021C12.0397 13.1153 12.1983 12.7117 12.497 12.427C12.7957 12.1423 13.1807 12 13.652 12C14.1327 12 14.513 12.133 14.793 12.399C15.0777 12.665 15.22 13.0313 15.22 13.498C15.22 13.8853 15.1033 14.2633 14.87 14.632C14.6413 14.996 14.38 15.318 14.086 15.598C13.792 15.8733 13.4163 16.1953 12.959 16.564H15.367V17.096H12V16.641Z" fill="white" fill-opacity="0.5"/>
<path d="M18.2104 17.152L17.3004 15.724L16.4254 17.152H15.7604L16.9994 15.248L15.7604 13.316H16.4814L17.3914 14.737L18.2594 13.316H18.9244L17.6924 15.213L18.9314 17.152H18.2104Z" fill="white" fill-opacity="0.5"/>
<rect opacity="0.5" x="0.5" y="0.5" width="29" height="29" rx="4.5" stroke="white"/>
</svg>
