<svg width="426" height="250" viewBox="0 0 426 250" fill="none" xmlns="http://www.w3.org/2000/svg">
<path d="M205.358 197H203.511L208.852 182.455H210.67L216.011 197H214.165L209.818 184.756H209.705L205.358 197ZM206.04 191.318H213.483V192.881H206.04V191.318ZM222.453 201.318C221.643 201.318 220.947 201.214 220.365 201.006C219.783 200.802 219.297 200.532 218.909 200.196C218.526 199.865 218.22 199.509 217.993 199.131L219.328 198.193C219.48 198.392 219.671 198.619 219.903 198.875C220.135 199.135 220.453 199.36 220.855 199.55C221.262 199.744 221.795 199.841 222.453 199.841C223.334 199.841 224.061 199.628 224.634 199.202C225.206 198.776 225.493 198.108 225.493 197.199V194.983H225.351C225.228 195.182 225.053 195.428 224.825 195.722C224.603 196.01 224.281 196.268 223.859 196.496C223.443 196.718 222.879 196.83 222.169 196.83C221.288 196.83 220.498 196.621 219.797 196.205C219.101 195.788 218.549 195.182 218.142 194.386C217.74 193.591 217.538 192.625 217.538 191.489C217.538 190.371 217.735 189.398 218.128 188.57C218.521 187.736 219.068 187.092 219.768 186.638C220.469 186.179 221.279 185.949 222.197 185.949C222.908 185.949 223.471 186.067 223.888 186.304C224.309 186.536 224.631 186.801 224.854 187.099C225.081 187.393 225.256 187.634 225.379 187.824H225.55V186.091H227.169V197.312C227.169 198.25 226.956 199.012 226.53 199.599C226.108 200.191 225.54 200.625 224.825 200.899C224.115 201.179 223.324 201.318 222.453 201.318ZM222.396 195.324C223.069 195.324 223.637 195.17 224.101 194.862C224.565 194.554 224.918 194.112 225.159 193.534C225.401 192.956 225.521 192.265 225.521 191.46C225.521 190.674 225.403 189.981 225.166 189.379C224.929 188.778 224.579 188.307 224.115 187.966C223.651 187.625 223.078 187.455 222.396 187.455C221.686 187.455 221.094 187.634 220.621 187.994C220.152 188.354 219.799 188.837 219.562 189.443C219.33 190.049 219.214 190.722 219.214 191.46C219.214 192.218 219.333 192.888 219.57 193.47C219.811 194.048 220.166 194.502 220.635 194.834C221.108 195.161 221.696 195.324 222.396 195.324ZM234.669 197.227C233.684 197.227 232.82 196.993 232.077 196.524C231.338 196.055 230.76 195.4 230.344 194.557C229.932 193.714 229.726 192.729 229.726 191.602C229.726 190.466 229.932 189.474 230.344 188.626C230.76 187.779 231.338 187.121 232.077 186.652C232.82 186.183 233.684 185.949 234.669 185.949C235.654 185.949 236.516 186.183 237.254 186.652C237.998 187.121 238.575 187.779 238.987 188.626C239.404 189.474 239.612 190.466 239.612 191.602C239.612 192.729 239.404 193.714 238.987 194.557C238.575 195.4 237.998 196.055 237.254 196.524C236.516 196.993 235.654 197.227 234.669 197.227ZM234.669 195.722C235.417 195.722 236.033 195.53 236.516 195.146C236.999 194.763 237.356 194.259 237.588 193.634C237.82 193.009 237.936 192.331 237.936 191.602C237.936 190.873 237.82 190.194 237.588 189.564C237.356 188.934 236.999 188.425 236.516 188.037C236.033 187.649 235.417 187.455 234.669 187.455C233.921 187.455 233.305 187.649 232.822 188.037C232.339 188.425 231.982 188.934 231.75 189.564C231.518 190.194 231.402 190.873 231.402 191.602C231.402 192.331 231.518 193.009 231.75 193.634C231.982 194.259 232.339 194.763 232.822 195.146C233.305 195.53 233.921 195.722 234.669 195.722ZM242.171 197V186.091H243.79V187.739H243.904C244.103 187.199 244.462 186.761 244.983 186.425C245.504 186.089 246.091 185.92 246.745 185.92C246.868 185.92 247.022 185.923 247.206 185.928C247.391 185.932 247.531 185.939 247.625 185.949V187.653C247.569 187.639 247.438 187.618 247.235 187.589C247.036 187.556 246.825 187.54 246.603 187.54C246.072 187.54 245.599 187.651 245.182 187.874C244.77 188.091 244.444 188.394 244.202 188.783C243.965 189.166 243.847 189.604 243.847 190.097V197H242.171ZM252.822 197.256C252.131 197.256 251.504 197.125 250.94 196.865C250.377 196.6 249.929 196.219 249.598 195.722C249.267 195.22 249.101 194.614 249.101 193.903C249.101 193.278 249.224 192.772 249.47 192.384C249.716 191.991 250.045 191.683 250.457 191.46C250.869 191.238 251.324 191.072 251.821 190.963C252.323 190.849 252.827 190.759 253.334 190.693C253.997 190.608 254.534 190.544 254.946 190.501C255.363 190.454 255.666 190.376 255.855 190.267C256.049 190.158 256.146 189.969 256.146 189.699V189.642C256.146 188.941 255.955 188.397 255.571 188.009C255.192 187.62 254.617 187.426 253.845 187.426C253.045 187.426 252.418 187.601 251.963 187.952C251.509 188.302 251.189 188.676 251.004 189.074L249.413 188.506C249.697 187.843 250.076 187.327 250.55 186.957C251.028 186.583 251.549 186.323 252.112 186.176C252.68 186.025 253.239 185.949 253.788 185.949C254.139 185.949 254.541 185.991 254.996 186.077C255.455 186.157 255.898 186.325 256.324 186.581C256.755 186.837 257.112 187.223 257.396 187.739C257.68 188.255 257.822 188.946 257.822 189.812V197H256.146V195.523H256.061C255.947 195.759 255.758 196.013 255.493 196.283C255.228 196.553 254.875 196.782 254.435 196.972C253.994 197.161 253.457 197.256 252.822 197.256ZM253.078 195.75C253.741 195.75 254.3 195.62 254.754 195.359C255.214 195.099 255.559 194.763 255.791 194.351C256.028 193.939 256.146 193.506 256.146 193.051V191.517C256.075 191.602 255.919 191.68 255.678 191.751C255.441 191.818 255.166 191.877 254.854 191.929C254.546 191.976 254.245 192.019 253.952 192.057C253.663 192.09 253.429 192.118 253.249 192.142C252.813 192.199 252.406 192.291 252.027 192.419C251.653 192.542 251.35 192.729 251.118 192.98C250.891 193.226 250.777 193.562 250.777 193.989C250.777 194.571 250.992 195.011 251.423 195.31C251.859 195.603 252.411 195.75 253.078 195.75ZM270.939 197.227C269.916 197.227 269.035 196.986 268.297 196.503C267.558 196.02 266.99 195.355 266.592 194.507C266.194 193.66 265.995 192.691 265.995 191.602C265.995 190.494 266.199 189.517 266.606 188.669C267.018 187.817 267.591 187.152 268.325 186.673C269.064 186.19 269.925 185.949 270.91 185.949C271.677 185.949 272.368 186.091 272.984 186.375C273.6 186.659 274.104 187.057 274.497 187.568C274.89 188.08 275.134 188.676 275.228 189.358H273.552C273.424 188.861 273.14 188.42 272.7 188.037C272.264 187.649 271.677 187.455 270.939 187.455C270.285 187.455 269.712 187.625 269.22 187.966C268.732 188.302 268.351 188.778 268.076 189.393C267.806 190.004 267.672 190.722 267.672 191.545C267.672 192.388 267.804 193.122 268.069 193.747C268.339 194.372 268.718 194.857 269.206 195.203C269.698 195.549 270.276 195.722 270.939 195.722C271.374 195.722 271.77 195.646 272.125 195.494C272.48 195.343 272.78 195.125 273.027 194.841C273.273 194.557 273.448 194.216 273.552 193.818H275.228C275.134 194.462 274.899 195.042 274.525 195.558C274.156 196.07 273.666 196.477 273.055 196.78C272.449 197.078 271.743 197.227 270.939 197.227ZM279.355 182.455V197H277.679V182.455H279.355ZM282.425 197V186.091H284.101V197H282.425ZM283.277 184.273C282.95 184.273 282.669 184.161 282.432 183.939C282.2 183.716 282.084 183.449 282.084 183.136C282.084 182.824 282.2 182.556 282.432 182.334C282.669 182.111 282.95 182 283.277 182C283.604 182 283.883 182.111 284.115 182.334C284.352 182.556 284.47 182.824 284.47 183.136C284.47 183.449 284.352 183.716 284.115 183.939C283.883 184.161 283.604 184.273 283.277 184.273ZM294.614 201.091V195.324H294.472C294.349 195.523 294.174 195.774 293.946 196.077C293.719 196.375 293.395 196.643 292.973 196.879C292.552 197.111 291.991 197.227 291.29 197.227C290.381 197.227 289.578 196.998 288.882 196.538C288.186 196.074 287.642 195.421 287.249 194.578C286.856 193.731 286.659 192.729 286.659 191.574C286.659 190.428 286.856 189.434 287.249 188.591C287.642 187.748 288.189 187.097 288.89 186.638C289.59 186.179 290.4 185.949 291.319 185.949C292.029 185.949 292.59 186.067 293.002 186.304C293.418 186.536 293.736 186.801 293.953 187.099C294.176 187.393 294.349 187.634 294.472 187.824H294.671V186.091H296.29V201.091H294.614ZM291.517 195.722C292.19 195.722 292.758 195.546 293.222 195.196C293.686 194.841 294.039 194.351 294.28 193.726C294.522 193.096 294.642 192.369 294.642 191.545C294.642 190.731 294.524 190.018 294.287 189.408C294.051 188.792 293.7 188.314 293.236 187.973C292.772 187.627 292.199 187.455 291.517 187.455C290.807 187.455 290.215 187.637 289.742 188.001C289.273 188.361 288.92 188.851 288.684 189.472C288.452 190.087 288.336 190.778 288.336 191.545C288.336 192.322 288.454 193.027 288.691 193.662C288.932 194.292 289.287 194.794 289.756 195.168C290.23 195.537 290.817 195.722 291.517 195.722ZM306.233 192.54V186.091H307.909V197H306.233V195.153H306.12C305.864 195.707 305.466 196.179 304.926 196.567C304.387 196.95 303.705 197.142 302.881 197.142C302.199 197.142 301.593 196.993 301.063 196.695C300.533 196.392 300.116 195.937 299.813 195.331C299.51 194.72 299.358 193.951 299.358 193.023V186.091H301.034V192.909C301.034 193.705 301.257 194.339 301.702 194.812C302.152 195.286 302.725 195.523 303.421 195.523C303.837 195.523 304.261 195.416 304.692 195.203C305.128 194.99 305.492 194.663 305.786 194.223C306.084 193.783 306.233 193.222 306.233 192.54ZM315.553 197.227C314.502 197.227 313.595 196.995 312.833 196.531C312.076 196.062 311.491 195.409 311.079 194.571C310.672 193.728 310.468 192.748 310.468 191.631C310.468 190.513 310.672 189.528 311.079 188.676C311.491 187.819 312.064 187.152 312.798 186.673C313.536 186.19 314.398 185.949 315.383 185.949C315.951 185.949 316.512 186.044 317.066 186.233C317.62 186.422 318.124 186.73 318.579 187.156C319.033 187.578 319.396 188.136 319.665 188.832C319.935 189.528 320.07 190.385 320.07 191.403V192.114H311.661V190.665H318.366C318.366 190.049 318.243 189.5 317.996 189.017C317.755 188.534 317.409 188.153 316.96 187.874C316.514 187.594 315.989 187.455 315.383 187.455C314.715 187.455 314.138 187.62 313.65 187.952C313.167 188.278 312.795 188.705 312.535 189.23C312.274 189.756 312.144 190.319 312.144 190.92V191.886C312.144 192.71 312.286 193.409 312.57 193.982C312.859 194.55 313.259 194.983 313.771 195.281C314.282 195.575 314.876 195.722 315.553 195.722C315.994 195.722 316.391 195.66 316.746 195.537C317.106 195.409 317.416 195.22 317.677 194.969C317.937 194.713 318.138 194.396 318.281 194.017L319.9 194.472C319.729 195.021 319.443 195.504 319.04 195.92C318.638 196.332 318.141 196.654 317.549 196.886C316.957 197.114 316.292 197.227 315.553 197.227ZM332.819 197.227C331.768 197.227 330.861 196.995 330.099 196.531C329.341 196.062 328.756 195.409 328.344 194.571C327.937 193.728 327.734 192.748 327.734 191.631C327.734 190.513 327.937 189.528 328.344 188.676C328.756 187.819 329.329 187.152 330.063 186.673C330.802 186.19 331.664 185.949 332.648 185.949C333.217 185.949 333.778 186.044 334.332 186.233C334.886 186.422 335.39 186.73 335.844 187.156C336.299 187.578 336.661 188.136 336.931 188.832C337.201 189.528 337.336 190.385 337.336 191.403V192.114H328.927V190.665H335.631C335.631 190.049 335.508 189.5 335.262 189.017C335.021 188.534 334.675 188.153 334.225 187.874C333.78 187.594 333.254 187.455 332.648 187.455C331.981 187.455 331.403 187.62 330.915 187.952C330.433 188.278 330.061 188.705 329.8 189.23C329.54 189.756 329.41 190.319 329.41 190.92V191.886C329.41 192.71 329.552 193.409 329.836 193.982C330.125 194.55 330.525 194.983 331.036 195.281C331.548 195.575 332.142 195.722 332.819 195.722C333.259 195.722 333.657 195.66 334.012 195.537C334.372 195.409 334.682 195.22 334.942 194.969C335.203 194.713 335.404 194.396 335.546 194.017L337.165 194.472C336.995 195.021 336.709 195.504 336.306 195.92C335.904 196.332 335.406 196.654 334.815 196.886C334.223 197.114 333.558 197.227 332.819 197.227ZM339.886 197V186.091H341.505V187.795H341.647C341.874 187.213 342.241 186.761 342.748 186.439C343.254 186.112 343.863 185.949 344.573 185.949C345.293 185.949 345.892 186.112 346.37 186.439C346.853 186.761 347.229 187.213 347.499 187.795H347.613C347.892 187.232 348.311 186.785 348.87 186.453C349.429 186.117 350.099 185.949 350.88 185.949C351.855 185.949 352.653 186.254 353.273 186.865C353.894 187.471 354.204 188.416 354.204 189.699V197H352.528V189.699C352.528 188.894 352.308 188.319 351.867 187.973C351.427 187.627 350.908 187.455 350.312 187.455C349.545 187.455 348.951 187.687 348.529 188.151C348.108 188.61 347.897 189.192 347.897 189.898V197H346.192V189.528C346.192 188.908 345.991 188.409 345.589 188.03C345.186 187.646 344.668 187.455 344.033 187.455C343.598 187.455 343.191 187.571 342.812 187.803C342.438 188.035 342.135 188.357 341.903 188.768C341.675 189.176 341.562 189.647 341.562 190.182V197H339.886ZM291.798 221.227C290.813 221.227 289.949 220.993 289.206 220.524C288.467 220.055 287.889 219.4 287.473 218.557C287.061 217.714 286.855 216.729 286.855 215.602C286.855 214.466 287.061 213.474 287.473 212.626C287.889 211.779 288.467 211.121 289.206 210.652C289.949 210.183 290.813 209.949 291.798 209.949C292.783 209.949 293.645 210.183 294.383 210.652C295.127 211.121 295.704 211.779 296.116 212.626C296.533 213.474 296.741 214.466 296.741 215.602C296.741 216.729 296.533 217.714 296.116 218.557C295.704 219.4 295.127 220.055 294.383 220.524C293.645 220.993 292.783 221.227 291.798 221.227ZM291.798 219.722C292.546 219.722 293.162 219.53 293.645 219.146C294.127 218.763 294.485 218.259 294.717 217.634C294.949 217.009 295.065 216.331 295.065 215.602C295.065 214.873 294.949 214.194 294.717 213.564C294.485 212.934 294.127 212.425 293.645 212.037C293.162 211.649 292.546 211.455 291.798 211.455C291.05 211.455 290.434 211.649 289.951 212.037C289.468 212.425 289.111 212.934 288.879 213.564C288.647 214.194 288.531 214.873 288.531 215.602C288.531 216.331 288.647 217.009 288.879 217.634C289.111 218.259 289.468 218.763 289.951 219.146C290.434 219.53 291.05 219.722 291.798 219.722ZM306.175 216.54V210.091H307.851V221H306.175V219.153H306.061C305.805 219.707 305.408 220.179 304.868 220.567C304.328 220.95 303.646 221.142 302.822 221.142C302.141 221.142 301.535 220.993 301.004 220.695C300.474 220.392 300.057 219.937 299.754 219.331C299.451 218.72 299.3 217.951 299.3 217.023V210.091H300.976V216.909C300.976 217.705 301.198 218.339 301.643 218.812C302.093 219.286 302.666 219.523 303.362 219.523C303.779 219.523 304.203 219.416 304.634 219.203C305.069 218.99 305.434 218.663 305.727 218.223C306.026 217.783 306.175 217.222 306.175 216.54ZM383.753 225.091V210.091H385.372V211.824H385.571C385.694 211.634 385.865 211.393 386.082 211.099C386.305 210.801 386.622 210.536 387.034 210.304C387.451 210.067 388.014 209.949 388.724 209.949C389.643 209.949 390.453 210.179 391.153 210.638C391.854 211.097 392.401 211.748 392.794 212.591C393.187 213.434 393.384 214.428 393.384 215.574C393.384 216.729 393.187 217.731 392.794 218.578C392.401 219.421 391.857 220.074 391.161 220.538C390.464 220.998 389.662 221.227 388.753 221.227C388.052 221.227 387.491 221.111 387.07 220.879C386.648 220.643 386.324 220.375 386.097 220.077C385.869 219.774 385.694 219.523 385.571 219.324H385.429V225.091H383.753ZM385.401 215.545C385.401 216.369 385.521 217.096 385.763 217.726C386.004 218.351 386.357 218.841 386.821 219.196C387.285 219.546 387.853 219.722 388.526 219.722C389.226 219.722 389.811 219.537 390.28 219.168C390.753 218.794 391.108 218.292 391.345 217.662C391.587 217.027 391.707 216.322 391.707 215.545C391.707 214.778 391.589 214.087 391.352 213.472C391.12 212.851 390.768 212.361 390.294 212.001C389.825 211.637 389.236 211.455 388.526 211.455C387.844 211.455 387.271 211.627 386.807 211.973C386.343 212.314 385.992 212.792 385.756 213.408C385.519 214.018 385.401 214.731 385.401 215.545ZM399.151 221.256C398.459 221.256 397.832 221.125 397.268 220.865C396.705 220.6 396.258 220.219 395.926 219.722C395.595 219.22 395.429 218.614 395.429 217.903C395.429 217.278 395.552 216.772 395.798 216.384C396.045 215.991 396.374 215.683 396.786 215.46C397.197 215.238 397.652 215.072 398.149 214.963C398.651 214.849 399.155 214.759 399.662 214.693C400.325 214.608 400.862 214.544 401.274 214.501C401.691 214.454 401.994 214.376 402.183 214.267C402.377 214.158 402.474 213.969 402.474 213.699V213.642C402.474 212.941 402.283 212.397 401.899 212.009C401.52 211.62 400.945 211.426 400.173 211.426C399.373 211.426 398.746 211.601 398.291 211.952C397.837 212.302 397.517 212.676 397.332 213.074L395.741 212.506C396.026 211.843 396.404 211.327 396.878 210.957C397.356 210.583 397.877 210.323 398.44 210.176C399.009 210.025 399.567 209.949 400.116 209.949C400.467 209.949 400.869 209.991 401.324 210.077C401.783 210.157 402.226 210.325 402.652 210.581C403.083 210.837 403.44 211.223 403.724 211.739C404.009 212.255 404.151 212.946 404.151 213.812V221H402.474V219.523H402.389C402.276 219.759 402.086 220.013 401.821 220.283C401.556 220.553 401.203 220.782 400.763 220.972C400.322 221.161 399.785 221.256 399.151 221.256ZM399.406 219.75C400.069 219.75 400.628 219.62 401.082 219.359C401.542 219.099 401.887 218.763 402.119 218.351C402.356 217.939 402.474 217.506 402.474 217.051V215.517C402.403 215.602 402.247 215.68 402.006 215.751C401.769 215.818 401.494 215.877 401.182 215.929C400.874 215.976 400.573 216.019 400.28 216.057C399.991 216.09 399.757 216.118 399.577 216.142C399.141 216.199 398.734 216.291 398.355 216.419C397.981 216.542 397.678 216.729 397.446 216.98C397.219 217.226 397.105 217.562 397.105 217.989C397.105 218.571 397.321 219.011 397.751 219.31C398.187 219.603 398.739 219.75 399.406 219.75ZM407.21 221V210.091H408.829V211.739H408.943C409.142 211.199 409.502 210.761 410.022 210.425C410.543 210.089 411.13 209.92 411.784 209.92C411.907 209.92 412.061 209.923 412.245 209.928C412.43 209.932 412.57 209.939 412.664 209.949V211.653C412.608 211.639 412.477 211.618 412.274 211.589C412.075 211.556 411.864 211.54 411.642 211.54C411.111 211.54 410.638 211.651 410.221 211.874C409.809 212.091 409.483 212.394 409.241 212.783C409.004 213.166 408.886 213.604 408.886 214.097V221H407.21ZM417.862 221.256C417.17 221.256 416.543 221.125 415.979 220.865C415.416 220.6 414.969 220.219 414.637 219.722C414.306 219.22 414.14 218.614 414.14 217.903C414.14 217.278 414.263 216.772 414.509 216.384C414.755 215.991 415.085 215.683 415.496 215.46C415.908 215.238 416.363 215.072 416.86 214.963C417.362 214.849 417.866 214.759 418.373 214.693C419.036 214.608 419.573 214.544 419.985 214.501C420.402 214.454 420.705 214.376 420.894 214.267C421.088 214.158 421.185 213.969 421.185 213.699V213.642C421.185 212.941 420.994 212.397 420.61 212.009C420.231 211.62 419.656 211.426 418.884 211.426C418.084 211.426 417.457 211.601 417.002 211.952C416.548 212.302 416.228 212.676 416.043 213.074L414.452 212.506C414.737 211.843 415.115 211.327 415.589 210.957C416.067 210.583 416.588 210.323 417.151 210.176C417.719 210.025 418.278 209.949 418.827 209.949C419.178 209.949 419.58 209.991 420.035 210.077C420.494 210.157 420.937 210.325 421.363 210.581C421.794 210.837 422.151 211.223 422.435 211.739C422.719 212.255 422.862 212.946 422.862 213.812V221H421.185V219.523H421.1C420.987 219.759 420.797 220.013 420.532 220.283C420.267 220.553 419.914 220.782 419.474 220.972C419.033 221.161 418.496 221.256 417.862 221.256ZM418.117 219.75C418.78 219.75 419.339 219.62 419.793 219.359C420.253 219.099 420.598 218.763 420.83 218.351C421.067 217.939 421.185 217.506 421.185 217.051V215.517C421.114 215.602 420.958 215.68 420.717 215.751C420.48 215.818 420.205 215.877 419.893 215.929C419.585 215.976 419.284 216.019 418.991 216.057C418.702 216.09 418.468 216.118 418.288 216.142C417.852 216.199 417.445 216.291 417.066 216.419C416.692 216.542 416.389 216.729 416.157 216.98C415.93 217.226 415.816 217.562 415.816 217.989C415.816 218.571 416.031 219.011 416.462 219.31C416.898 219.603 417.45 219.75 418.117 219.75ZM209.108 245.227C208.057 245.227 207.15 244.995 206.388 244.531C205.63 244.062 205.045 243.409 204.634 242.571C204.226 241.728 204.023 240.748 204.023 239.631C204.023 238.513 204.226 237.528 204.634 236.676C205.045 235.819 205.618 235.152 206.352 234.673C207.091 234.19 207.953 233.949 208.938 233.949C209.506 233.949 210.067 234.044 210.621 234.233C211.175 234.422 211.679 234.73 212.134 235.156C212.588 235.578 212.95 236.136 213.22 236.832C213.49 237.528 213.625 238.385 213.625 239.403V240.114H205.216V238.665H211.92C211.92 238.049 211.797 237.5 211.551 237.017C211.31 236.534 210.964 236.153 210.514 235.874C210.069 235.594 209.544 235.455 208.938 235.455C208.27 235.455 207.692 235.62 207.205 235.952C206.722 236.278 206.35 236.705 206.089 237.23C205.829 237.756 205.699 238.319 205.699 238.92V239.886C205.699 240.71 205.841 241.409 206.125 241.982C206.414 242.55 206.814 242.983 207.325 243.281C207.837 243.575 208.431 243.722 209.108 243.722C209.548 243.722 209.946 243.66 210.301 243.537C210.661 243.409 210.971 243.22 211.232 242.969C211.492 242.713 211.693 242.396 211.835 242.017L213.455 242.472C213.284 243.021 212.998 243.504 212.595 243.92C212.193 244.332 211.696 244.654 211.104 244.886C210.512 245.114 209.847 245.227 209.108 245.227ZM223.902 236.534L222.396 236.96C222.302 236.709 222.162 236.465 221.977 236.229C221.797 235.987 221.551 235.788 221.239 235.632C220.926 235.476 220.526 235.398 220.038 235.398C219.371 235.398 218.814 235.552 218.369 235.859C217.929 236.162 217.709 236.548 217.709 237.017C217.709 237.434 217.86 237.763 218.163 238.004C218.466 238.246 218.94 238.447 219.584 238.608L221.203 239.006C222.179 239.242 222.905 239.605 223.384 240.092C223.862 240.575 224.101 241.198 224.101 241.96C224.101 242.585 223.921 243.144 223.561 243.636C223.206 244.129 222.709 244.517 222.07 244.801C221.43 245.085 220.687 245.227 219.839 245.227C218.727 245.227 217.806 244.986 217.077 244.503C216.348 244.02 215.886 243.314 215.692 242.386L217.283 241.989C217.434 242.576 217.721 243.016 218.142 243.31C218.568 243.603 219.125 243.75 219.811 243.75C220.592 243.75 221.213 243.584 221.672 243.253C222.136 242.917 222.368 242.514 222.368 242.045C222.368 241.667 222.235 241.349 221.97 241.094C221.705 240.833 221.298 240.639 220.749 240.511L218.93 240.085C217.931 239.848 217.197 239.482 216.729 238.984C216.265 238.482 216.033 237.855 216.033 237.102C216.033 236.487 216.205 235.942 216.551 235.469C216.902 234.995 217.377 234.624 217.979 234.354C218.585 234.084 219.271 233.949 220.038 233.949C221.118 233.949 221.965 234.186 222.581 234.659C223.201 235.133 223.642 235.758 223.902 236.534ZM231.056 245.227C230.033 245.227 229.152 244.986 228.414 244.503C227.675 244.02 227.107 243.355 226.709 242.507C226.311 241.66 226.113 240.691 226.113 239.602C226.113 238.494 226.316 237.517 226.723 236.669C227.135 235.817 227.708 235.152 228.442 234.673C229.181 234.19 230.042 233.949 231.027 233.949C231.794 233.949 232.486 234.091 233.101 234.375C233.717 234.659 234.221 235.057 234.614 235.568C235.007 236.08 235.251 236.676 235.346 237.358H233.669C233.542 236.861 233.257 236.42 232.817 236.037C232.382 235.649 231.794 235.455 231.056 235.455C230.402 235.455 229.829 235.625 229.337 235.966C228.849 236.302 228.468 236.778 228.194 237.393C227.924 238.004 227.789 238.722 227.789 239.545C227.789 240.388 227.921 241.122 228.186 241.747C228.456 242.372 228.835 242.857 229.323 243.203C229.815 243.549 230.393 243.722 231.056 243.722C231.491 243.722 231.887 243.646 232.242 243.494C232.597 243.343 232.898 243.125 233.144 242.841C233.39 242.557 233.565 242.216 233.669 241.818H235.346C235.251 242.462 235.016 243.042 234.642 243.558C234.273 244.07 233.783 244.477 233.172 244.78C232.566 245.078 231.861 245.227 231.056 245.227ZM242.228 245.227C241.243 245.227 240.379 244.993 239.635 244.524C238.897 244.055 238.319 243.4 237.902 242.557C237.49 241.714 237.284 240.729 237.284 239.602C237.284 238.466 237.49 237.474 237.902 236.626C238.319 235.779 238.897 235.121 239.635 234.652C240.379 234.183 241.243 233.949 242.228 233.949C243.212 233.949 244.074 234.183 244.813 234.652C245.556 235.121 246.134 235.779 246.546 236.626C246.962 237.474 247.171 238.466 247.171 239.602C247.171 240.729 246.962 241.714 246.546 242.557C246.134 243.4 245.556 244.055 244.813 244.524C244.074 244.993 243.212 245.227 242.228 245.227ZM242.228 243.722C242.976 243.722 243.591 243.53 244.074 243.146C244.557 242.763 244.915 242.259 245.147 241.634C245.379 241.009 245.495 240.331 245.495 239.602C245.495 238.873 245.379 238.194 245.147 237.564C244.915 236.934 244.557 236.425 244.074 236.037C243.591 235.649 242.976 235.455 242.228 235.455C241.48 235.455 240.864 235.649 240.381 236.037C239.898 236.425 239.541 236.934 239.309 237.564C239.077 238.194 238.961 238.873 238.961 239.602C238.961 240.331 239.077 241.009 239.309 241.634C239.541 242.259 239.898 242.763 240.381 243.146C240.864 243.53 241.48 243.722 242.228 243.722ZM251.406 230.455V245H249.729V230.455H251.406ZM256.152 238.438V245H254.475V230.455H256.152V235.795H256.294C256.549 235.232 256.933 234.785 257.444 234.453C257.96 234.117 258.647 233.949 259.504 233.949C260.247 233.949 260.898 234.098 261.457 234.396C262.016 234.69 262.449 235.142 262.757 235.753C263.069 236.359 263.225 237.131 263.225 238.068V245H261.549V238.182C261.549 237.315 261.324 236.645 260.875 236.172C260.43 235.694 259.812 235.455 259.021 235.455C258.472 235.455 257.979 235.571 257.544 235.803C257.113 236.035 256.772 236.373 256.521 236.818C256.275 237.263 256.152 237.803 256.152 238.438ZM270.866 245.227C269.815 245.227 268.908 244.995 268.146 244.531C267.388 244.062 266.803 243.409 266.391 242.571C265.984 241.728 265.781 240.748 265.781 239.631C265.781 238.513 265.984 237.528 266.391 236.676C266.803 235.819 267.376 235.152 268.11 234.673C268.849 234.19 269.71 233.949 270.695 233.949C271.263 233.949 271.825 234.044 272.379 234.233C272.933 234.422 273.437 234.73 273.891 235.156C274.346 235.578 274.708 236.136 274.978 236.832C275.248 237.528 275.383 238.385 275.383 239.403V240.114H266.974V238.665H273.678C273.678 238.049 273.555 237.5 273.309 237.017C273.067 236.534 272.722 236.153 272.272 235.874C271.827 235.594 271.301 235.455 270.695 235.455C270.028 235.455 269.45 235.62 268.962 235.952C268.479 236.278 268.108 236.705 267.847 237.23C267.587 237.756 267.457 238.319 267.457 238.92V239.886C267.457 240.71 267.599 241.409 267.883 241.982C268.172 242.55 268.572 242.983 269.083 243.281C269.594 243.575 270.189 243.722 270.866 243.722C271.306 243.722 271.704 243.66 272.059 243.537C272.419 243.409 272.729 243.22 272.989 242.969C273.25 242.713 273.451 242.396 273.593 242.017L275.212 242.472C275.042 243.021 274.755 243.504 274.353 243.92C273.951 244.332 273.453 244.654 272.862 244.886C272.27 245.114 271.604 245.227 270.866 245.227ZM277.933 245V234.091H279.552V235.739H279.665C279.864 235.199 280.224 234.761 280.745 234.425C281.266 234.089 281.853 233.92 282.506 233.92C282.629 233.92 282.783 233.923 282.968 233.928C283.153 233.932 283.292 233.939 283.387 233.949V235.653C283.33 235.639 283.2 235.618 282.996 235.589C282.798 235.556 282.587 235.54 282.364 235.54C281.834 235.54 281.361 235.651 280.944 235.874C280.532 236.091 280.205 236.394 279.964 236.783C279.727 237.166 279.609 237.604 279.609 238.097V245H277.933ZM292.675 238.438V245H290.999V234.091H292.618V235.795H292.76C293.016 235.241 293.404 234.796 293.925 234.46C294.446 234.119 295.118 233.949 295.942 233.949C296.681 233.949 297.327 234.1 297.881 234.403C298.435 234.702 298.866 235.156 299.174 235.767C299.481 236.373 299.635 237.14 299.635 238.068V245H297.959V238.182C297.959 237.325 297.737 236.657 297.292 236.179C296.846 235.696 296.236 235.455 295.459 235.455C294.924 235.455 294.446 235.571 294.025 235.803C293.608 236.035 293.279 236.373 293.037 236.818C292.796 237.263 292.675 237.803 292.675 238.438ZM307.13 245.227C306.145 245.227 305.281 244.993 304.538 244.524C303.799 244.055 303.221 243.4 302.805 242.557C302.393 241.714 302.187 240.729 302.187 239.602C302.187 238.466 302.393 237.474 302.805 236.626C303.221 235.779 303.799 235.121 304.538 234.652C305.281 234.183 306.145 233.949 307.13 233.949C308.115 233.949 308.977 234.183 309.715 234.652C310.459 235.121 311.036 235.779 311.448 236.626C311.865 237.474 312.073 238.466 312.073 239.602C312.073 240.729 311.865 241.714 311.448 242.557C311.036 243.4 310.459 244.055 309.715 244.524C308.977 244.993 308.115 245.227 307.13 245.227ZM307.13 243.722C307.878 243.722 308.494 243.53 308.977 243.146C309.46 242.763 309.817 242.259 310.049 241.634C310.281 241.009 310.397 240.331 310.397 239.602C310.397 238.873 310.281 238.194 310.049 237.564C309.817 236.934 309.46 236.425 308.977 236.037C308.494 235.649 307.878 235.455 307.13 235.455C306.382 235.455 305.766 235.649 305.283 236.037C304.8 236.425 304.443 236.934 304.211 237.564C303.979 238.194 303.863 238.873 303.863 239.602C303.863 240.331 303.979 241.009 304.211 241.634C304.443 242.259 304.8 242.763 305.283 243.146C305.766 243.53 306.382 243.722 307.13 243.722ZM323.162 234.091L319.127 245H317.423L313.389 234.091H315.207L318.218 242.784H318.332L321.343 234.091H323.162ZM328.252 245.256C327.561 245.256 326.933 245.125 326.37 244.865C325.807 244.6 325.359 244.219 325.028 243.722C324.696 243.22 324.531 242.614 324.531 241.903C324.531 241.278 324.654 240.772 324.9 240.384C325.146 239.991 325.475 239.683 325.887 239.46C326.299 239.238 326.754 239.072 327.251 238.963C327.753 238.849 328.257 238.759 328.763 238.693C329.426 238.608 329.964 238.544 330.376 238.501C330.792 238.454 331.095 238.376 331.285 238.267C331.479 238.158 331.576 237.969 331.576 237.699V237.642C331.576 236.941 331.384 236.397 331.001 236.009C330.622 235.62 330.047 235.426 329.275 235.426C328.475 235.426 327.847 235.601 327.393 235.952C326.938 236.302 326.619 236.676 326.434 237.074L324.843 236.506C325.127 235.843 325.506 235.327 325.979 234.957C326.458 234.583 326.978 234.323 327.542 234.176C328.11 234.025 328.669 233.949 329.218 233.949C329.568 233.949 329.971 233.991 330.425 234.077C330.885 234.157 331.327 234.325 331.754 234.581C332.184 234.837 332.542 235.223 332.826 235.739C333.11 236.255 333.252 236.946 333.252 237.812V245H331.576V243.523H331.491C331.377 243.759 331.188 244.013 330.923 244.283C330.657 244.553 330.305 244.782 329.864 244.972C329.424 245.161 328.887 245.256 328.252 245.256ZM328.508 243.75C329.171 243.75 329.729 243.62 330.184 243.359C330.643 243.099 330.989 242.763 331.221 242.351C331.458 241.939 331.576 241.506 331.576 241.051V239.517C331.505 239.602 331.349 239.68 331.107 239.751C330.871 239.818 330.596 239.877 330.283 239.929C329.976 239.976 329.675 240.019 329.381 240.057C329.093 240.09 328.858 240.118 328.678 240.142C328.243 240.199 327.835 240.291 327.457 240.419C327.083 240.542 326.78 240.729 326.548 240.98C326.32 241.226 326.207 241.562 326.207 241.989C326.207 242.571 326.422 243.011 326.853 243.31C327.289 243.603 327.84 243.75 328.508 243.75ZM336.311 245V234.091H337.931V235.795H338.073C338.3 235.213 338.667 234.761 339.174 234.439C339.68 234.112 340.289 233.949 340.999 233.949C341.719 233.949 342.318 234.112 342.796 234.439C343.279 234.761 343.655 235.213 343.925 235.795H344.039C344.318 235.232 344.737 234.785 345.296 234.453C345.855 234.117 346.525 233.949 347.306 233.949C348.281 233.949 349.079 234.254 349.699 234.865C350.319 235.471 350.63 236.416 350.63 237.699V245H348.953V237.699C348.953 236.894 348.733 236.319 348.293 235.973C347.853 235.627 347.334 235.455 346.738 235.455C345.971 235.455 345.376 235.687 344.955 236.151C344.533 236.61 344.323 237.192 344.323 237.898V245H342.618V237.528C342.618 236.908 342.417 236.409 342.015 236.03C341.612 235.646 341.094 235.455 340.459 235.455C340.024 235.455 339.616 235.571 339.238 235.803C338.864 236.035 338.56 236.357 338.328 236.768C338.101 237.176 337.988 237.647 337.988 238.182V245H336.311ZM358.268 245.227C357.217 245.227 356.31 244.995 355.548 244.531C354.79 244.062 354.206 243.409 353.794 242.571C353.386 241.728 353.183 240.748 353.183 239.631C353.183 238.513 353.386 237.528 353.794 236.676C354.206 235.819 354.779 235.152 355.512 234.673C356.251 234.19 357.113 233.949 358.098 233.949C358.666 233.949 359.227 234.044 359.781 234.233C360.335 234.422 360.839 234.73 361.294 235.156C361.748 235.578 362.11 236.136 362.38 236.832C362.65 237.528 362.785 238.385 362.785 239.403V240.114H354.376V238.665H361.081C361.081 238.049 360.958 237.5 360.711 237.017C360.47 236.534 360.124 236.153 359.674 235.874C359.229 235.594 358.704 235.455 358.098 235.455C357.43 235.455 356.852 235.62 356.365 235.952C355.882 236.278 355.51 236.705 355.25 237.23C354.989 237.756 354.859 238.319 354.859 238.92V239.886C354.859 240.71 355.001 241.409 355.285 241.982C355.574 242.55 355.974 242.983 356.485 243.281C356.997 243.575 357.591 243.722 358.268 243.722C358.708 243.722 359.106 243.66 359.461 243.537C359.821 243.409 360.131 243.22 360.392 242.969C360.652 242.713 360.853 242.396 360.995 242.017L362.615 242.472C362.444 243.021 362.158 243.504 361.755 243.92C361.353 244.332 360.856 244.654 360.264 244.886C359.672 245.114 359.007 245.227 358.268 245.227ZM367.011 238.438V245H365.335V234.091H366.954V235.795H367.096C367.352 235.241 367.74 234.796 368.261 234.46C368.782 234.119 369.454 233.949 370.278 233.949C371.017 233.949 371.663 234.1 372.217 234.403C372.771 234.702 373.202 235.156 373.51 235.767C373.817 236.373 373.971 237.14 373.971 238.068V245H372.295V238.182C372.295 237.325 372.073 236.657 371.627 236.179C371.182 235.696 370.572 235.455 369.795 235.455C369.26 235.455 368.782 235.571 368.36 235.803C367.944 236.035 367.615 236.373 367.373 236.818C367.132 237.263 367.011 237.803 367.011 238.438ZM381.778 234.091V235.511H376.125V234.091H381.778ZM377.773 231.477H379.449V241.875C379.449 242.348 379.518 242.704 379.655 242.94C379.797 243.172 379.977 243.329 380.195 243.409C380.417 243.485 380.652 243.523 380.898 243.523C381.082 243.523 381.234 243.513 381.352 243.494C381.471 243.471 381.565 243.452 381.636 243.438L381.977 244.943C381.864 244.986 381.705 245.028 381.501 245.071C381.298 245.118 381.04 245.142 380.727 245.142C380.254 245.142 379.79 245.04 379.335 244.837C378.885 244.633 378.511 244.323 378.213 243.906C377.92 243.49 377.773 242.964 377.773 242.33V231.477ZM388.756 245.227C387.705 245.227 386.799 244.995 386.036 244.531C385.279 244.062 384.694 243.409 384.282 242.571C383.875 241.728 383.671 240.748 383.671 239.631C383.671 238.513 383.875 237.528 384.282 236.676C384.694 235.819 385.267 235.152 386.001 234.673C386.739 234.19 387.601 233.949 388.586 233.949C389.154 233.949 389.715 234.044 390.269 234.233C390.823 234.422 391.327 234.73 391.782 235.156C392.237 235.578 392.599 236.136 392.869 236.832C393.138 237.528 393.273 238.385 393.273 239.403V240.114H384.864V238.665H391.569C391.569 238.049 391.446 237.5 391.2 237.017C390.958 236.534 390.612 236.153 390.163 235.874C389.718 235.594 389.192 235.455 388.586 235.455C387.918 235.455 387.341 235.62 386.853 235.952C386.37 236.278 385.998 236.705 385.738 237.23C385.478 237.756 385.347 238.319 385.347 238.92V239.886C385.347 240.71 385.489 241.409 385.773 241.982C386.062 242.55 386.462 242.983 386.974 243.281C387.485 243.575 388.079 243.722 388.756 243.722C389.197 243.722 389.594 243.66 389.95 243.537C390.309 243.409 390.62 243.22 390.88 242.969C391.14 242.713 391.342 242.396 391.484 242.017L393.103 242.472C392.933 243.021 392.646 243.504 392.244 243.92C391.841 244.332 391.344 244.654 390.752 244.886C390.16 245.114 389.495 245.227 388.756 245.227Z" fill="white"/>
<path d="M209.136 221.213C208.019 221.213 207.058 220.976 206.253 220.503C205.453 220.025 204.837 219.362 204.406 218.514C203.98 217.667 203.767 216.691 203.767 215.588C203.767 214.471 203.982 213.491 204.413 212.648C204.849 211.8 205.467 211.14 206.267 210.666C207.067 210.188 208.019 209.949 209.122 209.949C210.074 209.949 210.907 210.122 211.622 210.467C212.337 210.813 212.903 211.298 213.32 211.923C213.736 212.548 213.966 213.282 214.009 214.125H211.153C211.073 213.58 210.86 213.143 210.514 212.811C210.173 212.475 209.726 212.307 209.172 212.307C208.703 212.307 208.294 212.435 207.943 212.69C207.598 212.941 207.328 213.308 207.134 213.791C206.939 214.274 206.842 214.859 206.842 215.545C206.842 216.241 206.937 216.833 207.126 217.321C207.321 217.809 207.593 218.18 207.943 218.436C208.294 218.692 208.703 218.82 209.172 218.82C209.518 218.82 209.828 218.749 210.102 218.607C210.382 218.464 210.611 218.259 210.791 217.989C210.976 217.714 211.097 217.385 211.153 217.001H214.009C213.961 217.835 213.734 218.569 213.327 219.203C212.924 219.833 212.368 220.325 211.658 220.68C210.947 221.036 210.107 221.213 209.136 221.213ZM219.056 221.206C218.36 221.206 217.74 221.085 217.196 220.844C216.651 220.598 216.22 220.235 215.903 219.757C215.591 219.274 215.434 218.673 215.434 217.953C215.434 217.347 215.546 216.838 215.768 216.426C215.991 216.014 216.294 215.683 216.677 215.432C217.061 215.181 217.496 214.991 217.984 214.864C218.476 214.736 218.993 214.646 219.532 214.594C220.167 214.527 220.678 214.466 221.066 214.409C221.455 214.348 221.736 214.258 221.912 214.139C222.087 214.021 222.174 213.846 222.174 213.614V213.571C222.174 213.121 222.032 212.773 221.748 212.527C221.469 212.281 221.071 212.158 220.555 212.158C220.011 212.158 219.577 212.278 219.255 212.52C218.933 212.757 218.72 213.055 218.616 213.415L215.818 213.188C215.96 212.525 216.239 211.952 216.656 211.469C217.073 210.981 217.61 210.607 218.268 210.347C218.931 210.081 219.698 209.949 220.569 209.949C221.175 209.949 221.755 210.02 222.309 210.162C222.868 210.304 223.363 210.524 223.794 210.822C224.229 211.121 224.573 211.504 224.824 211.973C225.074 212.437 225.2 212.993 225.2 213.642V221H222.331V219.487H222.245C222.07 219.828 221.836 220.129 221.542 220.389C221.249 220.645 220.896 220.846 220.484 220.993C220.072 221.135 219.596 221.206 219.056 221.206ZM219.923 219.118C220.368 219.118 220.761 219.03 221.102 218.855C221.443 218.675 221.71 218.434 221.904 218.131C222.099 217.828 222.196 217.484 222.196 217.101V215.943C222.101 216.005 221.971 216.062 221.805 216.114C221.644 216.161 221.462 216.206 221.258 216.249C221.055 216.286 220.851 216.322 220.647 216.355C220.444 216.384 220.259 216.41 220.093 216.433C219.738 216.485 219.428 216.568 219.163 216.682C218.898 216.795 218.692 216.949 218.545 217.143C218.398 217.333 218.325 217.57 218.325 217.854C218.325 218.266 218.474 218.58 218.772 218.798C219.075 219.011 219.459 219.118 219.923 219.118ZM230.573 206.455V221H227.547V206.455H230.573ZM237.925 221.213C236.808 221.213 235.847 220.976 235.042 220.503C234.242 220.025 233.626 219.362 233.195 218.514C232.769 217.667 232.556 216.691 232.556 215.588C232.556 214.471 232.772 213.491 233.202 212.648C233.638 211.8 234.256 211.14 235.056 210.666C235.856 210.188 236.808 209.949 237.911 209.949C238.863 209.949 239.696 210.122 240.411 210.467C241.126 210.813 241.692 211.298 242.109 211.923C242.525 212.548 242.755 213.282 242.798 214.125H239.942C239.862 213.58 239.649 213.143 239.303 212.811C238.962 212.475 238.515 212.307 237.961 212.307C237.492 212.307 237.083 212.435 236.732 212.69C236.387 212.941 236.117 213.308 235.923 213.791C235.728 214.274 235.631 214.859 235.631 215.545C235.631 216.241 235.726 216.833 235.915 217.321C236.11 217.809 236.382 218.18 236.732 218.436C237.083 218.692 237.492 218.82 237.961 218.82C238.307 218.82 238.617 218.749 238.891 218.607C239.171 218.464 239.4 218.259 239.58 217.989C239.765 217.714 239.886 217.385 239.942 217.001H242.798C242.75 217.835 242.523 218.569 242.116 219.203C241.713 219.833 241.157 220.325 240.447 220.68C239.737 221.036 238.896 221.213 237.925 221.213ZM251.73 216.355V210.091H254.756V221H251.851V219.018H251.738C251.491 219.658 251.082 220.171 250.509 220.56C249.941 220.948 249.247 221.142 248.428 221.142C247.699 221.142 247.057 220.976 246.503 220.645C245.949 220.313 245.516 219.842 245.203 219.232C244.896 218.621 244.739 217.889 244.735 217.037V210.091H247.76V216.497C247.765 217.141 247.938 217.65 248.279 218.024C248.62 218.398 249.077 218.585 249.65 218.585C250.014 218.585 250.355 218.502 250.672 218.337C250.989 218.166 251.245 217.915 251.439 217.584C251.638 217.252 251.735 216.843 251.73 216.355ZM260.202 206.455V221H257.176V206.455H260.202ZM265.736 221.206C265.04 221.206 264.42 221.085 263.875 220.844C263.331 220.598 262.9 220.235 262.583 219.757C262.27 219.274 262.114 218.673 262.114 217.953C262.114 217.347 262.225 216.838 262.448 216.426C262.67 216.014 262.973 215.683 263.357 215.432C263.74 215.181 264.176 214.991 264.664 214.864C265.156 214.736 265.672 214.646 266.212 214.594C266.846 214.527 267.358 214.466 267.746 214.409C268.134 214.348 268.416 214.258 268.591 214.139C268.766 214.021 268.854 213.846 268.854 213.614V213.571C268.854 213.121 268.712 212.773 268.428 212.527C268.149 212.281 267.751 212.158 267.235 212.158C266.69 212.158 266.257 212.278 265.935 212.52C265.613 212.757 265.4 213.055 265.296 213.415L262.498 213.188C262.64 212.525 262.919 211.952 263.336 211.469C263.752 210.981 264.29 210.607 264.948 210.347C265.611 210.081 266.378 209.949 267.249 209.949C267.855 209.949 268.435 210.02 268.989 210.162C269.548 210.304 270.042 210.524 270.473 210.822C270.909 211.121 271.252 211.504 271.503 211.973C271.754 212.437 271.88 212.993 271.88 213.642V221H269.01V219.487H268.925C268.75 219.828 268.516 220.129 268.222 220.389C267.928 220.645 267.576 220.846 267.164 220.993C266.752 221.135 266.276 221.206 265.736 221.206ZM266.603 219.118C267.048 219.118 267.441 219.03 267.782 218.855C268.123 218.675 268.39 218.434 268.584 218.131C268.778 217.828 268.875 217.484 268.875 217.101V215.943C268.781 216.005 268.65 216.062 268.485 216.114C268.324 216.161 268.141 216.206 267.938 216.249C267.734 216.286 267.531 216.322 267.327 216.355C267.123 216.384 266.939 216.41 266.773 216.433C266.418 216.485 266.108 216.568 265.843 216.682C265.578 216.795 265.372 216.949 265.225 217.143C265.078 217.333 265.005 217.57 265.005 217.854C265.005 218.266 265.154 218.58 265.452 218.798C265.755 219.011 266.139 219.118 266.603 219.118ZM274.227 221V210.091H277.16V211.994H277.274C277.473 211.317 277.806 210.806 278.275 210.46C278.744 210.11 279.284 209.935 279.895 209.935C280.046 209.935 280.209 209.944 280.385 209.963C280.56 209.982 280.714 210.008 280.846 210.041V212.726C280.704 212.683 280.508 212.645 280.257 212.612C280.006 212.579 279.776 212.562 279.568 212.562C279.123 212.562 278.725 212.66 278.375 212.854C278.029 213.043 277.754 213.308 277.551 213.649C277.352 213.99 277.252 214.383 277.252 214.828V221H274.227ZM319.245 206.455V221H316.219V206.455H319.245ZM321.668 221V210.091H324.694V221H321.668ZM323.188 208.685C322.738 208.685 322.353 208.536 322.031 208.237C321.713 207.934 321.555 207.572 321.555 207.151C321.555 206.734 321.713 206.376 322.031 206.078C322.353 205.775 322.738 205.624 323.188 205.624C323.638 205.624 324.022 205.775 324.339 206.078C324.661 206.376 324.822 206.734 324.822 207.151C324.822 207.572 324.661 207.934 324.339 208.237C324.022 208.536 323.638 208.685 323.188 208.685ZM327.118 221V210.091H330.001V212.016H330.129C330.356 211.376 330.735 210.872 331.265 210.503C331.796 210.134 332.43 209.949 333.169 209.949C333.917 209.949 334.554 210.136 335.079 210.51C335.605 210.879 335.955 211.381 336.13 212.016H336.244C336.467 211.391 336.869 210.891 337.451 210.517C338.038 210.138 338.732 209.949 339.532 209.949C340.55 209.949 341.377 210.273 342.011 210.922C342.65 211.566 342.97 212.48 342.97 213.663V221H339.951V214.26C339.951 213.654 339.79 213.199 339.468 212.896C339.146 212.593 338.744 212.442 338.261 212.442C337.712 212.442 337.283 212.617 336.975 212.967C336.668 213.313 336.514 213.77 336.514 214.338V221H333.581V214.196C333.581 213.661 333.427 213.235 333.119 212.918C332.816 212.6 332.416 212.442 331.919 212.442C331.583 212.442 331.279 212.527 331.01 212.697C330.744 212.863 330.534 213.098 330.377 213.401C330.221 213.699 330.143 214.049 330.143 214.452V221H327.118ZM345.36 225.091V210.091H348.343V211.923H348.478C348.61 211.63 348.802 211.331 349.053 211.028C349.309 210.721 349.64 210.465 350.047 210.261C350.459 210.053 350.971 209.949 351.581 209.949C352.377 209.949 353.111 210.157 353.783 210.574C354.455 210.986 354.993 211.608 355.395 212.442C355.798 213.27 355.999 214.31 355.999 215.56C355.999 216.777 355.802 217.804 355.409 218.642C355.021 219.475 354.491 220.107 353.819 220.538C353.151 220.964 352.403 221.178 351.574 221.178C350.987 221.178 350.488 221.08 350.076 220.886C349.668 220.692 349.335 220.448 349.074 220.155C348.814 219.857 348.615 219.556 348.478 219.253H348.385V225.091H345.36ZM348.321 215.545C348.321 216.194 348.411 216.76 348.591 217.243C348.771 217.726 349.032 218.102 349.373 218.372C349.713 218.637 350.128 218.77 350.615 218.77C351.108 218.77 351.525 218.635 351.865 218.365C352.206 218.09 352.464 217.712 352.64 217.229C352.819 216.741 352.909 216.18 352.909 215.545C352.909 214.916 352.822 214.362 352.647 213.884C352.471 213.405 352.213 213.031 351.873 212.761C351.532 212.491 351.113 212.357 350.615 212.357C350.123 212.357 349.706 212.487 349.365 212.747C349.029 213.008 348.771 213.377 348.591 213.855C348.411 214.333 348.321 214.897 348.321 215.545ZM361.127 221.206C360.431 221.206 359.81 221.085 359.266 220.844C358.721 220.598 358.291 220.235 357.973 219.757C357.661 219.274 357.505 218.673 357.505 217.953C357.505 217.347 357.616 216.838 357.838 216.426C358.061 216.014 358.364 215.683 358.748 215.432C359.131 215.181 359.567 214.991 360.054 214.864C360.547 214.736 361.063 214.646 361.603 214.594C362.237 214.527 362.748 214.466 363.137 214.409C363.525 214.348 363.807 214.258 363.982 214.139C364.157 214.021 364.245 213.846 364.245 213.614V213.571C364.245 213.121 364.103 212.773 363.819 212.527C363.539 212.281 363.141 212.158 362.625 212.158C362.081 212.158 361.648 212.278 361.326 212.52C361.004 212.757 360.791 213.055 360.686 213.415L357.888 213.188C358.03 212.525 358.31 211.952 358.726 211.469C359.143 210.981 359.68 210.607 360.338 210.347C361.001 210.081 361.768 209.949 362.64 209.949C363.246 209.949 363.826 210.02 364.38 210.162C364.938 210.304 365.433 210.524 365.864 210.822C366.3 211.121 366.643 211.504 366.894 211.973C367.145 212.437 367.27 212.993 367.27 213.642V221H364.401V219.487H364.316C364.141 219.828 363.906 220.129 363.613 220.389C363.319 220.645 362.966 220.846 362.554 220.993C362.142 221.135 361.667 221.206 361.127 221.206ZM361.993 219.118C362.438 219.118 362.831 219.03 363.172 218.855C363.513 218.675 363.781 218.434 363.975 218.131C364.169 217.828 364.266 217.484 364.266 217.101V215.943C364.171 216.005 364.041 216.062 363.875 216.114C363.714 216.161 363.532 216.206 363.328 216.249C363.125 216.286 362.921 216.322 362.718 216.355C362.514 216.384 362.329 216.41 362.164 216.433C361.809 216.485 361.498 216.568 361.233 216.682C360.968 216.795 360.762 216.949 360.615 217.143C360.469 217.333 360.395 217.57 360.395 217.854C360.395 218.266 360.544 218.58 360.843 218.798C361.146 219.011 361.529 219.118 361.993 219.118ZM369.618 221V210.091H372.551V211.994H372.664C372.863 211.317 373.197 210.806 373.666 210.46C374.135 210.11 374.674 209.935 375.285 209.935C375.437 209.935 375.6 209.944 375.775 209.963C375.95 209.982 376.104 210.008 376.237 210.041V212.726C376.095 212.683 375.898 212.645 375.647 212.612C375.396 212.579 375.167 212.562 374.958 212.562C374.513 212.562 374.116 212.66 373.765 212.854C373.42 213.043 373.145 213.308 372.941 213.649C372.743 213.99 372.643 214.383 372.643 214.828V221H369.618Z" fill="#04D47C"/>
<path d="M52.4719 54.8857L52.8674 53.4387L52.8674 53.4387L52.4719 54.8857ZM2.75652 40.1972C2.03702 40.6078 1.7866 41.524 2.19721 42.2435L8.88848 53.9685C9.29908 54.688 10.2152 54.9385 10.9347 54.5278C11.6542 54.1172 11.9047 53.2011 11.494 52.4816L5.54626 42.0593L15.9685 36.1115C16.688 35.7009 16.9384 34.7848 16.5278 34.0653C16.1172 33.3458 15.2011 33.0953 14.4816 33.506L2.75652 40.1972ZM52.8674 53.4387L3.89549 40.0531L3.1045 42.9469L52.0764 56.3326L52.8674 53.4387ZM197.868 177.384C170.454 116.5 117.276 71.0438 52.8674 53.4387L52.0764 56.3326C115.621 73.7016 168.086 118.548 195.132 178.616L197.868 177.384Z" fill="white"/>
</svg>
