<svg width="259" height="170" viewBox="0 0 259 170" fill="none" xmlns="http://www.w3.org/2000/svg">
<path d="M11.736 15.28H4.44L3.096 19H0.792L6.84 2.368H9.36L15.384 19H13.08L11.736 15.28ZM11.112 13.504L8.088 5.056L5.064 13.504H11.112ZM17.2039 12.376C17.2039 11.032 17.4759 9.856 18.0199 8.848C18.5639 7.824 19.3079 7.032 20.2519 6.472C21.2119 5.912 22.2839 5.632 23.4679 5.632C24.6039 5.632 25.5959 5.888 26.4439 6.4C27.3079 6.896 27.9399 7.512 28.3399 8.248V5.848H30.5479V25.24H28.3399V16.576C27.9239 17.312 27.2839 17.936 26.4199 18.448C25.5559 18.96 24.5479 19.216 23.3959 19.216C22.2439 19.216 21.1959 18.928 20.2519 18.352C19.3079 17.776 18.5639 16.968 18.0199 15.928C17.4759 14.888 17.2039 13.704 17.2039 12.376ZM28.3399 12.4C28.3399 11.408 28.1399 10.544 27.7399 9.808C27.3399 9.072 26.7959 8.512 26.1079 8.128C25.4359 7.728 24.6919 7.528 23.8759 7.528C23.0599 7.528 22.3159 7.72 21.6439 8.104C20.9719 8.488 20.4359 9.048 20.0359 9.784C19.6359 10.52 19.4359 11.384 19.4359 12.376C19.4359 13.384 19.6359 14.264 20.0359 15.016C20.4359 15.752 20.9719 16.32 21.6439 16.72C22.3159 17.104 23.0599 17.296 23.8759 17.296C24.6919 17.296 25.4359 17.104 26.1079 16.72C26.7959 16.32 27.3399 15.752 27.7399 15.016C28.1399 14.264 28.3399 13.392 28.3399 12.4ZM45.9026 5.848V19H43.7186V17.056C43.3026 17.728 42.7186 18.256 41.9666 18.64C41.2306 19.008 40.4146 19.192 39.5186 19.192C38.4946 19.192 37.5746 18.984 36.7586 18.568C35.9426 18.136 35.2946 17.496 34.8146 16.648C34.3506 15.8 34.1186 14.768 34.1186 13.552V5.848H36.2786V13.264C36.2786 14.56 36.6066 15.56 37.2626 16.264C37.9186 16.952 38.8146 17.296 39.9506 17.296C41.1186 17.296 42.0386 16.936 42.7106 16.216C43.3826 15.496 43.7186 14.448 43.7186 13.072V5.848H45.9026ZM50.7182 3.712C50.3022 3.712 49.9502 3.568 49.6622 3.28C49.3742 2.992 49.2302 2.64 49.2302 2.224C49.2302 1.808 49.3742 1.456 49.6622 1.168C49.9502 0.879999 50.3022 0.735999 50.7182 0.735999C51.1182 0.735999 51.4542 0.879999 51.7262 1.168C52.0142 1.456 52.1582 1.808 52.1582 2.224C52.1582 2.64 52.0142 2.992 51.7262 3.28C51.4542 3.568 51.1182 3.712 50.7182 3.712ZM51.7742 5.848V19H49.5902V5.848H51.7742ZM66.5509 19.216C65.5429 19.216 64.6389 19.048 63.8389 18.712C63.0389 18.36 62.4069 17.88 61.9429 17.272C61.4789 16.648 61.2229 15.936 61.1749 15.136H63.4309C63.4949 15.792 63.7989 16.328 64.3429 16.744C64.9029 17.16 65.6309 17.368 66.5269 17.368C67.3589 17.368 68.0149 17.184 68.4949 16.816C68.9749 16.448 69.2149 15.984 69.2149 15.424C69.2149 14.848 68.9589 14.424 68.4469 14.152C67.9349 13.864 67.1429 13.584 66.0709 13.312C65.0949 13.056 64.2949 12.8 63.6709 12.544C63.0629 12.272 62.5349 11.88 62.0869 11.368C61.6549 10.84 61.4389 10.152 61.4389 9.304C61.4389 8.632 61.6389 8.016 62.0389 7.456C62.4389 6.896 63.0069 6.456 63.7429 6.136C64.4789 5.8 65.3189 5.632 66.2629 5.632C67.7189 5.632 68.8949 6 69.7909 6.736C70.6869 7.472 71.1669 8.48 71.2309 9.76H69.0469C68.9989 9.072 68.7189 8.52 68.2069 8.104C67.7109 7.688 67.0389 7.48 66.1909 7.48C65.4069 7.48 64.7829 7.648 64.3189 7.984C63.8549 8.32 63.6229 8.76 63.6229 9.304C63.6229 9.736 63.7589 10.096 64.0309 10.384C64.3189 10.656 64.6709 10.88 65.0869 11.056C65.5189 11.216 66.1109 11.4 66.8629 11.608C67.8069 11.864 68.5749 12.12 69.1669 12.376C69.7589 12.616 70.2629 12.984 70.6789 13.48C71.1109 13.976 71.3349 14.624 71.3509 15.424C71.3509 16.144 71.1509 16.792 70.7509 17.368C70.3509 17.944 69.7829 18.4 69.0469 18.736C68.3269 19.056 67.4949 19.216 66.5509 19.216ZM73.6179 12.376C73.6179 11.032 73.8899 9.856 74.4339 8.848C74.9779 7.824 75.7219 7.032 76.6659 6.472C77.6259 5.912 78.6899 5.632 79.8579 5.632C81.0099 5.632 82.0099 5.88 82.8579 6.376C83.7059 6.872 84.3379 7.496 84.7539 8.248V5.848H86.9619V19H84.7539V16.552C84.3219 17.32 83.6739 17.96 82.8099 18.472C81.9619 18.968 80.9699 19.216 79.8339 19.216C78.6659 19.216 77.6099 18.928 76.6659 18.352C75.7219 17.776 74.9779 16.968 74.4339 15.928C73.8899 14.888 73.6179 13.704 73.6179 12.376ZM84.7539 12.4C84.7539 11.408 84.5539 10.544 84.1539 9.808C83.7539 9.072 83.2099 8.512 82.5219 8.128C81.8499 7.728 81.1059 7.528 80.2899 7.528C79.4739 7.528 78.7299 7.72 78.0579 8.104C77.3859 8.488 76.8499 9.048 76.4499 9.784C76.0499 10.52 75.8499 11.384 75.8499 12.376C75.8499 13.384 76.0499 14.264 76.4499 15.016C76.8499 15.752 77.3859 16.32 78.0579 16.72C78.7299 17.104 79.4739 17.296 80.2899 17.296C81.1059 17.296 81.8499 17.104 82.5219 16.72C83.2099 16.32 83.7539 15.752 84.1539 15.016C84.5539 14.264 84.7539 13.392 84.7539 12.4ZM77.1939 4.432C77.3059 3.616 77.5699 2.992 77.9859 2.56C78.4179 2.128 78.9539 1.912 79.5939 1.912C79.8979 1.912 80.1539 1.968 80.3619 2.08C80.5859 2.176 80.8499 2.32 81.1539 2.512C81.3779 2.672 81.5779 2.8 81.7539 2.896C81.9299 2.976 82.1219 3.016 82.3299 3.016C82.6019 3.016 82.8339 2.928 83.0259 2.752C83.2179 2.576 83.3379 2.32 83.3859 1.984H84.6339C84.5379 2.784 84.2739 3.4 83.8419 3.832C83.4099 4.264 82.8739 4.48 82.2339 4.48C81.9299 4.48 81.6579 4.432 81.4179 4.336C81.1939 4.224 80.9379 4.064 80.6499 3.856C80.3939 3.696 80.1859 3.576 80.0259 3.496C79.8819 3.416 79.7059 3.376 79.4979 3.376C79.2259 3.376 78.9939 3.464 78.8019 3.64C78.6259 3.816 78.5139 4.08 78.4659 4.432H77.1939ZM96.3887 19.216C95.1567 19.216 94.0367 18.936 93.0287 18.376C92.0367 17.816 91.2527 17.024 90.6767 16C90.1167 14.96 89.8367 13.76 89.8367 12.4C89.8367 11.056 90.1247 9.872 90.7007 8.848C91.2927 7.808 92.0927 7.016 93.1007 6.472C94.1087 5.912 95.2367 5.632 96.4847 5.632C97.7327 5.632 98.8607 5.912 99.8687 6.472C100.877 7.016 101.669 7.8 102.245 8.824C102.837 9.848 103.133 11.04 103.133 12.4C103.133 13.76 102.829 14.96 102.221 16C101.629 17.024 100.821 17.816 99.7967 18.376C98.7727 18.936 97.6367 19.216 96.3887 19.216ZM96.3887 17.296C97.1727 17.296 97.9087 17.112 98.5967 16.744C99.2847 16.376 99.8367 15.824 100.253 15.088C100.685 14.352 100.901 13.456 100.901 12.4C100.901 11.344 100.693 10.448 100.277 9.712C99.8607 8.976 99.3167 8.432 98.6447 8.08C97.9727 7.712 97.2447 7.528 96.4607 7.528C95.6607 7.528 94.9247 7.712 94.2527 8.08C93.5967 8.432 93.0687 8.976 92.6687 9.712C92.2687 10.448 92.0687 11.344 92.0687 12.4C92.0687 13.472 92.2607 14.376 92.6447 15.112C93.0447 15.848 93.5727 16.4 94.2287 16.768C94.8847 17.12 95.6047 17.296 96.3887 17.296ZM118.139 19.216C116.907 19.216 115.787 18.936 114.779 18.376C113.787 17.816 113.003 17.024 112.427 16C111.867 14.96 111.587 13.76 111.587 12.4C111.587 11.056 111.875 9.872 112.451 8.848C113.043 7.808 113.843 7.016 114.851 6.472C115.859 5.912 116.987 5.632 118.235 5.632C119.483 5.632 120.611 5.912 121.619 6.472C122.627 7.016 123.419 7.8 123.995 8.824C124.587 9.848 124.883 11.04 124.883 12.4C124.883 13.76 124.579 14.96 123.971 16C123.379 17.024 122.571 17.816 121.547 18.376C120.523 18.936 119.387 19.216 118.139 19.216ZM118.139 17.296C118.923 17.296 119.659 17.112 120.347 16.744C121.035 16.376 121.587 15.824 122.003 15.088C122.435 14.352 122.651 13.456 122.651 12.4C122.651 11.344 122.443 10.448 122.027 9.712C121.611 8.976 121.067 8.432 120.395 8.08C119.723 7.712 118.995 7.528 118.211 7.528C117.411 7.528 116.675 7.712 116.003 8.08C115.347 8.432 114.819 8.976 114.419 9.712C114.019 10.448 113.819 11.344 113.819 12.4C113.819 13.472 114.011 14.376 114.395 15.112C114.795 15.848 115.323 16.4 115.979 16.768C116.635 17.12 117.355 17.296 118.139 17.296ZM132.41 19.216C131.402 19.216 130.498 19.048 129.698 18.712C128.898 18.36 128.266 17.88 127.802 17.272C127.338 16.648 127.082 15.936 127.034 15.136H129.29C129.354 15.792 129.658 16.328 130.202 16.744C130.762 17.16 131.49 17.368 132.386 17.368C133.218 17.368 133.874 17.184 134.354 16.816C134.834 16.448 135.074 15.984 135.074 15.424C135.074 14.848 134.818 14.424 134.306 14.152C133.794 13.864 133.002 13.584 131.93 13.312C130.954 13.056 130.154 12.8 129.53 12.544C128.922 12.272 128.394 11.88 127.946 11.368C127.514 10.84 127.298 10.152 127.298 9.304C127.298 8.632 127.498 8.016 127.898 7.456C128.298 6.896 128.866 6.456 129.602 6.136C130.338 5.8 131.178 5.632 132.122 5.632C133.578 5.632 134.754 6 135.65 6.736C136.546 7.472 137.026 8.48 137.09 9.76H134.906C134.858 9.072 134.578 8.52 134.066 8.104C133.57 7.688 132.898 7.48 132.05 7.48C131.266 7.48 130.642 7.648 130.178 7.984C129.714 8.32 129.482 8.76 129.482 9.304C129.482 9.736 129.618 10.096 129.89 10.384C130.178 10.656 130.53 10.88 130.946 11.056C131.378 11.216 131.97 11.4 132.722 11.608C133.666 11.864 134.434 12.12 135.026 12.376C135.618 12.616 136.122 12.984 136.538 13.48C136.97 13.976 137.194 14.624 137.21 15.424C137.21 16.144 137.01 16.792 136.61 17.368C136.21 17.944 135.642 18.4 134.906 18.736C134.186 19.056 133.354 19.216 132.41 19.216ZM151.42 5.416C152.364 5.416 153.188 5.608 153.892 5.992C154.612 6.376 155.164 6.88 155.548 7.504V5.608H159.652V18.976C159.652 20.208 159.404 21.32 158.908 22.312C158.428 23.32 157.684 24.12 156.676 24.712C155.684 25.304 154.444 25.6 152.956 25.6C150.972 25.6 149.364 25.128 148.132 24.184C146.9 23.256 146.196 21.992 146.02 20.392H150.076C150.204 20.904 150.508 21.304 150.988 21.592C151.468 21.896 152.06 22.048 152.764 22.048C153.612 22.048 154.284 21.8 154.78 21.304C155.292 20.824 155.548 20.048 155.548 18.976V17.08C155.148 17.704 154.596 18.216 153.892 18.616C153.188 19 152.364 19.192 151.42 19.192C150.316 19.192 149.316 18.912 148.42 18.352C147.524 17.776 146.812 16.968 146.284 15.928C145.772 14.872 145.516 13.656 145.516 12.28C145.516 10.904 145.772 9.696 146.284 8.656C146.812 7.616 147.524 6.816 148.42 6.256C149.316 5.696 150.316 5.416 151.42 5.416ZM155.548 12.304C155.548 11.28 155.26 10.472 154.684 9.88C154.124 9.288 153.436 8.992 152.62 8.992C151.804 8.992 151.108 9.288 150.532 9.88C149.972 10.456 149.692 11.256 149.692 12.28C149.692 13.304 149.972 14.12 150.532 14.728C151.108 15.32 151.804 15.616 152.62 15.616C153.436 15.616 154.124 15.32 154.684 14.728C155.26 14.136 155.548 13.328 155.548 12.304ZM161.805 12.28C161.805 10.904 162.061 9.696 162.573 8.656C163.101 7.616 163.813 6.816 164.709 6.256C165.605 5.696 166.605 5.416 167.709 5.416C168.653 5.416 169.477 5.608 170.181 5.992C170.901 6.376 171.453 6.88 171.837 7.504V5.608H175.941V19H171.837V17.104C171.437 17.728 170.877 18.232 170.157 18.616C169.453 19 168.629 19.192 167.685 19.192C166.597 19.192 165.605 18.912 164.709 18.352C163.813 17.776 163.101 16.968 162.573 15.928C162.061 14.872 161.805 13.656 161.805 12.28ZM171.837 12.304C171.837 11.28 171.549 10.472 170.973 9.88C170.413 9.288 169.725 8.992 168.909 8.992C168.093 8.992 167.397 9.288 166.821 9.88C166.261 10.456 165.981 11.256 165.981 12.28C165.981 13.304 166.261 14.12 166.821 14.728C167.397 15.32 168.093 15.616 168.909 15.616C169.725 15.616 170.413 15.32 170.973 14.728C171.549 14.136 171.837 13.328 171.837 12.304ZM183.014 1.24V19H178.91V1.24H183.014ZM198.612 12.088C198.612 12.472 198.588 12.872 198.54 13.288H189.252C189.316 14.12 189.58 14.76 190.044 15.208C190.524 15.64 191.108 15.856 191.796 15.856C192.82 15.856 193.532 15.424 193.932 14.56H198.3C198.076 15.44 197.668 16.232 197.076 16.936C196.5 17.64 195.772 18.192 194.892 18.592C194.012 18.992 193.028 19.192 191.94 19.192C190.628 19.192 189.46 18.912 188.436 18.352C187.412 17.792 186.612 16.992 186.036 15.952C185.46 14.912 185.172 13.696 185.172 12.304C185.172 10.912 185.452 9.696 186.012 8.656C186.588 7.616 187.388 6.816 188.412 6.256C189.436 5.696 190.612 5.416 191.94 5.416C193.236 5.416 194.388 5.688 195.396 6.232C196.404 6.776 197.188 7.552 197.748 8.56C198.324 9.568 198.612 10.744 198.612 12.088ZM194.412 11.008C194.412 10.304 194.172 9.744 193.692 9.328C193.212 8.912 192.612 8.704 191.892 8.704C191.204 8.704 190.62 8.904 190.14 9.304C189.676 9.704 189.388 10.272 189.276 11.008H194.412ZM206.225 19.192C205.057 19.192 204.017 18.992 203.105 18.592C202.193 18.192 201.473 17.648 200.945 16.96C200.417 16.256 200.121 15.472 200.057 14.608H204.113C204.161 15.072 204.377 15.448 204.761 15.736C205.145 16.024 205.617 16.168 206.177 16.168C206.689 16.168 207.081 16.072 207.353 15.88C207.641 15.672 207.785 15.408 207.785 15.088C207.785 14.704 207.585 14.424 207.185 14.248C206.785 14.056 206.137 13.848 205.241 13.624C204.281 13.4 203.481 13.168 202.841 12.928C202.201 12.672 201.649 12.28 201.185 11.752C200.721 11.208 200.489 10.48 200.489 9.568C200.489 8.8 200.697 8.104 201.113 7.48C201.545 6.84 202.169 6.336 202.985 5.968C203.817 5.6 204.801 5.416 205.937 5.416C207.617 5.416 208.937 5.832 209.897 6.664C210.873 7.496 211.433 8.6 211.577 9.976H207.785C207.721 9.512 207.513 9.144 207.161 8.872C206.825 8.6 206.377 8.464 205.817 8.464C205.337 8.464 204.969 8.56 204.713 8.752C204.457 8.928 204.329 9.176 204.329 9.496C204.329 9.88 204.529 10.168 204.929 10.36C205.345 10.552 205.985 10.744 206.849 10.936C207.841 11.192 208.649 11.448 209.273 11.704C209.897 11.944 210.441 12.344 210.905 12.904C211.385 13.448 211.633 14.184 211.649 15.112C211.649 15.896 211.425 16.6 210.977 17.224C210.545 17.832 209.913 18.312 209.081 18.664C208.265 19.016 207.313 19.192 206.225 19.192ZM216.776 15.976L214.088 22.432H212.624L214.376 15.976H216.776ZM13.848 47.92C13.848 48.336 13.824 48.776 13.776 49.24H3.264C3.344 50.536 3.784 51.552 4.584 52.288C5.4 53.008 6.384 53.368 7.536 53.368C8.48 53.368 9.264 53.152 9.888 52.72C10.528 52.272 10.976 51.68 11.232 50.944H13.584C13.232 52.208 12.528 53.24 11.472 54.04C10.416 54.824 9.104 55.216 7.536 55.216C6.288 55.216 5.168 54.936 4.176 54.376C3.2 53.816 2.432 53.024 1.872 52C1.312 50.96 1.032 49.76 1.032 48.4C1.032 47.04 1.304 45.848 1.848 44.824C2.392 43.8 3.152 43.016 4.128 42.472C5.12 41.912 6.256 41.632 7.536 41.632C8.784 41.632 9.888 41.904 10.848 42.448C11.808 42.992 12.544 43.744 13.056 44.704C13.584 45.648 13.848 46.72 13.848 47.92ZM11.592 47.464C11.592 46.632 11.408 45.92 11.04 45.328C10.672 44.72 10.168 44.264 9.528 43.96C8.904 43.64 8.208 43.48 7.44 43.48C6.336 43.48 5.392 43.832 4.608 44.536C3.84 45.24 3.4 46.216 3.288 47.464H11.592ZM32.5468 41.608C33.5708 41.608 34.4828 41.824 35.2828 42.256C36.0828 42.672 36.7148 43.304 37.1788 44.152C37.6428 45 37.8748 46.032 37.8748 47.248V55H35.7148V47.56C35.7148 46.248 35.3868 45.248 34.7308 44.56C34.0908 43.856 33.2188 43.504 32.1148 43.504C30.9788 43.504 30.0748 43.872 29.4028 44.608C28.7308 45.328 28.3948 46.376 28.3948 47.752V55H26.2348V47.56C26.2348 46.248 25.9068 45.248 25.2508 44.56C24.6108 43.856 23.7388 43.504 22.6348 43.504C21.4988 43.504 20.5948 43.872 19.9228 44.608C19.2508 45.328 18.9148 46.376 18.9148 47.752V55H16.7308V41.848H18.9148V43.744C19.3468 43.056 19.9228 42.528 20.6428 42.16C21.3788 41.792 22.1868 41.608 23.0668 41.608C24.1708 41.608 25.1468 41.856 25.9948 42.352C26.8428 42.848 27.4748 43.576 27.8908 44.536C28.2588 43.608 28.8668 42.888 29.7148 42.376C30.5628 41.864 31.5068 41.608 32.5468 41.608ZM47.0398 48.4C47.0398 47.04 47.3118 45.856 47.8558 44.848C48.3998 43.824 49.1518 43.032 50.1118 42.472C51.0878 41.912 52.1998 41.632 53.4478 41.632C55.0638 41.632 56.3918 42.024 57.4318 42.808C58.4878 43.592 59.1838 44.68 59.5198 46.072H57.1678C56.9438 45.272 56.5038 44.64 55.8478 44.176C55.2078 43.712 54.4078 43.48 53.4478 43.48C52.1998 43.48 51.1918 43.912 50.4238 44.776C49.6558 45.624 49.2718 46.832 49.2718 48.4C49.2718 49.984 49.6558 51.208 50.4238 52.072C51.1918 52.936 52.1998 53.368 53.4478 53.368C54.4078 53.368 55.2078 53.144 55.8478 52.696C56.4878 52.248 56.9278 51.608 57.1678 50.776H59.5198C59.1678 52.12 58.4638 53.2 57.4078 54.016C56.3518 54.816 55.0318 55.216 53.4478 55.216C52.1998 55.216 51.0878 54.936 50.1118 54.376C49.1518 53.816 48.3998 53.024 47.8558 52C47.3118 50.976 47.0398 49.776 47.0398 48.4ZM61.6179 48.376C61.6179 47.032 61.8899 45.856 62.4339 44.848C62.9779 43.824 63.7219 43.032 64.6659 42.472C65.6259 41.912 66.6899 41.632 67.8579 41.632C69.0099 41.632 70.0099 41.88 70.8579 42.376C71.7059 42.872 72.3379 43.496 72.7539 44.248V41.848H74.9619V55H72.7539V52.552C72.3219 53.32 71.6739 53.96 70.8099 54.472C69.9619 54.968 68.9699 55.216 67.8339 55.216C66.6659 55.216 65.6099 54.928 64.6659 54.352C63.7219 53.776 62.9779 52.968 62.4339 51.928C61.8899 50.888 61.6179 49.704 61.6179 48.376ZM72.7539 48.4C72.7539 47.408 72.5539 46.544 72.1539 45.808C71.7539 45.072 71.2099 44.512 70.5219 44.128C69.8499 43.728 69.1059 43.528 68.2899 43.528C67.4739 43.528 66.7299 43.72 66.0579 44.104C65.3859 44.488 64.8499 45.048 64.4499 45.784C64.0499 46.52 63.8499 47.384 63.8499 48.376C63.8499 49.384 64.0499 50.264 64.4499 51.016C64.8499 51.752 65.3859 52.32 66.0579 52.72C66.7299 53.104 67.4739 53.296 68.2899 53.296C69.1059 53.296 69.8499 53.104 70.5219 52.72C71.2099 52.32 71.7539 51.752 72.1539 51.016C72.5539 50.264 72.7539 49.392 72.7539 48.4ZM83.3087 55.216C82.3007 55.216 81.3967 55.048 80.5967 54.712C79.7967 54.36 79.1647 53.88 78.7007 53.272C78.2367 52.648 77.9807 51.936 77.9327 51.136H80.1887C80.2527 51.792 80.5567 52.328 81.1007 52.744C81.6607 53.16 82.3887 53.368 83.2847 53.368C84.1167 53.368 84.7727 53.184 85.2527 52.816C85.7327 52.448 85.9727 51.984 85.9727 51.424C85.9727 50.848 85.7167 50.424 85.2047 50.152C84.6927 49.864 83.9007 49.584 82.8287 49.312C81.8527 49.056 81.0527 48.8 80.4287 48.544C79.8207 48.272 79.2927 47.88 78.8447 47.368C78.4127 46.84 78.1967 46.152 78.1967 45.304C78.1967 44.632 78.3967 44.016 78.7967 43.456C79.1967 42.896 79.7647 42.456 80.5007 42.136C81.2367 41.8 82.0767 41.632 83.0207 41.632C84.4767 41.632 85.6527 42 86.5487 42.736C87.4447 43.472 87.9247 44.48 87.9887 45.76H85.8047C85.7567 45.072 85.4767 44.52 84.9647 44.104C84.4687 43.688 83.7967 43.48 82.9487 43.48C82.1647 43.48 81.5407 43.648 81.0767 43.984C80.6127 44.32 80.3807 44.76 80.3807 45.304C80.3807 45.736 80.5167 46.096 80.7887 46.384C81.0767 46.656 81.4287 46.88 81.8447 47.056C82.2767 47.216 82.8687 47.4 83.6207 47.608C84.5647 47.864 85.3327 48.12 85.9247 48.376C86.5167 48.616 87.0207 48.984 87.4367 49.48C87.8687 49.976 88.0927 50.624 88.1087 51.424C88.1087 52.144 87.9087 52.792 87.5087 53.368C87.1087 53.944 86.5407 54.4 85.8047 54.736C85.0847 55.056 84.2527 55.216 83.3087 55.216ZM96.9278 55.216C95.6958 55.216 94.5758 54.936 93.5678 54.376C92.5758 53.816 91.7918 53.024 91.2158 52C90.6558 50.96 90.3758 49.76 90.3758 48.4C90.3758 47.056 90.6638 45.872 91.2398 44.848C91.8318 43.808 92.6318 43.016 93.6398 42.472C94.6478 41.912 95.7758 41.632 97.0238 41.632C98.2718 41.632 99.3998 41.912 100.408 42.472C101.416 43.016 102.208 43.8 102.784 44.824C103.376 45.848 103.672 47.04 103.672 48.4C103.672 49.76 103.368 50.96 102.76 52C102.168 53.024 101.36 53.816 100.336 54.376C99.3118 54.936 98.1758 55.216 96.9278 55.216ZM96.9278 53.296C97.7118 53.296 98.4478 53.112 99.1358 52.744C99.8238 52.376 100.376 51.824 100.792 51.088C101.224 50.352 101.44 49.456 101.44 48.4C101.44 47.344 101.232 46.448 100.816 45.712C100.4 44.976 99.8558 44.432 99.1838 44.08C98.5118 43.712 97.7838 43.528 96.9998 43.528C96.1998 43.528 95.4638 43.712 94.7918 44.08C94.1358 44.432 93.6078 44.976 93.2078 45.712C92.8078 46.448 92.6078 47.344 92.6078 48.4C92.6078 49.472 92.7998 50.376 93.1838 51.112C93.5838 51.848 94.1118 52.4 94.7678 52.768C95.4238 53.12 96.1438 53.296 96.9278 53.296ZM112.126 48.376C112.126 47.032 112.398 45.856 112.942 44.848C113.486 43.824 114.23 43.032 115.174 42.472C116.134 41.912 117.206 41.632 118.39 41.632C119.414 41.632 120.366 41.872 121.246 42.352C122.126 42.816 122.798 43.432 123.262 44.2V37.24H125.47V55H123.262V52.528C122.83 53.312 122.19 53.96 121.342 54.472C120.494 54.968 119.502 55.216 118.366 55.216C117.198 55.216 116.134 54.928 115.174 54.352C114.23 53.776 113.486 52.968 112.942 51.928C112.398 50.888 112.126 49.704 112.126 48.376ZM123.262 48.4C123.262 47.408 123.062 46.544 122.662 45.808C122.262 45.072 121.718 44.512 121.03 44.128C120.358 43.728 119.614 43.528 118.798 43.528C117.982 43.528 117.238 43.72 116.566 44.104C115.894 44.488 115.358 45.048 114.958 45.784C114.558 46.52 114.358 47.384 114.358 48.376C114.358 49.384 114.558 50.264 114.958 51.016C115.358 51.752 115.894 52.32 116.566 52.72C117.238 53.104 117.982 53.296 118.798 53.296C119.614 53.296 120.358 53.104 121.03 52.72C121.718 52.32 122.262 51.752 122.662 51.016C123.062 50.264 123.262 49.392 123.262 48.4ZM141.161 47.92C141.161 48.336 141.137 48.776 141.089 49.24H130.577C130.657 50.536 131.097 51.552 131.897 52.288C132.713 53.008 133.697 53.368 134.849 53.368C135.793 53.368 136.577 53.152 137.201 52.72C137.841 52.272 138.289 51.68 138.545 50.944H140.897C140.545 52.208 139.841 53.24 138.785 54.04C137.729 54.824 136.417 55.216 134.849 55.216C133.601 55.216 132.481 54.936 131.489 54.376C130.513 53.816 129.745 53.024 129.185 52C128.625 50.96 128.345 49.76 128.345 48.4C128.345 47.04 128.617 45.848 129.161 44.824C129.705 43.8 130.465 43.016 131.441 42.472C132.433 41.912 133.569 41.632 134.849 41.632C136.097 41.632 137.201 41.904 138.161 42.448C139.121 42.992 139.857 43.744 140.369 44.704C140.897 45.648 141.161 46.72 141.161 47.92ZM138.905 47.464C138.905 46.632 138.721 45.92 138.353 45.328C137.985 44.72 137.481 44.264 136.841 43.96C136.217 43.64 135.521 43.48 134.753 43.48C133.649 43.48 132.705 43.832 131.921 44.536C131.153 45.24 130.713 46.216 130.601 47.464H138.905ZM155.338 52.984L159.418 41.848H161.746L156.586 55H154.042L148.882 41.848H151.234L155.338 52.984ZM165.023 39.712C164.607 39.712 164.255 39.568 163.967 39.28C163.679 38.992 163.535 38.64 163.535 38.224C163.535 37.808 163.679 37.456 163.967 37.168C164.255 36.88 164.607 36.736 165.023 36.736C165.423 36.736 165.759 36.88 166.031 37.168C166.319 37.456 166.463 37.808 166.463 38.224C166.463 38.64 166.319 38.992 166.031 39.28C165.759 39.568 165.423 39.712 165.023 39.712ZM166.079 41.848V55H163.895V41.848H166.079ZM172.465 43.648V51.4C172.465 52.04 172.601 52.496 172.873 52.768C173.145 53.024 173.617 53.152 174.289 53.152H175.897V55H173.929C172.713 55 171.801 54.72 171.193 54.16C170.585 53.6 170.281 52.68 170.281 51.4V43.648H168.577V41.848H170.281V38.536H172.465V41.848H175.897V43.648H172.465ZM184.279 55.216C183.047 55.216 181.927 54.936 180.919 54.376C179.927 53.816 179.143 53.024 178.567 52C178.007 50.96 177.727 49.76 177.727 48.4C177.727 47.056 178.015 45.872 178.591 44.848C179.183 43.808 179.983 43.016 180.991 42.472C181.999 41.912 183.127 41.632 184.375 41.632C185.623 41.632 186.751 41.912 187.759 42.472C188.767 43.016 189.559 43.8 190.135 44.824C190.727 45.848 191.023 47.04 191.023 48.4C191.023 49.76 190.719 50.96 190.111 52C189.519 53.024 188.711 53.816 187.687 54.376C186.663 54.936 185.527 55.216 184.279 55.216ZM184.279 53.296C185.063 53.296 185.799 53.112 186.487 52.744C187.175 52.376 187.727 51.824 188.143 51.088C188.575 50.352 188.791 49.456 188.791 48.4C188.791 47.344 188.583 46.448 188.167 45.712C187.751 44.976 187.207 44.432 186.535 44.08C185.863 43.712 185.135 43.528 184.351 43.528C183.551 43.528 182.815 43.712 182.143 44.08C181.487 44.432 180.959 44.976 180.559 45.712C180.159 46.448 179.959 47.344 179.959 48.4C179.959 49.472 180.151 50.376 180.535 51.112C180.935 51.848 181.463 52.4 182.119 52.768C182.775 53.12 183.495 53.296 184.279 53.296ZM186.727 37.96L181.615 40.696V39.064L186.727 36.064V37.96ZM196.079 43.984C196.463 43.232 197.007 42.648 197.711 42.232C198.431 41.816 199.303 41.608 200.327 41.608V43.864H199.751C197.303 43.864 196.079 45.192 196.079 47.848V55H193.895V41.848H196.079V43.984ZM203.976 39.712C203.56 39.712 203.208 39.568 202.92 39.28C202.632 38.992 202.488 38.64 202.488 38.224C202.488 37.808 202.632 37.456 202.92 37.168C203.208 36.88 203.56 36.736 203.976 36.736C204.376 36.736 204.712 36.88 204.984 37.168C205.272 37.456 205.416 37.808 205.416 38.224C205.416 38.64 205.272 38.992 204.984 39.28C204.712 39.568 204.376 39.712 203.976 39.712ZM205.032 41.848V55H202.848V41.848H205.032ZM207.938 48.376C207.938 47.032 208.21 45.856 208.754 44.848C209.298 43.824 210.042 43.032 210.986 42.472C211.946 41.912 213.01 41.632 214.178 41.632C215.33 41.632 216.33 41.88 217.178 42.376C218.026 42.872 218.658 43.496 219.074 44.248V41.848H221.282V55H219.074V52.552C218.642 53.32 217.994 53.96 217.13 54.472C216.282 54.968 215.29 55.216 214.154 55.216C212.986 55.216 211.93 54.928 210.986 54.352C210.042 53.776 209.298 52.968 208.754 51.928C208.21 50.888 207.938 49.704 207.938 48.376ZM219.074 48.4C219.074 47.408 218.874 46.544 218.474 45.808C218.074 45.072 217.53 44.512 216.842 44.128C216.17 43.728 215.426 43.528 214.61 43.528C213.794 43.528 213.05 43.72 212.378 44.104C211.706 44.488 211.17 45.048 210.77 45.784C210.37 46.52 210.17 47.384 210.17 48.376C210.17 49.384 210.37 50.264 210.77 51.016C211.17 51.752 211.706 52.32 212.378 52.72C213.05 53.104 213.794 53.296 214.61 53.296C215.426 53.296 216.17 53.104 216.842 52.72C217.53 52.32 218.074 51.752 218.474 51.016C218.874 50.264 219.074 49.392 219.074 48.4ZM237.107 55.216C235.875 55.216 234.755 54.936 233.747 54.376C232.755 53.816 231.971 53.024 231.395 52C230.835 50.96 230.555 49.76 230.555 48.4C230.555 47.056 230.843 45.872 231.419 44.848C232.011 43.808 232.811 43.016 233.819 42.472C234.827 41.912 235.955 41.632 237.203 41.632C238.451 41.632 239.579 41.912 240.587 42.472C241.595 43.016 242.387 43.8 242.963 44.824C243.555 45.848 243.851 47.04 243.851 48.4C243.851 49.76 243.547 50.96 242.939 52C242.347 53.024 241.539 53.816 240.515 54.376C239.491 54.936 238.355 55.216 237.107 55.216ZM237.107 53.296C237.891 53.296 238.627 53.112 239.315 52.744C240.003 52.376 240.555 51.824 240.971 51.088C241.403 50.352 241.619 49.456 241.619 48.4C241.619 47.344 241.411 46.448 240.995 45.712C240.579 44.976 240.035 44.432 239.363 44.08C238.691 43.712 237.963 43.528 237.179 43.528C236.379 43.528 235.643 43.712 234.971 44.08C234.315 44.432 233.787 44.976 233.387 45.712C232.987 46.448 232.787 47.344 232.787 48.4C232.787 49.472 232.979 50.376 233.363 51.112C233.763 51.848 234.291 52.4 234.947 52.768C235.603 53.12 236.323 53.296 237.107 53.296ZM258.387 41.848V55H256.203V53.056C255.787 53.728 255.203 54.256 254.451 54.64C253.715 55.008 252.899 55.192 252.003 55.192C250.979 55.192 250.059 54.984 249.243 54.568C248.427 54.136 247.779 53.496 247.299 52.648C246.835 51.8 246.603 50.768 246.603 49.552V41.848H248.763V49.264C248.763 50.56 249.091 51.56 249.747 52.264C250.403 52.952 251.299 53.296 252.435 53.296C253.603 53.296 254.523 52.936 255.195 52.216C255.867 51.496 256.203 50.448 256.203 49.072V41.848H258.387ZM1.032 84.376C1.032 83.032 1.304 81.856 1.848 80.848C2.392 79.824 3.136 79.032 4.08 78.472C5.04 77.912 6.112 77.632 7.296 77.632C8.32 77.632 9.272 77.872 10.152 78.352C11.032 78.816 11.704 79.432 12.168 80.2V73.24H14.376V91H12.168V88.528C11.736 89.312 11.096 89.96 10.248 90.472C9.4 90.968 8.408 91.216 7.272 91.216C6.104 91.216 5.04 90.928 4.08 90.352C3.136 89.776 2.392 88.968 1.848 87.928C1.304 86.888 1.032 85.704 1.032 84.376ZM12.168 84.4C12.168 83.408 11.968 82.544 11.568 81.808C11.168 81.072 10.624 80.512 9.936 80.128C9.264 79.728 8.52 79.528 7.704 79.528C6.888 79.528 6.144 79.72 5.472 80.104C4.8 80.488 4.264 81.048 3.864 81.784C3.464 82.52 3.264 83.384 3.264 84.376C3.264 85.384 3.464 86.264 3.864 87.016C4.264 87.752 4.8 88.32 5.472 88.72C6.144 89.104 6.888 89.296 7.704 89.296C8.52 89.296 9.264 89.104 9.936 88.72C10.624 88.32 11.168 87.752 11.568 87.016C11.968 86.264 12.168 85.392 12.168 84.4ZM30.0668 83.92C30.0668 84.336 30.0428 84.776 29.9948 85.24H19.4828C19.5628 86.536 20.0028 87.552 20.8028 88.288C21.6188 89.008 22.6028 89.368 23.7548 89.368C24.6988 89.368 25.4828 89.152 26.1068 88.72C26.7468 88.272 27.1948 87.68 27.4508 86.944H29.8028C29.4508 88.208 28.7468 89.24 27.6908 90.04C26.6348 90.824 25.3228 91.216 23.7548 91.216C22.5068 91.216 21.3868 90.936 20.3948 90.376C19.4188 89.816 18.6508 89.024 18.0908 88C17.5308 86.96 17.2508 85.76 17.2508 84.4C17.2508 83.04 17.5228 81.848 18.0668 80.824C18.6108 79.8 19.3708 79.016 20.3468 78.472C21.3388 77.912 22.4748 77.632 23.7548 77.632C25.0028 77.632 26.1068 77.904 27.0668 78.448C28.0268 78.992 28.7628 79.744 29.2748 80.704C29.8028 81.648 30.0668 82.72 30.0668 83.92ZM27.8108 83.464C27.8108 82.632 27.6268 81.92 27.2588 81.328C26.8908 80.72 26.3868 80.264 25.7468 79.96C25.1228 79.64 24.4268 79.48 23.6588 79.48C22.5548 79.48 21.6108 79.832 20.8268 80.536C20.0588 81.24 19.6188 82.216 19.5068 83.464H27.8108ZM35.1336 79.984C35.5176 79.232 36.0616 78.648 36.7656 78.232C37.4856 77.816 38.3576 77.608 39.3816 77.608V79.864H38.8056C36.3576 79.864 35.1336 81.192 35.1336 83.848V91H32.9496V77.848H35.1336V79.984ZM44.0867 79.984C44.4707 79.232 45.0147 78.648 45.7187 78.232C46.4387 77.816 47.3107 77.608 48.3347 77.608V79.864H47.7587C45.3107 79.864 44.0867 81.192 44.0867 83.848V91H41.9027V77.848H44.0867V79.984ZM56.5918 91.216C55.3598 91.216 54.2398 90.936 53.2318 90.376C52.2398 89.816 51.4558 89.024 50.8798 88C50.3198 86.96 50.0398 85.76 50.0398 84.4C50.0398 83.056 50.3278 81.872 50.9038 80.848C51.4958 79.808 52.2958 79.016 53.3038 78.472C54.3118 77.912 55.4398 77.632 56.6878 77.632C57.9358 77.632 59.0638 77.912 60.0718 78.472C61.0798 79.016 61.8718 79.8 62.4478 80.824C63.0398 81.848 63.3358 83.04 63.3358 84.4C63.3358 85.76 63.0318 86.96 62.4238 88C61.8318 89.024 61.0238 89.816 59.9998 90.376C58.9758 90.936 57.8398 91.216 56.5918 91.216ZM56.5918 89.296C57.3758 89.296 58.1118 89.112 58.7998 88.744C59.4878 88.376 60.0398 87.824 60.4558 87.088C60.8878 86.352 61.1038 85.456 61.1038 84.4C61.1038 83.344 60.8958 82.448 60.4798 81.712C60.0638 80.976 59.5198 80.432 58.8478 80.08C58.1758 79.712 57.4478 79.528 56.6638 79.528C55.8638 79.528 55.1278 79.712 54.4558 80.08C53.7998 80.432 53.2718 80.976 52.8718 81.712C52.4718 82.448 52.2718 83.344 52.2718 84.4C52.2718 85.472 52.4638 86.376 52.8478 87.112C53.2478 87.848 53.7758 88.4 54.4318 88.768C55.0878 89.12 55.8078 89.296 56.5918 89.296ZM68.8714 79.648V87.4C68.8714 88.04 69.0074 88.496 69.2794 88.768C69.5514 89.024 70.0234 89.152 70.6954 89.152H72.3034V91H70.3354C69.1194 91 68.2074 90.72 67.5994 90.16C66.9914 89.6 66.6874 88.68 66.6874 87.4V79.648H64.9834V77.848H66.6874V74.536H68.8714V77.848H72.3034V79.648H68.8714ZM74.1336 84.376C74.1336 83.032 74.4056 81.856 74.9496 80.848C75.4936 79.824 76.2376 79.032 77.1816 78.472C78.1416 77.912 79.2056 77.632 80.3736 77.632C81.5256 77.632 82.5256 77.88 83.3736 78.376C84.2216 78.872 84.8536 79.496 85.2696 80.248V77.848H87.4776V91H85.2696V88.552C84.8376 89.32 84.1896 89.96 83.3256 90.472C82.4776 90.968 81.4856 91.216 80.3496 91.216C79.1816 91.216 78.1256 90.928 77.1816 90.352C76.2376 89.776 75.4936 88.968 74.9496 87.928C74.4056 86.888 74.1336 85.704 74.1336 84.376ZM85.2696 84.4C85.2696 83.408 85.0696 82.544 84.6696 81.808C84.2696 81.072 83.7256 80.512 83.0376 80.128C82.3656 79.728 81.6216 79.528 80.8056 79.528C79.9896 79.528 79.2456 79.72 78.5736 80.104C77.9016 80.488 77.3656 81.048 76.9656 81.784C76.5656 82.52 76.3656 83.384 76.3656 84.376C76.3656 85.384 76.5656 86.264 76.9656 87.016C77.3656 87.752 77.9016 88.32 78.5736 88.72C79.2456 89.104 79.9896 89.296 80.8056 89.296C81.6216 89.296 82.3656 89.104 83.0376 88.72C83.7256 88.32 84.2696 87.752 84.6696 87.016C85.0696 86.264 85.2696 85.392 85.2696 84.4ZM93.4243 87.976L90.7363 94.432H89.2723L91.0243 87.976H93.4243ZM114.325 83.92C114.325 84.336 114.301 84.776 114.253 85.24H103.741C103.821 86.536 104.261 87.552 105.061 88.288C105.877 89.008 106.861 89.368 108.013 89.368C108.957 89.368 109.741 89.152 110.365 88.72C111.005 88.272 111.453 87.68 111.709 86.944H114.061C113.709 88.208 113.005 89.24 111.949 90.04C110.893 90.824 109.581 91.216 108.013 91.216C106.765 91.216 105.645 90.936 104.653 90.376C103.677 89.816 102.909 89.024 102.349 88C101.789 86.96 101.509 85.76 101.509 84.4C101.509 83.04 101.781 81.848 102.325 80.824C102.869 79.8 103.629 79.016 104.605 78.472C105.597 77.912 106.733 77.632 108.013 77.632C109.261 77.632 110.365 77.904 111.325 78.448C112.285 78.992 113.021 79.744 113.533 80.704C114.061 81.648 114.325 82.72 114.325 83.92ZM112.069 83.464C112.069 82.632 111.885 81.92 111.517 81.328C111.149 80.72 110.645 80.264 110.005 79.96C109.381 79.64 108.685 79.48 107.917 79.48C106.813 79.48 105.869 79.832 105.085 80.536C104.317 81.24 103.877 82.216 103.765 83.464H112.069ZM119.391 73.24V91H117.207V73.24H119.391ZM135.114 83.92C135.114 84.336 135.09 84.776 135.042 85.24H124.53C124.61 86.536 125.05 87.552 125.85 88.288C126.666 89.008 127.65 89.368 128.802 89.368C129.746 89.368 130.53 89.152 131.154 88.72C131.794 88.272 132.242 87.68 132.498 86.944H134.85C134.498 88.208 133.794 89.24 132.738 90.04C131.682 90.824 130.37 91.216 128.802 91.216C127.554 91.216 126.434 90.936 125.442 90.376C124.466 89.816 123.698 89.024 123.138 88C122.578 86.96 122.298 85.76 122.298 84.4C122.298 83.04 122.57 81.848 123.114 80.824C123.658 79.8 124.418 79.016 125.394 78.472C126.386 77.912 127.522 77.632 128.802 77.632C130.05 77.632 131.154 77.904 132.114 78.448C133.074 78.992 133.81 79.744 134.322 80.704C134.85 81.648 135.114 82.72 135.114 83.92ZM132.858 83.464C132.858 82.632 132.674 81.92 132.306 81.328C131.938 80.72 131.434 80.264 130.794 79.96C130.17 79.64 129.474 79.48 128.706 79.48C127.602 79.48 126.658 79.832 125.874 80.536C125.106 81.24 124.666 82.216 124.554 83.464H132.858ZM142.652 91.216C141.644 91.216 140.74 91.048 139.94 90.712C139.14 90.36 138.508 89.88 138.044 89.272C137.58 88.648 137.324 87.936 137.276 87.136H139.532C139.596 87.792 139.9 88.328 140.444 88.744C141.004 89.16 141.732 89.368 142.628 89.368C143.46 89.368 144.116 89.184 144.596 88.816C145.076 88.448 145.316 87.984 145.316 87.424C145.316 86.848 145.06 86.424 144.548 86.152C144.036 85.864 143.244 85.584 142.172 85.312C141.196 85.056 140.396 84.8 139.772 84.544C139.164 84.272 138.636 83.88 138.188 83.368C137.756 82.84 137.54 82.152 137.54 81.304C137.54 80.632 137.74 80.016 138.14 79.456C138.54 78.896 139.108 78.456 139.844 78.136C140.58 77.8 141.42 77.632 142.364 77.632C143.82 77.632 144.996 78 145.892 78.736C146.788 79.472 147.268 80.48 147.332 81.76H145.148C145.1 81.072 144.82 80.52 144.308 80.104C143.812 79.688 143.14 79.48 142.292 79.48C141.508 79.48 140.884 79.648 140.42 79.984C139.956 80.32 139.724 80.76 139.724 81.304C139.724 81.736 139.86 82.096 140.132 82.384C140.42 82.656 140.772 82.88 141.188 83.056C141.62 83.216 142.212 83.4 142.964 83.608C143.908 83.864 144.676 84.12 145.268 84.376C145.86 84.616 146.364 84.984 146.78 85.48C147.212 85.976 147.436 86.624 147.452 87.424C147.452 88.144 147.252 88.792 146.852 89.368C146.452 89.944 145.884 90.4 145.148 90.736C144.428 91.056 143.596 91.216 142.652 91.216ZM158.11 75.712C157.694 75.712 157.342 75.568 157.054 75.28C156.782 74.992 156.646 74.64 156.646 74.224C156.646 73.808 156.782 73.456 157.054 73.168C157.342 72.88 157.694 72.736 158.11 72.736C158.526 72.736 158.87 72.88 159.142 73.168C159.43 73.456 159.574 73.808 159.574 74.224C159.574 74.64 159.43 74.992 159.142 75.28C158.87 75.568 158.526 75.712 158.11 75.712ZM159.19 93.856C159.19 95.024 158.894 95.88 158.302 96.424C157.71 96.968 156.846 97.24 155.71 97.24H154.438V95.392H155.35C155.958 95.392 156.382 95.272 156.622 95.032C156.878 94.792 157.006 94.384 157.006 93.808V77.848H159.19V93.856ZM162.071 84.376C162.071 83.032 162.343 81.856 162.887 80.848C163.431 79.824 164.175 79.032 165.119 78.472C166.079 77.912 167.143 77.632 168.311 77.632C169.463 77.632 170.463 77.88 171.311 78.376C172.159 78.872 172.791 79.496 173.207 80.248V77.848H175.415V91H173.207V88.552C172.775 89.32 172.127 89.96 171.263 90.472C170.415 90.968 169.423 91.216 168.287 91.216C167.119 91.216 166.063 90.928 165.119 90.352C164.175 89.776 163.431 88.968 162.887 87.928C162.343 86.888 162.071 85.704 162.071 84.376ZM173.207 84.4C173.207 83.408 173.007 82.544 172.607 81.808C172.207 81.072 171.663 80.512 170.975 80.128C170.303 79.728 169.559 79.528 168.743 79.528C167.927 79.528 167.183 79.72 166.511 80.104C165.839 80.488 165.303 81.048 164.903 81.784C164.503 82.52 164.303 83.384 164.303 84.376C164.303 85.384 164.503 86.264 164.903 87.016C165.303 87.752 165.839 88.32 166.511 88.72C167.183 89.104 167.927 89.296 168.743 89.296C169.559 89.296 170.303 89.104 170.975 88.72C171.663 88.32 172.207 87.752 172.607 87.016C173.007 86.264 173.207 85.392 173.207 84.4ZM171.503 74.128L166.391 76.864V75.232L171.503 72.232V74.128ZM1.032 120.4C1.032 119.04 1.304 117.856 1.848 116.848C2.392 115.824 3.144 115.032 4.104 114.472C5.08 113.912 6.192 113.632 7.44 113.632C9.056 113.632 10.384 114.024 11.424 114.808C12.48 115.592 13.176 116.68 13.512 118.072H11.16C10.936 117.272 10.496 116.64 9.84 116.176C9.2 115.712 8.4 115.48 7.44 115.48C6.192 115.48 5.184 115.912 4.416 116.776C3.648 117.624 3.264 118.832 3.264 120.4C3.264 121.984 3.648 123.208 4.416 124.072C5.184 124.936 6.192 125.368 7.44 125.368C8.4 125.368 9.2 125.144 9.84 124.696C10.48 124.248 10.92 123.608 11.16 122.776H13.512C13.16 124.12 12.456 125.2 11.4 126.016C10.344 126.816 9.024 127.216 7.44 127.216C6.192 127.216 5.08 126.936 4.104 126.376C3.144 125.816 2.392 125.024 1.848 124C1.304 122.976 1.032 121.776 1.032 120.4ZM22.1621 127.216C20.9301 127.216 19.8101 126.936 18.8021 126.376C17.8101 125.816 17.0261 125.024 16.4501 124C15.8901 122.96 15.6101 121.76 15.6101 120.4C15.6101 119.056 15.8981 117.872 16.4741 116.848C17.0661 115.808 17.8661 115.016 18.8741 114.472C19.8821 113.912 21.0101 113.632 22.2581 113.632C23.5061 113.632 24.6341 113.912 25.6421 114.472C26.6501 115.016 27.4421 115.8 28.0181 116.824C28.6101 117.848 28.9061 119.04 28.9061 120.4C28.9061 121.76 28.6021 122.96 27.9941 124C27.4021 125.024 26.5941 125.816 25.5701 126.376C24.5461 126.936 23.4101 127.216 22.1621 127.216ZM22.1621 125.296C22.9461 125.296 23.6821 125.112 24.3701 124.744C25.0581 124.376 25.6101 123.824 26.0261 123.088C26.4581 122.352 26.6741 121.456 26.6741 120.4C26.6741 119.344 26.4661 118.448 26.0501 117.712C25.6341 116.976 25.0901 116.432 24.4181 116.08C23.7461 115.712 23.0181 115.528 22.2341 115.528C21.4341 115.528 20.6981 115.712 20.0261 116.08C19.3701 116.432 18.8421 116.976 18.4421 117.712C18.0421 118.448 17.8421 119.344 17.8421 120.4C17.8421 121.472 18.0341 122.376 18.4181 123.112C18.8181 123.848 19.3461 124.4 20.0021 124.768C20.6581 125.12 21.3781 125.296 22.1621 125.296ZM38.1857 113.608C39.7857 113.608 41.0817 114.096 42.0737 115.072C43.0657 116.032 43.5617 117.424 43.5617 119.248V127H41.4017V119.56C41.4017 118.248 41.0737 117.248 40.4177 116.56C39.7617 115.856 38.8657 115.504 37.7297 115.504C36.5777 115.504 35.6577 115.864 34.9697 116.584C34.2977 117.304 33.9617 118.352 33.9617 119.728V127H31.7777V113.848H33.9617V115.72C34.3937 115.048 34.9777 114.528 35.7137 114.16C36.4657 113.792 37.2897 113.608 38.1857 113.608ZM49.7933 115.648V123.4C49.7933 124.04 49.9293 124.496 50.2013 124.768C50.4733 125.024 50.9453 125.152 51.6172 125.152H53.2253V127H51.2573C50.0413 127 49.1293 126.72 48.5213 126.16C47.9133 125.6 47.6093 124.68 47.6093 123.4V115.648H45.9053V113.848H47.6093V110.536H49.7933V113.848H53.2253V115.648H49.7933ZM55.0554 120.376C55.0554 119.032 55.3274 117.856 55.8714 116.848C56.4154 115.824 57.1594 115.032 58.1034 114.472C59.0634 113.912 60.1274 113.632 61.2954 113.632C62.4474 113.632 63.4474 113.88 64.2954 114.376C65.1434 114.872 65.7754 115.496 66.1914 116.248V113.848H68.3994V127H66.1914V124.552C65.7594 125.32 65.1114 125.96 64.2474 126.472C63.3994 126.968 62.4074 127.216 61.2714 127.216C60.1034 127.216 59.0474 126.928 58.1034 126.352C57.1594 125.776 56.4154 124.968 55.8714 123.928C55.3274 122.888 55.0554 121.704 55.0554 120.376ZM66.1914 120.4C66.1914 119.408 65.9914 118.544 65.5914 117.808C65.1914 117.072 64.6474 116.512 63.9594 116.128C63.2874 115.728 62.5434 115.528 61.7274 115.528C60.9114 115.528 60.1674 115.72 59.4954 116.104C58.8234 116.488 58.2874 117.048 57.8874 117.784C57.4874 118.52 57.2874 119.384 57.2874 120.376C57.2874 121.384 57.4874 122.264 57.8874 123.016C58.2874 123.752 58.8234 124.32 59.4954 124.72C60.1674 125.104 60.9114 125.296 61.7274 125.296C62.5434 125.296 63.2874 125.104 63.9594 124.72C64.6474 124.32 65.1914 123.752 65.5914 123.016C65.9914 122.264 66.1914 121.392 66.1914 120.4ZM74.2742 116.296C74.7222 115.512 75.3782 114.872 76.2422 114.376C77.1062 113.88 78.0902 113.632 79.1942 113.632C80.3782 113.632 81.4422 113.912 82.3862 114.472C83.3302 115.032 84.0742 115.824 84.6182 116.848C85.1622 117.856 85.4342 119.032 85.4342 120.376C85.4342 121.704 85.1622 122.888 84.6182 123.928C84.0742 124.968 83.3222 125.776 82.3622 126.352C81.4182 126.928 80.3622 127.216 79.1942 127.216C78.0582 127.216 77.0582 126.968 76.1942 126.472C75.3462 125.976 74.7062 125.344 74.2742 124.576V127H72.0902V109.24H74.2742V116.296ZM83.2022 120.376C83.2022 119.384 83.0022 118.52 82.6022 117.784C82.2022 117.048 81.6582 116.488 80.9702 116.104C80.2982 115.72 79.5542 115.528 78.7382 115.528C77.9382 115.528 77.1942 115.728 76.5062 116.128C75.8342 116.512 75.2902 117.08 74.8742 117.832C74.4742 118.568 74.2742 119.424 74.2742 120.4C74.2742 121.392 74.4742 122.264 74.8742 123.016C75.2902 123.752 75.8342 124.32 76.5062 124.72C77.1942 125.104 77.9382 125.296 78.7382 125.296C79.5542 125.296 80.2982 125.104 80.9702 124.72C81.6582 124.32 82.2022 123.752 82.6022 123.016C83.0022 122.264 83.2022 121.384 83.2022 120.376ZM89.4369 111.712C89.0209 111.712 88.6689 111.568 88.3809 111.28C88.0929 110.992 87.9489 110.64 87.9489 110.224C87.9489 109.808 88.0929 109.456 88.3809 109.168C88.6689 108.88 89.0209 108.736 89.4369 108.736C89.8369 108.736 90.1729 108.88 90.4449 109.168C90.7329 109.456 90.8769 109.808 90.8769 110.224C90.8769 110.64 90.7329 110.992 90.4449 111.28C90.1729 111.568 89.8369 111.712 89.4369 111.712ZM90.4929 113.848V127H88.3089V113.848H90.4929ZM96.3992 109.24V127H94.2152V109.24H96.3992ZM101.249 111.712C100.833 111.712 100.481 111.568 100.193 111.28C99.9054 110.992 99.7614 110.64 99.7614 110.224C99.7614 109.808 99.9054 109.456 100.193 109.168C100.481 108.88 100.833 108.736 101.249 108.736C101.649 108.736 101.985 108.88 102.257 109.168C102.545 109.456 102.689 109.808 102.689 110.224C102.689 110.64 102.545 110.992 102.257 111.28C101.985 111.568 101.649 111.712 101.249 111.712ZM102.305 113.848V127H100.121V113.848H102.305ZM107.66 125.2H114.116V127H105.164V125.2L111.548 115.624H105.212V113.848H114.068V115.624L107.66 125.2ZM116.134 120.376C116.134 119.032 116.406 117.856 116.95 116.848C117.494 115.824 118.238 115.032 119.182 114.472C120.142 113.912 121.206 113.632 122.374 113.632C123.526 113.632 124.526 113.88 125.374 114.376C126.222 114.872 126.854 115.496 127.27 116.248V113.848H129.478V127H127.27V124.552C126.838 125.32 126.19 125.96 125.326 126.472C124.478 126.968 123.486 127.216 122.35 127.216C121.182 127.216 120.126 126.928 119.182 126.352C118.238 125.776 117.494 124.968 116.95 123.928C116.406 122.888 116.134 121.704 116.134 120.376ZM127.27 120.4C127.27 119.408 127.07 118.544 126.67 117.808C126.27 117.072 125.726 116.512 125.038 116.128C124.366 115.728 123.622 115.528 122.806 115.528C121.99 115.528 121.246 115.72 120.574 116.104C119.902 116.488 119.366 117.048 118.966 117.784C118.566 118.52 118.366 119.384 118.366 120.376C118.366 121.384 118.566 122.264 118.966 123.016C119.366 123.752 119.902 124.32 120.574 124.72C121.246 125.104 121.99 125.296 122.806 125.296C123.622 125.296 124.366 125.104 125.038 124.72C125.726 124.32 126.27 123.752 126.67 123.016C127.07 122.264 127.27 121.392 127.27 120.4ZM148.984 113.608C150.008 113.608 150.92 113.824 151.72 114.256C152.52 114.672 153.152 115.304 153.616 116.152C154.08 117 154.312 118.032 154.312 119.248V127H152.152V119.56C152.152 118.248 151.824 117.248 151.168 116.56C150.528 115.856 149.656 115.504 148.552 115.504C147.416 115.504 146.512 115.872 145.84 116.608C145.168 117.328 144.832 118.376 144.832 119.752V127H142.672V119.56C142.672 118.248 142.344 117.248 141.688 116.56C141.048 115.856 140.176 115.504 139.072 115.504C137.936 115.504 137.032 115.872 136.36 116.608C135.688 117.328 135.352 118.376 135.352 119.752V127H133.168V113.848H135.352V115.744C135.784 115.056 136.36 114.528 137.08 114.16C137.816 113.792 138.624 113.608 139.504 113.608C140.608 113.608 141.584 113.856 142.432 114.352C143.28 114.848 143.912 115.576 144.328 116.536C144.696 115.608 145.304 114.888 146.152 114.376C147 113.864 147.944 113.608 148.984 113.608ZM170.029 127.216C168.797 127.216 167.677 126.936 166.669 126.376C165.677 125.816 164.893 125.024 164.317 124C163.757 122.96 163.477 121.76 163.477 120.4C163.477 119.056 163.765 117.872 164.341 116.848C164.933 115.808 165.733 115.016 166.741 114.472C167.749 113.912 168.877 113.632 170.125 113.632C171.373 113.632 172.501 113.912 173.509 114.472C174.517 115.016 175.309 115.8 175.885 116.824C176.477 117.848 176.773 119.04 176.773 120.4C176.773 121.76 176.469 122.96 175.861 124C175.269 125.024 174.461 125.816 173.437 126.376C172.413 126.936 171.277 127.216 170.029 127.216ZM170.029 125.296C170.813 125.296 171.549 125.112 172.237 124.744C172.925 124.376 173.477 123.824 173.893 123.088C174.325 122.352 174.541 121.456 174.541 120.4C174.541 119.344 174.333 118.448 173.917 117.712C173.501 116.976 172.957 116.432 172.285 116.08C171.613 115.712 170.885 115.528 170.101 115.528C169.301 115.528 168.565 115.712 167.893 116.08C167.237 116.432 166.709 116.976 166.309 117.712C165.909 118.448 165.709 119.344 165.709 120.4C165.709 121.472 165.901 122.376 166.285 123.112C166.685 123.848 167.213 124.4 167.869 124.768C168.525 125.12 169.245 125.296 170.029 125.296ZM251.627 123.976L248.939 130.432H247.475L249.227 123.976H251.627ZM7.584 163.216C6.352 163.216 5.232 162.936 4.224 162.376C3.232 161.816 2.448 161.024 1.872 160C1.312 158.96 1.032 157.76 1.032 156.4C1.032 155.056 1.32 153.872 1.896 152.848C2.488 151.808 3.288 151.016 4.296 150.472C5.304 149.912 6.432 149.632 7.68 149.632C8.928 149.632 10.056 149.912 11.064 150.472C12.072 151.016 12.864 151.8 13.44 152.824C14.032 153.848 14.328 155.04 14.328 156.4C14.328 157.76 14.024 158.96 13.416 160C12.824 161.024 12.016 161.816 10.992 162.376C9.968 162.936 8.832 163.216 7.584 163.216ZM7.584 161.296C8.368 161.296 9.104 161.112 9.792 160.744C10.48 160.376 11.032 159.824 11.448 159.088C11.88 158.352 12.096 157.456 12.096 156.4C12.096 155.344 11.888 154.448 11.472 153.712C11.056 152.976 10.512 152.432 9.84 152.08C9.168 151.712 8.44 151.528 7.656 151.528C6.856 151.528 6.12 151.712 5.448 152.08C4.792 152.432 4.264 152.976 3.864 153.712C3.464 154.448 3.264 155.344 3.264 156.4C3.264 157.472 3.456 158.376 3.84 159.112C4.24 159.848 4.768 160.4 5.424 160.768C6.08 161.12 6.8 161.296 7.584 161.296ZM28.8636 149.848V163H26.6796V161.056C26.2636 161.728 25.6796 162.256 24.9276 162.64C24.1916 163.008 23.3756 163.192 22.4796 163.192C21.4556 163.192 20.5356 162.984 19.7196 162.568C18.9036 162.136 18.2556 161.496 17.7756 160.648C17.3116 159.8 17.0796 158.768 17.0796 157.552V149.848H19.2396V157.264C19.2396 158.56 19.5676 159.56 20.2236 160.264C20.8796 160.952 21.7756 161.296 22.9116 161.296C24.0796 161.296 24.9996 160.936 25.6716 160.216C26.3436 159.496 26.6796 158.448 26.6796 157.072V149.848H28.8636ZM120.176 151.648V159.4C120.176 160.04 120.312 160.496 120.584 160.768C120.856 161.024 121.328 161.152 122 161.152H123.608V163H121.64C120.424 163 119.512 162.72 118.904 162.16C118.296 161.6 117.992 160.68 117.992 159.4V151.648H116.288V149.848H117.992V146.536H120.176V149.848H123.608V151.648H120.176ZM131.99 163.216C130.758 163.216 129.638 162.936 128.63 162.376C127.638 161.816 126.854 161.024 126.278 160C125.718 158.96 125.438 157.76 125.438 156.4C125.438 155.056 125.726 153.872 126.302 152.848C126.894 151.808 127.694 151.016 128.702 150.472C129.71 149.912 130.838 149.632 132.086 149.632C133.334 149.632 134.462 149.912 135.47 150.472C136.478 151.016 137.27 151.8 137.846 152.824C138.438 153.848 138.734 155.04 138.734 156.4C138.734 157.76 138.43 158.96 137.822 160C137.23 161.024 136.422 161.816 135.398 162.376C134.374 162.936 133.238 163.216 131.99 163.216ZM131.99 161.296C132.774 161.296 133.51 161.112 134.198 160.744C134.886 160.376 135.438 159.824 135.854 159.088C136.286 158.352 136.502 157.456 136.502 156.4C136.502 155.344 136.294 154.448 135.878 153.712C135.462 152.976 134.918 152.432 134.246 152.08C133.574 151.712 132.846 151.528 132.062 151.528C131.262 151.528 130.526 151.712 129.854 152.08C129.198 152.432 128.67 152.976 128.27 153.712C127.87 154.448 127.67 155.344 127.67 156.4C127.67 157.472 127.862 158.376 128.246 159.112C128.646 159.848 129.174 160.4 129.83 160.768C130.486 161.12 131.206 161.296 131.99 161.296ZM144.27 151.648V159.4C144.27 160.04 144.406 160.496 144.678 160.768C144.95 161.024 145.422 161.152 146.094 161.152H147.702V163H145.734C144.518 163 143.606 162.72 142.998 162.16C142.39 161.6 142.086 160.68 142.086 159.4V151.648H140.382V149.848H142.086V146.536H144.27V149.848H147.702V151.648H144.27ZM149.532 156.376C149.532 155.032 149.804 153.856 150.348 152.848C150.892 151.824 151.636 151.032 152.58 150.472C153.54 149.912 154.604 149.632 155.772 149.632C156.924 149.632 157.924 149.88 158.772 150.376C159.62 150.872 160.252 151.496 160.668 152.248V149.848H162.876V163H160.668V160.552C160.236 161.32 159.588 161.96 158.724 162.472C157.876 162.968 156.884 163.216 155.748 163.216C154.58 163.216 153.524 162.928 152.58 162.352C151.636 161.776 150.892 160.968 150.348 159.928C149.804 158.888 149.532 157.704 149.532 156.376ZM160.668 156.4C160.668 155.408 160.468 154.544 160.068 153.808C159.668 153.072 159.124 152.512 158.436 152.128C157.764 151.728 157.02 151.528 156.204 151.528C155.388 151.528 154.644 151.72 153.972 152.104C153.3 152.488 152.764 153.048 152.364 153.784C151.964 154.52 151.764 155.384 151.764 156.376C151.764 157.384 151.964 158.264 152.364 159.016C152.764 159.752 153.3 160.32 153.972 160.72C154.644 161.104 155.388 161.296 156.204 161.296C157.02 161.296 157.764 161.104 158.436 160.72C159.124 160.32 159.668 159.752 160.068 159.016C160.468 158.264 160.668 157.392 160.668 156.4ZM168.751 145.24V163H166.567V145.24H168.751ZM175.305 146.272L175.041 158.272H173.217L172.953 146.272H175.305ZM174.225 163.144C173.809 163.144 173.457 163 173.169 162.712C172.881 162.424 172.737 162.072 172.737 161.656C172.737 161.24 172.881 160.888 173.169 160.6C173.457 160.312 173.809 160.168 174.225 160.168C174.625 160.168 174.961 160.312 175.233 160.6C175.521 160.888 175.665 161.24 175.665 161.656C175.665 162.072 175.521 162.424 175.233 162.712C174.961 163 174.625 163.144 174.225 163.144Z" fill="white"/>
<path d="M189.787 109.24V127H185.683V109.24H189.787ZM205.985 113.608V127H201.881V125.176C201.465 125.768 200.897 126.248 200.177 126.616C199.473 126.968 198.689 127.144 197.825 127.144C196.801 127.144 195.897 126.92 195.113 126.472C194.329 126.008 193.721 125.344 193.289 124.48C192.857 123.616 192.641 122.6 192.641 121.432V113.608H196.721V120.88C196.721 121.776 196.953 122.472 197.417 122.968C197.881 123.464 198.505 123.712 199.289 123.712C200.089 123.712 200.721 123.464 201.185 122.968C201.649 122.472 201.881 121.776 201.881 120.88V113.608H205.985ZM208.117 120.304C208.117 118.912 208.397 117.696 208.957 116.656C209.533 115.616 210.325 114.816 211.333 114.256C212.357 113.696 213.525 113.416 214.837 113.416C216.517 113.416 217.917 113.856 219.037 114.736C220.173 115.616 220.917 116.856 221.269 118.456H216.901C216.533 117.432 215.821 116.92 214.765 116.92C214.013 116.92 213.413 117.216 212.965 117.808C212.517 118.384 212.293 119.216 212.293 120.304C212.293 121.392 212.517 122.232 212.965 122.824C213.413 123.4 214.013 123.688 214.765 123.688C215.821 123.688 216.533 123.176 216.901 122.152H221.269C220.917 123.72 220.173 124.952 219.037 125.848C217.901 126.744 216.501 127.192 214.837 127.192C213.525 127.192 212.357 126.912 211.333 126.352C210.325 125.792 209.533 124.992 208.957 123.952C208.397 122.912 208.117 121.696 208.117 120.304ZM227.569 115.84C228.049 115.104 228.649 114.528 229.369 114.112C230.089 113.68 230.889 113.464 231.769 113.464V117.808H230.641C229.617 117.808 228.849 118.032 228.337 118.48C227.825 118.912 227.569 119.68 227.569 120.784V127H223.465V113.608H227.569V115.84ZM239.826 127.192C238.514 127.192 237.33 126.912 236.274 126.352C235.234 125.792 234.41 124.992 233.802 123.952C233.21 122.912 232.914 121.696 232.914 120.304C232.914 118.928 233.218 117.72 233.826 116.68C234.434 115.624 235.266 114.816 236.322 114.256C237.378 113.696 238.562 113.416 239.874 113.416C241.186 113.416 242.37 113.696 243.426 114.256C244.482 114.816 245.314 115.624 245.922 116.68C246.53 117.72 246.834 118.928 246.834 120.304C246.834 121.68 246.522 122.896 245.898 123.952C245.29 124.992 244.45 125.792 243.378 126.352C242.322 126.912 241.138 127.192 239.826 127.192ZM239.826 123.64C240.61 123.64 241.274 123.352 241.818 122.776C242.378 122.2 242.658 121.376 242.658 120.304C242.658 119.232 242.386 118.408 241.842 117.832C241.314 117.256 240.658 116.968 239.874 116.968C239.074 116.968 238.41 117.256 237.882 117.832C237.354 118.392 237.09 119.216 237.09 120.304C237.09 121.376 237.346 122.2 237.858 122.776C238.386 123.352 239.042 123.64 239.826 123.64Z" fill="#04D47C"/>
<path d="M42.6936 151.504C43.0936 150.88 43.6456 150.376 44.3496 149.992C45.0536 149.608 45.8776 149.416 46.8216 149.416C47.9256 149.416 48.9256 149.696 49.8216 150.256C50.7176 150.816 51.4216 151.616 51.9336 152.656C52.4616 153.696 52.7256 154.904 52.7256 156.28C52.7256 157.656 52.4616 158.872 51.9336 159.928C51.4216 160.968 50.7176 161.776 49.8216 162.352C48.9256 162.912 47.9256 163.192 46.8216 163.192C45.8936 163.192 45.0696 163 44.3496 162.616C43.6456 162.232 43.0936 161.736 42.6936 161.128V169.384H38.5896V149.608H42.6936V151.504ZM48.5496 156.28C48.5496 155.256 48.2616 154.456 47.6856 153.88C47.1256 153.288 46.4296 152.992 45.5976 152.992C44.7816 152.992 44.0856 153.288 43.5096 153.88C42.9496 154.472 42.6696 155.28 42.6696 156.304C42.6696 157.328 42.9496 158.136 43.5096 158.728C44.0856 159.32 44.7816 159.616 45.5976 159.616C46.4136 159.616 47.1096 159.32 47.6856 158.728C48.2616 158.12 48.5496 157.304 48.5496 156.28ZM67.5026 156.088C67.5026 156.472 67.4786 156.872 67.4306 157.288H58.1426C58.2066 158.12 58.4706 158.76 58.9346 159.208C59.4146 159.64 59.9986 159.856 60.6866 159.856C61.7106 159.856 62.4226 159.424 62.8226 158.56H67.1906C66.9666 159.44 66.5586 160.232 65.9666 160.936C65.3906 161.64 64.6626 162.192 63.7826 162.592C62.9026 162.992 61.9186 163.192 60.8306 163.192C59.5186 163.192 58.3506 162.912 57.3266 162.352C56.3026 161.792 55.5026 160.992 54.9266 159.952C54.3506 158.912 54.0626 157.696 54.0626 156.304C54.0626 154.912 54.3426 153.696 54.9026 152.656C55.4786 151.616 56.2786 150.816 57.3026 150.256C58.3266 149.696 59.5026 149.416 60.8306 149.416C62.1266 149.416 63.2786 149.688 64.2866 150.232C65.2946 150.776 66.0786 151.552 66.6386 152.56C67.2146 153.568 67.5026 154.744 67.5026 156.088ZM63.3026 155.008C63.3026 154.304 63.0626 153.744 62.5826 153.328C62.1026 152.912 61.5026 152.704 60.7826 152.704C60.0946 152.704 59.5106 152.904 59.0306 153.304C58.5666 153.704 58.2786 154.272 58.1666 155.008H63.3026ZM73.7717 151.84C74.2517 151.104 74.8517 150.528 75.5717 150.112C76.2917 149.68 77.0917 149.464 77.9717 149.464V153.808H76.8437C75.8197 153.808 75.0517 154.032 74.5397 154.48C74.0277 154.912 73.7717 155.68 73.7717 156.784V163H69.6677V149.608H73.7717V151.84ZM79.1173 156.304C79.1173 154.912 79.3973 153.696 79.9573 152.656C80.5333 151.616 81.3253 150.816 82.3333 150.256C83.3573 149.696 84.5253 149.416 85.8373 149.416C87.5173 149.416 88.9173 149.856 90.0373 150.736C91.1733 151.616 91.9173 152.856 92.2693 154.456H87.9013C87.5333 153.432 86.8213 152.92 85.7653 152.92C85.0133 152.92 84.4133 153.216 83.9653 153.808C83.5173 154.384 83.2933 155.216 83.2933 156.304C83.2933 157.392 83.5173 158.232 83.9653 158.824C84.4133 159.4 85.0133 159.688 85.7653 159.688C86.8213 159.688 87.5333 159.176 87.9013 158.152H92.2693C91.9173 159.72 91.1733 160.952 90.0373 161.848C88.9013 162.744 87.5013 163.192 85.8373 163.192C84.5253 163.192 83.3573 162.912 82.3333 162.352C81.3253 161.792 80.5333 160.992 79.9573 159.952C79.3973 158.912 79.1173 157.696 79.1173 156.304ZM93.6486 156.28C93.6486 154.904 93.9046 153.696 94.4166 152.656C94.9446 151.616 95.6566 150.816 96.5526 150.256C97.4486 149.696 98.4486 149.416 99.5526 149.416C100.497 149.416 101.321 149.608 102.025 149.992C102.745 150.376 103.297 150.88 103.681 151.504V149.608H107.785V163H103.681V161.104C103.281 161.728 102.721 162.232 102.001 162.616C101.297 163 100.473 163.192 99.5286 163.192C98.4406 163.192 97.4486 162.912 96.5526 162.352C95.6566 161.776 94.9446 160.968 94.4166 159.928C93.9046 158.872 93.6486 157.656 93.6486 156.28ZM103.681 156.304C103.681 155.28 103.393 154.472 102.817 153.88C102.257 153.288 101.569 152.992 100.753 152.992C99.9366 152.992 99.2406 153.288 98.6646 153.88C98.1046 154.456 97.8246 155.256 97.8246 156.28C97.8246 157.304 98.1046 158.12 98.6646 158.728C99.2406 159.32 99.9366 159.616 100.753 159.616C101.569 159.616 102.257 159.32 102.817 158.728C103.393 158.136 103.681 157.328 103.681 156.304Z" fill="#E81538"/>
</svg>
