<svg width="466" height="76" viewBox="0 0 466 76" fill="none" xmlns="http://www.w3.org/2000/svg">
<path d="M11.736 57.28H4.44L3.096 61H0.792L6.84 44.368H9.36L15.384 61H13.08L11.736 57.28ZM11.112 55.504L8.088 47.056L5.064 55.504H11.112ZM17.2039 54.376C17.2039 53.032 17.4759 51.856 18.0199 50.848C18.5639 49.824 19.3079 49.032 20.2519 48.472C21.2119 47.912 22.2839 47.632 23.4679 47.632C24.6039 47.632 25.5959 47.888 26.4439 48.4C27.3079 48.896 27.9399 49.512 28.3399 50.248V47.848H30.5479V67.24H28.3399V58.576C27.9239 59.312 27.2839 59.936 26.4199 60.448C25.5559 60.96 24.5479 61.216 23.3959 61.216C22.2439 61.216 21.1959 60.928 20.2519 60.352C19.3079 59.776 18.5639 58.968 18.0199 57.928C17.4759 56.888 17.2039 55.704 17.2039 54.376ZM28.3399 54.4C28.3399 53.408 28.1399 52.544 27.7399 51.808C27.3399 51.072 26.7959 50.512 26.1079 50.128C25.4359 49.728 24.6919 49.528 23.8759 49.528C23.0599 49.528 22.3159 49.72 21.6439 50.104C20.9719 50.488 20.4359 51.048 20.0359 51.784C19.6359 52.52 19.4359 53.384 19.4359 54.376C19.4359 55.384 19.6359 56.264 20.0359 57.016C20.4359 57.752 20.9719 58.32 21.6439 58.72C22.3159 59.104 23.0599 59.296 23.8759 59.296C24.6919 59.296 25.4359 59.104 26.1079 58.72C26.7959 58.32 27.3399 57.752 27.7399 57.016C28.1399 56.264 28.3399 55.392 28.3399 54.4ZM45.9026 47.848V61H43.7186V59.056C43.3026 59.728 42.7186 60.256 41.9666 60.64C41.2306 61.008 40.4146 61.192 39.5186 61.192C38.4946 61.192 37.5746 60.984 36.7586 60.568C35.9426 60.136 35.2946 59.496 34.8146 58.648C34.3506 57.8 34.1186 56.768 34.1186 55.552V47.848H36.2786V55.264C36.2786 56.56 36.6066 57.56 37.2626 58.264C37.9186 58.952 38.8146 59.296 39.9506 59.296C41.1186 59.296 42.0386 58.936 42.7106 58.216C43.3826 57.496 43.7186 56.448 43.7186 55.072V47.848H45.9026ZM50.7182 45.712C50.3022 45.712 49.9502 45.568 49.6622 45.28C49.3742 44.992 49.2302 44.64 49.2302 44.224C49.2302 43.808 49.3742 43.456 49.6622 43.168C49.9502 42.88 50.3022 42.736 50.7182 42.736C51.1182 42.736 51.4542 42.88 51.7262 43.168C52.0142 43.456 52.1582 43.808 52.1582 44.224C52.1582 44.64 52.0142 44.992 51.7262 45.28C51.4542 45.568 51.1182 45.712 50.7182 45.712ZM51.7742 47.848V61H49.5902V47.848H51.7742ZM73.8949 53.92C73.8949 54.336 73.8709 54.776 73.8229 55.24H63.3109C63.3909 56.536 63.8309 57.552 64.6309 58.288C65.4469 59.008 66.4309 59.368 67.5829 59.368C68.5269 59.368 69.3109 59.152 69.9349 58.72C70.5749 58.272 71.0229 57.68 71.2789 56.944H73.6309C73.2789 58.208 72.5749 59.24 71.5189 60.04C70.4629 60.824 69.1509 61.216 67.5829 61.216C66.3349 61.216 65.2149 60.936 64.2229 60.376C63.2469 59.816 62.4789 59.024 61.9189 58C61.3589 56.96 61.0789 55.76 61.0789 54.4C61.0789 53.04 61.3509 51.848 61.8949 50.824C62.4389 49.8 63.1989 49.016 64.1749 48.472C65.1669 47.912 66.3029 47.632 67.5829 47.632C68.8309 47.632 69.9349 47.904 70.8949 48.448C71.8549 48.992 72.5909 49.744 73.1029 50.704C73.6309 51.648 73.8949 52.72 73.8949 53.92ZM71.6389 53.464C71.6389 52.632 71.4549 51.92 71.0869 51.328C70.7189 50.72 70.2149 50.264 69.5749 49.96C68.9509 49.64 68.2549 49.48 67.4869 49.48C66.3829 49.48 65.4389 49.832 64.6549 50.536C63.8869 51.24 63.4469 52.216 63.3349 53.464H71.6389ZM69.8389 44.128L64.7269 46.864V45.232L69.8389 42.232V44.128ZM88.9121 61.216C87.6801 61.216 86.5601 60.936 85.5521 60.376C84.5601 59.816 83.7761 59.024 83.2001 58C82.6401 56.96 82.3601 55.76 82.3601 54.4C82.3601 53.056 82.6481 51.872 83.2241 50.848C83.8161 49.808 84.6161 49.016 85.6241 48.472C86.6321 47.912 87.7601 47.632 89.0081 47.632C90.2561 47.632 91.3841 47.912 92.3921 48.472C93.4001 49.016 94.1921 49.8 94.7681 50.824C95.3601 51.848 95.6561 53.04 95.6561 54.4C95.6561 55.76 95.3521 56.96 94.7441 58C94.1521 59.024 93.3441 59.816 92.3201 60.376C91.2961 60.936 90.1601 61.216 88.9121 61.216ZM88.9121 59.296C89.6961 59.296 90.4321 59.112 91.1201 58.744C91.8081 58.376 92.3601 57.824 92.7761 57.088C93.2081 56.352 93.4241 55.456 93.4241 54.4C93.4241 53.344 93.2161 52.448 92.8001 51.712C92.3841 50.976 91.8401 50.432 91.1681 50.08C90.4961 49.712 89.7681 49.528 88.9841 49.528C88.1841 49.528 87.4481 49.712 86.7761 50.08C86.1201 50.432 85.5921 50.976 85.1921 51.712C84.7921 52.448 84.5921 53.344 84.5921 54.4C84.5921 55.472 84.7841 56.376 85.1681 57.112C85.5681 57.848 86.0961 58.4 86.7521 58.768C87.4081 59.12 88.1281 59.296 88.9121 59.296ZM107.11 43.24V61H104.926V43.24H107.11ZM122.496 47.848V61H120.312V59.056C119.896 59.728 119.312 60.256 118.56 60.64C117.824 61.008 117.008 61.192 116.112 61.192C115.088 61.192 114.168 60.984 113.352 60.568C112.536 60.136 111.888 59.496 111.408 58.648C110.944 57.8 110.712 56.768 110.712 55.552V47.848H112.872V55.264C112.872 56.56 113.2 57.56 113.856 58.264C114.512 58.952 115.408 59.296 116.544 59.296C117.712 59.296 118.632 58.936 119.304 58.216C119.976 57.496 120.312 56.448 120.312 55.072V47.848H122.496ZM125.368 54.4C125.368 53.04 125.64 51.856 126.184 50.848C126.728 49.824 127.48 49.032 128.44 48.472C129.416 47.912 130.528 47.632 131.776 47.632C133.392 47.632 134.72 48.024 135.76 48.808C136.816 49.592 137.512 50.68 137.848 52.072H135.496C135.272 51.272 134.832 50.64 134.176 50.176C133.536 49.712 132.736 49.48 131.776 49.48C130.528 49.48 129.52 49.912 128.752 50.776C127.984 51.624 127.6 52.832 127.6 54.4C127.6 55.984 127.984 57.208 128.752 58.072C129.52 58.936 130.528 59.368 131.776 59.368C132.736 59.368 133.536 59.144 134.176 58.696C134.816 58.248 135.256 57.608 135.496 56.776H137.848C137.496 58.12 136.792 59.2 135.736 60.016C134.68 60.816 133.36 61.216 131.776 61.216C130.528 61.216 129.416 60.936 128.44 60.376C127.48 59.816 126.728 59.024 126.184 58C125.64 56.976 125.368 55.776 125.368 54.4ZM142.946 49.984C143.33 49.232 143.874 48.648 144.578 48.232C145.298 47.816 146.17 47.608 147.194 47.608V49.864H146.618C144.17 49.864 142.946 51.192 142.946 53.848V61H140.762V47.848H142.946V49.984ZM155.451 61.216C154.219 61.216 153.099 60.936 152.091 60.376C151.099 59.816 150.315 59.024 149.739 58C149.179 56.96 148.899 55.76 148.899 54.4C148.899 53.056 149.187 51.872 149.763 50.848C150.355 49.808 151.155 49.016 152.163 48.472C153.171 47.912 154.299 47.632 155.547 47.632C156.795 47.632 157.923 47.912 158.931 48.472C159.939 49.016 160.731 49.8 161.307 50.824C161.899 51.848 162.195 53.04 162.195 54.4C162.195 55.76 161.891 56.96 161.283 58C160.691 59.024 159.883 59.816 158.859 60.376C157.835 60.936 156.699 61.216 155.451 61.216ZM155.451 59.296C156.235 59.296 156.971 59.112 157.659 58.744C158.347 58.376 158.899 57.824 159.315 57.088C159.747 56.352 159.963 55.456 159.963 54.4C159.963 53.344 159.755 52.448 159.339 51.712C158.923 50.976 158.379 50.432 157.707 50.08C157.035 49.712 156.307 49.528 155.523 49.528C154.723 49.528 153.987 49.712 153.315 50.08C152.659 50.432 152.131 50.976 151.731 51.712C151.331 52.448 151.131 53.344 151.131 54.4C151.131 55.472 151.323 56.376 151.707 57.112C152.107 57.848 152.635 58.4 153.291 58.768C153.947 59.12 154.667 59.296 155.451 59.296ZM183.465 53.92C183.465 54.336 183.441 54.776 183.393 55.24H172.881C172.961 56.536 173.401 57.552 174.201 58.288C175.017 59.008 176.001 59.368 177.153 59.368C178.097 59.368 178.881 59.152 179.505 58.72C180.145 58.272 180.593 57.68 180.849 56.944H183.201C182.849 58.208 182.145 59.24 181.089 60.04C180.033 60.824 178.721 61.216 177.153 61.216C175.905 61.216 174.785 60.936 173.793 60.376C172.817 59.816 172.049 59.024 171.489 58C170.929 56.96 170.649 55.76 170.649 54.4C170.649 53.04 170.921 51.848 171.465 50.824C172.009 49.8 172.769 49.016 173.745 48.472C174.737 47.912 175.873 47.632 177.153 47.632C178.401 47.632 179.505 47.904 180.465 48.448C181.425 48.992 182.161 49.744 182.673 50.704C183.201 51.648 183.465 52.72 183.465 53.92ZM181.209 53.464C181.209 52.632 181.025 51.92 180.657 51.328C180.289 50.72 179.785 50.264 179.145 49.96C178.521 49.64 177.825 49.48 177.057 49.48C175.953 49.48 175.009 49.832 174.225 50.536C173.457 51.24 173.017 52.216 172.905 53.464H181.209ZM202.164 47.608C203.188 47.608 204.1 47.824 204.9 48.256C205.7 48.672 206.332 49.304 206.796 50.152C207.26 51 207.492 52.032 207.492 53.248V61H205.332V53.56C205.332 52.248 205.004 51.248 204.348 50.56C203.708 49.856 202.836 49.504 201.732 49.504C200.596 49.504 199.692 49.872 199.02 50.608C198.348 51.328 198.012 52.376 198.012 53.752V61H195.852V53.56C195.852 52.248 195.524 51.248 194.868 50.56C194.228 49.856 193.356 49.504 192.252 49.504C191.116 49.504 190.212 49.872 189.54 50.608C188.868 51.328 188.532 52.376 188.532 53.752V61H186.348V47.848H188.532V49.744C188.964 49.056 189.54 48.528 190.26 48.16C190.996 47.792 191.804 47.608 192.684 47.608C193.788 47.608 194.764 47.856 195.612 48.352C196.46 48.848 197.092 49.576 197.508 50.536C197.876 49.608 198.484 48.888 199.332 48.376C200.18 47.864 201.124 47.608 202.164 47.608ZM216.657 54.4C216.657 53.04 216.929 51.856 217.473 50.848C218.017 49.824 218.769 49.032 219.729 48.472C220.705 47.912 221.817 47.632 223.065 47.632C224.681 47.632 226.009 48.024 227.049 48.808C228.105 49.592 228.801 50.68 229.137 52.072H226.785C226.561 51.272 226.121 50.64 225.465 50.176C224.825 49.712 224.025 49.48 223.065 49.48C221.817 49.48 220.809 49.912 220.041 50.776C219.273 51.624 218.889 52.832 218.889 54.4C218.889 55.984 219.273 57.208 220.041 58.072C220.809 58.936 221.817 59.368 223.065 59.368C224.025 59.368 224.825 59.144 225.465 58.696C226.105 58.248 226.545 57.608 226.785 56.776H229.137C228.785 58.12 228.081 59.2 227.025 60.016C225.969 60.816 224.649 61.216 223.065 61.216C221.817 61.216 220.705 60.936 219.729 60.376C218.769 59.816 218.017 59.024 217.473 58C216.929 56.976 216.657 55.776 216.657 54.4ZM231.235 54.376C231.235 53.032 231.507 51.856 232.051 50.848C232.595 49.824 233.339 49.032 234.283 48.472C235.243 47.912 236.307 47.632 237.475 47.632C238.627 47.632 239.627 47.88 240.475 48.376C241.323 48.872 241.955 49.496 242.371 50.248V47.848H244.579V61H242.371V58.552C241.939 59.32 241.291 59.96 240.427 60.472C239.579 60.968 238.587 61.216 237.451 61.216C236.283 61.216 235.227 60.928 234.283 60.352C233.339 59.776 232.595 58.968 232.051 57.928C231.507 56.888 231.235 55.704 231.235 54.376ZM242.371 54.4C242.371 53.408 242.171 52.544 241.771 51.808C241.371 51.072 240.827 50.512 240.139 50.128C239.467 49.728 238.723 49.528 237.907 49.528C237.091 49.528 236.347 49.72 235.675 50.104C235.003 50.488 234.467 51.048 234.067 51.784C233.667 52.52 233.467 53.384 233.467 54.376C233.467 55.384 233.667 56.264 234.067 57.016C234.467 57.752 235.003 58.32 235.675 58.72C236.347 59.104 237.091 59.296 237.907 59.296C238.723 59.296 239.467 59.104 240.139 58.72C240.827 58.32 241.371 57.752 241.771 57.016C242.171 56.264 242.371 55.392 242.371 54.4ZM252.926 61.216C251.918 61.216 251.014 61.048 250.214 60.712C249.414 60.36 248.782 59.88 248.318 59.272C247.854 58.648 247.598 57.936 247.55 57.136H249.806C249.87 57.792 250.174 58.328 250.718 58.744C251.278 59.16 252.006 59.368 252.902 59.368C253.734 59.368 254.39 59.184 254.87 58.816C255.35 58.448 255.59 57.984 255.59 57.424C255.59 56.848 255.334 56.424 254.822 56.152C254.31 55.864 253.518 55.584 252.446 55.312C251.47 55.056 250.67 54.8 250.046 54.544C249.438 54.272 248.91 53.88 248.462 53.368C248.03 52.84 247.814 52.152 247.814 51.304C247.814 50.632 248.014 50.016 248.414 49.456C248.814 48.896 249.382 48.456 250.118 48.136C250.854 47.8 251.694 47.632 252.638 47.632C254.094 47.632 255.27 48 256.166 48.736C257.062 49.472 257.542 50.48 257.606 51.76H255.422C255.374 51.072 255.094 50.52 254.582 50.104C254.086 49.688 253.414 49.48 252.566 49.48C251.782 49.48 251.158 49.648 250.694 49.984C250.23 50.32 249.998 50.76 249.998 51.304C249.998 51.736 250.134 52.096 250.406 52.384C250.694 52.656 251.046 52.88 251.462 53.056C251.894 53.216 252.486 53.4 253.238 53.608C254.182 53.864 254.95 54.12 255.542 54.376C256.134 54.616 256.638 54.984 257.054 55.48C257.486 55.976 257.71 56.624 257.726 57.424C257.726 58.144 257.526 58.792 257.126 59.368C256.726 59.944 256.158 60.4 255.422 60.736C254.702 61.056 253.87 61.216 252.926 61.216ZM266.545 61.216C265.313 61.216 264.193 60.936 263.185 60.376C262.193 59.816 261.409 59.024 260.833 58C260.273 56.96 259.993 55.76 259.993 54.4C259.993 53.056 260.281 51.872 260.857 50.848C261.449 49.808 262.249 49.016 263.257 48.472C264.265 47.912 265.393 47.632 266.641 47.632C267.889 47.632 269.017 47.912 270.025 48.472C271.033 49.016 271.825 49.8 272.401 50.824C272.993 51.848 273.289 53.04 273.289 54.4C273.289 55.76 272.985 56.96 272.377 58C271.785 59.024 270.977 59.816 269.953 60.376C268.929 60.936 267.793 61.216 266.545 61.216ZM266.545 59.296C267.329 59.296 268.065 59.112 268.753 58.744C269.441 58.376 269.993 57.824 270.409 57.088C270.841 56.352 271.057 55.456 271.057 54.4C271.057 53.344 270.849 52.448 270.433 51.712C270.017 50.976 269.473 50.432 268.801 50.08C268.129 49.712 267.401 49.528 266.617 49.528C265.817 49.528 265.081 49.712 264.409 50.08C263.753 50.432 263.225 50.976 262.825 51.712C262.425 52.448 262.225 53.344 262.225 54.4C262.225 55.472 262.417 56.376 262.801 57.112C263.201 57.848 263.729 58.4 264.385 58.768C265.041 59.12 265.761 59.296 266.545 59.296ZM281.743 54.376C281.743 53.032 282.015 51.856 282.559 50.848C283.103 49.824 283.847 49.032 284.791 48.472C285.751 47.912 286.823 47.632 288.007 47.632C289.031 47.632 289.983 47.872 290.863 48.352C291.743 48.816 292.415 49.432 292.879 50.2V43.24H295.087V61H292.879V58.528C292.447 59.312 291.807 59.96 290.959 60.472C290.111 60.968 289.119 61.216 287.983 61.216C286.815 61.216 285.751 60.928 284.791 60.352C283.847 59.776 283.103 58.968 282.559 57.928C282.015 56.888 281.743 55.704 281.743 54.376ZM292.879 54.4C292.879 53.408 292.679 52.544 292.279 51.808C291.879 51.072 291.335 50.512 290.647 50.128C289.975 49.728 289.231 49.528 288.415 49.528C287.599 49.528 286.855 49.72 286.183 50.104C285.511 50.488 284.975 51.048 284.575 51.784C284.175 52.52 283.975 53.384 283.975 54.376C283.975 55.384 284.175 56.264 284.575 57.016C284.975 57.752 285.511 58.32 286.183 58.72C286.855 59.104 287.599 59.296 288.415 59.296C289.231 59.296 289.975 59.104 290.647 58.72C291.335 58.32 291.879 57.752 292.279 57.016C292.679 56.264 292.879 55.392 292.879 54.4ZM310.778 53.92C310.778 54.336 310.754 54.776 310.706 55.24H300.194C300.274 56.536 300.714 57.552 301.514 58.288C302.33 59.008 303.314 59.368 304.466 59.368C305.41 59.368 306.194 59.152 306.818 58.72C307.458 58.272 307.906 57.68 308.162 56.944H310.514C310.162 58.208 309.458 59.24 308.402 60.04C307.346 60.824 306.034 61.216 304.466 61.216C303.218 61.216 302.098 60.936 301.106 60.376C300.13 59.816 299.362 59.024 298.802 58C298.242 56.96 297.962 55.76 297.962 54.4C297.962 53.04 298.234 51.848 298.778 50.824C299.322 49.8 300.082 49.016 301.058 48.472C302.05 47.912 303.186 47.632 304.466 47.632C305.714 47.632 306.818 47.904 307.778 48.448C308.738 48.992 309.474 49.744 309.986 50.704C310.514 51.648 310.778 52.72 310.778 53.92ZM308.522 53.464C308.522 52.632 308.338 51.92 307.97 51.328C307.602 50.72 307.098 50.264 306.458 49.96C305.834 49.64 305.138 49.48 304.37 49.48C303.266 49.48 302.322 49.832 301.538 50.536C300.77 51.24 300.33 52.216 300.218 53.464H308.522Z" fill="white"/>
<path d="M323.803 49.504C324.187 48.88 324.739 48.376 325.459 47.992C326.179 47.608 327.003 47.416 327.931 47.416C329.035 47.416 330.035 47.696 330.931 48.256C331.827 48.816 332.531 49.616 333.043 50.656C333.571 51.696 333.835 52.904 333.835 54.28C333.835 55.656 333.571 56.872 333.043 57.928C332.531 58.968 331.827 59.776 330.931 60.352C330.035 60.912 329.035 61.192 327.931 61.192C326.987 61.192 326.163 61.008 325.459 60.64C324.755 60.256 324.203 59.752 323.803 59.128V61H319.699V43.24H323.803V49.504ZM329.659 54.28C329.659 53.256 329.371 52.456 328.795 51.88C328.235 51.288 327.539 50.992 326.707 50.992C325.891 50.992 325.195 51.288 324.619 51.88C324.059 52.472 323.779 53.28 323.779 54.304C323.779 55.328 324.059 56.136 324.619 56.728C325.195 57.32 325.891 57.616 326.707 57.616C327.523 57.616 328.219 57.32 328.795 56.728C329.371 56.12 329.659 55.304 329.659 54.28ZM340.092 49.84C340.572 49.104 341.172 48.528 341.892 48.112C342.612 47.68 343.412 47.464 344.292 47.464V51.808H343.164C342.14 51.808 341.372 52.032 340.86 52.48C340.348 52.912 340.092 53.68 340.092 54.784V61H335.988V47.608H340.092V49.84ZM345.438 54.28C345.438 52.904 345.694 51.696 346.206 50.656C346.734 49.616 347.446 48.816 348.342 48.256C349.238 47.696 350.238 47.416 351.342 47.416C352.286 47.416 353.11 47.608 353.814 47.992C354.534 48.376 355.086 48.88 355.47 49.504V47.608H359.574V61H355.47V59.104C355.07 59.728 354.51 60.232 353.79 60.616C353.086 61 352.262 61.192 351.318 61.192C350.23 61.192 349.238 60.912 348.342 60.352C347.446 59.776 346.734 58.968 346.206 57.928C345.694 56.872 345.438 55.656 345.438 54.28ZM355.47 54.304C355.47 53.28 355.182 52.472 354.606 51.88C354.046 51.288 353.358 50.992 352.542 50.992C351.726 50.992 351.03 51.288 350.454 51.88C349.894 52.456 349.614 53.256 349.614 54.28C349.614 55.304 349.894 56.12 350.454 56.728C351.03 57.32 351.726 57.616 352.542 57.616C353.358 57.616 354.046 57.32 354.606 56.728C355.182 56.136 355.47 55.328 355.47 54.304ZM370.703 47.464C372.271 47.464 373.519 47.976 374.447 49C375.391 50.008 375.863 51.4 375.863 53.176V61H371.783V53.728C371.783 52.832 371.551 52.136 371.087 51.64C370.623 51.144 369.999 50.896 369.215 50.896C368.431 50.896 367.807 51.144 367.343 51.64C366.879 52.136 366.647 52.832 366.647 53.728V61H362.543V47.608H366.647V49.384C367.063 48.792 367.623 48.328 368.327 47.992C369.031 47.64 369.823 47.464 370.703 47.464ZM377.899 54.304C377.899 52.912 378.179 51.696 378.739 50.656C379.315 49.616 380.107 48.816 381.115 48.256C382.139 47.696 383.307 47.416 384.619 47.416C386.299 47.416 387.699 47.856 388.819 48.736C389.955 49.616 390.699 50.856 391.051 52.456H386.683C386.315 51.432 385.603 50.92 384.547 50.92C383.795 50.92 383.195 51.216 382.747 51.808C382.299 52.384 382.075 53.216 382.075 54.304C382.075 55.392 382.299 56.232 382.747 56.824C383.195 57.4 383.795 57.688 384.547 57.688C385.603 57.688 386.315 57.176 386.683 56.152H391.051C390.699 57.72 389.955 58.952 388.819 59.848C387.683 60.744 386.283 61.192 384.619 61.192C383.307 61.192 382.139 60.912 381.115 60.352C380.107 59.792 379.315 58.992 378.739 57.952C378.179 56.912 377.899 55.696 377.899 54.304ZM399.342 61.192C398.03 61.192 396.846 60.912 395.79 60.352C394.75 59.792 393.926 58.992 393.318 57.952C392.726 56.912 392.43 55.696 392.43 54.304C392.43 52.928 392.734 51.72 393.342 50.68C393.95 49.624 394.782 48.816 395.838 48.256C396.894 47.696 398.078 47.416 399.39 47.416C400.702 47.416 401.886 47.696 402.942 48.256C403.998 48.816 404.83 49.624 405.438 50.68C406.046 51.72 406.35 52.928 406.35 54.304C406.35 55.68 406.038 56.896 405.414 57.952C404.806 58.992 403.966 59.792 402.894 60.352C401.838 60.912 400.654 61.192 399.342 61.192ZM399.342 57.64C400.126 57.64 400.79 57.352 401.334 56.776C401.894 56.2 402.174 55.376 402.174 54.304C402.174 53.232 401.902 52.408 401.358 51.832C400.83 51.256 400.174 50.968 399.39 50.968C398.59 50.968 397.926 51.256 397.398 51.832C396.87 52.392 396.606 53.216 396.606 54.304C396.606 55.376 396.862 56.2 397.374 56.776C397.902 57.352 398.558 57.64 399.342 57.64Z" fill="url(#paint0_linear_158_5601)"/>
<path d="M411.737 38.5038L412.925 39.4196L411.737 38.5038ZM465.811 9.72846C466.214 9.00429 465.953 8.09108 465.228 7.68876L453.427 1.13258C452.703 0.730265 451.79 0.99118 451.388 1.71536C450.985 2.43953 451.246 3.35274 451.97 3.75506L462.46 9.58277L456.633 20.0727C456.23 20.7968 456.491 21.71 457.215 22.1124C457.94 22.5147 458.853 22.2538 459.255 21.5296L465.811 9.72846ZM408.688 44.9158L412.925 39.4196L410.549 37.5881L406.312 43.0842L408.688 44.9158ZM448.876 15.024L464.912 10.4423L464.088 7.55771L448.052 12.1394L448.876 15.024ZM412.925 39.4196C421.993 27.6546 434.593 19.1048 448.876 15.024L448.052 12.1394C433.153 16.3964 420.009 25.3153 410.549 37.5881L412.925 39.4196Z" fill="url(#paint1_linear_158_5601)"/>
<defs>
<linearGradient id="paint0_linear_158_5601" x1="204" y1="35" x2="204" y2="76" gradientUnits="userSpaceOnUse">
<stop stop-color="#ECDD59"/>
<stop offset="0.21875" stop-color="#E1D250" stop-opacity="0.85"/>
<stop offset="0.442708" stop-color="#D7C947"/>
<stop offset="0.604167" stop-color="#CEC040" stop-opacity="0.81"/>
<stop offset="1" stop-color="#CCBE3E"/>
</linearGradient>
<linearGradient id="paint1_linear_158_5601" x1="436" y1="9" x2="436" y2="44" gradientUnits="userSpaceOnUse">
<stop stop-color="#ECDD59"/>
<stop offset="0.21875" stop-color="#E1D250" stop-opacity="0.85"/>
<stop offset="0.442708" stop-color="#D7C947"/>
<stop offset="0.604167" stop-color="#CEC040" stop-opacity="0.81"/>
<stop offset="1" stop-color="#CCBE3E"/>
</linearGradient>
</defs>
</svg>
