<svg width="79" height="20" viewBox="0 0 79 20" fill="none" xmlns="http://www.w3.org/2000/svg">
<rect opacity="0.5" x="1.25" y="0.625" width="76.5" height="18.75" rx="3.375" stroke="white" stroke-width="0.75"/>
<path opacity="0.5" d="M16.7188 13.5H15.8315L12.263 8.08875V13.5H11.3758V6.6945H12.263L15.8315 12.096V6.6945H16.7188V13.5ZM20.5615 13.5878C20.061 13.5878 19.606 13.474 19.1965 13.2465C18.7935 13.019 18.475 12.6972 18.241 12.2812C18.0135 11.8587 17.8997 11.3712 17.8997 10.8187C17.8997 10.2727 18.0167 9.79175 18.2507 9.37575C18.4912 8.95325 18.8162 8.6315 19.2257 8.4105C19.6352 8.183 20.0935 8.06925 20.6005 8.06925C21.1075 8.06925 21.5657 8.183 21.9752 8.4105C22.3847 8.6315 22.7065 8.95 22.9405 9.366C23.181 9.782 23.3012 10.2662 23.3012 10.8187C23.3012 11.3712 23.1777 11.8587 22.9307 12.2812C22.6902 12.6972 22.362 13.019 21.946 13.2465C21.53 13.474 21.0685 13.5878 20.5615 13.5878ZM20.5615 12.8077C20.88 12.8077 21.179 12.733 21.4585 12.5835C21.738 12.434 21.9622 12.2097 22.1312 11.9107C22.3067 11.6117 22.3945 11.2477 22.3945 10.8187C22.3945 10.3897 22.31 10.0257 22.141 9.72675C21.972 9.42775 21.751 9.20675 21.478 9.06375C21.205 8.91425 20.9092 8.8395 20.5907 8.8395C20.2657 8.8395 19.9667 8.91425 19.6937 9.06375C19.4272 9.20675 19.2127 9.42775 19.0502 9.72675C18.8877 10.0257 18.8065 10.3897 18.8065 10.8187C18.8065 11.2542 18.8845 11.6215 19.0405 11.9205C19.203 12.2195 19.4175 12.4437 19.684 12.5932C19.9505 12.7362 20.243 12.8077 20.5615 12.8077ZM26.4568 12.681L28.1143 8.157H29.06L26.9638 13.5H25.9303L23.834 8.157H24.7895L26.4568 12.681ZM29.6016 10.809C29.6016 10.263 29.7121 9.78525 29.9331 9.37575C30.1541 8.95975 30.4564 8.638 30.8399 8.4105C31.2299 8.183 31.6621 8.06925 32.1366 8.06925C32.6046 8.06925 33.0109 8.17 33.3554 8.3715C33.6999 8.573 33.9566 8.8265 34.1256 9.132V8.157H35.0226V13.5H34.1256V12.5055C33.9501 12.8175 33.6869 13.0775 33.3359 13.2855C32.9914 13.487 32.5884 13.5878 32.1269 13.5878C31.6524 13.5878 31.2234 13.4708 30.8399 13.2367C30.4564 13.0027 30.1541 12.6745 29.9331 12.252C29.7121 11.8295 29.6016 11.3485 29.6016 10.809ZM34.1256 10.8187C34.1256 10.4157 34.0444 10.0647 33.8819 9.76575C33.7194 9.46675 33.4984 9.23925 33.2189 9.08325C32.9459 8.92075 32.6436 8.8395 32.3121 8.8395C31.9806 8.8395 31.6784 8.9175 31.4054 9.0735C31.1324 9.2295 30.9146 9.457 30.7521 9.756C30.5896 10.055 30.5084 10.406 30.5084 10.809C30.5084 11.2185 30.5896 11.576 30.7521 11.8815C30.9146 12.1805 31.1324 12.4112 31.4054 12.5737C31.6784 12.7297 31.9806 12.8077 32.3121 12.8077C32.6436 12.8077 32.9459 12.7297 33.2189 12.5737C33.4984 12.4112 33.7194 12.1805 33.8819 11.8815C34.0444 11.576 34.1256 11.2217 34.1256 10.8187ZM38.7899 10.8187C38.7899 10.2662 38.9004 9.78525 39.1214 9.37575C39.3424 8.95975 39.6479 8.638 40.0379 8.4105C40.4344 8.183 40.8861 8.06925 41.3931 8.06925C42.0496 8.06925 42.5891 8.2285 43.0116 8.547C43.4406 8.8655 43.7234 9.3075 43.8599 9.873H42.9044C42.8134 9.548 42.6346 9.29125 42.3681 9.10275C42.1081 8.91425 41.7831 8.82 41.3931 8.82C40.8861 8.82 40.4766 8.9955 40.1646 9.3465C39.8526 9.691 39.6966 10.1817 39.6966 10.8187C39.6966 11.4622 39.8526 11.9595 40.1646 12.3105C40.4766 12.6615 40.8861 12.837 41.3931 12.837C41.7831 12.837 42.1081 12.746 42.3681 12.564C42.6281 12.382 42.8069 12.122 42.9044 11.784H43.8599C43.7169 12.33 43.4309 12.7687 43.0019 13.1002C42.5729 13.4252 42.0366 13.5878 41.3931 13.5878C40.8861 13.5878 40.4344 13.474 40.0379 13.2465C39.6479 13.019 39.3424 12.6972 39.1214 12.2812C38.9004 11.8652 38.7899 11.3777 38.7899 10.8187ZM47.374 13.5878C46.8735 13.5878 46.4185 13.474 46.009 13.2465C45.606 13.019 45.2875 12.6972 45.0535 12.2812C44.826 11.8587 44.7122 11.3712 44.7122 10.8187C44.7122 10.2727 44.8292 9.79175 45.0632 9.37575C45.3037 8.95325 45.6287 8.6315 46.0382 8.4105C46.4477 8.183 46.906 8.06925 47.413 8.06925C47.92 8.06925 48.3782 8.183 48.7877 8.4105C49.1972 8.6315 49.519 8.95 49.753 9.366C49.9935 9.782 50.1137 10.2662 50.1137 10.8187C50.1137 11.3712 49.9902 11.8587 49.7432 12.2812C49.5027 12.6972 49.1745 13.019 48.7585 13.2465C48.3425 13.474 47.881 13.5878 47.374 13.5878ZM47.374 12.8077C47.6925 12.8077 47.9915 12.733 48.271 12.5835C48.5505 12.434 48.7747 12.2097 48.9437 11.9107C49.1192 11.6117 49.207 11.2477 49.207 10.8187C49.207 10.3897 49.1225 10.0257 48.9535 9.72675C48.7845 9.42775 48.5635 9.20675 48.2905 9.06375C48.0175 8.91425 47.7217 8.8395 47.4032 8.8395C47.0782 8.8395 46.7792 8.91425 46.5062 9.06375C46.2397 9.20675 46.0252 9.42775 45.8627 9.72675C45.7002 10.0257 45.619 10.3897 45.619 10.8187C45.619 11.2542 45.697 11.6215 45.853 11.9205C46.0155 12.2195 46.23 12.4437 46.4965 12.5932C46.763 12.7362 47.0555 12.8077 47.374 12.8077ZM53.8835 8.0595C54.5335 8.0595 55.06 8.25775 55.463 8.65425C55.866 9.04425 56.0675 9.60975 56.0675 10.3507V13.5H55.19V10.4775C55.19 9.9445 55.0568 9.53825 54.7903 9.25875C54.5238 8.97275 54.1598 8.82975 53.6983 8.82975C53.2303 8.82975 52.8565 8.976 52.577 9.2685C52.304 9.561 52.1675 9.98675 52.1675 10.5457V13.5H51.2803V8.157H52.1675V8.9175C52.343 8.6445 52.5803 8.43325 52.8793 8.28375C53.1848 8.13425 53.5195 8.0595 53.8835 8.0595ZM58.5991 8.88825V12.0375C58.5991 12.2975 58.6544 12.4827 58.7649 12.5932C58.8754 12.6972 59.0671 12.7492 59.3401 12.7492H59.9934V13.5H59.1939C58.6999 13.5 58.3294 13.3862 58.0824 13.1587C57.8354 12.9312 57.7119 12.5575 57.7119 12.0375V8.88825H57.0196V8.157H57.7119V6.8115H58.5991V8.157H59.9934V8.88825H58.5991ZM60.7369 10.809C60.7369 10.263 60.8474 9.78525 61.0684 9.37575C61.2894 8.95975 61.5916 8.638 61.9751 8.4105C62.3651 8.183 62.7974 8.06925 63.2719 8.06925C63.7399 8.06925 64.1461 8.17 64.4906 8.3715C64.8351 8.573 65.0919 8.8265 65.2609 9.132V8.157H66.1579V13.5H65.2609V12.5055C65.0854 12.8175 64.8221 13.0775 64.4711 13.2855C64.1266 13.487 63.7236 13.5878 63.2621 13.5878C62.7876 13.5878 62.3586 13.4708 61.9751 13.2367C61.5916 13.0027 61.2894 12.6745 61.0684 12.252C60.8474 11.8295 60.7369 11.3485 60.7369 10.809ZM65.2609 10.8187C65.2609 10.4157 65.1796 10.0647 65.0171 9.76575C64.8546 9.46675 64.6336 9.23925 64.3541 9.08325C64.0811 8.92075 63.7789 8.8395 63.4474 8.8395C63.1159 8.8395 62.8136 8.9175 62.5406 9.0735C62.2676 9.2295 62.0499 9.457 61.8874 9.756C61.7249 10.055 61.6436 10.406 61.6436 10.809C61.6436 11.2185 61.7249 11.576 61.8874 11.8815C62.0499 12.1805 62.2676 12.4112 62.5406 12.5737C62.8136 12.7297 63.1159 12.8077 63.4474 12.8077C63.7789 12.8077 64.0811 12.7297 64.3541 12.5737C64.6336 12.4112 64.8546 12.1805 65.0171 11.8815C65.1796 11.576 65.2609 11.2217 65.2609 10.8187Z" fill="white"/>
</svg>
