<svg width="100" height="41" viewBox="0 0 100 41" fill="none" xmlns="http://www.w3.org/2000/svg">
<rect width="100" height="40.9836" rx="5" fill="#04D47C"/>
<path d="M18.645 19.765C18.645 18.745 18.875 17.83 19.335 17.02C19.795 16.2 20.42 15.56 21.21 15.1C22.01 14.64 22.895 14.41 23.865 14.41C25.005 14.41 26 14.685 26.85 15.235C27.7 15.785 28.32 16.565 28.71 17.575H27.075C26.785 16.945 26.365 16.46 25.815 16.12C25.275 15.78 24.625 15.61 23.865 15.61C23.135 15.61 22.48 15.78 21.9 16.12C21.32 16.46 20.865 16.945 20.535 17.575C20.205 18.195 20.04 18.925 20.04 19.765C20.04 20.595 20.205 21.325 20.535 21.955C20.865 22.575 21.32 23.055 21.9 23.395C22.48 23.735 23.135 23.905 23.865 23.905C24.625 23.905 25.275 23.74 25.815 23.41C26.365 23.07 26.785 22.585 27.075 21.955H28.71C28.32 22.955 27.7 23.73 26.85 24.28C26 24.82 25.005 25.09 23.865 25.09C22.895 25.09 22.01 24.865 21.21 24.415C20.42 23.955 19.795 23.32 19.335 22.51C18.875 21.7 18.645 20.785 18.645 19.765ZM30.2319 20.86C30.2319 20.02 30.4019 19.285 30.7419 18.655C31.0819 18.015 31.5469 17.52 32.1369 17.17C32.7369 16.82 33.4019 16.645 34.1319 16.645C34.8519 16.645 35.4769 16.8 36.0069 17.11C36.5369 17.42 36.9319 17.81 37.1919 18.28V16.78H38.5719V25H37.1919V23.47C36.9219 23.95 36.5169 24.35 35.9769 24.67C35.4469 24.98 34.8269 25.135 34.1169 25.135C33.3869 25.135 32.7269 24.955 32.1369 24.595C31.5469 24.235 31.0819 23.73 30.7419 23.08C30.4019 22.43 30.2319 21.69 30.2319 20.86ZM37.1919 20.875C37.1919 20.255 37.0669 19.715 36.8169 19.255C36.5669 18.795 36.2269 18.445 35.7969 18.205C35.3769 17.955 34.9119 17.83 34.4019 17.83C33.8919 17.83 33.4269 17.95 33.0069 18.19C32.5869 18.43 32.2519 18.78 32.0019 19.24C31.7519 19.7 31.6269 20.24 31.6269 20.86C31.6269 21.49 31.7519 22.04 32.0019 22.51C32.2519 22.97 32.5869 23.325 33.0069 23.575C33.4269 23.815 33.8919 23.935 34.4019 23.935C34.9119 23.935 35.3769 23.815 35.7969 23.575C36.2269 23.325 36.5669 22.97 36.8169 22.51C37.0669 22.04 37.1919 21.495 37.1919 20.875ZM42.2436 13.9V25H40.8786V13.9H42.2436ZM44.06 20.875C44.06 20.025 44.23 19.285 44.57 18.655C44.91 18.015 45.38 17.52 45.98 17.17C46.59 16.82 47.285 16.645 48.065 16.645C49.075 16.645 49.905 16.89 50.555 17.38C51.215 17.87 51.65 18.55 51.86 19.42H50.39C50.25 18.92 49.975 18.525 49.565 18.235C49.165 17.945 48.665 17.8 48.065 17.8C47.285 17.8 46.655 18.07 46.175 18.61C45.695 19.14 45.455 19.895 45.455 20.875C45.455 21.865 45.695 22.63 46.175 23.17C46.655 23.71 47.285 23.98 48.065 23.98C48.665 23.98 49.165 23.84 49.565 23.56C49.965 23.28 50.24 22.88 50.39 22.36H51.86C51.64 23.2 51.2 23.875 50.54 24.385C49.88 24.885 49.055 25.135 48.065 25.135C47.285 25.135 46.59 24.96 45.98 24.61C45.38 24.26 44.91 23.765 44.57 23.125C44.23 22.485 44.06 21.735 44.06 20.875ZM60.9714 16.78V25H59.6064V23.785C59.3464 24.205 58.9814 24.535 58.5114 24.775C58.0514 25.005 57.5414 25.12 56.9814 25.12C56.3414 25.12 55.7664 24.99 55.2564 24.73C54.7464 24.46 54.3414 24.06 54.0414 23.53C53.7514 23 53.6064 22.355 53.6064 21.595V16.78H54.9564V21.415C54.9564 22.225 55.1614 22.85 55.5714 23.29C55.9814 23.72 56.5414 23.935 57.2514 23.935C57.9814 23.935 58.5564 23.71 58.9764 23.26C59.3964 22.81 59.6064 22.155 59.6064 21.295V16.78H60.9714ZM64.6411 13.9V25H63.2761V13.9H64.6411ZM66.4575 20.86C66.4575 20.02 66.6275 19.285 66.9675 18.655C67.3075 18.015 67.7725 17.52 68.3625 17.17C68.9625 16.82 69.6275 16.645 70.3575 16.645C71.0775 16.645 71.7025 16.8 72.2325 17.11C72.7625 17.42 73.1575 17.81 73.4175 18.28V16.78H74.7975V25H73.4175V23.47C73.1475 23.95 72.7425 24.35 72.2025 24.67C71.6725 24.98 71.0525 25.135 70.3425 25.135C69.6125 25.135 68.9525 24.955 68.3625 24.595C67.7725 24.235 67.3075 23.73 66.9675 23.08C66.6275 22.43 66.4575 21.69 66.4575 20.86ZM73.4175 20.875C73.4175 20.255 73.2925 19.715 73.0425 19.255C72.7925 18.795 72.4525 18.445 72.0225 18.205C71.6025 17.955 71.1375 17.83 70.6275 17.83C70.1175 17.83 69.6525 17.95 69.2325 18.19C68.8125 18.43 68.4775 18.78 68.2275 19.24C67.9775 19.7 67.8525 20.24 67.8525 20.86C67.8525 21.49 67.9775 22.04 68.2275 22.51C68.4775 22.97 68.8125 23.325 69.2325 23.575C69.6525 23.815 70.1175 23.935 70.6275 23.935C71.1375 23.935 71.6025 23.815 72.0225 23.575C72.4525 23.325 72.7925 22.97 73.0425 22.51C73.2925 22.04 73.4175 21.495 73.4175 20.875ZM78.4692 18.115C78.7092 17.645 79.0492 17.28 79.4892 17.02C79.9392 16.76 80.4842 16.63 81.1242 16.63V18.04H80.7642C79.2342 18.04 78.4692 18.87 78.4692 20.53V25H77.1042V16.78H78.4692V18.115Z" fill="#0F1923"/>
</svg>
