<svg width="473" height="153" viewBox="0 0 473 153" fill="none" xmlns="http://www.w3.org/2000/svg">
<path d="M35.1891 93.28H27.8931L26.5491 97H24.2451L30.2931 80.368H32.8131L38.8371 97H36.5331L35.1891 93.28ZM34.5651 91.504L31.5411 83.056L28.5171 91.504H34.5651ZM40.657 90.376C40.657 89.032 40.929 87.856 41.473 86.848C42.017 85.824 42.761 85.032 43.705 84.472C44.665 83.912 45.737 83.632 46.921 83.632C48.057 83.632 49.049 83.888 49.897 84.4C50.761 84.896 51.393 85.512 51.793 86.248V83.848H54.001V103.24H51.793V94.576C51.377 95.312 50.737 95.936 49.873 96.448C49.009 96.96 48.001 97.216 46.849 97.216C45.697 97.216 44.649 96.928 43.705 96.352C42.761 95.776 42.017 94.968 41.473 93.928C40.929 92.888 40.657 91.704 40.657 90.376ZM51.793 90.4C51.793 89.408 51.593 88.544 51.193 87.808C50.793 87.072 50.249 86.512 49.561 86.128C48.889 85.728 48.145 85.528 47.329 85.528C46.513 85.528 45.769 85.72 45.097 86.104C44.425 86.488 43.889 87.048 43.489 87.784C43.089 88.52 42.889 89.384 42.889 90.376C42.889 91.384 43.089 92.264 43.489 93.016C43.889 93.752 44.425 94.32 45.097 94.72C45.769 95.104 46.513 95.296 47.329 95.296C48.145 95.296 48.889 95.104 49.561 94.72C50.249 94.32 50.793 93.752 51.193 93.016C51.593 92.264 51.793 91.392 51.793 90.4ZM69.3558 83.848V97H67.1718V95.056C66.7558 95.728 66.1718 96.256 65.4198 96.64C64.6838 97.008 63.8678 97.192 62.9718 97.192C61.9478 97.192 61.0278 96.984 60.2118 96.568C59.3958 96.136 58.7478 95.496 58.2678 94.648C57.8038 93.8 57.5718 92.768 57.5718 91.552V83.848H59.7318V91.264C59.7318 92.56 60.0598 93.56 60.7158 94.264C61.3718 94.952 62.2678 95.296 63.4038 95.296C64.5718 95.296 65.4918 94.936 66.1638 94.216C66.8358 93.496 67.1718 92.448 67.1718 91.072V83.848H69.3558ZM74.1713 81.712C73.7553 81.712 73.4033 81.568 73.1153 81.28C72.8273 80.992 72.6833 80.64 72.6833 80.224C72.6833 79.808 72.8273 79.456 73.1153 79.168C73.4033 78.88 73.7553 78.736 74.1713 78.736C74.5713 78.736 74.9073 78.88 75.1793 79.168C75.4673 79.456 75.6113 79.808 75.6113 80.224C75.6113 80.64 75.4673 80.992 75.1793 81.28C74.9073 81.568 74.5713 81.712 74.1713 81.712ZM75.2273 83.848V97H73.0433V83.848H75.2273ZM97.348 89.92C97.348 90.336 97.324 90.776 97.276 91.24H86.764C86.844 92.536 87.284 93.552 88.084 94.288C88.9 95.008 89.884 95.368 91.036 95.368C91.98 95.368 92.764 95.152 93.388 94.72C94.028 94.272 94.476 93.68 94.732 92.944H97.084C96.732 94.208 96.028 95.24 94.972 96.04C93.916 96.824 92.604 97.216 91.036 97.216C89.788 97.216 88.668 96.936 87.676 96.376C86.7 95.816 85.932 95.024 85.372 94C84.812 92.96 84.532 91.76 84.532 90.4C84.532 89.04 84.804 87.848 85.348 86.824C85.892 85.8 86.652 85.016 87.628 84.472C88.62 83.912 89.756 83.632 91.036 83.632C92.284 83.632 93.388 83.904 94.348 84.448C95.308 84.992 96.044 85.744 96.556 86.704C97.084 87.648 97.348 88.72 97.348 89.92ZM95.092 89.464C95.092 88.632 94.908 87.92 94.54 87.328C94.172 86.72 93.668 86.264 93.028 85.96C92.404 85.64 91.708 85.48 90.94 85.48C89.836 85.48 88.892 85.832 88.108 86.536C87.34 87.24 86.9 88.216 86.788 89.464H95.092ZM93.292 80.128L88.18 82.864V81.232L93.292 78.232V80.128ZM112.365 97.216C111.133 97.216 110.013 96.936 109.005 96.376C108.013 95.816 107.229 95.024 106.653 94C106.093 92.96 105.813 91.76 105.813 90.4C105.813 89.056 106.101 87.872 106.677 86.848C107.269 85.808 108.069 85.016 109.077 84.472C110.085 83.912 111.213 83.632 112.461 83.632C113.709 83.632 114.837 83.912 115.845 84.472C116.853 85.016 117.645 85.8 118.221 86.824C118.813 87.848 119.109 89.04 119.109 90.4C119.109 91.76 118.805 92.96 118.197 94C117.605 95.024 116.797 95.816 115.773 96.376C114.749 96.936 113.613 97.216 112.365 97.216ZM112.365 95.296C113.149 95.296 113.885 95.112 114.573 94.744C115.261 94.376 115.813 93.824 116.229 93.088C116.661 92.352 116.877 91.456 116.877 90.4C116.877 89.344 116.669 88.448 116.253 87.712C115.837 86.976 115.293 86.432 114.621 86.08C113.949 85.712 113.221 85.528 112.437 85.528C111.637 85.528 110.901 85.712 110.229 86.08C109.573 86.432 109.045 86.976 108.645 87.712C108.245 88.448 108.045 89.344 108.045 90.4C108.045 91.472 108.237 92.376 108.621 93.112C109.021 93.848 109.549 94.4 110.205 94.768C110.861 95.12 111.581 95.296 112.365 95.296ZM133.275 94.984L137.355 83.848H139.683L134.523 97H131.979L126.819 83.848H129.171L133.275 94.984ZM141.016 90.376C141.016 89.032 141.288 87.856 141.832 86.848C142.376 85.824 143.12 85.032 144.064 84.472C145.024 83.912 146.088 83.632 147.256 83.632C148.408 83.632 149.408 83.88 150.256 84.376C151.104 84.872 151.736 85.496 152.152 86.248V83.848H154.36V97H152.152V94.552C151.72 95.32 151.072 95.96 150.208 96.472C149.36 96.968 148.368 97.216 147.232 97.216C146.064 97.216 145.008 96.928 144.064 96.352C143.12 95.776 142.376 94.968 141.832 93.928C141.288 92.888 141.016 91.704 141.016 90.376ZM152.152 90.4C152.152 89.408 151.952 88.544 151.552 87.808C151.152 87.072 150.608 86.512 149.92 86.128C149.248 85.728 148.504 85.528 147.688 85.528C146.872 85.528 146.128 85.72 145.456 86.104C144.784 86.488 144.248 87.048 143.848 87.784C143.448 88.52 143.248 89.384 143.248 90.376C143.248 91.384 143.448 92.264 143.848 93.016C144.248 93.752 144.784 94.32 145.456 94.72C146.128 95.104 146.872 95.296 147.688 95.296C148.504 95.296 149.248 95.104 149.92 94.72C150.608 94.32 151.152 93.752 151.552 93.016C151.952 92.264 152.152 91.392 152.152 90.4ZM160.235 79.24V97H158.051V79.24H160.235ZM169.693 97.216C168.461 97.216 167.341 96.936 166.333 96.376C165.341 95.816 164.557 95.024 163.981 94C163.421 92.96 163.141 91.76 163.141 90.4C163.141 89.056 163.429 87.872 164.005 86.848C164.597 85.808 165.397 85.016 166.405 84.472C167.413 83.912 168.541 83.632 169.789 83.632C171.037 83.632 172.165 83.912 173.173 84.472C174.181 85.016 174.973 85.8 175.549 86.824C176.141 87.848 176.437 89.04 176.437 90.4C176.437 91.76 176.133 92.96 175.525 94C174.933 95.024 174.125 95.816 173.101 96.376C172.077 96.936 170.941 97.216 169.693 97.216ZM169.693 95.296C170.477 95.296 171.213 95.112 171.901 94.744C172.589 94.376 173.141 93.824 173.557 93.088C173.989 92.352 174.205 91.456 174.205 90.4C174.205 89.344 173.997 88.448 173.581 87.712C173.165 86.976 172.621 86.432 171.949 86.08C171.277 85.712 170.549 85.528 169.765 85.528C168.965 85.528 168.229 85.712 167.557 86.08C166.901 86.432 166.373 86.976 165.973 87.712C165.573 88.448 165.373 89.344 165.373 90.4C165.373 91.472 165.565 92.376 165.949 93.112C166.349 93.848 166.877 94.4 167.533 94.768C168.189 95.12 168.909 95.296 169.693 95.296ZM181.493 85.984C181.877 85.232 182.421 84.648 183.125 84.232C183.845 83.816 184.717 83.608 185.741 83.608V85.864H185.165C182.717 85.864 181.493 87.192 181.493 89.848V97H179.309V83.848H181.493V85.984ZM193.845 90.376C193.845 89.032 194.117 87.856 194.661 86.848C195.205 85.824 195.949 85.032 196.893 84.472C197.853 83.912 198.925 83.632 200.109 83.632C201.245 83.632 202.237 83.888 203.085 84.4C203.949 84.896 204.581 85.512 204.981 86.248V83.848H207.189V103.24H204.981V94.576C204.565 95.312 203.925 95.936 203.061 96.448C202.197 96.96 201.189 97.216 200.037 97.216C198.885 97.216 197.837 96.928 196.893 96.352C195.949 95.776 195.205 94.968 194.661 93.928C194.117 92.888 193.845 91.704 193.845 90.376ZM204.981 90.4C204.981 89.408 204.781 88.544 204.381 87.808C203.981 87.072 203.437 86.512 202.749 86.128C202.077 85.728 201.333 85.528 200.517 85.528C199.701 85.528 198.957 85.72 198.285 86.104C197.613 86.488 197.077 87.048 196.677 87.784C196.277 88.52 196.077 89.384 196.077 90.376C196.077 91.384 196.277 92.264 196.677 93.016C197.077 93.752 197.613 94.32 198.285 94.72C198.957 95.104 199.701 95.296 200.517 95.296C201.333 95.296 202.077 95.104 202.749 94.72C203.437 94.32 203.981 93.752 204.381 93.016C204.781 92.264 204.981 91.392 204.981 90.4ZM222.543 83.848V97H220.359V95.056C219.943 95.728 219.359 96.256 218.607 96.64C217.871 97.008 217.055 97.192 216.159 97.192C215.135 97.192 214.215 96.984 213.399 96.568C212.583 96.136 211.935 95.496 211.455 94.648C210.991 93.8 210.759 92.768 210.759 91.552V83.848H212.919V91.264C212.919 92.56 213.247 93.56 213.903 94.264C214.559 94.952 215.455 95.296 216.591 95.296C217.759 95.296 218.679 94.936 219.351 94.216C220.023 93.496 220.359 92.448 220.359 91.072V83.848H222.543ZM238.231 89.92C238.231 90.336 238.207 90.776 238.159 91.24H227.647C227.727 92.536 228.167 93.552 228.967 94.288C229.783 95.008 230.767 95.368 231.919 95.368C232.863 95.368 233.647 95.152 234.271 94.72C234.911 94.272 235.359 93.68 235.615 92.944H237.967C237.615 94.208 236.911 95.24 235.855 96.04C234.799 96.824 233.487 97.216 231.919 97.216C230.671 97.216 229.551 96.936 228.559 96.376C227.583 95.816 226.815 95.024 226.255 94C225.695 92.96 225.415 91.76 225.415 90.4C225.415 89.04 225.687 87.848 226.231 86.824C226.775 85.8 227.535 85.016 228.511 84.472C229.503 83.912 230.639 83.632 231.919 83.632C233.167 83.632 234.271 83.904 235.231 84.448C236.191 84.992 236.927 85.744 237.439 86.704C237.967 87.648 238.231 88.72 238.231 89.92ZM235.975 89.464C235.975 88.632 235.791 87.92 235.423 87.328C235.055 86.72 234.551 86.264 233.911 85.96C233.287 85.64 232.591 85.48 231.823 85.48C230.719 85.48 229.775 85.832 228.991 86.536C228.223 87.24 227.783 88.216 227.671 89.464H235.975ZM249.696 86.272C250.128 85.52 250.768 84.896 251.616 84.4C252.48 83.888 253.48 83.632 254.616 83.632C255.784 83.632 256.84 83.912 257.784 84.472C258.744 85.032 259.496 85.824 260.04 86.848C260.584 87.856 260.856 89.032 260.856 90.376C260.856 91.704 260.584 92.888 260.04 93.928C259.496 94.968 258.744 95.776 257.784 96.352C256.84 96.928 255.784 97.216 254.616 97.216C253.496 97.216 252.504 96.968 251.64 96.472C250.792 95.96 250.144 95.328 249.696 94.576V103.24H247.512V83.848H249.696V86.272ZM258.624 90.376C258.624 89.384 258.424 88.52 258.024 87.784C257.624 87.048 257.08 86.488 256.392 86.104C255.72 85.72 254.976 85.528 254.16 85.528C253.36 85.528 252.616 85.728 251.928 86.128C251.256 86.512 250.712 87.08 250.296 87.832C249.896 88.568 249.696 89.424 249.696 90.4C249.696 91.392 249.896 92.264 250.296 93.016C250.712 93.752 251.256 94.32 251.928 94.72C252.616 95.104 253.36 95.296 254.16 95.296C254.976 95.296 255.72 95.104 256.392 94.72C257.08 94.32 257.624 93.752 258.024 93.016C258.424 92.264 258.624 91.384 258.624 90.376ZM275.731 89.92C275.731 90.336 275.707 90.776 275.659 91.24H265.147C265.227 92.536 265.667 93.552 266.467 94.288C267.283 95.008 268.267 95.368 269.419 95.368C270.363 95.368 271.147 95.152 271.771 94.72C272.411 94.272 272.859 93.68 273.115 92.944H275.467C275.115 94.208 274.411 95.24 273.355 96.04C272.299 96.824 270.987 97.216 269.419 97.216C268.171 97.216 267.051 96.936 266.059 96.376C265.083 95.816 264.315 95.024 263.755 94C263.195 92.96 262.915 91.76 262.915 90.4C262.915 89.04 263.187 87.848 263.731 86.824C264.275 85.8 265.035 85.016 266.011 84.472C267.003 83.912 268.139 83.632 269.419 83.632C270.667 83.632 271.771 83.904 272.731 84.448C273.691 84.992 274.427 85.744 274.939 86.704C275.467 87.648 275.731 88.72 275.731 89.92ZM273.475 89.464C273.475 88.632 273.291 87.92 272.923 87.328C272.555 86.72 272.051 86.264 271.411 85.96C270.787 85.64 270.091 85.48 269.323 85.48C268.219 85.48 267.275 85.832 266.491 86.536C265.723 87.24 265.283 88.216 265.171 89.464H273.475ZM280.798 85.984C281.182 85.232 281.726 84.648 282.43 84.232C283.15 83.816 284.022 83.608 285.046 83.608V85.864H284.47C282.022 85.864 280.798 87.192 280.798 89.848V97H278.614V83.848H280.798V85.984ZM286.751 90.376C286.751 89.032 287.023 87.856 287.567 86.848C288.111 85.824 288.855 85.032 289.799 84.472C290.759 83.912 291.831 83.632 293.015 83.632C294.039 83.632 294.991 83.872 295.871 84.352C296.751 84.816 297.423 85.432 297.887 86.2V79.24H300.095V97H297.887V94.528C297.455 95.312 296.815 95.96 295.967 96.472C295.119 96.968 294.127 97.216 292.991 97.216C291.823 97.216 290.759 96.928 289.799 96.352C288.855 95.776 288.111 94.968 287.567 93.928C287.023 92.888 286.751 91.704 286.751 90.376ZM297.887 90.4C297.887 89.408 297.687 88.544 297.287 87.808C296.887 87.072 296.343 86.512 295.655 86.128C294.983 85.728 294.239 85.528 293.423 85.528C292.607 85.528 291.863 85.72 291.191 86.104C290.519 86.488 289.983 87.048 289.583 87.784C289.183 88.52 288.983 89.384 288.983 90.376C288.983 91.384 289.183 92.264 289.583 93.016C289.983 93.752 290.519 94.32 291.191 94.72C291.863 95.104 292.607 95.296 293.423 95.296C294.239 95.296 294.983 95.104 295.655 94.72C296.343 94.32 296.887 93.752 297.287 93.016C297.687 92.264 297.887 91.392 297.887 90.4ZM315.786 89.92C315.786 90.336 315.762 90.776 315.714 91.24H305.202C305.282 92.536 305.722 93.552 306.522 94.288C307.338 95.008 308.322 95.368 309.474 95.368C310.418 95.368 311.202 95.152 311.826 94.72C312.466 94.272 312.914 93.68 313.17 92.944H315.522C315.17 94.208 314.466 95.24 313.41 96.04C312.354 96.824 311.042 97.216 309.474 97.216C308.226 97.216 307.106 96.936 306.114 96.376C305.138 95.816 304.37 95.024 303.81 94C303.25 92.96 302.97 91.76 302.97 90.4C302.97 89.04 303.242 87.848 303.786 86.824C304.33 85.8 305.09 85.016 306.066 84.472C307.058 83.912 308.194 83.632 309.474 83.632C310.722 83.632 311.826 83.904 312.786 84.448C313.746 84.992 314.482 85.744 314.994 86.704C315.522 87.648 315.786 88.72 315.786 89.92ZM313.53 89.464C313.53 88.632 313.346 87.92 312.978 87.328C312.61 86.72 312.106 86.264 311.466 85.96C310.842 85.64 310.146 85.48 309.378 85.48C308.274 85.48 307.33 85.832 306.546 86.536C305.778 87.24 305.338 88.216 305.226 89.464H313.53ZM320.852 85.984C321.236 85.232 321.78 84.648 322.484 84.232C323.204 83.816 324.076 83.608 325.1 83.608V85.864H324.524C322.076 85.864 320.852 87.192 320.852 89.848V97H318.668V83.848H320.852V85.984ZM326.805 90.376C326.805 89.032 327.077 87.856 327.621 86.848C328.165 85.824 328.909 85.032 329.853 84.472C330.813 83.912 331.877 83.632 333.045 83.632C334.197 83.632 335.197 83.88 336.045 84.376C336.893 84.872 337.525 85.496 337.941 86.248V83.848H340.149V97H337.941V94.552C337.509 95.32 336.861 95.96 335.997 96.472C335.149 96.968 334.157 97.216 333.021 97.216C331.853 97.216 330.797 96.928 329.853 96.352C328.909 95.776 328.165 94.968 327.621 93.928C327.077 92.888 326.805 91.704 326.805 90.376ZM337.941 90.4C337.941 89.408 337.741 88.544 337.341 87.808C336.941 87.072 336.397 86.512 335.709 86.128C335.037 85.728 334.293 85.528 333.477 85.528C332.661 85.528 331.917 85.72 331.245 86.104C330.573 86.488 330.037 87.048 329.637 87.784C329.237 88.52 329.037 89.384 329.037 90.376C329.037 91.384 329.237 92.264 329.637 93.016C330.037 93.752 330.573 94.32 331.245 94.72C331.917 95.104 332.661 95.296 333.477 95.296C334.293 95.296 335.037 95.104 335.709 94.72C336.397 94.32 336.941 93.752 337.341 93.016C337.741 92.264 337.941 91.392 337.941 90.4ZM336.237 80.128L331.125 82.864V81.232L336.237 78.232V80.128ZM362.239 89.92C362.239 90.336 362.215 90.776 362.167 91.24H351.655C351.735 92.536 352.175 93.552 352.975 94.288C353.791 95.008 354.775 95.368 355.927 95.368C356.871 95.368 357.655 95.152 358.279 94.72C358.919 94.272 359.367 93.68 359.623 92.944H361.975C361.623 94.208 360.919 95.24 359.863 96.04C358.807 96.824 357.495 97.216 355.927 97.216C354.679 97.216 353.559 96.936 352.567 96.376C351.591 95.816 350.823 95.024 350.263 94C349.703 92.96 349.423 91.76 349.423 90.4C349.423 89.04 349.695 87.848 350.239 86.824C350.783 85.8 351.543 85.016 352.519 84.472C353.511 83.912 354.647 83.632 355.927 83.632C357.175 83.632 358.279 83.904 359.239 84.448C360.199 84.992 360.935 85.744 361.447 86.704C361.975 87.648 362.239 88.72 362.239 89.92ZM359.983 89.464C359.983 88.632 359.799 87.92 359.431 87.328C359.063 86.72 358.559 86.264 357.919 85.96C357.295 85.64 356.599 85.48 355.831 85.48C354.727 85.48 353.783 85.832 352.999 86.536C352.231 87.24 351.791 88.216 351.679 89.464H359.983ZM380.937 83.608C381.961 83.608 382.873 83.824 383.673 84.256C384.473 84.672 385.105 85.304 385.569 86.152C386.033 87 386.265 88.032 386.265 89.248V97H384.105V89.56C384.105 88.248 383.777 87.248 383.121 86.56C382.481 85.856 381.609 85.504 380.505 85.504C379.369 85.504 378.465 85.872 377.793 86.608C377.121 87.328 376.785 88.376 376.785 89.752V97H374.625V89.56C374.625 88.248 374.297 87.248 373.641 86.56C373.001 85.856 372.129 85.504 371.025 85.504C369.889 85.504 368.985 85.872 368.313 86.608C367.641 87.328 367.305 88.376 367.305 89.752V97H365.121V83.848H367.305V85.744C367.737 85.056 368.313 84.528 369.033 84.16C369.769 83.792 370.577 83.608 371.457 83.608C372.561 83.608 373.537 83.856 374.385 84.352C375.233 84.848 375.865 85.576 376.281 86.536C376.649 85.608 377.257 84.888 378.105 84.376C378.953 83.864 379.897 83.608 380.937 83.608ZM193.516 126.4C193.516 125.04 193.788 123.856 194.332 122.848C194.876 121.824 195.628 121.032 196.588 120.472C197.564 119.912 198.676 119.632 199.924 119.632C201.54 119.632 202.868 120.024 203.908 120.808C204.964 121.592 205.66 122.68 205.996 124.072H203.644C203.42 123.272 202.98 122.64 202.324 122.176C201.684 121.712 200.884 121.48 199.924 121.48C198.676 121.48 197.668 121.912 196.9 122.776C196.132 123.624 195.748 124.832 195.748 126.4C195.748 127.984 196.132 129.208 196.9 130.072C197.668 130.936 198.676 131.368 199.924 131.368C200.884 131.368 201.684 131.144 202.324 130.696C202.964 130.248 203.404 129.608 203.644 128.776H205.996C205.644 130.12 204.94 131.2 203.884 132.016C202.828 132.816 201.508 133.216 199.924 133.216C198.676 133.216 197.564 132.936 196.588 132.376C195.628 131.816 194.876 131.024 194.332 130C193.788 128.976 193.516 127.776 193.516 126.4ZM208.095 126.376C208.095 125.032 208.367 123.856 208.911 122.848C209.455 121.824 210.199 121.032 211.143 120.472C212.103 119.912 213.167 119.632 214.335 119.632C215.487 119.632 216.487 119.88 217.335 120.376C218.183 120.872 218.815 121.496 219.231 122.248V119.848H221.439V133H219.231V130.552C218.799 131.32 218.151 131.96 217.287 132.472C216.439 132.968 215.447 133.216 214.311 133.216C213.143 133.216 212.087 132.928 211.143 132.352C210.199 131.776 209.455 130.968 208.911 129.928C208.367 128.888 208.095 127.704 208.095 126.376ZM219.231 126.4C219.231 125.408 219.031 124.544 218.631 123.808C218.231 123.072 217.687 122.512 216.999 122.128C216.327 121.728 215.583 121.528 214.767 121.528C213.951 121.528 213.207 121.72 212.535 122.104C211.863 122.488 211.327 123.048 210.927 123.784C210.527 124.52 210.327 125.384 210.327 126.376C210.327 127.384 210.527 128.264 210.927 129.016C211.327 129.752 211.863 130.32 212.535 130.72C213.207 131.104 213.951 131.296 214.767 131.296C215.583 131.296 216.327 131.104 216.999 130.72C217.687 130.32 218.231 129.752 218.631 129.016C219.031 128.264 219.231 127.392 219.231 126.4ZM229.785 133.216C228.777 133.216 227.873 133.048 227.073 132.712C226.273 132.36 225.641 131.88 225.177 131.272C224.713 130.648 224.457 129.936 224.409 129.136H226.665C226.729 129.792 227.033 130.328 227.577 130.744C228.137 131.16 228.865 131.368 229.761 131.368C230.593 131.368 231.249 131.184 231.729 130.816C232.209 130.448 232.449 129.984 232.449 129.424C232.449 128.848 232.193 128.424 231.681 128.152C231.169 127.864 230.377 127.584 229.305 127.312C228.329 127.056 227.529 126.8 226.905 126.544C226.297 126.272 225.769 125.88 225.321 125.368C224.889 124.84 224.673 124.152 224.673 123.304C224.673 122.632 224.873 122.016 225.273 121.456C225.673 120.896 226.241 120.456 226.977 120.136C227.713 119.8 228.553 119.632 229.497 119.632C230.953 119.632 232.129 120 233.025 120.736C233.921 121.472 234.401 122.48 234.465 123.76H232.281C232.233 123.072 231.953 122.52 231.441 122.104C230.945 121.688 230.273 121.48 229.425 121.48C228.641 121.48 228.017 121.648 227.553 121.984C227.089 122.32 226.857 122.76 226.857 123.304C226.857 123.736 226.993 124.096 227.265 124.384C227.553 124.656 227.905 124.88 228.321 125.056C228.753 125.216 229.345 125.4 230.097 125.608C231.041 125.864 231.809 126.12 232.401 126.376C232.993 126.616 233.497 126.984 233.913 127.48C234.345 127.976 234.569 128.624 234.585 129.424C234.585 130.144 234.385 130.792 233.985 131.368C233.585 131.944 233.017 132.4 232.281 132.736C231.561 133.056 230.729 133.216 229.785 133.216ZM243.404 133.216C242.172 133.216 241.052 132.936 240.044 132.376C239.052 131.816 238.268 131.024 237.692 130C237.132 128.96 236.852 127.76 236.852 126.4C236.852 125.056 237.14 123.872 237.716 122.848C238.308 121.808 239.108 121.016 240.116 120.472C241.124 119.912 242.252 119.632 243.5 119.632C244.748 119.632 245.876 119.912 246.884 120.472C247.892 121.016 248.684 121.8 249.26 122.824C249.852 123.848 250.148 125.04 250.148 126.4C250.148 127.76 249.844 128.96 249.236 130C248.644 131.024 247.836 131.816 246.812 132.376C245.788 132.936 244.652 133.216 243.404 133.216ZM243.404 131.296C244.188 131.296 244.924 131.112 245.612 130.744C246.3 130.376 246.852 129.824 247.268 129.088C247.7 128.352 247.916 127.456 247.916 126.4C247.916 125.344 247.708 124.448 247.292 123.712C246.876 122.976 246.332 122.432 245.66 122.08C244.988 121.712 244.26 121.528 243.476 121.528C242.676 121.528 241.94 121.712 241.268 122.08C240.612 122.432 240.084 122.976 239.684 123.712C239.284 124.448 239.084 125.344 239.084 126.4C239.084 127.472 239.276 128.376 239.66 129.112C240.06 129.848 240.588 130.4 241.244 130.768C241.9 131.12 242.62 131.296 243.404 131.296ZM258.602 126.376C258.602 125.032 258.874 123.856 259.418 122.848C259.962 121.824 260.706 121.032 261.65 120.472C262.61 119.912 263.682 119.632 264.866 119.632C265.89 119.632 266.842 119.872 267.722 120.352C268.602 120.816 269.274 121.432 269.738 122.2V115.24H271.946V133H269.738V130.528C269.306 131.312 268.666 131.96 267.818 132.472C266.97 132.968 265.978 133.216 264.842 133.216C263.674 133.216 262.61 132.928 261.65 132.352C260.706 131.776 259.962 130.968 259.418 129.928C258.874 128.888 258.602 127.704 258.602 126.376ZM269.738 126.4C269.738 125.408 269.538 124.544 269.138 123.808C268.738 123.072 268.194 122.512 267.506 122.128C266.834 121.728 266.09 121.528 265.274 121.528C264.458 121.528 263.714 121.72 263.042 122.104C262.37 122.488 261.834 123.048 261.434 123.784C261.034 124.52 260.834 125.384 260.834 126.376C260.834 127.384 261.034 128.264 261.434 129.016C261.834 129.752 262.37 130.32 263.042 130.72C263.714 131.104 264.458 131.296 265.274 131.296C266.09 131.296 266.834 131.104 267.506 130.72C268.194 130.32 268.738 129.752 269.138 129.016C269.538 128.264 269.738 127.392 269.738 126.4ZM287.637 125.92C287.637 126.336 287.613 126.776 287.565 127.24H277.053C277.133 128.536 277.573 129.552 278.373 130.288C279.189 131.008 280.173 131.368 281.325 131.368C282.269 131.368 283.053 131.152 283.677 130.72C284.317 130.272 284.765 129.68 285.021 128.944H287.373C287.021 130.208 286.317 131.24 285.261 132.04C284.205 132.824 282.893 133.216 281.325 133.216C280.077 133.216 278.957 132.936 277.965 132.376C276.989 131.816 276.221 131.024 275.661 130C275.101 128.96 274.821 127.76 274.821 126.4C274.821 125.04 275.093 123.848 275.637 122.824C276.181 121.8 276.941 121.016 277.917 120.472C278.909 119.912 280.045 119.632 281.325 119.632C282.573 119.632 283.677 119.904 284.637 120.448C285.597 120.992 286.333 121.744 286.845 122.704C287.373 123.648 287.637 124.72 287.637 125.92ZM285.381 125.464C285.381 124.632 285.197 123.92 284.829 123.328C284.461 122.72 283.957 122.264 283.317 121.96C282.693 121.64 281.997 121.48 281.229 121.48C280.125 121.48 279.181 121.832 278.397 122.536C277.629 123.24 277.189 124.216 277.077 125.464H285.381Z" fill="white"/>
<path d="M295.742 126.28C295.742 124.904 295.998 123.696 296.51 122.656C297.038 121.616 297.75 120.816 298.646 120.256C299.542 119.696 300.542 119.416 301.646 119.416C302.526 119.416 303.326 119.6 304.046 119.968C304.782 120.336 305.358 120.832 305.774 121.456V115.24H309.878V133H305.774V131.08C305.39 131.72 304.838 132.232 304.118 132.616C303.414 133 302.59 133.192 301.646 133.192C300.542 133.192 299.542 132.912 298.646 132.352C297.75 131.776 297.038 130.968 296.51 129.928C295.998 128.872 295.742 127.656 295.742 126.28ZM305.774 126.304C305.774 125.28 305.486 124.472 304.91 123.88C304.35 123.288 303.662 122.992 302.846 122.992C302.03 122.992 301.334 123.288 300.758 123.88C300.198 124.456 299.918 125.256 299.918 126.28C299.918 127.304 300.198 128.12 300.758 128.728C301.334 129.32 302.03 129.616 302.846 129.616C303.662 129.616 304.35 129.32 304.91 128.728C305.486 128.136 305.774 127.328 305.774 126.304ZM325.471 126.088C325.471 126.472 325.447 126.872 325.399 127.288H316.111C316.175 128.12 316.439 128.76 316.903 129.208C317.383 129.64 317.967 129.856 318.655 129.856C319.679 129.856 320.391 129.424 320.791 128.56H325.159C324.935 129.44 324.527 130.232 323.935 130.936C323.359 131.64 322.631 132.192 321.751 132.592C320.871 132.992 319.887 133.192 318.799 133.192C317.487 133.192 316.319 132.912 315.295 132.352C314.271 131.792 313.471 130.992 312.895 129.952C312.319 128.912 312.031 127.696 312.031 126.304C312.031 124.912 312.311 123.696 312.871 122.656C313.447 121.616 314.247 120.816 315.271 120.256C316.295 119.696 317.471 119.416 318.799 119.416C320.095 119.416 321.247 119.688 322.255 120.232C323.263 120.776 324.047 121.552 324.607 122.56C325.183 123.568 325.471 124.744 325.471 126.088ZM321.271 125.008C321.271 124.304 321.031 123.744 320.551 123.328C320.071 122.912 319.471 122.704 318.751 122.704C318.063 122.704 317.479 122.904 316.999 123.304C316.535 123.704 316.247 124.272 316.135 125.008H321.271ZM331.74 121.84C332.22 121.104 332.82 120.528 333.54 120.112C334.26 119.68 335.06 119.464 335.94 119.464V123.808H334.812C333.788 123.808 333.02 124.032 332.508 124.48C331.996 124.912 331.74 125.68 331.74 126.784V133H327.636V119.608H331.74V121.84ZM342.006 121.84C342.486 121.104 343.086 120.528 343.806 120.112C344.526 119.68 345.326 119.464 346.206 119.464V123.808H345.078C344.054 123.808 343.286 124.032 342.774 124.48C342.262 124.912 342.006 125.68 342.006 126.784V133H337.902V119.608H342.006V121.84ZM354.264 133.192C352.952 133.192 351.768 132.912 350.712 132.352C349.672 131.792 348.848 130.992 348.24 129.952C347.648 128.912 347.352 127.696 347.352 126.304C347.352 124.928 347.656 123.72 348.264 122.68C348.872 121.624 349.704 120.816 350.76 120.256C351.816 119.696 353 119.416 354.312 119.416C355.624 119.416 356.808 119.696 357.864 120.256C358.92 120.816 359.752 121.624 360.36 122.68C360.968 123.72 361.272 124.928 361.272 126.304C361.272 127.68 360.96 128.896 360.336 129.952C359.728 130.992 358.888 131.792 357.816 132.352C356.76 132.912 355.576 133.192 354.264 133.192ZM354.264 129.64C355.048 129.64 355.712 129.352 356.256 128.776C356.816 128.2 357.096 127.376 357.096 126.304C357.096 125.232 356.824 124.408 356.28 123.832C355.752 123.256 355.096 122.968 354.312 122.968C353.512 122.968 352.848 123.256 352.32 123.832C351.792 124.392 351.528 125.216 351.528 126.304C351.528 127.376 351.784 128.2 352.296 128.776C352.824 129.352 353.48 129.64 354.264 129.64ZM370.913 129.52V133H368.825C367.337 133 366.177 132.64 365.345 131.92C364.513 131.184 364.097 129.992 364.097 128.344V123.016H362.465V119.608H364.097V116.344H368.201V119.608H370.889V123.016H368.201V128.392C368.201 128.792 368.297 129.08 368.489 129.256C368.681 129.432 369.001 129.52 369.449 129.52H370.913ZM372.383 126.28C372.383 124.904 372.639 123.696 373.151 122.656C373.679 121.616 374.391 120.816 375.287 120.256C376.183 119.696 377.183 119.416 378.287 119.416C379.231 119.416 380.055 119.608 380.759 119.992C381.479 120.376 382.031 120.88 382.415 121.504V119.608H386.519V133H382.415V131.104C382.015 131.728 381.455 132.232 380.735 132.616C380.031 133 379.207 133.192 378.263 133.192C377.175 133.192 376.183 132.912 375.287 132.352C374.391 131.776 373.679 130.968 373.151 129.928C372.639 128.872 372.383 127.656 372.383 126.28ZM382.415 126.304C382.415 125.28 382.127 124.472 381.551 123.88C380.991 123.288 380.303 122.992 379.487 122.992C378.671 122.992 377.975 123.288 377.399 123.88C376.839 124.456 376.559 125.256 376.559 126.28C376.559 127.304 376.839 128.12 377.399 128.728C377.975 129.32 378.671 129.616 379.487 129.616C380.303 129.616 380.991 129.32 381.551 128.728C382.127 128.136 382.415 127.328 382.415 126.304Z" fill="#E81538"/>
<path d="M466.537 8.9009L467.073 10.3017L466.537 8.9009ZM472.87 7.61116C473.207 6.85462 472.868 5.96769 472.111 5.63015L459.783 0.129693C459.026 -0.207843 458.139 0.131832 457.802 0.888377C457.464 1.64492 457.804 2.53185 458.56 2.86939L469.519 7.75868L464.63 18.7175C464.292 19.474 464.632 20.3609 465.388 20.6985C466.145 21.036 467.032 20.6963 467.369 19.9398L472.87 7.61116ZM467.073 10.3017L472.036 8.40079L470.964 5.59921L466 7.50011L467.073 10.3017ZM396.133 59.983C415.34 37.8466 439.704 20.7833 467.073 10.3017L466 7.50011C438.171 18.158 413.397 35.5083 393.867 58.017L396.133 59.983Z" fill="#E81538"/>
</svg>
