<svg width="70" height="29" viewBox="0 0 70 29" fill="none" xmlns="http://www.w3.org/2000/svg">
<rect x="0.5" y="0.5" width="69" height="28" rx="4.5" stroke="#04D47C"/>
<path d="M16.016 18.112H18.944V19H14.924V10.636H16.016V18.112ZM20.6677 11.356C20.4597 11.356 20.2837 11.284 20.1397 11.14C19.9957 10.996 19.9237 10.82 19.9237 10.612C19.9237 10.404 19.9957 10.228 20.1397 10.084C20.2837 9.94 20.4597 9.868 20.6677 9.868C20.8677 9.868 21.0357 9.94 21.1717 10.084C21.3157 10.228 21.3877 10.404 21.3877 10.612C21.3877 10.82 21.3157 10.996 21.1717 11.14C21.0357 11.284 20.8677 11.356 20.6677 11.356ZM21.1957 12.424V19H20.1037V12.424H21.1957ZM30.9648 12.304C31.4768 12.304 31.9328 12.412 32.3328 12.628C32.7328 12.836 33.0488 13.152 33.2808 13.576C33.5128 14 33.6288 14.516 33.6288 15.124V19H32.5488V15.28C32.5488 14.624 32.3848 14.124 32.0568 13.78C31.7368 13.428 31.3008 13.252 30.7488 13.252C30.1808 13.252 29.7288 13.436 29.3928 13.804C29.0568 14.164 28.8888 14.688 28.8888 15.376V19H27.8088V15.28C27.8088 14.624 27.6448 14.124 27.3168 13.78C26.9968 13.428 26.5608 13.252 26.0088 13.252C25.4408 13.252 24.9888 13.436 24.6528 13.804C24.3168 14.164 24.1488 14.688 24.1488 15.376V19H23.0568V12.424H24.1488V13.372C24.3648 13.028 24.6528 12.764 25.0128 12.58C25.3808 12.396 25.7848 12.304 26.2248 12.304C26.7768 12.304 27.2648 12.428 27.6888 12.676C28.1128 12.924 28.4288 13.288 28.6368 13.768C28.8208 13.304 29.1248 12.944 29.5488 12.688C29.9728 12.432 30.4448 12.304 30.9648 12.304ZM36.5121 13.636C36.7281 13.26 37.0481 12.948 37.4721 12.7C37.9041 12.444 38.4041 12.316 38.9721 12.316C39.5561 12.316 40.0841 12.456 40.5561 12.736C41.0361 13.016 41.4121 13.412 41.6841 13.924C41.9561 14.428 42.0921 15.016 42.0921 15.688C42.0921 16.352 41.9561 16.944 41.6841 17.464C41.4121 17.984 41.0361 18.388 40.5561 18.676C40.0841 18.964 39.5561 19.108 38.9721 19.108C38.4121 19.108 37.9161 18.984 37.4841 18.736C37.0601 18.48 36.7361 18.164 36.5121 17.788V22.12H35.4201V12.424H36.5121V13.636ZM40.9761 15.688C40.9761 15.192 40.8761 14.76 40.6761 14.392C40.4761 14.024 40.2041 13.744 39.8601 13.552C39.5241 13.36 39.1521 13.264 38.7441 13.264C38.3441 13.264 37.9721 13.364 37.6281 13.564C37.2921 13.756 37.0201 14.04 36.8121 14.416C36.6121 14.784 36.5121 15.212 36.5121 15.7C36.5121 16.196 36.6121 16.632 36.8121 17.008C37.0201 17.376 37.2921 17.66 37.6281 17.86C37.9721 18.052 38.3441 18.148 38.7441 18.148C39.1521 18.148 39.5241 18.052 39.8601 17.86C40.2041 17.66 40.4761 17.376 40.6761 17.008C40.8761 16.632 40.9761 16.192 40.9761 15.688ZM43.1215 15.688C43.1215 15.016 43.2575 14.428 43.5295 13.924C43.8015 13.412 44.1735 13.016 44.6455 12.736C45.1255 12.456 45.6575 12.316 46.2415 12.316C46.8175 12.316 47.3175 12.44 47.7415 12.688C48.1655 12.936 48.4815 13.248 48.6895 13.624V12.424H49.7935V19H48.6895V17.776C48.4735 18.16 48.1495 18.48 47.7175 18.736C47.2935 18.984 46.7975 19.108 46.2295 19.108C45.6455 19.108 45.1175 18.964 44.6455 18.676C44.1735 18.388 43.8015 17.984 43.5295 17.464C43.2575 16.944 43.1215 16.352 43.1215 15.688ZM48.6895 15.7C48.6895 15.204 48.5895 14.772 48.3895 14.404C48.1895 14.036 47.9175 13.756 47.5735 13.564C47.2375 13.364 46.8655 13.264 46.4575 13.264C46.0495 13.264 45.6775 13.36 45.3415 13.552C45.0055 13.744 44.7375 14.024 44.5375 14.392C44.3375 14.76 44.2375 15.192 44.2375 15.688C44.2375 16.192 44.3375 16.632 44.5375 17.008C44.7375 17.376 45.0055 17.66 45.3415 17.86C45.6775 18.052 46.0495 18.148 46.4575 18.148C46.8655 18.148 47.2375 18.052 47.5735 17.86C47.9175 17.66 48.1895 17.376 48.3895 17.008C48.5895 16.632 48.6895 16.196 48.6895 15.7ZM52.7308 13.492C52.9228 13.116 53.1948 12.824 53.5468 12.616C53.9068 12.408 54.3428 12.304 54.8548 12.304V13.432H54.5668C53.3428 13.432 52.7308 14.096 52.7308 15.424V19H51.6388V12.424H52.7308V13.492Z" fill="#04D47C"/>
</svg>
