<svg width="130" height="130" viewBox="0 0 130 130" fill="none" xmlns="http://www.w3.org/2000/svg">
<rect x="1.5" y="1.5" width="127" height="127" rx="18.5" fill="#0F1923" stroke="#E81538" stroke-width="3"/>
<path opacity="0.5" d="M18.9091 37.9644C18.9091 34.9466 19.9596 33.634 22.2857 32.5002L34.4415 26.5305C36.2424 25.9841 37.8181 26.5306 37.8181 31.9947V81.1722C37.8181 86.6364 35.7922 86.6364 34.4415 86.6364L22.2857 80.6667C20.4848 79.5329 18.9091 78.2203 18.9091 75.2025V37.9644Z" fill="#E81538"/>
<path opacity="0.5" d="M111.091 37.9644C111.091 34.9466 109.975 33.634 107.503 32.5002L94.5876 26.5305C92.6742 25.9841 90.9999 26.5306 90.9999 31.9947V81.1722C90.9999 86.6364 93.1525 86.6364 94.5876 86.6364L107.503 80.6667C109.417 79.5329 111.091 78.2203 111.091 75.2025V37.9644Z" fill="black"/>
<g filter="url(#filter0_d_87_9738)">
<rect x="32.8283" y="24" width="64.3435" height="65" rx="5" fill="white"/>
</g>
<path d="M46.8846 67.8488C43.5985 64.4504 43.1561 59.1773 45.8292 55.2689L53.894 43.4765L64.8594 26.6736L74.1232 45.5769L77.9044 39.4667L83.198 53.9783L84.6359 57.4359C86.1699 61.1247 85.3618 65.3831 82.586 68.2377L71.9076 79.2195C68.0468 83.1899 61.7095 83.1809 57.8598 79.1995L46.8846 67.8488Z" fill="#E81538"/>
<path d="M50.9344 64.8121C48.9897 62.899 48.9488 59.756 50.843 57.7919L60.8686 47.3967C62.7629 45.4327 65.8749 45.3913 67.8196 47.3045L78.3831 57.6964C80.3278 59.6095 80.3687 62.7526 78.4744 64.7166L68.4488 75.1118C66.5546 77.0759 63.4425 77.1172 61.4979 75.2041L50.9344 64.8121Z" fill="white"/>
<path d="M67.8843 54.3602C67.8843 56.0474 66.53 57.4152 64.8594 57.4152C63.1888 57.4152 61.8345 56.0474 61.8345 54.3602C61.8345 52.6729 63.1888 51.3051 64.8594 51.3051C66.53 51.3051 67.8843 52.6729 67.8843 54.3602Z" fill="#E81538"/>
<path d="M74.6904 61.2341C74.6904 62.9213 73.3361 64.2891 71.6655 64.2891C69.9949 64.2891 68.6406 62.9213 68.6406 61.2341C68.6406 59.5468 69.9949 58.179 71.6655 58.179C73.3361 58.179 74.6904 59.5468 74.6904 61.2341Z" fill="#E81538"/>
<path d="M67.8843 68.108C67.8843 69.7952 66.53 71.163 64.8594 71.163C63.1888 71.163 61.8345 69.7952 61.8345 68.108C61.8345 66.4207 63.1888 65.0529 64.8594 65.0529C66.53 65.0529 67.8843 66.4207 67.8843 68.108Z" fill="#E81538"/>
<path d="M61.0782 61.2341C61.0782 62.9213 59.7239 64.2891 58.0533 64.2891C56.3827 64.2891 55.0284 62.9213 55.0284 61.2341C55.0284 59.5468 56.3827 58.179 58.0533 58.179C59.7239 58.179 61.0782 59.5468 61.0782 61.2341Z" fill="#E81538"/>
<path opacity="0.5" d="M29.0454 57.0909C29.0454 60.6549 28.7167 63.866 28.1925 66.1725C27.9295 67.3298 27.6233 68.232 27.3005 68.8326C27.1389 69.1333 26.9857 69.3346 26.8518 69.4552C26.7208 69.5732 26.6357 69.5909 26.5909 69.5909C26.5461 69.5909 26.461 69.5732 26.33 69.4552C26.1961 69.3346 26.0429 69.1333 25.8813 68.8326C25.5585 68.232 25.2523 67.3298 24.9893 66.1725C24.4651 63.866 24.1364 60.6549 24.1364 57.0909C24.1364 53.5269 24.4651 50.3158 24.9893 48.0093C25.2523 46.852 25.5585 45.9499 25.8813 45.3492C26.0429 45.0485 26.1961 44.8472 26.33 44.7266C26.461 44.6087 26.5461 44.5909 26.5909 44.5909C26.6357 44.5909 26.7208 44.6087 26.8518 44.7266C26.9857 44.8472 27.1389 45.0485 27.3005 45.3492C27.6233 45.9499 27.9295 46.852 28.1925 48.0093C28.7167 50.3158 29.0454 53.5269 29.0454 57.0909Z" stroke="#0F1923"/>
<path opacity="0.5" d="M105.864 57.0909C105.864 60.6549 105.535 63.866 105.011 66.1725C104.748 67.3298 104.441 68.232 104.119 68.8326C103.957 69.1333 103.804 69.3346 103.67 69.4552C103.539 69.5732 103.454 69.5909 103.409 69.5909C103.364 69.5909 103.279 69.5732 103.148 69.4552C103.014 69.3346 102.861 69.1333 102.699 68.8326C102.377 68.232 102.07 67.3298 101.807 66.1725C101.283 63.866 100.955 60.6549 100.955 57.0909C100.955 53.5269 101.283 50.3158 101.807 48.0093C102.07 46.852 102.377 45.9499 102.699 45.3492C102.861 45.0485 103.014 44.8472 103.148 44.7266C103.279 44.6087 103.364 44.5909 103.409 44.5909C103.454 44.5909 103.539 44.6087 103.67 44.7266C103.804 44.8472 103.957 45.0485 104.119 45.3492C104.441 45.9499 104.748 46.852 105.011 48.0093C105.535 50.3158 105.864 53.5269 105.864 57.0909Z" stroke="#E81538"/>
<path d="M29.7727 115H23.321V97.5455H29.7642C31.5426 97.5455 33.0739 97.8949 34.358 98.5938C35.6477 99.2869 36.642 100.287 37.3409 101.594C38.0398 102.895 38.3892 104.452 38.3892 106.264C38.3892 108.082 38.0398 109.645 37.3409 110.952C36.6477 112.259 35.6562 113.261 34.3665 113.96C33.0767 114.653 31.5455 115 29.7727 115ZM27.5398 111.403H29.6108C30.5881 111.403 31.4148 111.239 32.0909 110.909C32.7727 110.574 33.2869 110.031 33.6335 109.281C33.9858 108.526 34.1619 107.52 34.1619 106.264C34.1619 105.009 33.9858 104.009 33.6335 103.264C33.2813 102.514 32.7614 101.974 32.0739 101.645C31.392 101.31 30.5511 101.142 29.5511 101.142H27.5398V111.403ZM46.9631 115.247C45.5881 115.247 44.4063 114.966 43.4176 114.403C42.4347 113.835 41.6761 113.045 41.142 112.034C40.6136 111.017 40.3494 109.838 40.3494 108.497C40.3494 107.151 40.6136 105.972 41.142 104.96C41.6761 103.943 42.4347 103.153 43.4176 102.591C44.4063 102.023 45.5881 101.739 46.9631 101.739C48.3381 101.739 49.517 102.023 50.5 102.591C51.4886 103.153 52.2472 103.943 52.7756 104.96C53.3097 105.972 53.5767 107.151 53.5767 108.497C53.5767 109.838 53.3097 111.017 52.7756 112.034C52.2472 113.045 51.4886 113.835 50.5 114.403C49.517 114.966 48.3381 115.247 46.9631 115.247ZM46.9886 112.102C47.4886 112.102 47.9119 111.949 48.2585 111.642C48.6051 111.335 48.8693 110.909 49.0511 110.364C49.2386 109.818 49.3324 109.187 49.3324 108.472C49.3324 107.744 49.2386 107.108 49.0511 106.562C48.8693 106.017 48.6051 105.591 48.2585 105.284C47.9119 104.977 47.4886 104.824 46.9886 104.824C46.4716 104.824 46.0341 104.977 45.6761 105.284C45.3239 105.591 45.054 106.017 44.8665 106.562C44.6847 107.108 44.5938 107.744 44.5938 108.472C44.5938 109.187 44.6847 109.818 44.8665 110.364C45.054 110.909 45.3239 111.335 45.6761 111.642C46.0341 111.949 46.4716 112.102 46.9886 112.102ZM64.1577 109.349V101.909H68.3168V115H64.3452V112.562H64.2088C63.919 113.364 63.4247 114 62.7259 114.472C62.0327 114.937 61.1946 115.17 60.2116 115.17C59.3196 115.17 58.5355 114.966 57.8594 114.557C57.1832 114.148 56.6577 113.577 56.2827 112.844C55.9077 112.105 55.7173 111.241 55.7116 110.253V101.909H59.8793V109.435C59.8849 110.145 60.0724 110.705 60.4418 111.114C60.8111 111.523 61.3139 111.727 61.9503 111.727C62.3651 111.727 62.7372 111.636 63.0668 111.455C63.402 111.267 63.6662 110.997 63.8594 110.645C64.0582 110.287 64.1577 109.855 64.1577 109.349ZM70.9695 115V97.5455H75.1371V104.151H75.2223C75.3928 103.753 75.6342 103.369 75.9467 103C76.2649 102.631 76.6683 102.33 77.157 102.097C77.6513 101.858 78.2422 101.739 78.9297 101.739C79.8388 101.739 80.6882 101.977 81.478 102.455C82.2734 102.932 82.9155 103.668 83.4041 104.662C83.8928 105.656 84.1371 106.923 84.1371 108.463C84.1371 109.946 83.9013 111.188 83.4297 112.188C82.9638 113.188 82.3331 113.938 81.5376 114.438C80.7479 114.938 79.87 115.188 78.9041 115.188C78.245 115.188 77.674 115.08 77.1911 114.864C76.7081 114.648 76.3018 114.364 75.9723 114.011C75.6484 113.659 75.3984 113.281 75.2223 112.878H75.0945V115H70.9695ZM75.0518 108.455C75.0518 109.159 75.1456 109.773 75.3331 110.295C75.5263 110.818 75.8018 111.224 76.1598 111.514C76.5234 111.798 76.9581 111.94 77.4638 111.94C77.9751 111.94 78.4098 111.798 78.7678 111.514C79.1257 111.224 79.3956 110.818 79.5774 110.295C79.7649 109.773 79.8587 109.159 79.8587 108.455C79.8587 107.75 79.7649 107.139 79.5774 106.622C79.3956 106.105 79.1257 105.705 78.7678 105.42C78.4155 105.136 77.9808 104.994 77.4638 104.994C76.9524 104.994 76.5178 105.134 76.1598 105.412C75.8018 105.69 75.5263 106.088 75.3331 106.605C75.1456 107.122 75.0518 107.739 75.0518 108.455ZM90.4886 97.5455V115H86.321V97.5455H90.4886ZM99.2607 115.247C97.8913 115.247 96.7095 114.977 95.7152 114.438C94.7266 113.892 93.9652 113.116 93.4311 112.111C92.9027 111.099 92.6385 109.898 92.6385 108.506C92.6385 107.153 92.9055 105.972 93.4396 104.96C93.9737 103.943 94.7266 103.153 95.6982 102.591C96.6697 102.023 97.8146 101.739 99.1328 101.739C100.065 101.739 100.917 101.884 101.69 102.173C102.462 102.463 103.13 102.892 103.692 103.46C104.255 104.028 104.692 104.73 105.005 105.565C105.317 106.395 105.474 107.347 105.474 108.42V109.46H94.0959V107.04H101.596C101.59 106.597 101.485 106.202 101.281 105.855C101.076 105.509 100.795 105.239 100.437 105.045C100.085 104.847 99.6783 104.747 99.218 104.747C98.7521 104.747 98.3345 104.852 97.9652 105.062C97.5959 105.267 97.3033 105.548 97.0874 105.906C96.8714 106.259 96.7578 106.659 96.7464 107.108V109.571C96.7464 110.105 96.8516 110.574 97.0618 110.977C97.272 111.375 97.5703 111.685 97.9567 111.906C98.343 112.128 98.8033 112.239 99.3374 112.239C99.7067 112.239 100.042 112.187 100.343 112.085C100.644 111.983 100.903 111.832 101.119 111.634C101.335 111.435 101.496 111.19 101.604 110.901L105.431 111.011C105.272 111.869 104.923 112.616 104.383 113.253C103.849 113.884 103.147 114.375 102.278 114.727C101.408 115.074 100.403 115.247 99.2607 115.247Z" fill="white"/>
<defs>
<filter id="filter0_d_87_9738" x="26.8283" y="22" width="76.3434" height="77" filterUnits="userSpaceOnUse" color-interpolation-filters="sRGB">
<feFlood flood-opacity="0" result="BackgroundImageFix"/>
<feColorMatrix in="SourceAlpha" type="matrix" values="0 0 0 0 0 0 0 0 0 0 0 0 0 0 0 0 0 0 127 0" result="hardAlpha"/>
<feOffset dy="4"/>
<feGaussianBlur stdDeviation="3"/>
<feComposite in2="hardAlpha" operator="out"/>
<feColorMatrix type="matrix" values="0 0 0 0 0 0 0 0 0 0 0 0 0 0 0 0 0 0 0.5 0"/>
<feBlend mode="normal" in2="BackgroundImageFix" result="effect1_dropShadow_87_9738"/>
<feBlend mode="normal" in="SourceGraphic" in2="effect1_dropShadow_87_9738" result="shape"/>
</filter>
</defs>
</svg>
