<svg width="120" height="119" viewBox="0 0 120 119" fill="none" xmlns="http://www.w3.org/2000/svg">
<rect x="1.5" y="1.5" width="117" height="115.947" rx="18.5" fill="#0F1923" stroke="#E81538" stroke-width="3"/>
<path d="M41.0796 54.7701C37.743 51.3842 37.2938 46.1306 40.0079 42.2365L48.1969 30.4877L59.3309 13.7468L68.7373 32.5803L72.5766 26.4927L77.9517 40.9507L79.4116 44.3955C80.9693 48.0708 80.1488 52.3135 77.3303 55.1576L66.4875 66.0988C62.5674 70.0546 56.1326 70.0456 52.2237 66.0789L41.0796 54.7701Z" fill="#E81538"/>
<path d="M45.1917 51.7446C43.2171 49.8386 43.1756 46.7071 45.0989 44.7503L55.2788 34.3935C57.2021 32.4366 60.3621 32.3955 62.3367 34.3015L73.0627 44.6552C75.0373 46.5612 75.0788 49.6927 73.1554 51.6495L62.9756 62.0063C61.0522 63.9631 57.8923 64.0043 55.9177 62.0983L45.1917 51.7446Z" fill="#0F1923"/>
<path d="M62.4024 41.3312C62.4024 43.0123 61.0272 44.375 59.3309 44.375C57.6346 44.375 56.2595 43.0123 56.2595 41.3312C56.2595 39.6502 57.6346 38.2874 59.3309 38.2874C61.0272 38.2874 62.4024 39.6502 62.4024 41.3312Z" fill="#E81538"/>
<path d="M69.3132 48.1798C69.3132 49.8608 67.938 51.2235 66.2417 51.2235C64.5454 51.2235 63.1702 49.8608 63.1702 48.1798C63.1702 46.4987 64.5454 45.136 66.2417 45.136C67.938 45.136 69.3132 46.4987 69.3132 48.1798Z" fill="#E81538"/>
<path d="M62.4024 55.0283C62.4024 56.7093 61.0272 58.0721 59.3309 58.0721C57.6346 58.0721 56.2595 56.7093 56.2595 55.0283C56.2595 53.3473 57.6346 51.9845 59.3309 51.9845C61.0272 51.9845 62.4024 53.3473 62.4024 55.0283Z" fill="#E81538"/>
<path d="M55.4916 48.1798C55.4916 49.8608 54.1164 51.2235 52.4201 51.2235C50.7238 51.2235 49.3487 49.8608 49.3487 48.1798C49.3487 46.4987 50.7238 45.136 52.4201 45.136C54.1164 45.136 55.4916 46.4987 55.4916 48.1798Z" fill="#E81538"/>
<path d="M35.0595 85.6167H30.7982C30.7413 85.1792 30.6249 84.7843 30.4487 84.432C30.2726 84.0798 30.0396 83.7786 29.7499 83.5286C29.4601 83.2786 29.1163 83.0883 28.7186 82.9576C28.3266 82.8212 27.8919 82.7531 27.4146 82.7531C26.568 82.7531 25.8379 82.9604 25.2243 83.3752C24.6163 83.79 24.1476 84.3894 23.818 85.1735C23.4942 85.9576 23.3322 86.9065 23.3322 88.0201C23.3322 89.1792 23.497 90.1508 23.8266 90.9349C24.1618 91.7133 24.6305 92.3014 25.2328 92.6991C25.8408 93.0911 26.5595 93.2871 27.3891 93.2871C27.855 93.2871 28.2783 93.2275 28.6589 93.1082C29.0453 92.9889 29.3834 92.8156 29.6732 92.5883C29.9686 92.3553 30.2101 92.0741 30.3976 91.7445C30.5908 91.4093 30.7243 91.0315 30.7982 90.611L35.0595 90.6366C34.9857 91.4093 34.7612 92.1707 34.3862 92.9207C34.0169 93.6707 33.5084 94.3553 32.8607 94.9746C32.2129 95.5883 31.4232 96.0769 30.4913 96.4406C29.5652 96.8042 28.5027 96.986 27.3038 96.986C25.7243 96.986 24.3095 96.6394 23.0595 95.9462C21.8152 95.2474 20.8322 94.2303 20.1107 92.8951C19.3891 91.5599 19.0283 89.9349 19.0283 88.0201C19.0283 86.0996 19.3947 84.4718 20.1277 83.1366C20.8607 81.8014 21.8521 80.7871 23.1021 80.094C24.3521 79.4008 25.7527 79.0542 27.3038 79.0542C28.3607 79.0542 29.3379 79.2019 30.2357 79.4974C31.1334 79.7871 31.9232 80.2133 32.605 80.7758C33.2868 81.3326 33.8408 82.0173 34.2669 82.8298C34.693 83.6423 34.9572 84.5712 35.0595 85.6167ZM37.4736 96.7474V83.6565H41.5219V86.0428H41.6582C41.8969 85.1792 42.2861 84.5371 42.8259 84.1167C43.3656 83.6906 43.9935 83.4775 44.7094 83.4775C44.9026 83.4775 45.1014 83.4917 45.306 83.5201C45.5105 83.5428 45.7009 83.5798 45.877 83.6309V87.2531C45.6781 87.1849 45.4168 87.1309 45.0929 87.0911C44.7747 87.0514 44.4906 87.0315 44.2406 87.0315C43.7463 87.0315 43.3003 87.1423 42.9026 87.3639C42.5105 87.5798 42.2009 87.8837 41.9736 88.2758C41.752 88.6621 41.6412 89.1167 41.6412 89.6394V96.7474H37.4736ZM50.7733 96.969C49.9381 96.969 49.1966 96.8298 48.5489 96.5514C47.9068 96.2673 47.3983 95.8411 47.0233 95.2729C46.654 94.6991 46.4693 93.9803 46.4693 93.1167C46.4693 92.3894 46.5972 91.7758 46.8528 91.2758C47.1085 90.7758 47.4608 90.3695 47.9097 90.057C48.3585 89.7445 48.8756 89.5087 49.4608 89.3496C50.046 89.1849 50.671 89.0741 51.3358 89.0173C52.0801 88.9491 52.6795 88.8781 53.1341 88.8042C53.5886 88.7246 53.9182 88.6139 54.1227 88.4718C54.333 88.3241 54.4381 88.1167 54.4381 87.8496V87.807C54.4381 87.3695 54.2875 87.0315 53.9864 86.7928C53.6852 86.5542 53.279 86.4349 52.7676 86.4349C52.2165 86.4349 51.7733 86.5542 51.4381 86.7928C51.1028 87.0315 50.8898 87.361 50.7989 87.7815L46.9551 87.6451C47.0688 86.8496 47.3614 86.1394 47.833 85.5144C48.3102 84.8837 48.9636 84.3894 49.7932 84.0315C50.6284 83.6678 51.6313 83.486 52.8017 83.486C53.6369 83.486 54.4068 83.5854 55.1114 83.7843C55.8159 83.9775 56.4295 84.2616 56.9523 84.6366C57.475 85.0059 57.8784 85.4604 58.1625 86.0002C58.4523 86.54 58.5972 87.1565 58.5972 87.8496V96.7474H54.6767V94.9235H54.5744C54.3415 95.3667 54.0432 95.7417 53.6795 96.0485C53.3216 96.3553 52.8983 96.5854 52.4097 96.7389C51.9267 96.8923 51.3813 96.969 50.7733 96.969ZM52.0602 94.2417C52.5091 94.2417 52.9125 94.1508 53.2705 93.969C53.6341 93.7871 53.9239 93.5371 54.1398 93.219C54.3557 92.8951 54.4636 92.5201 54.4636 92.094V90.8496C54.3443 90.9121 54.1994 90.969 54.029 91.0201C53.8642 91.0712 53.6824 91.1195 53.4835 91.165C53.2847 91.2104 53.0801 91.2502 52.8699 91.2843C52.6597 91.3184 52.458 91.3496 52.2648 91.3781C51.8727 91.4406 51.5375 91.5371 51.2591 91.6678C50.9864 91.7985 50.7761 91.969 50.6284 92.1792C50.4864 92.3837 50.4153 92.6281 50.4153 92.9121C50.4153 93.344 50.5688 93.6735 50.8756 93.9008C51.1881 94.1281 51.583 94.2417 52.0602 94.2417ZM72.5744 87.6536L68.7477 87.7559C68.708 87.4832 68.6 87.2417 68.4239 87.0315C68.2477 86.8156 68.0176 86.6479 67.7335 86.5286C67.4551 86.4036 67.1313 86.3411 66.7619 86.3411C66.279 86.3411 65.867 86.4377 65.5261 86.6309C65.1909 86.8241 65.0261 87.0854 65.0318 87.415C65.0261 87.6707 65.1284 87.8923 65.3386 88.0798C65.5545 88.2673 65.9381 88.4178 66.4892 88.5315L69.0119 89.0087C70.3188 89.2587 71.2903 89.6735 71.9267 90.2531C72.5688 90.8326 72.8926 91.5996 72.8983 92.5542C72.8926 93.4519 72.6256 94.2332 72.0972 94.8979C71.5744 95.5627 70.8585 96.0798 69.9494 96.4491C69.0403 96.8127 68.0006 96.9945 66.8301 96.9945C64.9608 96.9945 63.4864 96.611 62.4068 95.844C61.333 95.0712 60.7193 94.0371 60.5659 92.7417L64.6824 92.6394C64.7733 93.1167 65.0091 93.4803 65.3898 93.7303C65.7705 93.9803 66.2563 94.1053 66.8472 94.1053C67.3813 94.1053 67.8159 94.0059 68.1511 93.807C68.4864 93.6082 68.6568 93.344 68.6625 93.0144C68.6568 92.719 68.5261 92.4832 68.2705 92.307C68.0148 92.1252 67.6142 91.9832 67.0688 91.8809L64.7847 91.4462C63.4722 91.2076 62.4949 90.7673 61.8528 90.1252C61.2108 89.4775 60.8926 88.6536 60.8983 87.6536C60.8926 86.7786 61.1256 86.0315 61.5972 85.4121C62.0688 84.7871 62.7392 84.3099 63.6085 83.9803C64.4778 83.6508 65.5034 83.486 66.6852 83.486C68.458 83.486 69.8557 83.8582 70.8784 84.6025C71.9011 85.3411 72.4665 86.3582 72.5744 87.6536ZM79.1178 89.2815V96.7474H74.9501V79.2928H78.9814V86.0599H79.1263C79.4217 85.2531 79.9047 84.6224 80.5751 84.1678C81.2513 83.7133 82.078 83.486 83.0553 83.486C83.9757 83.486 84.7768 83.6906 85.4587 84.0996C86.1405 84.5031 86.6689 85.0741 87.0439 85.8127C87.4246 86.5514 87.6121 87.415 87.6064 88.4036V96.7474H83.4388V89.2218C83.4445 88.4945 83.2626 87.9264 82.8933 87.5173C82.524 87.1082 82.0041 86.9036 81.3337 86.9036C80.8962 86.9036 80.5098 87.0002 80.1746 87.1934C79.845 87.3809 79.5865 87.6508 79.399 88.0031C79.2172 88.3553 79.1234 88.7815 79.1178 89.2815Z" fill="white"/>
</svg>
