<svg width="111" height="111" viewBox="0 0 111 111" fill="none" xmlns="http://www.w3.org/2000/svg">
<rect x="1.292" y="1.292" width="108.416" height="108.416" rx="15.9347" fill="#0F1923" stroke="#E81538" stroke-width="2.584"/>
<path d="M38.4855 51.1106C35.3991 47.9509 34.9836 43.0483 37.4942 39.4145L45.0689 28.4506L55.3679 12.8283L64.0688 30.4034L67.6202 24.7225L72.5921 38.2146L73.9426 41.4292C75.3834 44.8589 74.6244 48.8181 72.0173 51.4722L61.9878 61.6824C58.3617 65.3739 52.4095 65.3655 48.7937 61.6639L38.4855 51.1106Z" fill="#E81538"/>
<path d="M42.2892 48.2872C40.4627 46.5085 40.4243 43.5863 42.2034 41.7602L51.6197 32.0953C53.3989 30.2693 56.3218 30.2309 58.1483 32.0096L68.0698 41.6714C69.8964 43.4501 69.9348 46.3724 68.1556 48.1984L58.7393 57.8633C56.9602 59.6893 54.0372 59.7278 52.2107 57.9491L42.2892 48.2872Z" fill="#0F1923"/>
<path d="M58.2091 38.5696C58.2091 40.1383 56.9371 41.41 55.368 41.41C53.7989 41.41 52.5269 40.1383 52.5269 38.5696C52.5269 37.0009 53.7989 35.7292 55.368 35.7292C56.9371 35.7292 58.2091 37.0009 58.2091 38.5696Z" fill="#E81538"/>
<path d="M64.6015 44.9605C64.6015 46.5292 63.3295 47.8009 61.7604 47.8009C60.1913 47.8009 58.9193 46.5292 58.9193 44.9605C58.9193 43.3918 60.1913 42.1201 61.7604 42.1201C63.3295 42.1201 64.6015 43.3918 64.6015 44.9605Z" fill="#E81538"/>
<path d="M58.2091 51.3515C58.2091 52.9202 56.9371 54.1919 55.368 54.1919C53.7989 54.1919 52.5269 52.9202 52.5269 51.3515C52.5269 49.7828 53.7989 48.5111 55.368 48.5111C56.9371 48.5111 58.2091 49.7828 58.2091 51.3515Z" fill="#E81538"/>
<path d="M51.8165 44.9605C51.8165 46.5292 50.5445 47.8009 48.9754 47.8009C47.4063 47.8009 46.1343 46.5292 46.1343 44.9605C46.1343 43.3918 47.4063 42.1201 48.9754 42.1201C50.5445 42.1201 51.8165 43.3918 51.8165 44.9605Z" fill="#E81538"/>
<path d="M38.879 79.8962H34.9372C34.8846 79.488 34.7769 79.1195 34.614 78.7907C34.451 78.462 34.2356 78.181 33.9675 77.9477C33.6995 77.7144 33.3815 77.5368 33.0136 77.4148C32.651 77.2876 32.2489 77.2239 31.8074 77.2239C31.0243 77.2239 30.349 77.4175 29.7814 77.8045C29.219 78.1916 28.7854 78.751 28.4806 79.4827C28.181 80.2144 28.0312 81.0998 28.0312 82.1391C28.0312 83.2207 28.1836 84.1274 28.4885 84.8591C28.7986 85.5855 29.2322 86.1343 29.7893 86.5054C30.3516 86.8713 31.0165 87.0542 31.7838 87.0542C32.2148 87.0542 32.6063 86.9985 32.9584 86.8872C33.3158 86.7758 33.6285 86.6141 33.8966 86.402C34.1699 86.1846 34.3932 85.9222 34.5667 85.6147C34.7454 85.3018 34.8689 84.9492 34.9372 84.5569L38.879 84.5807C38.8106 85.3018 38.603 86.0123 38.2562 86.7122C37.9145 87.4121 37.4442 88.051 36.845 88.629C36.2459 89.2016 35.5153 89.6576 34.6534 89.9969C33.7967 90.3363 32.8139 90.5059 31.7049 90.5059C30.2439 90.5059 28.9352 90.1825 27.779 89.5356C26.628 88.8835 25.7187 87.9344 25.0513 86.6884C24.3838 85.4423 24.05 83.9259 24.05 82.1391C24.05 80.3469 24.389 78.8279 25.067 77.5818C25.745 76.3358 26.6621 75.3894 27.8184 74.7425C28.9746 74.0957 30.2701 73.7722 31.7049 73.7722C32.6825 73.7722 33.5865 73.9101 34.4169 74.1858C35.2473 74.4562 35.9778 74.8539 36.6085 75.3788C37.2392 75.8984 37.7516 76.5373 38.1458 77.2955C38.54 78.0537 38.7844 78.9206 38.879 79.8962Z" fill="white"/>
<path d="M41.112 90.2832V78.067H44.8566V80.2939H44.9828C45.2035 79.488 45.5635 78.8888 46.0628 78.4965C46.5621 78.0988 47.1429 77.9 47.8051 77.9C47.9838 77.9 48.1677 77.9132 48.3569 77.9397C48.5461 77.9609 48.7222 77.9954 48.8851 78.0431V81.4233C48.7012 81.3597 48.4594 81.3093 48.1598 81.2722C47.8655 81.2351 47.6027 81.2165 47.3715 81.2165C46.9142 81.2165 46.5017 81.3199 46.1338 81.5267C45.7711 81.7282 45.4847 82.0118 45.2745 82.3777C45.0695 82.7382 44.967 83.1624 44.967 83.6502V90.2832H41.112Z" fill="white"/>
<path d="M53.4142 90.49C52.6416 90.49 51.9557 90.3601 51.3566 90.1003C50.7627 89.8352 50.2923 89.4375 49.9454 88.9073C49.6038 88.3718 49.433 87.7011 49.433 86.8951C49.433 86.2165 49.5513 85.6438 49.7878 85.1772C50.0243 84.7106 50.3501 84.3315 50.7653 84.0399C51.1805 83.7483 51.6588 83.5282 52.2001 83.3798C52.7415 83.226 53.3196 83.1226 53.9345 83.0696C54.623 83.006 55.1775 82.9397 55.5979 82.8708C56.0184 82.7965 56.3232 82.6932 56.5124 82.5606C56.7069 82.4227 56.8041 82.2292 56.8041 81.98V81.9402C56.8041 81.532 56.6648 81.2165 56.3863 80.9938C56.1077 80.7711 55.732 80.6598 55.2589 80.6598C54.7491 80.6598 54.3392 80.7711 54.0291 80.9938C53.719 81.2165 53.5219 81.524 53.4379 81.9164L49.8824 81.7891C49.9875 81.0468 50.2582 80.3841 50.6944 79.8008C51.1359 79.2123 51.7403 78.751 52.5076 78.4169C53.2802 78.0776 54.2078 77.9079 55.2905 77.9079C56.0631 77.9079 56.7752 78.0007 57.4269 78.1863C58.0786 78.3666 58.6462 78.6317 59.1298 78.9816C59.6133 79.3263 59.9864 79.7504 60.2492 80.2541C60.5173 80.7579 60.6513 81.3331 60.6513 81.98V90.2832H57.0249V88.5812H56.9303C56.7148 88.9948 56.4388 89.3448 56.1025 89.6311C55.7714 89.9174 55.3798 90.1321 54.9278 90.2753C54.4811 90.4184 53.9766 90.49 53.4142 90.49ZM54.6046 87.945C55.0198 87.945 55.393 87.8601 55.7241 87.6905C56.0604 87.5208 56.3285 87.2875 56.5282 86.9906C56.7279 86.6884 56.8278 86.3384 56.8278 85.9407V84.7796C56.7174 84.8379 56.5834 84.8909 56.4257 84.9386C56.2733 84.9864 56.1051 85.0314 55.9212 85.0738C55.7372 85.1163 55.548 85.1534 55.3535 85.1852C55.1591 85.217 54.9725 85.2462 54.7938 85.2727C54.4312 85.331 54.1211 85.4211 53.8636 85.5431C53.6113 85.665 53.4168 85.8241 53.2802 86.0203C53.1488 86.2112 53.0831 86.4392 53.0831 86.7043C53.0831 87.1072 53.225 87.4148 53.5088 87.6268C53.7979 87.8389 54.1631 87.945 54.6046 87.945Z" fill="white"/>
<path d="M73.5802 81.7971L70.0405 81.8925C70.0038 81.638 69.9039 81.4127 69.741 81.2165C69.578 81.015 69.3652 80.8586 69.1024 80.7473C68.8449 80.6306 68.5453 80.5723 68.2037 80.5723C67.757 80.5723 67.3759 80.6624 67.0606 80.8427C66.7505 81.023 66.5981 81.2669 66.6033 81.5744C66.5981 81.813 66.6927 82.0198 66.8871 82.1947C67.0869 82.3697 67.4416 82.5102 67.9514 82.6163L70.2849 83.0617C71.4937 83.295 72.3925 83.682 72.9811 84.2228C73.575 84.7637 73.8746 85.4795 73.8798 86.3702C73.8746 87.208 73.6276 87.937 73.1388 88.5574C72.6553 89.1777 71.993 89.6602 71.1521 90.0049C70.3112 90.3442 69.3494 90.5139 68.2668 90.5139C66.5376 90.5139 65.1738 90.156 64.1752 89.4402C63.1819 88.7191 62.6143 87.7541 62.4724 86.5452L66.2801 86.4498C66.3642 86.8951 66.5823 87.2345 66.9344 87.4678C67.2866 87.7011 67.7359 87.8177 68.2825 87.8177C68.7766 87.8177 69.1786 87.7249 69.4887 87.5394C69.7988 87.3538 69.9565 87.1072 69.9617 86.7997C69.9565 86.524 69.8356 86.3039 69.5991 86.1396C69.3626 85.9699 68.992 85.8374 68.4875 85.7419L66.3747 85.3363C65.1606 85.1136 64.2567 84.7027 63.6628 84.1035C63.0689 83.4991 62.7746 82.7303 62.7798 81.7971C62.7746 80.9805 62.9901 80.2833 63.4263 79.7054C63.8625 79.1221 64.4827 78.6767 65.2868 78.3692C66.0909 78.0617 67.0396 77.9079 68.1327 77.9079C69.7725 77.9079 71.0654 78.2552 72.0114 78.9498C72.9575 79.6391 73.4804 80.5882 73.5802 81.7971Z" fill="white"/>
<path d="M79.6328 83.3162V90.2832H75.7778V73.9949H79.5067V80.3098H79.6407C79.914 79.5569 80.3607 78.9684 80.9809 78.5442C81.6063 78.12 82.371 77.9079 83.275 77.9079C84.1264 77.9079 84.8675 78.0988 85.4982 78.4806C86.1288 78.857 86.6176 79.3899 86.9645 80.0792C87.3166 80.7685 87.4901 81.5744 87.4848 82.497V90.2832H83.6298V83.2605C83.635 82.5818 83.4668 82.0516 83.1252 81.6698C82.7836 81.2881 82.3027 81.0972 81.6825 81.0972C81.2779 81.0972 80.9205 81.1873 80.6104 81.3676C80.3056 81.5426 80.0664 81.7944 79.893 82.1232C79.7248 82.4519 79.6381 82.8496 79.6328 83.3162Z" fill="white"/>
</svg>
