<svg width="91" height="90" viewBox="0 0 91 90" fill="none" xmlns="http://www.w3.org/2000/svg">
<path d="M17.4602 61.7473C12.4405 56.6534 11.7648 48.7497 15.848 42.8915L28.1676 25.2162L44.918 0.0308239L59.0691 28.3644L64.8451 19.2061L72.9315 40.9571L75.1279 46.1396C77.4713 51.6687 76.2368 58.0515 71.9966 62.3302L55.6845 78.7905C49.787 84.7416 40.1063 84.7281 34.2257 78.7606L17.4602 61.7473Z" fill="#1A242D"/>
<path d="M23.6466 57.1957C20.6759 54.3282 20.6134 49.6171 23.507 46.6732L38.8218 31.0922C41.7154 28.1483 46.4693 28.0864 49.4399 30.9539L65.5764 46.5301C68.547 49.3976 68.6095 54.1087 65.7159 57.0526L50.4011 72.6336C47.5076 75.5775 42.7537 75.6394 39.783 72.7719L23.6466 57.1957Z" fill="#0F1923"/>
<path d="M49.5388 41.5295C49.5388 44.0585 47.47 46.1086 44.918 46.1086C42.366 46.1086 40.2972 44.0585 40.2972 41.5295C40.2972 39.0005 42.366 36.9503 44.918 36.9503C47.47 36.9503 49.5388 39.0005 49.5388 41.5295Z" fill="#1A242D"/>
<path d="M59.9355 51.8326C59.9355 54.3616 57.8667 56.4118 55.3147 56.4118C52.7628 56.4118 50.694 54.3616 50.694 51.8326C50.694 49.3036 52.7628 47.2534 55.3147 47.2534C57.8667 47.2534 59.9355 49.3036 59.9355 51.8326Z" fill="#1A242D"/>
<path d="M49.5388 62.1357C49.5388 64.6647 47.47 66.7149 44.918 66.7149C42.366 66.7149 40.2972 64.6647 40.2972 62.1357C40.2972 59.6067 42.366 57.5565 44.918 57.5565C47.47 57.5565 49.5388 59.6067 49.5388 62.1357Z" fill="#1A242D"/>
<path d="M39.142 51.8326C39.142 54.3616 37.0732 56.4118 34.5212 56.4118C31.9692 56.4118 29.9004 54.3616 29.9004 51.8326C29.9004 49.3036 31.9692 47.2534 34.5212 47.2534C37.0732 47.2534 39.142 49.3036 39.142 51.8326Z" fill="#1A242D"/>
</svg>
