<svg width="99" height="134" viewBox="0 0 99 134" fill="none" xmlns="http://www.w3.org/2000/svg">
<rect x="48.8379" y="52.2468" width="33.1379" height="32.9646" transform="rotate(44.1717 48.8379 52.2468)" fill="#1A242D"/>
<path fill-rule="evenodd" clip-rule="evenodd" d="M25.8225 68.0545C22.4767 72.9825 23.0304 79.6311 27.1437 83.9161L40.8816 98.2277C45.7003 103.248 53.6329 103.259 58.4655 98.2528L71.832 84.4064C75.3065 80.8071 76.318 75.4379 74.3978 70.7868L72.598 66.4273L65.9719 48.1303L61.2389 55.8343L49.6431 32.0001L35.9175 53.1861L25.8225 68.0545ZM32.0985 71.2357C29.7275 73.7121 29.7786 77.675 32.2129 80.0872L45.4354 93.1899C47.8696 95.6021 51.7651 95.55 54.1361 93.0736L66.6854 79.9668C69.0564 77.4904 69.0053 73.5274 66.571 71.1153L53.3485 58.0125C50.9143 55.6004 47.0188 55.6525 44.6478 58.1289L32.0985 71.2357ZM53.4296 66.9087C53.4296 69.0361 51.7343 70.7607 49.6432 70.7607C47.552 70.7607 45.8568 69.0361 45.8568 66.9087C45.8568 64.7813 47.552 63.0567 49.6432 63.0567C51.7343 63.0567 53.4296 64.7813 53.4296 66.9087ZM58.1626 79.4277C60.2538 79.4277 61.949 77.7031 61.949 75.5757C61.949 73.4483 60.2538 71.7237 58.1626 71.7237C56.0715 71.7237 54.3763 73.4483 54.3763 75.5757C54.3763 77.7031 56.0715 79.4277 58.1626 79.4277ZM53.4296 84.2428C53.4296 86.3702 51.7343 88.0948 49.6432 88.0948C47.552 88.0948 45.8568 86.3702 45.8568 84.2428C45.8568 82.1154 47.552 80.3908 49.6432 80.3908C51.7343 80.3908 53.4296 82.1154 53.4296 84.2428ZM41.1241 79.4277C43.2152 79.4277 44.9104 77.7031 44.9104 75.5757C44.9104 73.4483 43.2152 71.7237 41.1241 71.7237C39.0329 71.7237 37.3377 73.4483 37.3377 75.5757C37.3377 77.7031 39.0329 79.4277 41.1241 79.4277Z" fill="#E81538"/>
</svg>
