<svg width="30" height="30" viewBox="0 0 30 30" fill="none" xmlns="http://www.w3.org/2000/svg">
<rect opacity="0.5" x="0.5" y="0.5" width="29" height="29" rx="4.5" stroke="white"/>
<path d="M10 10.581V10H11.316V15.061H10.672V10.581H10Z" fill="white" fill-opacity="0.5"/>
<path d="M17 18.641C17.5927 18.165 18.057 17.7753 18.393 17.472C18.729 17.164 19.0113 16.8443 19.24 16.513C19.4733 16.177 19.59 15.848 19.59 15.526C19.59 15.2227 19.5153 14.9847 19.366 14.812C19.2213 14.6347 18.9857 14.546 18.659 14.546C18.3417 14.546 18.0943 14.6463 17.917 14.847C17.7443 15.043 17.651 15.3067 17.637 15.638H17.021C17.0397 15.1153 17.1983 14.7117 17.497 14.427C17.7957 14.1423 18.1807 14 18.652 14C19.1327 14 19.513 14.133 19.793 14.399C20.0777 14.665 20.22 15.0313 20.22 15.498C20.22 15.8853 20.1033 16.2633 19.87 16.632C19.6413 16.996 19.38 17.318 19.086 17.598C18.792 17.8733 18.4163 18.1953 17.959 18.564H20.367V19.096H17V18.641Z" fill="white" fill-opacity="0.5"/>
<path d="M16.64 9L13.9 20.12H13L15.73 9H16.64Z" fill="white" fill-opacity="0.5"/>
</svg>
