<svg width="170" height="429" viewBox="0 0 170 429" fill="none" xmlns="http://www.w3.org/2000/svg">
<path d="M27.868 25.14H24.22L23.548 27H22.396L25.42 18.684H26.68L29.692 27H28.54L27.868 25.14ZM27.556 24.252L26.044 20.028L24.532 24.252H27.556ZM30.6019 23.688C30.6019 23.016 30.7379 22.428 31.0099 21.924C31.2819 21.412 31.6539 21.016 32.1259 20.736C32.6059 20.456 33.1419 20.316 33.7339 20.316C34.3019 20.316 34.7979 20.444 35.2219 20.7C35.6539 20.948 35.9699 21.256 36.1699 21.624V20.424H37.2739V30.12H36.1699V25.788C35.9619 26.156 35.6419 26.468 35.2099 26.724C34.7779 26.98 34.2739 27.108 33.6979 27.108C33.1219 27.108 32.5979 26.964 32.1259 26.676C31.6539 26.388 31.2819 25.984 31.0099 25.464C30.7379 24.944 30.6019 24.352 30.6019 23.688ZM36.1699 23.7C36.1699 23.204 36.0699 22.772 35.8699 22.404C35.6699 22.036 35.3979 21.756 35.0539 21.564C34.7179 21.364 34.3459 21.264 33.9379 21.264C33.5299 21.264 33.1579 21.36 32.8219 21.552C32.4859 21.744 32.2179 22.024 32.0179 22.392C31.8179 22.76 31.7179 23.192 31.7179 23.688C31.7179 24.192 31.8179 24.632 32.0179 25.008C32.2179 25.376 32.4859 25.66 32.8219 25.86C33.1579 26.052 33.5299 26.148 33.9379 26.148C34.3459 26.148 34.7179 26.052 35.0539 25.86C35.3979 25.66 35.6699 25.376 35.8699 25.008C36.0699 24.632 36.1699 24.196 36.1699 23.7ZM44.9513 20.424V27H43.8593V26.028C43.6513 26.364 43.3593 26.628 42.9833 26.82C42.6153 27.004 42.2073 27.096 41.7593 27.096C41.2473 27.096 40.7873 26.992 40.3793 26.784C39.9713 26.568 39.6473 26.248 39.4073 25.824C39.1753 25.4 39.0593 24.884 39.0593 24.276V20.424H40.1393V24.132C40.1393 24.78 40.3033 25.28 40.6313 25.632C40.9593 25.976 41.4073 26.148 41.9753 26.148C42.5593 26.148 43.0193 25.968 43.3553 25.608C43.6913 25.248 43.8593 24.724 43.8593 24.036V20.424H44.9513ZM47.3591 19.356C47.1511 19.356 46.9751 19.284 46.8311 19.14C46.6871 18.996 46.6151 18.82 46.6151 18.612C46.6151 18.404 46.6871 18.228 46.8311 18.084C46.9751 17.94 47.1511 17.868 47.3591 17.868C47.5591 17.868 47.7271 17.94 47.8631 18.084C48.0071 18.228 48.0791 18.404 48.0791 18.612C48.0791 18.82 48.0071 18.996 47.8631 19.14C47.7271 19.284 47.5591 19.356 47.3591 19.356ZM47.8871 20.424V27H46.7951V20.424H47.8871ZM55.2754 27.108C54.7714 27.108 54.3194 27.024 53.9194 26.856C53.5194 26.68 53.2034 26.44 52.9714 26.136C52.7394 25.824 52.6114 25.468 52.5874 25.068H53.7154C53.7474 25.396 53.8994 25.664 54.1714 25.872C54.4514 26.08 54.8154 26.184 55.2634 26.184C55.6794 26.184 56.0074 26.092 56.2474 25.908C56.4874 25.724 56.6074 25.492 56.6074 25.212C56.6074 24.924 56.4794 24.712 56.2234 24.576C55.9674 24.432 55.5714 24.292 55.0354 24.156C54.5474 24.028 54.1474 23.9 53.8354 23.772C53.5314 23.636 53.2674 23.44 53.0434 23.184C52.8274 22.92 52.7194 22.576 52.7194 22.152C52.7194 21.816 52.8194 21.508 53.0194 21.228C53.2194 20.948 53.5034 20.728 53.8714 20.568C54.2394 20.4 54.6594 20.316 55.1314 20.316C55.8594 20.316 56.4474 20.5 56.8954 20.868C57.3434 21.236 57.5834 21.74 57.6154 22.38H56.5234C56.4994 22.036 56.3594 21.76 56.1034 21.552C55.8554 21.344 55.5194 21.24 55.0954 21.24C54.7034 21.24 54.3914 21.324 54.1594 21.492C53.9274 21.66 53.8114 21.88 53.8114 22.152C53.8114 22.368 53.8794 22.548 54.0154 22.692C54.1594 22.828 54.3354 22.94 54.5434 23.028C54.7594 23.108 55.0554 23.2 55.4314 23.304C55.9034 23.432 56.2874 23.56 56.5834 23.688C56.8794 23.808 57.1314 23.992 57.3394 24.24C57.5554 24.488 57.6674 24.812 57.6754 25.212C57.6754 25.572 57.5754 25.896 57.3754 26.184C57.1754 26.472 56.8914 26.7 56.5234 26.868C56.1634 27.028 55.7474 27.108 55.2754 27.108ZM58.809 23.688C58.809 23.016 58.945 22.428 59.217 21.924C59.489 21.412 59.861 21.016 60.333 20.736C60.813 20.456 61.345 20.316 61.929 20.316C62.505 20.316 63.005 20.44 63.429 20.688C63.853 20.936 64.169 21.248 64.377 21.624V20.424H65.481V27H64.377V25.776C64.161 26.16 63.837 26.48 63.405 26.736C62.981 26.984 62.485 27.108 61.917 27.108C61.333 27.108 60.805 26.964 60.333 26.676C59.861 26.388 59.489 25.984 59.217 25.464C58.945 24.944 58.809 24.352 58.809 23.688ZM64.377 23.7C64.377 23.204 64.277 22.772 64.077 22.404C63.877 22.036 63.605 21.756 63.261 21.564C62.925 21.364 62.553 21.264 62.145 21.264C61.737 21.264 61.365 21.36 61.029 21.552C60.693 21.744 60.425 22.024 60.225 22.392C60.025 22.76 59.925 23.192 59.925 23.688C59.925 24.192 60.025 24.632 60.225 25.008C60.425 25.376 60.693 25.66 61.029 25.86C61.365 26.052 61.737 26.148 62.145 26.148C62.553 26.148 62.925 26.052 63.261 25.86C63.605 25.66 63.877 25.376 64.077 25.008C64.277 24.632 64.377 24.196 64.377 23.7ZM60.597 19.716C60.653 19.308 60.785 18.996 60.993 18.78C61.209 18.564 61.477 18.456 61.797 18.456C61.949 18.456 62.077 18.484 62.181 18.54C62.293 18.588 62.425 18.66 62.577 18.756C62.689 18.836 62.789 18.9 62.877 18.948C62.965 18.988 63.061 19.008 63.165 19.008C63.301 19.008 63.417 18.964 63.513 18.876C63.609 18.788 63.669 18.66 63.693 18.492H64.317C64.269 18.892 64.137 19.2 63.921 19.416C63.705 19.632 63.437 19.74 63.117 19.74C62.965 19.74 62.829 19.716 62.709 19.668C62.597 19.612 62.469 19.532 62.325 19.428C62.197 19.348 62.093 19.288 62.013 19.248C61.941 19.208 61.853 19.188 61.749 19.188C61.613 19.188 61.497 19.232 61.401 19.32C61.313 19.408 61.257 19.54 61.233 19.716H60.597ZM70.1943 27.108C69.5783 27.108 69.0183 26.968 68.5143 26.688C68.0183 26.408 67.6263 26.012 67.3383 25.5C67.0583 24.98 66.9183 24.38 66.9183 23.7C66.9183 23.028 67.0623 22.436 67.3503 21.924C67.6463 21.404 68.0463 21.008 68.5503 20.736C69.0543 20.456 69.6183 20.316 70.2423 20.316C70.8663 20.316 71.4303 20.456 71.9343 20.736C72.4383 21.008 72.8343 21.4 73.1223 21.912C73.4183 22.424 73.5663 23.02 73.5663 23.7C73.5663 24.38 73.4143 24.98 73.1103 25.5C72.8143 26.012 72.4103 26.408 71.8983 26.688C71.3863 26.968 70.8183 27.108 70.1943 27.108ZM70.1943 26.148C70.5863 26.148 70.9543 26.056 71.2983 25.872C71.6423 25.688 71.9183 25.412 72.1263 25.044C72.3423 24.676 72.4503 24.228 72.4503 23.7C72.4503 23.172 72.3463 22.724 72.1383 22.356C71.9303 21.988 71.6583 21.716 71.3223 21.54C70.9863 21.356 70.6223 21.264 70.2303 21.264C69.8303 21.264 69.4623 21.356 69.1263 21.54C68.7983 21.716 68.5343 21.988 68.3343 22.356C68.1343 22.724 68.0343 23.172 68.0343 23.7C68.0343 24.236 68.1303 24.688 68.3223 25.056C68.5223 25.424 68.7863 25.7 69.1143 25.884C69.4423 26.06 69.8023 26.148 70.1943 26.148ZM81.0693 27.108C80.4533 27.108 79.8933 26.968 79.3893 26.688C78.8933 26.408 78.5013 26.012 78.2133 25.5C77.9333 24.98 77.7933 24.38 77.7933 23.7C77.7933 23.028 77.9373 22.436 78.2253 21.924C78.5213 21.404 78.9213 21.008 79.4253 20.736C79.9293 20.456 80.4933 20.316 81.1173 20.316C81.7413 20.316 82.3053 20.456 82.8093 20.736C83.3133 21.008 83.7093 21.4 83.9973 21.912C84.2933 22.424 84.4413 23.02 84.4413 23.7C84.4413 24.38 84.2893 24.98 83.9853 25.5C83.6893 26.012 83.2853 26.408 82.7733 26.688C82.2613 26.968 81.6933 27.108 81.0693 27.108ZM81.0693 26.148C81.4613 26.148 81.8293 26.056 82.1733 25.872C82.5173 25.688 82.7933 25.412 83.0013 25.044C83.2173 24.676 83.3253 24.228 83.3253 23.7C83.3253 23.172 83.2213 22.724 83.0133 22.356C82.8053 21.988 82.5333 21.716 82.1973 21.54C81.8613 21.356 81.4973 21.264 81.1053 21.264C80.7053 21.264 80.3373 21.356 80.0013 21.54C79.6733 21.716 79.4093 21.988 79.2093 22.356C79.0093 22.724 78.9093 23.172 78.9093 23.7C78.9093 24.236 79.0053 24.688 79.1973 25.056C79.3973 25.424 79.6613 25.7 79.9893 25.884C80.3173 26.06 80.6773 26.148 81.0693 26.148ZM88.2051 27.108C87.7011 27.108 87.2491 27.024 86.8491 26.856C86.4491 26.68 86.1331 26.44 85.9011 26.136C85.6691 25.824 85.5411 25.468 85.5171 25.068H86.6451C86.6771 25.396 86.8291 25.664 87.1011 25.872C87.3811 26.08 87.7451 26.184 88.1931 26.184C88.6091 26.184 88.9371 26.092 89.1771 25.908C89.4171 25.724 89.5371 25.492 89.5371 25.212C89.5371 24.924 89.4091 24.712 89.1531 24.576C88.8971 24.432 88.5011 24.292 87.9651 24.156C87.4771 24.028 87.0771 23.9 86.7651 23.772C86.4611 23.636 86.1971 23.44 85.9731 23.184C85.7571 22.92 85.6491 22.576 85.6491 22.152C85.6491 21.816 85.7491 21.508 85.9491 21.228C86.1491 20.948 86.4331 20.728 86.8011 20.568C87.1691 20.4 87.5891 20.316 88.0611 20.316C88.7891 20.316 89.3771 20.5 89.8251 20.868C90.2731 21.236 90.5131 21.74 90.5451 22.38H89.4531C89.4291 22.036 89.2891 21.76 89.0331 21.552C88.7851 21.344 88.4491 21.24 88.0251 21.24C87.6331 21.24 87.3211 21.324 87.0891 21.492C86.8571 21.66 86.7411 21.88 86.7411 22.152C86.7411 22.368 86.8091 22.548 86.9451 22.692C87.0891 22.828 87.2651 22.94 87.4731 23.028C87.6891 23.108 87.9851 23.2 88.3611 23.304C88.8331 23.432 89.2171 23.56 89.5131 23.688C89.8091 23.808 90.0611 23.992 90.2691 24.24C90.4851 24.488 90.5971 24.812 90.6051 25.212C90.6051 25.572 90.5051 25.896 90.3051 26.184C90.1051 26.472 89.8211 26.7 89.4531 26.868C89.0931 27.028 88.6771 27.108 88.2051 27.108ZM97.7099 20.208C98.1819 20.208 98.5939 20.304 98.9459 20.496C99.3059 20.688 99.5819 20.94 99.7739 21.252V20.304H101.826V26.988C101.826 27.604 101.702 28.16 101.454 28.656C101.214 29.16 100.842 29.56 100.338 29.856C99.8419 30.152 99.2219 30.3 98.4779 30.3C97.4859 30.3 96.6819 30.064 96.0659 29.592C95.4499 29.128 95.0979 28.496 95.0099 27.696H97.0379C97.1019 27.952 97.2539 28.152 97.4939 28.296C97.7339 28.448 98.0299 28.524 98.3819 28.524C98.8059 28.524 99.1419 28.4 99.3899 28.152C99.6459 27.912 99.7739 27.524 99.7739 26.988V26.04C99.5739 26.352 99.2979 26.608 98.9459 26.808C98.5939 27 98.1819 27.096 97.7099 27.096C97.1579 27.096 96.6579 26.956 96.2099 26.676C95.7619 26.388 95.4059 25.984 95.1419 25.464C94.8859 24.936 94.7579 24.328 94.7579 23.64C94.7579 22.952 94.8859 22.348 95.1419 21.828C95.4059 21.308 95.7619 20.908 96.2099 20.628C96.6579 20.348 97.1579 20.208 97.7099 20.208ZM99.7739 23.652C99.7739 23.14 99.6299 22.736 99.3419 22.44C99.0619 22.144 98.7179 21.996 98.3099 21.996C97.9019 21.996 97.5539 22.144 97.2659 22.44C96.9859 22.728 96.8459 23.128 96.8459 23.64C96.8459 24.152 96.9859 24.56 97.2659 24.864C97.5539 25.16 97.9019 25.308 98.3099 25.308C98.7179 25.308 99.0619 25.16 99.3419 24.864C99.6299 24.568 99.7739 24.164 99.7739 23.652ZM102.902 23.64C102.902 22.952 103.03 22.348 103.286 21.828C103.55 21.308 103.906 20.908 104.354 20.628C104.802 20.348 105.302 20.208 105.854 20.208C106.326 20.208 106.738 20.304 107.09 20.496C107.45 20.688 107.726 20.94 107.918 21.252V20.304H109.97V27H107.918V26.052C107.718 26.364 107.438 26.616 107.078 26.808C106.726 27 106.314 27.096 105.842 27.096C105.298 27.096 104.802 26.956 104.354 26.676C103.906 26.388 103.55 25.984 103.286 25.464C103.03 24.936 102.902 24.328 102.902 23.64ZM107.918 23.652C107.918 23.14 107.774 22.736 107.486 22.44C107.206 22.144 106.862 21.996 106.454 21.996C106.046 21.996 105.698 22.144 105.41 22.44C105.13 22.728 104.99 23.128 104.99 23.64C104.99 24.152 105.13 24.56 105.41 24.864C105.698 25.16 106.046 25.308 106.454 25.308C106.862 25.308 107.206 25.16 107.486 24.864C107.774 24.568 107.918 24.164 107.918 23.652ZM113.507 18.12V27H111.455V18.12H113.507ZM121.306 23.544C121.306 23.736 121.294 23.936 121.27 24.144H116.626C116.658 24.56 116.79 24.88 117.022 25.104C117.262 25.32 117.554 25.428 117.898 25.428C118.41 25.428 118.766 25.212 118.966 24.78H121.15C121.038 25.22 120.834 25.616 120.538 25.968C120.25 26.32 119.886 26.596 119.446 26.796C119.006 26.996 118.514 27.096 117.97 27.096C117.314 27.096 116.73 26.956 116.218 26.676C115.706 26.396 115.306 25.996 115.018 25.476C114.73 24.956 114.586 24.348 114.586 23.652C114.586 22.956 114.726 22.348 115.006 21.828C115.294 21.308 115.694 20.908 116.206 20.628C116.718 20.348 117.306 20.208 117.97 20.208C118.618 20.208 119.194 20.344 119.698 20.616C120.202 20.888 120.594 21.276 120.874 21.78C121.162 22.284 121.306 22.872 121.306 23.544ZM119.206 23.004C119.206 22.652 119.086 22.372 118.846 22.164C118.606 21.956 118.306 21.852 117.946 21.852C117.602 21.852 117.31 21.952 117.07 22.152C116.838 22.352 116.694 22.636 116.638 23.004H119.206ZM125.113 27.096C124.529 27.096 124.009 26.996 123.553 26.796C123.097 26.596 122.737 26.324 122.473 25.98C122.209 25.628 122.061 25.236 122.029 24.804H124.057C124.081 25.036 124.189 25.224 124.381 25.368C124.573 25.512 124.809 25.584 125.089 25.584C125.345 25.584 125.541 25.536 125.677 25.44C125.821 25.336 125.893 25.204 125.893 25.044C125.893 24.852 125.793 24.712 125.593 24.624C125.393 24.528 125.069 24.424 124.621 24.312C124.141 24.2 123.741 24.084 123.421 23.964C123.101 23.836 122.825 23.64 122.593 23.376C122.361 23.104 122.245 22.74 122.245 22.284C122.245 21.9 122.349 21.552 122.557 21.24C122.773 20.92 123.085 20.668 123.493 20.484C123.909 20.3 124.401 20.208 124.969 20.208C125.809 20.208 126.469 20.416 126.949 20.832C127.437 21.248 127.717 21.8 127.789 22.488H125.893C125.861 22.256 125.757 22.072 125.581 21.936C125.413 21.8 125.189 21.732 124.909 21.732C124.669 21.732 124.485 21.78 124.357 21.876C124.229 21.964 124.165 22.088 124.165 22.248C124.165 22.44 124.265 22.584 124.465 22.68C124.673 22.776 124.993 22.872 125.425 22.968C125.921 23.096 126.325 23.224 126.637 23.352C126.949 23.472 127.221 23.672 127.453 23.952C127.693 24.224 127.817 24.592 127.825 25.056C127.825 25.448 127.713 25.8 127.489 26.112C127.273 26.416 126.957 26.656 126.541 26.832C126.133 27.008 125.657 27.096 125.113 27.096ZM130.388 25.488L129.044 28.716H128.312L129.188 25.488H130.388ZM28.924 41.46C28.924 41.668 28.912 41.888 28.888 42.12H23.632C23.672 42.768 23.892 43.276 24.292 43.644C24.7 44.004 25.192 44.184 25.768 44.184C26.24 44.184 26.632 44.076 26.944 43.86C27.264 43.636 27.488 43.34 27.616 42.972H28.792C28.616 43.604 28.264 44.12 27.736 44.52C27.208 44.912 26.552 45.108 25.768 45.108C25.144 45.108 24.584 44.968 24.088 44.688C23.6 44.408 23.216 44.012 22.936 43.5C22.656 42.98 22.516 42.38 22.516 41.7C22.516 41.02 22.652 40.424 22.924 39.912C23.196 39.4 23.576 39.008 24.064 38.736C24.56 38.456 25.128 38.316 25.768 38.316C26.392 38.316 26.944 38.452 27.424 38.724C27.904 38.996 28.272 39.372 28.528 39.852C28.792 40.324 28.924 40.86 28.924 41.46ZM27.796 41.232C27.796 40.816 27.704 40.46 27.52 40.164C27.336 39.86 27.084 39.632 26.764 39.48C26.452 39.32 26.104 39.24 25.72 39.24C25.168 39.24 24.696 39.416 24.304 39.768C23.92 40.12 23.7 40.608 23.644 41.232H27.796ZM38.2734 38.304C38.7854 38.304 39.2414 38.412 39.6414 38.628C40.0414 38.836 40.3574 39.152 40.5894 39.576C40.8214 40 40.9374 40.516 40.9374 41.124V45H39.8574V41.28C39.8574 40.624 39.6934 40.124 39.3654 39.78C39.0454 39.428 38.6094 39.252 38.0574 39.252C37.4894 39.252 37.0374 39.436 36.7014 39.804C36.3654 40.164 36.1974 40.688 36.1974 41.376V45H35.1174V41.28C35.1174 40.624 34.9534 40.124 34.6254 39.78C34.3054 39.428 33.8694 39.252 33.3174 39.252C32.7494 39.252 32.2974 39.436 31.9614 39.804C31.6254 40.164 31.4574 40.688 31.4574 41.376V45H30.3654V38.424H31.4574V39.372C31.6734 39.028 31.9614 38.764 32.3214 38.58C32.6894 38.396 33.0934 38.304 33.5334 38.304C34.0854 38.304 34.5734 38.428 34.9974 38.676C35.4214 38.924 35.7374 39.288 35.9454 39.768C36.1294 39.304 36.4334 38.944 36.8574 38.688C37.2814 38.432 37.7534 38.304 38.2734 38.304ZM45.5199 41.7C45.5199 41.02 45.6559 40.428 45.9279 39.924C46.1999 39.412 46.5759 39.016 47.0559 38.736C47.5439 38.456 48.0999 38.316 48.7239 38.316C49.5319 38.316 50.1959 38.512 50.7159 38.904C51.2439 39.296 51.5919 39.84 51.7599 40.536H50.5839C50.4719 40.136 50.2519 39.82 49.9239 39.588C49.6039 39.356 49.2039 39.24 48.7239 39.24C48.0999 39.24 47.5959 39.456 47.2119 39.888C46.8279 40.312 46.6359 40.916 46.6359 41.7C46.6359 42.492 46.8279 43.104 47.2119 43.536C47.5959 43.968 48.0999 44.184 48.7239 44.184C49.2039 44.184 49.6039 44.072 49.9239 43.848C50.2439 43.624 50.4639 43.304 50.5839 42.888H51.7599C51.5839 43.56 51.2319 44.1 50.7039 44.508C50.1759 44.908 49.5159 45.108 48.7239 45.108C48.0999 45.108 47.5439 44.968 47.0559 44.688C46.5759 44.408 46.1999 44.012 45.9279 43.5C45.6559 42.988 45.5199 42.388 45.5199 41.7ZM52.809 41.688C52.809 41.016 52.945 40.428 53.217 39.924C53.489 39.412 53.861 39.016 54.333 38.736C54.813 38.456 55.345 38.316 55.929 38.316C56.505 38.316 57.005 38.44 57.429 38.688C57.853 38.936 58.169 39.248 58.377 39.624V38.424H59.481V45H58.377V43.776C58.161 44.16 57.837 44.48 57.405 44.736C56.981 44.984 56.485 45.108 55.917 45.108C55.333 45.108 54.805 44.964 54.333 44.676C53.861 44.388 53.489 43.984 53.217 43.464C52.945 42.944 52.809 42.352 52.809 41.688ZM58.377 41.7C58.377 41.204 58.277 40.772 58.077 40.404C57.877 40.036 57.605 39.756 57.261 39.564C56.925 39.364 56.553 39.264 56.145 39.264C55.737 39.264 55.365 39.36 55.029 39.552C54.693 39.744 54.425 40.024 54.225 40.392C54.025 40.76 53.925 41.192 53.925 41.688C53.925 42.192 54.025 42.632 54.225 43.008C54.425 43.376 54.693 43.66 55.029 43.86C55.365 44.052 55.737 44.148 56.145 44.148C56.553 44.148 56.925 44.052 57.261 43.86C57.605 43.66 57.877 43.376 58.077 43.008C58.277 42.632 58.377 42.196 58.377 41.7ZM63.6543 45.108C63.1503 45.108 62.6983 45.024 62.2983 44.856C61.8983 44.68 61.5823 44.44 61.3503 44.136C61.1183 43.824 60.9903 43.468 60.9663 43.068H62.0943C62.1263 43.396 62.2783 43.664 62.5503 43.872C62.8303 44.08 63.1943 44.184 63.6423 44.184C64.0583 44.184 64.3863 44.092 64.6263 43.908C64.8663 43.724 64.9863 43.492 64.9863 43.212C64.9863 42.924 64.8583 42.712 64.6023 42.576C64.3463 42.432 63.9503 42.292 63.4143 42.156C62.9263 42.028 62.5263 41.9 62.2143 41.772C61.9103 41.636 61.6463 41.44 61.4223 41.184C61.2063 40.92 61.0983 40.576 61.0983 40.152C61.0983 39.816 61.1983 39.508 61.3983 39.228C61.5983 38.948 61.8823 38.728 62.2503 38.568C62.6183 38.4 63.0383 38.316 63.5103 38.316C64.2383 38.316 64.8263 38.5 65.2743 38.868C65.7223 39.236 65.9623 39.74 65.9943 40.38H64.9023C64.8783 40.036 64.7383 39.76 64.4823 39.552C64.2343 39.344 63.8983 39.24 63.4743 39.24C63.0823 39.24 62.7703 39.324 62.5383 39.492C62.3063 39.66 62.1903 39.88 62.1903 40.152C62.1903 40.368 62.2583 40.548 62.3943 40.692C62.5383 40.828 62.7143 40.94 62.9223 41.028C63.1383 41.108 63.4343 41.2 63.8103 41.304C64.2823 41.432 64.6663 41.56 64.9623 41.688C65.2583 41.808 65.5103 41.992 65.7183 42.24C65.9343 42.488 66.0463 42.812 66.0543 43.212C66.0543 43.572 65.9543 43.896 65.7543 44.184C65.5543 44.472 65.2703 44.7 64.9023 44.868C64.5423 45.028 64.1263 45.108 63.6543 45.108ZM70.4639 45.108C69.8479 45.108 69.2879 44.968 68.7839 44.688C68.2879 44.408 67.8959 44.012 67.6079 43.5C67.3279 42.98 67.1879 42.38 67.1879 41.7C67.1879 41.028 67.3319 40.436 67.6199 39.924C67.9159 39.404 68.3159 39.008 68.8199 38.736C69.3239 38.456 69.8879 38.316 70.5119 38.316C71.1359 38.316 71.6999 38.456 72.2039 38.736C72.7079 39.008 73.1039 39.4 73.3919 39.912C73.6879 40.424 73.8359 41.02 73.8359 41.7C73.8359 42.38 73.6839 42.98 73.3799 43.5C73.0839 44.012 72.6799 44.408 72.1679 44.688C71.6559 44.968 71.0879 45.108 70.4639 45.108ZM70.4639 44.148C70.8559 44.148 71.2239 44.056 71.5679 43.872C71.9119 43.688 72.1879 43.412 72.3959 43.044C72.6119 42.676 72.7199 42.228 72.7199 41.7C72.7199 41.172 72.6159 40.724 72.4079 40.356C72.1999 39.988 71.9279 39.716 71.5919 39.54C71.2559 39.356 70.8919 39.264 70.4999 39.264C70.0999 39.264 69.7319 39.356 69.3959 39.54C69.0679 39.716 68.8039 39.988 68.6039 40.356C68.4039 40.724 68.3039 41.172 68.3039 41.7C68.3039 42.236 68.3999 42.688 68.5919 43.056C68.7919 43.424 69.0559 43.7 69.3839 43.884C69.7119 44.06 70.0719 44.148 70.4639 44.148ZM78.0629 41.688C78.0629 41.016 78.1989 40.428 78.4709 39.924C78.7429 39.412 79.1149 39.016 79.5869 38.736C80.0669 38.456 80.6029 38.316 81.1949 38.316C81.7069 38.316 82.1829 38.436 82.6229 38.676C83.0629 38.908 83.3989 39.216 83.6309 39.6V36.12H84.7349V45H83.6309V43.764C83.4149 44.156 83.0949 44.48 82.6709 44.736C82.2469 44.984 81.7509 45.108 81.1829 45.108C80.5989 45.108 80.0669 44.964 79.5869 44.676C79.1149 44.388 78.7429 43.984 78.4709 43.464C78.1989 42.944 78.0629 42.352 78.0629 41.688ZM83.6309 41.7C83.6309 41.204 83.5309 40.772 83.3309 40.404C83.1309 40.036 82.8589 39.756 82.5149 39.564C82.1789 39.364 81.8069 39.264 81.3989 39.264C80.9909 39.264 80.6189 39.36 80.2829 39.552C79.9469 39.744 79.6789 40.024 79.4789 40.392C79.2789 40.76 79.1789 41.192 79.1789 41.688C79.1789 42.192 79.2789 42.632 79.4789 43.008C79.6789 43.376 79.9469 43.66 80.2829 43.86C80.6189 44.052 80.9909 44.148 81.3989 44.148C81.8069 44.148 82.1789 44.052 82.5149 43.86C82.8589 43.66 83.1309 43.376 83.3309 43.008C83.5309 42.632 83.6309 42.196 83.6309 41.7ZM92.5803 41.46C92.5803 41.668 92.5683 41.888 92.5443 42.12H87.2883C87.3283 42.768 87.5483 43.276 87.9483 43.644C88.3563 44.004 88.8483 44.184 89.4243 44.184C89.8963 44.184 90.2883 44.076 90.6003 43.86C90.9203 43.636 91.1443 43.34 91.2723 42.972H92.4483C92.2723 43.604 91.9203 44.12 91.3923 44.52C90.8643 44.912 90.2083 45.108 89.4243 45.108C88.8003 45.108 88.2403 44.968 87.7443 44.688C87.2563 44.408 86.8723 44.012 86.5923 43.5C86.3123 42.98 86.1723 42.38 86.1723 41.7C86.1723 41.02 86.3083 40.424 86.5803 39.912C86.8523 39.4 87.2323 39.008 87.7203 38.736C88.2163 38.456 88.7843 38.316 89.4243 38.316C90.0483 38.316 90.6003 38.452 91.0803 38.724C91.5603 38.996 91.9283 39.372 92.1843 39.852C92.4483 40.324 92.5803 40.86 92.5803 41.46ZM91.4523 41.232C91.4523 40.816 91.3603 40.46 91.1763 40.164C90.9923 39.86 90.7403 39.632 90.4203 39.48C90.1083 39.32 89.7603 39.24 89.3763 39.24C88.8243 39.24 88.3523 39.416 87.9603 39.768C87.5763 40.12 87.3563 40.608 87.3003 41.232H91.4523ZM99.6689 43.992L101.709 38.424H102.873L100.293 45H99.0209L96.4409 38.424H97.6169L99.6689 43.992ZM104.511 37.356C104.303 37.356 104.127 37.284 103.983 37.14C103.839 36.996 103.767 36.82 103.767 36.612C103.767 36.404 103.839 36.228 103.983 36.084C104.127 35.94 104.303 35.868 104.511 35.868C104.711 35.868 104.879 35.94 105.015 36.084C105.159 36.228 105.231 36.404 105.231 36.612C105.231 36.82 105.159 36.996 105.015 37.14C104.879 37.284 104.711 37.356 104.511 37.356ZM105.039 38.424V45H103.947V38.424H105.039ZM108.233 39.324V43.2C108.233 43.52 108.301 43.748 108.437 43.884C108.573 44.012 108.809 44.076 109.145 44.076H109.949V45H108.965C108.357 45 107.901 44.86 107.597 44.58C107.293 44.3 107.141 43.84 107.141 43.2V39.324H106.289V38.424H107.141V36.768H108.233V38.424H109.949V39.324H108.233ZM114.14 45.108C113.524 45.108 112.964 44.968 112.46 44.688C111.964 44.408 111.572 44.012 111.284 43.5C111.004 42.98 110.864 42.38 110.864 41.7C110.864 41.028 111.008 40.436 111.296 39.924C111.592 39.404 111.992 39.008 112.496 38.736C113 38.456 113.564 38.316 114.188 38.316C114.812 38.316 115.376 38.456 115.88 38.736C116.384 39.008 116.78 39.4 117.068 39.912C117.364 40.424 117.512 41.02 117.512 41.7C117.512 42.38 117.36 42.98 117.056 43.5C116.76 44.012 116.356 44.408 115.844 44.688C115.332 44.968 114.764 45.108 114.14 45.108ZM114.14 44.148C114.532 44.148 114.9 44.056 115.244 43.872C115.588 43.688 115.864 43.412 116.072 43.044C116.288 42.676 116.396 42.228 116.396 41.7C116.396 41.172 116.292 40.724 116.084 40.356C115.876 39.988 115.604 39.716 115.268 39.54C114.932 39.356 114.568 39.264 114.176 39.264C113.776 39.264 113.408 39.356 113.072 39.54C112.744 39.716 112.48 39.988 112.28 40.356C112.08 40.724 111.98 41.172 111.98 41.7C111.98 42.236 112.076 42.688 112.268 43.056C112.468 43.424 112.732 43.7 113.06 43.884C113.388 44.06 113.748 44.148 114.14 44.148ZM115.364 36.48L112.808 37.848V37.032L115.364 35.532V36.48ZM120.039 39.492C120.231 39.116 120.503 38.824 120.855 38.616C121.215 38.408 121.651 38.304 122.163 38.304V39.432H121.875C120.651 39.432 120.039 40.096 120.039 41.424V45H118.947V38.424H120.039V39.492ZM123.988 37.356C123.78 37.356 123.604 37.284 123.46 37.14C123.316 36.996 123.244 36.82 123.244 36.612C123.244 36.404 123.316 36.228 123.46 36.084C123.604 35.94 123.78 35.868 123.988 35.868C124.188 35.868 124.356 35.94 124.492 36.084C124.636 36.228 124.708 36.404 124.708 36.612C124.708 36.82 124.636 36.996 124.492 37.14C124.356 37.284 124.188 37.356 123.988 37.356ZM124.516 38.424V45H123.424V38.424H124.516ZM125.969 41.688C125.969 41.016 126.105 40.428 126.377 39.924C126.649 39.412 127.021 39.016 127.493 38.736C127.973 38.456 128.505 38.316 129.089 38.316C129.665 38.316 130.165 38.44 130.589 38.688C131.013 38.936 131.329 39.248 131.537 39.624V38.424H132.641V45H131.537V43.776C131.321 44.16 130.997 44.48 130.565 44.736C130.141 44.984 129.645 45.108 129.077 45.108C128.493 45.108 127.965 44.964 127.493 44.676C127.021 44.388 126.649 43.984 126.377 43.464C126.105 42.944 125.969 42.352 125.969 41.688ZM131.537 41.7C131.537 41.204 131.437 40.772 131.237 40.404C131.037 40.036 130.765 39.756 130.421 39.564C130.085 39.364 129.713 39.264 129.305 39.264C128.897 39.264 128.525 39.36 128.189 39.552C127.853 39.744 127.585 40.024 127.385 40.392C127.185 40.76 127.085 41.192 127.085 41.688C127.085 42.192 127.185 42.632 127.385 43.008C127.585 43.376 127.853 43.66 128.189 43.86C128.525 44.052 128.897 44.148 129.305 44.148C129.713 44.148 130.085 44.052 130.421 43.86C130.765 43.66 131.037 43.376 131.237 43.008C131.437 42.632 131.537 42.196 131.537 41.7ZM140.554 45.108C139.938 45.108 139.378 44.968 138.874 44.688C138.378 44.408 137.986 44.012 137.698 43.5C137.418 42.98 137.278 42.38 137.278 41.7C137.278 41.028 137.422 40.436 137.71 39.924C138.006 39.404 138.406 39.008 138.91 38.736C139.414 38.456 139.978 38.316 140.602 38.316C141.226 38.316 141.79 38.456 142.294 38.736C142.798 39.008 143.194 39.4 143.482 39.912C143.778 40.424 143.926 41.02 143.926 41.7C143.926 42.38 143.774 42.98 143.47 43.5C143.174 44.012 142.77 44.408 142.258 44.688C141.746 44.968 141.178 45.108 140.554 45.108ZM140.554 44.148C140.946 44.148 141.314 44.056 141.658 43.872C142.002 43.688 142.278 43.412 142.486 43.044C142.702 42.676 142.81 42.228 142.81 41.7C142.81 41.172 142.706 40.724 142.498 40.356C142.29 39.988 142.018 39.716 141.682 39.54C141.346 39.356 140.982 39.264 140.59 39.264C140.19 39.264 139.822 39.356 139.486 39.54C139.158 39.716 138.894 39.988 138.694 40.356C138.494 40.724 138.394 41.172 138.394 41.7C138.394 42.236 138.49 42.688 138.682 43.056C138.882 43.424 139.146 43.7 139.474 43.884C139.802 44.06 140.162 44.148 140.554 44.148ZM151.194 38.424V45H150.102V44.028C149.894 44.364 149.602 44.628 149.226 44.82C148.858 45.004 148.45 45.096 148.002 45.096C147.49 45.096 147.03 44.992 146.622 44.784C146.214 44.568 145.89 44.248 145.65 43.824C145.418 43.4 145.302 42.884 145.302 42.276V38.424H146.382V42.132C146.382 42.78 146.546 43.28 146.874 43.632C147.202 43.976 147.65 44.148 148.218 44.148C148.802 44.148 149.262 43.968 149.598 43.608C149.934 43.248 150.102 42.724 150.102 42.036V38.424H151.194ZM22.516 59.688C22.516 59.016 22.652 58.428 22.924 57.924C23.196 57.412 23.568 57.016 24.04 56.736C24.52 56.456 25.056 56.316 25.648 56.316C26.16 56.316 26.636 56.436 27.076 56.676C27.516 56.908 27.852 57.216 28.084 57.6V54.12H29.188V63H28.084V61.764C27.868 62.156 27.548 62.48 27.124 62.736C26.7 62.984 26.204 63.108 25.636 63.108C25.052 63.108 24.52 62.964 24.04 62.676C23.568 62.388 23.196 61.984 22.924 61.464C22.652 60.944 22.516 60.352 22.516 59.688ZM28.084 59.7C28.084 59.204 27.984 58.772 27.784 58.404C27.584 58.036 27.312 57.756 26.968 57.564C26.632 57.364 26.26 57.264 25.852 57.264C25.444 57.264 25.072 57.36 24.736 57.552C24.4 57.744 24.132 58.024 23.932 58.392C23.732 58.76 23.632 59.192 23.632 59.688C23.632 60.192 23.732 60.632 23.932 61.008C24.132 61.376 24.4 61.66 24.736 61.86C25.072 62.052 25.444 62.148 25.852 62.148C26.26 62.148 26.632 62.052 26.968 61.86C27.312 61.66 27.584 61.376 27.784 61.008C27.984 60.632 28.084 60.196 28.084 59.7ZM37.0334 59.46C37.0334 59.668 37.0214 59.888 36.9974 60.12H31.7414C31.7814 60.768 32.0014 61.276 32.4014 61.644C32.8094 62.004 33.3014 62.184 33.8774 62.184C34.3494 62.184 34.7414 62.076 35.0534 61.86C35.3734 61.636 35.5974 61.34 35.7254 60.972H36.9014C36.7254 61.604 36.3734 62.12 35.8454 62.52C35.3174 62.912 34.6614 63.108 33.8774 63.108C33.2534 63.108 32.6934 62.968 32.1974 62.688C31.7094 62.408 31.3254 62.012 31.0454 61.5C30.7654 60.98 30.6254 60.38 30.6254 59.7C30.6254 59.02 30.7614 58.424 31.0334 57.912C31.3054 57.4 31.6854 57.008 32.1734 56.736C32.6694 56.456 33.2374 56.316 33.8774 56.316C34.5014 56.316 35.0534 56.452 35.5334 56.724C36.0134 56.996 36.3814 57.372 36.6374 57.852C36.9014 58.324 37.0334 58.86 37.0334 59.46ZM35.9054 59.232C35.9054 58.816 35.8134 58.46 35.6294 58.164C35.4454 57.86 35.1934 57.632 34.8734 57.48C34.5614 57.32 34.2134 57.24 33.8294 57.24C33.2774 57.24 32.8054 57.416 32.4134 57.768C32.0294 58.12 31.8094 58.608 31.7534 59.232H35.9054ZM39.5668 57.492C39.7588 57.116 40.0308 56.824 40.3828 56.616C40.7428 56.408 41.1788 56.304 41.6908 56.304V57.432H41.4028C40.1788 57.432 39.5668 58.096 39.5668 59.424V63H38.4748V56.424H39.5668V57.492ZM44.0433 57.492C44.2353 57.116 44.5073 56.824 44.8593 56.616C45.2193 56.408 45.6553 56.304 46.1673 56.304V57.432H45.8793C44.6553 57.432 44.0433 58.096 44.0433 59.424V63H42.9513V56.424H44.0433V57.492ZM50.2959 63.108C49.6799 63.108 49.1199 62.968 48.6159 62.688C48.1199 62.408 47.7279 62.012 47.4399 61.5C47.1599 60.98 47.0199 60.38 47.0199 59.7C47.0199 59.028 47.1639 58.436 47.4519 57.924C47.7479 57.404 48.1479 57.008 48.6519 56.736C49.1559 56.456 49.7199 56.316 50.3439 56.316C50.9679 56.316 51.5319 56.456 52.0359 56.736C52.5399 57.008 52.9359 57.4 53.2239 57.912C53.5199 58.424 53.6679 59.02 53.6679 59.7C53.6679 60.38 53.5159 60.98 53.2119 61.5C52.9159 62.012 52.5119 62.408 51.9999 62.688C51.4879 62.968 50.9199 63.108 50.2959 63.108ZM50.2959 62.148C50.6879 62.148 51.0559 62.056 51.3999 61.872C51.7439 61.688 52.0199 61.412 52.2279 61.044C52.4439 60.676 52.5519 60.228 52.5519 59.7C52.5519 59.172 52.4479 58.724 52.2399 58.356C52.0319 57.988 51.7599 57.716 51.4239 57.54C51.0879 57.356 50.7239 57.264 50.3319 57.264C49.9319 57.264 49.5639 57.356 49.2279 57.54C48.8999 57.716 48.6359 57.988 48.4359 58.356C48.2359 58.724 48.1359 59.172 48.1359 59.7C48.1359 60.236 48.2319 60.688 48.4239 61.056C48.6239 61.424 48.8879 61.7 49.2159 61.884C49.5439 62.06 49.9039 62.148 50.2959 62.148ZM56.4357 57.324V61.2C56.4357 61.52 56.5037 61.748 56.6397 61.884C56.7757 62.012 57.0117 62.076 57.3477 62.076H58.1517V63H57.1677C56.5597 63 56.1037 62.86 55.7997 62.58C55.4957 62.3 55.3437 61.84 55.3437 61.2V57.324H54.4917V56.424H55.3437V54.768H56.4357V56.424H58.1517V57.324H56.4357ZM59.0668 59.688C59.0668 59.016 59.2028 58.428 59.4748 57.924C59.7468 57.412 60.1188 57.016 60.5908 56.736C61.0708 56.456 61.6028 56.316 62.1868 56.316C62.7628 56.316 63.2628 56.44 63.6868 56.688C64.1108 56.936 64.4268 57.248 64.6348 57.624V56.424H65.7388V63H64.6348V61.776C64.4188 62.16 64.0948 62.48 63.6628 62.736C63.2388 62.984 62.7428 63.108 62.1748 63.108C61.5908 63.108 61.0628 62.964 60.5908 62.676C60.1188 62.388 59.7468 61.984 59.4748 61.464C59.2028 60.944 59.0668 60.352 59.0668 59.688ZM64.6348 59.7C64.6348 59.204 64.5348 58.772 64.3348 58.404C64.1348 58.036 63.8628 57.756 63.5188 57.564C63.1828 57.364 62.8108 57.264 62.4028 57.264C61.9948 57.264 61.6228 57.36 61.2868 57.552C60.9508 57.744 60.6828 58.024 60.4828 58.392C60.2828 58.76 60.1828 59.192 60.1828 59.688C60.1828 60.192 60.2828 60.632 60.4828 61.008C60.6828 61.376 60.9508 61.66 61.2868 61.86C61.6228 62.052 61.9948 62.148 62.4028 62.148C62.8108 62.148 63.1828 62.052 63.5188 61.86C63.8628 61.66 64.1348 61.376 64.3348 61.008C64.5348 60.632 64.6348 60.196 64.6348 59.7ZM68.7122 61.488L67.3682 64.716H66.6362L67.5122 61.488H68.7122ZM79.1623 59.46C79.1623 59.668 79.1503 59.888 79.1263 60.12H73.8703C73.9103 60.768 74.1303 61.276 74.5303 61.644C74.9383 62.004 75.4303 62.184 76.0063 62.184C76.4783 62.184 76.8703 62.076 77.1823 61.86C77.5023 61.636 77.7263 61.34 77.8543 60.972H79.0303C78.8543 61.604 78.5023 62.12 77.9743 62.52C77.4463 62.912 76.7903 63.108 76.0063 63.108C75.3823 63.108 74.8223 62.968 74.3263 62.688C73.8383 62.408 73.4543 62.012 73.1743 61.5C72.8943 60.98 72.7543 60.38 72.7543 59.7C72.7543 59.02 72.8903 58.424 73.1623 57.912C73.4343 57.4 73.8143 57.008 74.3023 56.736C74.7983 56.456 75.3663 56.316 76.0063 56.316C76.6303 56.316 77.1823 56.452 77.6623 56.724C78.1423 56.996 78.5103 57.372 78.7663 57.852C79.0303 58.324 79.1623 58.86 79.1623 59.46ZM78.0343 59.232C78.0343 58.816 77.9423 58.46 77.7583 58.164C77.5743 57.86 77.3223 57.632 77.0023 57.48C76.6903 57.32 76.3423 57.24 75.9583 57.24C75.4063 57.24 74.9343 57.416 74.5423 57.768C74.1583 58.12 73.9383 58.608 73.8823 59.232H78.0343ZM81.6957 54.12V63H80.6037V54.12H81.6957ZM89.5568 59.46C89.5568 59.668 89.5448 59.888 89.5208 60.12H84.2648C84.3048 60.768 84.5248 61.276 84.9248 61.644C85.3328 62.004 85.8248 62.184 86.4008 62.184C86.8728 62.184 87.2648 62.076 87.5768 61.86C87.8968 61.636 88.1208 61.34 88.2488 60.972H89.4248C89.2488 61.604 88.8968 62.12 88.3688 62.52C87.8408 62.912 87.1848 63.108 86.4008 63.108C85.7768 63.108 85.2168 62.968 84.7208 62.688C84.2328 62.408 83.8488 62.012 83.5688 61.5C83.2888 60.98 83.1488 60.38 83.1488 59.7C83.1488 59.02 83.2848 58.424 83.5568 57.912C83.8288 57.4 84.2088 57.008 84.6968 56.736C85.1928 56.456 85.7608 56.316 86.4008 56.316C87.0248 56.316 87.5768 56.452 88.0568 56.724C88.5368 56.996 88.9048 57.372 89.1608 57.852C89.4248 58.324 89.5568 58.86 89.5568 59.46ZM88.4288 59.232C88.4288 58.816 88.3368 58.46 88.1528 58.164C87.9688 57.86 87.7168 57.632 87.3968 57.48C87.0848 57.32 86.7368 57.24 86.3528 57.24C85.8008 57.24 85.3288 57.416 84.9368 57.768C84.5528 58.12 84.3328 58.608 84.2768 59.232H88.4288ZM93.3262 63.108C92.8222 63.108 92.3702 63.024 91.9702 62.856C91.5702 62.68 91.2542 62.44 91.0222 62.136C90.7902 61.824 90.6622 61.468 90.6382 61.068H91.7662C91.7982 61.396 91.9502 61.664 92.2222 61.872C92.5022 62.08 92.8662 62.184 93.3142 62.184C93.7302 62.184 94.0582 62.092 94.2982 61.908C94.5382 61.724 94.6582 61.492 94.6582 61.212C94.6582 60.924 94.5302 60.712 94.2742 60.576C94.0182 60.432 93.6222 60.292 93.0862 60.156C92.5982 60.028 92.1982 59.9 91.8862 59.772C91.5822 59.636 91.3182 59.44 91.0942 59.184C90.8782 58.92 90.7702 58.576 90.7702 58.152C90.7702 57.816 90.8702 57.508 91.0702 57.228C91.2702 56.948 91.5542 56.728 91.9222 56.568C92.2902 56.4 92.7102 56.316 93.1822 56.316C93.9102 56.316 94.4982 56.5 94.9462 56.868C95.3942 57.236 95.6342 57.74 95.6662 58.38H94.5742C94.5502 58.036 94.4102 57.76 94.1542 57.552C93.9062 57.344 93.5702 57.24 93.1462 57.24C92.7542 57.24 92.4422 57.324 92.2102 57.492C91.9782 57.66 91.8622 57.88 91.8622 58.152C91.8622 58.368 91.9302 58.548 92.0662 58.692C92.2102 58.828 92.3862 58.94 92.5942 59.028C92.8102 59.108 93.1062 59.2 93.4822 59.304C93.9542 59.432 94.3382 59.56 94.6342 59.688C94.9302 59.808 95.1822 59.992 95.3902 60.24C95.6062 60.488 95.7182 60.812 95.7262 61.212C95.7262 61.572 95.6262 61.896 95.4262 62.184C95.2262 62.472 94.9422 62.7 94.5742 62.868C94.2142 63.028 93.7982 63.108 93.3262 63.108ZM101.055 55.356C100.847 55.356 100.671 55.284 100.527 55.14C100.391 54.996 100.323 54.82 100.323 54.612C100.323 54.404 100.391 54.228 100.527 54.084C100.671 53.94 100.847 53.868 101.055 53.868C101.263 53.868 101.435 53.94 101.571 54.084C101.715 54.228 101.787 54.404 101.787 54.612C101.787 54.82 101.715 54.996 101.571 55.14C101.435 55.284 101.263 55.356 101.055 55.356ZM101.595 64.428C101.595 65.012 101.447 65.44 101.151 65.712C100.855 65.984 100.423 66.12 99.855 66.12H99.219V65.196H99.675C99.979 65.196 100.191 65.136 100.311 65.016C100.439 64.896 100.503 64.692 100.503 64.404V56.424H101.595V64.428ZM103.036 59.688C103.036 59.016 103.172 58.428 103.444 57.924C103.716 57.412 104.088 57.016 104.56 56.736C105.04 56.456 105.572 56.316 106.156 56.316C106.732 56.316 107.232 56.44 107.656 56.688C108.08 56.936 108.396 57.248 108.604 57.624V56.424H109.708V63H108.604V61.776C108.388 62.16 108.064 62.48 107.632 62.736C107.208 62.984 106.712 63.108 106.144 63.108C105.56 63.108 105.032 62.964 104.56 62.676C104.088 62.388 103.716 61.984 103.444 61.464C103.172 60.944 103.036 60.352 103.036 59.688ZM108.604 59.7C108.604 59.204 108.504 58.772 108.304 58.404C108.104 58.036 107.832 57.756 107.488 57.564C107.152 57.364 106.78 57.264 106.372 57.264C105.964 57.264 105.592 57.36 105.256 57.552C104.92 57.744 104.652 58.024 104.452 58.392C104.252 58.76 104.152 59.192 104.152 59.688C104.152 60.192 104.252 60.632 104.452 61.008C104.652 61.376 104.92 61.66 105.256 61.86C105.592 62.052 105.964 62.148 106.372 62.148C106.78 62.148 107.152 62.052 107.488 61.86C107.832 61.66 108.104 61.376 108.304 61.008C108.504 60.632 108.604 60.196 108.604 59.7ZM107.752 54.564L105.196 55.932V55.116L107.752 53.616V54.564ZM22.516 77.7C22.516 77.02 22.652 76.428 22.924 75.924C23.196 75.412 23.572 75.016 24.052 74.736C24.54 74.456 25.096 74.316 25.72 74.316C26.528 74.316 27.192 74.512 27.712 74.904C28.24 75.296 28.588 75.84 28.756 76.536H27.58C27.468 76.136 27.248 75.82 26.92 75.588C26.6 75.356 26.2 75.24 25.72 75.24C25.096 75.24 24.592 75.456 24.208 75.888C23.824 76.312 23.632 76.916 23.632 77.7C23.632 78.492 23.824 79.104 24.208 79.536C24.592 79.968 25.096 80.184 25.72 80.184C26.2 80.184 26.6 80.072 26.92 79.848C27.24 79.624 27.46 79.304 27.58 78.888H28.756C28.58 79.56 28.228 80.1 27.7 80.508C27.172 80.908 26.512 81.108 25.72 81.108C25.096 81.108 24.54 80.968 24.052 80.688C23.572 80.408 23.196 80.012 22.924 79.5C22.652 78.988 22.516 78.388 22.516 77.7ZM33.0811 81.108C32.4651 81.108 31.9051 80.968 31.4011 80.688C30.9051 80.408 30.5131 80.012 30.2251 79.5C29.9451 78.98 29.8051 78.38 29.8051 77.7C29.8051 77.028 29.9491 76.436 30.2371 75.924C30.5331 75.404 30.9331 75.008 31.4371 74.736C31.9411 74.456 32.5051 74.316 33.1291 74.316C33.7531 74.316 34.3171 74.456 34.8211 74.736C35.3251 75.008 35.7211 75.4 36.0091 75.912C36.3051 76.424 36.4531 77.02 36.4531 77.7C36.4531 78.38 36.3011 78.98 35.9971 79.5C35.7011 80.012 35.2971 80.408 34.7851 80.688C34.2731 80.968 33.7051 81.108 33.0811 81.108ZM33.0811 80.148C33.4731 80.148 33.8411 80.056 34.1851 79.872C34.5291 79.688 34.8051 79.412 35.0131 79.044C35.2291 78.676 35.3371 78.228 35.3371 77.7C35.3371 77.172 35.2331 76.724 35.0251 76.356C34.8171 75.988 34.5451 75.716 34.2091 75.54C33.8731 75.356 33.5091 75.264 33.1171 75.264C32.7171 75.264 32.3491 75.356 32.0131 75.54C31.6851 75.716 31.4211 75.988 31.2211 76.356C31.0211 76.724 30.9211 77.172 30.9211 77.7C30.9211 78.236 31.0171 78.688 31.2091 79.056C31.4091 79.424 31.6731 79.7 32.0011 79.884C32.3291 80.06 32.6891 80.148 33.0811 80.148ZM41.0928 74.304C41.8928 74.304 42.5408 74.548 43.0368 75.036C43.5328 75.516 43.7808 76.212 43.7808 77.124V81H42.7008V77.28C42.7008 76.624 42.5368 76.124 42.2088 75.78C41.8808 75.428 41.4328 75.252 40.8648 75.252C40.2888 75.252 39.8288 75.432 39.4848 75.792C39.1488 76.152 38.9808 76.676 38.9808 77.364V81H37.8888V74.424H38.9808V75.36C39.1968 75.024 39.4888 74.764 39.8568 74.58C40.2328 74.396 40.6448 74.304 41.0928 74.304ZM46.8966 75.324V79.2C46.8966 79.52 46.9646 79.748 47.1006 79.884C47.2366 80.012 47.4726 80.076 47.8086 80.076H48.6126V81H47.6286C47.0206 81 46.5646 80.86 46.2606 80.58C45.9566 80.3 45.8046 79.84 45.8046 79.2V75.324H44.9526V74.424H45.8046V72.768H46.8966V74.424H48.6126V75.324H46.8966ZM49.5277 77.688C49.5277 77.016 49.6637 76.428 49.9357 75.924C50.2077 75.412 50.5797 75.016 51.0517 74.736C51.5317 74.456 52.0637 74.316 52.6477 74.316C53.2237 74.316 53.7237 74.44 54.1477 74.688C54.5717 74.936 54.8877 75.248 55.0957 75.624V74.424H56.1997V81H55.0957V79.776C54.8797 80.16 54.5557 80.48 54.1237 80.736C53.6997 80.984 53.2037 81.108 52.6357 81.108C52.0517 81.108 51.5237 80.964 51.0517 80.676C50.5797 80.388 50.2077 79.984 49.9357 79.464C49.6637 78.944 49.5277 78.352 49.5277 77.688ZM55.0957 77.7C55.0957 77.204 54.9957 76.772 54.7957 76.404C54.5957 76.036 54.3237 75.756 53.9797 75.564C53.6437 75.364 53.2717 75.264 52.8637 75.264C52.4557 75.264 52.0837 75.36 51.7477 75.552C51.4117 75.744 51.1437 76.024 50.9437 76.392C50.7437 76.76 50.6437 77.192 50.6437 77.688C50.6437 78.192 50.7437 78.632 50.9437 79.008C51.1437 79.376 51.4117 79.66 51.7477 79.86C52.0837 80.052 52.4557 80.148 52.8637 80.148C53.2717 80.148 53.6437 80.052 53.9797 79.86C54.3237 79.66 54.5957 79.376 54.7957 79.008C54.9957 78.632 55.0957 78.196 55.0957 77.7ZM59.1371 75.648C59.3611 75.256 59.6891 74.936 60.1211 74.688C60.5531 74.44 61.0451 74.316 61.5971 74.316C62.1891 74.316 62.7211 74.456 63.1931 74.736C63.6651 75.016 64.0371 75.412 64.3091 75.924C64.5811 76.428 64.7171 77.016 64.7171 77.688C64.7171 78.352 64.5811 78.944 64.3091 79.464C64.0371 79.984 63.6611 80.388 63.1811 80.676C62.7091 80.964 62.1811 81.108 61.5971 81.108C61.0291 81.108 60.5291 80.984 60.0971 80.736C59.6731 80.488 59.3531 80.172 59.1371 79.788V81H58.0451V72.12H59.1371V75.648ZM63.6011 77.688C63.6011 77.192 63.5011 76.76 63.3011 76.392C63.1011 76.024 62.8291 75.744 62.4851 75.552C62.1491 75.36 61.7771 75.264 61.3691 75.264C60.9691 75.264 60.5971 75.364 60.2531 75.564C59.9171 75.756 59.6451 76.04 59.4371 76.416C59.2371 76.784 59.1371 77.212 59.1371 77.7C59.1371 78.196 59.2371 78.632 59.4371 79.008C59.6451 79.376 59.9171 79.66 60.2531 79.86C60.5971 80.052 60.9691 80.148 61.3691 80.148C61.7771 80.148 62.1491 80.052 62.4851 79.86C62.8291 79.66 63.1011 79.376 63.3011 79.008C63.5011 78.632 63.6011 78.192 63.6011 77.688ZM66.7185 73.356C66.5105 73.356 66.3345 73.284 66.1905 73.14C66.0465 72.996 65.9745 72.82 65.9745 72.612C65.9745 72.404 66.0465 72.228 66.1905 72.084C66.3345 71.94 66.5105 71.868 66.7185 71.868C66.9185 71.868 67.0865 71.94 67.2225 72.084C67.3665 72.228 67.4385 72.404 67.4385 72.612C67.4385 72.82 67.3665 72.996 67.2225 73.14C67.0865 73.284 66.9185 73.356 66.7185 73.356ZM67.2465 74.424V81H66.1545V74.424H67.2465ZM70.1996 72.12V81H69.1076V72.12H70.1996ZM72.6247 73.356C72.4167 73.356 72.2407 73.284 72.0967 73.14C71.9527 72.996 71.8807 72.82 71.8807 72.612C71.8807 72.404 71.9527 72.228 72.0967 72.084C72.2407 71.94 72.4167 71.868 72.6247 71.868C72.8247 71.868 72.9927 71.94 73.1287 72.084C73.2727 72.228 73.3447 72.404 73.3447 72.612C73.3447 72.82 73.2727 72.996 73.1287 73.14C72.9927 73.284 72.8247 73.356 72.6247 73.356ZM73.1527 74.424V81H72.0607V74.424H73.1527ZM75.8298 80.1H79.0578V81H74.5818V80.1L77.7738 75.312H74.6058V74.424H79.0338V75.312L75.8298 80.1ZM80.0668 77.688C80.0668 77.016 80.2028 76.428 80.4748 75.924C80.7468 75.412 81.1188 75.016 81.5908 74.736C82.0708 74.456 82.6028 74.316 83.1868 74.316C83.7628 74.316 84.2628 74.44 84.6868 74.688C85.1108 74.936 85.4268 75.248 85.6348 75.624V74.424H86.7388V81H85.6348V79.776C85.4188 80.16 85.0948 80.48 84.6628 80.736C84.2388 80.984 83.7428 81.108 83.1748 81.108C82.5908 81.108 82.0628 80.964 81.5908 80.676C81.1188 80.388 80.7468 79.984 80.4748 79.464C80.2028 78.944 80.0668 78.352 80.0668 77.688ZM85.6348 77.7C85.6348 77.204 85.5348 76.772 85.3348 76.404C85.1348 76.036 84.8628 75.756 84.5188 75.564C84.1828 75.364 83.8108 75.264 83.4028 75.264C82.9948 75.264 82.6228 75.36 82.2868 75.552C81.9508 75.744 81.6828 76.024 81.4828 76.392C81.2828 76.76 81.1828 77.192 81.1828 77.688C81.1828 78.192 81.2828 78.632 81.4828 79.008C81.6828 79.376 81.9508 79.66 82.2868 79.86C82.6228 80.052 82.9948 80.148 83.4028 80.148C83.8108 80.148 84.1828 80.052 84.5188 79.86C84.8628 79.66 85.1348 79.376 85.3348 79.008C85.5348 78.632 85.6348 78.196 85.6348 77.7ZM96.4922 74.304C97.0042 74.304 97.4602 74.412 97.8602 74.628C98.2602 74.836 98.5762 75.152 98.8082 75.576C99.0402 76 99.1562 76.516 99.1562 77.124V81H98.0762V77.28C98.0762 76.624 97.9122 76.124 97.5842 75.78C97.2642 75.428 96.8282 75.252 96.2762 75.252C95.7082 75.252 95.2562 75.436 94.9202 75.804C94.5842 76.164 94.4162 76.688 94.4162 77.376V81H93.3362V77.28C93.3362 76.624 93.1722 76.124 92.8442 75.78C92.5242 75.428 92.0882 75.252 91.5362 75.252C90.9682 75.252 90.5162 75.436 90.1802 75.804C89.8442 76.164 89.6762 76.688 89.6762 77.376V81H88.5842V74.424H89.6762V75.372C89.8922 75.028 90.1802 74.764 90.5402 74.58C90.9082 74.396 91.3122 74.304 91.7522 74.304C92.3042 74.304 92.7922 74.428 93.2162 74.676C93.6402 74.924 93.9562 75.288 94.1642 75.768C94.3482 75.304 94.6522 74.944 95.0762 74.688C95.5002 74.432 95.9722 74.304 96.4922 74.304ZM107.015 81.108C106.399 81.108 105.839 80.968 105.335 80.688C104.839 80.408 104.447 80.012 104.159 79.5C103.879 78.98 103.739 78.38 103.739 77.7C103.739 77.028 103.883 76.436 104.171 75.924C104.467 75.404 104.867 75.008 105.371 74.736C105.875 74.456 106.439 74.316 107.063 74.316C107.687 74.316 108.251 74.456 108.755 74.736C109.259 75.008 109.655 75.4 109.943 75.912C110.239 76.424 110.387 77.02 110.387 77.7C110.387 78.38 110.235 78.98 109.931 79.5C109.635 80.012 109.231 80.408 108.719 80.688C108.207 80.968 107.639 81.108 107.015 81.108ZM107.015 80.148C107.407 80.148 107.775 80.056 108.119 79.872C108.463 79.688 108.739 79.412 108.947 79.044C109.163 78.676 109.271 78.228 109.271 77.7C109.271 77.172 109.167 76.724 108.959 76.356C108.751 75.988 108.479 75.716 108.143 75.54C107.807 75.356 107.443 75.264 107.051 75.264C106.651 75.264 106.283 75.356 105.947 75.54C105.619 75.716 105.355 75.988 105.155 76.356C104.955 76.724 104.855 77.172 104.855 77.7C104.855 78.236 104.951 78.688 105.143 79.056C105.343 79.424 105.607 79.7 105.935 79.884C106.263 80.06 106.623 80.148 107.015 80.148ZM147.814 79.488L146.47 82.716H145.738L146.614 79.488H147.814ZM25.792 99.108C25.176 99.108 24.616 98.968 24.112 98.688C23.616 98.408 23.224 98.012 22.936 97.5C22.656 96.98 22.516 96.38 22.516 95.7C22.516 95.028 22.66 94.436 22.948 93.924C23.244 93.404 23.644 93.008 24.148 92.736C24.652 92.456 25.216 92.316 25.84 92.316C26.464 92.316 27.028 92.456 27.532 92.736C28.036 93.008 28.432 93.4 28.72 93.912C29.016 94.424 29.164 95.02 29.164 95.7C29.164 96.38 29.012 96.98 28.708 97.5C28.412 98.012 28.008 98.408 27.496 98.688C26.984 98.968 26.416 99.108 25.792 99.108ZM25.792 98.148C26.184 98.148 26.552 98.056 26.896 97.872C27.24 97.688 27.516 97.412 27.724 97.044C27.94 96.676 28.048 96.228 28.048 95.7C28.048 95.172 27.944 94.724 27.736 94.356C27.528 93.988 27.256 93.716 26.92 93.54C26.584 93.356 26.22 93.264 25.828 93.264C25.428 93.264 25.06 93.356 24.724 93.54C24.396 93.716 24.132 93.988 23.932 94.356C23.732 94.724 23.632 95.172 23.632 95.7C23.632 96.236 23.728 96.688 23.92 97.056C24.12 97.424 24.384 97.7 24.712 97.884C25.04 98.06 25.4 98.148 25.792 98.148ZM36.4318 92.424V99H35.3398V98.028C35.1318 98.364 34.8398 98.628 34.4638 98.82C34.0958 99.004 33.6878 99.096 33.2398 99.096C32.7278 99.096 32.2678 98.992 31.8598 98.784C31.4518 98.568 31.1278 98.248 30.8878 97.824C30.6558 97.4 30.5398 96.884 30.5398 96.276V92.424H31.6198V96.132C31.6198 96.78 31.7838 97.28 32.1118 97.632C32.4398 97.976 32.8878 98.148 33.4558 98.148C34.0398 98.148 34.4998 97.968 34.8358 97.608C35.1718 97.248 35.3398 96.724 35.3398 96.036V92.424H36.4318ZM82.088 93.324V97.2C82.088 97.52 82.156 97.748 82.292 97.884C82.428 98.012 82.664 98.076 83 98.076H83.804V99H82.82C82.212 99 81.756 98.86 81.452 98.58C81.148 98.3 80.996 97.84 80.996 97.2V93.324H80.144V92.424H80.996V90.768H82.088V92.424H83.804V93.324H82.088ZM87.9951 99.108C87.3791 99.108 86.8191 98.968 86.3151 98.688C85.8191 98.408 85.4271 98.012 85.1391 97.5C84.8591 96.98 84.7191 96.38 84.7191 95.7C84.7191 95.028 84.8631 94.436 85.1511 93.924C85.4471 93.404 85.8471 93.008 86.3511 92.736C86.8551 92.456 87.4191 92.316 88.0431 92.316C88.6671 92.316 89.2311 92.456 89.7351 92.736C90.2391 93.008 90.6351 93.4 90.9231 93.912C91.2191 94.424 91.3671 95.02 91.3671 95.7C91.3671 96.38 91.2151 96.98 90.9111 97.5C90.6151 98.012 90.2111 98.408 89.6991 98.688C89.1871 98.968 88.6191 99.108 87.9951 99.108ZM87.9951 98.148C88.3871 98.148 88.7551 98.056 89.0991 97.872C89.4431 97.688 89.7191 97.412 89.9271 97.044C90.1431 96.676 90.2511 96.228 90.2511 95.7C90.2511 95.172 90.1471 94.724 89.9391 94.356C89.7311 93.988 89.4591 93.716 89.1231 93.54C88.7871 93.356 88.4231 93.264 88.0311 93.264C87.6311 93.264 87.2631 93.356 86.9271 93.54C86.5991 93.716 86.3351 93.988 86.1351 94.356C85.9351 94.724 85.8351 95.172 85.8351 95.7C85.8351 96.236 85.9311 96.688 86.1231 97.056C86.3231 97.424 86.5871 97.7 86.9151 97.884C87.2431 98.06 87.6031 98.148 87.9951 98.148ZM94.1349 93.324V97.2C94.1349 97.52 94.2029 97.748 94.3389 97.884C94.4749 98.012 94.7109 98.076 95.0469 98.076H95.8509V99H94.8669C94.2589 99 93.8029 98.86 93.4989 98.58C93.1949 98.3 93.0429 97.84 93.0429 97.2V93.324H92.1909V92.424H93.0429V90.768H94.1349V92.424H95.8509V93.324H94.1349ZM96.766 95.688C96.766 95.016 96.902 94.428 97.174 93.924C97.446 93.412 97.818 93.016 98.29 92.736C98.77 92.456 99.302 92.316 99.886 92.316C100.462 92.316 100.962 92.44 101.386 92.688C101.81 92.936 102.126 93.248 102.334 93.624V92.424H103.438V99H102.334V97.776C102.118 98.16 101.794 98.48 101.362 98.736C100.938 98.984 100.442 99.108 99.874 99.108C99.29 99.108 98.762 98.964 98.29 98.676C97.818 98.388 97.446 97.984 97.174 97.464C96.902 96.944 96.766 96.352 96.766 95.688ZM102.334 95.7C102.334 95.204 102.234 94.772 102.034 94.404C101.834 94.036 101.562 93.756 101.218 93.564C100.882 93.364 100.51 93.264 100.102 93.264C99.694 93.264 99.322 93.36 98.986 93.552C98.65 93.744 98.382 94.024 98.182 94.392C97.982 94.76 97.882 95.192 97.882 95.688C97.882 96.192 97.982 96.632 98.182 97.008C98.382 97.376 98.65 97.66 98.986 97.86C99.322 98.052 99.694 98.148 100.102 98.148C100.51 98.148 100.882 98.052 101.218 97.86C101.562 97.66 101.834 97.376 102.034 97.008C102.234 96.632 102.334 96.196 102.334 95.7ZM106.375 90.12V99H105.283V90.12H106.375ZM109.653 90.636L109.521 96.636H108.609L108.477 90.636H109.653ZM109.113 99.072C108.905 99.072 108.729 99 108.585 98.856C108.441 98.712 108.369 98.536 108.369 98.328C108.369 98.12 108.441 97.944 108.585 97.8C108.729 97.656 108.905 97.584 109.113 97.584C109.313 97.584 109.481 97.656 109.617 97.8C109.761 97.944 109.833 98.12 109.833 98.328C109.833 98.536 109.761 98.712 109.617 98.856C109.481 99 109.313 99.072 109.113 99.072Z" fill="white"/>
<path d="M116.894 72.12V81H114.842V72.12H116.894ZM124.993 74.304V81H122.941V80.088C122.733 80.384 122.449 80.624 122.089 80.808C121.737 80.984 121.345 81.072 120.913 81.072C120.401 81.072 119.949 80.96 119.557 80.736C119.165 80.504 118.861 80.172 118.645 79.74C118.429 79.308 118.321 78.8 118.321 78.216V74.304H120.361V77.94C120.361 78.388 120.477 78.736 120.709 78.984C120.941 79.232 121.253 79.356 121.645 79.356C122.045 79.356 122.361 79.232 122.593 78.984C122.825 78.736 122.941 78.388 122.941 77.94V74.304H124.993ZM126.059 77.652C126.059 76.956 126.199 76.348 126.479 75.828C126.767 75.308 127.163 74.908 127.667 74.628C128.179 74.348 128.763 74.208 129.419 74.208C130.259 74.208 130.959 74.428 131.519 74.868C132.087 75.308 132.459 75.928 132.635 76.728H130.451C130.267 76.216 129.911 75.96 129.383 75.96C129.007 75.96 128.707 76.108 128.483 76.404C128.259 76.692 128.147 77.108 128.147 77.652C128.147 78.196 128.259 78.616 128.483 78.912C128.707 79.2 129.007 79.344 129.383 79.344C129.911 79.344 130.267 79.088 130.451 78.576H132.635C132.459 79.36 132.087 79.976 131.519 80.424C130.951 80.872 130.251 81.096 129.419 81.096C128.763 81.096 128.179 80.956 127.667 80.676C127.163 80.396 126.767 79.996 126.479 79.476C126.199 78.956 126.059 78.348 126.059 77.652ZM135.784 75.42C136.024 75.052 136.324 74.764 136.684 74.556C137.044 74.34 137.444 74.232 137.884 74.232V76.404H137.32C136.808 76.404 136.424 76.516 136.168 76.74C135.912 76.956 135.784 77.34 135.784 77.892V81H133.732V74.304H135.784V75.42ZM141.913 81.096C141.257 81.096 140.665 80.956 140.137 80.676C139.617 80.396 139.205 79.996 138.901 79.476C138.605 78.956 138.457 78.348 138.457 77.652C138.457 76.964 138.609 76.36 138.913 75.84C139.217 75.312 139.633 74.908 140.161 74.628C140.689 74.348 141.281 74.208 141.937 74.208C142.593 74.208 143.185 74.348 143.713 74.628C144.241 74.908 144.657 75.312 144.961 75.84C145.265 76.36 145.417 76.964 145.417 77.652C145.417 78.34 145.261 78.948 144.949 79.476C144.645 79.996 144.225 80.396 143.689 80.676C143.161 80.956 142.569 81.096 141.913 81.096ZM141.913 79.32C142.305 79.32 142.637 79.176 142.909 78.888C143.189 78.6 143.329 78.188 143.329 77.652C143.329 77.116 143.193 76.704 142.921 76.416C142.657 76.128 142.329 75.984 141.937 75.984C141.537 75.984 141.205 76.128 140.941 76.416C140.677 76.696 140.545 77.108 140.545 77.652C140.545 78.188 140.673 78.6 140.929 78.888C141.193 79.176 141.521 79.32 141.913 79.32Z" fill="#04D47C"/>
<path d="M43.3468 93.252C43.5468 92.94 43.8228 92.688 44.1748 92.496C44.5268 92.304 44.9388 92.208 45.4108 92.208C45.9628 92.208 46.4628 92.348 46.9108 92.628C47.3588 92.908 47.7108 93.308 47.9668 93.828C48.2308 94.348 48.3628 94.952 48.3628 95.64C48.3628 96.328 48.2308 96.936 47.9668 97.464C47.7108 97.984 47.3588 98.388 46.9108 98.676C46.4628 98.956 45.9628 99.096 45.4108 99.096C44.9468 99.096 44.5348 99 44.1748 98.808C43.8228 98.616 43.5468 98.368 43.3468 98.064V102.192H41.2948V92.304H43.3468V93.252ZM46.2748 95.64C46.2748 95.128 46.1308 94.728 45.8428 94.44C45.5628 94.144 45.2148 93.996 44.7988 93.996C44.3908 93.996 44.0428 94.144 43.7548 94.44C43.4748 94.736 43.3348 95.14 43.3348 95.652C43.3348 96.164 43.4748 96.568 43.7548 96.864C44.0428 97.16 44.3908 97.308 44.7988 97.308C45.2068 97.308 45.5548 97.16 45.8428 96.864C46.1308 96.56 46.2748 96.152 46.2748 95.64ZM55.7513 95.544C55.7513 95.736 55.7393 95.936 55.7153 96.144H51.0713C51.1033 96.56 51.2353 96.88 51.4673 97.104C51.7073 97.32 51.9993 97.428 52.3433 97.428C52.8553 97.428 53.2113 97.212 53.4113 96.78H55.5953C55.4833 97.22 55.2793 97.616 54.9833 97.968C54.6953 98.32 54.3313 98.596 53.8913 98.796C53.4513 98.996 52.9593 99.096 52.4153 99.096C51.7593 99.096 51.1753 98.956 50.6633 98.676C50.1513 98.396 49.7513 97.996 49.4633 97.476C49.1753 96.956 49.0313 96.348 49.0313 95.652C49.0313 94.956 49.1713 94.348 49.4513 93.828C49.7393 93.308 50.1393 92.908 50.6513 92.628C51.1633 92.348 51.7513 92.208 52.4153 92.208C53.0633 92.208 53.6393 92.344 54.1433 92.616C54.6473 92.888 55.0393 93.276 55.3193 93.78C55.6073 94.284 55.7513 94.872 55.7513 95.544ZM53.6513 95.004C53.6513 94.652 53.5313 94.372 53.2913 94.164C53.0513 93.956 52.7513 93.852 52.3913 93.852C52.0473 93.852 51.7553 93.952 51.5153 94.152C51.2833 94.352 51.1393 94.636 51.0833 95.004H53.6513ZM58.8858 93.42C59.1258 93.052 59.4258 92.764 59.7858 92.556C60.1458 92.34 60.5458 92.232 60.9858 92.232V94.404H60.4218C59.9098 94.404 59.5258 94.516 59.2698 94.74C59.0138 94.956 58.8858 95.34 58.8858 95.892V99H56.8338V92.304H58.8858V93.42ZM61.5587 95.652C61.5587 94.956 61.6987 94.348 61.9787 93.828C62.2667 93.308 62.6627 92.908 63.1667 92.628C63.6787 92.348 64.2627 92.208 64.9187 92.208C65.7587 92.208 66.4587 92.428 67.0187 92.868C67.5867 93.308 67.9587 93.928 68.1347 94.728H65.9507C65.7667 94.216 65.4107 93.96 64.8827 93.96C64.5067 93.96 64.2067 94.108 63.9827 94.404C63.7587 94.692 63.6467 95.108 63.6467 95.652C63.6467 96.196 63.7587 96.616 63.9827 96.912C64.2067 97.2 64.5067 97.344 64.8827 97.344C65.4107 97.344 65.7667 97.088 65.9507 96.576H68.1347C67.9587 97.36 67.5867 97.976 67.0187 98.424C66.4507 98.872 65.7507 99.096 64.9187 99.096C64.2627 99.096 63.6787 98.956 63.1667 98.676C62.6627 98.396 62.2667 97.996 61.9787 97.476C61.6987 96.956 61.5587 96.348 61.5587 95.652ZM68.8243 95.64C68.8243 94.952 68.9523 94.348 69.2083 93.828C69.4723 93.308 69.8283 92.908 70.2763 92.628C70.7243 92.348 71.2243 92.208 71.7763 92.208C72.2483 92.208 72.6603 92.304 73.0123 92.496C73.3723 92.688 73.6483 92.94 73.8403 93.252V92.304H75.8923V99H73.8403V98.052C73.6403 98.364 73.3603 98.616 73.0003 98.808C72.6483 99 72.2363 99.096 71.7643 99.096C71.2203 99.096 70.7243 98.956 70.2763 98.676C69.8283 98.388 69.4723 97.984 69.2083 97.464C68.9523 96.936 68.8243 96.328 68.8243 95.64ZM73.8403 95.652C73.8403 95.14 73.6963 94.736 73.4083 94.44C73.1283 94.144 72.7843 93.996 72.3763 93.996C71.9683 93.996 71.6203 94.144 71.3323 94.44C71.0523 94.728 70.9123 95.128 70.9123 95.64C70.9123 96.152 71.0523 96.56 71.3323 96.864C71.6203 97.16 71.9683 97.308 72.3763 97.308C72.7843 97.308 73.1283 97.16 73.4083 96.864C73.6963 96.568 73.8403 96.164 73.8403 95.652Z" fill="#E81538"/>
<rect x="0.905037" y="0.553719" width="167.893" height="427.893" rx="20.4876" stroke="white" stroke-width="1.10744"/>
</svg>
