<svg width="159" height="236" viewBox="0 0 159 236" fill="none" xmlns="http://www.w3.org/2000/svg">
<g filter="url(#filter0_d_160_6137)">
<path d="M30.179 203H29.2557L31.9261 195.727H32.8352L35.5057 203H34.5824L32.4091 196.878H32.3523L30.179 203ZM30.5199 200.159H34.2415V200.94H30.5199V200.159ZM38.7266 205.159C38.3217 205.159 37.9737 205.107 37.6825 205.003C37.3913 204.901 37.1487 204.766 36.9545 204.598C36.7628 204.432 36.6101 204.255 36.4964 204.065L37.1641 203.597C37.2398 203.696 37.3357 203.81 37.4517 203.938C37.5677 204.068 37.7263 204.18 37.9276 204.275C38.1312 204.372 38.3975 204.42 38.7266 204.42C39.1669 204.42 39.5303 204.314 39.8168 204.101C40.1032 203.888 40.2464 203.554 40.2464 203.099V201.991H40.1754C40.1139 202.091 40.0263 202.214 39.9126 202.361C39.8014 202.505 39.6404 202.634 39.4297 202.748C39.2214 202.859 38.9396 202.915 38.5845 202.915C38.1442 202.915 37.7488 202.811 37.3984 202.602C37.0504 202.394 36.7746 202.091 36.571 201.693C36.3698 201.295 36.2692 200.812 36.2692 200.244C36.2692 199.686 36.3674 199.199 36.5639 198.785C36.7604 198.368 37.0339 198.046 37.3842 197.819C37.7346 197.589 38.1394 197.474 38.5987 197.474C38.9538 197.474 39.2356 197.534 39.4439 197.652C39.6546 197.768 39.8156 197.901 39.9268 198.05C40.0405 198.196 40.1281 198.317 40.1896 198.412H40.2749V197.545H41.0845V203.156C41.0845 203.625 40.978 204.006 40.7649 204.3C40.5542 204.596 40.2701 204.812 39.9126 204.95C39.5575 205.089 39.1622 205.159 38.7266 205.159ZM38.6982 202.162C39.0343 202.162 39.3184 202.085 39.5504 201.931C39.7824 201.777 39.9588 201.556 40.0795 201.267C40.2003 200.978 40.2607 200.633 40.2607 200.23C40.2607 199.837 40.2015 199.49 40.0831 199.19C39.9647 198.889 39.7895 198.653 39.5575 198.483C39.3255 198.312 39.0391 198.227 38.6982 198.227C38.343 198.227 38.0471 198.317 37.8104 198.497C37.576 198.677 37.3996 198.919 37.2813 199.222C37.1652 199.525 37.1072 199.861 37.1072 200.23C37.1072 200.609 37.1664 200.944 37.2848 201.235C37.4055 201.524 37.5831 201.751 37.8175 201.917C38.0542 202.08 38.3478 202.162 38.6982 202.162ZM44.8345 203.114C44.3421 203.114 43.91 202.996 43.5384 202.762C43.169 202.528 42.8802 202.2 42.6719 201.778C42.4659 201.357 42.3629 200.865 42.3629 200.301C42.3629 199.733 42.4659 199.237 42.6719 198.813C42.8802 198.389 43.169 198.06 43.5384 197.826C43.91 197.592 44.3421 197.474 44.8345 197.474C45.3269 197.474 45.7578 197.592 46.1271 197.826C46.4988 198.06 46.7876 198.389 46.9936 198.813C47.2019 199.237 47.3061 199.733 47.3061 200.301C47.3061 200.865 47.2019 201.357 46.9936 201.778C46.7876 202.2 46.4988 202.528 46.1271 202.762C45.7578 202.996 45.3269 203.114 44.8345 203.114ZM44.8345 202.361C45.2086 202.361 45.5163 202.265 45.7578 202.073C45.9993 201.881 46.178 201.629 46.294 201.317C46.41 201.004 46.468 200.666 46.468 200.301C46.468 199.937 46.41 199.597 46.294 199.282C46.178 198.967 45.9993 198.713 45.7578 198.518C45.5163 198.324 45.2086 198.227 44.8345 198.227C44.4605 198.227 44.1527 198.324 43.9112 198.518C43.6697 198.713 43.491 198.967 43.375 199.282C43.259 199.597 43.201 199.937 43.201 200.301C43.201 200.666 43.259 201.004 43.375 201.317C43.491 201.629 43.6697 201.881 43.9112 202.073C44.1527 202.265 44.4605 202.361 44.8345 202.361ZM48.5854 203V197.545H49.3951V198.369H49.4519C49.5513 198.099 49.7312 197.88 49.9917 197.712C50.2521 197.544 50.5456 197.46 50.8723 197.46C50.9339 197.46 51.0108 197.461 51.1032 197.464C51.1955 197.466 51.2653 197.47 51.3127 197.474V198.327C51.2843 198.32 51.2192 198.309 51.1174 198.295C51.0179 198.278 50.9126 198.27 50.8013 198.27C50.5362 198.27 50.2994 198.326 50.0911 198.437C49.8851 198.546 49.7218 198.697 49.601 198.891C49.4827 199.083 49.4235 199.302 49.4235 199.548V203H48.5854ZM53.9112 203.128C53.5656 203.128 53.2519 203.063 52.9702 202.933C52.6884 202.8 52.4647 202.609 52.299 202.361C52.1333 202.11 52.0504 201.807 52.0504 201.452C52.0504 201.139 52.112 200.886 52.2351 200.692C52.3582 200.495 52.5227 200.341 52.7287 200.23C52.9347 200.119 53.1619 200.036 53.4105 199.982C53.6615 199.925 53.9136 199.88 54.1669 199.847C54.4983 199.804 54.767 199.772 54.973 199.751C55.1813 199.727 55.3329 199.688 55.4276 199.634C55.5246 199.579 55.5732 199.484 55.5732 199.349V199.321C55.5732 198.971 55.4773 198.698 55.2855 198.504C55.0961 198.31 54.8085 198.213 54.4226 198.213C54.0225 198.213 53.7088 198.301 53.4815 198.476C53.2543 198.651 53.0945 198.838 53.0021 199.037L52.2067 198.753C52.3487 198.421 52.5381 198.163 52.7749 197.979C53.014 197.792 53.2744 197.661 53.5561 197.588C53.8402 197.512 54.1196 197.474 54.3942 197.474C54.5694 197.474 54.7706 197.496 54.9979 197.538C55.2275 197.579 55.4489 197.663 55.6619 197.79C55.8774 197.918 56.0561 198.111 56.1982 198.369C56.3402 198.627 56.4112 198.973 56.4112 199.406V203H55.5732V202.261H55.5305C55.4737 202.38 55.379 202.506 55.2465 202.641C55.1139 202.776 54.9375 202.891 54.7173 202.986C54.4972 203.08 54.2285 203.128 53.9112 203.128ZM54.0391 202.375C54.3705 202.375 54.6499 202.31 54.8771 202.18C55.1068 202.049 55.2796 201.881 55.3956 201.675C55.514 201.469 55.5732 201.253 55.5732 201.026V200.259C55.5376 200.301 55.4595 200.34 55.3388 200.376C55.2204 200.409 55.0831 200.438 54.9268 200.464C54.773 200.488 54.6226 200.509 54.4759 200.528C54.3314 200.545 54.2143 200.559 54.1243 200.571C53.9065 200.599 53.7029 200.646 53.5135 200.71C53.3265 200.771 53.175 200.865 53.059 200.99C52.9453 201.113 52.8885 201.281 52.8885 201.494C52.8885 201.786 52.9962 202.006 53.2116 202.155C53.4295 202.302 53.7053 202.375 54.0391 202.375ZM62.9693 203.114C62.4579 203.114 62.0176 202.993 61.6483 202.751C61.2789 202.51 60.9949 202.177 60.796 201.754C60.5971 201.33 60.4977 200.846 60.4977 200.301C60.4977 199.747 60.5995 199.258 60.8031 198.835C61.0091 198.408 61.2955 198.076 61.6625 197.837C62.0318 197.595 62.4627 197.474 62.9551 197.474C63.3386 197.474 63.6842 197.545 63.992 197.687C64.2998 197.83 64.5519 198.028 64.7484 198.284C64.9449 198.54 65.0668 198.838 65.1142 199.179H64.2761C64.2122 198.93 64.0701 198.71 63.85 198.518C63.6322 198.324 63.3386 198.227 62.9693 198.227C62.6426 198.227 62.3561 198.312 62.1099 198.483C61.8661 198.651 61.6755 198.889 61.5382 199.197C61.4032 199.502 61.3358 199.861 61.3358 200.273C61.3358 200.694 61.402 201.061 61.5346 201.374C61.6696 201.686 61.859 201.929 62.1028 202.102C62.349 202.274 62.6378 202.361 62.9693 202.361C63.1871 202.361 63.3848 202.323 63.5623 202.247C63.7399 202.171 63.8902 202.062 64.0133 201.92C64.1364 201.778 64.224 201.608 64.2761 201.409H65.1142C65.0668 201.731 64.9496 202.021 64.7626 202.279C64.5779 202.535 64.3329 202.738 64.0275 202.89C63.7245 203.039 63.3717 203.114 62.9693 203.114ZM67.1774 195.727V203H66.3393V195.727H67.1774ZM68.7124 203V197.545H69.5504V203H68.7124ZM69.1385 196.636C68.9751 196.636 68.8343 196.581 68.7159 196.469C68.5999 196.358 68.5419 196.224 68.5419 196.068C68.5419 195.912 68.5999 195.778 68.7159 195.667C68.8343 195.556 68.9751 195.5 69.1385 195.5C69.3019 195.5 69.4415 195.556 69.5575 195.667C69.6759 195.778 69.7351 195.912 69.7351 196.068C69.7351 196.224 69.6759 196.358 69.5575 196.469C69.4415 196.581 69.3019 196.636 69.1385 196.636ZM74.807 205.045V202.162H74.736C74.6744 202.261 74.5868 202.387 74.4732 202.538C74.3596 202.687 74.1974 202.821 73.9867 202.94C73.776 203.056 73.4954 203.114 73.1451 203.114C72.6905 203.114 72.2892 202.999 71.9412 202.769C71.5932 202.537 71.321 202.21 71.1245 201.789C70.928 201.365 70.8297 200.865 70.8297 200.287C70.8297 199.714 70.928 199.217 71.1245 198.795C71.321 198.374 71.5944 198.049 71.9448 197.819C72.2952 197.589 72.7 197.474 73.1593 197.474C73.5144 197.474 73.7949 197.534 74.0009 197.652C74.2092 197.768 74.3678 197.901 74.4767 198.05C74.588 198.196 74.6744 198.317 74.736 198.412H74.8354V197.545H75.6451V205.045H74.807ZM73.2587 202.361C73.5949 202.361 73.879 202.273 74.111 202.098C74.343 201.92 74.5194 201.675 74.6401 201.363C74.7608 201.048 74.8212 200.685 74.8212 200.273C74.8212 199.866 74.762 199.509 74.6436 199.204C74.5253 198.896 74.3501 198.657 74.1181 198.487C73.8861 198.314 73.5996 198.227 73.2587 198.227C72.9036 198.227 72.6077 198.318 72.3709 198.501C72.1365 198.681 71.9602 198.926 71.8418 199.236C71.7258 199.544 71.6678 199.889 71.6678 200.273C71.6678 200.661 71.727 201.014 71.8454 201.331C71.9661 201.646 72.1436 201.897 72.378 202.084C72.6148 202.268 72.9083 202.361 73.2587 202.361ZM80.6167 200.77V197.545H81.4547V203H80.6167V202.077H80.5598C80.432 202.354 80.2331 202.589 79.9633 202.783C79.6934 202.975 79.3525 203.071 78.9405 203.071C78.5996 203.071 78.2966 202.996 78.0314 202.847C77.7663 202.696 77.5579 202.469 77.4064 202.165C77.2549 201.86 77.1792 201.475 77.1792 201.011V197.545H78.0172V200.955C78.0172 201.352 78.1285 201.67 78.351 201.906C78.5759 202.143 78.8624 202.261 79.2104 202.261C79.4187 202.261 79.6306 202.208 79.8461 202.102C80.0639 201.995 80.2462 201.832 80.3929 201.612C80.5421 201.391 80.6167 201.111 80.6167 200.77ZM85.2766 203.114C84.7511 203.114 84.2977 202.998 83.9166 202.766C83.5378 202.531 83.2454 202.205 83.0394 201.786C82.8358 201.364 82.734 200.874 82.734 200.315C82.734 199.757 82.8358 199.264 83.0394 198.838C83.2454 198.41 83.5318 198.076 83.8988 197.837C84.2681 197.595 84.699 197.474 85.1914 197.474C85.4755 197.474 85.756 197.522 86.033 197.616C86.31 197.711 86.5621 197.865 86.7894 198.078C87.0167 198.289 87.1978 198.568 87.3327 198.916C87.4677 199.264 87.5352 199.693 87.5352 200.202V200.557H83.3306V199.832H86.6829C86.6829 199.525 86.6213 199.25 86.4982 199.009C86.3775 198.767 86.2047 198.576 85.9798 198.437C85.7572 198.297 85.4944 198.227 85.1914 198.227C84.8576 198.227 84.5688 198.31 84.3249 198.476C84.0835 198.639 83.8976 198.852 83.7674 199.115C83.6372 199.378 83.5721 199.66 83.5721 199.96V200.443C83.5721 200.855 83.6431 201.204 83.7852 201.491C83.9296 201.775 84.1296 201.991 84.3853 202.141C84.641 202.287 84.9381 202.361 85.2766 202.361C85.4968 202.361 85.6957 202.33 85.8732 202.268C86.0532 202.205 86.2082 202.11 86.3384 201.984C86.4686 201.857 86.5693 201.698 86.6403 201.509L87.4499 201.736C87.3647 202.01 87.2215 202.252 87.0202 202.46C86.819 202.666 86.5704 202.827 86.2745 202.943C85.9786 203.057 85.646 203.114 85.2766 203.114ZM93.9095 203.114C93.3839 203.114 92.9305 202.998 92.5494 202.766C92.1706 202.531 91.8782 202.205 91.6722 201.786C91.4686 201.364 91.3668 200.874 91.3668 200.315C91.3668 199.757 91.4686 199.264 91.6722 198.838C91.8782 198.41 92.1647 198.076 92.5316 197.837C92.9009 197.595 93.3318 197.474 93.8242 197.474C94.1083 197.474 94.3889 197.522 94.6658 197.616C94.9428 197.711 95.195 197.865 95.4222 198.078C95.6495 198.289 95.8306 198.568 95.9656 198.916C96.1005 199.264 96.168 199.693 96.168 200.202V200.557H91.9634V199.832H95.3157C95.3157 199.525 95.2541 199.25 95.131 199.009C95.0103 198.767 94.8375 198.576 94.6126 198.437C94.39 198.297 94.1273 198.227 93.8242 198.227C93.4904 198.227 93.2016 198.31 92.9577 198.476C92.7163 198.639 92.5304 198.852 92.4002 199.115C92.27 199.378 92.2049 199.66 92.2049 199.96V200.443C92.2049 200.855 92.2759 201.204 92.418 201.491C92.5624 201.775 92.7624 201.991 93.0181 202.141C93.2738 202.287 93.5709 202.361 93.9095 202.361C94.1296 202.361 94.3285 202.33 94.506 202.268C94.686 202.205 94.841 202.11 94.9712 201.984C95.1014 201.857 95.2021 201.698 95.2731 201.509L96.0827 201.736C95.9975 202.01 95.8543 202.252 95.6531 202.46C95.4518 202.666 95.2032 202.827 94.9073 202.943C94.6114 203.057 94.2788 203.114 93.9095 203.114ZM97.4428 203V197.545H98.2525V198.398H98.3235C98.4372 198.107 98.6206 197.88 98.8739 197.719C99.1273 197.556 99.4315 197.474 99.7866 197.474C100.146 197.474 100.446 197.556 100.685 197.719C100.926 197.88 101.115 198.107 101.25 198.398H101.306C101.446 198.116 101.656 197.892 101.935 197.727C102.214 197.558 102.549 197.474 102.94 197.474C103.428 197.474 103.827 197.627 104.137 197.933C104.447 198.236 104.602 198.708 104.602 199.349V203H103.764V199.349C103.764 198.947 103.654 198.659 103.434 198.487C103.213 198.314 102.954 198.227 102.656 198.227C102.272 198.227 101.975 198.343 101.765 198.575C101.554 198.805 101.449 199.096 101.449 199.449V203H100.596V199.264C100.596 198.954 100.496 198.704 100.294 198.515C100.093 198.323 99.8339 198.227 99.5167 198.227C99.2989 198.227 99.0953 198.285 98.9059 198.401C98.7189 198.517 98.5674 198.678 98.4514 198.884C98.3377 199.088 98.2809 199.323 98.2809 199.591V203H97.4428ZM73.399 215.114C72.9066 215.114 72.4745 214.996 72.1028 214.762C71.7335 214.528 71.4447 214.2 71.2363 213.778C71.0304 213.357 70.9274 212.865 70.9274 212.301C70.9274 211.733 71.0304 211.237 71.2363 210.813C71.4447 210.389 71.7335 210.06 72.1028 209.826C72.4745 209.592 72.9066 209.474 73.399 209.474C73.8914 209.474 74.3223 209.592 74.6916 209.826C75.0633 210.06 75.3521 210.389 75.5581 210.813C75.7664 211.237 75.8706 211.733 75.8706 212.301C75.8706 212.865 75.7664 213.357 75.5581 213.778C75.3521 214.2 75.0633 214.528 74.6916 214.762C74.3223 214.996 73.8914 215.114 73.399 215.114ZM73.399 214.361C73.773 214.361 74.0808 214.265 74.3223 214.073C74.5637 213.881 74.7425 213.629 74.8585 213.317C74.9745 213.004 75.0325 212.666 75.0325 212.301C75.0325 211.937 74.9745 211.597 74.8585 211.282C74.7425 210.967 74.5637 210.713 74.3223 210.518C74.0808 210.324 73.773 210.227 73.399 210.227C73.0249 210.227 72.7172 210.324 72.4757 210.518C72.2342 210.713 72.0555 210.967 71.9395 211.282C71.8235 211.597 71.7655 211.937 71.7655 212.301C71.7655 212.666 71.8235 213.004 71.9395 213.317C72.0555 213.629 72.2342 213.881 72.4757 214.073C72.7172 214.265 73.0249 214.361 73.399 214.361ZM80.5874 212.77V209.545H81.4254V215H80.5874V214.077H80.5305C80.4027 214.354 80.2038 214.589 79.934 214.783C79.6641 214.975 79.3232 215.071 78.9112 215.071C78.5703 215.071 78.2673 214.996 78.0021 214.847C77.737 214.696 77.5286 214.469 77.3771 214.165C77.2256 213.86 77.1499 213.475 77.1499 213.011V209.545H77.9879V212.955C77.9879 213.352 78.0992 213.67 78.3217 213.906C78.5466 214.143 78.8331 214.261 79.1811 214.261C79.3894 214.261 79.6013 214.208 79.8168 214.102C80.0346 213.995 80.2169 213.832 80.3636 213.612C80.5128 213.391 80.5874 213.111 80.5874 212.77ZM119.376 217.045V209.545H120.186V210.412H120.286C120.347 210.317 120.432 210.196 120.541 210.05C120.652 209.901 120.811 209.768 121.017 209.652C121.225 209.534 121.507 209.474 121.862 209.474C122.322 209.474 122.726 209.589 123.077 209.819C123.427 210.049 123.701 210.374 123.897 210.795C124.094 211.217 124.192 211.714 124.192 212.287C124.192 212.865 124.094 213.365 123.897 213.789C123.701 214.21 123.428 214.537 123.08 214.769C122.732 214.999 122.331 215.114 121.876 215.114C121.526 215.114 121.246 215.056 121.035 214.94C120.824 214.821 120.662 214.687 120.548 214.538C120.435 214.387 120.347 214.261 120.286 214.162H120.214V217.045H119.376ZM120.2 212.273C120.2 212.685 120.261 213.048 120.381 213.363C120.502 213.675 120.679 213.92 120.911 214.098C121.143 214.273 121.427 214.361 121.763 214.361C122.113 214.361 122.406 214.268 122.64 214.084C122.877 213.897 123.054 213.646 123.173 213.331C123.293 213.014 123.354 212.661 123.354 212.273C123.354 211.889 123.295 211.544 123.176 211.236C123.06 210.926 122.884 210.681 122.647 210.501C122.413 210.318 122.118 210.227 121.763 210.227C121.422 210.227 121.135 210.314 120.903 210.487C120.671 210.657 120.496 210.896 120.378 211.204C120.259 211.509 120.2 211.866 120.2 212.273ZM127.075 215.128C126.73 215.128 126.416 215.063 126.134 214.933C125.853 214.8 125.629 214.609 125.463 214.361C125.297 214.11 125.214 213.807 125.214 213.452C125.214 213.139 125.276 212.886 125.399 212.692C125.522 212.495 125.687 212.341 125.893 212.23C126.099 212.119 126.326 212.036 126.575 211.982C126.826 211.925 127.078 211.88 127.331 211.847C127.662 211.804 127.931 211.772 128.137 211.751C128.345 211.727 128.497 211.688 128.592 211.634C128.689 211.579 128.737 211.484 128.737 211.349V211.321C128.737 210.971 128.641 210.698 128.45 210.504C128.26 210.31 127.973 210.213 127.587 210.213C127.187 210.213 126.873 210.301 126.646 210.476C126.418 210.651 126.259 210.838 126.166 211.037L125.371 210.753C125.513 210.421 125.702 210.163 125.939 209.979C126.178 209.792 126.438 209.661 126.72 209.588C127.004 209.512 127.284 209.474 127.558 209.474C127.733 209.474 127.935 209.496 128.162 209.538C128.392 209.579 128.613 209.663 128.826 209.79C129.041 209.918 129.22 210.111 129.362 210.369C129.504 210.627 129.575 210.973 129.575 211.406V215H128.737V214.261H128.695C128.638 214.38 128.543 214.506 128.411 214.641C128.278 214.776 128.102 214.891 127.881 214.986C127.661 215.08 127.393 215.128 127.075 215.128ZM127.203 214.375C127.535 214.375 127.814 214.31 128.041 214.18C128.271 214.049 128.444 213.881 128.56 213.675C128.678 213.469 128.737 213.253 128.737 213.026V212.259C128.702 212.301 128.624 212.34 128.503 212.376C128.384 212.409 128.247 212.438 128.091 212.464C127.937 212.488 127.787 212.509 127.64 212.528C127.496 212.545 127.378 212.559 127.288 212.571C127.071 212.599 126.867 212.646 126.678 212.71C126.491 212.771 126.339 212.865 126.223 212.99C126.109 213.113 126.053 213.281 126.053 213.494C126.053 213.786 126.16 214.006 126.376 214.155C126.594 214.302 126.869 214.375 127.203 214.375ZM131.105 215V209.545H131.915V210.369H131.971C132.071 210.099 132.251 209.88 132.511 209.712C132.772 209.544 133.065 209.46 133.392 209.46C133.453 209.46 133.53 209.461 133.623 209.464C133.715 209.466 133.785 209.47 133.832 209.474V210.327C133.804 210.32 133.739 210.309 133.637 210.295C133.537 210.278 133.432 210.27 133.321 210.27C133.056 210.27 132.819 210.326 132.611 210.437C132.405 210.546 132.241 210.697 132.121 210.891C132.002 211.083 131.943 211.302 131.943 211.548V215H131.105ZM136.431 215.128C136.085 215.128 135.771 215.063 135.49 214.933C135.208 214.8 134.984 214.609 134.819 214.361C134.653 214.11 134.57 213.807 134.57 213.452C134.57 213.139 134.632 212.886 134.755 212.692C134.878 212.495 135.042 212.341 135.248 212.23C135.454 212.119 135.681 212.036 135.93 211.982C136.181 211.925 136.433 211.88 136.686 211.847C137.018 211.804 137.287 211.772 137.493 211.751C137.701 211.727 137.852 211.688 137.947 211.634C138.044 211.579 138.093 211.484 138.093 211.349V211.321C138.093 210.971 137.997 210.698 137.805 210.504C137.616 210.31 137.328 210.213 136.942 210.213C136.542 210.213 136.228 210.301 136.001 210.476C135.774 210.651 135.614 210.838 135.522 211.037L134.726 210.753C134.868 210.421 135.058 210.163 135.294 209.979C135.534 209.792 135.794 209.661 136.076 209.588C136.36 209.512 136.639 209.474 136.914 209.474C137.089 209.474 137.29 209.496 137.517 209.538C137.747 209.579 137.968 209.663 138.181 209.79C138.397 209.918 138.576 210.111 138.718 210.369C138.86 210.627 138.931 210.973 138.931 211.406V215H138.093V214.261H138.05C137.993 214.38 137.899 214.506 137.766 214.641C137.633 214.776 137.457 214.891 137.237 214.986C137.017 215.08 136.748 215.128 136.431 215.128ZM136.559 214.375C136.89 214.375 137.169 214.31 137.397 214.18C137.626 214.049 137.799 213.881 137.915 213.675C138.034 213.469 138.093 213.253 138.093 213.026V212.259C138.057 212.301 137.979 212.34 137.858 212.376C137.74 212.409 137.603 212.438 137.446 212.464C137.293 212.488 137.142 212.509 136.995 212.528C136.851 212.545 136.734 212.559 136.644 212.571C136.426 212.599 136.222 212.646 136.033 212.71C135.846 212.771 135.694 212.865 135.578 212.99C135.465 213.113 135.408 213.281 135.408 213.494C135.408 213.786 135.516 214.006 135.731 214.155C135.949 214.302 136.225 214.375 136.559 214.375ZM32.054 227.114C31.5284 227.114 31.075 226.998 30.6939 226.766C30.3151 226.531 30.0227 226.205 29.8168 225.786C29.6132 225.364 29.5114 224.874 29.5114 224.315C29.5114 223.757 29.6132 223.264 29.8168 222.838C30.0227 222.41 30.3092 222.076 30.6761 221.837C31.0455 221.595 31.4763 221.474 31.9688 221.474C32.2528 221.474 32.5334 221.522 32.8104 221.616C33.0874 221.711 33.3395 221.865 33.5668 222.078C33.794 222.289 33.9751 222.568 34.1101 222.916C34.245 223.264 34.3125 223.693 34.3125 224.202V224.557H30.108V223.832H33.4602C33.4602 223.525 33.3987 223.25 33.2756 223.009C33.1548 222.767 32.982 222.576 32.7571 222.437C32.5346 222.297 32.2718 222.227 31.9688 222.227C31.6349 222.227 31.3461 222.31 31.1023 222.476C30.8608 222.639 30.675 222.852 30.5447 223.115C30.4145 223.378 30.3494 223.66 30.3494 223.96V224.443C30.3494 224.855 30.4205 225.204 30.5625 225.491C30.7069 225.775 30.907 225.991 31.1626 226.141C31.4183 226.287 31.7154 226.361 32.054 226.361C32.2741 226.361 32.473 226.33 32.6506 226.268C32.8305 226.205 32.9856 226.11 33.1158 225.984C33.246 225.857 33.3466 225.698 33.4176 225.509L34.2273 225.736C34.142 226.01 33.9988 226.252 33.7976 226.46C33.5964 226.666 33.3478 226.827 33.0518 226.943C32.7559 227.057 32.4233 227.114 32.054 227.114ZM39.451 222.767L38.6982 222.98C38.6508 222.855 38.581 222.733 38.4886 222.614C38.3987 222.494 38.2756 222.394 38.1193 222.316C37.9631 222.238 37.763 222.199 37.5192 222.199C37.1854 222.199 36.9072 222.276 36.6847 222.43C36.4645 222.581 36.3544 222.774 36.3544 223.009C36.3544 223.217 36.4302 223.381 36.5817 223.502C36.7332 223.623 36.9699 223.723 37.2919 223.804L38.1016 224.003C38.5893 224.121 38.9527 224.302 39.1918 224.546C39.4309 224.788 39.5504 225.099 39.5504 225.48C39.5504 225.793 39.4605 226.072 39.2805 226.318C39.103 226.564 38.8544 226.759 38.5348 226.901C38.2152 227.043 37.8435 227.114 37.4197 227.114C36.8634 227.114 36.4029 226.993 36.0384 226.751C35.6738 226.51 35.4429 226.157 35.3459 225.693L36.1413 225.494C36.2171 225.788 36.3603 226.008 36.571 226.155C36.7841 226.302 37.0623 226.375 37.4055 226.375C37.7962 226.375 38.1063 226.292 38.3359 226.126C38.5679 225.958 38.6839 225.757 38.6839 225.523C38.6839 225.333 38.6177 225.175 38.4851 225.047C38.3525 224.917 38.1489 224.82 37.8743 224.756L36.9652 224.543C36.4657 224.424 36.0987 224.241 35.8643 223.992C35.6323 223.741 35.5163 223.428 35.5163 223.051C35.5163 222.743 35.6027 222.471 35.7756 222.234C35.9508 221.998 36.1887 221.812 36.4893 221.677C36.7924 221.542 37.1357 221.474 37.5192 221.474C38.0589 221.474 38.4827 221.593 38.7905 221.83C39.1006 222.066 39.3208 222.379 39.451 222.767ZM43.0279 227.114C42.5165 227.114 42.0762 226.993 41.7069 226.751C41.3375 226.51 41.0534 226.177 40.8546 225.754C40.6557 225.33 40.5563 224.846 40.5563 224.301C40.5563 223.747 40.6581 223.258 40.8617 222.835C41.0677 222.408 41.3541 222.076 41.7211 221.837C42.0904 221.595 42.5212 221.474 43.0137 221.474C43.3972 221.474 43.7428 221.545 44.0506 221.687C44.3584 221.83 44.6105 222.028 44.807 222.284C45.0035 222.54 45.1254 222.838 45.1728 223.179H44.3347C44.2708 222.93 44.1287 222.71 43.9086 222.518C43.6908 222.324 43.3972 222.227 43.0279 222.227C42.7012 222.227 42.4147 222.312 42.1685 222.483C41.9247 222.651 41.7341 222.889 41.5968 223.197C41.4618 223.502 41.3944 223.861 41.3944 224.273C41.3944 224.694 41.4606 225.061 41.5932 225.374C41.7282 225.686 41.9176 225.929 42.1614 226.102C42.4076 226.274 42.6964 226.361 43.0279 226.361C43.2457 226.361 43.4434 226.323 43.6209 226.247C43.7985 226.171 43.9488 226.062 44.0719 225.92C44.195 225.778 44.2826 225.608 44.3347 225.409H45.1728C45.1254 225.731 45.0082 226.021 44.8212 226.279C44.6365 226.535 44.3915 226.738 44.0861 226.89C43.7831 227.039 43.4303 227.114 43.0279 227.114ZM48.6138 227.114C48.1214 227.114 47.6893 226.996 47.3177 226.762C46.9483 226.528 46.6595 226.2 46.4512 225.778C46.2452 225.357 46.1422 224.865 46.1422 224.301C46.1422 223.733 46.2452 223.237 46.4512 222.813C46.6595 222.389 46.9483 222.06 47.3177 221.826C47.6893 221.592 48.1214 221.474 48.6138 221.474C49.1062 221.474 49.5371 221.592 49.9064 221.826C50.2781 222.06 50.5669 222.389 50.7729 222.813C50.9812 223.237 51.0854 223.733 51.0854 224.301C51.0854 224.865 50.9812 225.357 50.7729 225.778C50.5669 226.2 50.2781 226.528 49.9064 226.762C49.5371 226.996 49.1062 227.114 48.6138 227.114ZM48.6138 226.361C48.9879 226.361 49.2956 226.265 49.5371 226.073C49.7786 225.881 49.9573 225.629 50.0733 225.317C50.1893 225.004 50.2473 224.666 50.2473 224.301C50.2473 223.937 50.1893 223.597 50.0733 223.282C49.9573 222.967 49.7786 222.713 49.5371 222.518C49.2956 222.324 48.9879 222.227 48.6138 222.227C48.2398 222.227 47.932 222.324 47.6905 222.518C47.449 222.713 47.2703 222.967 47.1543 223.282C47.0383 223.597 46.9803 223.937 46.9803 224.301C46.9803 224.666 47.0383 225.004 47.1543 225.317C47.2703 225.629 47.449 225.881 47.6905 226.073C47.932 226.265 48.2398 226.361 48.6138 226.361ZM53.2028 219.727V227H52.3647V219.727H53.2028ZM55.5758 223.719V227H54.7378V219.727H55.5758V222.398H55.6468C55.7747 222.116 55.9664 221.892 56.2221 221.727C56.4802 221.558 56.8235 221.474 57.252 221.474C57.6236 221.474 57.9492 221.549 58.2285 221.698C58.5079 221.845 58.7245 222.071 58.8784 222.376C59.0346 222.679 59.1128 223.065 59.1128 223.534V227H58.2747V223.591C58.2747 223.158 58.1622 222.823 57.9373 222.586C57.7148 222.347 57.4058 222.227 57.0105 222.227C56.7359 222.227 56.4896 222.285 56.2718 222.401C56.0564 222.517 55.886 222.687 55.7605 222.909C55.6374 223.132 55.5758 223.402 55.5758 223.719ZM62.9329 227.114C62.4073 227.114 61.954 226.998 61.5728 226.766C61.194 226.531 60.9016 226.205 60.6957 225.786C60.4921 225.364 60.3903 224.874 60.3903 224.315C60.3903 223.757 60.4921 223.264 60.6957 222.838C60.9016 222.41 61.1881 222.076 61.555 221.837C61.9244 221.595 62.3552 221.474 62.8477 221.474C63.1317 221.474 63.4123 221.522 63.6893 221.616C63.9663 221.711 64.2184 221.865 64.4457 222.078C64.6729 222.289 64.8541 222.568 64.989 222.916C65.1239 223.264 65.1914 223.693 65.1914 224.202V224.557H60.9869V223.832H64.3391C64.3391 223.525 64.2776 223.25 64.1545 223.009C64.0337 222.767 63.8609 222.576 63.636 222.437C63.4135 222.297 63.1507 222.227 62.8477 222.227C62.5139 222.227 62.225 222.31 61.9812 222.476C61.7397 222.639 61.5539 222.852 61.4237 223.115C61.2934 223.378 61.2283 223.66 61.2283 223.96V224.443C61.2283 224.855 61.2994 225.204 61.4414 225.491C61.5858 225.775 61.7859 225.991 62.0416 226.141C62.2972 226.287 62.5943 226.361 62.9329 226.361C63.1531 226.361 63.3519 226.33 63.5295 226.268C63.7094 226.205 63.8645 226.11 63.9947 225.984C64.1249 225.857 64.2255 225.698 64.2965 225.509L65.1062 225.736C65.021 226.01 64.8777 226.252 64.6765 226.46C64.4753 226.666 64.2267 226.827 63.9308 226.943C63.6348 227.057 63.3022 227.114 62.9329 227.114ZM66.4663 227V221.545H67.2759V222.369H67.3327C67.4322 222.099 67.6121 221.88 67.8725 221.712C68.1329 221.544 68.4265 221.46 68.7532 221.46C68.8148 221.46 68.8917 221.461 68.984 221.464C69.0764 221.466 69.1462 221.47 69.1935 221.474V222.327C69.1651 222.32 69.1 222.309 68.9982 222.295C68.8988 222.278 68.7934 222.27 68.6822 222.27C68.417 222.27 68.1803 222.326 67.972 222.437C67.766 222.546 67.6026 222.697 67.4819 222.891C67.3635 223.083 67.3043 223.302 67.3043 223.548V227H66.4663ZM73.8375 223.719V227H72.9995V221.545H73.8091V222.398H73.8802C74.008 222.121 74.2021 221.898 74.4625 221.73C74.723 221.56 75.0591 221.474 75.4711 221.474C75.8404 221.474 76.1635 221.55 76.4405 221.702C76.7175 221.851 76.9329 222.078 77.0868 222.384C77.2407 222.687 77.3177 223.07 77.3177 223.534V227H76.4796V223.591C76.4796 223.162 76.3683 222.829 76.1458 222.589C75.9232 222.348 75.6178 222.227 75.2296 222.227C74.9621 222.227 74.723 222.285 74.5123 222.401C74.3039 222.517 74.1394 222.687 74.0186 222.909C73.8979 223.132 73.8375 223.402 73.8375 223.719ZM81.065 227.114C80.5726 227.114 80.1405 226.996 79.7688 226.762C79.3995 226.528 79.1107 226.2 78.9023 225.778C78.6964 225.357 78.5934 224.865 78.5934 224.301C78.5934 223.733 78.6964 223.237 78.9023 222.813C79.1107 222.389 79.3995 222.06 79.7688 221.826C80.1405 221.592 80.5726 221.474 81.065 221.474C81.5574 221.474 81.9883 221.592 82.3576 221.826C82.7293 222.06 83.0181 222.389 83.2241 222.813C83.4324 223.237 83.5366 223.733 83.5366 224.301C83.5366 224.865 83.4324 225.357 83.2241 225.778C83.0181 226.2 82.7293 226.528 82.3576 226.762C81.9883 226.996 81.5574 227.114 81.065 227.114ZM81.065 226.361C81.439 226.361 81.7468 226.265 81.9883 226.073C82.2298 225.881 82.4085 225.629 82.5245 225.317C82.6405 225.004 82.6985 224.666 82.6985 224.301C82.6985 223.937 82.6405 223.597 82.5245 223.282C82.4085 222.967 82.2298 222.713 81.9883 222.518C81.7468 222.324 81.439 222.227 81.065 222.227C80.6909 222.227 80.3832 222.324 80.1417 222.518C79.9002 222.713 79.7215 222.967 79.6055 223.282C79.4895 223.597 79.4315 223.937 79.4315 224.301C79.4315 224.666 79.4895 225.004 79.6055 225.317C79.7215 225.629 79.9002 225.881 80.1417 226.073C80.3832 226.265 80.6909 226.361 81.065 226.361ZM89.0808 221.545L87.0637 227H86.2115L84.1944 221.545H85.1035L86.6092 225.892H86.666L88.1717 221.545H89.0808ZM91.6261 227.128C91.2804 227.128 90.9667 227.063 90.685 226.933C90.4033 226.8 90.1796 226.609 90.0139 226.361C89.8481 226.11 89.7653 225.807 89.7653 225.452C89.7653 225.139 89.8268 224.886 89.9499 224.692C90.073 224.495 90.2376 224.341 90.4435 224.23C90.6495 224.119 90.8768 224.036 91.1254 223.982C91.3763 223.925 91.6284 223.88 91.8818 223.847C92.2132 223.804 92.4819 223.772 92.6879 223.751C92.8962 223.727 93.0477 223.688 93.1424 223.634C93.2395 223.579 93.288 223.484 93.288 223.349V223.321C93.288 222.971 93.1921 222.698 93.0004 222.504C92.811 222.31 92.5233 222.213 92.1374 222.213C91.7373 222.213 91.4237 222.301 91.1964 222.476C90.9691 222.651 90.8093 222.838 90.717 223.037L89.9215 222.753C90.0636 222.421 90.253 222.163 90.4897 221.979C90.7288 221.792 90.9892 221.661 91.271 221.588C91.555 221.512 91.8344 221.474 92.109 221.474C92.2842 221.474 92.4854 221.496 92.7127 221.538C92.9424 221.579 93.1637 221.663 93.3768 221.79C93.5922 221.918 93.771 222.111 93.913 222.369C94.055 222.627 94.1261 222.973 94.1261 223.406V227H93.288V226.261H93.2454C93.1886 226.38 93.0939 226.506 92.9613 226.641C92.8287 226.776 92.6523 226.891 92.4322 226.986C92.212 227.08 91.9433 227.128 91.6261 227.128ZM91.7539 226.375C92.0853 226.375 92.3647 226.31 92.592 226.18C92.8216 226.049 92.9944 225.881 93.1104 225.675C93.2288 225.469 93.288 225.253 93.288 225.026V224.259C93.2525 224.301 93.1744 224.34 93.0536 224.376C92.9353 224.409 92.7979 224.438 92.6417 224.464C92.4878 224.488 92.3375 224.509 92.1907 224.528C92.0463 224.545 91.9291 224.559 91.8391 224.571C91.6213 224.599 91.4177 224.646 91.2283 224.71C91.0413 224.771 90.8898 224.865 90.7738 224.99C90.6602 225.113 90.6033 225.281 90.6033 225.494C90.6033 225.786 90.7111 226.006 90.9265 226.155C91.1443 226.302 91.4201 226.375 91.7539 226.375ZM95.6557 227V221.545H96.4654V222.398H96.5364C96.65 222.107 96.8335 221.88 97.0868 221.719C97.3401 221.556 97.6444 221.474 97.9995 221.474C98.3593 221.474 98.6588 221.556 98.8979 221.719C99.1394 221.88 99.3276 222.107 99.4625 222.398H99.5194C99.659 222.116 99.8686 221.892 100.148 221.727C100.427 221.558 100.762 221.474 101.153 221.474C101.641 221.474 102.039 221.627 102.35 221.933C102.66 222.236 102.815 222.708 102.815 223.349V227H101.977V223.349C101.977 222.947 101.867 222.659 101.646 222.487C101.426 222.314 101.167 222.227 100.869 222.227C100.485 222.227 100.188 222.343 99.9775 222.575C99.7668 222.805 99.6614 223.096 99.6614 223.449V227H98.8091V223.264C98.8091 222.954 98.7085 222.704 98.5073 222.515C98.3061 222.323 98.0468 222.227 97.7296 222.227C97.5118 222.227 97.3082 222.285 97.1188 222.401C96.9318 222.517 96.7803 222.678 96.6642 222.884C96.5506 223.088 96.4938 223.323 96.4938 223.591V227H95.6557ZM106.634 227.114C106.108 227.114 105.655 226.998 105.274 226.766C104.895 226.531 104.603 226.205 104.397 225.786C104.193 225.364 104.091 224.874 104.091 224.315C104.091 223.757 104.193 223.264 104.397 222.838C104.603 222.41 104.889 222.076 105.256 221.837C105.626 221.595 106.056 221.474 106.549 221.474C106.833 221.474 107.113 221.522 107.39 221.616C107.667 221.711 107.92 221.865 108.147 222.078C108.374 222.289 108.555 222.568 108.69 222.916C108.825 223.264 108.893 223.693 108.893 224.202V224.557H104.688V223.832H108.04C108.04 223.525 107.979 223.25 107.856 223.009C107.735 222.767 107.562 222.576 107.337 222.437C107.115 222.297 106.852 222.227 106.549 222.227C106.215 222.227 105.926 222.31 105.682 222.476C105.441 222.639 105.255 222.852 105.125 223.115C104.995 223.378 104.93 223.66 104.93 223.96V224.443C104.93 224.855 105.001 225.204 105.143 225.491C105.287 225.775 105.487 225.991 105.743 226.141C105.998 226.287 106.296 226.361 106.634 226.361C106.854 226.361 107.053 226.33 107.231 226.268C107.411 226.205 107.566 226.11 107.696 225.984C107.826 225.857 107.927 225.698 107.998 225.509L108.807 225.736C108.722 226.01 108.579 226.252 108.378 226.46C108.176 226.666 107.928 226.827 107.632 226.943C107.336 227.057 107.003 227.114 106.634 227.114ZM111.006 223.719V227H110.167V221.545H110.977V222.398H111.048C111.176 222.121 111.37 221.898 111.631 221.73C111.891 221.56 112.227 221.474 112.639 221.474C113.008 221.474 113.332 221.55 113.608 221.702C113.885 221.851 114.101 222.078 114.255 222.384C114.409 222.687 114.486 223.07 114.486 223.534V227H113.648V223.591C113.648 223.162 113.536 222.829 113.314 222.589C113.091 222.348 112.786 222.227 112.398 222.227C112.13 222.227 111.891 222.285 111.68 222.401C111.472 222.517 111.307 222.687 111.187 222.909C111.066 223.132 111.006 223.402 111.006 223.719ZM118.389 221.545V222.256H115.563V221.545H118.389ZM116.386 220.239H117.224V225.437C117.224 225.674 117.259 225.852 117.327 225.97C117.398 226.086 117.488 226.164 117.597 226.205C117.709 226.242 117.826 226.261 117.949 226.261C118.041 226.261 118.117 226.257 118.176 226.247C118.235 226.235 118.283 226.226 118.318 226.219L118.489 226.972C118.432 226.993 118.353 227.014 118.251 227.036C118.149 227.059 118.02 227.071 117.864 227.071C117.627 227.071 117.395 227.02 117.168 226.918C116.943 226.817 116.756 226.661 116.607 226.453C116.46 226.245 116.386 225.982 116.386 225.665V220.239ZM121.878 227.114C121.353 227.114 120.899 226.998 120.518 226.766C120.139 226.531 119.847 226.205 119.641 225.786C119.437 225.364 119.336 224.874 119.336 224.315C119.336 223.757 119.437 223.264 119.641 222.838C119.847 222.41 120.133 222.076 120.5 221.837C120.87 221.595 121.301 221.474 121.793 221.474C122.077 221.474 122.358 221.522 122.635 221.616C122.912 221.711 123.164 221.865 123.391 222.078C123.618 222.289 123.799 222.568 123.934 222.916C124.069 223.264 124.137 223.693 124.137 224.202V224.557H119.932V223.832H123.284C123.284 223.525 123.223 223.25 123.1 223.009C122.979 222.767 122.806 222.576 122.581 222.437C122.359 222.297 122.096 222.227 121.793 222.227C121.459 222.227 121.17 222.31 120.926 222.476C120.685 222.639 120.499 222.852 120.369 223.115C120.239 223.378 120.174 223.66 120.174 223.96V224.443C120.174 224.855 120.245 225.204 120.387 225.491C120.531 225.775 120.731 225.991 120.987 226.141C121.243 226.287 121.54 226.361 121.878 226.361C122.098 226.361 122.297 226.33 122.475 226.268C122.655 226.205 122.81 226.11 122.94 225.984C123.07 225.857 123.171 225.698 123.242 225.509L124.051 225.736C123.966 226.01 123.823 226.252 123.622 226.46C123.421 226.666 123.172 226.827 122.876 226.943C122.58 227.057 122.248 227.114 121.878 227.114Z" fill="white"/>
<path d="M32.0682 215.107C31.5095 215.107 31.0289 214.988 30.6264 214.751C30.2263 214.512 29.9186 214.181 29.7031 213.757C29.4901 213.333 29.3835 212.846 29.3835 212.294C29.3835 211.735 29.4912 211.245 29.7067 210.824C29.9245 210.4 30.2334 210.07 30.6335 209.833C31.0336 209.594 31.5095 209.474 32.0611 209.474C32.5369 209.474 32.9536 209.561 33.3111 209.734C33.6686 209.906 33.9515 210.149 34.1598 210.462C34.3681 210.774 34.483 211.141 34.5043 211.562H33.0767C33.0365 211.29 32.9299 211.071 32.7571 210.906C32.5866 210.737 32.3629 210.653 32.0859 210.653C31.8516 210.653 31.6468 210.717 31.4716 210.845C31.2988 210.971 31.1638 211.154 31.0668 211.396C30.9697 211.637 30.9212 211.929 30.9212 212.273C30.9212 212.621 30.9685 212.917 31.0632 213.161C31.1603 213.404 31.2964 213.59 31.4716 213.718C31.6468 213.846 31.8516 213.91 32.0859 213.91C32.2588 213.91 32.4138 213.874 32.5511 213.803C32.6908 213.732 32.8056 213.629 32.8956 213.494C32.9879 213.357 33.0483 213.192 33.0767 213.001H34.5043C34.4806 213.417 34.367 213.784 34.1634 214.102C33.9621 214.416 33.6839 214.663 33.3288 214.84C32.9737 215.018 32.5535 215.107 32.0682 215.107ZM37.0282 215.103C36.6802 215.103 36.3701 215.043 36.0978 214.922C35.8256 214.799 35.6101 214.618 35.4515 214.379C35.2953 214.137 35.2172 213.836 35.2172 213.477C35.2172 213.174 35.2728 212.919 35.3841 212.713C35.4953 212.507 35.6468 212.341 35.8386 212.216C36.0304 212.09 36.2482 211.996 36.492 211.932C36.7382 211.868 36.9963 211.823 37.2662 211.797C37.5834 211.764 37.8391 211.733 38.0332 211.705C38.2273 211.674 38.3682 211.629 38.4558 211.57C38.5434 211.51 38.5872 211.423 38.5872 211.307V211.286C38.5872 211.061 38.5162 210.887 38.3741 210.763C38.2344 210.64 38.0356 210.579 37.7775 210.579C37.5053 210.579 37.2886 210.639 37.1277 210.76C36.9667 210.878 36.8601 211.027 36.8081 211.207L35.4089 211.094C35.4799 210.762 35.6196 210.476 35.8279 210.234C36.0363 209.991 36.305 209.804 36.6341 209.673C36.9655 209.541 37.349 209.474 37.7846 209.474C38.0877 209.474 38.3777 209.51 38.6547 209.581C38.934 209.652 39.1814 209.762 39.3968 209.911C39.6146 210.06 39.7863 210.252 39.9118 210.487C40.0372 210.719 40.1 210.997 40.1 211.321V215H38.6653V214.244H38.6227C38.5351 214.414 38.4179 214.564 38.2711 214.695C38.1243 214.822 37.948 214.923 37.742 214.996C37.536 215.067 37.2981 215.103 37.0282 215.103ZM37.4615 214.059C37.684 214.059 37.8805 214.015 38.051 213.928C38.2214 213.838 38.3552 213.717 38.4522 213.565C38.5493 213.414 38.5978 213.242 38.5978 213.05V212.472C38.5505 212.502 38.4854 212.531 38.4025 212.557C38.322 212.58 38.2309 212.603 38.1291 212.624C38.0273 212.643 37.9255 212.661 37.8237 212.678C37.7219 212.692 37.6296 212.705 37.5467 212.717C37.3691 212.743 37.2141 212.784 37.0815 212.841C36.9489 212.898 36.8459 212.975 36.7726 213.072C36.6992 213.166 36.6625 213.285 36.6625 213.427C36.6625 213.633 36.737 213.79 36.8862 213.899C37.0377 214.006 37.2295 214.059 37.4615 214.059ZM42.7864 207.727V215H41.2736V207.727H42.7864ZM46.4627 215.107C45.904 215.107 45.4234 214.988 45.021 214.751C44.6209 214.512 44.3131 214.181 44.0977 213.757C43.8846 213.333 43.7781 212.846 43.7781 212.294C43.7781 211.735 43.8858 211.245 44.1012 210.824C44.319 210.4 44.628 210.07 45.0281 209.833C45.4281 209.594 45.904 209.474 46.4556 209.474C46.9315 209.474 47.3481 209.561 47.7056 209.734C48.0631 209.906 48.346 210.149 48.5543 210.462C48.7627 210.774 48.8775 211.141 48.8988 211.562H47.4712C47.431 211.29 47.3245 211.071 47.1516 210.906C46.9812 210.737 46.7575 210.653 46.4805 210.653C46.2461 210.653 46.0413 210.717 45.8661 210.845C45.6933 210.971 45.5584 211.154 45.4613 211.396C45.3642 211.637 45.3157 211.929 45.3157 212.273C45.3157 212.621 45.363 212.917 45.4577 213.161C45.5548 213.404 45.6909 213.59 45.8661 213.718C46.0413 213.846 46.2461 213.91 46.4805 213.91C46.6533 213.91 46.8084 213.874 46.9457 213.803C47.0853 213.732 47.2002 213.629 47.2901 213.494C47.3825 213.357 47.4428 213.192 47.4712 213.001H48.8988C48.8751 213.417 48.7615 213.784 48.5579 214.102C48.3567 214.416 48.0785 214.663 47.7234 214.84C47.3683 215.018 46.948 215.107 46.4627 215.107ZM53.3652 212.678V209.545H54.878V215H53.4256V214.009H53.3688C53.2457 214.329 53.0409 214.586 52.7544 214.78C52.4704 214.974 52.1235 215.071 51.714 215.071C51.3494 215.071 51.0286 214.988 50.7516 214.822C50.4746 214.657 50.258 214.421 50.1017 214.116C49.9479 213.81 49.8697 213.445 49.8674 213.018V209.545H51.3802V212.749C51.3825 213.071 51.4689 213.325 51.6394 213.512C51.8098 213.699 52.0383 213.793 52.3248 213.793C52.507 213.793 52.6775 213.751 52.8361 213.668C52.9947 213.583 53.1226 213.458 53.2196 213.292C53.3191 213.126 53.3676 212.921 53.3652 212.678ZM57.6009 207.727V215H56.0881V207.727H57.6009ZM60.3681 215.103C60.0201 215.103 59.7099 215.043 59.4377 214.922C59.1654 214.799 58.95 214.618 58.7914 214.379C58.6351 214.137 58.557 213.836 58.557 213.477C58.557 213.174 58.6126 212.919 58.7239 212.713C58.8352 212.507 58.9867 212.341 59.1784 212.216C59.3702 212.09 59.588 211.996 59.8319 211.932C60.0781 211.868 60.3361 211.823 60.606 211.797C60.9232 211.764 61.1789 211.733 61.373 211.705C61.5672 211.674 61.708 211.629 61.7956 211.57C61.8832 211.51 61.927 211.423 61.927 211.307V211.286C61.927 211.061 61.856 210.887 61.714 210.763C61.5743 210.64 61.3754 210.579 61.1174 210.579C60.8451 210.579 60.6285 210.639 60.4675 210.76C60.3065 210.878 60.2 211.027 60.1479 211.207L58.7488 211.094C58.8198 210.762 58.9595 210.476 59.1678 210.234C59.3761 209.991 59.6448 209.804 59.9739 209.673C60.3053 209.541 60.6889 209.474 61.1245 209.474C61.4275 209.474 61.7175 209.51 61.9945 209.581C62.2739 209.652 62.5213 209.762 62.7367 209.911C62.9545 210.06 63.1261 210.252 63.2516 210.487C63.3771 210.719 63.4398 210.997 63.4398 211.321V215H62.0052V214.244H61.9625C61.8749 214.414 61.7578 214.564 61.611 214.695C61.4642 214.822 61.2878 214.923 61.0819 214.996C60.8759 215.067 60.638 215.103 60.3681 215.103ZM60.8013 214.059C61.0239 214.059 61.2204 214.015 61.3908 213.928C61.5613 213.838 61.695 213.717 61.7921 213.565C61.8891 213.414 61.9377 213.242 61.9377 213.05V212.472C61.8903 212.502 61.8252 212.531 61.7424 212.557C61.6619 212.58 61.5707 212.603 61.4689 212.624C61.3671 212.643 61.2653 212.661 61.1635 212.678C61.0617 212.692 60.9694 212.705 60.8865 212.717C60.709 212.743 60.5539 212.784 60.4213 212.841C60.2888 212.898 60.1858 212.975 60.1124 213.072C60.039 213.166 60.0023 213.285 60.0023 213.427C60.0023 213.633 60.0769 213.79 60.226 213.899C60.3775 214.006 60.5693 214.059 60.8013 214.059ZM64.6135 215V209.545H66.0801V210.497H66.1369C66.2363 210.159 66.4032 209.903 66.6376 209.73C66.872 209.555 67.1419 209.467 67.4473 209.467C67.523 209.467 67.6047 209.472 67.6923 209.482C67.7799 209.491 67.8568 209.504 67.9231 209.521V210.863C67.8521 210.842 67.7539 210.823 67.6284 210.806C67.5029 210.79 67.3881 210.781 67.2839 210.781C67.0614 210.781 66.8625 210.83 66.6873 210.927C66.5145 211.022 66.3772 211.154 66.2754 211.325C66.176 211.495 66.1262 211.692 66.1262 211.914V215H64.6135ZM87.1223 207.727V215H85.6096V207.727H87.1223ZM88.3342 215V209.545H89.847V215H88.3342ZM89.0941 208.842C88.8692 208.842 88.6763 208.768 88.5153 208.619C88.3567 208.467 88.2773 208.286 88.2773 208.075C88.2773 207.867 88.3567 207.688 88.5153 207.539C88.6763 207.388 88.8692 207.312 89.0941 207.312C89.319 207.312 89.5108 207.388 89.6694 207.539C89.8304 207.688 89.9109 207.867 89.9109 208.075C89.9109 208.286 89.8304 208.467 89.6694 208.619C89.5108 208.768 89.319 208.842 89.0941 208.842ZM91.0588 215V209.545H92.5005V210.508H92.5645C92.6781 210.188 92.8675 209.936 93.1326 209.751C93.3978 209.567 93.715 209.474 94.0843 209.474C94.4584 209.474 94.7768 209.568 95.0396 209.755C95.3024 209.94 95.4776 210.191 95.5652 210.508H95.622C95.7333 210.195 95.9345 209.946 96.2257 209.759C96.5192 209.569 96.8661 209.474 97.2662 209.474C97.7752 209.474 98.1883 209.637 98.5055 209.961C98.8251 210.283 98.9849 210.74 98.9849 211.332V215H97.4757V211.63C97.4757 211.327 97.3952 211.1 97.2342 210.948C97.0732 210.797 96.872 210.721 96.6305 210.721C96.3559 210.721 96.1416 210.808 95.9878 210.984C95.8339 211.156 95.7569 211.385 95.7569 211.669V215H94.2903V211.598C94.2903 211.33 94.2134 211.117 94.0595 210.959C93.908 210.8 93.7079 210.721 93.4593 210.721C93.2913 210.721 93.1397 210.763 93.0048 210.849C92.8722 210.932 92.7669 211.049 92.6887 211.2C92.6106 211.349 92.5716 211.525 92.5716 211.726V215H91.0588ZM100.18 217.045V209.545H101.671V210.462H101.739C101.805 210.315 101.901 210.166 102.026 210.014C102.154 209.86 102.32 209.732 102.524 209.631C102.73 209.527 102.985 209.474 103.291 209.474C103.688 209.474 104.055 209.579 104.392 209.787C104.728 209.993 104.996 210.304 105.198 210.721C105.399 211.135 105.499 211.655 105.499 212.28C105.499 212.888 105.401 213.402 105.205 213.821C105.011 214.238 104.745 214.554 104.409 214.769C104.075 214.982 103.701 215.089 103.287 215.089C102.994 215.089 102.744 215.04 102.538 214.943C102.334 214.846 102.167 214.724 102.037 214.577C101.907 214.428 101.807 214.278 101.739 214.126H101.693V217.045H100.18ZM101.661 212.273C101.661 212.597 101.706 212.88 101.796 213.121C101.886 213.363 102.016 213.551 102.186 213.686C102.357 213.819 102.564 213.885 102.808 213.885C103.054 213.885 103.262 213.817 103.433 213.683C103.603 213.545 103.732 213.356 103.82 213.114C103.91 212.871 103.955 212.59 103.955 212.273C103.955 211.958 103.911 211.681 103.823 211.442C103.736 211.203 103.607 211.016 103.436 210.881C103.266 210.746 103.056 210.678 102.808 210.678C102.562 210.678 102.353 210.743 102.183 210.874C102.015 211.004 101.886 211.188 101.796 211.428C101.706 211.667 101.661 211.948 101.661 212.273ZM108.063 215.103C107.715 215.103 107.405 215.043 107.133 214.922C106.861 214.799 106.645 214.618 106.487 214.379C106.33 214.137 106.252 213.836 106.252 213.477C106.252 213.174 106.308 212.919 106.419 212.713C106.53 212.507 106.682 212.341 106.874 212.216C107.066 212.09 107.283 211.996 107.527 211.932C107.773 211.868 108.031 211.823 108.301 211.797C108.619 211.764 108.874 211.733 109.068 211.705C109.262 211.674 109.403 211.629 109.491 211.57C109.579 211.51 109.622 211.423 109.622 211.307V211.286C109.622 211.061 109.551 210.887 109.409 210.763C109.27 210.64 109.071 210.579 108.813 210.579C108.54 210.579 108.324 210.639 108.163 210.76C108.002 210.878 107.895 211.027 107.843 211.207L106.444 211.094C106.515 210.762 106.655 210.476 106.863 210.234C107.071 209.991 107.34 209.804 107.669 209.673C108.001 209.541 108.384 209.474 108.82 209.474C109.123 209.474 109.413 209.51 109.69 209.581C109.969 209.652 110.217 209.762 110.432 209.911C110.65 210.06 110.821 210.252 110.947 210.487C111.072 210.719 111.135 210.997 111.135 211.321V215H109.7V214.244H109.658C109.57 214.414 109.453 214.564 109.306 214.695C109.16 214.822 108.983 214.923 108.777 214.996C108.571 215.067 108.333 215.103 108.063 215.103ZM108.497 214.059C108.719 214.059 108.916 214.015 109.086 213.928C109.257 213.838 109.39 213.717 109.487 213.565C109.584 213.414 109.633 213.242 109.633 213.05V212.472C109.586 212.502 109.521 212.531 109.438 212.557C109.357 212.58 109.266 212.603 109.164 212.624C109.062 212.643 108.961 212.661 108.859 212.678C108.757 212.692 108.665 212.705 108.582 212.717C108.404 212.743 108.249 212.784 108.117 212.841C107.984 212.898 107.881 212.975 107.808 213.072C107.734 213.166 107.698 213.285 107.698 213.427C107.698 213.633 107.772 213.79 107.921 213.899C108.073 214.006 108.265 214.059 108.497 214.059ZM112.309 215V209.545H113.775V210.497H113.832C113.932 210.159 114.099 209.903 114.333 209.73C114.567 209.555 114.837 209.467 115.143 209.467C115.218 209.467 115.3 209.472 115.388 209.482C115.475 209.491 115.552 209.504 115.618 209.521V210.863C115.547 210.842 115.449 210.823 115.324 210.806C115.198 210.79 115.083 210.781 114.979 210.781C114.757 210.781 114.558 210.83 114.383 210.927C114.21 211.022 114.073 211.154 113.971 211.325C113.871 211.495 113.822 211.692 113.822 211.914V215H112.309Z" fill="#04D47C"/>
<path d="M116.374 156.974L117.101 157.159L116.374 156.974ZM98.2274 37.6933L98.8665 37.3008L98.8665 37.3008L98.2274 37.6933ZM76.1744 0.77059C75.7715 0.674283 75.3669 0.922795 75.2705 1.32566L73.7011 7.89067C73.6048 8.29354 73.8533 8.69819 74.2562 8.7945C74.6591 8.89081 75.0637 8.64229 75.16 8.23943L76.5551 2.40386L82.3906 3.7989C82.7935 3.8952 83.1981 3.64669 83.2945 3.24383C83.3908 2.84097 83.1422 2.43631 82.7394 2.34L76.1744 0.77059ZM109.727 186.185L117.101 157.159L115.647 156.789L108.273 185.815L109.727 186.185ZM98.8665 37.3008L76.6391 1.10754L75.3609 1.89253L97.5883 38.0857L98.8665 37.3008ZM117.101 157.159C127.46 116.383 120.883 73.1509 98.8665 37.3008L97.5883 38.0857C119.393 73.5907 125.907 116.406 115.647 156.789L117.101 157.159Z" fill="white"/>
</g>
<defs>
<filter id="filter0_d_160_6137" x="25.2556" y="0.749878" width="117.675" height="234.378" filterUnits="userSpaceOnUse" color-interpolation-filters="sRGB">
<feFlood flood-opacity="0" result="BackgroundImageFix"/>
<feColorMatrix in="SourceAlpha" type="matrix" values="0 0 0 0 0 0 0 0 0 0 0 0 0 0 0 0 0 0 127 0" result="hardAlpha"/>
<feOffset dy="4"/>
<feGaussianBlur stdDeviation="2"/>
<feComposite in2="hardAlpha" operator="out"/>
<feColorMatrix type="matrix" values="0 0 0 0 0 0 0 0 0 0 0 0 0 0 0 0 0 0 0.25 0"/>
<feBlend mode="normal" in2="BackgroundImageFix" result="effect1_dropShadow_160_6137"/>
<feBlend mode="normal" in="SourceGraphic" in2="effect1_dropShadow_160_6137" result="shape"/>
</filter>
</defs>
</svg>
