<svg width="232" height="384" viewBox="0 0 232 384" fill="none" xmlns="http://www.w3.org/2000/svg">
<path d="M60.2332 11.14H56.5852L55.9132 13H54.7612L57.7852 4.684H59.0452L62.0572 13H60.9052L60.2332 11.14ZM59.9212 10.252L58.4092 6.028L56.8972 10.252H59.9212ZM62.9672 9.688C62.9672 9.016 63.1032 8.428 63.3752 7.924C63.6472 7.412 64.0192 7.016 64.4912 6.736C64.9712 6.456 65.5072 6.316 66.0992 6.316C66.6672 6.316 67.1632 6.444 67.5872 6.7C68.0192 6.948 68.3352 7.256 68.5352 7.624V6.424H69.6392V16.12H68.5352V11.788C68.3272 12.156 68.0072 12.468 67.5752 12.724C67.1432 12.98 66.6392 13.108 66.0632 13.108C65.4872 13.108 64.9632 12.964 64.4912 12.676C64.0192 12.388 63.6472 11.984 63.3752 11.464C63.1032 10.944 62.9672 10.352 62.9672 9.688ZM68.5352 9.7C68.5352 9.204 68.4352 8.772 68.2352 8.404C68.0352 8.036 67.7632 7.756 67.4192 7.564C67.0832 7.364 66.7112 7.264 66.3032 7.264C65.8952 7.264 65.5232 7.36 65.1872 7.552C64.8512 7.744 64.5832 8.024 64.3832 8.392C64.1832 8.76 64.0832 9.192 64.0832 9.688C64.0832 10.192 64.1832 10.632 64.3832 11.008C64.5832 11.376 64.8512 11.66 65.1872 11.86C65.5232 12.052 65.8952 12.148 66.3032 12.148C66.7112 12.148 67.0832 12.052 67.4192 11.86C67.7632 11.66 68.0352 11.376 68.2352 11.008C68.4352 10.632 68.5352 10.196 68.5352 9.7ZM77.3165 6.424V13H76.2245V12.028C76.0165 12.364 75.7245 12.628 75.3485 12.82C74.9805 13.004 74.5725 13.096 74.1245 13.096C73.6125 13.096 73.1525 12.992 72.7445 12.784C72.3365 12.568 72.0125 12.248 71.7725 11.824C71.5405 11.4 71.4245 10.884 71.4245 10.276V6.424H72.5045V10.132C72.5045 10.78 72.6685 11.28 72.9965 11.632C73.3245 11.976 73.7725 12.148 74.3405 12.148C74.9245 12.148 75.3845 11.968 75.7205 11.608C76.0565 11.248 76.2245 10.724 76.2245 10.036V6.424H77.3165ZM79.7243 5.356C79.5163 5.356 79.3403 5.284 79.1963 5.14C79.0523 4.996 78.9803 4.82 78.9803 4.612C78.9803 4.404 79.0523 4.228 79.1963 4.084C79.3403 3.94 79.5163 3.868 79.7243 3.868C79.9243 3.868 80.0923 3.94 80.2283 4.084C80.3723 4.228 80.4443 4.404 80.4443 4.612C80.4443 4.82 80.3723 4.996 80.2283 5.14C80.0923 5.284 79.9243 5.356 79.7243 5.356ZM80.2523 6.424V13H79.1603V6.424H80.2523ZM91.3127 9.46C91.3127 9.668 91.3007 9.888 91.2767 10.12H86.0207C86.0607 10.768 86.2807 11.276 86.6807 11.644C87.0887 12.004 87.5807 12.184 88.1567 12.184C88.6287 12.184 89.0207 12.076 89.3327 11.86C89.6527 11.636 89.8767 11.34 90.0047 10.972H91.1807C91.0047 11.604 90.6527 12.12 90.1247 12.52C89.5967 12.912 88.9407 13.108 88.1567 13.108C87.5327 13.108 86.9727 12.968 86.4767 12.688C85.9887 12.408 85.6047 12.012 85.3247 11.5C85.0447 10.98 84.9047 10.38 84.9047 9.7C84.9047 9.02 85.0407 8.424 85.3127 7.912C85.5847 7.4 85.9647 7.008 86.4527 6.736C86.9487 6.456 87.5167 6.316 88.1567 6.316C88.7807 6.316 89.3327 6.452 89.8127 6.724C90.2927 6.996 90.6607 7.372 90.9167 7.852C91.1807 8.324 91.3127 8.86 91.3127 9.46ZM90.1847 9.232C90.1847 8.816 90.0927 8.46 89.9087 8.164C89.7247 7.86 89.4727 7.632 89.1527 7.48C88.8407 7.32 88.4927 7.24 88.1087 7.24C87.5567 7.24 87.0847 7.416 86.6927 7.768C86.3087 8.12 86.0887 8.608 86.0327 9.232H90.1847ZM89.2847 4.564L86.7287 5.932V5.116L89.2847 3.616V4.564ZM98.8213 13.108C98.2053 13.108 97.6453 12.968 97.1413 12.688C96.6453 12.408 96.2533 12.012 95.9653 11.5C95.6853 10.98 95.5453 10.38 95.5453 9.7C95.5453 9.028 95.6893 8.436 95.9773 7.924C96.2733 7.404 96.6733 7.008 97.1773 6.736C97.6813 6.456 98.2453 6.316 98.8693 6.316C99.4933 6.316 100.057 6.456 100.561 6.736C101.065 7.008 101.461 7.4 101.749 7.912C102.045 8.424 102.193 9.02 102.193 9.7C102.193 10.38 102.041 10.98 101.737 11.5C101.441 12.012 101.037 12.408 100.525 12.688C100.013 12.968 99.4453 13.108 98.8213 13.108ZM98.8213 12.148C99.2133 12.148 99.5813 12.056 99.9253 11.872C100.269 11.688 100.545 11.412 100.753 11.044C100.969 10.676 101.077 10.228 101.077 9.7C101.077 9.172 100.973 8.724 100.765 8.356C100.557 7.988 100.285 7.716 99.9493 7.54C99.6133 7.356 99.2493 7.264 98.8573 7.264C98.4573 7.264 98.0893 7.356 97.7533 7.54C97.4253 7.716 97.1613 7.988 96.9613 8.356C96.7613 8.724 96.6613 9.172 96.6613 9.7C96.6613 10.236 96.7573 10.688 96.9493 11.056C97.1493 11.424 97.4133 11.7 97.7413 11.884C98.0693 12.06 98.4293 12.148 98.8213 12.148ZM109.276 11.992L111.316 6.424H112.48L109.9 13H108.628L106.048 6.424H107.224L109.276 11.992ZM113.147 9.688C113.147 9.016 113.283 8.428 113.555 7.924C113.827 7.412 114.199 7.016 114.671 6.736C115.151 6.456 115.683 6.316 116.267 6.316C116.843 6.316 117.343 6.44 117.767 6.688C118.191 6.936 118.507 7.248 118.715 7.624V6.424H119.819V13H118.715V11.776C118.499 12.16 118.175 12.48 117.743 12.736C117.319 12.984 116.823 13.108 116.255 13.108C115.671 13.108 115.143 12.964 114.671 12.676C114.199 12.388 113.827 11.984 113.555 11.464C113.283 10.944 113.147 10.352 113.147 9.688ZM118.715 9.7C118.715 9.204 118.615 8.772 118.415 8.404C118.215 8.036 117.943 7.756 117.599 7.564C117.263 7.364 116.891 7.264 116.483 7.264C116.075 7.264 115.703 7.36 115.367 7.552C115.031 7.744 114.763 8.024 114.563 8.392C114.363 8.76 114.263 9.192 114.263 9.688C114.263 10.192 114.363 10.632 114.563 11.008C114.763 11.376 115.031 11.66 115.367 11.86C115.703 12.052 116.075 12.148 116.483 12.148C116.891 12.148 117.263 12.052 117.599 11.86C117.943 11.66 118.215 11.376 118.415 11.008C118.615 10.632 118.715 10.196 118.715 9.7ZM122.756 4.12V13H121.664V4.12H122.756ZM127.485 13.108C126.869 13.108 126.309 12.968 125.805 12.688C125.309 12.408 124.917 12.012 124.629 11.5C124.349 10.98 124.209 10.38 124.209 9.7C124.209 9.028 124.353 8.436 124.641 7.924C124.937 7.404 125.337 7.008 125.841 6.736C126.345 6.456 126.909 6.316 127.533 6.316C128.157 6.316 128.721 6.456 129.225 6.736C129.729 7.008 130.125 7.4 130.413 7.912C130.709 8.424 130.857 9.02 130.857 9.7C130.857 10.38 130.705 10.98 130.401 11.5C130.105 12.012 129.701 12.408 129.189 12.688C128.677 12.968 128.109 13.108 127.485 13.108ZM127.485 12.148C127.877 12.148 128.245 12.056 128.589 11.872C128.933 11.688 129.209 11.412 129.417 11.044C129.633 10.676 129.741 10.228 129.741 9.7C129.741 9.172 129.637 8.724 129.429 8.356C129.221 7.988 128.949 7.716 128.613 7.54C128.277 7.356 127.913 7.264 127.521 7.264C127.121 7.264 126.753 7.356 126.417 7.54C126.089 7.716 125.825 7.988 125.625 8.356C125.425 8.724 125.325 9.172 125.325 9.7C125.325 10.236 125.421 10.688 125.613 11.056C125.813 11.424 126.077 11.7 126.405 11.884C126.733 12.06 127.093 12.148 127.485 12.148ZM133.385 7.492C133.577 7.116 133.849 6.824 134.201 6.616C134.561 6.408 134.997 6.304 135.509 6.304V7.432H135.221C133.997 7.432 133.385 8.096 133.385 9.424V13H132.293V6.424H133.385V7.492ZM139.561 9.688C139.561 9.016 139.697 8.428 139.969 7.924C140.241 7.412 140.613 7.016 141.085 6.736C141.565 6.456 142.101 6.316 142.693 6.316C143.261 6.316 143.757 6.444 144.181 6.7C144.613 6.948 144.929 7.256 145.129 7.624V6.424H146.233V16.12H145.129V11.788C144.921 12.156 144.601 12.468 144.169 12.724C143.737 12.98 143.233 13.108 142.657 13.108C142.081 13.108 141.557 12.964 141.085 12.676C140.613 12.388 140.241 11.984 139.969 11.464C139.697 10.944 139.561 10.352 139.561 9.688ZM145.129 9.7C145.129 9.204 145.029 8.772 144.829 8.404C144.629 8.036 144.357 7.756 144.013 7.564C143.677 7.364 143.305 7.264 142.897 7.264C142.489 7.264 142.117 7.36 141.781 7.552C141.445 7.744 141.177 8.024 140.977 8.392C140.777 8.76 140.677 9.192 140.677 9.688C140.677 10.192 140.777 10.632 140.977 11.008C141.177 11.376 141.445 11.66 141.781 11.86C142.117 12.052 142.489 12.148 142.897 12.148C143.305 12.148 143.677 12.052 144.013 11.86C144.357 11.66 144.629 11.376 144.829 11.008C145.029 10.632 145.129 10.196 145.129 9.7ZM153.91 6.424V13H152.818V12.028C152.61 12.364 152.318 12.628 151.942 12.82C151.574 13.004 151.166 13.096 150.718 13.096C150.206 13.096 149.746 12.992 149.338 12.784C148.93 12.568 148.606 12.248 148.366 11.824C148.134 11.4 148.018 10.884 148.018 10.276V6.424H149.098V10.132C149.098 10.78 149.262 11.28 149.59 11.632C149.918 11.976 150.366 12.148 150.934 12.148C151.518 12.148 151.978 11.968 152.314 11.608C152.65 11.248 152.818 10.724 152.818 10.036V6.424H153.91ZM161.754 9.46C161.754 9.668 161.742 9.888 161.718 10.12H156.462C156.502 10.768 156.722 11.276 157.122 11.644C157.53 12.004 158.022 12.184 158.598 12.184C159.07 12.184 159.462 12.076 159.774 11.86C160.094 11.636 160.318 11.34 160.446 10.972H161.622C161.446 11.604 161.094 12.12 160.566 12.52C160.038 12.912 159.382 13.108 158.598 13.108C157.974 13.108 157.414 12.968 156.918 12.688C156.43 12.408 156.046 12.012 155.766 11.5C155.486 10.98 155.346 10.38 155.346 9.7C155.346 9.02 155.482 8.424 155.754 7.912C156.026 7.4 156.406 7.008 156.894 6.736C157.39 6.456 157.958 6.316 158.598 6.316C159.222 6.316 159.774 6.452 160.254 6.724C160.734 6.996 161.102 7.372 161.358 7.852C161.622 8.324 161.754 8.86 161.754 9.46ZM160.626 9.232C160.626 8.816 160.534 8.46 160.35 8.164C160.166 7.86 159.914 7.632 159.594 7.48C159.282 7.32 158.934 7.24 158.55 7.24C157.998 7.24 157.526 7.416 157.134 7.768C156.75 8.12 156.53 8.608 156.474 9.232H160.626ZM167.487 7.636C167.703 7.26 168.023 6.948 168.447 6.7C168.879 6.444 169.379 6.316 169.947 6.316C170.531 6.316 171.059 6.456 171.531 6.736C172.011 7.016 172.387 7.412 172.659 7.924C172.931 8.428 173.067 9.016 173.067 9.688C173.067 10.352 172.931 10.944 172.659 11.464C172.387 11.984 172.011 12.388 171.531 12.676C171.059 12.964 170.531 13.108 169.947 13.108C169.387 13.108 168.891 12.984 168.459 12.736C168.035 12.48 167.711 12.164 167.487 11.788V16.12H166.395V6.424H167.487V7.636ZM171.951 9.688C171.951 9.192 171.851 8.76 171.651 8.392C171.451 8.024 171.179 7.744 170.835 7.552C170.499 7.36 170.127 7.264 169.719 7.264C169.319 7.264 168.947 7.364 168.603 7.564C168.267 7.756 167.995 8.04 167.787 8.416C167.587 8.784 167.487 9.212 167.487 9.7C167.487 10.196 167.587 10.632 167.787 11.008C167.995 11.376 168.267 11.66 168.603 11.86C168.947 12.052 169.319 12.148 169.719 12.148C170.127 12.148 170.499 12.052 170.835 11.86C171.179 11.66 171.451 11.376 171.651 11.008C171.851 10.632 171.951 10.192 171.951 9.688ZM180.504 9.46C180.504 9.668 180.492 9.888 180.468 10.12H175.212C175.252 10.768 175.472 11.276 175.872 11.644C176.28 12.004 176.772 12.184 177.348 12.184C177.82 12.184 178.212 12.076 178.524 11.86C178.844 11.636 179.068 11.34 179.196 10.972H180.372C180.196 11.604 179.844 12.12 179.316 12.52C178.788 12.912 178.132 13.108 177.348 13.108C176.724 13.108 176.164 12.968 175.668 12.688C175.18 12.408 174.796 12.012 174.516 11.5C174.236 10.98 174.096 10.38 174.096 9.7C174.096 9.02 174.232 8.424 174.504 7.912C174.776 7.4 175.156 7.008 175.644 6.736C176.14 6.456 176.708 6.316 177.348 6.316C177.972 6.316 178.524 6.452 179.004 6.724C179.484 6.996 179.852 7.372 180.108 7.852C180.372 8.324 180.504 8.86 180.504 9.46ZM179.376 9.232C179.376 8.816 179.284 8.46 179.1 8.164C178.916 7.86 178.664 7.632 178.344 7.48C178.032 7.32 177.684 7.24 177.3 7.24C176.748 7.24 176.276 7.416 175.884 7.768C175.5 8.12 175.28 8.608 175.224 9.232H179.376ZM183.037 7.492C183.229 7.116 183.501 6.824 183.853 6.616C184.213 6.408 184.649 6.304 185.161 6.304V7.432H184.873C183.649 7.432 183.037 8.096 183.037 9.424V13H181.945V6.424H183.037V7.492ZM186.014 9.688C186.014 9.016 186.15 8.428 186.422 7.924C186.694 7.412 187.066 7.016 187.538 6.736C188.018 6.456 188.554 6.316 189.146 6.316C189.658 6.316 190.134 6.436 190.574 6.676C191.014 6.908 191.35 7.216 191.582 7.6V4.12H192.686V13H191.582V11.764C191.366 12.156 191.046 12.48 190.622 12.736C190.198 12.984 189.702 13.108 189.134 13.108C188.55 13.108 188.018 12.964 187.538 12.676C187.066 12.388 186.694 11.984 186.422 11.464C186.15 10.944 186.014 10.352 186.014 9.688ZM191.582 9.7C191.582 9.204 191.482 8.772 191.282 8.404C191.082 8.036 190.81 7.756 190.466 7.564C190.13 7.364 189.758 7.264 189.35 7.264C188.942 7.264 188.57 7.36 188.234 7.552C187.898 7.744 187.63 8.024 187.43 8.392C187.23 8.76 187.13 9.192 187.13 9.688C187.13 10.192 187.23 10.632 187.43 11.008C187.63 11.376 187.898 11.66 188.234 11.86C188.57 12.052 188.942 12.148 189.35 12.148C189.758 12.148 190.13 12.052 190.466 11.86C190.81 11.66 191.082 11.376 191.282 11.008C191.482 10.632 191.582 10.196 191.582 9.7ZM200.531 9.46C200.531 9.668 200.519 9.888 200.495 10.12H195.239C195.279 10.768 195.499 11.276 195.899 11.644C196.307 12.004 196.799 12.184 197.375 12.184C197.847 12.184 198.239 12.076 198.551 11.86C198.871 11.636 199.095 11.34 199.223 10.972H200.399C200.223 11.604 199.871 12.12 199.343 12.52C198.815 12.912 198.159 13.108 197.375 13.108C196.751 13.108 196.191 12.968 195.695 12.688C195.207 12.408 194.823 12.012 194.543 11.5C194.263 10.98 194.123 10.38 194.123 9.7C194.123 9.02 194.259 8.424 194.531 7.912C194.803 7.4 195.183 7.008 195.671 6.736C196.167 6.456 196.735 6.316 197.375 6.316C197.999 6.316 198.551 6.452 199.031 6.724C199.511 6.996 199.879 7.372 200.135 7.852C200.399 8.324 200.531 8.86 200.531 9.46ZM199.403 9.232C199.403 8.816 199.311 8.46 199.127 8.164C198.943 7.86 198.691 7.632 198.371 7.48C198.059 7.32 197.711 7.24 197.327 7.24C196.775 7.24 196.303 7.416 195.911 7.768C195.527 8.12 195.307 8.608 195.251 9.232H199.403ZM203.065 7.492C203.257 7.116 203.529 6.824 203.881 6.616C204.241 6.408 204.677 6.304 205.189 6.304V7.432H204.901C203.677 7.432 203.065 8.096 203.065 9.424V13H201.973V6.424H203.065V7.492ZM206.041 9.688C206.041 9.016 206.177 8.428 206.449 7.924C206.721 7.412 207.093 7.016 207.565 6.736C208.045 6.456 208.577 6.316 209.161 6.316C209.737 6.316 210.237 6.44 210.661 6.688C211.085 6.936 211.401 7.248 211.609 7.624V6.424H212.713V13H211.609V11.776C211.393 12.16 211.069 12.48 210.637 12.736C210.213 12.984 209.717 13.108 209.149 13.108C208.565 13.108 208.037 12.964 207.565 12.676C207.093 12.388 206.721 11.984 206.449 11.464C206.177 10.944 206.041 10.352 206.041 9.688ZM211.609 9.7C211.609 9.204 211.509 8.772 211.309 8.404C211.109 8.036 210.837 7.756 210.493 7.564C210.157 7.364 209.785 7.264 209.377 7.264C208.969 7.264 208.597 7.36 208.261 7.552C207.925 7.744 207.657 8.024 207.457 8.392C207.257 8.76 207.157 9.192 207.157 9.688C207.157 10.192 207.257 10.632 207.457 11.008C207.657 11.376 207.925 11.66 208.261 11.86C208.597 12.052 208.969 12.148 209.377 12.148C209.785 12.148 210.157 12.052 210.493 11.86C210.837 11.66 211.109 11.376 211.309 11.008C211.509 10.632 211.609 10.196 211.609 9.7ZM210.757 4.564L208.201 5.932V5.116L210.757 3.616V4.564ZM80.5431 27.46C80.5431 27.668 80.5311 27.888 80.5071 28.12H75.2511C75.2911 28.768 75.5111 29.276 75.9111 29.644C76.3191 30.004 76.8111 30.184 77.3871 30.184C77.8591 30.184 78.2511 30.076 78.5631 29.86C78.8831 29.636 79.1071 29.34 79.2351 28.972H80.4111C80.2351 29.604 79.8831 30.12 79.3551 30.52C78.8271 30.912 78.1711 31.108 77.3871 31.108C76.7631 31.108 76.2031 30.968 75.7071 30.688C75.2191 30.408 74.8351 30.012 74.5551 29.5C74.2751 28.98 74.1351 28.38 74.1351 27.7C74.1351 27.02 74.2711 26.424 74.5431 25.912C74.8151 25.4 75.1951 25.008 75.6831 24.736C76.1791 24.456 76.7471 24.316 77.3871 24.316C78.0111 24.316 78.5631 24.452 79.0431 24.724C79.5231 24.996 79.8911 25.372 80.1471 25.852C80.4111 26.324 80.5431 26.86 80.5431 27.46ZM79.4151 27.232C79.4151 26.816 79.3231 26.46 79.1391 26.164C78.9551 25.86 78.7031 25.632 78.3831 25.48C78.0711 25.32 77.7231 25.24 77.3391 25.24C76.7871 25.24 76.3151 25.416 75.9231 25.768C75.5391 26.12 75.3191 26.608 75.2631 27.232H79.4151ZM89.8925 24.304C90.4045 24.304 90.8605 24.412 91.2605 24.628C91.6605 24.836 91.9765 25.152 92.2085 25.576C92.4405 26 92.5565 26.516 92.5565 27.124V31H91.4765V27.28C91.4765 26.624 91.3125 26.124 90.9845 25.78C90.6645 25.428 90.2285 25.252 89.6765 25.252C89.1085 25.252 88.6565 25.436 88.3205 25.804C87.9845 26.164 87.8165 26.688 87.8165 27.376V31H86.7365V27.28C86.7365 26.624 86.5725 26.124 86.2445 25.78C85.9245 25.428 85.4885 25.252 84.9365 25.252C84.3685 25.252 83.9165 25.436 83.5805 25.804C83.2445 26.164 83.0765 26.688 83.0765 27.376V31H81.9845V24.424H83.0765V25.372C83.2925 25.028 83.5805 24.764 83.9405 24.58C84.3085 24.396 84.7125 24.304 85.1525 24.304C85.7045 24.304 86.1925 24.428 86.6165 24.676C87.0405 24.924 87.3565 25.288 87.5645 25.768C87.7485 25.304 88.0525 24.944 88.4765 24.688C88.9005 24.432 89.3725 24.304 89.8925 24.304ZM97.139 27.7C97.139 27.02 97.275 26.428 97.547 25.924C97.819 25.412 98.195 25.016 98.675 24.736C99.163 24.456 99.719 24.316 100.343 24.316C101.151 24.316 101.815 24.512 102.335 24.904C102.863 25.296 103.211 25.84 103.379 26.536H102.203C102.091 26.136 101.871 25.82 101.543 25.588C101.223 25.356 100.823 25.24 100.343 25.24C99.719 25.24 99.215 25.456 98.831 25.888C98.447 26.312 98.255 26.916 98.255 27.7C98.255 28.492 98.447 29.104 98.831 29.536C99.215 29.968 99.719 30.184 100.343 30.184C100.823 30.184 101.223 30.072 101.543 29.848C101.863 29.624 102.083 29.304 102.203 28.888H103.379C103.203 29.56 102.851 30.1 102.323 30.508C101.795 30.908 101.135 31.108 100.343 31.108C99.719 31.108 99.163 30.968 98.675 30.688C98.195 30.408 97.819 30.012 97.547 29.5C97.275 28.988 97.139 28.388 97.139 27.7ZM104.428 27.688C104.428 27.016 104.564 26.428 104.836 25.924C105.108 25.412 105.48 25.016 105.952 24.736C106.432 24.456 106.964 24.316 107.548 24.316C108.124 24.316 108.624 24.44 109.048 24.688C109.472 24.936 109.788 25.248 109.996 25.624V24.424H111.1V31H109.996V29.776C109.78 30.16 109.456 30.48 109.024 30.736C108.6 30.984 108.104 31.108 107.536 31.108C106.952 31.108 106.424 30.964 105.952 30.676C105.48 30.388 105.108 29.984 104.836 29.464C104.564 28.944 104.428 28.352 104.428 27.688ZM109.996 27.7C109.996 27.204 109.896 26.772 109.696 26.404C109.496 26.036 109.224 25.756 108.88 25.564C108.544 25.364 108.172 25.264 107.764 25.264C107.356 25.264 106.984 25.36 106.648 25.552C106.312 25.744 106.044 26.024 105.844 26.392C105.644 26.76 105.544 27.192 105.544 27.688C105.544 28.192 105.644 28.632 105.844 29.008C106.044 29.376 106.312 29.66 106.648 29.86C106.984 30.052 107.356 30.148 107.764 30.148C108.172 30.148 108.544 30.052 108.88 29.86C109.224 29.66 109.496 29.376 109.696 29.008C109.896 28.632 109.996 28.196 109.996 27.7ZM115.273 31.108C114.769 31.108 114.317 31.024 113.917 30.856C113.517 30.68 113.201 30.44 112.969 30.136C112.737 29.824 112.609 29.468 112.585 29.068H113.713C113.745 29.396 113.897 29.664 114.169 29.872C114.449 30.08 114.813 30.184 115.261 30.184C115.677 30.184 116.005 30.092 116.245 29.908C116.485 29.724 116.605 29.492 116.605 29.212C116.605 28.924 116.477 28.712 116.221 28.576C115.965 28.432 115.569 28.292 115.033 28.156C114.545 28.028 114.145 27.9 113.833 27.772C113.529 27.636 113.265 27.44 113.041 27.184C112.825 26.92 112.717 26.576 112.717 26.152C112.717 25.816 112.817 25.508 113.017 25.228C113.217 24.948 113.501 24.728 113.869 24.568C114.237 24.4 114.657 24.316 115.129 24.316C115.857 24.316 116.445 24.5 116.893 24.868C117.341 25.236 117.581 25.74 117.613 26.38H116.521C116.497 26.036 116.357 25.76 116.101 25.552C115.853 25.344 115.517 25.24 115.093 25.24C114.701 25.24 114.389 25.324 114.157 25.492C113.925 25.66 113.809 25.88 113.809 26.152C113.809 26.368 113.877 26.548 114.013 26.692C114.157 26.828 114.333 26.94 114.541 27.028C114.757 27.108 115.053 27.2 115.429 27.304C115.901 27.432 116.285 27.56 116.581 27.688C116.877 27.808 117.129 27.992 117.337 28.24C117.553 28.488 117.665 28.812 117.673 29.212C117.673 29.572 117.573 29.896 117.373 30.184C117.173 30.472 116.889 30.7 116.521 30.868C116.161 31.028 115.745 31.108 115.273 31.108ZM122.083 31.108C121.467 31.108 120.907 30.968 120.403 30.688C119.907 30.408 119.515 30.012 119.227 29.5C118.947 28.98 118.807 28.38 118.807 27.7C118.807 27.028 118.951 26.436 119.239 25.924C119.535 25.404 119.935 25.008 120.439 24.736C120.943 24.456 121.507 24.316 122.131 24.316C122.755 24.316 123.319 24.456 123.823 24.736C124.327 25.008 124.723 25.4 125.011 25.912C125.307 26.424 125.455 27.02 125.455 27.7C125.455 28.38 125.303 28.98 124.999 29.5C124.703 30.012 124.299 30.408 123.787 30.688C123.275 30.968 122.707 31.108 122.083 31.108ZM122.083 30.148C122.475 30.148 122.843 30.056 123.187 29.872C123.531 29.688 123.807 29.412 124.015 29.044C124.231 28.676 124.339 28.228 124.339 27.7C124.339 27.172 124.235 26.724 124.027 26.356C123.819 25.988 123.547 25.716 123.211 25.54C122.875 25.356 122.511 25.264 122.119 25.264C121.719 25.264 121.351 25.356 121.015 25.54C120.687 25.716 120.423 25.988 120.223 26.356C120.023 26.724 119.923 27.172 119.923 27.7C119.923 28.236 120.019 28.688 120.211 29.056C120.411 29.424 120.675 29.7 121.003 29.884C121.331 30.06 121.691 30.148 122.083 30.148ZM129.682 27.688C129.682 27.016 129.818 26.428 130.09 25.924C130.362 25.412 130.734 25.016 131.206 24.736C131.686 24.456 132.222 24.316 132.814 24.316C133.326 24.316 133.802 24.436 134.242 24.676C134.682 24.908 135.018 25.216 135.25 25.6V22.12H136.354V31H135.25V29.764C135.034 30.156 134.714 30.48 134.29 30.736C133.866 30.984 133.37 31.108 132.802 31.108C132.218 31.108 131.686 30.964 131.206 30.676C130.734 30.388 130.362 29.984 130.09 29.464C129.818 28.944 129.682 28.352 129.682 27.688ZM135.25 27.7C135.25 27.204 135.15 26.772 134.95 26.404C134.75 26.036 134.478 25.756 134.134 25.564C133.798 25.364 133.426 25.264 133.018 25.264C132.61 25.264 132.238 25.36 131.902 25.552C131.566 25.744 131.298 26.024 131.098 26.392C130.898 26.76 130.798 27.192 130.798 27.688C130.798 28.192 130.898 28.632 131.098 29.008C131.298 29.376 131.566 29.66 131.902 29.86C132.238 30.052 132.61 30.148 133.018 30.148C133.426 30.148 133.798 30.052 134.134 29.86C134.478 29.66 134.75 29.376 134.95 29.008C135.15 28.632 135.25 28.196 135.25 27.7ZM144.199 27.46C144.199 27.668 144.187 27.888 144.163 28.12H138.907C138.947 28.768 139.167 29.276 139.567 29.644C139.975 30.004 140.467 30.184 141.043 30.184C141.515 30.184 141.907 30.076 142.219 29.86C142.539 29.636 142.763 29.34 142.891 28.972H144.067C143.891 29.604 143.539 30.12 143.011 30.52C142.483 30.912 141.827 31.108 141.043 31.108C140.419 31.108 139.859 30.968 139.363 30.688C138.875 30.408 138.491 30.012 138.211 29.5C137.931 28.98 137.791 28.38 137.791 27.7C137.791 27.02 137.927 26.424 138.199 25.912C138.471 25.4 138.851 25.008 139.339 24.736C139.835 24.456 140.403 24.316 141.043 24.316C141.667 24.316 142.219 24.452 142.699 24.724C143.179 24.996 143.547 25.372 143.803 25.852C144.067 26.324 144.199 26.86 144.199 27.46ZM143.071 27.232C143.071 26.816 142.979 26.46 142.795 26.164C142.611 25.86 142.359 25.632 142.039 25.48C141.727 25.32 141.379 25.24 140.995 25.24C140.443 25.24 139.971 25.416 139.579 25.768C139.195 26.12 138.975 26.608 138.919 27.232H143.071Z" fill="white"/>
<path d="M148.252 27.64C148.252 26.952 148.38 26.348 148.636 25.828C148.9 25.308 149.256 24.908 149.704 24.628C150.152 24.348 150.652 24.208 151.204 24.208C151.644 24.208 152.044 24.3 152.404 24.484C152.772 24.668 153.06 24.916 153.268 25.228V22.12H155.32V31H153.268V30.04C153.076 30.36 152.8 30.616 152.44 30.808C152.088 31 151.676 31.096 151.204 31.096C150.652 31.096 150.152 30.956 149.704 30.676C149.256 30.388 148.9 29.984 148.636 29.464C148.38 28.936 148.252 28.328 148.252 27.64ZM153.268 27.652C153.268 27.14 153.124 26.736 152.836 26.44C152.556 26.144 152.212 25.996 151.804 25.996C151.396 25.996 151.048 26.144 150.76 26.44C150.48 26.728 150.34 27.128 150.34 27.64C150.34 28.152 150.48 28.56 150.76 28.864C151.048 29.16 151.396 29.308 151.804 29.308C152.212 29.308 152.556 29.16 152.836 28.864C153.124 28.568 153.268 28.164 153.268 27.652ZM163.117 27.544C163.117 27.736 163.105 27.936 163.081 28.144H158.437C158.469 28.56 158.601 28.88 158.833 29.104C159.073 29.32 159.365 29.428 159.709 29.428C160.221 29.428 160.577 29.212 160.777 28.78H162.961C162.849 29.22 162.645 29.616 162.349 29.968C162.061 30.32 161.697 30.596 161.257 30.796C160.817 30.996 160.325 31.096 159.781 31.096C159.125 31.096 158.541 30.956 158.029 30.676C157.517 30.396 157.117 29.996 156.829 29.476C156.541 28.956 156.397 28.348 156.397 27.652C156.397 26.956 156.537 26.348 156.817 25.828C157.105 25.308 157.505 24.908 158.017 24.628C158.529 24.348 159.117 24.208 159.781 24.208C160.429 24.208 161.005 24.344 161.509 24.616C162.013 24.888 162.405 25.276 162.685 25.78C162.973 26.284 163.117 26.872 163.117 27.544ZM161.017 27.004C161.017 26.652 160.897 26.372 160.657 26.164C160.417 25.956 160.117 25.852 159.757 25.852C159.413 25.852 159.121 25.952 158.881 26.152C158.649 26.352 158.505 26.636 158.449 27.004H161.017ZM166.251 25.42C166.491 25.052 166.791 24.764 167.151 24.556C167.511 24.34 167.911 24.232 168.351 24.232V26.404H167.787C167.275 26.404 166.891 26.516 166.635 26.74C166.379 26.956 166.251 27.34 166.251 27.892V31H164.199V24.304H166.251V25.42ZM171.384 25.42C171.624 25.052 171.924 24.764 172.284 24.556C172.644 24.34 173.044 24.232 173.484 24.232V26.404H172.92C172.408 26.404 172.024 26.516 171.768 26.74C171.512 26.956 171.384 27.34 171.384 27.892V31H169.332V24.304H171.384V25.42ZM177.513 31.096C176.857 31.096 176.265 30.956 175.737 30.676C175.217 30.396 174.805 29.996 174.501 29.476C174.205 28.956 174.057 28.348 174.057 27.652C174.057 26.964 174.209 26.36 174.513 25.84C174.817 25.312 175.233 24.908 175.761 24.628C176.289 24.348 176.881 24.208 177.537 24.208C178.193 24.208 178.785 24.348 179.313 24.628C179.841 24.908 180.257 25.312 180.561 25.84C180.865 26.36 181.017 26.964 181.017 27.652C181.017 28.34 180.861 28.948 180.549 29.476C180.245 29.996 179.825 30.396 179.289 30.676C178.761 30.956 178.169 31.096 177.513 31.096ZM177.513 29.32C177.905 29.32 178.237 29.176 178.509 28.888C178.789 28.6 178.929 28.188 178.929 27.652C178.929 27.116 178.793 26.704 178.521 26.416C178.257 26.128 177.929 25.984 177.537 25.984C177.137 25.984 176.805 26.128 176.541 26.416C176.277 26.696 176.145 27.108 176.145 27.652C176.145 28.188 176.273 28.6 176.529 28.888C176.793 29.176 177.121 29.32 177.513 29.32ZM185.837 29.26V31H184.793C184.049 31 183.469 30.82 183.053 30.46C182.637 30.092 182.429 29.496 182.429 28.672V26.008H181.613V24.304H182.429V22.672H184.481V24.304H185.825V26.008H184.481V28.696C184.481 28.896 184.529 29.04 184.625 29.128C184.721 29.216 184.881 29.26 185.105 29.26H185.837ZM186.572 27.64C186.572 26.952 186.7 26.348 186.956 25.828C187.22 25.308 187.576 24.908 188.024 24.628C188.472 24.348 188.972 24.208 189.524 24.208C189.996 24.208 190.408 24.304 190.76 24.496C191.12 24.688 191.396 24.94 191.588 25.252V24.304H193.64V31H191.588V30.052C191.388 30.364 191.108 30.616 190.748 30.808C190.396 31 189.984 31.096 189.512 31.096C188.968 31.096 188.472 30.956 188.024 30.676C187.576 30.388 187.22 29.984 186.956 29.464C186.7 28.936 186.572 28.328 186.572 27.64ZM191.588 27.652C191.588 27.14 191.444 26.736 191.156 26.44C190.876 26.144 190.532 25.996 190.124 25.996C189.716 25.996 189.368 26.144 189.08 26.44C188.8 26.728 188.66 27.128 188.66 27.64C188.66 28.152 188.8 28.56 189.08 28.864C189.368 29.16 189.716 29.308 190.124 29.308C190.532 29.308 190.876 29.16 191.156 28.864C191.444 28.568 191.588 28.164 191.588 27.652Z" fill="#E81538"/>
<path d="M46.0878 321.416L46.3105 322.133L46.3105 322.133L46.0878 321.416ZM3.336 334.151C3.14325 334.518 3.28422 334.971 3.65086 335.164L9.62553 338.305C9.99217 338.498 10.4456 338.357 10.6384 337.99C10.8311 337.623 10.6902 337.17 10.3235 336.977L5.0127 334.185L7.80468 328.874C7.99743 328.508 7.85646 328.054 7.48983 327.861C7.12319 327.669 6.66972 327.81 6.47698 328.176L3.336 334.151ZM187.411 48.5267L186.689 48.7294L186.689 48.7294L187.411 48.5267ZM176.205 205.447L176.891 205.75L176.205 205.447ZM45.8652 320.7L3.77722 333.784L4.22249 335.216L46.3105 322.133L45.8652 320.7ZM185.278 43.7027L186.689 48.7294L188.133 48.324L186.722 43.2973L185.278 43.7027ZM186.689 48.7294C201.244 100.582 197.295 155.885 175.519 205.143L176.891 205.75C198.808 156.173 202.782 100.512 188.133 48.324L186.689 48.7294ZM46.3105 322.133C104.6 304.013 152.21 261.579 176.891 205.75L175.519 205.143C151.014 260.576 103.741 302.709 45.8652 320.7L46.3105 322.133Z" fill="#E81538"/>
</svg>
