<svg width="139" height="339" viewBox="0 0 139 339" fill="none" xmlns="http://www.w3.org/2000/svg">
<path d="M35.868 9.14H32.22L31.548 11H30.396L33.42 2.684H34.68L37.692 11H36.54L35.868 9.14ZM35.556 8.252L34.044 4.028L32.532 8.252H35.556ZM38.6019 7.688C38.6019 7.016 38.7379 6.428 39.0099 5.924C39.2819 5.412 39.6539 5.016 40.1259 4.736C40.6059 4.456 41.1419 4.316 41.7339 4.316C42.3019 4.316 42.7979 4.444 43.2219 4.7C43.6539 4.948 43.9699 5.256 44.1699 5.624V4.424H45.2739V14.12H44.1699V9.788C43.9619 10.156 43.6419 10.468 43.2099 10.724C42.7779 10.98 42.2739 11.108 41.6979 11.108C41.1219 11.108 40.5979 10.964 40.1259 10.676C39.6539 10.388 39.2819 9.984 39.0099 9.464C38.7379 8.944 38.6019 8.352 38.6019 7.688ZM44.1699 7.7C44.1699 7.204 44.0699 6.772 43.8699 6.404C43.6699 6.036 43.3979 5.756 43.0539 5.564C42.7179 5.364 42.3459 5.264 41.9379 5.264C41.5299 5.264 41.1579 5.36 40.8219 5.552C40.4859 5.744 40.2179 6.024 40.0179 6.392C39.8179 6.76 39.7179 7.192 39.7179 7.688C39.7179 8.192 39.8179 8.632 40.0179 9.008C40.2179 9.376 40.4859 9.66 40.8219 9.86C41.1579 10.052 41.5299 10.148 41.9379 10.148C42.3459 10.148 42.7179 10.052 43.0539 9.86C43.3979 9.66 43.6699 9.376 43.8699 9.008C44.0699 8.632 44.1699 8.196 44.1699 7.7ZM52.9513 4.424V11H51.8593V10.028C51.6513 10.364 51.3593 10.628 50.9833 10.82C50.6153 11.004 50.2073 11.096 49.7593 11.096C49.2473 11.096 48.7873 10.992 48.3793 10.784C47.9713 10.568 47.6473 10.248 47.4073 9.824C47.1753 9.4 47.0593 8.884 47.0593 8.276V4.424H48.1393V8.132C48.1393 8.78 48.3033 9.28 48.6313 9.632C48.9593 9.976 49.4073 10.148 49.9753 10.148C50.5593 10.148 51.0193 9.968 51.3553 9.608C51.6913 9.248 51.8593 8.724 51.8593 8.036V4.424H52.9513ZM55.3591 3.356C55.1511 3.356 54.9751 3.284 54.8311 3.14C54.6871 2.996 54.6151 2.82 54.6151 2.612C54.6151 2.404 54.6871 2.228 54.8311 2.084C54.9751 1.94 55.1511 1.868 55.3591 1.868C55.5591 1.868 55.7271 1.94 55.8631 2.084C56.0071 2.228 56.0791 2.404 56.0791 2.612C56.0791 2.82 56.0071 2.996 55.8631 3.14C55.7271 3.284 55.5591 3.356 55.3591 3.356ZM55.8871 4.424V11H54.7951V4.424H55.8871ZM66.9474 7.46C66.9474 7.668 66.9354 7.888 66.9114 8.12H61.6554C61.6954 8.768 61.9154 9.276 62.3154 9.644C62.7234 10.004 63.2154 10.184 63.7914 10.184C64.2634 10.184 64.6554 10.076 64.9674 9.86C65.2874 9.636 65.5114 9.34 65.6394 8.972H66.8154C66.6394 9.604 66.2874 10.12 65.7594 10.52C65.2314 10.912 64.5754 11.108 63.7914 11.108C63.1674 11.108 62.6074 10.968 62.1114 10.688C61.6234 10.408 61.2394 10.012 60.9594 9.5C60.6794 8.98 60.5394 8.38 60.5394 7.7C60.5394 7.02 60.6754 6.424 60.9474 5.912C61.2194 5.4 61.5994 5.008 62.0874 4.736C62.5834 4.456 63.1514 4.316 63.7914 4.316C64.4154 4.316 64.9674 4.452 65.4474 4.724C65.9274 4.996 66.2954 5.372 66.5514 5.852C66.8154 6.324 66.9474 6.86 66.9474 7.46ZM65.8194 7.232C65.8194 6.816 65.7274 6.46 65.5434 6.164C65.3594 5.86 65.1074 5.632 64.7874 5.48C64.4754 5.32 64.1274 5.24 63.7434 5.24C63.1914 5.24 62.7194 5.416 62.3274 5.768C61.9434 6.12 61.7234 6.608 61.6674 7.232H65.8194ZM64.9194 2.564L62.3634 3.932V3.116L64.9194 1.616V2.564ZM74.4561 11.108C73.8401 11.108 73.2801 10.968 72.7761 10.688C72.2801 10.408 71.8881 10.012 71.6001 9.5C71.3201 8.98 71.1801 8.38 71.1801 7.7C71.1801 7.028 71.3241 6.436 71.6121 5.924C71.9081 5.404 72.3081 5.008 72.8121 4.736C73.3161 4.456 73.8801 4.316 74.5041 4.316C75.1281 4.316 75.6921 4.456 76.1961 4.736C76.7001 5.008 77.0961 5.4 77.3841 5.912C77.6801 6.424 77.8281 7.02 77.8281 7.7C77.8281 8.38 77.6761 8.98 77.3721 9.5C77.0761 10.012 76.6721 10.408 76.1601 10.688C75.6481 10.968 75.0801 11.108 74.4561 11.108ZM74.4561 10.148C74.8481 10.148 75.2161 10.056 75.5601 9.872C75.9041 9.688 76.1801 9.412 76.3881 9.044C76.6041 8.676 76.7121 8.228 76.7121 7.7C76.7121 7.172 76.6081 6.724 76.4001 6.356C76.1921 5.988 75.9201 5.716 75.5841 5.54C75.2481 5.356 74.8841 5.264 74.4921 5.264C74.0921 5.264 73.7241 5.356 73.3881 5.54C73.0601 5.716 72.7961 5.988 72.5961 6.356C72.3961 6.724 72.2961 7.172 72.2961 7.7C72.2961 8.236 72.3921 8.688 72.5841 9.056C72.7841 9.424 73.0481 9.7 73.3761 9.884C73.7041 10.06 74.0641 10.148 74.4561 10.148ZM83.5551 2.12V11H82.4631V2.12H83.5551ZM91.2482 4.424V11H90.1562V10.028C89.9482 10.364 89.6562 10.628 89.2802 10.82C88.9122 11.004 88.5042 11.096 88.0562 11.096C87.5442 11.096 87.0842 10.992 86.6762 10.784C86.2682 10.568 85.9442 10.248 85.7042 9.824C85.4722 9.4 85.3562 8.884 85.3562 8.276V4.424H86.4362V8.132C86.4362 8.78 86.6002 9.28 86.9282 9.632C87.2562 9.976 87.7042 10.148 88.2722 10.148C88.8562 10.148 89.3162 9.968 89.6522 9.608C89.9882 9.248 90.1562 8.724 90.1562 8.036V4.424H91.2482ZM92.684 7.7C92.684 7.02 92.82 6.428 93.092 5.924C93.364 5.412 93.74 5.016 94.22 4.736C94.708 4.456 95.264 4.316 95.888 4.316C96.696 4.316 97.36 4.512 97.88 4.904C98.408 5.296 98.756 5.84 98.924 6.536H97.748C97.636 6.136 97.416 5.82 97.088 5.588C96.768 5.356 96.368 5.24 95.888 5.24C95.264 5.24 94.76 5.456 94.376 5.888C93.992 6.312 93.8 6.916 93.8 7.7C93.8 8.492 93.992 9.104 94.376 9.536C94.76 9.968 95.264 10.184 95.888 10.184C96.368 10.184 96.768 10.072 97.088 9.848C97.408 9.624 97.628 9.304 97.748 8.888H98.924C98.748 9.56 98.396 10.1 97.868 10.508C97.34 10.908 96.68 11.108 95.888 11.108C95.264 11.108 94.708 10.968 94.22 10.688C93.74 10.408 93.364 10.012 93.092 9.5C92.82 8.988 92.684 8.388 92.684 7.7ZM101.473 5.492C101.665 5.116 101.937 4.824 102.289 4.616C102.649 4.408 103.085 4.304 103.597 4.304V5.432H103.309C102.085 5.432 101.473 6.096 101.473 7.424V11H100.381V4.424H101.473V5.492ZM107.726 11.108C107.11 11.108 106.55 10.968 106.046 10.688C105.55 10.408 105.158 10.012 104.87 9.5C104.59 8.98 104.45 8.38 104.45 7.7C104.45 7.028 104.594 6.436 104.882 5.924C105.178 5.404 105.578 5.008 106.082 4.736C106.586 4.456 107.15 4.316 107.774 4.316C108.398 4.316 108.962 4.456 109.466 4.736C109.97 5.008 110.366 5.4 110.654 5.912C110.95 6.424 111.098 7.02 111.098 7.7C111.098 8.38 110.946 8.98 110.642 9.5C110.346 10.012 109.942 10.408 109.43 10.688C108.918 10.968 108.35 11.108 107.726 11.108ZM107.726 10.148C108.118 10.148 108.486 10.056 108.83 9.872C109.174 9.688 109.45 9.412 109.658 9.044C109.874 8.676 109.982 8.228 109.982 7.7C109.982 7.172 109.878 6.724 109.67 6.356C109.462 5.988 109.19 5.716 108.854 5.54C108.518 5.356 108.154 5.264 107.762 5.264C107.362 5.264 106.994 5.356 106.658 5.54C106.33 5.716 106.066 5.988 105.866 6.356C105.666 6.724 105.566 7.172 105.566 7.7C105.566 8.236 105.662 8.688 105.854 9.056C106.054 9.424 106.318 9.7 106.646 9.884C106.974 10.06 107.334 10.148 107.726 10.148ZM121.733 7.46C121.733 7.668 121.721 7.888 121.697 8.12H116.441C116.481 8.768 116.701 9.276 117.101 9.644C117.509 10.004 118.001 10.184 118.577 10.184C119.049 10.184 119.441 10.076 119.753 9.86C120.073 9.636 120.297 9.34 120.425 8.972H121.601C121.425 9.604 121.073 10.12 120.545 10.52C120.017 10.912 119.361 11.108 118.577 11.108C117.953 11.108 117.393 10.968 116.897 10.688C116.409 10.408 116.025 10.012 115.745 9.5C115.465 8.98 115.325 8.38 115.325 7.7C115.325 7.02 115.461 6.424 115.733 5.912C116.005 5.4 116.385 5.008 116.873 4.736C117.369 4.456 117.937 4.316 118.577 4.316C119.201 4.316 119.753 4.452 120.233 4.724C120.713 4.996 121.081 5.372 121.337 5.852C121.601 6.324 121.733 6.86 121.733 7.46ZM120.605 7.232C120.605 6.816 120.513 6.46 120.329 6.164C120.145 5.86 119.893 5.632 119.573 5.48C119.261 5.32 118.913 5.24 118.529 5.24C117.977 5.24 117.505 5.416 117.113 5.768C116.729 6.12 116.509 6.608 116.453 7.232H120.605ZM131.082 4.304C131.594 4.304 132.05 4.412 132.45 4.628C132.85 4.836 133.166 5.152 133.398 5.576C133.63 6 133.746 6.516 133.746 7.124V11H132.666V7.28C132.666 6.624 132.502 6.124 132.174 5.78C131.854 5.428 131.418 5.252 130.866 5.252C130.298 5.252 129.846 5.436 129.51 5.804C129.174 6.164 129.006 6.688 129.006 7.376V11H127.926V7.28C127.926 6.624 127.762 6.124 127.434 5.78C127.114 5.428 126.678 5.252 126.126 5.252C125.558 5.252 125.106 5.436 124.77 5.804C124.434 6.164 124.266 6.688 124.266 7.376V11H123.174V4.424H124.266V5.372C124.482 5.028 124.77 4.764 125.13 4.58C125.498 4.396 125.902 4.304 126.342 4.304C126.894 4.304 127.382 4.428 127.806 4.676C128.23 4.924 128.546 5.288 128.754 5.768C128.938 5.304 129.242 4.944 129.666 4.688C130.09 4.432 130.562 4.304 131.082 4.304ZM30.516 21.7C30.516 21.02 30.652 20.428 30.924 19.924C31.196 19.412 31.572 19.016 32.052 18.736C32.54 18.456 33.096 18.316 33.72 18.316C34.528 18.316 35.192 18.512 35.712 18.904C36.24 19.296 36.588 19.84 36.756 20.536H35.58C35.468 20.136 35.248 19.82 34.92 19.588C34.6 19.356 34.2 19.24 33.72 19.24C33.096 19.24 32.592 19.456 32.208 19.888C31.824 20.312 31.632 20.916 31.632 21.7C31.632 22.492 31.824 23.104 32.208 23.536C32.592 23.968 33.096 24.184 33.72 24.184C34.2 24.184 34.6 24.072 34.92 23.848C35.24 23.624 35.46 23.304 35.58 22.888H36.756C36.58 23.56 36.228 24.1 35.7 24.508C35.172 24.908 34.512 25.108 33.72 25.108C33.096 25.108 32.54 24.968 32.052 24.688C31.572 24.408 31.196 24.012 30.924 23.5C30.652 22.988 30.516 22.388 30.516 21.7ZM37.8051 21.688C37.8051 21.016 37.9411 20.428 38.2131 19.924C38.4851 19.412 38.8571 19.016 39.3291 18.736C39.8091 18.456 40.3411 18.316 40.9251 18.316C41.5011 18.316 42.0011 18.44 42.4251 18.688C42.8491 18.936 43.1651 19.248 43.3731 19.624V18.424H44.4771V25H43.3731V23.776C43.1571 24.16 42.8331 24.48 42.4011 24.736C41.9771 24.984 41.4811 25.108 40.9131 25.108C40.3291 25.108 39.8011 24.964 39.3291 24.676C38.8571 24.388 38.4851 23.984 38.2131 23.464C37.9411 22.944 37.8051 22.352 37.8051 21.688ZM43.3731 21.7C43.3731 21.204 43.2731 20.772 43.0731 20.404C42.8731 20.036 42.6011 19.756 42.2571 19.564C41.9211 19.364 41.5491 19.264 41.1411 19.264C40.7331 19.264 40.3611 19.36 40.0251 19.552C39.6891 19.744 39.4211 20.024 39.2211 20.392C39.0211 20.76 38.9211 21.192 38.9211 21.688C38.9211 22.192 39.0211 22.632 39.2211 23.008C39.4211 23.376 39.6891 23.66 40.0251 23.86C40.3611 24.052 40.7331 24.148 41.1411 24.148C41.5491 24.148 41.9211 24.052 42.2571 23.86C42.6011 23.66 42.8731 23.376 43.0731 23.008C43.2731 22.632 43.3731 22.196 43.3731 21.7ZM48.6504 25.108C48.1464 25.108 47.6944 25.024 47.2944 24.856C46.8944 24.68 46.5784 24.44 46.3464 24.136C46.1144 23.824 45.9864 23.468 45.9624 23.068H47.0904C47.1224 23.396 47.2744 23.664 47.5464 23.872C47.8264 24.08 48.1904 24.184 48.6384 24.184C49.0544 24.184 49.3824 24.092 49.6224 23.908C49.8624 23.724 49.9824 23.492 49.9824 23.212C49.9824 22.924 49.8544 22.712 49.5984 22.576C49.3424 22.432 48.9464 22.292 48.4104 22.156C47.9224 22.028 47.5224 21.9 47.2104 21.772C46.9064 21.636 46.6424 21.44 46.4184 21.184C46.2024 20.92 46.0944 20.576 46.0944 20.152C46.0944 19.816 46.1944 19.508 46.3944 19.228C46.5944 18.948 46.8784 18.728 47.2464 18.568C47.6144 18.4 48.0344 18.316 48.5064 18.316C49.2344 18.316 49.8224 18.5 50.2704 18.868C50.7184 19.236 50.9584 19.74 50.9904 20.38H49.8984C49.8744 20.036 49.7344 19.76 49.4784 19.552C49.2304 19.344 48.8944 19.24 48.4704 19.24C48.0784 19.24 47.7664 19.324 47.5344 19.492C47.3024 19.66 47.1864 19.88 47.1864 20.152C47.1864 20.368 47.2544 20.548 47.3904 20.692C47.5344 20.828 47.7104 20.94 47.9184 21.028C48.1344 21.108 48.4304 21.2 48.8064 21.304C49.2784 21.432 49.6624 21.56 49.9584 21.688C50.2544 21.808 50.5064 21.992 50.7144 22.24C50.9304 22.488 51.0424 22.812 51.0504 23.212C51.0504 23.572 50.9504 23.896 50.7504 24.184C50.5504 24.472 50.2664 24.7 49.8984 24.868C49.5384 25.028 49.1224 25.108 48.6504 25.108ZM55.46 25.108C54.844 25.108 54.284 24.968 53.78 24.688C53.284 24.408 52.892 24.012 52.604 23.5C52.324 22.98 52.184 22.38 52.184 21.7C52.184 21.028 52.328 20.436 52.616 19.924C52.912 19.404 53.312 19.008 53.816 18.736C54.32 18.456 54.884 18.316 55.508 18.316C56.132 18.316 56.696 18.456 57.2 18.736C57.704 19.008 58.1 19.4 58.388 19.912C58.684 20.424 58.832 21.02 58.832 21.7C58.832 22.38 58.68 22.98 58.376 23.5C58.08 24.012 57.676 24.408 57.164 24.688C56.652 24.968 56.084 25.108 55.46 25.108ZM55.46 24.148C55.852 24.148 56.22 24.056 56.564 23.872C56.908 23.688 57.184 23.412 57.392 23.044C57.608 22.676 57.716 22.228 57.716 21.7C57.716 21.172 57.612 20.724 57.404 20.356C57.196 19.988 56.924 19.716 56.588 19.54C56.252 19.356 55.888 19.264 55.496 19.264C55.096 19.264 54.728 19.356 54.392 19.54C54.064 19.716 53.8 19.988 53.6 20.356C53.4 20.724 53.3 21.172 53.3 21.7C53.3 22.236 53.396 22.688 53.588 23.056C53.788 23.424 54.052 23.7 54.38 23.884C54.708 24.06 55.068 24.148 55.46 24.148ZM63.059 21.688C63.059 21.016 63.195 20.428 63.467 19.924C63.739 19.412 64.111 19.016 64.583 18.736C65.063 18.456 65.599 18.316 66.191 18.316C66.703 18.316 67.179 18.436 67.619 18.676C68.059 18.908 68.395 19.216 68.627 19.6V16.12H69.731V25H68.627V23.764C68.411 24.156 68.091 24.48 67.667 24.736C67.243 24.984 66.747 25.108 66.179 25.108C65.595 25.108 65.063 24.964 64.583 24.676C64.111 24.388 63.739 23.984 63.467 23.464C63.195 22.944 63.059 22.352 63.059 21.688ZM68.627 21.7C68.627 21.204 68.527 20.772 68.327 20.404C68.127 20.036 67.855 19.756 67.511 19.564C67.175 19.364 66.803 19.264 66.395 19.264C65.987 19.264 65.615 19.36 65.279 19.552C64.943 19.744 64.675 20.024 64.475 20.392C64.275 20.76 64.175 21.192 64.175 21.688C64.175 22.192 64.275 22.632 64.475 23.008C64.675 23.376 64.943 23.66 65.279 23.86C65.615 24.052 65.987 24.148 66.395 24.148C66.803 24.148 67.175 24.052 67.511 23.86C67.855 23.66 68.127 23.376 68.327 23.008C68.527 22.632 68.627 22.196 68.627 21.7ZM77.5763 21.46C77.5763 21.668 77.5643 21.888 77.5403 22.12H72.2843C72.3243 22.768 72.5443 23.276 72.9443 23.644C73.3523 24.004 73.8443 24.184 74.4203 24.184C74.8923 24.184 75.2843 24.076 75.5963 23.86C75.9163 23.636 76.1403 23.34 76.2683 22.972H77.4443C77.2683 23.604 76.9163 24.12 76.3883 24.52C75.8603 24.912 75.2043 25.108 74.4203 25.108C73.7963 25.108 73.2363 24.968 72.7403 24.688C72.2523 24.408 71.8683 24.012 71.5883 23.5C71.3083 22.98 71.1683 22.38 71.1683 21.7C71.1683 21.02 71.3043 20.424 71.5763 19.912C71.8483 19.4 72.2283 19.008 72.7163 18.736C73.2123 18.456 73.7803 18.316 74.4203 18.316C75.0443 18.316 75.5963 18.452 76.0763 18.724C76.5563 18.996 76.9243 19.372 77.1803 19.852C77.4443 20.324 77.5763 20.86 77.5763 21.46ZM76.4483 21.232C76.4483 20.816 76.3563 20.46 76.1723 20.164C75.9883 19.86 75.7363 19.632 75.4163 19.48C75.1043 19.32 74.7563 19.24 74.3723 19.24C73.8203 19.24 73.3483 19.416 72.9563 19.768C72.5723 20.12 72.3523 20.608 72.2963 21.232H76.4483Z" fill="white"/>
<path d="M84.089 19.252C84.281 18.94 84.557 18.688 84.917 18.496C85.277 18.304 85.689 18.208 86.153 18.208C86.705 18.208 87.205 18.348 87.653 18.628C88.101 18.908 88.453 19.308 88.709 19.828C88.973 20.348 89.105 20.952 89.105 21.64C89.105 22.328 88.973 22.936 88.709 23.464C88.453 23.984 88.101 24.388 87.653 24.676C87.205 24.956 86.705 25.096 86.153 25.096C85.681 25.096 85.269 25.004 84.917 24.82C84.565 24.628 84.289 24.376 84.089 24.064V25H82.037V16.12H84.089V19.252ZM87.017 21.64C87.017 21.128 86.873 20.728 86.585 20.44C86.305 20.144 85.957 19.996 85.541 19.996C85.133 19.996 84.785 20.144 84.497 20.44C84.217 20.736 84.077 21.14 84.077 21.652C84.077 22.164 84.217 22.568 84.497 22.864C84.785 23.16 85.133 23.308 85.541 23.308C85.949 23.308 86.297 23.16 86.585 22.864C86.873 22.56 87.017 22.152 87.017 21.64ZM92.2335 19.42C92.4735 19.052 92.7735 18.764 93.1335 18.556C93.4935 18.34 93.8935 18.232 94.3335 18.232V20.404H93.7695C93.2575 20.404 92.8735 20.516 92.6175 20.74C92.3615 20.956 92.2335 21.34 92.2335 21.892V25H90.1815V18.304H92.2335V19.42ZM94.9063 21.64C94.9063 20.952 95.0343 20.348 95.2903 19.828C95.5543 19.308 95.9103 18.908 96.3583 18.628C96.8063 18.348 97.3063 18.208 97.8583 18.208C98.3303 18.208 98.7423 18.304 99.0943 18.496C99.4543 18.688 99.7303 18.94 99.9223 19.252V18.304H101.974V25H99.9223V24.052C99.7223 24.364 99.4423 24.616 99.0823 24.808C98.7303 25 98.3183 25.096 97.8463 25.096C97.3023 25.096 96.8063 24.956 96.3583 24.676C95.9103 24.388 95.5543 23.984 95.2903 23.464C95.0343 22.936 94.9063 22.328 94.9063 21.64ZM99.9223 21.652C99.9223 21.14 99.7783 20.736 99.4903 20.44C99.2103 20.144 98.8663 19.996 98.4583 19.996C98.0503 19.996 97.7023 20.144 97.4143 20.44C97.1343 20.728 96.9943 21.128 96.9943 21.64C96.9943 22.152 97.1343 22.56 97.4143 22.864C97.7023 23.16 98.0503 23.308 98.4583 23.308C98.8663 23.308 99.2103 23.16 99.4903 22.864C99.7783 22.568 99.9223 22.164 99.9223 21.652ZM107.539 18.232C108.323 18.232 108.947 18.488 109.411 19C109.883 19.504 110.119 20.2 110.119 21.088V25H108.079V21.364C108.079 20.916 107.963 20.568 107.731 20.32C107.499 20.072 107.187 19.948 106.795 19.948C106.403 19.948 106.091 20.072 105.859 20.32C105.627 20.568 105.511 20.916 105.511 21.364V25H103.459V18.304H105.511V19.192C105.719 18.896 105.999 18.664 106.351 18.496C106.703 18.32 107.099 18.232 107.539 18.232ZM111.137 21.652C111.137 20.956 111.277 20.348 111.557 19.828C111.845 19.308 112.241 18.908 112.745 18.628C113.257 18.348 113.841 18.208 114.497 18.208C115.337 18.208 116.037 18.428 116.597 18.868C117.165 19.308 117.537 19.928 117.713 20.728H115.529C115.345 20.216 114.989 19.96 114.461 19.96C114.085 19.96 113.785 20.108 113.561 20.404C113.337 20.692 113.225 21.108 113.225 21.652C113.225 22.196 113.337 22.616 113.561 22.912C113.785 23.2 114.085 23.344 114.461 23.344C114.989 23.344 115.345 23.088 115.529 22.576H117.713C117.537 23.36 117.165 23.976 116.597 24.424C116.029 24.872 115.329 25.096 114.497 25.096C113.841 25.096 113.257 24.956 112.745 24.676C112.241 24.396 111.845 23.996 111.557 23.476C111.277 22.956 111.137 22.348 111.137 21.652ZM121.858 25.096C121.202 25.096 120.61 24.956 120.082 24.676C119.562 24.396 119.15 23.996 118.846 23.476C118.55 22.956 118.402 22.348 118.402 21.652C118.402 20.964 118.554 20.36 118.858 19.84C119.162 19.312 119.578 18.908 120.106 18.628C120.634 18.348 121.226 18.208 121.882 18.208C122.538 18.208 123.13 18.348 123.658 18.628C124.186 18.908 124.602 19.312 124.906 19.84C125.21 20.36 125.362 20.964 125.362 21.652C125.362 22.34 125.206 22.948 124.894 23.476C124.59 23.996 124.17 24.396 123.634 24.676C123.106 24.956 122.514 25.096 121.858 25.096ZM121.858 23.32C122.25 23.32 122.582 23.176 122.854 22.888C123.134 22.6 123.274 22.188 123.274 21.652C123.274 21.116 123.138 20.704 122.866 20.416C122.602 20.128 122.274 19.984 121.882 19.984C121.482 19.984 121.15 20.128 120.886 20.416C120.622 20.696 120.49 21.108 120.49 21.652C120.49 22.188 120.618 22.6 120.874 22.888C121.138 23.176 121.466 23.32 121.858 23.32Z" fill="url(#paint0_linear_160_6929)"/>
<path d="M42 233.5L43.9151 234.076L43.95 233.961L43.9706 233.842L42 233.5ZM9.23821 337.447C9.76102 338.42 10.9736 338.785 11.9466 338.262L27.8027 329.742C28.7757 329.219 29.1407 328.007 28.6179 327.034C28.095 326.061 26.8824 325.696 25.9094 326.219L11.8152 333.792L4.24211 319.697C3.7193 318.724 2.5067 318.359 1.53369 318.882C0.560681 319.405 0.195723 320.618 0.718533 321.591L9.23821 337.447ZM72.5294 45.6584L40.0294 233.158L43.9706 233.842L76.4706 46.3416L72.5294 45.6584ZM40.0849 232.924L9.08486 335.924L12.9151 337.076L43.9151 234.076L40.0849 232.924Z" fill="url(#paint1_linear_160_6929)"/>
<defs>
<linearGradient id="paint0_linear_160_6929" x1="84.5" y1="0" x2="84.5" y2="34" gradientUnits="userSpaceOnUse">
<stop stop-color="#ECDD59"/>
<stop offset="0.21875" stop-color="#E1D250" stop-opacity="0.85"/>
<stop offset="0.442708" stop-color="#D7C947"/>
<stop offset="0.604167" stop-color="#CEC040" stop-opacity="0.81"/>
<stop offset="1" stop-color="#CCBE3E"/>
</linearGradient>
<linearGradient id="paint1_linear_160_6929" x1="42.75" y1="46" x2="42.75" y2="336.5" gradientUnits="userSpaceOnUse">
<stop stop-color="#ECDD59"/>
<stop offset="0.21875" stop-color="#E1D250" stop-opacity="0.85"/>
<stop offset="0.442708" stop-color="#D7C947"/>
<stop offset="0.604167" stop-color="#CEC040" stop-opacity="0.81"/>
<stop offset="1" stop-color="#CCBE3E"/>
</linearGradient>
</defs>
</svg>
