<svg width="276" height="412" viewBox="0 0 276 412" fill="none" xmlns="http://www.w3.org/2000/svg">
<path d="M104.233 11.14H100.585L99.9132 13H98.7612L101.785 4.684H103.045L106.057 13H104.905L104.233 11.14ZM103.921 10.252L102.409 6.028L100.897 10.252H103.921ZM106.967 9.688C106.967 9.016 107.103 8.428 107.375 7.924C107.647 7.412 108.019 7.016 108.491 6.736C108.971 6.456 109.507 6.316 110.099 6.316C110.667 6.316 111.163 6.444 111.587 6.7C112.019 6.948 112.335 7.256 112.535 7.624V6.424H113.639V16.12H112.535V11.788C112.327 12.156 112.007 12.468 111.575 12.724C111.143 12.98 110.639 13.108 110.063 13.108C109.487 13.108 108.963 12.964 108.491 12.676C108.019 12.388 107.647 11.984 107.375 11.464C107.103 10.944 106.967 10.352 106.967 9.688ZM112.535 9.7C112.535 9.204 112.435 8.772 112.235 8.404C112.035 8.036 111.763 7.756 111.419 7.564C111.083 7.364 110.711 7.264 110.303 7.264C109.895 7.264 109.523 7.36 109.187 7.552C108.851 7.744 108.583 8.024 108.383 8.392C108.183 8.76 108.083 9.192 108.083 9.688C108.083 10.192 108.183 10.632 108.383 11.008C108.583 11.376 108.851 11.66 109.187 11.86C109.523 12.052 109.895 12.148 110.303 12.148C110.711 12.148 111.083 12.052 111.419 11.86C111.763 11.66 112.035 11.376 112.235 11.008C112.435 10.632 112.535 10.196 112.535 9.7ZM121.317 6.424V13H120.225V12.028C120.017 12.364 119.725 12.628 119.349 12.82C118.981 13.004 118.573 13.096 118.125 13.096C117.613 13.096 117.153 12.992 116.745 12.784C116.337 12.568 116.013 12.248 115.773 11.824C115.541 11.4 115.425 10.884 115.425 10.276V6.424H116.505V10.132C116.505 10.78 116.669 11.28 116.997 11.632C117.325 11.976 117.773 12.148 118.341 12.148C118.925 12.148 119.385 11.968 119.721 11.608C120.057 11.248 120.225 10.724 120.225 10.036V6.424H121.317ZM123.724 5.356C123.516 5.356 123.34 5.284 123.196 5.14C123.052 4.996 122.98 4.82 122.98 4.612C122.98 4.404 123.052 4.228 123.196 4.084C123.34 3.94 123.516 3.868 123.724 3.868C123.924 3.868 124.092 3.94 124.228 4.084C124.372 4.228 124.444 4.404 124.444 4.612C124.444 4.82 124.372 4.996 124.228 5.14C124.092 5.284 123.924 5.356 123.724 5.356ZM124.252 6.424V13H123.16V6.424H124.252ZM135.313 9.46C135.313 9.668 135.301 9.888 135.277 10.12H130.021C130.061 10.768 130.281 11.276 130.681 11.644C131.089 12.004 131.581 12.184 132.157 12.184C132.629 12.184 133.021 12.076 133.333 11.86C133.653 11.636 133.877 11.34 134.005 10.972H135.181C135.005 11.604 134.653 12.12 134.125 12.52C133.597 12.912 132.941 13.108 132.157 13.108C131.533 13.108 130.973 12.968 130.477 12.688C129.989 12.408 129.605 12.012 129.325 11.5C129.045 10.98 128.905 10.38 128.905 9.7C128.905 9.02 129.041 8.424 129.313 7.912C129.585 7.4 129.965 7.008 130.453 6.736C130.949 6.456 131.517 6.316 132.157 6.316C132.781 6.316 133.333 6.452 133.813 6.724C134.293 6.996 134.661 7.372 134.917 7.852C135.181 8.324 135.313 8.86 135.313 9.46ZM134.185 9.232C134.185 8.816 134.093 8.46 133.909 8.164C133.725 7.86 133.473 7.632 133.153 7.48C132.841 7.32 132.493 7.24 132.109 7.24C131.557 7.24 131.085 7.416 130.693 7.768C130.309 8.12 130.089 8.608 130.033 9.232H134.185ZM133.285 4.564L130.729 5.932V5.116L133.285 3.616V4.564ZM142.821 13.108C142.205 13.108 141.645 12.968 141.141 12.688C140.645 12.408 140.253 12.012 139.965 11.5C139.685 10.98 139.545 10.38 139.545 9.7C139.545 9.028 139.689 8.436 139.977 7.924C140.273 7.404 140.673 7.008 141.177 6.736C141.681 6.456 142.245 6.316 142.869 6.316C143.493 6.316 144.057 6.456 144.561 6.736C145.065 7.008 145.461 7.4 145.749 7.912C146.045 8.424 146.193 9.02 146.193 9.7C146.193 10.38 146.041 10.98 145.737 11.5C145.441 12.012 145.037 12.408 144.525 12.688C144.013 12.968 143.445 13.108 142.821 13.108ZM142.821 12.148C143.213 12.148 143.581 12.056 143.925 11.872C144.269 11.688 144.545 11.412 144.753 11.044C144.969 10.676 145.077 10.228 145.077 9.7C145.077 9.172 144.973 8.724 144.765 8.356C144.557 7.988 144.285 7.716 143.949 7.54C143.613 7.356 143.249 7.264 142.857 7.264C142.457 7.264 142.089 7.356 141.753 7.54C141.425 7.716 141.161 7.988 140.961 8.356C140.761 8.724 140.661 9.172 140.661 9.7C140.661 10.236 140.757 10.688 140.949 11.056C141.149 11.424 141.413 11.7 141.741 11.884C142.069 12.06 142.429 12.148 142.821 12.148ZM153.276 11.992L155.316 6.424H156.48L153.9 13H152.628L150.048 6.424H151.224L153.276 11.992ZM157.147 9.688C157.147 9.016 157.283 8.428 157.555 7.924C157.827 7.412 158.199 7.016 158.671 6.736C159.151 6.456 159.683 6.316 160.267 6.316C160.843 6.316 161.343 6.44 161.767 6.688C162.191 6.936 162.507 7.248 162.715 7.624V6.424H163.819V13H162.715V11.776C162.499 12.16 162.175 12.48 161.743 12.736C161.319 12.984 160.823 13.108 160.255 13.108C159.671 13.108 159.143 12.964 158.671 12.676C158.199 12.388 157.827 11.984 157.555 11.464C157.283 10.944 157.147 10.352 157.147 9.688ZM162.715 9.7C162.715 9.204 162.615 8.772 162.415 8.404C162.215 8.036 161.943 7.756 161.599 7.564C161.263 7.364 160.891 7.264 160.483 7.264C160.075 7.264 159.703 7.36 159.367 7.552C159.031 7.744 158.763 8.024 158.563 8.392C158.363 8.76 158.263 9.192 158.263 9.688C158.263 10.192 158.363 10.632 158.563 11.008C158.763 11.376 159.031 11.66 159.367 11.86C159.703 12.052 160.075 12.148 160.483 12.148C160.891 12.148 161.263 12.052 161.599 11.86C161.943 11.66 162.215 11.376 162.415 11.008C162.615 10.632 162.715 10.196 162.715 9.7ZM166.756 4.12V13H165.664V4.12H166.756ZM171.485 13.108C170.869 13.108 170.309 12.968 169.805 12.688C169.309 12.408 168.917 12.012 168.629 11.5C168.349 10.98 168.209 10.38 168.209 9.7C168.209 9.028 168.353 8.436 168.641 7.924C168.937 7.404 169.337 7.008 169.841 6.736C170.345 6.456 170.909 6.316 171.533 6.316C172.157 6.316 172.721 6.456 173.225 6.736C173.729 7.008 174.125 7.4 174.413 7.912C174.709 8.424 174.857 9.02 174.857 9.7C174.857 10.38 174.705 10.98 174.401 11.5C174.105 12.012 173.701 12.408 173.189 12.688C172.677 12.968 172.109 13.108 171.485 13.108ZM171.485 12.148C171.877 12.148 172.245 12.056 172.589 11.872C172.933 11.688 173.209 11.412 173.417 11.044C173.633 10.676 173.741 10.228 173.741 9.7C173.741 9.172 173.637 8.724 173.429 8.356C173.221 7.988 172.949 7.716 172.613 7.54C172.277 7.356 171.913 7.264 171.521 7.264C171.121 7.264 170.753 7.356 170.417 7.54C170.089 7.716 169.825 7.988 169.625 8.356C169.425 8.724 169.325 9.172 169.325 9.7C169.325 10.236 169.421 10.688 169.613 11.056C169.813 11.424 170.077 11.7 170.405 11.884C170.733 12.06 171.093 12.148 171.485 12.148ZM177.385 7.492C177.577 7.116 177.849 6.824 178.201 6.616C178.561 6.408 178.997 6.304 179.509 6.304V7.432H179.221C177.997 7.432 177.385 8.096 177.385 9.424V13H176.293V6.424H177.385V7.492ZM183.561 9.688C183.561 9.016 183.697 8.428 183.969 7.924C184.241 7.412 184.613 7.016 185.085 6.736C185.565 6.456 186.101 6.316 186.693 6.316C187.261 6.316 187.757 6.444 188.181 6.7C188.613 6.948 188.929 7.256 189.129 7.624V6.424H190.233V16.12H189.129V11.788C188.921 12.156 188.601 12.468 188.169 12.724C187.737 12.98 187.233 13.108 186.657 13.108C186.081 13.108 185.557 12.964 185.085 12.676C184.613 12.388 184.241 11.984 183.969 11.464C183.697 10.944 183.561 10.352 183.561 9.688ZM189.129 9.7C189.129 9.204 189.029 8.772 188.829 8.404C188.629 8.036 188.357 7.756 188.013 7.564C187.677 7.364 187.305 7.264 186.897 7.264C186.489 7.264 186.117 7.36 185.781 7.552C185.445 7.744 185.177 8.024 184.977 8.392C184.777 8.76 184.677 9.192 184.677 9.688C184.677 10.192 184.777 10.632 184.977 11.008C185.177 11.376 185.445 11.66 185.781 11.86C186.117 12.052 186.489 12.148 186.897 12.148C187.305 12.148 187.677 12.052 188.013 11.86C188.357 11.66 188.629 11.376 188.829 11.008C189.029 10.632 189.129 10.196 189.129 9.7ZM197.91 6.424V13H196.818V12.028C196.61 12.364 196.318 12.628 195.942 12.82C195.574 13.004 195.166 13.096 194.718 13.096C194.206 13.096 193.746 12.992 193.338 12.784C192.93 12.568 192.606 12.248 192.366 11.824C192.134 11.4 192.018 10.884 192.018 10.276V6.424H193.098V10.132C193.098 10.78 193.262 11.28 193.59 11.632C193.918 11.976 194.366 12.148 194.934 12.148C195.518 12.148 195.978 11.968 196.314 11.608C196.65 11.248 196.818 10.724 196.818 10.036V6.424H197.91ZM205.754 9.46C205.754 9.668 205.742 9.888 205.718 10.12H200.462C200.502 10.768 200.722 11.276 201.122 11.644C201.53 12.004 202.022 12.184 202.598 12.184C203.07 12.184 203.462 12.076 203.774 11.86C204.094 11.636 204.318 11.34 204.446 10.972H205.622C205.446 11.604 205.094 12.12 204.566 12.52C204.038 12.912 203.382 13.108 202.598 13.108C201.974 13.108 201.414 12.968 200.918 12.688C200.43 12.408 200.046 12.012 199.766 11.5C199.486 10.98 199.346 10.38 199.346 9.7C199.346 9.02 199.482 8.424 199.754 7.912C200.026 7.4 200.406 7.008 200.894 6.736C201.39 6.456 201.958 6.316 202.598 6.316C203.222 6.316 203.774 6.452 204.254 6.724C204.734 6.996 205.102 7.372 205.358 7.852C205.622 8.324 205.754 8.86 205.754 9.46ZM204.626 9.232C204.626 8.816 204.534 8.46 204.35 8.164C204.166 7.86 203.914 7.632 203.594 7.48C203.282 7.32 202.934 7.24 202.55 7.24C201.998 7.24 201.526 7.416 201.134 7.768C200.75 8.12 200.53 8.608 200.474 9.232H204.626ZM211.487 7.636C211.703 7.26 212.023 6.948 212.447 6.7C212.879 6.444 213.379 6.316 213.947 6.316C214.531 6.316 215.059 6.456 215.531 6.736C216.011 7.016 216.387 7.412 216.659 7.924C216.931 8.428 217.067 9.016 217.067 9.688C217.067 10.352 216.931 10.944 216.659 11.464C216.387 11.984 216.011 12.388 215.531 12.676C215.059 12.964 214.531 13.108 213.947 13.108C213.387 13.108 212.891 12.984 212.459 12.736C212.035 12.48 211.711 12.164 211.487 11.788V16.12H210.395V6.424H211.487V7.636ZM215.951 9.688C215.951 9.192 215.851 8.76 215.651 8.392C215.451 8.024 215.179 7.744 214.835 7.552C214.499 7.36 214.127 7.264 213.719 7.264C213.319 7.264 212.947 7.364 212.603 7.564C212.267 7.756 211.995 8.04 211.787 8.416C211.587 8.784 211.487 9.212 211.487 9.7C211.487 10.196 211.587 10.632 211.787 11.008C211.995 11.376 212.267 11.66 212.603 11.86C212.947 12.052 213.319 12.148 213.719 12.148C214.127 12.148 214.499 12.052 214.835 11.86C215.179 11.66 215.451 11.376 215.651 11.008C215.851 10.632 215.951 10.192 215.951 9.688ZM224.504 9.46C224.504 9.668 224.492 9.888 224.468 10.12H219.212C219.252 10.768 219.472 11.276 219.872 11.644C220.28 12.004 220.772 12.184 221.348 12.184C221.82 12.184 222.212 12.076 222.524 11.86C222.844 11.636 223.068 11.34 223.196 10.972H224.372C224.196 11.604 223.844 12.12 223.316 12.52C222.788 12.912 222.132 13.108 221.348 13.108C220.724 13.108 220.164 12.968 219.668 12.688C219.18 12.408 218.796 12.012 218.516 11.5C218.236 10.98 218.096 10.38 218.096 9.7C218.096 9.02 218.232 8.424 218.504 7.912C218.776 7.4 219.156 7.008 219.644 6.736C220.14 6.456 220.708 6.316 221.348 6.316C221.972 6.316 222.524 6.452 223.004 6.724C223.484 6.996 223.852 7.372 224.108 7.852C224.372 8.324 224.504 8.86 224.504 9.46ZM223.376 9.232C223.376 8.816 223.284 8.46 223.1 8.164C222.916 7.86 222.664 7.632 222.344 7.48C222.032 7.32 221.684 7.24 221.3 7.24C220.748 7.24 220.276 7.416 219.884 7.768C219.5 8.12 219.28 8.608 219.224 9.232H223.376ZM227.037 7.492C227.229 7.116 227.501 6.824 227.853 6.616C228.213 6.408 228.649 6.304 229.161 6.304V7.432H228.873C227.649 7.432 227.037 8.096 227.037 9.424V13H225.945V6.424H227.037V7.492ZM230.014 9.688C230.014 9.016 230.15 8.428 230.422 7.924C230.694 7.412 231.066 7.016 231.538 6.736C232.018 6.456 232.554 6.316 233.146 6.316C233.658 6.316 234.134 6.436 234.574 6.676C235.014 6.908 235.35 7.216 235.582 7.6V4.12H236.686V13H235.582V11.764C235.366 12.156 235.046 12.48 234.622 12.736C234.198 12.984 233.702 13.108 233.134 13.108C232.55 13.108 232.018 12.964 231.538 12.676C231.066 12.388 230.694 11.984 230.422 11.464C230.15 10.944 230.014 10.352 230.014 9.688ZM235.582 9.7C235.582 9.204 235.482 8.772 235.282 8.404C235.082 8.036 234.81 7.756 234.466 7.564C234.13 7.364 233.758 7.264 233.35 7.264C232.942 7.264 232.57 7.36 232.234 7.552C231.898 7.744 231.63 8.024 231.43 8.392C231.23 8.76 231.13 9.192 231.13 9.688C231.13 10.192 231.23 10.632 231.43 11.008C231.63 11.376 231.898 11.66 232.234 11.86C232.57 12.052 232.942 12.148 233.35 12.148C233.758 12.148 234.13 12.052 234.466 11.86C234.81 11.66 235.082 11.376 235.282 11.008C235.482 10.632 235.582 10.196 235.582 9.7ZM244.531 9.46C244.531 9.668 244.519 9.888 244.495 10.12H239.239C239.279 10.768 239.499 11.276 239.899 11.644C240.307 12.004 240.799 12.184 241.375 12.184C241.847 12.184 242.239 12.076 242.551 11.86C242.871 11.636 243.095 11.34 243.223 10.972H244.399C244.223 11.604 243.871 12.12 243.343 12.52C242.815 12.912 242.159 13.108 241.375 13.108C240.751 13.108 240.191 12.968 239.695 12.688C239.207 12.408 238.823 12.012 238.543 11.5C238.263 10.98 238.123 10.38 238.123 9.7C238.123 9.02 238.259 8.424 238.531 7.912C238.803 7.4 239.183 7.008 239.671 6.736C240.167 6.456 240.735 6.316 241.375 6.316C241.999 6.316 242.551 6.452 243.031 6.724C243.511 6.996 243.879 7.372 244.135 7.852C244.399 8.324 244.531 8.86 244.531 9.46ZM243.403 9.232C243.403 8.816 243.311 8.46 243.127 8.164C242.943 7.86 242.691 7.632 242.371 7.48C242.059 7.32 241.711 7.24 241.327 7.24C240.775 7.24 240.303 7.416 239.911 7.768C239.527 8.12 239.307 8.608 239.251 9.232H243.403ZM247.065 7.492C247.257 7.116 247.529 6.824 247.881 6.616C248.241 6.408 248.677 6.304 249.189 6.304V7.432H248.901C247.677 7.432 247.065 8.096 247.065 9.424V13H245.973V6.424H247.065V7.492ZM250.041 9.688C250.041 9.016 250.177 8.428 250.449 7.924C250.721 7.412 251.093 7.016 251.565 6.736C252.045 6.456 252.577 6.316 253.161 6.316C253.737 6.316 254.237 6.44 254.661 6.688C255.085 6.936 255.401 7.248 255.609 7.624V6.424H256.713V13H255.609V11.776C255.393 12.16 255.069 12.48 254.637 12.736C254.213 12.984 253.717 13.108 253.149 13.108C252.565 13.108 252.037 12.964 251.565 12.676C251.093 12.388 250.721 11.984 250.449 11.464C250.177 10.944 250.041 10.352 250.041 9.688ZM255.609 9.7C255.609 9.204 255.509 8.772 255.309 8.404C255.109 8.036 254.837 7.756 254.493 7.564C254.157 7.364 253.785 7.264 253.377 7.264C252.969 7.264 252.597 7.36 252.261 7.552C251.925 7.744 251.657 8.024 251.457 8.392C251.257 8.76 251.157 9.192 251.157 9.688C251.157 10.192 251.257 10.632 251.457 11.008C251.657 11.376 251.925 11.66 252.261 11.86C252.597 12.052 252.969 12.148 253.377 12.148C253.785 12.148 254.157 12.052 254.493 11.86C254.837 11.66 255.109 11.376 255.309 11.008C255.509 10.632 255.609 10.196 255.609 9.7ZM254.757 4.564L252.201 5.932V5.116L254.757 3.616V4.564ZM124.543 27.46C124.543 27.668 124.531 27.888 124.507 28.12H119.251C119.291 28.768 119.511 29.276 119.911 29.644C120.319 30.004 120.811 30.184 121.387 30.184C121.859 30.184 122.251 30.076 122.563 29.86C122.883 29.636 123.107 29.34 123.235 28.972H124.411C124.235 29.604 123.883 30.12 123.355 30.52C122.827 30.912 122.171 31.108 121.387 31.108C120.763 31.108 120.203 30.968 119.707 30.688C119.219 30.408 118.835 30.012 118.555 29.5C118.275 28.98 118.135 28.38 118.135 27.7C118.135 27.02 118.271 26.424 118.543 25.912C118.815 25.4 119.195 25.008 119.683 24.736C120.179 24.456 120.747 24.316 121.387 24.316C122.011 24.316 122.563 24.452 123.043 24.724C123.523 24.996 123.891 25.372 124.147 25.852C124.411 26.324 124.543 26.86 124.543 27.46ZM123.415 27.232C123.415 26.816 123.323 26.46 123.139 26.164C122.955 25.86 122.703 25.632 122.383 25.48C122.071 25.32 121.723 25.24 121.339 25.24C120.787 25.24 120.315 25.416 119.923 25.768C119.539 26.12 119.319 26.608 119.263 27.232H123.415ZM133.893 24.304C134.405 24.304 134.861 24.412 135.261 24.628C135.661 24.836 135.977 25.152 136.209 25.576C136.441 26 136.557 26.516 136.557 27.124V31H135.477V27.28C135.477 26.624 135.313 26.124 134.985 25.78C134.665 25.428 134.229 25.252 133.677 25.252C133.109 25.252 132.657 25.436 132.321 25.804C131.985 26.164 131.817 26.688 131.817 27.376V31H130.737V27.28C130.737 26.624 130.573 26.124 130.245 25.78C129.925 25.428 129.489 25.252 128.937 25.252C128.369 25.252 127.917 25.436 127.581 25.804C127.245 26.164 127.077 26.688 127.077 27.376V31H125.985V24.424H127.077V25.372C127.293 25.028 127.581 24.764 127.941 24.58C128.309 24.396 128.713 24.304 129.153 24.304C129.705 24.304 130.193 24.428 130.617 24.676C131.041 24.924 131.357 25.288 131.565 25.768C131.749 25.304 132.053 24.944 132.477 24.688C132.901 24.432 133.373 24.304 133.893 24.304ZM141.139 27.7C141.139 27.02 141.275 26.428 141.547 25.924C141.819 25.412 142.195 25.016 142.675 24.736C143.163 24.456 143.719 24.316 144.343 24.316C145.151 24.316 145.815 24.512 146.335 24.904C146.863 25.296 147.211 25.84 147.379 26.536H146.203C146.091 26.136 145.871 25.82 145.543 25.588C145.223 25.356 144.823 25.24 144.343 25.24C143.719 25.24 143.215 25.456 142.831 25.888C142.447 26.312 142.255 26.916 142.255 27.7C142.255 28.492 142.447 29.104 142.831 29.536C143.215 29.968 143.719 30.184 144.343 30.184C144.823 30.184 145.223 30.072 145.543 29.848C145.863 29.624 146.083 29.304 146.203 28.888H147.379C147.203 29.56 146.851 30.1 146.323 30.508C145.795 30.908 145.135 31.108 144.343 31.108C143.719 31.108 143.163 30.968 142.675 30.688C142.195 30.408 141.819 30.012 141.547 29.5C141.275 28.988 141.139 28.388 141.139 27.7ZM148.428 27.688C148.428 27.016 148.564 26.428 148.836 25.924C149.108 25.412 149.48 25.016 149.952 24.736C150.432 24.456 150.964 24.316 151.548 24.316C152.124 24.316 152.624 24.44 153.048 24.688C153.472 24.936 153.788 25.248 153.996 25.624V24.424H155.1V31H153.996V29.776C153.78 30.16 153.456 30.48 153.024 30.736C152.6 30.984 152.104 31.108 151.536 31.108C150.952 31.108 150.424 30.964 149.952 30.676C149.48 30.388 149.108 29.984 148.836 29.464C148.564 28.944 148.428 28.352 148.428 27.688ZM153.996 27.7C153.996 27.204 153.896 26.772 153.696 26.404C153.496 26.036 153.224 25.756 152.88 25.564C152.544 25.364 152.172 25.264 151.764 25.264C151.356 25.264 150.984 25.36 150.648 25.552C150.312 25.744 150.044 26.024 149.844 26.392C149.644 26.76 149.544 27.192 149.544 27.688C149.544 28.192 149.644 28.632 149.844 29.008C150.044 29.376 150.312 29.66 150.648 29.86C150.984 30.052 151.356 30.148 151.764 30.148C152.172 30.148 152.544 30.052 152.88 29.86C153.224 29.66 153.496 29.376 153.696 29.008C153.896 28.632 153.996 28.196 153.996 27.7ZM159.273 31.108C158.769 31.108 158.317 31.024 157.917 30.856C157.517 30.68 157.201 30.44 156.969 30.136C156.737 29.824 156.609 29.468 156.585 29.068H157.713C157.745 29.396 157.897 29.664 158.169 29.872C158.449 30.08 158.813 30.184 159.261 30.184C159.677 30.184 160.005 30.092 160.245 29.908C160.485 29.724 160.605 29.492 160.605 29.212C160.605 28.924 160.477 28.712 160.221 28.576C159.965 28.432 159.569 28.292 159.033 28.156C158.545 28.028 158.145 27.9 157.833 27.772C157.529 27.636 157.265 27.44 157.041 27.184C156.825 26.92 156.717 26.576 156.717 26.152C156.717 25.816 156.817 25.508 157.017 25.228C157.217 24.948 157.501 24.728 157.869 24.568C158.237 24.4 158.657 24.316 159.129 24.316C159.857 24.316 160.445 24.5 160.893 24.868C161.341 25.236 161.581 25.74 161.613 26.38H160.521C160.497 26.036 160.357 25.76 160.101 25.552C159.853 25.344 159.517 25.24 159.093 25.24C158.701 25.24 158.389 25.324 158.157 25.492C157.925 25.66 157.809 25.88 157.809 26.152C157.809 26.368 157.877 26.548 158.013 26.692C158.157 26.828 158.333 26.94 158.541 27.028C158.757 27.108 159.053 27.2 159.429 27.304C159.901 27.432 160.285 27.56 160.581 27.688C160.877 27.808 161.129 27.992 161.337 28.24C161.553 28.488 161.665 28.812 161.673 29.212C161.673 29.572 161.573 29.896 161.373 30.184C161.173 30.472 160.889 30.7 160.521 30.868C160.161 31.028 159.745 31.108 159.273 31.108ZM166.083 31.108C165.467 31.108 164.907 30.968 164.403 30.688C163.907 30.408 163.515 30.012 163.227 29.5C162.947 28.98 162.807 28.38 162.807 27.7C162.807 27.028 162.951 26.436 163.239 25.924C163.535 25.404 163.935 25.008 164.439 24.736C164.943 24.456 165.507 24.316 166.131 24.316C166.755 24.316 167.319 24.456 167.823 24.736C168.327 25.008 168.723 25.4 169.011 25.912C169.307 26.424 169.455 27.02 169.455 27.7C169.455 28.38 169.303 28.98 168.999 29.5C168.703 30.012 168.299 30.408 167.787 30.688C167.275 30.968 166.707 31.108 166.083 31.108ZM166.083 30.148C166.475 30.148 166.843 30.056 167.187 29.872C167.531 29.688 167.807 29.412 168.015 29.044C168.231 28.676 168.339 28.228 168.339 27.7C168.339 27.172 168.235 26.724 168.027 26.356C167.819 25.988 167.547 25.716 167.211 25.54C166.875 25.356 166.511 25.264 166.119 25.264C165.719 25.264 165.351 25.356 165.015 25.54C164.687 25.716 164.423 25.988 164.223 26.356C164.023 26.724 163.923 27.172 163.923 27.7C163.923 28.236 164.019 28.688 164.211 29.056C164.411 29.424 164.675 29.7 165.003 29.884C165.331 30.06 165.691 30.148 166.083 30.148ZM173.682 27.688C173.682 27.016 173.818 26.428 174.09 25.924C174.362 25.412 174.734 25.016 175.206 24.736C175.686 24.456 176.222 24.316 176.814 24.316C177.326 24.316 177.802 24.436 178.242 24.676C178.682 24.908 179.018 25.216 179.25 25.6V22.12H180.354V31H179.25V29.764C179.034 30.156 178.714 30.48 178.29 30.736C177.866 30.984 177.37 31.108 176.802 31.108C176.218 31.108 175.686 30.964 175.206 30.676C174.734 30.388 174.362 29.984 174.09 29.464C173.818 28.944 173.682 28.352 173.682 27.688ZM179.25 27.7C179.25 27.204 179.15 26.772 178.95 26.404C178.75 26.036 178.478 25.756 178.134 25.564C177.798 25.364 177.426 25.264 177.018 25.264C176.61 25.264 176.238 25.36 175.902 25.552C175.566 25.744 175.298 26.024 175.098 26.392C174.898 26.76 174.798 27.192 174.798 27.688C174.798 28.192 174.898 28.632 175.098 29.008C175.298 29.376 175.566 29.66 175.902 29.86C176.238 30.052 176.61 30.148 177.018 30.148C177.426 30.148 177.798 30.052 178.134 29.86C178.478 29.66 178.75 29.376 178.95 29.008C179.15 28.632 179.25 28.196 179.25 27.7ZM188.199 27.46C188.199 27.668 188.187 27.888 188.163 28.12H182.907C182.947 28.768 183.167 29.276 183.567 29.644C183.975 30.004 184.467 30.184 185.043 30.184C185.515 30.184 185.907 30.076 186.219 29.86C186.539 29.636 186.763 29.34 186.891 28.972H188.067C187.891 29.604 187.539 30.12 187.011 30.52C186.483 30.912 185.827 31.108 185.043 31.108C184.419 31.108 183.859 30.968 183.363 30.688C182.875 30.408 182.491 30.012 182.211 29.5C181.931 28.98 181.791 28.38 181.791 27.7C181.791 27.02 181.927 26.424 182.199 25.912C182.471 25.4 182.851 25.008 183.339 24.736C183.835 24.456 184.403 24.316 185.043 24.316C185.667 24.316 186.219 24.452 186.699 24.724C187.179 24.996 187.547 25.372 187.803 25.852C188.067 26.324 188.199 26.86 188.199 27.46ZM187.071 27.232C187.071 26.816 186.979 26.46 186.795 26.164C186.611 25.86 186.359 25.632 186.039 25.48C185.727 25.32 185.379 25.24 184.995 25.24C184.443 25.24 183.971 25.416 183.579 25.768C183.195 26.12 182.975 26.608 182.919 27.232H187.071Z" fill="white"/>
<path d="M192.252 27.64C192.252 26.952 192.38 26.348 192.636 25.828C192.9 25.308 193.256 24.908 193.704 24.628C194.152 24.348 194.652 24.208 195.204 24.208C195.644 24.208 196.044 24.3 196.404 24.484C196.772 24.668 197.06 24.916 197.268 25.228V22.12H199.32V31H197.268V30.04C197.076 30.36 196.8 30.616 196.44 30.808C196.088 31 195.676 31.096 195.204 31.096C194.652 31.096 194.152 30.956 193.704 30.676C193.256 30.388 192.9 29.984 192.636 29.464C192.38 28.936 192.252 28.328 192.252 27.64ZM197.268 27.652C197.268 27.14 197.124 26.736 196.836 26.44C196.556 26.144 196.212 25.996 195.804 25.996C195.396 25.996 195.048 26.144 194.76 26.44C194.48 26.728 194.34 27.128 194.34 27.64C194.34 28.152 194.48 28.56 194.76 28.864C195.048 29.16 195.396 29.308 195.804 29.308C196.212 29.308 196.556 29.16 196.836 28.864C197.124 28.568 197.268 28.164 197.268 27.652ZM207.117 27.544C207.117 27.736 207.105 27.936 207.081 28.144H202.437C202.469 28.56 202.601 28.88 202.833 29.104C203.073 29.32 203.365 29.428 203.709 29.428C204.221 29.428 204.577 29.212 204.777 28.78H206.961C206.849 29.22 206.645 29.616 206.349 29.968C206.061 30.32 205.697 30.596 205.257 30.796C204.817 30.996 204.325 31.096 203.781 31.096C203.125 31.096 202.541 30.956 202.029 30.676C201.517 30.396 201.117 29.996 200.829 29.476C200.541 28.956 200.397 28.348 200.397 27.652C200.397 26.956 200.537 26.348 200.817 25.828C201.105 25.308 201.505 24.908 202.017 24.628C202.529 24.348 203.117 24.208 203.781 24.208C204.429 24.208 205.005 24.344 205.509 24.616C206.013 24.888 206.405 25.276 206.685 25.78C206.973 26.284 207.117 26.872 207.117 27.544ZM205.017 27.004C205.017 26.652 204.897 26.372 204.657 26.164C204.417 25.956 204.117 25.852 203.757 25.852C203.413 25.852 203.121 25.952 202.881 26.152C202.649 26.352 202.505 26.636 202.449 27.004H205.017ZM210.251 25.42C210.491 25.052 210.791 24.764 211.151 24.556C211.511 24.34 211.911 24.232 212.351 24.232V26.404H211.787C211.275 26.404 210.891 26.516 210.635 26.74C210.379 26.956 210.251 27.34 210.251 27.892V31H208.199V24.304H210.251V25.42ZM215.384 25.42C215.624 25.052 215.924 24.764 216.284 24.556C216.644 24.34 217.044 24.232 217.484 24.232V26.404H216.92C216.408 26.404 216.024 26.516 215.768 26.74C215.512 26.956 215.384 27.34 215.384 27.892V31H213.332V24.304H215.384V25.42ZM221.513 31.096C220.857 31.096 220.265 30.956 219.737 30.676C219.217 30.396 218.805 29.996 218.501 29.476C218.205 28.956 218.057 28.348 218.057 27.652C218.057 26.964 218.209 26.36 218.513 25.84C218.817 25.312 219.233 24.908 219.761 24.628C220.289 24.348 220.881 24.208 221.537 24.208C222.193 24.208 222.785 24.348 223.313 24.628C223.841 24.908 224.257 25.312 224.561 25.84C224.865 26.36 225.017 26.964 225.017 27.652C225.017 28.34 224.861 28.948 224.549 29.476C224.245 29.996 223.825 30.396 223.289 30.676C222.761 30.956 222.169 31.096 221.513 31.096ZM221.513 29.32C221.905 29.32 222.237 29.176 222.509 28.888C222.789 28.6 222.929 28.188 222.929 27.652C222.929 27.116 222.793 26.704 222.521 26.416C222.257 26.128 221.929 25.984 221.537 25.984C221.137 25.984 220.805 26.128 220.541 26.416C220.277 26.696 220.145 27.108 220.145 27.652C220.145 28.188 220.273 28.6 220.529 28.888C220.793 29.176 221.121 29.32 221.513 29.32ZM229.837 29.26V31H228.793C228.049 31 227.469 30.82 227.053 30.46C226.637 30.092 226.429 29.496 226.429 28.672V26.008H225.613V24.304H226.429V22.672H228.481V24.304H229.825V26.008H228.481V28.696C228.481 28.896 228.529 29.04 228.625 29.128C228.721 29.216 228.881 29.26 229.105 29.26H229.837ZM230.572 27.64C230.572 26.952 230.7 26.348 230.956 25.828C231.22 25.308 231.576 24.908 232.024 24.628C232.472 24.348 232.972 24.208 233.524 24.208C233.996 24.208 234.408 24.304 234.76 24.496C235.12 24.688 235.396 24.94 235.588 25.252V24.304H237.64V31H235.588V30.052C235.388 30.364 235.108 30.616 234.748 30.808C234.396 31 233.984 31.096 233.512 31.096C232.968 31.096 232.472 30.956 232.024 30.676C231.576 30.388 231.22 29.984 230.956 29.464C230.7 28.936 230.572 28.328 230.572 27.64ZM235.588 27.652C235.588 27.14 235.444 26.736 235.156 26.44C234.876 26.144 234.532 25.996 234.124 25.996C233.716 25.996 233.368 26.144 233.08 26.44C232.8 26.728 232.66 27.128 232.66 27.64C232.66 28.152 232.8 28.56 233.08 28.864C233.368 29.16 233.716 29.308 234.124 29.308C234.532 29.308 234.876 29.16 235.156 28.864C235.444 28.568 235.588 28.164 235.588 27.652Z" fill="#E81538"/>
<g filter="url(#filter0_d_160_6930)">
<path d="M49.035 349.659L48.5509 348.239L48.5509 348.239L49.035 349.659ZM4.15383 363.838C3.78839 364.582 4.09485 365.481 4.83832 365.846L16.9539 371.801C17.6974 372.167 18.5963 371.86 18.9617 371.117C19.3272 370.373 19.0207 369.474 18.2772 369.109L7.50785 363.815L12.8013 353.046C13.1667 352.303 12.8603 351.404 12.1168 351.038C11.3733 350.673 10.4744 350.979 10.1089 351.723L4.15383 363.838ZM227.556 74.2951L229.054 74.2136L229.054 74.2136L227.556 74.2951ZM191.054 226.844L189.755 226.093L191.054 226.844ZM184.271 238.579L185.569 239.33L184.271 238.579ZM48.5509 348.239L5.01599 363.08L5.98401 365.92L49.519 351.078L48.5509 348.239ZM224.002 36.5815L226.058 74.3766L229.054 74.2136L226.998 36.4185L224.002 36.5815ZM189.755 226.093L182.972 237.829L185.569 239.33L192.352 227.594L189.755 226.093ZM226.058 74.3766C228.942 127.401 216.328 180.118 189.755 226.093L192.352 227.594C219.217 181.115 231.969 127.819 229.054 74.2136L226.058 74.3766ZM49.519 351.078C106.897 331.518 155.234 291.814 185.569 239.33L182.972 237.829C153 289.685 105.241 328.913 48.5509 348.239L49.519 351.078Z" fill="#E81538"/>
</g>
<defs>
<filter id="filter0_d_160_6930" x="-0.000244141" y="36.4185" width="233.462" height="343.537" filterUnits="userSpaceOnUse" color-interpolation-filters="sRGB">
<feFlood flood-opacity="0" result="BackgroundImageFix"/>
<feColorMatrix in="SourceAlpha" type="matrix" values="0 0 0 0 0 0 0 0 0 0 0 0 0 0 0 0 0 0 127 0" result="hardAlpha"/>
<feOffset dy="4"/>
<feGaussianBlur stdDeviation="2"/>
<feComposite in2="hardAlpha" operator="out"/>
<feColorMatrix type="matrix" values="0 0 0 0 0 0 0 0 0 0 0 0 0 0 0 0 0 0 0.25 0"/>
<feBlend mode="normal" in2="BackgroundImageFix" result="effect1_dropShadow_160_6930"/>
<feBlend mode="normal" in="SourceGraphic" in2="effect1_dropShadow_160_6930" result="shape"/>
</filter>
</defs>
</svg>
