<svg width="463" height="46" viewBox="0 0 463 46" fill="none" xmlns="http://www.w3.org/2000/svg">
<path d="M11.736 28.28H4.44L3.096 32H0.792L6.84 15.368H9.36L15.384 32H13.08L11.736 28.28ZM11.112 26.504L8.088 18.056L5.064 26.504H11.112ZM17.2039 25.376C17.2039 24.032 17.4759 22.856 18.0199 21.848C18.5639 20.824 19.3079 20.032 20.2519 19.472C21.2119 18.912 22.2839 18.632 23.4679 18.632C24.6039 18.632 25.5959 18.888 26.4439 19.4C27.3079 19.896 27.9399 20.512 28.3399 21.248V18.848H30.5479V38.24H28.3399V29.576C27.9239 30.312 27.2839 30.936 26.4199 31.448C25.5559 31.96 24.5479 32.216 23.3959 32.216C22.2439 32.216 21.1959 31.928 20.2519 31.352C19.3079 30.776 18.5639 29.968 18.0199 28.928C17.4759 27.888 17.2039 26.704 17.2039 25.376ZM28.3399 25.4C28.3399 24.408 28.1399 23.544 27.7399 22.808C27.3399 22.072 26.7959 21.512 26.1079 21.128C25.4359 20.728 24.6919 20.528 23.8759 20.528C23.0599 20.528 22.3159 20.72 21.6439 21.104C20.9719 21.488 20.4359 22.048 20.0359 22.784C19.6359 23.52 19.4359 24.384 19.4359 25.376C19.4359 26.384 19.6359 27.264 20.0359 28.016C20.4359 28.752 20.9719 29.32 21.6439 29.72C22.3159 30.104 23.0599 30.296 23.8759 30.296C24.6919 30.296 25.4359 30.104 26.1079 29.72C26.7959 29.32 27.3399 28.752 27.7399 28.016C28.1399 27.264 28.3399 26.392 28.3399 25.4ZM45.9026 18.848V32H43.7186V30.056C43.3026 30.728 42.7186 31.256 41.9666 31.64C41.2306 32.008 40.4146 32.192 39.5186 32.192C38.4946 32.192 37.5746 31.984 36.7586 31.568C35.9426 31.136 35.2946 30.496 34.8146 29.648C34.3506 28.8 34.1186 27.768 34.1186 26.552V18.848H36.2786V26.264C36.2786 27.56 36.6066 28.56 37.2626 29.264C37.9186 29.952 38.8146 30.296 39.9506 30.296C41.1186 30.296 42.0386 29.936 42.7106 29.216C43.3826 28.496 43.7186 27.448 43.7186 26.072V18.848H45.9026ZM50.7182 16.712C50.3022 16.712 49.9502 16.568 49.6622 16.28C49.3742 15.992 49.2302 15.64 49.2302 15.224C49.2302 14.808 49.3742 14.456 49.6622 14.168C49.9502 13.88 50.3022 13.736 50.7182 13.736C51.1182 13.736 51.4542 13.88 51.7262 14.168C52.0142 14.456 52.1582 14.808 52.1582 15.224C52.1582 15.64 52.0142 15.992 51.7262 16.28C51.4542 16.568 51.1182 16.712 50.7182 16.712ZM51.7742 18.848V32H49.5902V18.848H51.7742ZM73.8949 24.92C73.8949 25.336 73.8709 25.776 73.8229 26.24H63.3109C63.3909 27.536 63.8309 28.552 64.6309 29.288C65.4469 30.008 66.4309 30.368 67.5829 30.368C68.5269 30.368 69.3109 30.152 69.9349 29.72C70.5749 29.272 71.0229 28.68 71.2789 27.944H73.6309C73.2789 29.208 72.5749 30.24 71.5189 31.04C70.4629 31.824 69.1509 32.216 67.5829 32.216C66.3349 32.216 65.2149 31.936 64.2229 31.376C63.2469 30.816 62.4789 30.024 61.9189 29C61.3589 27.96 61.0789 26.76 61.0789 25.4C61.0789 24.04 61.3509 22.848 61.8949 21.824C62.4389 20.8 63.1989 20.016 64.1749 19.472C65.1669 18.912 66.3029 18.632 67.5829 18.632C68.8309 18.632 69.9349 18.904 70.8949 19.448C71.8549 19.992 72.5909 20.744 73.1029 21.704C73.6309 22.648 73.8949 23.72 73.8949 24.92ZM71.6389 24.464C71.6389 23.632 71.4549 22.92 71.0869 22.328C70.7189 21.72 70.2149 21.264 69.5749 20.96C68.9509 20.64 68.2549 20.48 67.4869 20.48C66.3829 20.48 65.4389 20.832 64.6549 21.536C63.8869 22.24 63.4469 23.216 63.3349 24.464H71.6389ZM69.8389 15.128L64.7269 17.864V16.232L69.8389 13.232V15.128ZM88.9121 32.216C87.6801 32.216 86.5601 31.936 85.5521 31.376C84.5601 30.816 83.7761 30.024 83.2001 29C82.6401 27.96 82.3601 26.76 82.3601 25.4C82.3601 24.056 82.6481 22.872 83.2241 21.848C83.8161 20.808 84.6161 20.016 85.6241 19.472C86.6321 18.912 87.7601 18.632 89.0081 18.632C90.2561 18.632 91.3841 18.912 92.3921 19.472C93.4001 20.016 94.1921 20.8 94.7681 21.824C95.3601 22.848 95.6561 24.04 95.6561 25.4C95.6561 26.76 95.3521 27.96 94.7441 29C94.1521 30.024 93.3441 30.816 92.3201 31.376C91.2961 31.936 90.1601 32.216 88.9121 32.216ZM88.9121 30.296C89.6961 30.296 90.4321 30.112 91.1201 29.744C91.8081 29.376 92.3601 28.824 92.7761 28.088C93.2081 27.352 93.4241 26.456 93.4241 25.4C93.4241 24.344 93.2161 23.448 92.8001 22.712C92.3841 21.976 91.8401 21.432 91.1681 21.08C90.4961 20.712 89.7681 20.528 88.9841 20.528C88.1841 20.528 87.4481 20.712 86.7761 21.08C86.1201 21.432 85.5921 21.976 85.1921 22.712C84.7921 23.448 84.5921 24.344 84.5921 25.4C84.5921 26.472 84.7841 27.376 85.1681 28.112C85.5681 28.848 86.0961 29.4 86.7521 29.768C87.4081 30.12 88.1281 30.296 88.9121 30.296ZM107.11 14.24V32H104.926V14.24H107.11ZM122.496 18.848V32H120.312V30.056C119.896 30.728 119.312 31.256 118.56 31.64C117.824 32.008 117.008 32.192 116.112 32.192C115.088 32.192 114.168 31.984 113.352 31.568C112.536 31.136 111.888 30.496 111.408 29.648C110.944 28.8 110.712 27.768 110.712 26.552V18.848H112.872V26.264C112.872 27.56 113.2 28.56 113.856 29.264C114.512 29.952 115.408 30.296 116.544 30.296C117.712 30.296 118.632 29.936 119.304 29.216C119.976 28.496 120.312 27.448 120.312 26.072V18.848H122.496ZM125.368 25.4C125.368 24.04 125.64 22.856 126.184 21.848C126.728 20.824 127.48 20.032 128.44 19.472C129.416 18.912 130.528 18.632 131.776 18.632C133.392 18.632 134.72 19.024 135.76 19.808C136.816 20.592 137.512 21.68 137.848 23.072H135.496C135.272 22.272 134.832 21.64 134.176 21.176C133.536 20.712 132.736 20.48 131.776 20.48C130.528 20.48 129.52 20.912 128.752 21.776C127.984 22.624 127.6 23.832 127.6 25.4C127.6 26.984 127.984 28.208 128.752 29.072C129.52 29.936 130.528 30.368 131.776 30.368C132.736 30.368 133.536 30.144 134.176 29.696C134.816 29.248 135.256 28.608 135.496 27.776H137.848C137.496 29.12 136.792 30.2 135.736 31.016C134.68 31.816 133.36 32.216 131.776 32.216C130.528 32.216 129.416 31.936 128.44 31.376C127.48 30.816 126.728 30.024 126.184 29C125.64 27.976 125.368 26.776 125.368 25.4ZM142.946 20.984C143.33 20.232 143.874 19.648 144.578 19.232C145.298 18.816 146.17 18.608 147.194 18.608V20.864H146.618C144.17 20.864 142.946 22.192 142.946 24.848V32H140.762V18.848H142.946V20.984ZM155.451 32.216C154.219 32.216 153.099 31.936 152.091 31.376C151.099 30.816 150.315 30.024 149.739 29C149.179 27.96 148.899 26.76 148.899 25.4C148.899 24.056 149.187 22.872 149.763 21.848C150.355 20.808 151.155 20.016 152.163 19.472C153.171 18.912 154.299 18.632 155.547 18.632C156.795 18.632 157.923 18.912 158.931 19.472C159.939 20.016 160.731 20.8 161.307 21.824C161.899 22.848 162.195 24.04 162.195 25.4C162.195 26.76 161.891 27.96 161.283 29C160.691 30.024 159.883 30.816 158.859 31.376C157.835 31.936 156.699 32.216 155.451 32.216ZM155.451 30.296C156.235 30.296 156.971 30.112 157.659 29.744C158.347 29.376 158.899 28.824 159.315 28.088C159.747 27.352 159.963 26.456 159.963 25.4C159.963 24.344 159.755 23.448 159.339 22.712C158.923 21.976 158.379 21.432 157.707 21.08C157.035 20.712 156.307 20.528 155.523 20.528C154.723 20.528 153.987 20.712 153.315 21.08C152.659 21.432 152.131 21.976 151.731 22.712C151.331 23.448 151.131 24.344 151.131 25.4C151.131 26.472 151.323 27.376 151.707 28.112C152.107 28.848 152.635 29.4 153.291 29.768C153.947 30.12 154.667 30.296 155.451 30.296ZM183.465 24.92C183.465 25.336 183.441 25.776 183.393 26.24H172.881C172.961 27.536 173.401 28.552 174.201 29.288C175.017 30.008 176.001 30.368 177.153 30.368C178.097 30.368 178.881 30.152 179.505 29.72C180.145 29.272 180.593 28.68 180.849 27.944H183.201C182.849 29.208 182.145 30.24 181.089 31.04C180.033 31.824 178.721 32.216 177.153 32.216C175.905 32.216 174.785 31.936 173.793 31.376C172.817 30.816 172.049 30.024 171.489 29C170.929 27.96 170.649 26.76 170.649 25.4C170.649 24.04 170.921 22.848 171.465 21.824C172.009 20.8 172.769 20.016 173.745 19.472C174.737 18.912 175.873 18.632 177.153 18.632C178.401 18.632 179.505 18.904 180.465 19.448C181.425 19.992 182.161 20.744 182.673 21.704C183.201 22.648 183.465 23.72 183.465 24.92ZM181.209 24.464C181.209 23.632 181.025 22.92 180.657 22.328C180.289 21.72 179.785 21.264 179.145 20.96C178.521 20.64 177.825 20.48 177.057 20.48C175.953 20.48 175.009 20.832 174.225 21.536C173.457 22.24 173.017 23.216 172.905 24.464H181.209ZM202.164 18.608C203.188 18.608 204.1 18.824 204.9 19.256C205.7 19.672 206.332 20.304 206.796 21.152C207.26 22 207.492 23.032 207.492 24.248V32H205.332V24.56C205.332 23.248 205.004 22.248 204.348 21.56C203.708 20.856 202.836 20.504 201.732 20.504C200.596 20.504 199.692 20.872 199.02 21.608C198.348 22.328 198.012 23.376 198.012 24.752V32H195.852V24.56C195.852 23.248 195.524 22.248 194.868 21.56C194.228 20.856 193.356 20.504 192.252 20.504C191.116 20.504 190.212 20.872 189.54 21.608C188.868 22.328 188.532 23.376 188.532 24.752V32H186.348V18.848H188.532V20.744C188.964 20.056 189.54 19.528 190.26 19.16C190.996 18.792 191.804 18.608 192.684 18.608C193.788 18.608 194.764 18.856 195.612 19.352C196.46 19.848 197.092 20.576 197.508 21.536C197.876 20.608 198.484 19.888 199.332 19.376C200.18 18.864 201.124 18.608 202.164 18.608ZM216.657 25.4C216.657 24.04 216.929 22.856 217.473 21.848C218.017 20.824 218.769 20.032 219.729 19.472C220.705 18.912 221.817 18.632 223.065 18.632C224.681 18.632 226.009 19.024 227.049 19.808C228.105 20.592 228.801 21.68 229.137 23.072H226.785C226.561 22.272 226.121 21.64 225.465 21.176C224.825 20.712 224.025 20.48 223.065 20.48C221.817 20.48 220.809 20.912 220.041 21.776C219.273 22.624 218.889 23.832 218.889 25.4C218.889 26.984 219.273 28.208 220.041 29.072C220.809 29.936 221.817 30.368 223.065 30.368C224.025 30.368 224.825 30.144 225.465 29.696C226.105 29.248 226.545 28.608 226.785 27.776H229.137C228.785 29.12 228.081 30.2 227.025 31.016C225.969 31.816 224.649 32.216 223.065 32.216C221.817 32.216 220.705 31.936 219.729 31.376C218.769 30.816 218.017 30.024 217.473 29C216.929 27.976 216.657 26.776 216.657 25.4ZM231.235 25.376C231.235 24.032 231.507 22.856 232.051 21.848C232.595 20.824 233.339 20.032 234.283 19.472C235.243 18.912 236.307 18.632 237.475 18.632C238.627 18.632 239.627 18.88 240.475 19.376C241.323 19.872 241.955 20.496 242.371 21.248V18.848H244.579V32H242.371V29.552C241.939 30.32 241.291 30.96 240.427 31.472C239.579 31.968 238.587 32.216 237.451 32.216C236.283 32.216 235.227 31.928 234.283 31.352C233.339 30.776 232.595 29.968 232.051 28.928C231.507 27.888 231.235 26.704 231.235 25.376ZM242.371 25.4C242.371 24.408 242.171 23.544 241.771 22.808C241.371 22.072 240.827 21.512 240.139 21.128C239.467 20.728 238.723 20.528 237.907 20.528C237.091 20.528 236.347 20.72 235.675 21.104C235.003 21.488 234.467 22.048 234.067 22.784C233.667 23.52 233.467 24.384 233.467 25.376C233.467 26.384 233.667 27.264 234.067 28.016C234.467 28.752 235.003 29.32 235.675 29.72C236.347 30.104 237.091 30.296 237.907 30.296C238.723 30.296 239.467 30.104 240.139 29.72C240.827 29.32 241.371 28.752 241.771 28.016C242.171 27.264 242.371 26.392 242.371 25.4ZM252.926 32.216C251.918 32.216 251.014 32.048 250.214 31.712C249.414 31.36 248.782 30.88 248.318 30.272C247.854 29.648 247.598 28.936 247.55 28.136H249.806C249.87 28.792 250.174 29.328 250.718 29.744C251.278 30.16 252.006 30.368 252.902 30.368C253.734 30.368 254.39 30.184 254.87 29.816C255.35 29.448 255.59 28.984 255.59 28.424C255.59 27.848 255.334 27.424 254.822 27.152C254.31 26.864 253.518 26.584 252.446 26.312C251.47 26.056 250.67 25.8 250.046 25.544C249.438 25.272 248.91 24.88 248.462 24.368C248.03 23.84 247.814 23.152 247.814 22.304C247.814 21.632 248.014 21.016 248.414 20.456C248.814 19.896 249.382 19.456 250.118 19.136C250.854 18.8 251.694 18.632 252.638 18.632C254.094 18.632 255.27 19 256.166 19.736C257.062 20.472 257.542 21.48 257.606 22.76H255.422C255.374 22.072 255.094 21.52 254.582 21.104C254.086 20.688 253.414 20.48 252.566 20.48C251.782 20.48 251.158 20.648 250.694 20.984C250.23 21.32 249.998 21.76 249.998 22.304C249.998 22.736 250.134 23.096 250.406 23.384C250.694 23.656 251.046 23.88 251.462 24.056C251.894 24.216 252.486 24.4 253.238 24.608C254.182 24.864 254.95 25.12 255.542 25.376C256.134 25.616 256.638 25.984 257.054 26.48C257.486 26.976 257.71 27.624 257.726 28.424C257.726 29.144 257.526 29.792 257.126 30.368C256.726 30.944 256.158 31.4 255.422 31.736C254.702 32.056 253.87 32.216 252.926 32.216ZM266.545 32.216C265.313 32.216 264.193 31.936 263.185 31.376C262.193 30.816 261.409 30.024 260.833 29C260.273 27.96 259.993 26.76 259.993 25.4C259.993 24.056 260.281 22.872 260.857 21.848C261.449 20.808 262.249 20.016 263.257 19.472C264.265 18.912 265.393 18.632 266.641 18.632C267.889 18.632 269.017 18.912 270.025 19.472C271.033 20.016 271.825 20.8 272.401 21.824C272.993 22.848 273.289 24.04 273.289 25.4C273.289 26.76 272.985 27.96 272.377 29C271.785 30.024 270.977 30.816 269.953 31.376C268.929 31.936 267.793 32.216 266.545 32.216ZM266.545 30.296C267.329 30.296 268.065 30.112 268.753 29.744C269.441 29.376 269.993 28.824 270.409 28.088C270.841 27.352 271.057 26.456 271.057 25.4C271.057 24.344 270.849 23.448 270.433 22.712C270.017 21.976 269.473 21.432 268.801 21.08C268.129 20.712 267.401 20.528 266.617 20.528C265.817 20.528 265.081 20.712 264.409 21.08C263.753 21.432 263.225 21.976 262.825 22.712C262.425 23.448 262.225 24.344 262.225 25.4C262.225 26.472 262.417 27.376 262.801 28.112C263.201 28.848 263.729 29.4 264.385 29.768C265.041 30.12 265.761 30.296 266.545 30.296ZM281.743 25.376C281.743 24.032 282.015 22.856 282.559 21.848C283.103 20.824 283.847 20.032 284.791 19.472C285.751 18.912 286.823 18.632 288.007 18.632C289.031 18.632 289.983 18.872 290.863 19.352C291.743 19.816 292.415 20.432 292.879 21.2V14.24H295.087V32H292.879V29.528C292.447 30.312 291.807 30.96 290.959 31.472C290.111 31.968 289.119 32.216 287.983 32.216C286.815 32.216 285.751 31.928 284.791 31.352C283.847 30.776 283.103 29.968 282.559 28.928C282.015 27.888 281.743 26.704 281.743 25.376ZM292.879 25.4C292.879 24.408 292.679 23.544 292.279 22.808C291.879 22.072 291.335 21.512 290.647 21.128C289.975 20.728 289.231 20.528 288.415 20.528C287.599 20.528 286.855 20.72 286.183 21.104C285.511 21.488 284.975 22.048 284.575 22.784C284.175 23.52 283.975 24.384 283.975 25.376C283.975 26.384 284.175 27.264 284.575 28.016C284.975 28.752 285.511 29.32 286.183 29.72C286.855 30.104 287.599 30.296 288.415 30.296C289.231 30.296 289.975 30.104 290.647 29.72C291.335 29.32 291.879 28.752 292.279 28.016C292.679 27.264 292.879 26.392 292.879 25.4ZM310.778 24.92C310.778 25.336 310.754 25.776 310.706 26.24H300.194C300.274 27.536 300.714 28.552 301.514 29.288C302.33 30.008 303.314 30.368 304.466 30.368C305.41 30.368 306.194 30.152 306.818 29.72C307.458 29.272 307.906 28.68 308.162 27.944H310.514C310.162 29.208 309.458 30.24 308.402 31.04C307.346 31.824 306.034 32.216 304.466 32.216C303.218 32.216 302.098 31.936 301.106 31.376C300.13 30.816 299.362 30.024 298.802 29C298.242 27.96 297.962 26.76 297.962 25.4C297.962 24.04 298.234 22.848 298.778 21.824C299.322 20.8 300.082 20.016 301.058 19.472C302.05 18.912 303.186 18.632 304.466 18.632C305.714 18.632 306.818 18.904 307.778 19.448C308.738 19.992 309.474 20.744 309.986 21.704C310.514 22.648 310.778 23.72 310.778 24.92ZM308.522 24.464C308.522 23.632 308.338 22.92 307.97 22.328C307.602 21.72 307.098 21.264 306.458 20.96C305.834 20.64 305.138 20.48 304.37 20.48C303.266 20.48 302.322 20.832 301.538 21.536C300.77 22.24 300.33 23.216 300.218 24.464H308.522Z" fill="white"/>
<path d="M325.723 28.16L328.627 18.608H332.995L328.243 32H323.179L318.427 18.608H322.819L325.723 28.16ZM336.786 17.216C336.066 17.216 335.474 17.008 335.01 16.592C334.562 16.16 334.338 15.632 334.338 15.008C334.338 14.368 334.562 13.84 335.01 13.424C335.474 12.992 336.066 12.776 336.786 12.776C337.49 12.776 338.066 12.992 338.514 13.424C338.978 13.84 339.21 14.368 339.21 15.008C339.21 15.632 338.978 16.16 338.514 16.592C338.066 17.008 337.49 17.216 336.786 17.216ZM338.826 18.608V32H334.722V18.608H338.826ZM349.265 28.52V32H347.177C345.689 32 344.529 31.64 343.697 30.92C342.865 30.184 342.449 28.992 342.449 27.344V22.016H340.817V18.608H342.449V15.344H346.553V18.608H349.241V22.016H346.553V27.392C346.553 27.792 346.649 28.08 346.841 28.256C347.033 28.432 347.353 28.52 347.801 28.52H349.265ZM357.647 32.192C356.335 32.192 355.151 31.912 354.095 31.352C353.055 30.792 352.231 29.992 351.623 28.952C351.031 27.912 350.735 26.696 350.735 25.304C350.735 23.928 351.039 22.72 351.646 21.68C352.255 20.624 353.087 19.816 354.143 19.256C355.199 18.696 356.383 18.416 357.695 18.416C359.007 18.416 360.191 18.696 361.247 19.256C362.303 19.816 363.135 20.624 363.743 21.68C364.351 22.72 364.655 23.928 364.655 25.304C364.655 26.68 364.343 27.896 363.719 28.952C363.111 29.992 362.271 30.792 361.199 31.352C360.143 31.912 358.959 32.192 357.647 32.192ZM357.647 28.64C358.431 28.64 359.095 28.352 359.639 27.776C360.199 27.2 360.479 26.376 360.479 25.304C360.479 24.232 360.207 23.408 359.663 22.832C359.135 22.256 358.479 21.968 357.695 21.968C356.895 21.968 356.231 22.256 355.703 22.832C355.175 23.392 354.911 24.216 354.911 25.304C354.911 26.376 355.167 27.2 355.679 27.776C356.207 28.352 356.863 28.64 357.647 28.64ZM370.936 20.84C371.416 20.104 372.016 19.528 372.736 19.112C373.456 18.68 374.256 18.464 375.136 18.464V22.808H374.008C372.984 22.808 372.216 23.032 371.704 23.48C371.192 23.912 370.936 24.68 370.936 25.784V32H366.832V18.608H370.936V20.84ZM379.161 17.216C378.441 17.216 377.849 17.008 377.385 16.592C376.937 16.16 376.713 15.632 376.713 15.008C376.713 14.368 376.937 13.84 377.385 13.424C377.849 12.992 378.441 12.776 379.161 12.776C379.865 12.776 380.441 12.992 380.889 13.424C381.353 13.84 381.585 14.368 381.585 15.008C381.585 15.632 381.353 16.16 380.889 16.592C380.441 17.008 379.865 17.216 379.161 17.216ZM381.201 18.608V32H377.097V18.608H381.201ZM383.36 25.28C383.36 23.904 383.616 22.696 384.128 21.656C384.656 20.616 385.368 19.816 386.264 19.256C387.16 18.696 388.16 18.416 389.264 18.416C390.208 18.416 391.032 18.608 391.736 18.992C392.456 19.376 393.008 19.88 393.392 20.504V18.608H397.496V32H393.392V30.104C392.992 30.728 392.432 31.232 391.712 31.616C391.008 32 390.184 32.192 389.24 32.192C388.152 32.192 387.16 31.912 386.264 31.352C385.368 30.776 384.656 29.968 384.128 28.928C383.616 27.872 383.36 26.656 383.36 25.28ZM393.392 25.304C393.392 24.28 393.104 23.472 392.528 22.88C391.968 22.288 391.28 21.992 390.464 21.992C389.648 21.992 388.952 22.288 388.376 22.88C387.816 23.456 387.536 24.256 387.536 25.28C387.536 26.304 387.816 27.12 388.376 27.728C388.952 28.32 389.648 28.616 390.464 28.616C391.28 28.616 391.968 28.32 392.528 27.728C393.104 27.136 393.392 26.328 393.392 25.304Z" fill="#04D47C"/>
<path d="M434 18L434.358 19.4566L434.453 19.4333L434.544 19.398L434 18ZM462.373 8.10411C462.707 7.34584 462.362 6.46067 461.604 6.12703L449.247 0.690056C448.489 0.356417 447.604 0.700649 447.27 1.45892C446.937 2.21719 447.281 3.10236 448.039 3.436L459.023 8.26886L454.19 19.2526C453.856 20.0109 454.201 20.8961 454.959 21.2297C455.717 21.5634 456.602 21.2191 456.936 20.4609L462.373 8.10411ZM403.858 26.9566L434.358 19.4566L433.642 16.5434L403.142 24.0434L403.858 26.9566ZM434.544 19.398L461.544 8.89801L460.456 6.10199L433.456 16.602L434.544 19.398Z" fill="#04D47C"/>
</svg>
