<svg width="156" height="303" viewBox="0 0 156 303" fill="none" xmlns="http://www.w3.org/2000/svg">
<path d="M15.5161 277H14.5928L17.2633 269.727H18.1724L20.8428 277H19.9195L17.7462 270.878H17.6894L15.5161 277ZM15.857 274.159H19.5786V274.94H15.857V274.159ZM24.0637 279.159C23.6589 279.159 23.3109 279.107 23.0197 279.003C22.7285 278.901 22.4858 278.766 22.2917 278.598C22.0999 278.432 21.9472 278.255 21.8336 278.065L22.5012 277.597C22.577 277.696 22.6729 277.81 22.7889 277.938C22.9049 278.068 23.0635 278.18 23.2647 278.275C23.4683 278.372 23.7346 278.421 24.0637 278.421C24.5041 278.421 24.8675 278.314 25.1539 278.101C25.4404 277.888 25.5836 277.554 25.5836 277.1V275.992H25.5126C25.451 276.091 25.3634 276.214 25.2498 276.361C25.1385 276.505 24.9775 276.634 24.7668 276.748C24.5585 276.859 24.2768 276.915 23.9217 276.915C23.4813 276.915 23.086 276.811 22.7356 276.602C22.3876 276.394 22.1118 276.091 21.9082 275.693C21.707 275.296 21.6063 274.813 21.6063 274.244C21.6063 273.686 21.7046 273.199 21.9011 272.785C22.0976 272.368 22.371 272.046 22.7214 271.819C23.0718 271.589 23.4766 271.475 23.9359 271.475C24.291 271.475 24.5727 271.534 24.7811 271.652C24.9918 271.768 25.1527 271.901 25.264 272.05C25.3776 272.197 25.4652 272.317 25.5268 272.412H25.612V271.546H26.4217V277.156C26.4217 277.625 26.3151 278.006 26.1021 278.3C25.8914 278.596 25.6073 278.812 25.2498 278.95C24.8947 279.089 24.4993 279.159 24.0637 279.159ZM24.0353 276.162C24.3715 276.162 24.6556 276.085 24.8876 275.931C25.1196 275.777 25.296 275.556 25.4167 275.267C25.5374 274.978 25.5978 274.633 25.5978 274.23C25.5978 273.837 25.5386 273.49 25.4203 273.19C25.3019 272.889 25.1267 272.654 24.8947 272.483C24.6627 272.313 24.3762 272.227 24.0353 272.227C23.6802 272.227 23.3843 272.317 23.1475 272.497C22.9132 272.677 22.7368 272.919 22.6184 273.222C22.5024 273.525 22.4444 273.861 22.4444 274.23C22.4444 274.609 22.5036 274.944 22.622 275.235C22.7427 275.524 22.9203 275.751 23.1546 275.917C23.3914 276.08 23.6849 276.162 24.0353 276.162ZM30.1717 277.114C29.6793 277.114 29.2472 276.997 28.8755 276.762C28.5062 276.528 28.2174 276.2 28.009 275.779C27.8031 275.357 27.7001 274.865 27.7001 274.301C27.7001 273.733 27.8031 273.237 28.009 272.813C28.2174 272.39 28.5062 272.06 28.8755 271.826C29.2472 271.592 29.6793 271.475 30.1717 271.475C30.6641 271.475 31.095 271.592 31.4643 271.826C31.836 272.06 32.1248 272.39 32.3308 272.813C32.5391 273.237 32.6433 273.733 32.6433 274.301C32.6433 274.865 32.5391 275.357 32.3308 275.779C32.1248 276.2 31.836 276.528 31.4643 276.762C31.095 276.997 30.6641 277.114 30.1717 277.114ZM30.1717 276.361C30.5457 276.361 30.8535 276.265 31.095 276.073C31.3364 275.882 31.5152 275.629 31.6312 275.317C31.7472 275.004 31.8052 274.666 31.8052 274.301C31.8052 273.937 31.7472 273.597 31.6312 273.282C31.5152 272.967 31.3364 272.713 31.095 272.519C30.8535 272.324 30.5457 272.227 30.1717 272.227C29.7976 272.227 29.4899 272.324 29.2484 272.519C29.0069 272.713 28.8282 272.967 28.7122 273.282C28.5962 273.597 28.5382 273.937 28.5382 274.301C28.5382 274.666 28.5962 275.004 28.7122 275.317C28.8282 275.629 29.0069 275.882 29.2484 276.073C29.4899 276.265 29.7976 276.361 30.1717 276.361ZM33.9226 277V271.546H34.7322V272.369H34.789C34.8885 272.1 35.0684 271.881 35.3288 271.712C35.5892 271.544 35.8828 271.46 36.2095 271.46C36.2711 271.46 36.348 271.462 36.4403 271.464C36.5327 271.466 36.6025 271.47 36.6498 271.475V272.327C36.6214 272.32 36.5563 272.309 36.4545 272.295C36.3551 272.278 36.2497 272.27 36.1385 272.27C35.8733 272.27 35.6366 272.326 35.4282 272.437C35.2223 272.546 35.0589 272.697 34.9382 272.891C34.8198 273.083 34.7606 273.302 34.7606 273.548V277H33.9226ZM39.2484 277.128C38.9027 277.128 38.5891 277.063 38.3073 276.933C38.0256 276.8 37.8019 276.609 37.6362 276.361C37.4704 276.11 37.3876 275.807 37.3876 275.452C37.3876 275.139 37.4491 274.886 37.5722 274.692C37.6954 274.495 37.8599 274.342 38.0659 274.23C38.2718 274.119 38.4991 274.036 38.7477 273.982C38.9986 273.925 39.2507 273.88 39.5041 273.847C39.8355 273.804 40.1042 273.772 40.3102 273.751C40.5185 273.727 40.67 273.688 40.7647 273.634C40.8618 273.579 40.9103 273.484 40.9103 273.35V273.321C40.9103 272.971 40.8144 272.699 40.6227 272.504C40.4333 272.31 40.1456 272.213 39.7597 272.213C39.3597 272.213 39.046 272.301 38.8187 272.476C38.5914 272.651 38.4316 272.838 38.3393 273.037L37.5438 272.753C37.6859 272.422 37.8753 272.163 38.112 271.979C38.3511 271.792 38.6115 271.662 38.8933 271.588C39.1774 271.512 39.4567 271.475 39.7313 271.475C39.9065 271.475 40.1078 271.496 40.335 271.538C40.5647 271.579 40.786 271.663 40.9991 271.791C41.2145 271.918 41.3933 272.111 41.5353 272.369C41.6774 272.627 41.7484 272.973 41.7484 273.406V277H40.9103V276.261H40.8677C40.8109 276.38 40.7162 276.507 40.5836 276.641C40.451 276.776 40.2747 276.891 40.0545 276.986C39.8343 277.081 39.5656 277.128 39.2484 277.128ZM39.3762 276.375C39.7077 276.375 39.987 276.31 40.2143 276.18C40.4439 276.05 40.6168 275.882 40.7328 275.676C40.8511 275.47 40.9103 275.253 40.9103 275.026V274.259C40.8748 274.301 40.7967 274.34 40.6759 274.376C40.5576 274.409 40.4203 274.439 40.264 274.465C40.1101 274.488 39.9598 274.51 39.813 274.529C39.6686 274.545 39.5514 274.559 39.4615 274.571C39.2436 274.6 39.04 274.646 38.8507 274.71C38.6636 274.771 38.5121 274.865 38.3961 274.99C38.2825 275.113 38.2257 275.281 38.2257 275.494C38.2257 275.786 38.3334 276.006 38.5488 276.155C38.7666 276.302 39.0424 276.375 39.3762 276.375ZM48.3064 277.114C47.7951 277.114 47.3547 276.993 46.9854 276.752C46.6161 276.51 46.332 276.177 46.1331 275.754C45.9343 275.33 45.8349 274.846 45.8349 274.301C45.8349 273.747 45.9367 273.258 46.1402 272.835C46.3462 272.409 46.6327 272.076 46.9996 271.837C47.3689 271.595 47.7998 271.475 48.2922 271.475C48.6758 271.475 49.0214 271.546 49.3292 271.688C49.6369 271.83 49.8891 272.029 50.0856 272.284C50.2821 272.54 50.404 272.838 50.4513 273.179H49.6133C49.5493 272.931 49.4073 272.71 49.1871 272.519C48.9693 272.324 48.6758 272.227 48.3064 272.227C47.9797 272.227 47.6933 272.313 47.4471 272.483C47.2032 272.651 47.0126 272.889 46.8753 273.197C46.7404 273.502 46.6729 273.861 46.6729 274.273C46.6729 274.694 46.7392 275.061 46.8718 275.374C47.0067 275.686 47.1961 275.929 47.44 276.102C47.6862 276.275 47.975 276.361 48.3064 276.361C48.5242 276.361 48.7219 276.323 48.8995 276.247C49.077 276.172 49.2274 276.063 49.3505 275.921C49.4736 275.779 49.5612 275.608 49.6133 275.409H50.4513C50.404 275.731 50.2868 276.021 50.0998 276.279C49.9151 276.535 49.6701 276.739 49.3647 276.89C49.0617 277.039 48.7089 277.114 48.3064 277.114ZM52.5145 269.727V277H51.6765V269.727H52.5145ZM54.0495 277V271.546H54.8876V277H54.0495ZM54.4757 270.636C54.3123 270.636 54.1714 270.581 54.0531 270.47C53.9371 270.358 53.8791 270.225 53.8791 270.068C53.8791 269.912 53.9371 269.778 54.0531 269.667C54.1714 269.556 54.3123 269.5 54.4757 269.5C54.639 269.5 54.7787 269.556 54.8947 269.667C55.0131 269.778 55.0722 269.912 55.0722 270.068C55.0722 270.225 55.0131 270.358 54.8947 270.47C54.7787 270.581 54.639 270.636 54.4757 270.636ZM60.1442 279.046V276.162H60.0731C60.0116 276.261 59.924 276.387 59.8104 276.538C59.6967 276.688 59.5345 276.821 59.3238 276.94C59.1131 277.056 58.8326 277.114 58.4822 277.114C58.0277 277.114 57.6264 276.999 57.2784 276.769C56.9304 276.537 56.6581 276.211 56.4616 275.789C56.2651 275.365 56.1669 274.865 56.1669 274.287C56.1669 273.714 56.2651 273.217 56.4616 272.796C56.6581 272.374 56.9316 272.049 57.2819 271.819C57.6323 271.589 58.0372 271.475 58.4964 271.475C58.8515 271.475 59.1321 271.534 59.3381 271.652C59.5464 271.768 59.705 271.901 59.8139 272.05C59.9252 272.197 60.0116 272.317 60.0731 272.412H60.1726V271.546H60.9822V279.046H60.1442ZM58.5959 276.361C58.932 276.361 59.2161 276.273 59.4481 276.098C59.6801 275.921 59.8565 275.676 59.9773 275.363C60.098 275.048 60.1584 274.685 60.1584 274.273C60.1584 273.866 60.0992 273.509 59.9808 273.204C59.8624 272.896 59.6872 272.657 59.4552 272.487C59.2232 272.314 58.9368 272.227 58.5959 272.227C58.2407 272.227 57.9448 272.319 57.7081 272.501C57.4737 272.681 57.2973 272.926 57.179 273.236C57.063 273.544 57.005 273.889 57.005 274.273C57.005 274.661 57.0641 275.014 57.1825 275.331C57.3032 275.646 57.4808 275.897 57.7152 276.084C57.9519 276.269 58.2455 276.361 58.5959 276.361ZM65.9538 274.77V271.546H66.7919V277H65.9538V276.077H65.897C65.7692 276.354 65.5703 276.589 65.3004 276.784C65.0305 276.975 64.6896 277.071 64.2777 277.071C63.9368 277.071 63.6337 276.997 63.3686 276.847C63.1034 276.696 62.8951 276.469 62.7436 276.166C62.5921 275.86 62.5163 275.476 62.5163 275.011V271.546H63.3544V274.955C63.3544 275.352 63.4657 275.67 63.6882 275.906C63.9131 276.143 64.1996 276.261 64.5476 276.261C64.7559 276.261 64.9678 276.208 65.1832 276.102C65.401 275.995 65.5833 275.832 65.7301 275.612C65.8792 275.391 65.9538 275.111 65.9538 274.77ZM70.6138 277.114C70.0882 277.114 69.6349 276.998 69.2537 276.766C68.8749 276.531 68.5825 276.205 68.3766 275.786C68.173 275.364 68.0712 274.874 68.0712 274.315C68.0712 273.757 68.173 273.264 68.3766 272.838C68.5825 272.41 68.869 272.076 69.236 271.837C69.6053 271.595 70.0361 271.475 70.5286 271.475C70.8127 271.475 71.0932 271.522 71.3702 271.617C71.6472 271.711 71.8993 271.865 72.1266 272.078C72.3539 272.289 72.535 272.568 72.6699 272.916C72.8048 273.264 72.8723 273.693 72.8723 274.202V274.557H68.6678V273.833H72.02C72.02 273.525 71.9585 273.25 71.8354 273.009C71.7146 272.767 71.5418 272.577 71.3169 272.437C71.0944 272.297 70.8316 272.227 70.5286 272.227C70.1948 272.227 69.9059 272.31 69.6621 272.476C69.4206 272.639 69.2348 272.852 69.1046 273.115C68.9744 273.378 68.9093 273.66 68.9093 273.96V274.443C68.9093 274.855 68.9803 275.204 69.1223 275.491C69.2667 275.775 69.4668 275.992 69.7225 276.141C69.9781 276.288 70.2753 276.361 70.6138 276.361C70.834 276.361 71.0328 276.33 71.2104 276.269C71.3903 276.205 71.5454 276.11 71.6756 275.984C71.8058 275.857 71.9064 275.698 71.9774 275.509L72.7871 275.736C72.7019 276.011 72.5586 276.252 72.3574 276.46C72.1562 276.666 71.9076 276.827 71.6117 276.943C71.3157 277.057 70.9831 277.114 70.6138 277.114ZM79.2466 277.114C78.721 277.114 78.2677 276.998 77.8865 276.766C77.5077 276.531 77.2154 276.205 77.0094 275.786C76.8058 275.364 76.704 274.874 76.704 274.315C76.704 273.757 76.8058 273.264 77.0094 272.838C77.2154 272.41 77.5018 272.076 77.8688 271.837C78.2381 271.595 78.669 271.475 79.1614 271.475C79.4455 271.475 79.726 271.522 80.003 271.617C80.28 271.711 80.5321 271.865 80.7594 272.078C80.9867 272.289 81.1678 272.568 81.3027 272.916C81.4377 273.264 81.5051 273.693 81.5051 274.202V274.557H77.3006V273.833H80.6529C80.6529 273.525 80.5913 273.25 80.4682 273.009C80.3475 272.767 80.1746 272.577 79.9497 272.437C79.7272 272.297 79.4644 272.227 79.1614 272.227C78.8276 272.227 78.5387 272.31 78.2949 272.476C78.0534 272.639 77.8676 272.852 77.7374 273.115C77.6072 273.378 77.5421 273.66 77.5421 273.96V274.443C77.5421 274.855 77.6131 275.204 77.7551 275.491C77.8995 275.775 78.0996 275.992 78.3553 276.141C78.611 276.288 78.9081 276.361 79.2466 276.361C79.4668 276.361 79.6656 276.33 79.8432 276.269C80.0231 276.205 80.1782 276.11 80.3084 275.984C80.4386 275.857 80.5392 275.698 80.6102 275.509L81.4199 275.736C81.3347 276.011 81.1914 276.252 80.9902 276.46C80.789 276.666 80.5404 276.827 80.2445 276.943C79.9485 277.057 79.6159 277.114 79.2466 277.114ZM82.78 277V271.546H83.5897V272.398H83.6607C83.7743 272.107 83.9578 271.881 84.2111 271.72C84.4644 271.556 84.7686 271.475 85.1237 271.475C85.4836 271.475 85.7831 271.556 86.0222 271.72C86.2637 271.881 86.4519 272.107 86.5868 272.398H86.6436C86.7833 272.116 86.9928 271.892 87.2722 271.727C87.5515 271.559 87.8865 271.475 88.2772 271.475C88.7648 271.475 89.1638 271.627 89.4739 271.933C89.784 272.236 89.9391 272.708 89.9391 273.35V277H89.101V273.35C89.101 272.947 88.9909 272.659 88.7708 272.487C88.5506 272.314 88.2914 272.227 87.9931 272.227C87.6095 272.227 87.3124 272.343 87.1017 272.575C86.891 272.805 86.7857 273.096 86.7857 273.449V277H85.9334V273.264C85.9334 272.954 85.8328 272.704 85.6316 272.515C85.4303 272.323 85.1711 272.227 84.8539 272.227C84.6361 272.227 84.4325 272.285 84.2431 272.401C84.056 272.517 83.9045 272.678 83.7885 272.884C83.6749 273.088 83.6181 273.324 83.6181 273.591V277H82.78ZM58.7361 289.114C58.2437 289.114 57.8117 288.997 57.44 288.762C57.0706 288.528 56.7818 288.2 56.5735 287.779C56.3675 287.357 56.2645 286.865 56.2645 286.301C56.2645 285.733 56.3675 285.237 56.5735 284.813C56.7818 284.39 57.0706 284.06 57.44 283.826C57.8117 283.592 58.2437 283.475 58.7361 283.475C59.2286 283.475 59.6594 283.592 60.0287 283.826C60.4004 284.06 60.6893 284.39 60.8952 284.813C61.1036 285.237 61.2077 285.733 61.2077 286.301C61.2077 286.865 61.1036 287.357 60.8952 287.779C60.6893 288.2 60.4004 288.528 60.0287 288.762C59.6594 288.997 59.2286 289.114 58.7361 289.114ZM58.7361 288.361C59.1102 288.361 59.418 288.265 59.6594 288.073C59.9009 287.882 60.0796 287.629 60.1956 287.317C60.3117 287.004 60.3697 286.666 60.3697 286.301C60.3697 285.937 60.3117 285.597 60.1956 285.282C60.0796 284.967 59.9009 284.713 59.6594 284.519C59.418 284.324 59.1102 284.227 58.7361 284.227C58.3621 284.227 58.0543 284.324 57.8128 284.519C57.5714 284.713 57.3926 284.967 57.2766 285.282C57.1606 285.597 57.1026 285.937 57.1026 286.301C57.1026 286.666 57.1606 287.004 57.2766 287.317C57.3926 287.629 57.5714 287.882 57.8128 288.073C58.0543 288.265 58.3621 288.361 58.7361 288.361ZM65.9245 286.77V283.546H66.7626V289H65.9245V288.077H65.8677C65.7399 288.354 65.541 288.589 65.2711 288.784C65.0012 288.975 64.6603 289.071 64.2484 289.071C63.9075 289.071 63.6044 288.997 63.3393 288.847C63.0741 288.696 62.8658 288.469 62.7143 288.166C62.5628 287.86 62.487 287.476 62.487 287.011V283.546H63.3251V286.955C63.3251 287.352 63.4364 287.67 63.6589 287.906C63.8838 288.143 64.1703 288.261 64.5183 288.261C64.7266 288.261 64.9385 288.208 65.1539 288.102C65.3717 287.995 65.554 287.832 65.7008 287.612C65.8499 287.391 65.9245 287.111 65.9245 286.77ZM104.714 291.046V283.546H105.523V284.412H105.623C105.684 284.317 105.769 284.197 105.878 284.05C105.99 283.901 106.148 283.768 106.354 283.652C106.563 283.534 106.844 283.475 107.199 283.475C107.659 283.475 108.063 283.589 108.414 283.819C108.764 284.049 109.038 284.374 109.234 284.796C109.431 285.217 109.529 285.714 109.529 286.287C109.529 286.865 109.431 287.365 109.234 287.789C109.038 288.211 108.765 288.537 108.417 288.769C108.069 288.999 107.668 289.114 107.214 289.114C106.863 289.114 106.583 289.056 106.372 288.94C106.161 288.821 105.999 288.688 105.885 288.538C105.772 288.387 105.684 288.261 105.623 288.162H105.552V291.046H104.714ZM105.537 286.273C105.537 286.685 105.598 287.048 105.719 287.363C105.839 287.676 106.016 287.921 106.248 288.098C106.48 288.273 106.764 288.361 107.1 288.361C107.45 288.361 107.743 288.269 107.977 288.084C108.214 287.897 108.391 287.646 108.51 287.331C108.63 287.014 108.691 286.661 108.691 286.273C108.691 285.889 108.632 285.544 108.513 285.236C108.397 284.926 108.221 284.681 107.984 284.501C107.75 284.319 107.455 284.227 107.1 284.227C106.759 284.227 106.473 284.314 106.241 284.487C106.009 284.657 105.833 284.896 105.715 285.204C105.597 285.509 105.537 285.866 105.537 286.273ZM112.412 289.128C112.067 289.128 111.753 289.063 111.471 288.933C111.19 288.8 110.966 288.609 110.8 288.361C110.635 288.11 110.552 287.807 110.552 287.452C110.552 287.139 110.613 286.886 110.736 286.692C110.859 286.495 111.024 286.342 111.23 286.23C111.436 286.119 111.663 286.036 111.912 285.982C112.163 285.925 112.415 285.88 112.668 285.847C113 285.804 113.268 285.772 113.474 285.751C113.683 285.727 113.834 285.688 113.929 285.634C114.026 285.579 114.074 285.484 114.074 285.35V285.321C114.074 284.971 113.979 284.699 113.787 284.504C113.597 284.31 113.31 284.213 112.924 284.213C112.524 284.213 112.21 284.301 111.983 284.476C111.755 284.651 111.596 284.838 111.503 285.037L110.708 284.753C110.85 284.422 111.039 284.163 111.276 283.979C111.515 283.792 111.776 283.662 112.057 283.588C112.341 283.512 112.621 283.475 112.895 283.475C113.071 283.475 113.272 283.496 113.499 283.538C113.729 283.579 113.95 283.663 114.163 283.791C114.379 283.918 114.557 284.111 114.699 284.369C114.841 284.627 114.912 284.973 114.912 285.406V289H114.074V288.261H114.032C113.975 288.38 113.88 288.507 113.748 288.641C113.615 288.776 113.439 288.891 113.219 288.986C112.998 289.081 112.73 289.128 112.412 289.128ZM112.54 288.375C112.872 288.375 113.151 288.31 113.378 288.18C113.608 288.05 113.781 287.882 113.897 287.676C114.015 287.47 114.074 287.253 114.074 287.026V286.259C114.039 286.301 113.961 286.34 113.84 286.376C113.722 286.409 113.584 286.439 113.428 286.465C113.274 286.488 113.124 286.51 112.977 286.529C112.833 286.545 112.715 286.559 112.626 286.571C112.408 286.6 112.204 286.646 112.015 286.71C111.828 286.771 111.676 286.865 111.56 286.99C111.447 287.113 111.39 287.281 111.39 287.494C111.39 287.786 111.497 288.006 111.713 288.155C111.931 288.302 112.206 288.375 112.54 288.375ZM116.442 289V283.546H117.252V284.369H117.309C117.408 284.1 117.588 283.881 117.848 283.712C118.109 283.544 118.402 283.46 118.729 283.46C118.791 283.46 118.868 283.462 118.96 283.464C119.052 283.466 119.122 283.47 119.169 283.475V284.327C119.141 284.32 119.076 284.309 118.974 284.295C118.875 284.278 118.769 284.27 118.658 284.27C118.393 284.27 118.156 284.326 117.948 284.437C117.742 284.546 117.578 284.697 117.458 284.891C117.339 285.083 117.28 285.302 117.28 285.548V289H116.442ZM121.768 289.128C121.422 289.128 121.109 289.063 120.827 288.933C120.545 288.8 120.321 288.609 120.156 288.361C119.99 288.11 119.907 287.807 119.907 287.452C119.907 287.139 119.969 286.886 120.092 286.692C120.215 286.495 120.379 286.342 120.585 286.23C120.791 286.119 121.019 286.036 121.267 285.982C121.518 285.925 121.77 285.88 122.024 285.847C122.355 285.804 122.624 285.772 122.83 285.751C123.038 285.727 123.19 285.688 123.284 285.634C123.381 285.579 123.43 285.484 123.43 285.35V285.321C123.43 284.971 123.334 284.699 123.142 284.504C122.953 284.31 122.665 284.213 122.279 284.213C121.879 284.213 121.566 284.301 121.338 284.476C121.111 284.651 120.951 284.838 120.859 285.037L120.063 284.753C120.205 284.422 120.395 284.163 120.632 283.979C120.871 283.792 121.131 283.662 121.413 283.588C121.697 283.512 121.976 283.475 122.251 283.475C122.426 283.475 122.627 283.496 122.855 283.538C123.084 283.579 123.306 283.663 123.519 283.791C123.734 283.918 123.913 284.111 124.055 284.369C124.197 284.627 124.268 284.973 124.268 285.406V289H123.43V288.261H123.387C123.33 288.38 123.236 288.507 123.103 288.641C122.971 288.776 122.794 288.891 122.574 288.986C122.354 289.081 122.085 289.128 121.768 289.128ZM121.896 288.375C122.227 288.375 122.507 288.31 122.734 288.18C122.963 288.05 123.136 287.882 123.252 287.676C123.371 287.47 123.43 287.253 123.43 287.026V286.259C123.394 286.301 123.316 286.34 123.195 286.376C123.077 286.409 122.94 286.439 122.784 286.465C122.63 286.488 122.479 286.51 122.333 286.529C122.188 286.545 122.071 286.559 121.981 286.571C121.763 286.6 121.56 286.646 121.37 286.71C121.183 286.771 121.032 286.865 120.916 286.99C120.802 287.113 120.745 287.281 120.745 287.494C120.745 287.786 120.853 288.006 121.068 288.155C121.286 288.302 121.562 288.375 121.896 288.375ZM17.3911 301.114C16.8656 301.114 16.4122 300.998 16.0311 300.766C15.6523 300.531 15.3599 300.205 15.1539 299.786C14.9503 299.364 14.8485 298.874 14.8485 298.315C14.8485 297.757 14.9503 297.264 15.1539 296.838C15.3599 296.41 15.6463 296.076 16.0133 295.837C16.3826 295.595 16.8135 295.475 17.3059 295.475C17.59 295.475 17.8705 295.522 18.1475 295.617C18.4245 295.711 18.6766 295.865 18.9039 296.078C19.1312 296.289 19.3123 296.568 19.4472 296.916C19.5822 297.264 19.6497 297.693 19.6497 298.202V298.557H15.4451V297.833H18.7974C18.7974 297.525 18.7358 297.25 18.6127 297.009C18.492 296.767 18.3192 296.577 18.0943 296.437C17.8717 296.297 17.6089 296.227 17.3059 296.227C16.9721 296.227 16.6833 296.31 16.4394 296.476C16.198 296.639 16.0121 296.852 15.8819 297.115C15.7517 297.378 15.6866 297.66 15.6866 297.96V298.443C15.6866 298.855 15.7576 299.204 15.8997 299.491C16.0441 299.775 16.2441 299.992 16.4998 300.141C16.7555 300.288 17.0526 300.361 17.3911 300.361C17.6113 300.361 17.8102 300.33 17.9877 300.269C18.1677 300.205 18.3227 300.11 18.4529 299.984C18.5831 299.857 18.6837 299.698 18.7548 299.509L19.5644 299.736C19.4792 300.011 19.336 300.252 19.1347 300.46C18.9335 300.666 18.6849 300.827 18.389 300.943C18.0931 301.057 17.7605 301.114 17.3911 301.114ZM24.7882 296.767L24.0353 296.98C23.988 296.855 23.9181 296.733 23.8258 296.614C23.7358 296.494 23.6127 296.394 23.4565 296.316C23.3002 296.238 23.1002 296.199 22.8563 296.199C22.5225 296.199 22.2444 296.276 22.0218 296.43C21.8016 296.581 21.6916 296.774 21.6916 297.009C21.6916 297.217 21.7673 297.382 21.9188 297.502C22.0704 297.623 22.3071 297.724 22.6291 297.804L23.4387 298.003C23.9264 298.121 24.2898 298.302 24.5289 298.546C24.768 298.788 24.8876 299.099 24.8876 299.48C24.8876 299.793 24.7976 300.072 24.6177 300.318C24.4401 300.565 24.1916 300.759 23.872 300.901C23.5524 301.043 23.1807 301.114 22.7569 301.114C22.2006 301.114 21.7401 300.993 21.3755 300.752C21.0109 300.51 20.7801 300.157 20.683 299.693L21.4785 299.494C21.5543 299.788 21.6975 300.008 21.9082 300.155C22.1212 300.302 22.3994 300.375 22.7427 300.375C23.1333 300.375 23.4435 300.292 23.6731 300.127C23.9051 299.958 24.0211 299.757 24.0211 299.523C24.0211 299.333 23.9548 299.175 23.8222 299.047C23.6897 298.917 23.4861 298.82 23.2114 298.756L22.3024 298.543C21.8028 298.424 21.4359 298.241 21.2015 297.992C20.9695 297.741 20.8535 297.428 20.8535 297.051C20.8535 296.743 20.9399 296.471 21.1127 296.234C21.2879 295.998 21.5258 295.812 21.8265 295.677C22.1295 295.542 22.4728 295.475 22.8563 295.475C23.3961 295.475 23.8199 295.593 24.1276 295.83C24.4378 296.066 24.6579 296.379 24.7882 296.767ZM28.365 301.114C27.8537 301.114 27.4133 300.993 27.044 300.752C26.6747 300.51 26.3906 300.177 26.1917 299.754C25.9929 299.33 25.8934 298.846 25.8934 298.301C25.8934 297.747 25.9952 297.258 26.1988 296.835C26.4048 296.409 26.6913 296.076 27.0582 295.837C27.4275 295.595 27.8584 295.475 28.3508 295.475C28.7344 295.475 29.08 295.546 29.3878 295.688C29.6955 295.83 29.9477 296.029 30.1442 296.284C30.3407 296.54 30.4626 296.838 30.5099 297.179H29.6719C29.6079 296.931 29.4659 296.71 29.2457 296.519C29.0279 296.324 28.7344 296.227 28.365 296.227C28.0383 296.227 27.7519 296.313 27.5057 296.483C27.2618 296.651 27.0712 296.889 26.9339 297.197C26.799 297.502 26.7315 297.861 26.7315 298.273C26.7315 298.694 26.7978 299.061 26.9304 299.374C27.0653 299.686 27.2547 299.929 27.4986 300.102C27.7448 300.275 28.0336 300.361 28.365 300.361C28.5828 300.361 28.7805 300.323 28.9581 300.247C29.1356 300.172 29.286 300.063 29.4091 299.921C29.5322 299.779 29.6198 299.608 29.6719 299.409H30.5099C30.4626 299.731 30.3454 300.021 30.1584 300.279C29.9737 300.535 29.7287 300.739 29.4233 300.89C29.1202 301.039 28.7675 301.114 28.365 301.114ZM33.951 301.114C33.4586 301.114 33.0265 300.997 32.6548 300.762C32.2855 300.528 31.9967 300.2 31.7883 299.779C31.5824 299.357 31.4794 298.865 31.4794 298.301C31.4794 297.733 31.5824 297.237 31.7883 296.813C31.9967 296.39 32.2855 296.06 32.6548 295.826C33.0265 295.592 33.4586 295.475 33.951 295.475C34.4434 295.475 34.8743 295.592 35.2436 295.826C35.6153 296.06 35.9041 296.39 36.1101 296.813C36.3184 297.237 36.4226 297.733 36.4226 298.301C36.4226 298.865 36.3184 299.357 36.1101 299.779C35.9041 300.2 35.6153 300.528 35.2436 300.762C34.8743 300.997 34.4434 301.114 33.951 301.114ZM33.951 300.361C34.325 300.361 34.6328 300.265 34.8743 300.073C35.1157 299.882 35.2945 299.629 35.4105 299.317C35.5265 299.004 35.5845 298.666 35.5845 298.301C35.5845 297.937 35.5265 297.597 35.4105 297.282C35.2945 296.967 35.1157 296.713 34.8743 296.519C34.6328 296.324 34.325 296.227 33.951 296.227C33.5769 296.227 33.2692 296.324 33.0277 296.519C32.7862 296.713 32.6075 296.967 32.4915 297.282C32.3755 297.597 32.3175 297.937 32.3175 298.301C32.3175 298.666 32.3755 299.004 32.4915 299.317C32.6075 299.629 32.7862 299.882 33.0277 300.073C33.2692 300.265 33.5769 300.361 33.951 300.361ZM38.5399 293.727V301H37.7019V293.727H38.5399ZM40.913 297.719V301H40.0749V293.727H40.913V296.398H40.984C41.1118 296.116 41.3036 295.892 41.5593 295.727C41.8173 295.559 42.1606 295.475 42.5891 295.475C42.9608 295.475 43.2863 295.549 43.5657 295.698C43.845 295.845 44.0617 296.071 44.2155 296.377C44.3718 296.68 44.4499 297.065 44.4499 297.534V301H43.6118V297.591C43.6118 297.158 43.4994 296.823 43.2745 296.586C43.0519 296.347 42.743 296.227 42.3476 296.227C42.073 296.227 41.8268 296.285 41.609 296.401C41.3936 296.517 41.2231 296.687 41.0976 296.909C40.9745 297.132 40.913 297.402 40.913 297.719ZM48.27 301.114C47.7445 301.114 47.2911 300.998 46.91 300.766C46.5312 300.531 46.2388 300.205 46.0328 299.786C45.8292 299.364 45.7274 298.874 45.7274 298.315C45.7274 297.757 45.8292 297.264 46.0328 296.838C46.2388 296.41 46.5253 296.076 46.8922 295.837C47.2615 295.595 47.6924 295.475 48.1848 295.475C48.4689 295.475 48.7494 295.522 49.0264 295.617C49.3034 295.711 49.5556 295.865 49.7828 296.078C50.0101 296.289 50.1912 296.568 50.3262 296.916C50.4611 297.264 50.5286 297.693 50.5286 298.202V298.557H46.324V297.833H49.6763C49.6763 297.525 49.6147 297.25 49.4916 297.009C49.3709 296.767 49.1981 296.577 48.9732 296.437C48.7506 296.297 48.4878 296.227 48.1848 296.227C47.851 296.227 47.5622 296.31 47.3183 296.476C47.0769 296.639 46.891 296.852 46.7608 297.115C46.6306 297.378 46.5655 297.66 46.5655 297.96V298.443C46.5655 298.855 46.6365 299.204 46.7786 299.491C46.923 299.775 47.123 299.992 47.3787 300.141C47.6344 300.288 47.9315 300.361 48.27 300.361C48.4902 300.361 48.6891 300.33 48.8666 300.269C49.0466 300.205 49.2016 300.11 49.3318 299.984C49.462 299.857 49.5627 299.698 49.6337 299.509L50.4433 299.736C50.3581 300.011 50.2149 300.252 50.0137 300.46C49.8124 300.666 49.5638 300.827 49.2679 300.943C48.972 301.057 48.6394 301.114 48.27 301.114ZM51.8034 301V295.546H52.6131V296.369H52.6699C52.7693 296.1 52.9493 295.881 53.2097 295.712C53.4701 295.544 53.7637 295.46 54.0904 295.46C54.1519 295.46 54.2289 295.462 54.3212 295.464C54.4135 295.466 54.4834 295.47 54.5307 295.475V296.327C54.5023 296.32 54.4372 296.309 54.3354 296.295C54.236 296.278 54.1306 296.27 54.0193 296.27C53.7542 296.27 53.5174 296.326 53.3091 296.437C53.1031 296.546 52.9398 296.697 52.8191 296.891C52.7007 297.083 52.6415 297.302 52.6415 297.548V301H51.8034ZM59.1747 297.719V301H58.3366V295.546H59.1463V296.398H59.2173C59.3452 296.121 59.5393 295.898 59.7997 295.73C60.0601 295.56 60.3963 295.475 60.8082 295.475C61.1775 295.475 61.5007 295.55 61.7777 295.702C62.0547 295.851 62.2701 296.078 62.424 296.384C62.5779 296.687 62.6548 297.07 62.6548 297.534V301H61.8167V297.591C61.8167 297.163 61.7055 296.829 61.4829 296.59C61.2604 296.348 60.955 296.227 60.5667 296.227C60.2992 296.227 60.0601 296.285 59.8494 296.401C59.6411 296.517 59.4765 296.687 59.3558 296.909C59.2351 297.132 59.1747 297.402 59.1747 297.719ZM66.4021 301.114C65.9097 301.114 65.4777 300.997 65.106 300.762C64.7367 300.528 64.4478 300.2 64.2395 299.779C64.0335 299.357 63.9306 298.865 63.9306 298.301C63.9306 297.733 64.0335 297.237 64.2395 296.813C64.4478 296.39 64.7367 296.06 65.106 295.826C65.4777 295.592 65.9097 295.475 66.4021 295.475C66.8946 295.475 67.3254 295.592 67.6948 295.826C68.0664 296.06 68.3553 296.39 68.5612 296.813C68.7696 297.237 68.8737 297.733 68.8737 298.301C68.8737 298.865 68.7696 299.357 68.5612 299.779C68.3553 300.2 68.0664 300.528 67.6948 300.762C67.3254 300.997 66.8946 301.114 66.4021 301.114ZM66.4021 300.361C66.7762 300.361 67.084 300.265 67.3254 300.073C67.5669 299.882 67.7457 299.629 67.8617 299.317C67.9777 299.004 68.0357 298.666 68.0357 298.301C68.0357 297.937 67.9777 297.597 67.8617 297.282C67.7457 296.967 67.5669 296.713 67.3254 296.519C67.084 296.324 66.7762 296.227 66.4021 296.227C66.0281 296.227 65.7203 296.324 65.4789 296.519C65.2374 296.713 65.0586 296.967 64.9426 297.282C64.8266 297.597 64.7686 297.937 64.7686 298.301C64.7686 298.666 64.8266 299.004 64.9426 299.317C65.0586 299.629 65.2374 299.882 65.4789 300.073C65.7203 300.265 66.0281 300.361 66.4021 300.361ZM74.418 295.546L72.4009 301H71.5486L69.5316 295.546H70.4407L71.9464 299.892H72.0032L73.5089 295.546H74.418ZM76.9632 301.128C76.6176 301.128 76.3039 301.063 76.0222 300.933C75.7405 300.8 75.5167 300.609 75.351 300.361C75.1853 300.11 75.1024 299.807 75.1024 299.452C75.1024 299.139 75.164 298.886 75.2871 298.692C75.4102 298.495 75.5747 298.342 75.7807 298.23C75.9867 298.119 76.2139 298.036 76.4625 297.982C76.7135 297.925 76.9656 297.88 77.2189 297.847C77.5503 297.804 77.8191 297.772 78.025 297.751C78.2334 297.727 78.3849 297.688 78.4796 297.634C78.5766 297.579 78.6252 297.484 78.6252 297.35V297.321C78.6252 296.971 78.5293 296.699 78.3375 296.504C78.1481 296.31 77.8605 296.213 77.4746 296.213C77.0745 296.213 76.7608 296.301 76.5335 296.476C76.3063 296.651 76.1465 296.838 76.0541 297.037L75.2587 296.753C75.4007 296.422 75.5901 296.163 75.8269 295.979C76.066 295.792 76.3264 295.662 76.6081 295.588C76.8922 295.512 77.1716 295.475 77.4462 295.475C77.6214 295.475 77.8226 295.496 78.0499 295.538C78.2795 295.579 78.5009 295.663 78.7139 295.791C78.9294 295.918 79.1081 296.111 79.2502 296.369C79.3922 296.627 79.4632 296.973 79.4632 297.406V301H78.6252V300.261H78.5825C78.5257 300.38 78.431 300.507 78.2985 300.641C78.1659 300.776 77.9895 300.891 77.7693 300.986C77.5492 301.081 77.2805 301.128 76.9632 301.128ZM77.0911 300.375C77.4225 300.375 77.7019 300.31 77.9291 300.18C78.1588 300.05 78.3316 299.882 78.4476 299.676C78.566 299.47 78.6252 299.253 78.6252 299.026V298.259C78.5896 298.301 78.5115 298.34 78.3908 298.376C78.2724 298.409 78.1351 298.439 77.9789 298.465C77.825 298.488 77.6746 298.51 77.5279 298.529C77.3834 298.545 77.2663 298.559 77.1763 298.571C76.9585 298.6 76.7549 298.646 76.5655 298.71C76.3785 298.771 76.227 298.865 76.111 298.99C75.9973 299.113 75.9405 299.281 75.9405 299.494C75.9405 299.786 76.0482 300.006 76.2637 300.155C76.4815 300.302 76.7573 300.375 77.0911 300.375ZM80.9929 301V295.546H81.8025V296.398H81.8736C81.9872 296.107 82.1707 295.881 82.424 295.72C82.6773 295.556 82.9815 295.475 83.3366 295.475C83.6965 295.475 83.996 295.556 84.2351 295.72C84.4765 295.881 84.6648 296.107 84.7997 296.398H84.8565C84.9962 296.116 85.2057 295.892 85.4851 295.727C85.7644 295.559 86.0994 295.475 86.49 295.475C86.9777 295.475 87.3766 295.627 87.6868 295.933C87.9969 296.236 88.152 296.708 88.152 297.35V301H87.3139V297.35C87.3139 296.947 87.2038 296.659 86.9837 296.487C86.7635 296.314 86.5042 296.227 86.206 296.227C85.8224 296.227 85.5253 296.343 85.3146 296.575C85.1039 296.805 84.9986 297.096 84.9986 297.449V301H84.1463V297.264C84.1463 296.954 84.0457 296.704 83.8444 296.515C83.6432 296.323 83.384 296.227 83.0667 296.227C82.8489 296.227 82.6453 296.285 82.456 296.401C82.2689 296.517 82.1174 296.678 82.0014 296.884C81.8878 297.088 81.831 297.324 81.831 297.591V301H80.9929ZM91.9712 301.114C91.4457 301.114 90.9923 300.998 90.6111 300.766C90.2323 300.531 89.94 300.205 89.734 299.786C89.5304 299.364 89.4286 298.874 89.4286 298.315C89.4286 297.757 89.5304 297.264 89.734 296.838C89.94 296.41 90.2264 296.076 90.5934 295.837C90.9627 295.595 91.3936 295.475 91.886 295.475C92.1701 295.475 92.4506 295.522 92.7276 295.617C93.0046 295.711 93.2567 295.865 93.484 296.078C93.7113 296.289 93.8924 296.568 94.0273 296.916C94.1623 297.264 94.2297 297.693 94.2297 298.202V298.557H90.0252V297.833H93.3775C93.3775 297.525 93.3159 297.25 93.1928 297.009C93.0721 296.767 92.8993 296.577 92.6743 296.437C92.4518 296.297 92.189 296.227 91.886 296.227C91.5522 296.227 91.2634 296.31 91.0195 296.476C90.778 296.639 90.5922 296.852 90.462 297.115C90.3318 297.378 90.2667 297.66 90.2667 297.96V298.443C90.2667 298.855 90.3377 299.204 90.4797 299.491C90.6242 299.775 90.8242 299.992 91.0799 300.141C91.3356 300.288 91.6327 300.361 91.9712 300.361C92.1914 300.361 92.3903 300.33 92.5678 300.269C92.7477 300.205 92.9028 300.11 93.033 299.984C93.1632 299.857 93.2638 299.698 93.3349 299.509L94.1445 299.736C94.0593 300.011 93.9161 300.252 93.7148 300.46C93.5136 300.666 93.265 300.827 92.9691 300.943C92.6732 301.057 92.3405 301.114 91.9712 301.114ZM96.3427 297.719V301H95.5046V295.546H96.3143V296.398H96.3853C96.5131 296.121 96.7073 295.898 96.9677 295.73C97.2281 295.56 97.5643 295.475 97.9762 295.475C98.3455 295.475 98.6687 295.55 98.9457 295.702C99.2226 295.851 99.4381 296.078 99.592 296.384C99.7458 296.687 99.8228 297.07 99.8228 297.534V301H98.9847V297.591C98.9847 297.163 98.8734 296.829 98.6509 296.59C98.4284 296.348 98.123 296.227 97.7347 296.227C97.4672 296.227 97.2281 296.285 97.0174 296.401C96.8091 296.517 96.6445 296.687 96.5238 296.909C96.403 297.132 96.3427 297.402 96.3427 297.719ZM103.726 295.546V296.256H100.9V295.546H103.726ZM101.724 294.239H102.562V299.438C102.562 299.674 102.596 299.852 102.665 299.97C102.736 300.086 102.826 300.164 102.934 300.205C103.046 300.243 103.163 300.261 103.286 300.261C103.378 300.261 103.454 300.257 103.513 300.247C103.572 300.235 103.62 300.226 103.655 300.219L103.826 300.972C103.769 300.993 103.69 301.014 103.588 301.036C103.486 301.059 103.357 301.071 103.201 301.071C102.964 301.071 102.732 301.02 102.505 300.918C102.28 300.817 102.093 300.662 101.944 300.453C101.797 300.245 101.724 299.982 101.724 299.665V294.239ZM107.215 301.114C106.69 301.114 106.236 300.998 105.855 300.766C105.476 300.531 105.184 300.205 104.978 299.786C104.775 299.364 104.673 298.874 104.673 298.315C104.673 297.757 104.775 297.264 104.978 296.838C105.184 296.41 105.471 296.076 105.838 295.837C106.207 295.595 106.638 295.475 107.13 295.475C107.414 295.475 107.695 295.522 107.972 295.617C108.249 295.711 108.501 295.865 108.728 296.078C108.955 296.289 109.137 296.568 109.271 296.916C109.406 297.264 109.474 297.693 109.474 298.202V298.557H105.269V297.833H108.622C108.622 297.525 108.56 297.25 108.437 297.009C108.316 296.767 108.143 296.577 107.918 296.437C107.696 296.297 107.433 296.227 107.13 296.227C106.796 296.227 106.508 296.31 106.264 296.476C106.022 296.639 105.836 296.852 105.706 297.115C105.576 297.378 105.511 297.66 105.511 297.96V298.443C105.511 298.855 105.582 299.204 105.724 299.491C105.868 299.775 106.068 299.992 106.324 300.141C106.58 300.288 106.877 300.361 107.215 300.361C107.436 300.361 107.634 300.33 107.812 300.269C107.992 300.205 108.147 300.11 108.277 299.984C108.407 299.857 108.508 299.698 108.579 299.509L109.389 299.736C109.303 300.011 109.16 300.252 108.959 300.46C108.758 300.666 108.509 300.827 108.213 300.943C107.917 301.057 107.585 301.114 107.215 301.114Z" fill="white"/>
<path d="M17.4053 289.107C16.8466 289.107 16.366 288.988 15.9636 288.752C15.5635 288.512 15.2557 288.181 15.0403 287.757C14.8272 287.333 14.7207 286.846 14.7207 286.294C14.7207 285.735 14.8284 285.245 15.0438 284.824C15.2616 284.4 15.5706 284.07 15.9707 283.833C16.3708 283.594 16.8466 283.475 17.3982 283.475C17.8741 283.475 18.2908 283.561 18.6482 283.734C19.0057 283.907 19.2886 284.149 19.497 284.462C19.7053 284.774 19.8201 285.141 19.8414 285.563H18.4139C18.3736 285.29 18.2671 285.071 18.0943 284.906C17.9238 284.738 17.7001 284.654 17.4231 284.654C17.1887 284.654 16.9839 284.717 16.8087 284.845C16.6359 284.971 16.501 285.154 16.4039 285.396C16.3069 285.637 16.2583 285.93 16.2583 286.273C16.2583 286.621 16.3057 286.917 16.4004 287.161C16.4974 287.404 16.6336 287.59 16.8087 287.718C16.9839 287.846 17.1887 287.91 17.4231 287.91C17.5959 287.91 17.751 287.874 17.8883 287.803C18.028 287.732 18.1428 287.629 18.2328 287.494C18.3251 287.357 18.3855 287.193 18.4139 287.001H19.8414C19.8177 287.417 19.7041 287.784 19.5005 288.102C19.2993 288.417 19.0211 288.663 18.666 288.84C18.3109 289.018 17.8907 289.107 17.4053 289.107ZM22.3654 289.103C22.0174 289.103 21.7072 289.043 21.435 288.922C21.1627 288.799 20.9473 288.618 20.7887 288.379C20.6324 288.137 20.5543 287.837 20.5543 287.477C20.5543 287.174 20.6099 286.919 20.7212 286.713C20.8325 286.507 20.984 286.342 21.1758 286.216C21.3675 286.091 21.5853 285.996 21.8292 285.932C22.0754 285.868 22.3334 285.823 22.6033 285.797C22.9206 285.764 23.1762 285.733 23.3704 285.705C23.5645 285.674 23.7054 285.629 23.7929 285.57C23.8805 285.511 23.9243 285.423 23.9243 285.307V285.286C23.9243 285.061 23.8533 284.887 23.7113 284.764C23.5716 284.641 23.3727 284.579 23.1147 284.579C22.8424 284.579 22.6258 284.639 22.4648 284.76C22.3038 284.878 22.1973 285.028 22.1452 285.208L20.7461 285.094C20.8171 284.762 20.9568 284.476 21.1651 284.234C21.3734 283.991 21.6421 283.804 21.9712 283.673C22.3027 283.541 22.6862 283.475 23.1218 283.475C23.4248 283.475 23.7148 283.51 23.9918 283.581C24.2712 283.652 24.5186 283.762 24.734 283.911C24.9518 284.06 25.1234 284.252 25.2489 284.487C25.3744 284.719 25.4371 284.997 25.4371 285.321V289H24.0025V288.244H23.9599C23.8723 288.414 23.7551 288.565 23.6083 288.695C23.4615 288.823 23.2851 288.923 23.0792 288.997C22.8732 289.068 22.6353 289.103 22.3654 289.103ZM22.7986 288.059C23.0212 288.059 23.2177 288.015 23.3881 287.928C23.5586 287.838 23.6923 287.717 23.7894 287.565C23.8865 287.414 23.935 287.242 23.935 287.051V286.472C23.8876 286.502 23.8225 286.531 23.7397 286.557C23.6592 286.581 23.568 286.603 23.4662 286.624C23.3644 286.643 23.2626 286.661 23.1608 286.678C23.059 286.692 22.9667 286.705 22.8839 286.717C22.7063 286.743 22.5512 286.784 22.4187 286.841C22.2861 286.898 22.1831 286.975 22.1097 287.072C22.0363 287.167 21.9996 287.285 21.9996 287.427C21.9996 287.633 22.0742 287.79 22.2233 287.899C22.3749 288.006 22.5666 288.059 22.7986 288.059ZM28.1236 281.727V289H26.6108V281.727H28.1236ZM31.7999 289.107C31.2412 289.107 30.7606 288.988 30.3581 288.752C29.958 288.512 29.6503 288.181 29.4348 287.757C29.2217 287.333 29.1152 286.846 29.1152 286.294C29.1152 285.735 29.2229 285.245 29.4384 284.824C29.6562 284.4 29.9651 284.07 30.3652 283.833C30.7653 283.594 31.2412 283.475 31.7928 283.475C32.2686 283.475 32.6853 283.561 33.0428 283.734C33.4003 283.907 33.6832 284.149 33.8915 284.462C34.0998 284.774 34.2146 285.141 34.236 285.563H32.8084C32.7681 285.29 32.6616 285.071 32.4888 284.906C32.3183 284.738 32.0946 284.654 31.8176 284.654C31.5833 284.654 31.3785 284.717 31.2033 284.845C31.0305 284.971 30.8955 285.154 30.7985 285.396C30.7014 285.637 30.6529 285.93 30.6529 286.273C30.6529 286.621 30.7002 286.917 30.7949 287.161C30.892 287.404 31.0281 287.59 31.2033 287.718C31.3785 287.846 31.5833 287.91 31.8176 287.91C31.9905 287.91 32.1455 287.874 32.2828 287.803C32.4225 287.732 32.5373 287.629 32.6273 287.494C32.7196 287.357 32.78 287.193 32.8084 287.001H34.236C34.2123 287.417 34.0986 287.784 33.895 288.102C33.6938 288.417 33.4156 288.663 33.0605 288.84C32.7054 289.018 32.2852 289.107 31.7999 289.107ZM38.7024 286.678V283.546H40.2152V289H38.7628V288.009H38.7059C38.5828 288.329 38.3781 288.586 38.0916 288.78C37.8075 288.974 37.4607 289.071 37.0511 289.071C36.6865 289.071 36.3657 288.988 36.0888 288.823C35.8118 288.657 35.5952 288.421 35.4389 288.116C35.285 287.81 35.2069 287.445 35.2045 287.019V283.546H36.7173V286.749C36.7197 287.071 36.8061 287.325 36.9765 287.512C37.147 287.699 37.3755 287.793 37.6619 287.793C37.8442 287.793 38.0147 287.751 38.1733 287.668C38.3319 287.583 38.4597 287.458 38.5568 287.292C38.6562 287.126 38.7048 286.922 38.7024 286.678ZM42.938 281.727V289H41.4252V281.727H42.938ZM45.7052 289.103C45.3572 289.103 45.0471 289.043 44.7748 288.922C44.5026 288.799 44.2871 288.618 44.1285 288.379C43.9723 288.137 43.8942 287.837 43.8942 287.477C43.8942 287.174 43.9498 286.919 44.0611 286.713C44.1723 286.507 44.3238 286.342 44.5156 286.216C44.7074 286.091 44.9252 285.996 45.169 285.932C45.4152 285.868 45.6733 285.823 45.9432 285.797C46.2604 285.764 46.5161 285.733 46.7102 285.705C46.9043 285.674 47.0452 285.629 47.1328 285.57C47.2204 285.511 47.2642 285.423 47.2642 285.307V285.286C47.2642 285.061 47.1932 284.887 47.0511 284.764C46.9114 284.641 46.7126 284.579 46.4545 284.579C46.1823 284.579 45.9657 284.639 45.8047 284.76C45.6437 284.878 45.5371 285.028 45.4851 285.208L44.0859 285.094C44.1569 284.762 44.2966 284.476 44.505 284.234C44.7133 283.991 44.982 283.804 45.3111 283.673C45.6425 283.541 46.026 283.475 46.4616 283.475C46.7647 283.475 47.0547 283.51 47.3317 283.581C47.611 283.652 47.8584 283.762 48.0738 283.911C48.2916 284.06 48.4633 284.252 48.5888 284.487C48.7142 284.719 48.777 284.997 48.777 285.321V289H47.3423V288.244H47.2997C47.2121 288.414 47.0949 288.565 46.9481 288.695C46.8014 288.823 46.625 288.923 46.419 288.997C46.213 289.068 45.9751 289.103 45.7052 289.103ZM46.1385 288.059C46.361 288.059 46.5575 288.015 46.728 287.928C46.8984 287.838 47.0322 287.717 47.1292 287.565C47.2263 287.414 47.2748 287.242 47.2748 287.051V286.472C47.2275 286.502 47.1624 286.531 47.0795 286.557C46.999 286.581 46.9079 286.603 46.8061 286.624C46.7043 286.643 46.6025 286.661 46.5007 286.678C46.3989 286.692 46.3066 286.705 46.2237 286.717C46.0461 286.743 45.8911 286.784 45.7585 286.841C45.6259 286.898 45.5229 286.975 45.4496 287.072C45.3762 287.167 45.3395 287.285 45.3395 287.427C45.3395 287.633 45.414 287.79 45.5632 287.899C45.7147 288.006 45.9065 288.059 46.1385 288.059ZM49.9506 289V283.546H51.4172V284.497H51.4741C51.5735 284.159 51.7404 283.903 51.9748 283.73C52.2091 283.555 52.479 283.467 52.7844 283.467C52.8602 283.467 52.9419 283.472 53.0295 283.482C53.1171 283.491 53.194 283.504 53.2603 283.521V284.863C53.1893 284.842 53.091 284.823 52.9655 284.806C52.8401 284.79 52.7252 284.781 52.6211 284.781C52.3985 284.781 52.1997 284.83 52.0245 284.927C51.8517 285.022 51.7144 285.154 51.6126 285.325C51.5131 285.495 51.4634 285.692 51.4634 285.914V289H49.9506ZM72.4595 281.727V289H70.9467V281.727H72.4595ZM73.6713 289V283.546H75.1841V289H73.6713ZM74.4313 282.842C74.2064 282.842 74.0134 282.768 73.8524 282.619C73.6938 282.467 73.6145 282.286 73.6145 282.075C73.6145 281.867 73.6938 281.688 73.8524 281.539C74.0134 281.388 74.2064 281.312 74.4313 281.312C74.6562 281.312 74.8479 281.388 75.0066 281.539C75.1675 281.688 75.248 281.867 75.248 282.075C75.248 282.286 75.1675 282.467 75.0066 282.619C74.8479 282.768 74.6562 282.842 74.4313 282.842ZM76.3959 289V283.546H77.8377V284.508H77.9016C78.0153 284.188 78.2046 283.936 78.4698 283.752C78.7349 283.567 79.0522 283.475 79.4215 283.475C79.7956 283.475 80.114 283.568 80.3768 283.755C80.6395 283.94 80.8147 284.191 80.9023 284.508H80.9591C81.0704 284.195 81.2716 283.946 81.5628 283.759C81.8564 283.569 82.2032 283.475 82.6033 283.475C83.1123 283.475 83.5254 283.637 83.8427 283.961C84.1623 284.283 84.3221 284.74 84.3221 285.332V289H82.8128V285.63C82.8128 285.327 82.7323 285.1 82.5714 284.948C82.4104 284.797 82.2091 284.721 81.9677 284.721C81.693 284.721 81.4788 284.809 81.3249 284.984C81.171 285.157 81.0941 285.385 81.0941 285.669V289H79.6275V285.598C79.6275 285.331 79.5505 285.118 79.3966 284.959C79.2451 284.8 79.0451 284.721 78.7965 284.721C78.6284 284.721 78.4769 284.764 78.342 284.849C78.2094 284.932 78.104 285.049 78.0259 285.2C77.9478 285.35 77.9087 285.525 77.9087 285.726V289H76.3959ZM85.517 291.046V283.546H87.0085V284.462H87.076C87.1423 284.315 87.2381 284.166 87.3636 284.014C87.4915 283.86 87.6572 283.733 87.8608 283.631C88.0667 283.527 88.3224 283.475 88.6278 283.475C89.0256 283.475 89.3925 283.579 89.7287 283.787C90.0649 283.993 90.3336 284.304 90.5348 284.721C90.736 285.135 90.8366 285.655 90.8366 286.28C90.8366 286.888 90.7384 287.402 90.5419 287.821C90.3478 288.238 90.0826 288.554 89.7464 288.769C89.4126 288.982 89.0386 289.089 88.6243 289.089C88.3307 289.089 88.081 289.04 87.875 288.943C87.6714 288.846 87.5045 288.724 87.3743 288.578C87.2441 288.428 87.1446 288.278 87.076 288.127H87.0298V291.046H85.517ZM86.9979 286.273C86.9979 286.597 87.0428 286.88 87.1328 287.122C87.2228 287.363 87.353 287.551 87.5234 287.686C87.6939 287.819 87.901 287.885 88.1449 287.885C88.3911 287.885 88.5994 287.818 88.7699 287.683C88.9403 287.545 89.0694 287.356 89.1569 287.114C89.2469 286.871 89.2919 286.59 89.2919 286.273C89.2919 285.958 89.2481 285.681 89.1605 285.442C89.0729 285.203 88.9439 285.016 88.7734 284.881C88.603 284.746 88.3935 284.678 88.1449 284.678C87.8987 284.678 87.6903 284.743 87.5199 284.874C87.3518 285.004 87.2228 285.189 87.1328 285.428C87.0428 285.667 86.9979 285.949 86.9979 286.273ZM93.4006 289.103C93.0525 289.103 92.7424 289.043 92.4702 288.922C92.1979 288.799 91.9825 288.618 91.8238 288.379C91.6676 288.137 91.5895 287.837 91.5895 287.477C91.5895 287.174 91.6451 286.919 91.7564 286.713C91.8676 286.507 92.0192 286.342 92.2109 286.216C92.4027 286.091 92.6205 285.996 92.8643 285.932C93.1105 285.868 93.3686 285.823 93.6385 285.797C93.9557 285.764 94.2114 285.733 94.4055 285.705C94.5997 285.674 94.7405 285.629 94.8281 285.57C94.9157 285.511 94.9595 285.423 94.9595 285.307V285.286C94.9595 285.061 94.8885 284.887 94.7464 284.764C94.6068 284.641 94.4079 284.579 94.1498 284.579C93.8776 284.579 93.661 284.639 93.5 284.76C93.339 284.878 93.2325 285.028 93.1804 285.208L91.7812 285.094C91.8523 284.762 91.9919 284.476 92.2003 284.234C92.4086 283.991 92.6773 283.804 93.0064 283.673C93.3378 283.541 93.7213 283.475 94.1569 283.475C94.46 283.475 94.75 283.51 95.027 283.581C95.3063 283.652 95.5537 283.762 95.7692 283.911C95.987 284.06 96.1586 284.252 96.2841 284.487C96.4096 284.719 96.4723 284.997 96.4723 285.321V289H95.0376V288.244H94.995C94.9074 288.414 94.7902 288.565 94.6435 288.695C94.4967 288.823 94.3203 288.923 94.1143 288.997C93.9084 289.068 93.6704 289.103 93.4006 289.103ZM93.8338 288.059C94.0563 288.059 94.2528 288.015 94.4233 287.928C94.5937 287.838 94.7275 287.717 94.8246 287.565C94.9216 287.414 94.9702 287.242 94.9702 287.051V286.472C94.9228 286.502 94.8577 286.531 94.7748 286.557C94.6944 286.581 94.6032 286.603 94.5014 286.624C94.3996 286.643 94.2978 286.661 94.196 286.678C94.0942 286.692 94.0019 286.705 93.919 286.717C93.7415 286.743 93.5864 286.784 93.4538 286.841C93.3212 286.898 93.2183 286.975 93.1449 287.072C93.0715 287.167 93.0348 287.285 93.0348 287.427C93.0348 287.633 93.1094 287.79 93.2585 287.899C93.41 288.006 93.6018 288.059 93.8338 288.059ZM97.6459 289V283.546H99.1126V284.497H99.1694C99.2688 284.159 99.4357 283.903 99.6701 283.73C99.9045 283.555 100.174 283.467 100.48 283.467C100.556 283.467 100.637 283.472 100.725 283.482C100.812 283.491 100.889 283.504 100.956 283.521V284.863C100.885 284.842 100.786 284.823 100.661 284.806C100.535 284.79 100.421 284.781 100.316 284.781C100.094 284.781 99.895 284.83 99.7198 284.927C99.547 285.022 99.4097 285.154 99.3079 285.325C99.2084 285.495 99.1587 285.692 99.1587 285.914V289H97.6459Z" fill="#04D47C"/>
<path d="M111.405 98.1164L111.342 97.369L111.342 97.369L111.405 98.1164ZM155.073 94.9841C155.34 94.6678 155.3 94.1945 154.984 93.9272L149.829 89.57C149.512 89.3027 149.039 89.3424 148.772 89.6587C148.504 89.9751 148.544 90.4483 148.86 90.7157L153.443 94.5887L149.57 99.1712C149.303 99.4876 149.342 99.9608 149.659 100.228C149.975 100.496 150.448 100.456 150.716 100.139L155.073 94.9841ZM111.467 98.8638L154.563 95.2474L154.437 93.7526L111.342 97.369L111.467 98.8638ZM35.463 255.587C-6.93485 191.434 34.8393 105.294 111.467 98.8638L111.342 97.369C33.5787 103.895 -8.81436 191.31 34.2116 256.414L35.463 255.587Z" fill="white"/>
</svg>
