<svg width="122" height="334" viewBox="0 0 122 334" fill="none" xmlns="http://www.w3.org/2000/svg">
<g filter="url(#filter0_d_161_6932)">
<path d="M54.7538 80.7468L56.188 81.1862L56.188 81.1862L54.7538 80.7468ZM75.9768 318.623L77.3106 317.937L77.3106 317.937L75.9768 318.623ZM78.5428 325.928C79.3317 326.181 80.1763 325.747 80.4291 324.958L84.5499 312.102C84.8028 311.313 84.3683 310.469 83.5794 310.216C82.7905 309.963 81.946 310.398 81.6931 311.186L78.0302 322.614L66.6029 318.951C65.814 318.698 64.9695 319.132 64.7166 319.921C64.4637 320.71 64.8983 321.555 65.6872 321.808L78.5428 325.928ZM66.5665 37.0607L53.3195 80.3075L56.188 81.1862L69.435 37.9393L66.5665 37.0607ZM74.643 319.309L77.6669 325.186L80.3345 323.814L77.3106 317.937L74.643 319.309ZM53.3195 80.3075C28.9983 159.708 36.6496 245.468 74.643 319.309L77.3106 317.937C39.6751 244.791 32.0958 159.839 56.188 81.1862L53.3195 80.3075Z" fill="white"/>
</g>
<path d="M44.8687 9.14H41.2207L40.5487 11H39.3967L42.4207 2.684H43.6807L46.6927 11H45.5407L44.8687 9.14ZM44.5567 8.252L43.0447 4.028L41.5327 8.252H44.5567ZM47.6027 7.688C47.6027 7.016 47.7387 6.428 48.0107 5.924C48.2827 5.412 48.6547 5.016 49.1267 4.736C49.6067 4.456 50.1427 4.316 50.7347 4.316C51.3027 4.316 51.7987 4.444 52.2227 4.7C52.6547 4.948 52.9707 5.256 53.1707 5.624V4.424H54.2747V14.12H53.1707V9.788C52.9627 10.156 52.6427 10.468 52.2107 10.724C51.7787 10.98 51.2747 11.108 50.6987 11.108C50.1227 11.108 49.5987 10.964 49.1267 10.676C48.6547 10.388 48.2827 9.984 48.0107 9.464C47.7387 8.944 47.6027 8.352 47.6027 7.688ZM53.1707 7.7C53.1707 7.204 53.0707 6.772 52.8707 6.404C52.6707 6.036 52.3987 5.756 52.0547 5.564C51.7187 5.364 51.3467 5.264 50.9387 5.264C50.5307 5.264 50.1587 5.36 49.8227 5.552C49.4867 5.744 49.2187 6.024 49.0187 6.392C48.8187 6.76 48.7187 7.192 48.7187 7.688C48.7187 8.192 48.8187 8.632 49.0187 9.008C49.2187 9.376 49.4867 9.66 49.8227 9.86C50.1587 10.052 50.5307 10.148 50.9387 10.148C51.3467 10.148 51.7187 10.052 52.0547 9.86C52.3987 9.66 52.6707 9.376 52.8707 9.008C53.0707 8.632 53.1707 8.196 53.1707 7.7ZM61.952 4.424V11H60.86V10.028C60.652 10.364 60.36 10.628 59.984 10.82C59.616 11.004 59.208 11.096 58.76 11.096C58.248 11.096 57.788 10.992 57.38 10.784C56.972 10.568 56.648 10.248 56.408 9.824C56.176 9.4 56.06 8.884 56.06 8.276V4.424H57.14V8.132C57.14 8.78 57.304 9.28 57.632 9.632C57.96 9.976 58.408 10.148 58.976 10.148C59.56 10.148 60.02 9.968 60.356 9.608C60.692 9.248 60.86 8.724 60.86 8.036V4.424H61.952ZM64.3598 3.356C64.1518 3.356 63.9758 3.284 63.8318 3.14C63.6878 2.996 63.6158 2.82 63.6158 2.612C63.6158 2.404 63.6878 2.228 63.8318 2.084C63.9758 1.94 64.1518 1.868 64.3598 1.868C64.5598 1.868 64.7278 1.94 64.8638 2.084C65.0078 2.228 65.0798 2.404 65.0798 2.612C65.0798 2.82 65.0078 2.996 64.8638 3.14C64.7278 3.284 64.5598 3.356 64.3598 3.356ZM64.8878 4.424V11H63.7958V4.424H64.8878ZM75.9482 7.46C75.9482 7.668 75.9362 7.888 75.9122 8.12H70.6562C70.6962 8.768 70.9162 9.276 71.3162 9.644C71.7242 10.004 72.2162 10.184 72.7922 10.184C73.2642 10.184 73.6562 10.076 73.9682 9.86C74.2882 9.636 74.5122 9.34 74.6402 8.972H75.8162C75.6402 9.604 75.2882 10.12 74.7602 10.52C74.2322 10.912 73.5762 11.108 72.7922 11.108C72.1682 11.108 71.6082 10.968 71.1122 10.688C70.6242 10.408 70.2402 10.012 69.9602 9.5C69.6802 8.98 69.5402 8.38 69.5402 7.7C69.5402 7.02 69.6762 6.424 69.9482 5.912C70.2202 5.4 70.6002 5.008 71.0882 4.736C71.5842 4.456 72.1522 4.316 72.7922 4.316C73.4162 4.316 73.9682 4.452 74.4482 4.724C74.9282 4.996 75.2962 5.372 75.5522 5.852C75.8162 6.324 75.9482 6.86 75.9482 7.46ZM74.8202 7.232C74.8202 6.816 74.7282 6.46 74.5442 6.164C74.3602 5.86 74.1082 5.632 73.7882 5.48C73.4762 5.32 73.1282 5.24 72.7442 5.24C72.1922 5.24 71.7202 5.416 71.3282 5.768C70.9442 6.12 70.7242 6.608 70.6682 7.232H74.8202ZM79.7176 11.108C79.2136 11.108 78.7616 11.024 78.3616 10.856C77.9616 10.68 77.6456 10.44 77.4136 10.136C77.1816 9.824 77.0536 9.468 77.0296 9.068H78.1576C78.1896 9.396 78.3416 9.664 78.6136 9.872C78.8936 10.08 79.2576 10.184 79.7056 10.184C80.1216 10.184 80.4496 10.092 80.6896 9.908C80.9296 9.724 81.0496 9.492 81.0496 9.212C81.0496 8.924 80.9216 8.712 80.6656 8.576C80.4096 8.432 80.0136 8.292 79.4776 8.156C78.9896 8.028 78.5896 7.9 78.2776 7.772C77.9736 7.636 77.7096 7.44 77.4856 7.184C77.2696 6.92 77.1616 6.576 77.1616 6.152C77.1616 5.816 77.2616 5.508 77.4616 5.228C77.6616 4.948 77.9456 4.728 78.3136 4.568C78.6816 4.4 79.1016 4.316 79.5736 4.316C80.3016 4.316 80.8896 4.5 81.3376 4.868C81.7856 5.236 82.0256 5.74 82.0576 6.38H80.9656C80.9416 6.036 80.8016 5.76 80.5456 5.552C80.2976 5.344 79.9616 5.24 79.5376 5.24C79.1456 5.24 78.8336 5.324 78.6016 5.492C78.3696 5.66 78.2536 5.88 78.2536 6.152C78.2536 6.368 78.3216 6.548 78.4576 6.692C78.6016 6.828 78.7776 6.94 78.9856 7.028C79.2016 7.108 79.4976 7.2 79.8736 7.304C80.3456 7.432 80.7296 7.56 81.0256 7.688C81.3216 7.808 81.5736 7.992 81.7816 8.24C81.9976 8.488 82.1096 8.812 82.1176 9.212C82.1176 9.572 82.0176 9.896 81.8176 10.184C81.6176 10.472 81.3336 10.7 80.9656 10.868C80.6056 11.028 80.1896 11.108 79.7176 11.108ZM84.9911 5.324V9.2C84.9911 9.52 85.0591 9.748 85.1951 9.884C85.3311 10.012 85.5671 10.076 85.9031 10.076H86.7071V11H85.7231C85.1151 11 84.6591 10.86 84.3551 10.58C84.0511 10.3 83.8991 9.84 83.8991 9.2V5.324H83.0471V4.424H83.8991V2.768H84.9911V4.424H86.7071V5.324H84.9911ZM87.6222 7.688C87.6222 7.016 87.7582 6.428 88.0302 5.924C88.3022 5.412 88.6742 5.016 89.1462 4.736C89.6262 4.456 90.1582 4.316 90.7422 4.316C91.3182 4.316 91.8182 4.44 92.2422 4.688C92.6662 4.936 92.9822 5.248 93.1902 5.624V4.424H94.2942V11H93.1902V9.776C92.9742 10.16 92.6502 10.48 92.2182 10.736C91.7942 10.984 91.2982 11.108 90.7302 11.108C90.1462 11.108 89.6182 10.964 89.1462 10.676C88.6742 10.388 88.3022 9.984 88.0302 9.464C87.7582 8.944 87.6222 8.352 87.6222 7.688ZM93.1902 7.7C93.1902 7.204 93.0902 6.772 92.8902 6.404C92.6902 6.036 92.4182 5.756 92.0742 5.564C91.7382 5.364 91.3662 5.264 90.9582 5.264C90.5502 5.264 90.1782 5.36 89.8422 5.552C89.5062 5.744 89.2382 6.024 89.0382 6.392C88.8382 6.76 88.7382 7.192 88.7382 7.688C88.7382 8.192 88.8382 8.632 89.0382 9.008C89.2382 9.376 89.5062 9.66 89.8422 9.86C90.1782 10.052 90.5502 10.148 90.9582 10.148C91.3662 10.148 91.7382 10.052 92.0742 9.86C92.4182 9.66 92.6902 9.376 92.8902 9.008C93.0902 8.632 93.1902 8.196 93.1902 7.7ZM92.3382 2.564L89.7822 3.932V3.116L92.3382 1.616V2.564ZM42.2527 25.108C41.7487 25.108 41.2967 25.024 40.8967 24.856C40.4967 24.68 40.1807 24.44 39.9487 24.136C39.7167 23.824 39.5887 23.468 39.5647 23.068H40.6927C40.7247 23.396 40.8767 23.664 41.1487 23.872C41.4287 24.08 41.7927 24.184 42.2407 24.184C42.6567 24.184 42.9847 24.092 43.2247 23.908C43.4647 23.724 43.5847 23.492 43.5847 23.212C43.5847 22.924 43.4567 22.712 43.2007 22.576C42.9447 22.432 42.5487 22.292 42.0127 22.156C41.5247 22.028 41.1247 21.9 40.8127 21.772C40.5087 21.636 40.2447 21.44 40.0207 21.184C39.8047 20.92 39.6967 20.576 39.6967 20.152C39.6967 19.816 39.7967 19.508 39.9967 19.228C40.1967 18.948 40.4807 18.728 40.8487 18.568C41.2167 18.4 41.6367 18.316 42.1087 18.316C42.8367 18.316 43.4247 18.5 43.8727 18.868C44.3207 19.236 44.5607 19.74 44.5927 20.38H43.5007C43.4767 20.036 43.3367 19.76 43.0807 19.552C42.8327 19.344 42.4967 19.24 42.0727 19.24C41.6807 19.24 41.3687 19.324 41.1367 19.492C40.9047 19.66 40.7887 19.88 40.7887 20.152C40.7887 20.368 40.8567 20.548 40.9927 20.692C41.1367 20.828 41.3127 20.94 41.5207 21.028C41.7367 21.108 42.0327 21.2 42.4087 21.304C42.8807 21.432 43.2647 21.56 43.5607 21.688C43.8567 21.808 44.1087 21.992 44.3167 22.24C44.5327 22.488 44.6447 22.812 44.6527 23.212C44.6527 23.572 44.5527 23.896 44.3527 24.184C44.1527 24.472 43.8687 24.7 43.5007 24.868C43.1407 25.028 42.7247 25.108 42.2527 25.108ZM52.0263 18.424V25H50.9343V24.028C50.7263 24.364 50.4343 24.628 50.0583 24.82C49.6903 25.004 49.2823 25.096 48.8343 25.096C48.3223 25.096 47.8623 24.992 47.4543 24.784C47.0463 24.568 46.7223 24.248 46.4823 23.824C46.2503 23.4 46.1343 22.884 46.1343 22.276V18.424H47.2143V22.132C47.2143 22.78 47.3783 23.28 47.7063 23.632C48.0343 23.976 48.4823 24.148 49.0503 24.148C49.6343 24.148 50.0943 23.968 50.4303 23.608C50.7663 23.248 50.9343 22.724 50.9343 22.036V18.424H52.0263ZM53.462 21.688C53.462 21.016 53.598 20.428 53.87 19.924C54.142 19.412 54.514 19.016 54.986 18.736C55.466 18.456 55.998 18.316 56.582 18.316C57.158 18.316 57.658 18.44 58.082 18.688C58.506 18.936 58.822 19.248 59.03 19.624V18.424H60.134V25H59.03V23.776C58.814 24.16 58.49 24.48 58.058 24.736C57.634 24.984 57.138 25.108 56.57 25.108C55.986 25.108 55.458 24.964 54.986 24.676C54.514 24.388 54.142 23.984 53.87 23.464C53.598 22.944 53.462 22.352 53.462 21.688ZM59.03 21.7C59.03 21.204 58.93 20.772 58.73 20.404C58.53 20.036 58.258 19.756 57.914 19.564C57.578 19.364 57.206 19.264 56.798 19.264C56.39 19.264 56.018 19.36 55.682 19.552C55.346 19.744 55.078 20.024 54.878 20.392C54.678 20.76 54.578 21.192 54.578 21.688C54.578 22.192 54.678 22.632 54.878 23.008C55.078 23.376 55.346 23.66 55.682 23.86C56.018 24.052 56.39 24.148 56.798 24.148C57.206 24.148 57.578 24.052 57.914 23.86C58.258 23.66 58.53 23.376 58.73 23.008C58.93 22.632 59.03 22.196 59.03 21.7ZM64.5906 21.64C64.5906 20.952 64.7186 20.348 64.9746 19.828C65.2386 19.308 65.5946 18.908 66.0426 18.628C66.4906 18.348 66.9906 18.208 67.5426 18.208C68.0146 18.208 68.4266 18.304 68.7786 18.496C69.1386 18.688 69.4146 18.94 69.6066 19.252V18.304H71.6586V25H69.6066V24.052C69.4066 24.364 69.1266 24.616 68.7666 24.808C68.4146 25 68.0026 25.096 67.5306 25.096C66.9866 25.096 66.4906 24.956 66.0426 24.676C65.5946 24.388 65.2386 23.984 64.9746 23.464C64.7186 22.936 64.5906 22.328 64.5906 21.64ZM69.6066 21.652C69.6066 21.14 69.4626 20.736 69.1746 20.44C68.8946 20.144 68.5506 19.996 68.1426 19.996C67.7346 19.996 67.3866 20.144 67.0986 20.44C66.8186 20.728 66.6786 21.128 66.6786 21.64C66.6786 22.152 66.8186 22.56 67.0986 22.864C67.3866 23.16 67.7346 23.308 68.1426 23.308C68.5506 23.308 68.8946 23.16 69.1746 22.864C69.4626 22.568 69.6066 22.164 69.6066 21.652ZM75.1952 19.252C75.3952 18.94 75.6712 18.688 76.0232 18.496C76.3752 18.304 76.7872 18.208 77.2592 18.208C77.8112 18.208 78.3112 18.348 78.7592 18.628C79.2072 18.908 79.5592 19.308 79.8152 19.828C80.0792 20.348 80.2112 20.952 80.2112 21.64C80.2112 22.328 80.0792 22.936 79.8152 23.464C79.5592 23.984 79.2072 24.388 78.7592 24.676C78.3112 24.956 77.8112 25.096 77.2592 25.096C76.7952 25.096 76.3832 25 76.0232 24.808C75.6712 24.616 75.3952 24.368 75.1952 24.064V28.192H73.1432V18.304H75.1952V19.252ZM78.1232 21.64C78.1232 21.128 77.9792 20.728 77.6912 20.44C77.4112 20.144 77.0632 19.996 76.6472 19.996C76.2392 19.996 75.8912 20.144 75.6032 20.44C75.3232 20.736 75.1832 21.14 75.1832 21.652C75.1832 22.164 75.3232 22.568 75.6032 22.864C75.8912 23.16 76.2392 23.308 76.6472 23.308C77.0552 23.308 77.4032 23.16 77.6912 22.864C77.9792 22.56 78.1232 22.152 78.1232 21.64ZM84.3357 25.096C83.6797 25.096 83.0877 24.956 82.5597 24.676C82.0397 24.396 81.6277 23.996 81.3237 23.476C81.0277 22.956 80.8797 22.348 80.8797 21.652C80.8797 20.964 81.0317 20.36 81.3357 19.84C81.6397 19.312 82.0557 18.908 82.5837 18.628C83.1117 18.348 83.7037 18.208 84.3597 18.208C85.0157 18.208 85.6077 18.348 86.1357 18.628C86.6637 18.908 87.0797 19.312 87.3837 19.84C87.6877 20.36 87.8397 20.964 87.8397 21.652C87.8397 22.34 87.6837 22.948 87.3717 23.476C87.0677 23.996 86.6477 24.396 86.1117 24.676C85.5837 24.956 84.9917 25.096 84.3357 25.096ZM84.3357 23.32C84.7277 23.32 85.0597 23.176 85.3317 22.888C85.6117 22.6 85.7517 22.188 85.7517 21.652C85.7517 21.116 85.6157 20.704 85.3437 20.416C85.0797 20.128 84.7517 19.984 84.3597 19.984C83.9597 19.984 83.6277 20.128 83.3637 20.416C83.0997 20.696 82.9677 21.108 82.9677 21.652C82.9677 22.188 83.0957 22.6 83.3517 22.888C83.6157 23.176 83.9437 23.32 84.3357 23.32ZM91.6523 25.096C91.0683 25.096 90.5483 24.996 90.0923 24.796C89.6363 24.596 89.2763 24.324 89.0123 23.98C88.7483 23.628 88.6003 23.236 88.5683 22.804H90.5963C90.6203 23.036 90.7283 23.224 90.9203 23.368C91.1123 23.512 91.3483 23.584 91.6283 23.584C91.8843 23.584 92.0803 23.536 92.2163 23.44C92.3603 23.336 92.4323 23.204 92.4323 23.044C92.4323 22.852 92.3323 22.712 92.1323 22.624C91.9323 22.528 91.6083 22.424 91.1603 22.312C90.6803 22.2 90.2803 22.084 89.9603 21.964C89.6403 21.836 89.3643 21.64 89.1323 21.376C88.9003 21.104 88.7843 20.74 88.7843 20.284C88.7843 19.9 88.8883 19.552 89.0963 19.24C89.3123 18.92 89.6243 18.668 90.0323 18.484C90.4483 18.3 90.9403 18.208 91.5083 18.208C92.3483 18.208 93.0083 18.416 93.4883 18.832C93.9763 19.248 94.2563 19.8 94.3283 20.488H92.4323C92.4003 20.256 92.2963 20.072 92.1203 19.936C91.9523 19.8 91.7283 19.732 91.4483 19.732C91.2083 19.732 91.0243 19.78 90.8963 19.876C90.7683 19.964 90.7043 20.088 90.7043 20.248C90.7043 20.44 90.8043 20.584 91.0043 20.68C91.2123 20.776 91.5323 20.872 91.9643 20.968C92.4603 21.096 92.8643 21.224 93.1763 21.352C93.4883 21.472 93.7603 21.672 93.9923 21.952C94.2323 22.224 94.3563 22.592 94.3643 23.056C94.3643 23.448 94.2523 23.8 94.0283 24.112C93.8123 24.416 93.4963 24.656 93.0803 24.832C92.6723 25.008 92.1963 25.096 91.6523 25.096ZM99.3517 23.26V25H98.3077C97.5637 25 96.9837 24.82 96.5677 24.46C96.1517 24.092 95.9437 23.496 95.9437 22.672V20.008H95.1277V18.304H95.9437V16.672H97.9957V18.304H99.3397V20.008H97.9957V22.696C97.9957 22.896 98.0437 23.04 98.1397 23.128C98.2357 23.216 98.3957 23.26 98.6197 23.26H99.3517ZM100.087 21.64C100.087 20.952 100.215 20.348 100.471 19.828C100.735 19.308 101.091 18.908 101.539 18.628C101.987 18.348 102.487 18.208 103.039 18.208C103.511 18.208 103.923 18.304 104.275 18.496C104.635 18.688 104.911 18.94 105.103 19.252V18.304H107.155V25H105.103V24.052C104.903 24.364 104.623 24.616 104.263 24.808C103.911 25 103.499 25.096 103.027 25.096C102.483 25.096 101.987 24.956 101.539 24.676C101.091 24.388 100.735 23.984 100.471 23.464C100.215 22.936 100.087 22.328 100.087 21.64ZM105.103 21.652C105.103 21.14 104.959 20.736 104.671 20.44C104.391 20.144 104.047 19.996 103.639 19.996C103.231 19.996 102.883 20.144 102.595 20.44C102.315 20.728 102.175 21.128 102.175 21.64C102.175 22.152 102.315 22.56 102.595 22.864C102.883 23.16 103.231 23.308 103.639 23.308C104.047 23.308 104.391 23.16 104.671 22.864C104.959 22.568 105.103 22.164 105.103 21.652ZM110.235 16.636L110.103 22.636H109.191L109.059 16.636H110.235ZM109.695 25.072C109.487 25.072 109.311 25 109.167 24.856C109.023 24.712 108.951 24.536 108.951 24.328C108.951 24.12 109.023 23.944 109.167 23.8C109.311 23.656 109.487 23.584 109.695 23.584C109.895 23.584 110.063 23.656 110.199 23.8C110.343 23.944 110.415 24.12 110.415 24.328C110.415 24.536 110.343 24.712 110.199 24.856C110.063 25 109.895 25.072 109.695 25.072Z" fill="white"/>
<defs>
<filter id="filter0_d_161_6932" x="35.3528" y="37.0607" width="53.269" height="296.94" filterUnits="userSpaceOnUse" color-interpolation-filters="sRGB">
<feFlood flood-opacity="0" result="BackgroundImageFix"/>
<feColorMatrix in="SourceAlpha" type="matrix" values="0 0 0 0 0 0 0 0 0 0 0 0 0 0 0 0 0 0 127 0" result="hardAlpha"/>
<feOffset dy="4"/>
<feGaussianBlur stdDeviation="2"/>
<feComposite in2="hardAlpha" operator="out"/>
<feColorMatrix type="matrix" values="0 0 0 0 0 0 0 0 0 0 0 0 0 0 0 0 0 0 0.25 0"/>
<feBlend mode="normal" in2="BackgroundImageFix" result="effect1_dropShadow_161_6932"/>
<feBlend mode="normal" in="SourceGraphic" in2="effect1_dropShadow_161_6932" result="shape"/>
</filter>
</defs>
</svg>
