<svg width="197" height="194" viewBox="0 0 197 194" fill="none" xmlns="http://www.w3.org/2000/svg">
<path d="M1.59748 167.349V160.077H4.05487C4.62541 160.077 5.0918 160.18 5.45401 160.386C5.8186 160.589 6.08848 160.865 6.26367 161.213C6.43886 161.561 6.52646 161.949 6.52646 162.378C6.52646 162.806 6.43886 163.196 6.26367 163.546C6.09085 163.897 5.82333 164.176 5.46112 164.384C5.0989 164.59 4.63488 164.693 4.06907 164.693H2.30771V163.912H4.04066C4.43129 163.912 4.74497 163.844 4.98171 163.709C5.21845 163.575 5.39009 163.392 5.49663 163.163C5.60553 162.931 5.65998 162.669 5.65998 162.378C5.65998 162.087 5.60553 161.826 5.49663 161.597C5.39009 161.367 5.21727 161.187 4.97816 161.057C4.73905 160.924 4.42182 160.858 4.02646 160.858H2.47816V167.349H1.59748ZM7.8315 167.349V161.895H8.64116V162.719H8.69798C8.79741 162.449 8.97733 162.23 9.23775 162.062C9.49817 161.894 9.79173 161.81 10.1184 161.81C10.18 161.81 10.2569 161.811 10.3493 161.813C10.4416 161.816 10.5114 161.819 10.5588 161.824V162.676C10.5304 162.669 10.4653 162.658 10.3635 162.644C10.264 162.628 10.1587 162.619 10.0474 162.619C9.78226 162.619 9.54551 162.675 9.33718 162.786C9.13121 162.895 8.96786 163.047 8.84712 163.241C8.72875 163.432 8.66957 163.651 8.66957 163.898V167.349H7.8315ZM11.5522 167.349V161.895H12.3903V167.349H11.5522ZM11.9783 160.986C11.815 160.986 11.6741 160.93 11.5558 160.819C11.4397 160.708 11.3817 160.574 11.3817 160.418C11.3817 160.261 11.4397 160.128 11.5558 160.016C11.6741 159.905 11.815 159.849 11.9783 159.849C12.1417 159.849 12.2814 159.905 12.3974 160.016C12.5157 160.128 12.5749 160.261 12.5749 160.418C12.5749 160.574 12.5157 160.708 12.3974 160.819C12.2814 160.93 12.1417 160.986 11.9783 160.986ZM13.9252 167.349V161.895H14.7349V162.747H14.8059C14.9196 162.456 15.103 162.23 15.3564 162.069C15.6097 161.906 15.9139 161.824 16.269 161.824C16.6288 161.824 16.9283 161.906 17.1674 162.069C17.4089 162.23 17.5971 162.456 17.7321 162.747H17.7889C17.9286 162.465 18.1381 162.242 18.4174 162.076C18.6968 161.908 19.0318 161.824 19.4224 161.824C19.9101 161.824 20.309 161.977 20.6191 162.282C20.9293 162.585 21.0843 163.057 21.0843 163.699V167.349H20.2463V163.699C20.2463 163.296 20.1362 163.009 19.916 162.836C19.6958 162.663 19.4366 162.577 19.1383 162.577C18.7548 162.577 18.4577 162.693 18.247 162.925C18.0363 163.154 17.9309 163.446 17.9309 163.798V167.349H17.0787V163.614C17.0787 163.303 16.978 163.054 16.7768 162.864C16.5756 162.673 16.3163 162.577 15.9991 162.577C15.7813 162.577 15.5777 162.635 15.3883 162.751C15.2013 162.867 15.0498 163.028 14.9338 163.234C14.8201 163.437 14.7633 163.673 14.7633 163.94V167.349H13.9252ZM24.9036 167.463C24.378 167.463 23.9247 167.347 23.5435 167.115C23.1647 166.881 22.8723 166.554 22.6664 166.135C22.4628 165.714 22.361 165.223 22.361 164.665C22.361 164.106 22.4628 163.614 22.6664 163.187C22.8723 162.759 23.1588 162.425 23.5257 162.186C23.8951 161.945 24.3259 161.824 24.8184 161.824C25.1025 161.824 25.383 161.871 25.66 161.966C25.937 162.061 26.1891 162.214 26.4164 162.428C26.6436 162.638 26.8248 162.918 26.9597 163.266C27.0946 163.614 27.1621 164.042 27.1621 164.551V164.906H22.9576V164.182H26.3098C26.3098 163.874 26.2483 163.599 26.1252 163.358C26.0044 163.116 25.8316 162.926 25.6067 162.786C25.3842 162.647 25.1214 162.577 24.8184 162.577C24.4846 162.577 24.1957 162.66 23.9519 162.825C23.7104 162.989 23.5246 163.202 23.3944 163.464C23.2641 163.727 23.199 164.009 23.199 164.31V164.793C23.199 165.205 23.2701 165.554 23.4121 165.84C23.5565 166.124 23.7566 166.341 24.0123 166.49C24.2679 166.637 24.565 166.71 24.9036 166.71C25.1238 166.71 25.3226 166.679 25.5002 166.618C25.6801 166.554 25.8352 166.459 25.9654 166.334C26.0956 166.206 26.1962 166.047 26.2672 165.858L27.0769 166.085C26.9917 166.36 26.8484 166.601 26.6472 166.81C26.446 167.016 26.1974 167.177 25.9015 167.293C25.6055 167.406 25.2729 167.463 24.9036 167.463ZM28.437 167.349V161.895H29.275V167.349H28.437ZM28.8631 160.986C28.6998 160.986 28.5589 160.93 28.4405 160.819C28.3245 160.708 28.2665 160.574 28.2665 160.418C28.2665 160.261 28.3245 160.128 28.4405 160.016C28.5589 159.905 28.6998 159.849 28.8631 159.849C29.0265 159.849 29.1661 159.905 29.2821 160.016C29.4005 160.128 29.4597 160.261 29.4597 160.418C29.4597 160.574 29.4005 160.708 29.2821 160.819C29.1661 160.93 29.0265 160.986 28.8631 160.986ZM30.81 167.349V161.895H31.6197V162.719H31.6765C31.7759 162.449 31.9558 162.23 32.2163 162.062C32.4767 161.894 32.7702 161.81 33.0969 161.81C33.1585 161.81 33.2354 161.811 33.3278 161.813C33.4201 161.816 33.4899 161.819 33.5373 161.824V162.676C33.5089 162.669 33.4438 162.658 33.342 162.644C33.2425 162.628 33.1372 162.619 33.0259 162.619C32.7608 162.619 32.524 162.675 32.3157 162.786C32.1097 162.895 31.9464 163.047 31.8256 163.241C31.7073 163.432 31.6481 163.651 31.6481 163.898V167.349H30.81ZM36.5806 167.463C36.0882 167.463 35.6561 167.346 35.2844 167.111C34.9151 166.877 34.6263 166.549 34.418 166.128C34.212 165.706 34.109 165.214 34.109 164.651C34.109 164.082 34.212 163.586 34.418 163.163C34.6263 162.739 34.9151 162.41 35.2844 162.175C35.6561 161.941 36.0882 161.824 36.5806 161.824C37.073 161.824 37.5039 161.941 37.8732 162.175C38.2449 162.41 38.5337 162.739 38.7397 163.163C38.948 163.586 39.0522 164.082 39.0522 164.651C39.0522 165.214 38.948 165.706 38.7397 166.128C38.5337 166.549 38.2449 166.877 37.8732 167.111C37.5039 167.346 37.073 167.463 36.5806 167.463ZM36.5806 166.71C36.9547 166.71 37.2624 166.614 37.5039 166.423C37.7454 166.231 37.9241 165.979 38.0401 165.666C38.1561 165.354 38.2141 165.015 38.2141 164.651C38.2141 164.286 38.1561 163.946 38.0401 163.631C37.9241 163.316 37.7454 163.062 37.5039 162.868C37.2624 162.674 36.9547 162.577 36.5806 162.577C36.2066 162.577 35.8988 162.674 35.6573 162.868C35.4158 163.062 35.2371 163.316 35.1211 163.631C35.0051 163.946 34.9471 164.286 34.9471 164.651C34.9471 165.015 35.0051 165.354 35.1211 165.666C35.2371 165.979 35.4158 166.231 35.6573 166.423C35.8988 166.614 36.2066 166.71 36.5806 166.71ZM47.0076 163.116L46.2548 163.33C46.2074 163.204 46.1376 163.082 46.0453 162.964C45.9553 162.843 45.8322 162.744 45.676 162.665C45.5197 162.587 45.3197 162.548 45.0758 162.548C44.742 162.548 44.4638 162.625 44.2413 162.779C44.0211 162.931 43.911 163.124 43.911 163.358C43.911 163.566 43.9868 163.731 44.1383 163.852C44.2898 163.972 44.5266 164.073 44.8485 164.153L45.6582 164.352C46.1459 164.471 46.5093 164.652 46.7484 164.896C46.9875 165.137 47.1071 165.448 47.1071 165.83C47.1071 166.142 47.0171 166.421 46.8372 166.668C46.6596 166.914 46.411 167.108 46.0914 167.25C45.7718 167.392 45.4002 167.463 44.9764 167.463C44.42 167.463 43.9596 167.342 43.595 167.101C43.2304 166.859 42.9996 166.507 42.9025 166.043L43.698 165.844C43.7737 166.137 43.917 166.357 44.1277 166.504C44.3407 166.651 44.6189 166.724 44.9622 166.724C45.3528 166.724 45.6629 166.642 45.8926 166.476C46.1246 166.308 46.2406 166.106 46.2406 165.872C46.2406 165.683 46.1743 165.524 46.0417 165.396C45.9092 165.266 45.7056 165.169 45.4309 165.105L44.5218 164.892C44.0223 164.774 43.6554 164.59 43.421 164.342C43.189 164.091 43.073 163.777 43.073 163.401C43.073 163.093 43.1594 162.821 43.3322 162.584C43.5074 162.347 43.7453 162.161 44.046 162.026C44.349 161.891 44.6923 161.824 45.0758 161.824C45.6156 161.824 46.0394 161.942 46.3471 162.179C46.6573 162.416 46.8774 162.728 47.0076 163.116ZM50.6555 167.463C50.13 167.463 49.6766 167.347 49.2955 167.115C48.9167 166.881 48.6243 166.554 48.4183 166.135C48.2147 165.714 48.1129 165.223 48.1129 164.665C48.1129 164.106 48.2147 163.614 48.4183 163.187C48.6243 162.759 48.9107 162.425 49.2777 162.186C49.647 161.945 50.0779 161.824 50.5703 161.824C50.8544 161.824 51.1349 161.871 51.4119 161.966C51.6889 162.061 51.9411 162.214 52.1683 162.428C52.3956 162.638 52.5767 162.918 52.7116 163.266C52.8466 163.614 52.9141 164.042 52.9141 164.551V164.906H48.7095V164.182H52.0618C52.0618 163.874 52.0002 163.599 51.8771 163.358C51.7564 163.116 51.5836 162.926 51.3587 162.786C51.1361 162.647 50.8733 162.577 50.5703 162.577C50.2365 162.577 49.9477 162.66 49.7038 162.825C49.4624 162.989 49.2765 163.202 49.1463 163.464C49.0161 163.727 48.951 164.009 48.951 164.31V164.793C48.951 165.205 49.022 165.554 49.1641 165.84C49.3085 166.124 49.5085 166.341 49.7642 166.49C50.0199 166.637 50.317 166.71 50.6555 166.71C50.8757 166.71 51.0746 166.679 51.2521 166.618C51.4321 166.554 51.5871 166.459 51.7173 166.334C51.8475 166.206 51.9482 166.047 52.0192 165.858L52.8288 166.085C52.7436 166.36 52.6004 166.601 52.3991 166.81C52.1979 167.016 51.9493 167.177 51.6534 167.293C51.3575 167.406 51.0249 167.463 50.6555 167.463ZM55.027 160.077V167.349H54.1889V160.077H55.027ZM58.8489 167.463C58.3233 167.463 57.87 167.347 57.4888 167.115C57.11 166.881 56.8176 166.554 56.6117 166.135C56.4081 165.714 56.3063 165.223 56.3063 164.665C56.3063 164.106 56.4081 163.614 56.6117 163.187C56.8176 162.759 57.1041 162.425 57.4711 162.186C57.8404 161.945 58.2712 161.824 58.7637 161.824C59.0478 161.824 59.3283 161.871 59.6053 161.966C59.8823 162.061 60.1344 162.214 60.3617 162.428C60.589 162.638 60.7701 162.918 60.905 163.266C61.04 163.614 61.1074 164.042 61.1074 164.551V164.906H56.9029V164.182H60.2551C60.2551 163.874 60.1936 163.599 60.0705 163.358C59.9498 163.116 59.7769 162.926 59.552 162.786C59.3295 162.647 59.0667 162.577 58.7637 162.577C58.4299 162.577 58.141 162.66 57.8972 162.825C57.6557 162.989 57.4699 163.202 57.3397 163.464C57.2095 163.727 57.1444 164.009 57.1444 164.31V164.793C57.1444 165.205 57.2154 165.554 57.3574 165.84C57.5018 166.124 57.7019 166.341 57.9576 166.49C58.2132 166.637 58.5104 166.71 58.8489 166.71C59.0691 166.71 59.2679 166.679 59.4455 166.618C59.6254 166.554 59.7805 166.459 59.9107 166.334C60.0409 166.206 60.1415 166.047 60.2125 165.858L61.0222 166.085C60.937 166.36 60.7937 166.601 60.5925 166.81C60.3913 167.016 60.1427 167.177 59.8468 167.293C59.5508 167.406 59.2182 167.463 58.8489 167.463ZM64.5982 167.463C64.0868 167.463 63.6465 167.342 63.2772 167.101C62.9078 166.859 62.6238 166.527 62.4249 166.103C62.226 165.679 62.1266 165.195 62.1266 164.651C62.1266 164.097 62.2284 163.608 62.432 163.184C62.638 162.758 62.9244 162.425 63.2914 162.186C63.6607 161.945 64.0916 161.824 64.584 161.824C64.9675 161.824 65.3132 161.895 65.6209 162.037C65.9287 162.179 66.1808 162.378 66.3773 162.633C66.5738 162.889 66.6957 163.187 66.7431 163.528H65.905C65.8411 163.28 65.699 163.06 65.4789 162.868C65.2611 162.674 64.9675 162.577 64.5982 162.577C64.2715 162.577 63.985 162.662 63.7388 162.832C63.495 163 63.3044 163.238 63.1671 163.546C63.0321 163.852 62.9647 164.21 62.9647 164.622C62.9647 165.044 63.031 165.41 63.1635 165.723C63.2985 166.035 63.4879 166.278 63.7317 166.451C63.9779 166.624 64.2667 166.71 64.5982 166.71C64.816 166.71 65.0137 166.672 65.1912 166.597C65.3688 166.521 65.5191 166.412 65.6422 166.27C65.7653 166.128 65.8529 165.957 65.905 165.758H66.7431C66.6957 166.08 66.5785 166.37 66.3915 166.629C66.2069 166.884 65.9618 167.088 65.6564 167.239C65.3534 167.388 65.0007 167.463 64.5982 167.463ZM67.9682 167.349V161.895H68.8063V167.349H67.9682ZM68.3944 160.986C68.231 160.986 68.0901 160.93 67.9718 160.819C67.8558 160.708 67.7978 160.574 67.7978 160.418C67.7978 160.261 67.8558 160.128 67.9718 160.016C68.0901 159.905 68.231 159.849 68.3944 159.849C68.5577 159.849 68.6974 159.905 68.8134 160.016C68.9318 160.128 68.9909 160.261 68.9909 160.418C68.9909 160.574 68.9318 160.708 68.8134 160.819C68.6974 160.93 68.5577 160.986 68.3944 160.986ZM72.5572 167.463C72.0647 167.463 71.6327 167.346 71.261 167.111C70.8917 166.877 70.6029 166.549 70.3945 166.128C70.1886 165.706 70.0856 165.214 70.0856 164.651C70.0856 164.082 70.1886 163.586 70.3945 163.163C70.6029 162.739 70.8917 162.41 71.261 162.175C71.6327 161.941 72.0647 161.824 72.5572 161.824C73.0496 161.824 73.4805 161.941 73.8498 162.175C74.2215 162.41 74.5103 162.739 74.7163 163.163C74.9246 163.586 75.0288 164.082 75.0288 164.651C75.0288 165.214 74.9246 165.706 74.7163 166.128C74.5103 166.549 74.2215 166.877 73.8498 167.111C73.4805 167.346 73.0496 167.463 72.5572 167.463ZM72.5572 166.71C72.9312 166.71 73.239 166.614 73.4805 166.423C73.7219 166.231 73.9007 165.979 74.0167 165.666C74.1327 165.354 74.1907 165.015 74.1907 164.651C74.1907 164.286 74.1327 163.946 74.0167 163.631C73.9007 163.316 73.7219 163.062 73.4805 162.868C73.239 162.674 72.9312 162.577 72.5572 162.577C72.1831 162.577 71.8754 162.674 71.6339 162.868C71.3924 163.062 71.2137 163.316 71.0977 163.631C70.9817 163.946 70.9237 164.286 70.9237 164.651C70.9237 165.015 70.9817 165.354 71.0977 165.666C71.2137 165.979 71.3924 166.231 71.6339 166.423C71.8754 166.614 72.1831 166.71 72.5572 166.71ZM77.1461 164.068V167.349H76.3081V161.895H77.1177V162.747H77.1887C77.3166 162.47 77.5107 162.248 77.7711 162.08C78.0315 161.909 78.3677 161.824 78.7797 161.824C79.149 161.824 79.4721 161.9 79.7491 162.051C80.0261 162.2 80.2415 162.428 80.3954 162.733C80.5493 163.036 80.6262 163.419 80.6262 163.883V167.349H79.7882V163.94C79.7882 163.512 79.6769 163.178 79.4544 162.939C79.2318 162.697 78.9264 162.577 78.5382 162.577C78.2707 162.577 78.0315 162.635 77.8208 162.751C77.6125 162.867 77.448 163.036 77.3272 163.258C77.2065 163.481 77.1461 163.751 77.1461 164.068ZM84.4446 167.463C83.919 167.463 83.4657 167.347 83.0845 167.115C82.7057 166.881 82.4134 166.554 82.2074 166.135C82.0038 165.714 81.902 165.223 81.902 164.665C81.902 164.106 82.0038 163.614 82.2074 163.187C82.4134 162.759 82.6998 162.425 83.0668 162.186C83.4361 161.945 83.867 161.824 84.3594 161.824C84.6435 161.824 84.924 161.871 85.201 161.966C85.478 162.061 85.7301 162.214 85.9574 162.428C86.1847 162.638 86.3658 162.918 86.5007 163.266C86.6357 163.614 86.7031 164.042 86.7031 164.551V164.906H82.4986V164.182H85.8509C85.8509 163.874 85.7893 163.599 85.6662 163.358C85.5455 163.116 85.3726 162.926 85.1477 162.786C84.9252 162.647 84.6624 162.577 84.3594 162.577C84.0256 162.577 83.7367 162.66 83.4929 162.825C83.2514 162.989 83.0656 163.202 82.9354 163.464C82.8052 163.727 82.7401 164.009 82.7401 164.31V164.793C82.7401 165.205 82.8111 165.554 82.9531 165.84C83.0975 166.124 83.2976 166.341 83.5533 166.49C83.8089 166.637 84.1061 166.71 84.4446 166.71C84.6648 166.71 84.8636 166.679 85.0412 166.618C85.2211 166.554 85.3762 166.459 85.5064 166.334C85.6366 166.206 85.7372 166.047 85.8082 165.858L86.6179 166.085C86.5327 166.36 86.3894 166.601 86.1882 166.81C85.987 167.016 85.7384 167.177 85.4425 167.293C85.1465 167.406 84.8139 167.463 84.4446 167.463ZM93.0064 167.463C92.514 167.463 92.0819 167.346 91.7102 167.111C91.3409 166.877 91.0521 166.549 90.8438 166.128C90.6378 165.706 90.5348 165.214 90.5348 164.651C90.5348 164.082 90.6378 163.586 90.8438 163.163C91.0521 162.739 91.3409 162.41 91.7102 162.175C92.0819 161.941 92.514 161.824 93.0064 161.824C93.4988 161.824 93.9297 161.941 94.299 162.175C94.6707 162.41 94.9595 162.739 95.1655 163.163C95.3738 163.586 95.478 164.082 95.478 164.651C95.478 165.214 95.3738 165.706 95.1655 166.128C94.9595 166.549 94.6707 166.877 94.299 167.111C93.9297 167.346 93.4988 167.463 93.0064 167.463ZM93.0064 166.71C93.3804 166.71 93.6882 166.614 93.9297 166.423C94.1712 166.231 94.3499 165.979 94.4659 165.666C94.5819 165.354 94.6399 165.015 94.6399 164.651C94.6399 164.286 94.5819 163.946 94.4659 163.631C94.3499 163.316 94.1712 163.062 93.9297 162.868C93.6882 162.674 93.3804 162.577 93.0064 162.577C92.6323 162.577 92.3246 162.674 92.0831 162.868C91.8416 163.062 91.6629 163.316 91.5469 163.631C91.4309 163.946 91.3729 164.286 91.3729 164.651C91.3729 165.015 91.4309 165.354 91.5469 165.666C91.6629 165.979 91.8416 166.231 92.0831 166.423C92.3246 166.614 92.6323 166.71 93.0064 166.71ZM31.0462 179.463C30.5206 179.463 30.0672 179.347 29.6861 179.115C29.3073 178.881 29.0149 178.554 28.8089 178.135C28.6054 177.714 28.5036 177.223 28.5036 176.665C28.5036 176.106 28.6054 175.614 28.8089 175.187C29.0149 174.759 29.3014 174.425 29.6683 174.186C30.0376 173.945 30.4685 173.824 30.9609 173.824C31.245 173.824 31.5256 173.871 31.8026 173.966C32.0795 174.061 32.3317 174.214 32.5589 174.428C32.7862 174.638 32.9673 174.918 33.1023 175.266C33.2372 175.614 33.3047 176.042 33.3047 176.551V176.906H29.1001V176.182H32.4524C32.4524 175.874 32.3909 175.599 32.2678 175.358C32.147 175.116 31.9742 174.926 31.7493 174.786C31.5268 174.647 31.264 174.577 30.9609 174.577C30.6271 174.577 30.3383 174.66 30.0945 174.825C29.853 174.989 29.6671 175.202 29.5369 175.464C29.4067 175.727 29.3416 176.009 29.3416 176.31V176.793C29.3416 177.205 29.4126 177.554 29.5547 177.84C29.6991 178.124 29.8991 178.341 30.1548 178.49C30.4105 178.637 30.7076 178.71 31.0462 178.71C31.2663 178.71 31.4652 178.679 31.6428 178.618C31.8227 178.554 31.9777 178.459 32.108 178.334C32.2382 178.206 32.3388 178.047 32.4098 177.858L33.2195 178.085C33.1342 178.36 32.991 178.601 32.7898 178.81C32.5885 179.016 32.34 179.177 32.044 179.293C31.7481 179.406 31.4155 179.463 31.0462 179.463ZM39.679 179.463C39.1534 179.463 38.7 179.347 38.3189 179.115C37.9401 178.881 37.6477 178.554 37.4418 178.135C37.2382 177.714 37.1364 177.223 37.1364 176.665C37.1364 176.106 37.2382 175.614 37.4418 175.187C37.6477 174.759 37.9342 174.425 38.3011 174.186C38.6705 173.945 39.1013 173.824 39.5938 173.824C39.8778 173.824 40.1584 173.871 40.4354 173.966C40.7124 174.061 40.9645 174.214 41.1918 174.428C41.419 174.638 41.6001 174.918 41.7351 175.266C41.87 175.614 41.9375 176.042 41.9375 176.551V176.906H37.733V176.182H41.0852C41.0852 175.874 41.0237 175.599 40.9006 175.358C40.7798 175.116 40.607 174.926 40.3821 174.786C40.1596 174.647 39.8968 174.577 39.5938 174.577C39.2599 174.577 38.9711 174.66 38.7273 174.825C38.4858 174.989 38.3 175.202 38.1697 175.464C38.0395 175.727 37.9744 176.009 37.9744 176.31V176.793C37.9744 177.205 38.0455 177.554 38.1875 177.84C38.3319 178.124 38.532 178.341 38.7876 178.49C39.0433 178.637 39.3404 178.71 39.679 178.71C39.8991 178.71 40.098 178.679 40.2756 178.618C40.4555 178.554 40.6106 178.459 40.7408 178.334C40.871 178.206 40.9716 178.047 41.0426 177.858L41.8523 178.085C41.767 178.36 41.6238 178.601 41.4226 178.81C41.2214 179.016 40.9728 179.177 40.6768 179.293C40.3809 179.406 40.0483 179.463 39.679 179.463ZM43.2124 179.349V173.895H44.022V174.747H44.093C44.2067 174.456 44.3902 174.23 44.6435 174.069C44.8968 173.906 45.201 173.824 45.5561 173.824C45.916 173.824 46.2154 173.906 46.4545 174.069C46.696 174.23 46.8842 174.456 47.0192 174.747H47.076C47.2157 174.465 47.4252 174.242 47.7045 174.076C47.9839 173.908 48.3189 173.824 48.7095 173.824C49.1972 173.824 49.5961 173.977 49.9062 174.282C50.2164 174.585 50.3714 175.057 50.3714 175.699V179.349H49.5334V175.699C49.5334 175.296 49.4233 175.009 49.2031 174.836C48.983 174.663 48.7237 174.577 48.4254 174.577C48.0419 174.577 47.7448 174.693 47.5341 174.925C47.3234 175.154 47.218 175.446 47.218 175.798V179.349H46.3658V175.614C46.3658 175.303 46.2652 175.054 46.0639 174.864C45.8627 174.673 45.6035 174.577 45.2862 174.577C45.0684 174.577 44.8648 174.635 44.6754 174.751C44.4884 174.867 44.3369 175.028 44.2209 175.234C44.1072 175.437 44.0504 175.673 44.0504 175.94V179.349H43.2124ZM58.4379 181.395V178.511H58.3668C58.3053 178.611 58.2177 178.736 58.104 178.888C57.9904 179.037 57.8282 179.171 57.6175 179.289C57.4068 179.405 57.1263 179.463 56.7759 179.463C56.3214 179.463 55.9201 179.348 55.5721 179.119C55.2241 178.887 54.9518 178.56 54.7553 178.138C54.5588 177.715 54.4606 177.214 54.4606 176.636C54.4606 176.063 54.5588 175.566 54.7553 175.145C54.9518 174.723 55.2253 174.398 55.5756 174.168C55.926 173.939 56.3308 173.824 56.7901 173.824C57.1452 173.824 57.4258 173.883 57.6317 174.001C57.8401 174.117 57.9987 174.25 58.1076 174.399C58.2189 174.546 58.3053 174.667 58.3668 174.761H58.4663V173.895H59.2759V181.395H58.4379ZM56.8896 178.71C57.2257 178.71 57.5098 178.623 57.7418 178.447C57.9738 178.27 58.1502 178.025 58.271 177.712C58.3917 177.397 58.4521 177.034 58.4521 176.622C58.4521 176.215 58.3929 175.859 58.2745 175.553C58.1561 175.245 57.9809 175.006 57.7489 174.836C57.5169 174.663 57.2305 174.577 56.8896 174.577C56.5344 174.577 56.2385 174.668 56.0018 174.85C55.7674 175.03 55.591 175.275 55.4727 175.585C55.3567 175.893 55.2987 176.239 55.2987 176.622C55.2987 177.01 55.3578 177.363 55.4762 177.68C55.5969 177.995 55.7745 178.246 56.0089 178.433C56.2456 178.618 56.5392 178.71 56.8896 178.71ZM64.2475 177.119V173.895H65.0856V179.349H64.2475V178.426H64.1907C64.0629 178.703 63.864 178.939 63.5941 179.133C63.3242 179.325 62.9833 179.42 62.5714 179.42C62.2305 179.42 61.9274 179.346 61.6623 179.197C61.3971 179.045 61.1888 178.818 61.0373 178.515C60.8858 178.209 60.81 177.825 60.81 177.361V173.895H61.6481V177.304C61.6481 177.702 61.7594 178.019 61.9819 178.256C62.2068 178.492 62.4933 178.611 62.8413 178.611C63.0496 178.611 63.2615 178.557 63.4769 178.451C63.6947 178.344 63.877 178.181 64.0238 177.961C64.1729 177.741 64.2475 177.46 64.2475 177.119ZM68.2257 179.477C67.88 179.477 67.5663 179.412 67.2846 179.282C67.0029 179.149 66.7792 178.959 66.6135 178.71C66.4477 178.459 66.3649 178.156 66.3649 177.801C66.3649 177.489 66.4264 177.235 66.5495 177.041C66.6726 176.845 66.8372 176.691 67.0431 176.58C67.2491 176.468 67.4764 176.385 67.725 176.331C67.9759 176.274 68.228 176.229 68.4814 176.196C68.8128 176.153 69.0815 176.121 69.2875 176.1C69.4958 176.076 69.6473 176.037 69.742 175.983C69.8391 175.928 69.8876 175.834 69.8876 175.699V175.67C69.8876 175.32 69.7917 175.048 69.6 174.854C69.4106 174.66 69.1229 174.562 68.737 174.562C68.3369 174.562 68.0233 174.65 67.796 174.825C67.5687 175 67.4089 175.187 67.3166 175.386L66.5211 175.102C66.6632 174.771 66.8526 174.513 67.0893 174.328C67.3284 174.141 67.5888 174.011 67.8706 173.937C68.1547 173.862 68.434 173.824 68.7086 173.824C68.8838 173.824 69.085 173.845 69.3123 173.888C69.542 173.928 69.7633 174.012 69.9764 174.14C70.1918 174.268 70.3706 174.461 70.5126 174.719C70.6547 174.977 70.7257 175.322 70.7257 175.756V179.349H69.8876V178.611H69.845C69.7882 178.729 69.6935 178.856 69.5609 178.991C69.4283 179.126 69.252 179.24 69.0318 179.335C68.8116 179.43 68.5429 179.477 68.2257 179.477ZM68.3535 178.724C68.685 178.724 68.9643 178.659 69.1916 178.529C69.4212 178.399 69.594 178.231 69.71 178.025C69.8284 177.819 69.8876 177.602 69.8876 177.375V176.608C69.8521 176.651 69.774 176.69 69.6532 176.725C69.5349 176.758 69.3975 176.788 69.2413 176.814C69.0874 176.838 68.9371 176.859 68.7903 176.878C68.6459 176.894 68.5287 176.909 68.4387 176.92C68.2209 176.949 68.0173 176.995 67.8279 177.059C67.6409 177.12 67.4894 177.214 67.3734 177.339C67.2598 177.463 67.2029 177.631 67.2029 177.844C67.2029 178.135 67.3107 178.355 67.5261 178.504C67.7439 178.651 68.0197 178.724 68.3535 178.724ZM73.0934 172.077V179.349H72.2553V172.077H73.0934ZM5.94407 185.895L3.92702 191.349H3.07475L1.05771 185.895H1.9668L3.47248 190.241H3.5293L5.03498 185.895H5.94407ZM9.07085 191.463C8.57842 191.463 8.14637 191.346 7.77468 191.111C7.40536 190.877 7.11654 190.549 6.9082 190.128C6.70224 189.706 6.59925 189.214 6.59925 188.651C6.59925 188.082 6.70224 187.586 6.9082 187.163C7.11654 186.739 7.40536 186.41 7.77468 186.175C8.14637 185.941 8.57842 185.824 9.07085 185.824C9.56327 185.824 9.99414 185.941 10.3635 186.175C10.7351 186.41 11.024 186.739 11.2299 187.163C11.4383 187.586 11.5424 188.082 11.5424 188.651C11.5424 189.214 11.4383 189.706 11.2299 190.128C11.024 190.549 10.7351 190.877 10.3635 191.111C9.99414 191.346 9.56327 191.463 9.07085 191.463ZM9.07085 190.71C9.4449 190.71 9.75266 190.614 9.99414 190.423C10.2356 190.231 10.4144 189.979 10.5304 189.666C10.6464 189.354 10.7044 189.015 10.7044 188.651C10.7044 188.286 10.6464 187.946 10.5304 187.631C10.4144 187.316 10.2356 187.062 9.99414 186.868C9.75266 186.674 9.4449 186.577 9.07085 186.577C8.69679 186.577 8.38903 186.674 8.14755 186.868C7.90607 187.062 7.72733 187.316 7.61133 187.631C7.49532 187.946 7.43732 188.286 7.43732 188.651C7.43732 189.015 7.49532 189.354 7.61133 189.666C7.72733 189.979 7.90607 190.231 8.14755 190.423C8.38903 190.614 8.69679 190.71 9.07085 190.71ZM15.0376 191.463C14.5263 191.463 14.0859 191.342 13.7166 191.101C13.3473 190.859 13.0632 190.527 12.8643 190.103C12.6655 189.679 12.5661 189.195 12.5661 188.651C12.5661 188.097 12.6679 187.608 12.8714 187.184C13.0774 186.758 13.3639 186.425 13.7308 186.186C14.1001 185.945 14.531 185.824 15.0234 185.824C15.407 185.824 15.7526 185.895 16.0604 186.037C16.3681 186.179 16.6203 186.378 16.8168 186.633C17.0133 186.889 17.1352 187.187 17.1825 187.528H16.3445C16.2805 187.28 16.1385 187.06 15.9183 186.868C15.7005 186.674 15.407 186.577 15.0376 186.577C14.7109 186.577 14.4245 186.662 14.1783 186.832C13.9344 187 13.7438 187.238 13.6065 187.546C13.4716 187.852 13.4041 188.21 13.4041 188.622C13.4041 189.044 13.4704 189.41 13.603 189.723C13.7379 190.035 13.9273 190.278 14.1712 190.451C14.4174 190.624 14.7062 190.71 15.0376 190.71C15.2554 190.71 15.4531 190.672 15.6307 190.597C15.8082 190.521 15.9586 190.412 16.0817 190.27C16.2048 190.128 16.2924 189.957 16.3445 189.758H17.1825C17.1352 190.08 17.018 190.37 16.831 190.629C16.6463 190.884 16.4013 191.088 16.0959 191.239C15.7929 191.388 15.4401 191.463 15.0376 191.463ZM20.6946 191.463C20.169 191.463 19.7157 191.347 19.3345 191.115C18.9557 190.881 18.6634 190.554 18.4574 190.135C18.2538 189.714 18.152 189.223 18.152 188.665C18.152 188.106 18.2538 187.614 18.4574 187.187C18.6634 186.759 18.9498 186.425 19.3168 186.186C19.6861 185.945 20.117 185.824 20.6094 185.824C20.8935 185.824 21.174 185.871 21.451 185.966C21.728 186.061 21.9801 186.214 22.2074 186.428C22.4347 186.638 22.6158 186.918 22.7507 187.266C22.8857 187.614 22.9531 188.042 22.9531 188.551V188.906H18.7486V188.182H22.1009C22.1009 187.874 22.0393 187.599 21.9162 187.358C21.7955 187.116 21.6226 186.926 21.3977 186.786C21.1752 186.647 20.9124 186.577 20.6094 186.577C20.2756 186.577 19.9867 186.66 19.7429 186.825C19.5014 186.989 19.3156 187.202 19.1854 187.464C19.0552 187.727 18.9901 188.009 18.9901 188.31V188.793C18.9901 189.205 19.0611 189.554 19.2031 189.84C19.3475 190.124 19.5476 190.341 19.8033 190.49C20.0589 190.637 20.3561 190.71 20.6946 190.71C20.9148 190.71 21.1136 190.679 21.2912 190.618C21.4711 190.554 21.6262 190.459 21.7564 190.334C21.8866 190.206 21.9872 190.047 22.0582 189.858L22.8679 190.085C22.7827 190.36 22.6394 190.601 22.4382 190.81C22.237 191.016 21.9884 191.177 21.6925 191.293C21.3965 191.406 21.0639 191.463 20.6946 191.463ZM21.3054 185.241L20.5668 184.247L19.8281 185.241H19.0327V185.185L20.1832 183.707H20.9503L22.1009 185.185V185.241H21.3054ZM27.0405 193.395V185.895H27.8501V186.761H27.9496C28.0111 186.667 28.0964 186.546 28.2053 186.399C28.3165 186.25 28.4751 186.117 28.6811 186.001C28.8894 185.883 29.1712 185.824 29.5263 185.824C29.9856 185.824 30.3904 185.939 30.7408 186.168C31.0911 186.398 31.3646 186.723 31.5611 187.145C31.7576 187.566 31.8558 188.063 31.8558 188.636C31.8558 189.214 31.7576 189.715 31.5611 190.138C31.3646 190.56 31.0923 190.887 30.7443 191.119C30.3963 191.348 29.995 191.463 29.5405 191.463C29.1901 191.463 28.9096 191.405 28.6989 191.289C28.4882 191.171 28.326 191.037 28.2124 190.888C28.0987 190.736 28.0111 190.611 27.9496 190.511H27.8786V193.395H27.0405ZM27.8643 188.622C27.8643 189.034 27.9247 189.397 28.0455 189.712C28.1662 190.025 28.3426 190.27 28.5746 190.447C28.8066 190.623 29.0907 190.71 29.4268 190.71C29.7772 190.71 30.0696 190.618 30.304 190.433C30.5407 190.246 30.7183 189.995 30.8366 189.68C30.9574 189.363 31.0178 189.01 31.0178 188.622C31.0178 188.239 30.9586 187.893 30.8402 187.585C30.7242 187.275 30.5478 187.03 30.3111 186.85C30.0767 186.668 29.782 186.577 29.4268 186.577C29.0859 186.577 28.7995 186.663 28.5675 186.836C28.3355 187.006 28.1603 187.245 28.0419 187.553C27.9235 187.859 27.8643 188.215 27.8643 188.622ZM33.1342 191.349V185.895H33.9439V186.719H34.0007C34.1001 186.449 34.2801 186.23 34.5405 186.062C34.8009 185.894 35.0945 185.81 35.4212 185.81C35.4827 185.81 35.5597 185.811 35.652 185.813C35.7443 185.816 35.8142 185.819 35.8615 185.824V186.676C35.8331 186.669 35.768 186.658 35.6662 186.644C35.5668 186.628 35.4614 186.619 35.3501 186.619C35.085 186.619 34.8482 186.675 34.6399 186.786C34.4339 186.895 34.2706 187.047 34.1499 187.241C34.0315 187.432 33.9723 187.651 33.9723 187.898V191.349H33.1342ZM38.9759 191.463C38.4503 191.463 37.9969 191.347 37.6158 191.115C37.237 190.881 36.9446 190.554 36.7386 190.135C36.535 189.714 36.4332 189.223 36.4332 188.665C36.4332 188.106 36.535 187.614 36.7386 187.187C36.9446 186.759 37.2311 186.425 37.598 186.186C37.9673 185.945 38.3982 185.824 38.8906 185.824C39.1747 185.824 39.4553 185.871 39.7322 185.966C40.0092 186.061 40.2614 186.214 40.4886 186.428C40.7159 186.638 40.897 186.918 41.032 187.266C41.1669 187.614 41.2344 188.042 41.2344 188.551V188.906H37.0298V188.182H40.3821C40.3821 187.874 40.3205 187.599 40.1974 187.358C40.0767 187.116 39.9039 186.926 39.679 186.786C39.4564 186.647 39.1937 186.577 38.8906 186.577C38.5568 186.577 38.268 186.66 38.0241 186.825C37.7827 186.989 37.5968 187.202 37.4666 187.464C37.3364 187.727 37.2713 188.009 37.2713 188.31V188.793C37.2713 189.205 37.3423 189.554 37.4844 189.84C37.6288 190.124 37.8288 190.341 38.0845 190.49C38.3402 190.637 38.6373 190.71 38.9759 190.71C39.196 190.71 39.3949 190.679 39.5724 190.618C39.7524 190.554 39.9074 190.459 40.0376 190.334C40.1679 190.206 40.2685 190.047 40.3395 189.858L41.1491 190.085C41.0639 190.36 40.9207 190.601 40.7195 190.81C40.5182 191.016 40.2696 191.177 39.9737 191.293C39.6778 191.406 39.3452 191.463 38.9759 191.463ZM44.8814 185.895V186.605H42.0547V185.895H44.8814ZM42.8786 184.588H43.7166V189.787C43.7166 190.024 43.7509 190.201 43.8196 190.32C43.8906 190.436 43.9806 190.514 44.0895 190.554C44.2008 190.592 44.3179 190.611 44.4411 190.611C44.5334 190.611 44.6091 190.606 44.6683 190.597C44.7275 190.585 44.7749 190.575 44.8104 190.568L44.9808 191.321C44.924 191.342 44.8447 191.364 44.7429 191.385C44.6411 191.409 44.5121 191.42 44.3558 191.42C44.1191 191.42 43.8871 191.37 43.6598 191.268C43.4349 191.166 43.2479 191.011 43.0987 190.803C42.9519 190.594 42.8786 190.331 42.8786 190.014V184.588ZM48.3704 191.463C47.8448 191.463 47.3915 191.347 47.0103 191.115C46.6315 190.881 46.3391 190.554 46.1332 190.135C45.9296 189.714 45.8278 189.223 45.8278 188.665C45.8278 188.106 45.9296 187.614 46.1332 187.187C46.3391 186.759 46.6256 186.425 46.9925 186.186C47.3619 185.945 47.7927 185.824 48.2852 185.824C48.5692 185.824 48.8498 185.871 49.1268 185.966C49.4038 186.061 49.6559 186.214 49.8832 186.428C50.1104 186.638 50.2915 186.918 50.4265 187.266C50.5614 187.614 50.6289 188.042 50.6289 188.551V188.906H46.4244V188.182H49.7766C49.7766 187.874 49.7151 187.599 49.592 187.358C49.4712 187.116 49.2984 186.926 49.0735 186.786C48.851 186.647 48.5882 186.577 48.2852 186.577C47.9513 186.577 47.6625 186.66 47.4187 186.825C47.1772 186.989 46.9914 187.202 46.8612 187.464C46.7309 187.727 46.6658 188.009 46.6658 188.31V188.793C46.6658 189.205 46.7369 189.554 46.8789 189.84C47.0233 190.124 47.2234 190.341 47.479 190.49C47.7347 190.637 48.0318 190.71 48.3704 190.71C48.5906 190.71 48.7894 190.679 48.967 190.618C49.1469 190.554 49.302 190.459 49.4322 190.334C49.5624 190.206 49.663 190.047 49.734 189.858L50.5437 190.085C50.4585 190.36 50.3152 190.601 50.114 190.81C49.9128 191.016 49.6642 191.177 49.3683 191.293C49.0723 191.406 48.7397 191.463 48.3704 191.463ZM52.7418 188.068V191.349H51.9038V185.895H52.7134V186.747H52.7844C52.9123 186.47 53.1064 186.248 53.3668 186.08C53.6272 185.909 53.9634 185.824 54.3754 185.824C54.7447 185.824 55.0678 185.9 55.3448 186.051C55.6218 186.2 55.8372 186.428 55.9911 186.733C56.145 187.036 56.2219 187.419 56.2219 187.883V191.349H55.3839V187.94C55.3839 187.512 55.2726 187.178 55.0501 186.939C54.8275 186.697 54.5221 186.577 54.1339 186.577C53.8664 186.577 53.6272 186.635 53.4165 186.751C53.2082 186.867 53.0437 187.036 52.9229 187.258C52.8022 187.481 52.7418 187.751 52.7418 188.068ZM59.813 191.463C59.3585 191.463 58.9572 191.348 58.6092 191.119C58.2612 190.887 57.9889 190.56 57.7924 190.138C57.5959 189.715 57.4977 189.214 57.4977 188.636C57.4977 188.063 57.5959 187.566 57.7924 187.145C57.9889 186.723 58.2624 186.398 58.6127 186.168C58.9631 185.939 59.368 185.824 59.8272 185.824C60.1824 185.824 60.4629 185.883 60.6689 186.001C60.8772 186.117 61.0358 186.25 61.1447 186.399C61.256 186.546 61.3424 186.667 61.4039 186.761H61.475V184.077H62.313V191.349H61.5034V190.511H61.4039C61.3424 190.611 61.2548 190.736 61.1412 190.888C61.0275 191.037 60.8654 191.171 60.6547 191.289C60.444 191.405 60.1634 191.463 59.813 191.463ZM59.9267 190.71C60.2628 190.71 60.5469 190.623 60.7789 190.447C61.0109 190.27 61.1873 190.025 61.3081 189.712C61.4288 189.397 61.4892 189.034 61.4892 188.622C61.4892 188.215 61.43 187.859 61.3116 187.553C61.1932 187.245 61.0181 187.006 60.786 186.836C60.554 186.663 60.2676 186.577 59.9267 186.577C59.5716 186.577 59.2756 186.668 59.0389 186.85C58.8045 187.03 58.6281 187.275 58.5098 187.585C58.3938 187.893 58.3358 188.239 58.3358 188.622C58.3358 189.01 58.3949 189.363 58.5133 189.68C58.6341 189.995 58.8116 190.246 59.046 190.433C59.2827 190.618 59.5763 190.71 59.9267 190.71ZM66.2512 191.463C65.7257 191.463 65.2723 191.347 64.8912 191.115C64.5124 190.881 64.22 190.554 64.014 190.135C63.8104 189.714 63.7086 189.223 63.7086 188.665C63.7086 188.106 63.8104 187.614 64.014 187.187C64.22 186.759 64.5065 186.425 64.8734 186.186C65.2427 185.945 65.6736 185.824 66.166 185.824C66.4501 185.824 66.7306 185.871 67.0076 185.966C67.2846 186.061 67.5368 186.214 67.764 186.428C67.9913 186.638 68.1724 186.918 68.3074 187.266C68.4423 187.614 68.5098 188.042 68.5098 188.551V188.906H64.3052V188.182H67.6575C67.6575 187.874 67.5959 187.599 67.4728 187.358C67.3521 187.116 67.1793 186.926 66.9544 186.786C66.7318 186.647 66.469 186.577 66.166 186.577C65.8322 186.577 65.5434 186.66 65.2995 186.825C65.0581 186.989 64.8722 187.202 64.742 187.464C64.6118 187.727 64.5467 188.009 64.5467 188.31V188.793C64.5467 189.205 64.6177 189.554 64.7598 189.84C64.9042 190.124 65.1042 190.341 65.3599 190.49C65.6156 190.637 65.9127 190.71 66.2512 190.71C66.4714 190.71 66.6703 190.679 66.8478 190.618C67.0278 190.554 67.1828 190.459 67.313 190.334C67.4432 190.206 67.5439 190.047 67.6149 189.858L68.4245 190.085C68.3393 190.36 68.1961 190.601 67.9949 190.81C67.7936 191.016 67.545 191.177 67.2491 191.293C66.9532 191.406 66.6206 191.463 66.2512 191.463ZM74.2022 191.477C73.8566 191.477 73.5429 191.412 73.2612 191.282C72.9795 191.149 72.7557 190.959 72.59 190.71C72.4243 190.459 72.3414 190.156 72.3414 189.801C72.3414 189.489 72.403 189.235 72.5261 189.041C72.6492 188.845 72.8137 188.691 73.0197 188.58C73.2257 188.468 73.4529 188.385 73.7015 188.331C73.9525 188.274 74.2046 188.229 74.4579 188.196C74.7894 188.153 75.0581 188.121 75.264 188.1C75.4724 188.076 75.6239 188.037 75.7186 187.983C75.8156 187.928 75.8642 187.834 75.8642 187.699V187.67C75.8642 187.32 75.7683 187.048 75.5765 186.854C75.3871 186.66 75.0995 186.562 74.7136 186.562C74.3135 186.562 73.9998 186.65 73.7725 186.825C73.5453 187 73.3855 187.187 73.2931 187.386L72.4977 187.102C72.6397 186.771 72.8291 186.513 73.0659 186.328C73.305 186.141 73.5654 186.011 73.8471 185.937C74.1312 185.862 74.4106 185.824 74.6852 185.824C74.8604 185.824 75.0616 185.845 75.2889 185.888C75.5185 185.928 75.7399 186.012 75.9529 186.14C76.1684 186.268 76.3471 186.461 76.4892 186.719C76.6312 186.977 76.7022 187.322 76.7022 187.756V191.349H75.8642V190.611H75.8216C75.7647 190.729 75.67 190.856 75.5375 190.991C75.4049 191.126 75.2285 191.24 75.0083 191.335C74.7882 191.43 74.5195 191.477 74.2022 191.477ZM74.3301 190.724C74.6615 190.724 74.9409 190.659 75.1681 190.529C75.3978 190.399 75.5706 190.231 75.6866 190.025C75.805 189.819 75.8642 189.602 75.8642 189.375V188.608C75.8287 188.651 75.7505 188.69 75.6298 188.725C75.5114 188.758 75.3741 188.788 75.2179 188.814C75.064 188.838 74.9136 188.859 74.7669 188.878C74.6225 188.894 74.5053 188.909 74.4153 188.92C74.1975 188.949 73.9939 188.995 73.8045 189.059C73.6175 189.12 73.466 189.214 73.35 189.339C73.2363 189.463 73.1795 189.631 73.1795 189.844C73.1795 190.135 73.2872 190.355 73.5027 190.504C73.7205 190.651 73.9963 190.724 74.3301 190.724ZM78.2319 193.395V185.895H79.0415V186.761H79.141C79.2025 186.667 79.2878 186.546 79.3967 186.399C79.5079 186.25 79.6665 186.117 79.8725 186.001C80.0808 185.883 80.3626 185.824 80.7177 185.824C81.177 185.824 81.5818 185.939 81.9322 186.168C82.2826 186.398 82.556 186.723 82.7525 187.145C82.949 187.566 83.0472 188.063 83.0472 188.636C83.0472 189.214 82.949 189.715 82.7525 190.138C82.556 190.56 82.2837 190.887 81.9357 191.119C81.5877 191.348 81.1864 191.463 80.7319 191.463C80.3815 191.463 80.101 191.405 79.8903 191.289C79.6796 191.171 79.5174 191.037 79.4038 190.888C79.2901 190.736 79.2025 190.611 79.141 190.511H79.07V193.395H78.2319ZM79.0558 188.622C79.0558 189.034 79.1161 189.397 79.2369 189.712C79.3576 190.025 79.534 190.27 79.766 190.447C79.998 190.623 80.2821 190.71 80.6183 190.71C80.9686 190.71 81.261 190.618 81.4954 190.433C81.7321 190.246 81.9097 189.995 82.0281 189.68C82.1488 189.363 82.2092 189.01 82.2092 188.622C82.2092 188.239 82.15 187.893 82.0316 187.585C81.9156 187.275 81.7392 187.03 81.5025 186.85C81.2681 186.668 80.9734 186.577 80.6183 186.577C80.2773 186.577 79.9909 186.663 79.7589 186.836C79.5269 187.006 79.3517 187.245 79.2333 187.553C79.1149 187.859 79.0558 188.215 79.0558 188.622ZM86.5415 191.463C86.0491 191.463 85.6171 191.346 85.2454 191.111C84.8761 190.877 84.5872 190.549 84.3789 190.128C84.1729 189.706 84.07 189.214 84.07 188.651C84.07 188.082 84.1729 187.586 84.3789 187.163C84.5872 186.739 84.8761 186.41 85.2454 186.175C85.6171 185.941 86.0491 185.824 86.5415 185.824C87.034 185.824 87.4648 185.941 87.8342 186.175C88.2058 186.41 88.4947 186.739 88.7006 187.163C88.909 187.586 89.0131 188.082 89.0131 188.651C89.0131 189.214 88.909 189.706 88.7006 190.128C88.4947 190.549 88.2058 190.877 87.8342 191.111C87.4648 191.346 87.034 191.463 86.5415 191.463ZM86.5415 190.71C86.9156 190.71 87.2234 190.614 87.4648 190.423C87.7063 190.231 87.8851 189.979 88.0011 189.666C88.1171 189.354 88.1751 189.015 88.1751 188.651C88.1751 188.286 88.1171 187.946 88.0011 187.631C87.8851 187.316 87.7063 187.062 87.4648 186.868C87.2234 186.674 86.9156 186.577 86.5415 186.577C86.1675 186.577 85.8597 186.674 85.6183 186.868C85.3768 187.062 85.198 187.316 85.082 187.631C84.966 187.946 84.908 188.286 84.908 188.651C84.908 189.015 84.966 189.354 85.082 189.666C85.198 189.979 85.3768 190.231 85.6183 190.423C85.8597 190.614 86.1675 190.71 86.5415 190.71ZM94.1561 187.116L93.4032 187.33C93.3559 187.204 93.286 187.082 93.1937 186.964C93.1038 186.843 92.9806 186.744 92.8244 186.665C92.6681 186.587 92.4681 186.548 92.2243 186.548C91.8904 186.548 91.6123 186.625 91.3897 186.779C91.1696 186.931 91.0595 187.124 91.0595 187.358C91.0595 187.566 91.1352 187.731 91.2868 187.852C91.4383 187.972 91.675 188.073 91.997 188.153L92.8066 188.352C93.2943 188.471 93.6577 188.652 93.8968 188.896C94.1359 189.137 94.2555 189.448 94.2555 189.83C94.2555 190.142 94.1655 190.421 93.9856 190.668C93.8081 190.914 93.5595 191.108 93.2399 191.25C92.9203 191.392 92.5486 191.463 92.1248 191.463C91.5685 191.463 91.108 191.342 90.7434 191.101C90.3788 190.859 90.148 190.507 90.051 190.043L90.8464 189.844C90.9222 190.137 91.0654 190.357 91.2761 190.504C91.4892 190.651 91.7673 190.724 92.1106 190.724C92.5012 190.724 92.8114 190.642 93.041 190.476C93.273 190.308 93.389 190.106 93.389 189.872C93.389 189.683 93.3227 189.524 93.1902 189.396C93.0576 189.266 92.854 189.169 92.5794 189.105L91.6703 188.892C91.1708 188.774 90.8038 188.59 90.5694 188.342C90.3374 188.091 90.2214 187.777 90.2214 187.401C90.2214 187.093 90.3078 186.821 90.4806 186.584C90.6558 186.347 90.8938 186.161 91.1944 186.026C91.4975 185.891 91.8407 185.824 92.2243 185.824C92.764 185.824 93.1878 185.942 93.4956 186.179C93.8057 186.416 94.0259 186.728 94.1561 187.116ZM97.8892 185.895V186.605H95.0625V185.895H97.8892ZM95.8864 184.588H96.7244V189.787C96.7244 190.024 96.7588 190.201 96.8274 190.32C96.8984 190.436 96.9884 190.514 97.0973 190.554C97.2086 190.592 97.3258 190.611 97.4489 190.611C97.5412 190.611 97.617 190.606 97.6761 190.597C97.7353 190.585 97.7827 190.575 97.8182 190.568L97.9886 191.321C97.9318 191.342 97.8525 191.364 97.7507 191.385C97.6489 191.409 97.5199 191.42 97.3636 191.42C97.1269 191.42 96.8949 191.37 96.6676 191.268C96.4427 191.166 96.2557 191.011 96.1065 190.803C95.9598 190.594 95.8864 190.331 95.8864 190.014V184.588ZM100.755 191.477C100.409 191.477 100.096 191.412 99.8139 191.282C99.5322 191.149 99.3085 190.959 99.1428 190.71C98.977 190.459 98.8942 190.156 98.8942 189.801C98.8942 189.489 98.9557 189.235 99.0788 189.041C99.2019 188.845 99.3665 188.691 99.5724 188.58C99.7784 188.468 100.006 188.385 100.254 188.331C100.505 188.274 100.757 188.229 101.011 188.196C101.342 188.153 101.611 188.121 101.817 188.1C102.025 188.076 102.177 188.037 102.271 187.983C102.368 187.928 102.417 187.834 102.417 187.699V187.67C102.417 187.32 102.321 187.048 102.129 186.854C101.94 186.66 101.652 186.562 101.266 186.562C100.866 186.562 100.553 186.65 100.325 186.825C100.098 187 99.9382 187.187 99.8459 187.386L99.0504 187.102C99.1925 186.771 99.3819 186.513 99.6186 186.328C99.8577 186.141 100.118 186.011 100.4 185.937C100.684 185.862 100.963 185.824 101.238 185.824C101.413 185.824 101.614 185.845 101.842 185.888C102.071 185.928 102.293 186.012 102.506 186.14C102.721 186.268 102.9 186.461 103.042 186.719C103.184 186.977 103.255 187.322 103.255 187.756V191.349H102.417V190.611H102.374C102.317 190.729 102.223 190.856 102.09 190.991C101.958 191.126 101.781 191.24 101.561 191.335C101.341 191.43 101.072 191.477 100.755 191.477ZM100.883 190.724C101.214 190.724 101.494 190.659 101.721 190.529C101.951 190.399 102.123 190.231 102.239 190.025C102.358 189.819 102.417 189.602 102.417 189.375V188.608C102.381 188.651 102.303 188.69 102.183 188.725C102.064 188.758 101.927 188.788 101.771 188.814C101.617 188.838 101.466 188.859 101.32 188.878C101.175 188.894 101.058 188.909 100.968 188.92C100.75 188.949 100.547 188.995 100.357 189.059C100.17 189.12 100.019 189.214 99.9027 189.339C99.7891 189.463 99.7322 189.631 99.7322 189.844C99.7322 190.135 99.84 190.355 100.055 190.504C100.273 190.651 100.549 190.724 100.883 190.724ZM104.785 191.349V185.895H105.594V186.719H105.651C105.751 186.449 105.93 186.23 106.191 186.062C106.451 185.894 106.745 185.81 107.072 185.81C107.133 185.81 107.21 185.811 107.302 185.813C107.395 185.816 107.465 185.819 107.512 185.824V186.676C107.483 186.669 107.418 186.658 107.317 186.644C107.217 186.628 107.112 186.619 107.001 186.619C106.735 186.619 106.499 186.675 106.29 186.786C106.084 186.895 105.921 187.047 105.8 187.241C105.682 187.432 105.623 187.651 105.623 187.898V191.349H104.785Z" fill="white"/>
<path d="M6.40572 173.895L4.49876 179.349H2.79421L0.887251 173.895H2.48526L3.61808 177.798H3.67489L4.80415 173.895H6.40572ZM8.58878 179.452C8.24077 179.452 7.93063 179.392 7.65838 179.271C7.38613 179.148 7.17069 178.967 7.01207 178.728C6.85582 178.486 6.7777 178.186 6.7777 177.826C6.7777 177.523 6.83333 177.268 6.9446 177.062C7.05587 176.856 7.20739 176.691 7.39915 176.565C7.59091 176.44 7.80871 176.345 8.05256 176.281C8.29877 176.217 8.55682 176.172 8.8267 176.146C9.14394 176.113 9.39962 176.082 9.59375 176.054C9.78788 176.023 9.92874 175.978 10.0163 175.919C10.1039 175.86 10.1477 175.772 10.1477 175.656V175.635C10.1477 175.41 10.0767 175.236 9.93466 175.113C9.79498 174.99 9.59612 174.928 9.33807 174.928C9.06581 174.928 8.8492 174.989 8.68821 175.109C8.52723 175.228 8.42069 175.377 8.36861 175.557L6.96946 175.443C7.04048 175.112 7.18016 174.825 7.38849 174.584C7.59683 174.34 7.86553 174.153 8.1946 174.023C8.52604 173.89 8.90956 173.824 9.34517 173.824C9.6482 173.824 9.93821 173.859 10.2152 173.93C10.4946 174.001 10.742 174.111 10.9574 174.261C11.1752 174.41 11.3468 174.602 11.4723 174.836C11.5978 175.068 11.6605 175.346 11.6605 175.67V179.349H10.2259V178.593H10.1832C10.0956 178.763 9.97846 178.914 9.83168 179.044C9.6849 179.172 9.50852 179.272 9.30256 179.346C9.09659 179.417 8.85866 179.452 8.58878 179.452ZM9.02202 178.408C9.24456 178.408 9.44105 178.365 9.61151 178.277C9.78196 178.187 9.91572 178.066 10.0128 177.915C10.1098 177.763 10.1584 177.592 10.1584 177.4V176.821C10.111 176.852 10.0459 176.88 9.96307 176.906C9.88258 176.93 9.79143 176.952 9.68963 176.974C9.58783 176.993 9.48603 177.01 9.38423 177.027C9.28243 177.041 9.1901 177.054 9.10724 177.066C8.92969 177.092 8.77462 177.133 8.64205 177.19C8.50947 177.247 8.40649 177.324 8.3331 177.421C8.25971 177.516 8.22301 177.634 8.22301 177.776C8.22301 177.982 8.29759 178.14 8.44673 178.249C8.59825 178.355 8.79001 178.408 9.02202 178.408ZM14.3469 172.077V179.349H12.8342V172.077H14.3469ZM18.0233 179.456C17.4717 179.456 16.9946 179.339 16.5922 179.104C16.1921 178.868 15.8831 178.539 15.6653 178.117C15.4475 177.693 15.3386 177.202 15.3386 176.643C15.3386 176.08 15.4475 175.588 15.6653 175.166C15.8831 174.742 16.1921 174.413 16.5922 174.179C16.9946 173.942 17.4717 173.824 18.0233 173.824C18.5749 173.824 19.0507 173.942 19.4508 174.179C19.8533 174.413 20.1634 174.742 20.3812 175.166C20.599 175.588 20.7079 176.08 20.7079 176.643C20.7079 177.202 20.599 177.693 20.3812 178.117C20.1634 178.539 19.8533 178.868 19.4508 179.104C19.0507 179.339 18.5749 179.456 18.0233 179.456ZM18.0304 178.284C18.2813 178.284 18.4908 178.213 18.6589 178.071C18.827 177.927 18.9537 177.73 19.0389 177.481C19.1265 177.233 19.1703 176.95 19.1703 176.633C19.1703 176.316 19.1265 176.033 19.0389 175.784C18.9537 175.535 18.827 175.339 18.6589 175.195C18.4908 175.05 18.2813 174.978 18.0304 174.978C17.777 174.978 17.564 175.05 17.3912 175.195C17.2207 175.339 17.0917 175.535 17.0041 175.784C16.9189 176.033 16.8762 176.316 16.8762 176.633C16.8762 176.95 16.9189 177.233 17.0041 177.481C17.0917 177.73 17.2207 177.927 17.3912 178.071C17.564 178.213 17.777 178.284 18.0304 178.284ZM21.6916 179.349V173.895H23.1582V174.847H23.215C23.3145 174.508 23.4814 174.252 23.7157 174.08C23.9501 173.904 24.22 173.817 24.5254 173.817C24.6011 173.817 24.6828 173.821 24.7704 173.831C24.858 173.84 24.935 173.853 25.0012 173.87V175.212C24.9302 175.191 24.832 175.172 24.7065 175.156C24.581 175.139 24.4662 175.131 24.362 175.131C24.1395 175.131 23.9406 175.179 23.7654 175.276C23.5926 175.371 23.4553 175.504 23.3535 175.674C23.2541 175.844 23.2044 176.041 23.2044 176.263V179.349H21.6916ZM77.2775 181.395V173.895H78.769V174.811H78.8365C78.9028 174.664 78.9986 174.515 79.1241 174.364C79.252 174.21 79.4177 174.082 79.6213 173.98C79.8272 173.876 80.0829 173.824 80.3883 173.824C80.786 173.824 81.153 173.928 81.4892 174.136C81.8253 174.342 82.094 174.654 82.2953 175.07C82.4965 175.485 82.5971 176.004 82.5971 176.629C82.5971 177.238 82.4989 177.751 82.3024 178.17C82.1083 178.587 81.8431 178.903 81.5069 179.119C81.1731 179.332 80.7991 179.438 80.3848 179.438C80.0912 179.438 79.8414 179.39 79.6355 179.293C79.4319 179.196 79.265 179.074 79.1348 178.927C79.0046 178.778 78.9051 178.627 78.8365 178.476H78.7903V181.395H77.2775ZM78.7583 176.622C78.7583 176.946 78.8033 177.229 78.8933 177.471C78.9833 177.712 79.1135 177.901 79.2839 178.035C79.4544 178.168 79.6615 178.234 79.9054 178.234C80.1516 178.234 80.3599 178.167 80.5304 178.032C80.7008 177.895 80.8298 177.705 80.9174 177.464C81.0074 177.22 81.0524 176.939 81.0524 176.622C81.0524 176.307 81.0086 176.03 80.921 175.791C80.8334 175.552 80.7044 175.365 80.5339 175.23C80.3635 175.095 80.1539 175.028 79.9054 175.028C79.6592 175.028 79.4508 175.093 79.2804 175.223C79.1123 175.353 78.9833 175.538 78.8933 175.777C78.8033 176.016 78.7583 176.298 78.7583 176.622ZM86.0914 179.456C85.5304 179.456 85.0474 179.342 84.6426 179.115C84.2401 178.885 83.93 178.561 83.7122 178.142C83.4944 177.721 83.3855 177.222 83.3855 176.647C83.3855 176.086 83.4944 175.593 83.7122 175.17C83.93 174.746 84.2366 174.416 84.6319 174.179C85.0297 173.942 85.496 173.824 86.0311 173.824C86.3909 173.824 86.7259 173.882 87.036 173.998C87.3485 174.111 87.6208 174.283 87.8528 174.513C88.0872 174.742 88.2695 175.031 88.3997 175.379C88.5299 175.725 88.595 176.13 88.595 176.594V177.009H83.9892V176.072H87.171C87.171 175.854 87.1236 175.661 87.0289 175.493C86.9342 175.325 86.8029 175.193 86.6348 175.099C86.469 175.002 86.2761 174.953 86.0559 174.953C85.8263 174.953 85.6227 175.006 85.4451 175.113C85.2699 175.217 85.1326 175.358 85.0332 175.535C84.9338 175.711 84.8829 175.906 84.8805 176.121V177.013C84.8805 177.283 84.9302 177.516 85.0297 177.712C85.1315 177.909 85.2747 178.06 85.4593 178.167C85.644 178.273 85.863 178.327 86.1163 178.327C86.2844 178.327 86.4383 178.303 86.5779 178.256C86.7176 178.208 86.8372 178.137 86.9366 178.043C87.036 177.948 87.1118 177.832 87.1639 177.695L88.563 177.787C88.492 178.123 88.3464 178.417 88.1262 178.668C87.9084 178.916 87.6267 179.11 87.2811 179.25C86.9378 179.387 86.5413 179.456 86.0914 179.456ZM91.5922 179.438C91.1779 179.438 90.8026 179.332 90.4664 179.119C90.1326 178.903 89.8675 178.587 89.671 178.17C89.4769 177.751 89.3798 177.238 89.3798 176.629C89.3798 176.004 89.4804 175.485 89.6816 175.07C89.8829 174.654 90.1504 174.342 90.4842 174.136C90.8204 173.928 91.1885 173.824 91.5886 173.824C91.894 173.824 92.1485 173.876 92.3521 173.98C92.5581 174.082 92.7238 174.21 92.8493 174.364C92.9771 174.515 93.0742 174.664 93.1404 174.811H93.1866V172.077H94.6958V179.349H93.2044V178.476H93.1404C93.0694 178.627 92.9688 178.778 92.8386 178.927C92.7108 179.074 92.5439 179.196 92.3379 179.293C92.1343 179.39 91.8857 179.438 91.5922 179.438ZM92.0716 178.234C92.3154 178.234 92.5214 178.168 92.6895 178.035C92.8599 177.901 92.9901 177.712 93.0801 177.471C93.1724 177.229 93.2186 176.946 93.2186 176.622C93.2186 176.298 93.1736 176.016 93.0836 175.777C92.9937 175.538 92.8635 175.353 92.693 175.223C92.5225 175.093 92.3154 175.028 92.0716 175.028C91.823 175.028 91.6135 175.095 91.443 175.23C91.2725 175.365 91.1435 175.552 91.0559 175.791C90.9683 176.03 90.9245 176.307 90.9245 176.622C90.9245 176.939 90.9683 177.22 91.0559 177.464C91.1459 177.705 91.2749 177.895 91.443 178.032C91.6135 178.167 91.823 178.234 92.0716 178.234ZM95.9396 179.349V173.895H97.4062V174.847H97.4631C97.5625 174.508 97.7294 174.252 97.9638 174.08C98.1982 173.904 98.468 173.817 98.7734 173.817C98.8492 173.817 98.9309 173.821 99.0185 173.831C99.1061 173.84 99.183 173.853 99.2493 173.87V175.212C99.1783 175.191 99.08 175.172 98.9545 175.156C98.8291 175.139 98.7143 175.131 98.6101 175.131C98.3875 175.131 98.1887 175.179 98.0135 175.276C97.8407 175.371 97.7034 175.504 97.6016 175.674C97.5021 175.844 97.4524 176.041 97.4524 176.263V179.349H95.9396ZM101.431 179.452C101.083 179.452 100.772 179.392 100.5 179.271C100.228 179.148 100.012 178.967 99.8539 178.728C99.6976 178.486 99.6195 178.186 99.6195 177.826C99.6195 177.523 99.6751 177.268 99.7864 177.062C99.8977 176.856 100.049 176.691 100.241 176.565C100.433 176.44 100.651 176.345 100.894 176.281C101.141 176.217 101.399 176.172 101.669 176.146C101.986 176.113 102.241 176.082 102.436 176.054C102.63 176.023 102.771 175.978 102.858 175.919C102.946 175.86 102.99 175.772 102.99 175.656V175.635C102.99 175.41 102.919 175.236 102.776 175.113C102.637 174.99 102.438 174.928 102.18 174.928C101.908 174.928 101.691 174.989 101.53 175.109C101.369 175.228 101.262 175.377 101.21 175.557L99.8113 175.443C99.8823 175.112 100.022 174.825 100.23 174.584C100.439 174.34 100.707 174.153 101.036 174.023C101.368 173.89 101.751 173.824 102.187 173.824C102.49 173.824 102.78 173.859 103.057 173.93C103.336 174.001 103.584 174.111 103.799 174.261C104.017 174.41 104.189 174.602 104.314 174.836C104.44 175.068 104.502 175.346 104.502 175.67V179.349H103.068V178.593H103.025C102.937 178.763 102.82 178.914 102.673 179.044C102.527 179.172 102.35 179.272 102.144 179.346C101.938 179.417 101.7 179.452 101.431 179.452ZM101.864 178.408C102.086 178.408 102.283 178.365 102.453 178.277C102.624 178.187 102.758 178.066 102.855 177.915C102.952 177.763 103 177.592 103 177.4V176.821C102.953 176.852 102.888 176.88 102.805 176.906C102.724 176.93 102.633 176.952 102.531 176.974C102.43 176.993 102.328 177.01 102.226 177.027C102.124 177.041 102.032 177.054 101.949 177.066C101.771 177.092 101.616 177.133 101.484 177.19C101.351 177.247 101.248 177.324 101.175 177.421C101.102 177.516 101.065 177.634 101.065 177.776C101.065 177.982 101.139 178.14 101.289 178.249C101.44 178.355 101.632 178.408 101.864 178.408Z" fill="#04D47C"/>
<path d="M17.5 103.5L18.25 103.5L18.25 103.5L17.5 103.5ZM17.4999 93.5001L16.7499 93.5001L16.7499 93.5001L17.4999 93.5001ZM105 5.99997L105 5.24997H105L105 5.99997ZM169.03 6.5303C169.323 6.23741 169.323 5.76253 169.03 5.46964L164.257 0.69667C163.964 0.403776 163.489 0.403776 163.196 0.69667C162.903 0.989563 162.903 1.46444 163.196 1.75733L167.439 5.99997L163.196 10.2426C162.903 10.5355 162.903 11.0104 163.196 11.3033C163.489 11.5962 163.964 11.5962 164.257 11.3033L169.03 6.5303ZM18.2497 146.5L18.25 103.5L16.75 103.5L16.7497 146.5L18.2497 146.5ZM18.25 103.5L18.2499 93.5001L16.7499 93.5001L16.75 103.5L18.25 103.5ZM105 6.74997L168.499 6.74997L168.499 5.24997L105 5.24997L105 6.74997ZM18.2499 93.5001C18.2499 45.5894 57.0892 6.74998 105 6.74997L105 5.24997C56.2607 5.24998 16.7499 44.761 16.7499 93.5001L18.2499 93.5001Z" fill="white"/>
<path d="M110.717 136.617L109.967 136.617L109.967 136.617L110.717 136.617ZM152.287 73.9638L152.578 74.6549L152.578 74.6549L152.287 73.9638ZM193.195 57.2825C193.351 56.8988 193.166 56.4612 192.782 56.3052L186.53 53.7627C186.146 53.6067 185.708 53.7912 185.552 54.1749C185.396 54.5586 185.581 54.9962 185.965 55.1522L191.523 57.4122L189.263 62.9703C189.107 63.354 189.291 63.7916 189.675 63.9476C190.059 64.1036 190.496 63.919 190.652 63.5353L193.195 57.2825ZM111.467 172.849L111.467 136.617L109.967 136.617L109.967 172.849L111.467 172.849ZM152.578 74.6549L192.791 57.691L192.208 56.3089L151.995 73.2728L152.578 74.6549ZM111.467 136.617C111.467 109.576 127.663 85.1652 152.578 74.6549L151.995 73.2728C126.525 84.0175 109.967 108.973 109.967 136.617L111.467 136.617Z" fill="white"/>
</svg>
