<svg width="369" height="276" viewBox="0 0 369 276" fill="none" xmlns="http://www.w3.org/2000/svg">
<path d="M148.358 223H146.511L151.852 208.455H153.67L159.011 223H157.165L152.818 210.756H152.705L148.358 223ZM149.04 217.318H156.483V218.881H149.04V217.318ZM168.493 227.091V221.324H168.351C168.228 221.523 168.053 221.774 167.825 222.077C167.598 222.375 167.274 222.643 166.852 222.879C166.431 223.111 165.87 223.227 165.169 223.227C164.26 223.227 163.457 222.998 162.761 222.538C162.065 222.074 161.521 221.421 161.128 220.578C160.735 219.731 160.538 218.729 160.538 217.574C160.538 216.428 160.735 215.434 161.128 214.591C161.521 213.748 162.068 213.097 162.768 212.638C163.469 212.179 164.279 211.949 165.197 211.949C165.908 211.949 166.469 212.067 166.881 212.304C167.297 212.536 167.615 212.801 167.832 213.099C168.055 213.393 168.228 213.634 168.351 213.824H168.55V212.091H170.169V227.091H168.493ZM165.396 221.722C166.069 221.722 166.637 221.546 167.101 221.196C167.565 220.841 167.918 220.351 168.159 219.726C168.401 219.096 168.521 218.369 168.521 217.545C168.521 216.731 168.403 216.018 168.166 215.408C167.929 214.792 167.579 214.314 167.115 213.973C166.651 213.627 166.078 213.455 165.396 213.455C164.686 213.455 164.094 213.637 163.621 214.001C163.152 214.361 162.799 214.851 162.562 215.472C162.33 216.087 162.214 216.778 162.214 217.545C162.214 218.322 162.333 219.027 162.57 219.662C162.811 220.292 163.166 220.794 163.635 221.168C164.108 221.537 164.696 221.722 165.396 221.722ZM180.112 218.54V212.091H181.788V223H180.112V221.153H179.999C179.743 221.707 179.345 222.179 178.805 222.567C178.266 222.95 177.584 223.142 176.76 223.142C176.078 223.142 175.472 222.993 174.942 222.695C174.411 222.392 173.995 221.937 173.692 221.331C173.389 220.72 173.237 219.951 173.237 219.023V212.091H174.913V218.909C174.913 219.705 175.136 220.339 175.581 220.812C176.031 221.286 176.604 221.523 177.3 221.523C177.716 221.523 178.14 221.416 178.571 221.203C179.007 220.99 179.371 220.663 179.665 220.223C179.963 219.783 180.112 219.222 180.112 218.54ZM184.858 223V212.091H186.534V223H184.858ZM185.711 210.273C185.384 210.273 185.102 210.161 184.865 209.939C184.633 209.716 184.517 209.449 184.517 209.136C184.517 208.824 184.633 208.556 184.865 208.334C185.102 208.111 185.384 208 185.711 208C186.037 208 186.317 208.111 186.549 208.334C186.785 208.556 186.904 208.824 186.904 209.136C186.904 209.449 186.785 209.716 186.549 209.939C186.317 210.161 186.037 210.273 185.711 210.273ZM204.15 212.091L200.116 223H198.411L194.377 212.091H196.195L199.207 220.784H199.32L202.332 212.091H204.15ZM210.403 223.227C209.419 223.227 208.554 222.993 207.811 222.524C207.072 222.055 206.495 221.4 206.078 220.557C205.666 219.714 205.46 218.729 205.46 217.602C205.46 216.466 205.666 215.474 206.078 214.626C206.495 213.779 207.072 213.121 207.811 212.652C208.554 212.183 209.419 211.949 210.403 211.949C211.388 211.949 212.25 212.183 212.989 212.652C213.732 213.121 214.31 213.779 214.722 214.626C215.138 215.474 215.347 216.466 215.347 217.602C215.347 218.729 215.138 219.714 214.722 220.557C214.31 221.4 213.732 222.055 212.989 222.524C212.25 222.993 211.388 223.227 210.403 223.227ZM210.403 221.722C211.152 221.722 211.767 221.53 212.25 221.146C212.733 220.763 213.09 220.259 213.322 219.634C213.554 219.009 213.67 218.331 213.67 217.602C213.67 216.873 213.554 216.194 213.322 215.564C213.09 214.934 212.733 214.425 212.25 214.037C211.767 213.649 211.152 213.455 210.403 213.455C209.655 213.455 209.04 213.649 208.557 214.037C208.074 214.425 207.716 214.934 207.484 215.564C207.252 216.194 207.136 216.873 207.136 217.602C207.136 218.331 207.252 219.009 207.484 219.634C207.716 220.259 208.074 220.763 208.557 221.146C209.04 221.53 209.655 221.722 210.403 221.722ZM222.337 223.227C221.314 223.227 220.434 222.986 219.695 222.503C218.956 222.02 218.388 221.355 217.99 220.507C217.593 219.66 217.394 218.691 217.394 217.602C217.394 216.494 217.597 215.517 218.005 214.669C218.417 213.817 218.989 213.152 219.723 212.673C220.462 212.19 221.324 211.949 222.309 211.949C223.076 211.949 223.767 212.091 224.382 212.375C224.998 212.659 225.502 213.057 225.895 213.568C226.288 214.08 226.532 214.676 226.627 215.358H224.951C224.823 214.861 224.539 214.42 224.098 214.037C223.663 213.649 223.076 213.455 222.337 213.455C221.684 213.455 221.111 213.625 220.618 213.966C220.131 214.302 219.749 214.778 219.475 215.393C219.205 216.004 219.07 216.722 219.07 217.545C219.07 218.388 219.203 219.122 219.468 219.747C219.738 220.372 220.116 220.857 220.604 221.203C221.096 221.549 221.674 221.722 222.337 221.722C222.773 221.722 223.168 221.646 223.523 221.494C223.878 221.343 224.179 221.125 224.425 220.841C224.671 220.557 224.846 220.216 224.951 219.818H226.627C226.532 220.462 226.298 221.042 225.924 221.558C225.554 222.07 225.064 222.477 224.453 222.78C223.847 223.078 223.142 223.227 222.337 223.227ZM233.651 223.227C232.6 223.227 231.693 222.995 230.931 222.531C230.173 222.062 229.588 221.409 229.176 220.571C228.769 219.728 228.566 218.748 228.566 217.631C228.566 216.513 228.769 215.528 229.176 214.676C229.588 213.819 230.161 213.152 230.895 212.673C231.634 212.19 232.496 211.949 233.48 211.949C234.049 211.949 234.61 212.044 235.164 212.233C235.718 212.422 236.222 212.73 236.676 213.156C237.131 213.578 237.493 214.136 237.763 214.832C238.033 215.528 238.168 216.385 238.168 217.403V218.114H229.759V216.665H236.463C236.463 216.049 236.34 215.5 236.094 215.017C235.853 214.534 235.507 214.153 235.057 213.874C234.612 213.594 234.087 213.455 233.48 213.455C232.813 213.455 232.235 213.62 231.748 213.952C231.265 214.278 230.893 214.705 230.632 215.23C230.372 215.756 230.242 216.319 230.242 216.92V217.886C230.242 218.71 230.384 219.409 230.668 219.982C230.957 220.55 231.357 220.983 231.868 221.281C232.38 221.575 232.974 221.722 233.651 221.722C234.091 221.722 234.489 221.66 234.844 221.537C235.204 221.409 235.514 221.22 235.775 220.969C236.035 220.713 236.236 220.396 236.378 220.017L237.998 220.472C237.827 221.021 237.541 221.504 237.138 221.92C236.736 222.332 236.239 222.654 235.647 222.886C235.055 223.114 234.39 223.227 233.651 223.227ZM234.873 210.784L233.395 208.795L231.918 210.784H230.327V210.67L232.628 207.716H234.162L236.463 210.67V210.784H234.873ZM255.263 212.091L251.229 223H249.525L245.49 212.091H247.309L250.32 220.784H250.434L253.445 212.091H255.263ZM261.659 223.227C260.608 223.227 259.701 222.995 258.939 222.531C258.181 222.062 257.596 221.409 257.184 220.571C256.777 219.728 256.574 218.748 256.574 217.631C256.574 216.513 256.777 215.528 257.184 214.676C257.596 213.819 258.169 213.152 258.903 212.673C259.642 212.19 260.503 211.949 261.488 211.949C262.056 211.949 262.618 212.044 263.172 212.233C263.725 212.422 264.23 212.73 264.684 213.156C265.139 213.578 265.501 214.136 265.771 214.832C266.041 215.528 266.176 216.385 266.176 217.403V218.114H257.767V216.665H264.471C264.471 216.049 264.348 215.5 264.102 215.017C263.86 214.534 263.515 214.153 263.065 213.874C262.62 213.594 262.094 213.455 261.488 213.455C260.821 213.455 260.243 213.62 259.755 213.952C259.272 214.278 258.901 214.705 258.64 215.23C258.38 215.756 258.25 216.319 258.25 216.92V217.886C258.25 218.71 258.392 219.409 258.676 219.982C258.965 220.55 259.365 220.983 259.876 221.281C260.387 221.575 260.982 221.722 261.659 221.722C262.099 221.722 262.497 221.66 262.852 221.537C263.212 221.409 263.522 221.22 263.782 220.969C264.043 220.713 264.244 220.396 264.386 220.017L266.005 220.472C265.835 221.021 265.548 221.504 265.146 221.92C264.743 222.332 264.246 222.654 263.654 222.886C263.063 223.114 262.397 223.227 261.659 223.227ZM262.88 210.784L261.403 208.795L259.926 210.784H258.335V210.67L260.636 207.716H262.17L264.471 210.67V210.784H262.88ZM278.782 223.227C277.797 223.227 276.933 222.993 276.19 222.524C275.451 222.055 274.874 221.4 274.457 220.557C274.045 219.714 273.839 218.729 273.839 217.602C273.839 216.466 274.045 215.474 274.457 214.626C274.874 213.779 275.451 213.121 276.19 212.652C276.933 212.183 277.797 211.949 278.782 211.949C279.767 211.949 280.629 212.183 281.368 212.652C282.111 213.121 282.689 213.779 283.1 214.626C283.517 215.474 283.725 216.466 283.725 217.602C283.725 218.729 283.517 219.714 283.1 220.557C282.689 221.4 282.111 222.055 281.368 222.524C280.629 222.993 279.767 223.227 278.782 223.227ZM278.782 221.722C279.53 221.722 280.146 221.53 280.629 221.146C281.112 220.763 281.469 220.259 281.701 219.634C281.933 219.009 282.049 218.331 282.049 217.602C282.049 216.873 281.933 216.194 281.701 215.564C281.469 214.934 281.112 214.425 280.629 214.037C280.146 213.649 279.53 213.455 278.782 213.455C278.034 213.455 277.419 213.649 276.936 214.037C276.453 214.425 276.095 214.934 275.863 215.564C275.631 216.194 275.515 216.873 275.515 217.602C275.515 218.331 275.631 219.009 275.863 219.634C276.095 220.259 276.453 220.763 276.936 221.146C277.419 221.53 278.034 221.722 278.782 221.722ZM300.83 212.091L296.795 223H295.091L291.057 212.091H292.875L295.886 220.784H296L299.011 212.091H300.83ZM305.92 223.256C305.229 223.256 304.601 223.125 304.038 222.865C303.475 222.6 303.027 222.219 302.696 221.722C302.364 221.22 302.199 220.614 302.199 219.903C302.199 219.278 302.322 218.772 302.568 218.384C302.814 217.991 303.143 217.683 303.555 217.46C303.967 217.238 304.422 217.072 304.919 216.963C305.421 216.849 305.925 216.759 306.431 216.693C307.094 216.608 307.632 216.544 308.044 216.501C308.46 216.454 308.763 216.376 308.953 216.267C309.147 216.158 309.244 215.969 309.244 215.699V215.642C309.244 214.941 309.052 214.397 308.669 214.009C308.29 213.62 307.715 213.426 306.943 213.426C306.143 213.426 305.515 213.601 305.061 213.952C304.606 214.302 304.287 214.676 304.102 215.074L302.511 214.506C302.795 213.843 303.174 213.327 303.647 212.957C304.126 212.583 304.646 212.323 305.21 212.176C305.778 212.025 306.337 211.949 306.886 211.949C307.236 211.949 307.639 211.991 308.093 212.077C308.553 212.157 308.995 212.325 309.422 212.581C309.852 212.837 310.21 213.223 310.494 213.739C310.778 214.255 310.92 214.946 310.92 215.812V223H309.244V221.523H309.159C309.045 221.759 308.856 222.013 308.591 222.283C308.325 222.553 307.973 222.782 307.532 222.972C307.092 223.161 306.555 223.256 305.92 223.256ZM306.176 221.75C306.839 221.75 307.397 221.62 307.852 221.359C308.311 221.099 308.657 220.763 308.889 220.351C309.126 219.939 309.244 219.506 309.244 219.051V217.517C309.173 217.602 309.017 217.68 308.775 217.751C308.538 217.818 308.264 217.877 307.951 217.929C307.644 217.976 307.343 218.019 307.049 218.057C306.761 218.09 306.526 218.118 306.346 218.142C305.911 218.199 305.503 218.291 305.125 218.419C304.751 218.542 304.448 218.729 304.216 218.98C303.988 219.226 303.875 219.562 303.875 219.989C303.875 220.571 304.09 221.011 304.521 221.31C304.957 221.603 305.508 221.75 306.176 221.75ZM315.656 208.455V223H313.979V208.455H315.656ZM323.157 223.227C322.172 223.227 321.308 222.993 320.565 222.524C319.826 222.055 319.249 221.4 318.832 220.557C318.42 219.714 318.214 218.729 318.214 217.602C318.214 216.466 318.42 215.474 318.832 214.626C319.249 213.779 319.826 213.121 320.565 212.652C321.308 212.183 322.172 211.949 323.157 211.949C324.142 211.949 325.004 212.183 325.743 212.652C326.486 213.121 327.064 213.779 327.475 214.626C327.892 215.474 328.1 216.466 328.1 217.602C328.1 218.729 327.892 219.714 327.475 220.557C327.064 221.4 326.486 222.055 325.743 222.524C325.004 222.993 324.142 223.227 323.157 223.227ZM323.157 221.722C323.905 221.722 324.521 221.53 325.004 221.146C325.487 220.763 325.844 220.259 326.076 219.634C326.308 219.009 326.424 218.331 326.424 217.602C326.424 216.873 326.308 216.194 326.076 215.564C325.844 214.934 325.487 214.425 325.004 214.037C324.521 213.649 323.905 213.455 323.157 213.455C322.409 213.455 321.794 213.649 321.311 214.037C320.828 214.425 320.47 214.934 320.238 215.564C320.006 216.194 319.89 216.873 319.89 217.602C319.89 218.331 320.006 219.009 320.238 219.634C320.47 220.259 320.828 220.763 321.311 221.146C321.794 221.53 322.409 221.722 323.157 221.722ZM330.659 223V212.091H332.278V213.739H332.392C332.591 213.199 332.951 212.761 333.472 212.425C333.992 212.089 334.58 211.92 335.233 211.92C335.356 211.92 335.51 211.923 335.695 211.928C335.879 211.932 336.019 211.939 336.114 211.949V213.653C336.057 213.639 335.927 213.618 335.723 213.589C335.524 213.556 335.313 213.54 335.091 213.54C334.561 213.54 334.087 213.651 333.67 213.874C333.259 214.091 332.932 214.394 332.69 214.783C332.454 215.166 332.335 215.604 332.335 216.097V223H330.659ZM348.299 223.227C347.248 223.227 346.342 222.995 345.579 222.531C344.822 222.062 344.237 221.409 343.825 220.571C343.418 219.728 343.214 218.748 343.214 217.631C343.214 216.513 343.418 215.528 343.825 214.676C344.237 213.819 344.81 213.152 345.544 212.673C346.282 212.19 347.144 211.949 348.129 211.949C348.697 211.949 349.258 212.044 349.812 212.233C350.366 212.422 350.87 212.73 351.325 213.156C351.779 213.578 352.142 214.136 352.412 214.832C352.681 215.528 352.816 216.385 352.816 217.403V218.114H344.407V216.665H351.112C351.112 216.049 350.989 215.5 350.743 215.017C350.501 214.534 350.155 214.153 349.706 213.874C349.261 213.594 348.735 213.455 348.129 213.455C347.461 213.455 346.884 213.62 346.396 213.952C345.913 214.278 345.541 214.705 345.281 215.23C345.02 215.756 344.89 216.319 344.89 216.92V217.886C344.89 218.71 345.032 219.409 345.316 219.982C345.605 220.55 346.005 220.983 346.517 221.281C347.028 221.575 347.622 221.722 348.299 221.722C348.74 221.722 349.137 221.66 349.493 221.537C349.852 221.409 350.163 221.22 350.423 220.969C350.683 220.713 350.885 220.396 351.027 220.017L352.646 220.472C352.475 221.021 352.189 221.504 351.787 221.92C351.384 222.332 350.887 222.654 350.295 222.886C349.703 223.114 349.038 223.227 348.299 223.227ZM150.744 247.256C150.053 247.256 149.426 247.125 148.862 246.865C148.299 246.6 147.851 246.219 147.52 245.722C147.188 245.22 147.023 244.614 147.023 243.903C147.023 243.278 147.146 242.772 147.392 242.384C147.638 241.991 147.967 241.683 148.379 241.46C148.791 241.238 149.246 241.072 149.743 240.963C150.245 240.849 150.749 240.759 151.256 240.693C151.919 240.608 152.456 240.544 152.868 240.501C153.285 240.454 153.588 240.376 153.777 240.267C153.971 240.158 154.068 239.969 154.068 239.699V239.642C154.068 238.941 153.876 238.397 153.493 238.009C153.114 237.62 152.539 237.426 151.767 237.426C150.967 237.426 150.339 237.601 149.885 237.952C149.43 238.302 149.111 238.676 148.926 239.074L147.335 238.506C147.619 237.843 147.998 237.327 148.472 236.957C148.95 236.583 149.471 236.323 150.034 236.176C150.602 236.025 151.161 235.949 151.71 235.949C152.061 235.949 152.463 235.991 152.918 236.077C153.377 236.157 153.82 236.325 154.246 236.581C154.677 236.837 155.034 237.223 155.318 237.739C155.602 238.255 155.744 238.946 155.744 239.812V247H154.068V245.523H153.983C153.869 245.759 153.68 246.013 153.415 246.283C153.15 246.553 152.797 246.782 152.357 246.972C151.916 247.161 151.379 247.256 150.744 247.256ZM151 245.75C151.663 245.75 152.222 245.62 152.676 245.359C153.135 245.099 153.481 244.763 153.713 244.351C153.95 243.939 154.068 243.506 154.068 243.051V241.517C153.997 241.602 153.841 241.68 153.599 241.751C153.363 241.818 153.088 241.877 152.776 241.929C152.468 241.976 152.167 242.019 151.874 242.057C151.585 242.09 151.35 242.118 151.17 242.142C150.735 242.199 150.328 242.291 149.949 242.419C149.575 242.542 149.272 242.729 149.04 242.98C148.813 243.226 148.699 243.562 148.699 243.989C148.699 244.571 148.914 245.011 149.345 245.31C149.781 245.603 150.332 245.75 151 245.75ZM164.429 251.091V236.091H166.048V237.824H166.247C166.37 237.634 166.54 237.393 166.758 237.099C166.981 236.801 167.298 236.536 167.71 236.304C168.127 236.067 168.69 235.949 169.4 235.949C170.319 235.949 171.128 236.179 171.829 236.638C172.53 237.097 173.077 237.748 173.47 238.591C173.863 239.434 174.059 240.428 174.059 241.574C174.059 242.729 173.863 243.731 173.47 244.578C173.077 245.421 172.532 246.074 171.836 246.538C171.14 246.998 170.338 247.227 169.429 247.227C168.728 247.227 168.167 247.111 167.745 246.879C167.324 246.643 167 246.375 166.772 246.077C166.545 245.774 166.37 245.523 166.247 245.324H166.105V251.091H164.429ZM166.076 241.545C166.076 242.369 166.197 243.096 166.439 243.726C166.68 244.351 167.033 244.841 167.497 245.196C167.961 245.546 168.529 245.722 169.201 245.722C169.902 245.722 170.487 245.537 170.956 245.168C171.429 244.794 171.784 244.292 172.021 243.662C172.262 243.027 172.383 242.322 172.383 241.545C172.383 240.778 172.265 240.087 172.028 239.472C171.796 238.851 171.443 238.361 170.97 238.001C170.501 237.637 169.912 237.455 169.201 237.455C168.52 237.455 167.947 237.627 167.483 237.973C167.019 238.314 166.668 238.792 166.431 239.408C166.195 240.018 166.076 240.731 166.076 241.545ZM181.19 247.227C180.139 247.227 179.232 246.995 178.47 246.531C177.712 246.062 177.127 245.409 176.716 244.571C176.308 243.728 176.105 242.748 176.105 241.631C176.105 240.513 176.308 239.528 176.716 238.676C177.127 237.819 177.7 237.152 178.434 236.673C179.173 236.19 180.035 235.949 181.02 235.949C181.588 235.949 182.149 236.044 182.703 236.233C183.257 236.422 183.761 236.73 184.216 237.156C184.67 237.578 185.032 238.136 185.302 238.832C185.572 239.528 185.707 240.385 185.707 241.403V242.114H177.298V240.665H184.002C184.002 240.049 183.879 239.5 183.633 239.017C183.392 238.534 183.046 238.153 182.596 237.874C182.151 237.594 181.626 237.455 181.02 237.455C180.352 237.455 179.774 237.62 179.287 237.952C178.804 238.278 178.432 238.705 178.172 239.23C177.911 239.756 177.781 240.319 177.781 240.92V241.886C177.781 242.71 177.923 243.409 178.207 243.982C178.496 244.55 178.896 244.983 179.407 245.281C179.919 245.575 180.513 245.722 181.19 245.722C181.63 245.722 182.028 245.66 182.383 245.537C182.743 245.409 183.053 245.22 183.314 244.969C183.574 244.713 183.775 244.396 183.917 244.017L185.537 244.472C185.366 245.021 185.08 245.504 184.677 245.92C184.275 246.332 183.778 246.654 183.186 246.886C182.594 247.114 181.929 247.227 181.19 247.227ZM192.376 247.227C191.467 247.227 190.664 246.998 189.968 246.538C189.272 246.074 188.728 245.421 188.335 244.578C187.942 243.731 187.745 242.729 187.745 241.574C187.745 240.428 187.942 239.434 188.335 238.591C188.728 237.748 189.275 237.097 189.975 236.638C190.676 236.179 191.486 235.949 192.404 235.949C193.115 235.949 193.676 236.067 194.088 236.304C194.504 236.536 194.822 236.801 195.039 237.099C195.262 237.393 195.435 237.634 195.558 237.824H195.7V232.455H197.376V247H195.757V245.324H195.558C195.435 245.523 195.26 245.774 195.032 246.077C194.805 246.375 194.481 246.643 194.059 246.879C193.638 247.111 193.077 247.227 192.376 247.227ZM192.603 245.722C193.276 245.722 193.844 245.546 194.308 245.196C194.772 244.841 195.125 244.351 195.366 243.726C195.608 243.096 195.728 242.369 195.728 241.545C195.728 240.731 195.61 240.018 195.373 239.408C195.136 238.792 194.786 238.314 194.322 237.973C193.858 237.627 193.285 237.455 192.603 237.455C191.893 237.455 191.301 237.637 190.828 238.001C190.359 238.361 190.006 238.851 189.77 239.472C189.538 240.087 189.422 240.778 189.422 241.545C189.422 242.322 189.54 243.027 189.777 243.662C190.018 244.292 190.373 244.794 190.842 245.168C191.315 245.537 191.903 245.722 192.603 245.722ZM200.679 247V236.091H202.298V237.739H202.412C202.61 237.199 202.97 236.761 203.491 236.425C204.012 236.089 204.599 235.92 205.252 235.92C205.376 235.92 205.529 235.923 205.714 235.928C205.899 235.932 206.038 235.939 206.133 235.949V237.653C206.076 237.639 205.946 237.618 205.743 237.589C205.544 237.556 205.333 237.54 205.11 237.54C204.58 237.54 204.107 237.651 203.69 237.874C203.278 238.091 202.951 238.394 202.71 238.783C202.473 239.166 202.355 239.604 202.355 240.097V247H200.679ZM211.33 247.256C210.639 247.256 210.012 247.125 209.448 246.865C208.885 246.6 208.437 246.219 208.106 245.722C207.774 245.22 207.609 244.614 207.609 243.903C207.609 243.278 207.732 242.772 207.978 242.384C208.224 241.991 208.553 241.683 208.965 241.46C209.377 241.238 209.832 241.072 210.329 240.963C210.831 240.849 211.335 240.759 211.842 240.693C212.504 240.608 213.042 240.544 213.454 240.501C213.871 240.454 214.174 240.376 214.363 240.267C214.557 240.158 214.654 239.969 214.654 239.699V239.642C214.654 238.941 214.462 238.397 214.079 238.009C213.7 237.62 213.125 237.426 212.353 237.426C211.553 237.426 210.925 237.601 210.471 237.952C210.016 238.302 209.697 238.676 209.512 239.074L207.921 238.506C208.205 237.843 208.584 237.327 209.058 236.957C209.536 236.583 210.057 236.323 210.62 236.176C211.188 236.025 211.747 235.949 212.296 235.949C212.647 235.949 213.049 235.991 213.504 236.077C213.963 236.157 214.406 236.325 214.832 236.581C215.263 236.837 215.62 237.223 215.904 237.739C216.188 238.255 216.33 238.946 216.33 239.812V247H214.654V245.523H214.569C214.455 245.759 214.266 246.013 214.001 246.283C213.736 246.553 213.383 246.782 212.942 246.972C212.502 247.161 211.965 247.256 211.33 247.256ZM211.586 245.75C212.249 245.75 212.808 245.62 213.262 245.359C213.721 245.099 214.067 244.763 214.299 244.351C214.536 243.939 214.654 243.506 214.654 243.051V241.517C214.583 241.602 214.427 241.68 214.185 241.751C213.949 241.818 213.674 241.877 213.362 241.929C213.054 241.976 212.753 242.019 212.46 242.057C212.171 242.09 211.936 242.118 211.756 242.142C211.321 242.199 210.914 242.291 210.535 242.419C210.161 242.542 209.858 242.729 209.626 242.98C209.398 243.226 209.285 243.562 209.285 243.989C209.285 244.571 209.5 245.011 209.931 245.31C210.367 245.603 210.918 245.75 211.586 245.75ZM232.458 251.091V245.324H232.316C232.193 245.523 232.017 245.774 231.79 246.077C231.563 246.375 231.239 246.643 230.817 246.879C230.396 247.111 229.835 247.227 229.134 247.227C228.225 247.227 227.422 246.998 226.726 246.538C226.03 246.074 225.486 245.421 225.093 244.578C224.7 243.731 224.503 242.729 224.503 241.574C224.503 240.428 224.7 239.434 225.093 238.591C225.486 237.748 226.033 237.097 226.733 236.638C227.434 236.179 228.244 235.949 229.162 235.949C229.873 235.949 230.434 236.067 230.846 236.304C231.262 236.536 231.579 236.801 231.797 237.099C232.02 237.393 232.193 237.634 232.316 237.824H232.515V236.091H234.134V251.091H232.458ZM229.361 245.722C230.033 245.722 230.602 245.546 231.066 245.196C231.53 244.841 231.882 244.351 232.124 243.726C232.365 243.096 232.486 242.369 232.486 241.545C232.486 240.731 232.368 240.018 232.131 239.408C231.894 238.792 231.544 238.314 231.08 237.973C230.616 237.627 230.043 237.455 229.361 237.455C228.651 237.455 228.059 237.637 227.586 238.001C227.117 238.361 226.764 238.851 226.527 239.472C226.295 240.087 226.179 240.778 226.179 241.545C226.179 242.322 226.298 243.027 226.534 243.662C226.776 244.292 227.131 244.794 227.6 245.168C228.073 245.537 228.66 245.722 229.361 245.722ZM244.077 242.54V236.091H245.753V247H244.077V245.153H243.963C243.708 245.707 243.31 246.179 242.77 246.567C242.23 246.95 241.549 247.142 240.725 247.142C240.043 247.142 239.437 246.993 238.907 246.695C238.376 246.392 237.96 245.937 237.657 245.331C237.354 244.72 237.202 243.951 237.202 243.023V236.091H238.878V242.909C238.878 243.705 239.101 244.339 239.546 244.812C239.996 245.286 240.569 245.523 241.265 245.523C241.681 245.523 242.105 245.416 242.536 245.203C242.971 244.99 243.336 244.663 243.63 244.223C243.928 243.783 244.077 243.222 244.077 242.54ZM253.397 247.227C252.346 247.227 251.439 246.995 250.677 246.531C249.919 246.062 249.335 245.409 248.923 244.571C248.515 243.728 248.312 242.748 248.312 241.631C248.312 240.513 248.515 239.528 248.923 238.676C249.335 237.819 249.907 237.152 250.641 236.673C251.38 236.19 252.242 235.949 253.227 235.949C253.795 235.949 254.356 236.044 254.91 236.233C255.464 236.422 255.968 236.73 256.423 237.156C256.877 237.578 257.239 238.136 257.509 238.832C257.779 239.528 257.914 240.385 257.914 241.403V242.114H249.505V240.665H256.21C256.21 240.049 256.086 239.5 255.84 239.017C255.599 238.534 255.253 238.153 254.803 237.874C254.358 237.594 253.833 237.455 253.227 237.455C252.559 237.455 251.981 237.62 251.494 237.952C251.011 238.278 250.639 238.705 250.379 239.23C250.118 239.756 249.988 240.319 249.988 240.92V241.886C249.988 242.71 250.13 243.409 250.414 243.982C250.703 244.55 251.103 244.983 251.614 245.281C252.126 245.575 252.72 245.722 253.397 245.722C253.837 245.722 254.235 245.66 254.59 245.537C254.95 245.409 255.26 245.22 255.521 244.969C255.781 244.713 255.982 244.396 256.124 244.017L257.744 244.472C257.573 245.021 257.287 245.504 256.884 245.92C256.482 246.332 255.985 246.654 255.393 246.886C254.801 247.114 254.136 247.227 253.397 247.227ZM275.009 236.091L270.975 247H269.271L265.237 236.091H267.055L270.066 244.784H270.18L273.191 236.091H275.009ZM281.263 247.227C280.278 247.227 279.414 246.993 278.67 246.524C277.932 246.055 277.354 245.4 276.938 244.557C276.526 243.714 276.32 242.729 276.32 241.602C276.32 240.466 276.526 239.474 276.938 238.626C277.354 237.779 277.932 237.121 278.67 236.652C279.414 236.183 280.278 235.949 281.263 235.949C282.248 235.949 283.109 236.183 283.848 236.652C284.591 237.121 285.169 237.779 285.581 238.626C285.998 239.474 286.206 240.466 286.206 241.602C286.206 242.729 285.998 243.714 285.581 244.557C285.169 245.4 284.591 246.055 283.848 246.524C283.109 246.993 282.248 247.227 281.263 247.227ZM281.263 245.722C282.011 245.722 282.626 245.53 283.109 245.146C283.592 244.763 283.95 244.259 284.182 243.634C284.414 243.009 284.53 242.331 284.53 241.602C284.53 240.873 284.414 240.194 284.182 239.564C283.95 238.934 283.592 238.425 283.109 238.037C282.626 237.649 282.011 237.455 281.263 237.455C280.515 237.455 279.899 237.649 279.416 238.037C278.933 238.425 278.576 238.934 278.344 239.564C278.112 240.194 277.996 240.873 277.996 241.602C277.996 242.331 278.112 243.009 278.344 243.634C278.576 244.259 278.933 244.763 279.416 245.146C279.899 245.53 280.515 245.722 281.263 245.722ZM293.196 247.227C292.174 247.227 291.293 246.986 290.554 246.503C289.816 246.02 289.248 245.355 288.85 244.507C288.452 243.66 288.253 242.691 288.253 241.602C288.253 240.494 288.457 239.517 288.864 238.669C289.276 237.817 289.849 237.152 290.583 236.673C291.321 236.19 292.183 235.949 293.168 235.949C293.935 235.949 294.626 236.091 295.242 236.375C295.857 236.659 296.362 237.057 296.755 237.568C297.148 238.08 297.391 238.676 297.486 239.358H295.81C295.682 238.861 295.398 238.42 294.958 238.037C294.522 237.649 293.935 237.455 293.196 237.455C292.543 237.455 291.97 237.625 291.478 237.966C290.99 238.302 290.609 238.778 290.334 239.393C290.064 240.004 289.929 240.722 289.929 241.545C289.929 242.388 290.062 243.122 290.327 243.747C290.597 244.372 290.976 244.857 291.463 245.203C291.956 245.549 292.533 245.722 293.196 245.722C293.632 245.722 294.027 245.646 294.382 245.494C294.738 245.343 295.038 245.125 295.284 244.841C295.531 244.557 295.706 244.216 295.81 243.818H297.486C297.391 244.462 297.157 245.042 296.783 245.558C296.414 246.07 295.924 246.477 295.313 246.78C294.707 247.078 294.001 247.227 293.196 247.227ZM304.51 247.227C303.459 247.227 302.552 246.995 301.79 246.531C301.033 246.062 300.448 245.409 300.036 244.571C299.629 243.728 299.425 242.748 299.425 241.631C299.425 240.513 299.629 239.528 300.036 238.676C300.448 237.819 301.021 237.152 301.755 236.673C302.493 236.19 303.355 235.949 304.34 235.949C304.908 235.949 305.469 236.044 306.023 236.233C306.577 236.422 307.081 236.73 307.536 237.156C307.99 237.578 308.353 238.136 308.623 238.832C308.892 239.528 309.027 240.385 309.027 241.403V242.114H300.618V240.665H307.323C307.323 240.049 307.2 239.5 306.953 239.017C306.712 238.534 306.366 238.153 305.917 237.874C305.471 237.594 304.946 237.455 304.34 237.455C303.672 237.455 303.095 237.62 302.607 237.952C302.124 238.278 301.752 238.705 301.492 239.23C301.231 239.756 301.101 240.319 301.101 240.92V241.886C301.101 242.71 301.243 243.409 301.527 243.982C301.816 244.55 302.216 244.983 302.728 245.281C303.239 245.575 303.833 245.722 304.51 245.722C304.951 245.722 305.348 245.66 305.703 245.537C306.063 245.409 306.373 245.22 306.634 244.969C306.894 244.713 307.096 244.396 307.238 244.017L308.857 244.472C308.686 245.021 308.4 245.504 307.998 245.92C307.595 246.332 307.098 246.654 306.506 246.886C305.914 247.114 305.249 247.227 304.51 247.227ZM305.732 234.784L304.255 232.795L302.777 234.784H301.186V234.67L303.488 231.716H305.022L307.323 234.67V234.784H305.732ZM152.108 271.227C151.057 271.227 150.15 270.995 149.388 270.531C148.63 270.062 148.045 269.409 147.634 268.571C147.226 267.728 147.023 266.748 147.023 265.631C147.023 264.513 147.226 263.528 147.634 262.676C148.045 261.819 148.618 261.152 149.352 260.673C150.091 260.19 150.953 259.949 151.938 259.949C152.506 259.949 153.067 260.044 153.621 260.233C154.175 260.422 154.679 260.73 155.134 261.156C155.588 261.578 155.95 262.136 156.22 262.832C156.49 263.528 156.625 264.385 156.625 265.403V266.114H148.216V264.665H154.92C154.92 264.049 154.797 263.5 154.551 263.017C154.31 262.534 153.964 262.153 153.514 261.874C153.069 261.594 152.544 261.455 151.938 261.455C151.27 261.455 150.692 261.62 150.205 261.952C149.722 262.278 149.35 262.705 149.089 263.23C148.829 263.756 148.699 264.319 148.699 264.92V265.886C148.699 266.71 148.841 267.409 149.125 267.982C149.414 268.55 149.814 268.983 150.325 269.281C150.837 269.575 151.431 269.722 152.108 269.722C152.548 269.722 152.946 269.66 153.301 269.537C153.661 269.409 153.971 269.22 154.232 268.969C154.492 268.713 154.693 268.396 154.835 268.017L156.455 268.472C156.284 269.021 155.998 269.504 155.595 269.92C155.193 270.332 154.696 270.654 154.104 270.886C153.512 271.114 152.847 271.227 152.108 271.227ZM166.902 262.534L165.396 262.96C165.302 262.709 165.162 262.465 164.977 262.229C164.797 261.987 164.551 261.788 164.239 261.632C163.926 261.476 163.526 261.398 163.038 261.398C162.371 261.398 161.814 261.552 161.369 261.859C160.929 262.162 160.709 262.548 160.709 263.017C160.709 263.434 160.86 263.763 161.163 264.004C161.466 264.246 161.94 264.447 162.584 264.608L164.203 265.006C165.179 265.242 165.905 265.605 166.384 266.092C166.862 266.575 167.101 267.198 167.101 267.96C167.101 268.585 166.921 269.144 166.561 269.636C166.206 270.129 165.709 270.517 165.07 270.801C164.43 271.085 163.687 271.227 162.839 271.227C161.727 271.227 160.806 270.986 160.077 270.503C159.348 270.02 158.886 269.314 158.692 268.386L160.283 267.989C160.434 268.576 160.721 269.016 161.142 269.31C161.568 269.603 162.125 269.75 162.811 269.75C163.592 269.75 164.213 269.584 164.672 269.253C165.136 268.917 165.368 268.514 165.368 268.045C165.368 267.667 165.235 267.349 164.97 267.094C164.705 266.833 164.298 266.639 163.749 266.511L161.93 266.085C160.931 265.848 160.197 265.482 159.729 264.984C159.265 264.482 159.033 263.855 159.033 263.102C159.033 262.487 159.205 261.942 159.551 261.469C159.902 260.995 160.377 260.624 160.979 260.354C161.585 260.084 162.271 259.949 163.038 259.949C164.118 259.949 164.965 260.186 165.581 260.659C166.201 261.133 166.642 261.758 166.902 262.534ZM174.056 271.227C173.033 271.227 172.152 270.986 171.414 270.503C170.675 270.02 170.107 269.355 169.709 268.507C169.311 267.66 169.113 266.691 169.113 265.602C169.113 264.494 169.316 263.517 169.723 262.669C170.135 261.817 170.708 261.152 171.442 260.673C172.181 260.19 173.042 259.949 174.027 259.949C174.794 259.949 175.486 260.091 176.101 260.375C176.717 260.659 177.221 261.057 177.614 261.568C178.007 262.08 178.251 262.676 178.346 263.358H176.669C176.542 262.861 176.257 262.42 175.817 262.037C175.382 261.649 174.794 261.455 174.056 261.455C173.402 261.455 172.829 261.625 172.337 261.966C171.849 262.302 171.468 262.778 171.194 263.393C170.924 264.004 170.789 264.722 170.789 265.545C170.789 266.388 170.921 267.122 171.186 267.747C171.456 268.372 171.835 268.857 172.323 269.203C172.815 269.549 173.393 269.722 174.056 269.722C174.491 269.722 174.887 269.646 175.242 269.494C175.597 269.343 175.898 269.125 176.144 268.841C176.39 268.557 176.565 268.216 176.669 267.818H178.346C178.251 268.462 178.016 269.042 177.642 269.558C177.273 270.07 176.783 270.477 176.172 270.78C175.566 271.078 174.861 271.227 174.056 271.227ZM185.228 271.227C184.243 271.227 183.379 270.993 182.635 270.524C181.897 270.055 181.319 269.4 180.902 268.557C180.49 267.714 180.284 266.729 180.284 265.602C180.284 264.466 180.49 263.474 180.902 262.626C181.319 261.779 181.897 261.121 182.635 260.652C183.379 260.183 184.243 259.949 185.228 259.949C186.212 259.949 187.074 260.183 187.813 260.652C188.556 261.121 189.134 261.779 189.546 262.626C189.962 263.474 190.171 264.466 190.171 265.602C190.171 266.729 189.962 267.714 189.546 268.557C189.134 269.4 188.556 270.055 187.813 270.524C187.074 270.993 186.212 271.227 185.228 271.227ZM185.228 269.722C185.976 269.722 186.591 269.53 187.074 269.146C187.557 268.763 187.915 268.259 188.147 267.634C188.379 267.009 188.495 266.331 188.495 265.602C188.495 264.873 188.379 264.194 188.147 263.564C187.915 262.934 187.557 262.425 187.074 262.037C186.591 261.649 185.976 261.455 185.228 261.455C184.48 261.455 183.864 261.649 183.381 262.037C182.898 262.425 182.541 262.934 182.309 263.564C182.077 264.194 181.961 264.873 181.961 265.602C181.961 266.331 182.077 267.009 182.309 267.634C182.541 268.259 182.898 268.763 183.381 269.146C183.864 269.53 184.48 269.722 185.228 269.722ZM194.406 256.455V271H192.729V256.455H194.406ZM199.152 264.438V271H197.475V256.455H199.152V261.795H199.294C199.549 261.232 199.933 260.785 200.444 260.453C200.96 260.117 201.647 259.949 202.504 259.949C203.247 259.949 203.898 260.098 204.457 260.396C205.016 260.69 205.449 261.142 205.757 261.753C206.069 262.359 206.225 263.131 206.225 264.068V271H204.549V264.182C204.549 263.315 204.324 262.645 203.875 262.172C203.43 261.694 202.812 261.455 202.021 261.455C201.472 261.455 200.979 261.571 200.544 261.803C200.113 262.035 199.772 262.373 199.521 262.818C199.275 263.263 199.152 263.803 199.152 264.438ZM213.866 271.227C212.815 271.227 211.908 270.995 211.146 270.531C210.388 270.062 209.803 269.409 209.391 268.571C208.984 267.728 208.781 266.748 208.781 265.631C208.781 264.513 208.984 263.528 209.391 262.676C209.803 261.819 210.376 261.152 211.11 260.673C211.849 260.19 212.71 259.949 213.695 259.949C214.263 259.949 214.825 260.044 215.379 260.233C215.933 260.422 216.437 260.73 216.891 261.156C217.346 261.578 217.708 262.136 217.978 262.832C218.248 263.528 218.383 264.385 218.383 265.403V266.114H209.974V264.665H216.678C216.678 264.049 216.555 263.5 216.309 263.017C216.067 262.534 215.722 262.153 215.272 261.874C214.827 261.594 214.301 261.455 213.695 261.455C213.028 261.455 212.45 261.62 211.962 261.952C211.479 262.278 211.108 262.705 210.847 263.23C210.587 263.756 210.457 264.319 210.457 264.92V265.886C210.457 266.71 210.599 267.409 210.883 267.982C211.172 268.55 211.572 268.983 212.083 269.281C212.594 269.575 213.189 269.722 213.866 269.722C214.306 269.722 214.704 269.66 215.059 269.537C215.419 269.409 215.729 269.22 215.989 268.969C216.25 268.713 216.451 268.396 216.593 268.017L218.212 268.472C218.042 269.021 217.755 269.504 217.353 269.92C216.951 270.332 216.453 270.654 215.862 270.886C215.27 271.114 214.604 271.227 213.866 271.227ZM227.808 266.54V260.091H229.484V271H227.808V269.153H227.694C227.438 269.707 227.04 270.179 226.501 270.567C225.961 270.95 225.279 271.142 224.455 271.142C223.773 271.142 223.167 270.993 222.637 270.695C222.107 270.392 221.69 269.937 221.387 269.331C221.084 268.72 220.933 267.951 220.933 267.023V260.091H222.609V266.909C222.609 267.705 222.831 268.339 223.276 268.812C223.726 269.286 224.299 269.523 224.995 269.523C225.412 269.523 225.835 269.416 226.266 269.203C226.702 268.99 227.067 268.663 227.36 268.223C227.658 267.783 227.808 267.222 227.808 266.54Z" fill="white"/>
<path d="M217.673 179.094L219.049 178.497L217.673 179.094ZM45.527 11.6281L46.0859 10.2362L46.0859 10.2362L45.527 11.6281ZM33.4111 5.62048C32.6493 5.94582 32.2954 6.82717 32.6207 7.58904L37.9224 20.0044C38.2478 20.7663 39.1291 21.1202 39.891 20.7949C40.6529 20.4695 41.0067 19.5882 40.6814 18.8263L35.9688 7.79038L47.0047 3.07776C47.7666 2.75242 48.1204 1.87107 47.7951 1.1092C47.4698 0.347327 46.5884 -0.00655233 45.8265 0.318786L33.4111 5.62048ZM219.876 180.403L219.049 178.497L216.297 179.691L217.124 181.597L219.876 180.403ZM46.0859 10.2362L34.5591 5.60798L33.4413 8.39195L44.968 13.0201L46.0859 10.2362ZM219.049 178.497C185.786 101.833 123.638 41.3745 46.0859 10.2362L44.968 13.0201C121.787 43.8643 183.348 103.751 216.297 179.691L219.049 178.497Z" fill="white"/>
</svg>
