<svg width="108" height="285" viewBox="0 0 108 285" fill="none" xmlns="http://www.w3.org/2000/svg">
<path d="M5.868 9.14H2.22L1.548 11H0.396L3.42 2.684H4.68L7.692 11H6.54L5.868 9.14ZM5.556 8.252L4.044 4.028L2.532 8.252H5.556ZM8.60194 7.688C8.60194 7.016 8.73794 6.428 9.00994 5.924C9.28194 5.412 9.65394 5.016 10.1259 4.736C10.6059 4.456 11.1419 4.316 11.7339 4.316C12.3019 4.316 12.7979 4.444 13.2219 4.7C13.6539 4.948 13.9699 5.256 14.1699 5.624V4.424H15.2739V14.12H14.1699V9.788C13.9619 10.156 13.6419 10.468 13.2099 10.724C12.7779 10.98 12.2739 11.108 11.6979 11.108C11.1219 11.108 10.5979 10.964 10.1259 10.676C9.65394 10.388 9.28194 9.984 9.00994 9.464C8.73794 8.944 8.60194 8.352 8.60194 7.688ZM14.1699 7.7C14.1699 7.204 14.0699 6.772 13.8699 6.404C13.6699 6.036 13.3979 5.756 13.0539 5.564C12.7179 5.364 12.3459 5.264 11.9379 5.264C11.5299 5.264 11.1579 5.36 10.8219 5.552C10.4859 5.744 10.2179 6.024 10.0179 6.392C9.81794 6.76 9.71794 7.192 9.71794 7.688C9.71794 8.192 9.81794 8.632 10.0179 9.008C10.2179 9.376 10.4859 9.66 10.8219 9.86C11.1579 10.052 11.5299 10.148 11.9379 10.148C12.3459 10.148 12.7179 10.052 13.0539 9.86C13.3979 9.66 13.6699 9.376 13.8699 9.008C14.0699 8.632 14.1699 8.196 14.1699 7.7ZM22.9513 4.424V11H21.8593V10.028C21.6513 10.364 21.3593 10.628 20.9833 10.82C20.6153 11.004 20.2073 11.096 19.7593 11.096C19.2473 11.096 18.7873 10.992 18.3793 10.784C17.9713 10.568 17.6473 10.248 17.4073 9.824C17.1753 9.4 17.0593 8.884 17.0593 8.276V4.424H18.1393V8.132C18.1393 8.78 18.3033 9.28 18.6313 9.632C18.9593 9.976 19.4073 10.148 19.9753 10.148C20.5593 10.148 21.0193 9.968 21.3553 9.608C21.6913 9.248 21.8593 8.724 21.8593 8.036V4.424H22.9513ZM25.3591 3.356C25.1511 3.356 24.9751 3.284 24.8311 3.14C24.6871 2.996 24.6151 2.82 24.6151 2.612C24.6151 2.404 24.6871 2.228 24.8311 2.084C24.9751 1.94 25.1511 1.868 25.3591 1.868C25.5591 1.868 25.7271 1.94 25.8631 2.084C26.0071 2.228 26.0791 2.404 26.0791 2.612C26.0791 2.82 26.0071 2.996 25.8631 3.14C25.7271 3.284 25.5591 3.356 25.3591 3.356ZM25.8871 4.424V11H24.7951V4.424H25.8871ZM36.9474 7.46C36.9474 7.668 36.9354 7.888 36.9114 8.12H31.6554C31.6954 8.768 31.9154 9.276 32.3154 9.644C32.7234 10.004 33.2154 10.184 33.7914 10.184C34.2634 10.184 34.6554 10.076 34.9674 9.86C35.2874 9.636 35.5114 9.34 35.6394 8.972H36.8154C36.6394 9.604 36.2874 10.12 35.7594 10.52C35.2314 10.912 34.5754 11.108 33.7914 11.108C33.1674 11.108 32.6074 10.968 32.1114 10.688C31.6234 10.408 31.2394 10.012 30.9594 9.5C30.6794 8.98 30.5394 8.38 30.5394 7.7C30.5394 7.02 30.6754 6.424 30.9474 5.912C31.2194 5.4 31.5994 5.008 32.0874 4.736C32.5834 4.456 33.1514 4.316 33.7914 4.316C34.4154 4.316 34.9674 4.452 35.4474 4.724C35.9274 4.996 36.2954 5.372 36.5514 5.852C36.8154 6.324 36.9474 6.86 36.9474 7.46ZM35.8194 7.232C35.8194 6.816 35.7274 6.46 35.5434 6.164C35.3594 5.86 35.1074 5.632 34.7874 5.48C34.4754 5.32 34.1274 5.24 33.7434 5.24C33.1914 5.24 32.7194 5.416 32.3274 5.768C31.9434 6.12 31.7234 6.608 31.6674 7.232H35.8194ZM34.9194 2.564L32.3634 3.932V3.116L34.9194 1.616V2.564ZM44.4561 11.108C43.8401 11.108 43.2801 10.968 42.7761 10.688C42.2801 10.408 41.8881 10.012 41.6001 9.5C41.3201 8.98 41.1801 8.38 41.1801 7.7C41.1801 7.028 41.3241 6.436 41.6121 5.924C41.9081 5.404 42.3081 5.008 42.8121 4.736C43.3161 4.456 43.8801 4.316 44.5041 4.316C45.1281 4.316 45.6921 4.456 46.1961 4.736C46.7001 5.008 47.0961 5.4 47.3841 5.912C47.6801 6.424 47.8281 7.02 47.8281 7.7C47.8281 8.38 47.6761 8.98 47.3721 9.5C47.0761 10.012 46.6721 10.408 46.1601 10.688C45.6481 10.968 45.0801 11.108 44.4561 11.108ZM44.4561 10.148C44.8481 10.148 45.2161 10.056 45.5601 9.872C45.9041 9.688 46.1801 9.412 46.3881 9.044C46.6041 8.676 46.7121 8.228 46.7121 7.7C46.7121 7.172 46.6081 6.724 46.4001 6.356C46.1921 5.988 45.9201 5.716 45.5841 5.54C45.2481 5.356 44.8841 5.264 44.4921 5.264C44.0921 5.264 43.7241 5.356 43.3881 5.54C43.0601 5.716 42.7961 5.988 42.5961 6.356C42.3961 6.724 42.2961 7.172 42.2961 7.7C42.2961 8.236 42.3921 8.688 42.5841 9.056C42.7841 9.424 43.0481 9.7 43.3761 9.884C43.7041 10.06 44.0641 10.148 44.4561 10.148ZM53.5551 2.12V11H52.4631V2.12H53.5551ZM61.2482 4.424V11H60.1562V10.028C59.9482 10.364 59.6562 10.628 59.2802 10.82C58.9122 11.004 58.5042 11.096 58.0562 11.096C57.5442 11.096 57.0842 10.992 56.6762 10.784C56.2682 10.568 55.9442 10.248 55.7042 9.824C55.4722 9.4 55.3562 8.884 55.3562 8.276V4.424H56.4362V8.132C56.4362 8.78 56.6002 9.28 56.9282 9.632C57.2562 9.976 57.7042 10.148 58.2722 10.148C58.8562 10.148 59.3162 9.968 59.6522 9.608C59.9882 9.248 60.1562 8.724 60.1562 8.036V4.424H61.2482ZM62.684 7.7C62.684 7.02 62.82 6.428 63.092 5.924C63.364 5.412 63.74 5.016 64.22 4.736C64.708 4.456 65.264 4.316 65.888 4.316C66.696 4.316 67.36 4.512 67.88 4.904C68.408 5.296 68.756 5.84 68.924 6.536H67.748C67.636 6.136 67.416 5.82 67.088 5.588C66.768 5.356 66.368 5.24 65.888 5.24C65.264 5.24 64.76 5.456 64.376 5.888C63.992 6.312 63.8 6.916 63.8 7.7C63.8 8.492 63.992 9.104 64.376 9.536C64.76 9.968 65.264 10.184 65.888 10.184C66.368 10.184 66.768 10.072 67.088 9.848C67.408 9.624 67.628 9.304 67.748 8.888H68.924C68.748 9.56 68.396 10.1 67.868 10.508C67.34 10.908 66.68 11.108 65.888 11.108C65.264 11.108 64.708 10.968 64.22 10.688C63.74 10.408 63.364 10.012 63.092 9.5C62.82 8.988 62.684 8.388 62.684 7.7ZM71.473 5.492C71.665 5.116 71.937 4.824 72.289 4.616C72.649 4.408 73.085 4.304 73.597 4.304V5.432H73.309C72.085 5.432 71.473 6.096 71.473 7.424V11H70.381V4.424H71.473V5.492ZM77.7256 11.108C77.1096 11.108 76.5496 10.968 76.0456 10.688C75.5496 10.408 75.1576 10.012 74.8696 9.5C74.5896 8.98 74.4496 8.38 74.4496 7.7C74.4496 7.028 74.5936 6.436 74.8816 5.924C75.1776 5.404 75.5776 5.008 76.0816 4.736C76.5856 4.456 77.1496 4.316 77.7736 4.316C78.3976 4.316 78.9616 4.456 79.4656 4.736C79.9696 5.008 80.3656 5.4 80.6536 5.912C80.9496 6.424 81.0976 7.02 81.0976 7.7C81.0976 8.38 80.9456 8.98 80.6416 9.5C80.3456 10.012 79.9416 10.408 79.4296 10.688C78.9176 10.968 78.3496 11.108 77.7256 11.108ZM77.7256 10.148C78.1176 10.148 78.4856 10.056 78.8296 9.872C79.1736 9.688 79.4496 9.412 79.6576 9.044C79.8736 8.676 79.9816 8.228 79.9816 7.7C79.9816 7.172 79.8776 6.724 79.6696 6.356C79.4616 5.988 79.1896 5.716 78.8536 5.54C78.5176 5.356 78.1536 5.264 77.7616 5.264C77.3616 5.264 76.9936 5.356 76.6576 5.54C76.3296 5.716 76.0656 5.988 75.8656 6.356C75.6656 6.724 75.5656 7.172 75.5656 7.7C75.5656 8.236 75.6616 8.688 75.8536 9.056C76.0536 9.424 76.3176 9.7 76.6456 9.884C76.9736 10.06 77.3336 10.148 77.7256 10.148ZM91.7326 7.46C91.7326 7.668 91.7206 7.888 91.6966 8.12H86.4406C86.4806 8.768 86.7006 9.276 87.1006 9.644C87.5086 10.004 88.0006 10.184 88.5766 10.184C89.0486 10.184 89.4406 10.076 89.7526 9.86C90.0726 9.636 90.2966 9.34 90.4246 8.972H91.6006C91.4246 9.604 91.0726 10.12 90.5446 10.52C90.0166 10.912 89.3606 11.108 88.5766 11.108C87.9526 11.108 87.3926 10.968 86.8966 10.688C86.4086 10.408 86.0246 10.012 85.7446 9.5C85.4646 8.98 85.3246 8.38 85.3246 7.7C85.3246 7.02 85.4606 6.424 85.7326 5.912C86.0046 5.4 86.3846 5.008 86.8726 4.736C87.3686 4.456 87.9366 4.316 88.5766 4.316C89.2006 4.316 89.7526 4.452 90.2326 4.724C90.7126 4.996 91.0806 5.372 91.3366 5.852C91.6006 6.324 91.7326 6.86 91.7326 7.46ZM90.6046 7.232C90.6046 6.816 90.5126 6.46 90.3286 6.164C90.1446 5.86 89.8926 5.632 89.5726 5.48C89.2606 5.32 88.9126 5.24 88.5286 5.24C87.9766 5.24 87.5046 5.416 87.1126 5.768C86.7286 6.12 86.5086 6.608 86.4526 7.232H90.6046ZM101.082 4.304C101.594 4.304 102.05 4.412 102.45 4.628C102.85 4.836 103.166 5.152 103.398 5.576C103.63 6 103.746 6.516 103.746 7.124V11H102.666V7.28C102.666 6.624 102.502 6.124 102.174 5.78C101.854 5.428 101.418 5.252 100.866 5.252C100.298 5.252 99.846 5.436 99.51 5.804C99.174 6.164 99.006 6.688 99.006 7.376V11H97.926V7.28C97.926 6.624 97.762 6.124 97.434 5.78C97.114 5.428 96.678 5.252 96.126 5.252C95.558 5.252 95.106 5.436 94.77 5.804C94.434 6.164 94.266 6.688 94.266 7.376V11H93.174V4.424H94.266V5.372C94.482 5.028 94.77 4.764 95.13 4.58C95.498 4.396 95.902 4.304 96.342 4.304C96.894 4.304 97.382 4.428 97.806 4.676C98.23 4.924 98.546 5.288 98.754 5.768C98.938 5.304 99.242 4.944 99.666 4.688C100.09 4.432 100.562 4.304 101.082 4.304ZM0.516 21.7C0.516 21.02 0.652 20.428 0.924 19.924C1.196 19.412 1.572 19.016 2.052 18.736C2.54 18.456 3.096 18.316 3.72 18.316C4.528 18.316 5.192 18.512 5.712 18.904C6.24 19.296 6.588 19.84 6.756 20.536H5.58C5.468 20.136 5.248 19.82 4.92 19.588C4.6 19.356 4.2 19.24 3.72 19.24C3.096 19.24 2.592 19.456 2.208 19.888C1.824 20.312 1.632 20.916 1.632 21.7C1.632 22.492 1.824 23.104 2.208 23.536C2.592 23.968 3.096 24.184 3.72 24.184C4.2 24.184 4.6 24.072 4.92 23.848C5.24 23.624 5.46 23.304 5.58 22.888H6.756C6.58 23.56 6.228 24.1 5.7 24.508C5.172 24.908 4.512 25.108 3.72 25.108C3.096 25.108 2.54 24.968 2.052 24.688C1.572 24.408 1.196 24.012 0.924 23.5C0.652 22.988 0.516 22.388 0.516 21.7ZM7.80506 21.688C7.80506 21.016 7.94106 20.428 8.21306 19.924C8.48506 19.412 8.85706 19.016 9.32906 18.736C9.80906 18.456 10.3411 18.316 10.9251 18.316C11.5011 18.316 12.0011 18.44 12.4251 18.688C12.8491 18.936 13.1651 19.248 13.3731 19.624V18.424H14.4771V25H13.3731V23.776C13.1571 24.16 12.8331 24.48 12.4011 24.736C11.9771 24.984 11.4811 25.108 10.9131 25.108C10.3291 25.108 9.80106 24.964 9.32906 24.676C8.85706 24.388 8.48506 23.984 8.21306 23.464C7.94106 22.944 7.80506 22.352 7.80506 21.688ZM13.3731 21.7C13.3731 21.204 13.2731 20.772 13.0731 20.404C12.8731 20.036 12.6011 19.756 12.2571 19.564C11.9211 19.364 11.5491 19.264 11.1411 19.264C10.7331 19.264 10.3611 19.36 10.0251 19.552C9.68906 19.744 9.42106 20.024 9.22106 20.392C9.02106 20.76 8.92106 21.192 8.92106 21.688C8.92106 22.192 9.02106 22.632 9.22106 23.008C9.42106 23.376 9.68906 23.66 10.0251 23.86C10.3611 24.052 10.7331 24.148 11.1411 24.148C11.5491 24.148 11.9211 24.052 12.2571 23.86C12.6011 23.66 12.8731 23.376 13.0731 23.008C13.2731 22.632 13.3731 22.196 13.3731 21.7ZM18.6504 25.108C18.1464 25.108 17.6944 25.024 17.2944 24.856C16.8944 24.68 16.5784 24.44 16.3464 24.136C16.1144 23.824 15.9864 23.468 15.9624 23.068H17.0904C17.1224 23.396 17.2744 23.664 17.5464 23.872C17.8264 24.08 18.1904 24.184 18.6384 24.184C19.0544 24.184 19.3824 24.092 19.6224 23.908C19.8624 23.724 19.9824 23.492 19.9824 23.212C19.9824 22.924 19.8544 22.712 19.5984 22.576C19.3424 22.432 18.9464 22.292 18.4104 22.156C17.9224 22.028 17.5224 21.9 17.2104 21.772C16.9064 21.636 16.6424 21.44 16.4184 21.184C16.2024 20.92 16.0944 20.576 16.0944 20.152C16.0944 19.816 16.1944 19.508 16.3944 19.228C16.5944 18.948 16.8784 18.728 17.2464 18.568C17.6144 18.4 18.0344 18.316 18.5064 18.316C19.2344 18.316 19.8224 18.5 20.2704 18.868C20.7184 19.236 20.9584 19.74 20.9904 20.38H19.8984C19.8744 20.036 19.7344 19.76 19.4784 19.552C19.2304 19.344 18.8944 19.24 18.4704 19.24C18.0784 19.24 17.7664 19.324 17.5344 19.492C17.3024 19.66 17.1864 19.88 17.1864 20.152C17.1864 20.368 17.2544 20.548 17.3904 20.692C17.5344 20.828 17.7104 20.94 17.9184 21.028C18.1344 21.108 18.4304 21.2 18.8064 21.304C19.2784 21.432 19.6624 21.56 19.9584 21.688C20.2544 21.808 20.5064 21.992 20.7144 22.24C20.9304 22.488 21.0424 22.812 21.0504 23.212C21.0504 23.572 20.9504 23.896 20.7504 24.184C20.5504 24.472 20.2664 24.7 19.8984 24.868C19.5384 25.028 19.1224 25.108 18.6504 25.108ZM25.46 25.108C24.844 25.108 24.284 24.968 23.78 24.688C23.284 24.408 22.892 24.012 22.604 23.5C22.324 22.98 22.184 22.38 22.184 21.7C22.184 21.028 22.328 20.436 22.616 19.924C22.912 19.404 23.312 19.008 23.816 18.736C24.32 18.456 24.884 18.316 25.508 18.316C26.132 18.316 26.696 18.456 27.2 18.736C27.704 19.008 28.1 19.4 28.388 19.912C28.684 20.424 28.832 21.02 28.832 21.7C28.832 22.38 28.68 22.98 28.376 23.5C28.08 24.012 27.676 24.408 27.164 24.688C26.652 24.968 26.084 25.108 25.46 25.108ZM25.46 24.148C25.852 24.148 26.22 24.056 26.564 23.872C26.908 23.688 27.184 23.412 27.392 23.044C27.608 22.676 27.716 22.228 27.716 21.7C27.716 21.172 27.612 20.724 27.404 20.356C27.196 19.988 26.924 19.716 26.588 19.54C26.252 19.356 25.888 19.264 25.496 19.264C25.096 19.264 24.728 19.356 24.392 19.54C24.064 19.716 23.8 19.988 23.6 20.356C23.4 20.724 23.3 21.172 23.3 21.7C23.3 22.236 23.396 22.688 23.588 23.056C23.788 23.424 24.052 23.7 24.38 23.884C24.708 24.06 25.068 24.148 25.46 24.148ZM33.059 21.688C33.059 21.016 33.195 20.428 33.467 19.924C33.739 19.412 34.111 19.016 34.583 18.736C35.063 18.456 35.599 18.316 36.191 18.316C36.703 18.316 37.179 18.436 37.619 18.676C38.059 18.908 38.395 19.216 38.627 19.6V16.12H39.731V25H38.627V23.764C38.411 24.156 38.091 24.48 37.667 24.736C37.243 24.984 36.747 25.108 36.179 25.108C35.595 25.108 35.063 24.964 34.583 24.676C34.111 24.388 33.739 23.984 33.467 23.464C33.195 22.944 33.059 22.352 33.059 21.688ZM38.627 21.7C38.627 21.204 38.527 20.772 38.327 20.404C38.127 20.036 37.855 19.756 37.511 19.564C37.175 19.364 36.803 19.264 36.395 19.264C35.987 19.264 35.615 19.36 35.279 19.552C34.943 19.744 34.675 20.024 34.475 20.392C34.275 20.76 34.175 21.192 34.175 21.688C34.175 22.192 34.275 22.632 34.475 23.008C34.675 23.376 34.943 23.66 35.279 23.86C35.615 24.052 35.987 24.148 36.395 24.148C36.803 24.148 37.175 24.052 37.511 23.86C37.855 23.66 38.127 23.376 38.327 23.008C38.527 22.632 38.627 22.196 38.627 21.7ZM47.5763 21.46C47.5763 21.668 47.5643 21.888 47.5403 22.12H42.2843C42.3243 22.768 42.5443 23.276 42.9443 23.644C43.3523 24.004 43.8443 24.184 44.4203 24.184C44.8923 24.184 45.2843 24.076 45.5963 23.86C45.9163 23.636 46.1403 23.34 46.2683 22.972H47.4443C47.2683 23.604 46.9163 24.12 46.3883 24.52C45.8603 24.912 45.2043 25.108 44.4203 25.108C43.7963 25.108 43.2363 24.968 42.7403 24.688C42.2523 24.408 41.8683 24.012 41.5883 23.5C41.3083 22.98 41.1683 22.38 41.1683 21.7C41.1683 21.02 41.3043 20.424 41.5763 19.912C41.8483 19.4 42.2283 19.008 42.7163 18.736C43.2123 18.456 43.7803 18.316 44.4203 18.316C45.0443 18.316 45.5963 18.452 46.0763 18.724C46.5563 18.996 46.9243 19.372 47.1803 19.852C47.4443 20.324 47.5763 20.86 47.5763 21.46ZM46.4483 21.232C46.4483 20.816 46.3563 20.46 46.1723 20.164C45.9883 19.86 45.7363 19.632 45.4163 19.48C45.1043 19.32 44.7563 19.24 44.3723 19.24C43.8203 19.24 43.3483 19.416 42.9563 19.768C42.5723 20.12 42.3523 20.608 42.2963 21.232H46.4483Z" fill="white"/>
<path d="M55.049 23.08L56.501 18.304H58.685L56.309 25H53.777L51.401 18.304H53.597L55.049 23.08ZM60.5807 17.608C60.2207 17.608 59.9247 17.504 59.6927 17.296C59.4687 17.08 59.3567 16.816 59.3567 16.504C59.3567 16.184 59.4687 15.92 59.6927 15.712C59.9247 15.496 60.2207 15.388 60.5807 15.388C60.9327 15.388 61.2207 15.496 61.4447 15.712C61.6767 15.92 61.7927 16.184 61.7927 16.504C61.7927 16.816 61.6767 17.08 61.4447 17.296C61.2207 17.504 60.9327 17.608 60.5807 17.608ZM61.6007 18.304V25H59.5487V18.304H61.6007ZM66.8198 23.26V25H65.7758C65.0318 25 64.4518 24.82 64.0358 24.46C63.6198 24.092 63.4118 23.496 63.4118 22.672V20.008H62.5958V18.304H63.4118V16.672H65.4638V18.304H66.8078V20.008H65.4638V22.696C65.4638 22.896 65.5118 23.04 65.6078 23.128C65.7038 23.216 65.8638 23.26 66.0878 23.26H66.8198ZM71.0108 25.096C70.3548 25.096 69.7628 24.956 69.2348 24.676C68.7148 24.396 68.3028 23.996 67.9988 23.476C67.7028 22.956 67.5548 22.348 67.5548 21.652C67.5548 20.964 67.7068 20.36 68.0107 19.84C68.3148 19.312 68.7308 18.908 69.2588 18.628C69.7868 18.348 70.3788 18.208 71.0348 18.208C71.6908 18.208 72.2828 18.348 72.8108 18.628C73.3388 18.908 73.7548 19.312 74.0588 19.84C74.3628 20.36 74.5148 20.964 74.5148 21.652C74.5148 22.34 74.3588 22.948 74.0468 23.476C73.7428 23.996 73.3228 24.396 72.7868 24.676C72.2588 24.956 71.6668 25.096 71.0108 25.096ZM71.0108 23.32C71.4028 23.32 71.7348 23.176 72.0068 22.888C72.2868 22.6 72.4268 22.188 72.4268 21.652C72.4268 21.116 72.2908 20.704 72.0188 20.416C71.7548 20.128 71.4268 19.984 71.0348 19.984C70.6348 19.984 70.3028 20.128 70.0388 20.416C69.7748 20.696 69.6428 21.108 69.6428 21.652C69.6428 22.188 69.7708 22.6 70.0268 22.888C70.2908 23.176 70.6188 23.32 71.0108 23.32ZM77.6554 19.42C77.8954 19.052 78.1954 18.764 78.5554 18.556C78.9154 18.34 79.3154 18.232 79.7554 18.232V20.404H79.1914C78.6794 20.404 78.2954 20.516 78.0394 20.74C77.7834 20.956 77.6554 21.34 77.6554 21.892V25H75.6034V18.304H77.6554V19.42ZM81.7682 17.608C81.4082 17.608 81.1122 17.504 80.8802 17.296C80.6562 17.08 80.5442 16.816 80.5442 16.504C80.5442 16.184 80.6562 15.92 80.8802 15.712C81.1122 15.496 81.4082 15.388 81.7682 15.388C82.1202 15.388 82.4082 15.496 82.6322 15.712C82.8642 15.92 82.9802 16.184 82.9802 16.504C82.9802 16.816 82.8642 17.08 82.6322 17.296C82.4082 17.504 82.1202 17.608 81.7682 17.608ZM82.7882 18.304V25H80.7362V18.304H82.7882ZM83.8673 21.64C83.8673 20.952 83.9953 20.348 84.2513 19.828C84.5153 19.308 84.8713 18.908 85.3193 18.628C85.7673 18.348 86.2673 18.208 86.8193 18.208C87.2913 18.208 87.7033 18.304 88.0553 18.496C88.4153 18.688 88.6913 18.94 88.8833 19.252V18.304H90.9353V25H88.8833V24.052C88.6833 24.364 88.4033 24.616 88.0433 24.808C87.6913 25 87.2793 25.096 86.8073 25.096C86.2633 25.096 85.7673 24.956 85.3193 24.676C84.8713 24.388 84.5153 23.984 84.2513 23.464C83.9953 22.936 83.8673 22.328 83.8673 21.64ZM88.8833 21.652C88.8833 21.14 88.7393 20.736 88.4513 20.44C88.1713 20.144 87.8273 19.996 87.4193 19.996C87.0113 19.996 86.6633 20.144 86.3753 20.44C86.0953 20.728 85.9553 21.128 85.9553 21.64C85.9553 22.152 86.0953 22.56 86.3753 22.864C86.6633 23.16 87.0113 23.308 87.4193 23.308C87.8273 23.308 88.1713 23.16 88.4513 22.864C88.7393 22.568 88.8833 22.164 88.8833 21.652Z" fill="#04D47C"/>
<path d="M39.3769 174.639L41.3495 174.309L39.3769 174.639ZM56.3384 284.628C57.2376 285.27 58.4866 285.061 59.1281 284.162L69.5821 269.508C70.2236 268.609 70.0148 267.36 69.1156 266.719C68.2164 266.077 66.9674 266.286 66.3259 267.185L57.0334 280.21L44.0084 270.918C43.1093 270.276 41.8603 270.485 41.2188 271.384C40.5773 272.284 40.7861 273.533 41.6853 274.174L56.3384 284.628ZM31.5 40.5V103.873H35.5V40.5H31.5ZM37.4043 174.969L55.5274 283.33L59.4726 282.67L41.3495 174.309L37.4043 174.969ZM31.5 103.873C31.5 127.694 33.4749 151.474 37.4043 174.969L41.3495 174.309C37.4565 151.032 35.5 127.473 35.5 103.873H31.5Z" fill="#04D47C"/>
</svg>
