<svg width="313" height="42" viewBox="0 0 313 42" fill="none" xmlns="http://www.w3.org/2000/svg">
<path d="M11.736 22.28H4.44L3.096 26H0.792L6.84 9.368H9.36L15.384 26H13.08L11.736 22.28ZM11.112 20.504L8.088 12.056L5.064 20.504H11.112ZM17.2039 19.376C17.2039 18.032 17.4759 16.856 18.0199 15.848C18.5639 14.824 19.3079 14.032 20.2519 13.472C21.2119 12.912 22.2839 12.632 23.4679 12.632C24.6039 12.632 25.5959 12.888 26.4439 13.4C27.3079 13.896 27.9399 14.512 28.3399 15.248V12.848H30.5479V32.24H28.3399V23.576C27.9239 24.312 27.2839 24.936 26.4199 25.448C25.5559 25.96 24.5479 26.216 23.3959 26.216C22.2439 26.216 21.1959 25.928 20.2519 25.352C19.3079 24.776 18.5639 23.968 18.0199 22.928C17.4759 21.888 17.2039 20.704 17.2039 19.376ZM28.3399 19.4C28.3399 18.408 28.1399 17.544 27.7399 16.808C27.3399 16.072 26.7959 15.512 26.1079 15.128C25.4359 14.728 24.6919 14.528 23.8759 14.528C23.0599 14.528 22.3159 14.72 21.6439 15.104C20.9719 15.488 20.4359 16.048 20.0359 16.784C19.6359 17.52 19.4359 18.384 19.4359 19.376C19.4359 20.384 19.6359 21.264 20.0359 22.016C20.4359 22.752 20.9719 23.32 21.6439 23.72C22.3159 24.104 23.0599 24.296 23.8759 24.296C24.6919 24.296 25.4359 24.104 26.1079 23.72C26.7959 23.32 27.3399 22.752 27.7399 22.016C28.1399 21.264 28.3399 20.392 28.3399 19.4ZM45.9026 12.848V26H43.7186V24.056C43.3026 24.728 42.7186 25.256 41.9666 25.64C41.2306 26.008 40.4146 26.192 39.5186 26.192C38.4946 26.192 37.5746 25.984 36.7586 25.568C35.9426 25.136 35.2946 24.496 34.8146 23.648C34.3506 22.8 34.1186 21.768 34.1186 20.552V12.848H36.2786V20.264C36.2786 21.56 36.6066 22.56 37.2626 23.264C37.9186 23.952 38.8146 24.296 39.9506 24.296C41.1186 24.296 42.0386 23.936 42.7106 23.216C43.3826 22.496 43.7186 21.448 43.7186 20.072V12.848H45.9026ZM50.7182 10.712C50.3022 10.712 49.9502 10.568 49.6622 10.28C49.3742 9.992 49.2302 9.64 49.2302 9.224C49.2302 8.808 49.3742 8.456 49.6622 8.168C49.9502 7.88 50.3022 7.736 50.7182 7.736C51.1182 7.736 51.4542 7.88 51.7262 8.168C52.0142 8.456 52.1582 8.808 52.1582 9.224C52.1582 9.64 52.0142 9.992 51.7262 10.28C51.4542 10.568 51.1182 10.712 50.7182 10.712ZM51.7742 12.848V26H49.5902V12.848H51.7742ZM73.8949 18.92C73.8949 19.336 73.8709 19.776 73.8229 20.24H63.3109C63.3909 21.536 63.8309 22.552 64.6309 23.288C65.4469 24.008 66.4309 24.368 67.5829 24.368C68.5269 24.368 69.3109 24.152 69.9349 23.72C70.5749 23.272 71.0229 22.68 71.2789 21.944H73.6309C73.2789 23.208 72.5749 24.24 71.5189 25.04C70.4629 25.824 69.1509 26.216 67.5829 26.216C66.3349 26.216 65.2149 25.936 64.2229 25.376C63.2469 24.816 62.4789 24.024 61.9189 23C61.3589 21.96 61.0789 20.76 61.0789 19.4C61.0789 18.04 61.3509 16.848 61.8949 15.824C62.4389 14.8 63.1989 14.016 64.1749 13.472C65.1669 12.912 66.3029 12.632 67.5829 12.632C68.8309 12.632 69.9349 12.904 70.8949 13.448C71.8549 13.992 72.5909 14.744 73.1029 15.704C73.6309 16.648 73.8949 17.72 73.8949 18.92ZM71.6389 18.464C71.6389 17.632 71.4549 16.92 71.0869 16.328C70.7189 15.72 70.2149 15.264 69.5749 14.96C68.9509 14.64 68.2549 14.48 67.4869 14.48C66.3829 14.48 65.4389 14.832 64.6549 15.536C63.8869 16.24 63.4469 17.216 63.3349 18.464H71.6389ZM81.4337 26.216C80.4257 26.216 79.5217 26.048 78.7217 25.712C77.9217 25.36 77.2897 24.88 76.8257 24.272C76.3617 23.648 76.1057 22.936 76.0577 22.136H78.3137C78.3777 22.792 78.6817 23.328 79.2257 23.744C79.7857 24.16 80.5137 24.368 81.4097 24.368C82.2417 24.368 82.8977 24.184 83.3777 23.816C83.8577 23.448 84.0977 22.984 84.0977 22.424C84.0977 21.848 83.8417 21.424 83.3297 21.152C82.8177 20.864 82.0257 20.584 80.9537 20.312C79.9777 20.056 79.1777 19.8 78.5537 19.544C77.9457 19.272 77.4177 18.88 76.9697 18.368C76.5377 17.84 76.3217 17.152 76.3217 16.304C76.3217 15.632 76.5217 15.016 76.9217 14.456C77.3217 13.896 77.8897 13.456 78.6257 13.136C79.3617 12.8 80.2017 12.632 81.1457 12.632C82.6017 12.632 83.7777 13 84.6737 13.736C85.5697 14.472 86.0497 15.48 86.1137 16.76H83.9297C83.8817 16.072 83.6017 15.52 83.0897 15.104C82.5937 14.688 81.9217 14.48 81.0737 14.48C80.2897 14.48 79.6657 14.648 79.2017 14.984C78.7377 15.32 78.5057 15.76 78.5057 16.304C78.5057 16.736 78.6417 17.096 78.9137 17.384C79.2017 17.656 79.5537 17.88 79.9697 18.056C80.4017 18.216 80.9937 18.4 81.7457 18.608C82.6897 18.864 83.4577 19.12 84.0497 19.376C84.6417 19.616 85.1457 19.984 85.5617 20.48C85.9937 20.976 86.2177 21.624 86.2337 22.424C86.2337 23.144 86.0337 23.792 85.6337 24.368C85.2337 24.944 84.6657 25.4 83.9297 25.736C83.2097 26.056 82.3777 26.216 81.4337 26.216ZM91.9808 14.648V22.4C91.9808 23.04 92.1168 23.496 92.3888 23.768C92.6608 24.024 93.1328 24.152 93.8047 24.152H95.4128V26H93.4448C92.2288 26 91.3168 25.72 90.7088 25.16C90.1008 24.6 89.7968 23.68 89.7968 22.4V14.648H88.0928V12.848H89.7968V9.536H91.9808V12.848H95.4128V14.648H91.9808ZM97.2429 19.376C97.2429 18.032 97.5149 16.856 98.0589 15.848C98.6029 14.824 99.3469 14.032 100.291 13.472C101.251 12.912 102.315 12.632 103.483 12.632C104.635 12.632 105.635 12.88 106.483 13.376C107.331 13.872 107.963 14.496 108.379 15.248V12.848H110.587V26H108.379V23.552C107.947 24.32 107.299 24.96 106.435 25.472C105.587 25.968 104.595 26.216 103.459 26.216C102.291 26.216 101.235 25.928 100.291 25.352C99.3469 24.776 98.6029 23.968 98.0589 22.928C97.5149 21.888 97.2429 20.704 97.2429 19.376ZM108.379 19.4C108.379 18.408 108.179 17.544 107.779 16.808C107.379 16.072 106.835 15.512 106.147 15.128C105.475 14.728 104.731 14.528 103.915 14.528C103.099 14.528 102.355 14.72 101.683 15.104C101.011 15.488 100.475 16.048 100.075 16.784C99.6749 17.52 99.4749 18.384 99.4749 19.376C99.4749 20.384 99.6749 21.264 100.075 22.016C100.475 22.752 101.011 23.32 101.683 23.72C102.355 24.104 103.099 24.296 103.915 24.296C104.731 24.296 105.475 24.104 106.147 23.72C106.835 23.32 107.379 22.752 107.779 22.016C108.179 21.264 108.379 20.392 108.379 19.4ZM106.675 9.128L101.563 11.864V10.232L106.675 7.232V9.128ZM125.332 26.216C124.324 26.216 123.42 26.048 122.62 25.712C121.82 25.36 121.188 24.88 120.724 24.272C120.26 23.648 120.004 22.936 119.956 22.136H122.212C122.276 22.792 122.58 23.328 123.124 23.744C123.684 24.16 124.412 24.368 125.308 24.368C126.14 24.368 126.796 24.184 127.276 23.816C127.756 23.448 127.996 22.984 127.996 22.424C127.996 21.848 127.74 21.424 127.228 21.152C126.716 20.864 125.924 20.584 124.852 20.312C123.876 20.056 123.076 19.8 122.452 19.544C121.844 19.272 121.316 18.88 120.868 18.368C120.436 17.84 120.22 17.152 120.22 16.304C120.22 15.632 120.42 15.016 120.82 14.456C121.22 13.896 121.788 13.456 122.524 13.136C123.26 12.8 124.1 12.632 125.044 12.632C126.5 12.632 127.676 13 128.572 13.736C129.468 14.472 129.948 15.48 130.012 16.76H127.828C127.78 16.072 127.5 15.52 126.988 15.104C126.492 14.688 125.82 14.48 124.972 14.48C124.188 14.48 123.564 14.648 123.1 14.984C122.636 15.32 122.404 15.76 122.404 16.304C122.404 16.736 122.54 17.096 122.812 17.384C123.1 17.656 123.452 17.88 123.868 18.056C124.3 18.216 124.892 18.4 125.644 18.608C126.588 18.864 127.356 19.12 127.948 19.376C128.54 19.616 129.044 19.984 129.46 20.48C129.892 20.976 130.116 21.624 130.132 22.424C130.132 23.144 129.932 23.792 129.532 24.368C129.132 24.944 128.564 25.4 127.828 25.736C127.108 26.056 126.276 26.216 125.332 26.216ZM144.879 12.848V26H142.695V24.056C142.279 24.728 141.695 25.256 140.943 25.64C140.207 26.008 139.391 26.192 138.495 26.192C137.471 26.192 136.551 25.984 135.735 25.568C134.919 25.136 134.271 24.496 133.791 23.648C133.327 22.8 133.095 21.768 133.095 20.552V12.848H135.255V20.264C135.255 21.56 135.583 22.56 136.239 23.264C136.895 23.952 137.791 24.296 138.927 24.296C140.095 24.296 141.015 23.936 141.687 23.216C142.359 22.496 142.695 21.448 142.695 20.072V12.848H144.879ZM147.751 19.376C147.751 18.032 148.023 16.856 148.567 15.848C149.111 14.824 149.855 14.032 150.799 13.472C151.759 12.912 152.823 12.632 153.991 12.632C155.143 12.632 156.143 12.88 156.991 13.376C157.839 13.872 158.471 14.496 158.887 15.248V12.848H161.095V26H158.887V23.552C158.455 24.32 157.807 24.96 156.943 25.472C156.095 25.968 155.103 26.216 153.967 26.216C152.799 26.216 151.743 25.928 150.799 25.352C149.855 24.776 149.111 23.968 148.567 22.928C148.023 21.888 147.751 20.704 147.751 19.376ZM158.887 19.4C158.887 18.408 158.687 17.544 158.287 16.808C157.887 16.072 157.343 15.512 156.655 15.128C155.983 14.728 155.239 14.528 154.423 14.528C153.607 14.528 152.863 14.72 152.191 15.104C151.519 15.488 150.983 16.048 150.583 16.784C150.183 17.52 149.983 18.384 149.983 19.376C149.983 20.384 150.183 21.264 150.583 22.016C150.983 22.752 151.519 23.32 152.191 23.72C152.863 24.104 153.607 24.296 154.423 24.296C155.239 24.296 155.983 24.104 156.655 23.72C157.343 23.32 157.887 22.752 158.287 22.016C158.687 21.264 158.887 20.392 158.887 19.4ZM170.008 19.28C170.008 17.904 170.264 16.696 170.776 15.656C171.304 14.616 172.016 13.816 172.912 13.256C173.808 12.696 174.808 12.416 175.912 12.416C176.856 12.416 177.68 12.608 178.384 12.992C179.104 13.376 179.656 13.88 180.04 14.504V12.608H184.144V26H180.04V24.104C179.64 24.728 179.08 25.232 178.36 25.616C177.656 26 176.832 26.192 175.888 26.192C174.8 26.192 173.808 25.912 172.912 25.352C172.016 24.776 171.304 23.968 170.776 22.928C170.264 21.872 170.008 20.656 170.008 19.28ZM180.04 19.304C180.04 18.28 179.752 17.472 179.176 16.88C178.616 16.288 177.928 15.992 177.112 15.992C176.296 15.992 175.6 16.288 175.024 16.88C174.464 17.456 174.184 18.256 174.184 19.28C174.184 20.304 174.464 21.12 175.024 21.728C175.6 22.32 176.296 22.616 177.112 22.616C177.928 22.616 178.616 22.32 179.176 21.728C179.752 21.136 180.04 20.328 180.04 19.304ZM191.217 14.504C191.617 13.88 192.169 13.376 192.873 12.992C193.577 12.608 194.401 12.416 195.345 12.416C196.449 12.416 197.449 12.696 198.345 13.256C199.241 13.816 199.945 14.616 200.457 15.656C200.985 16.696 201.249 17.904 201.249 19.28C201.249 20.656 200.985 21.872 200.457 22.928C199.945 23.968 199.241 24.776 198.345 25.352C197.449 25.912 196.449 26.192 195.345 26.192C194.417 26.192 193.593 26 192.873 25.616C192.169 25.232 191.617 24.736 191.217 24.128V32.384H187.113V12.608H191.217V14.504ZM197.073 19.28C197.073 18.256 196.785 17.456 196.209 16.88C195.649 16.288 194.953 15.992 194.121 15.992C193.305 15.992 192.609 16.288 192.033 16.88C191.473 17.472 191.193 18.28 191.193 19.304C191.193 20.328 191.473 21.136 192.033 21.728C192.609 22.32 193.305 22.616 194.121 22.616C194.937 22.616 195.633 22.32 196.209 21.728C196.785 21.12 197.073 20.304 197.073 19.28ZM209.498 26.192C208.186 26.192 207.002 25.912 205.946 25.352C204.906 24.792 204.082 23.992 203.474 22.952C202.882 21.912 202.586 20.696 202.586 19.304C202.586 17.928 202.89 16.72 203.498 15.68C204.106 14.624 204.938 13.816 205.994 13.256C207.05 12.696 208.234 12.416 209.546 12.416C210.858 12.416 212.042 12.696 213.098 13.256C214.154 13.816 214.986 14.624 215.594 15.68C216.202 16.72 216.506 17.928 216.506 19.304C216.506 20.68 216.194 21.896 215.57 22.952C214.962 23.992 214.122 24.792 213.05 25.352C211.994 25.912 210.81 26.192 209.498 26.192ZM209.498 22.64C210.282 22.64 210.946 22.352 211.49 21.776C212.05 21.2 212.33 20.376 212.33 19.304C212.33 18.232 212.058 17.408 211.514 16.832C210.986 16.256 210.33 15.968 209.546 15.968C208.746 15.968 208.082 16.256 207.554 16.832C207.026 17.392 206.762 18.216 206.762 19.304C206.762 20.376 207.018 21.2 207.53 21.776C208.058 22.352 208.714 22.64 209.498 22.64ZM224.131 26.192C222.963 26.192 221.923 25.992 221.011 25.592C220.099 25.192 219.379 24.648 218.851 23.96C218.323 23.256 218.027 22.472 217.963 21.608H222.019C222.067 22.072 222.283 22.448 222.667 22.736C223.051 23.024 223.523 23.168 224.083 23.168C224.595 23.168 224.987 23.072 225.259 22.88C225.547 22.672 225.691 22.408 225.691 22.088C225.691 21.704 225.491 21.424 225.091 21.248C224.691 21.056 224.043 20.848 223.147 20.624C222.187 20.4 221.387 20.168 220.747 19.928C220.107 19.672 219.555 19.28 219.091 18.752C218.627 18.208 218.395 17.48 218.395 16.568C218.395 15.8 218.603 15.104 219.019 14.48C219.451 13.84 220.075 13.336 220.891 12.968C221.723 12.6 222.707 12.416 223.843 12.416C225.523 12.416 226.843 12.832 227.803 13.664C228.779 14.496 229.339 15.6 229.483 16.976H225.691C225.627 16.512 225.419 16.144 225.067 15.872C224.731 15.6 224.283 15.464 223.723 15.464C223.243 15.464 222.875 15.56 222.619 15.752C222.363 15.928 222.235 16.176 222.235 16.496C222.235 16.88 222.435 17.168 222.835 17.36C223.251 17.552 223.891 17.744 224.755 17.936C225.747 18.192 226.555 18.448 227.179 18.704C227.803 18.944 228.347 19.344 228.811 19.904C229.291 20.448 229.539 21.184 229.555 22.112C229.555 22.896 229.331 23.6 228.883 24.224C228.451 24.832 227.819 25.312 226.987 25.664C226.171 26.016 225.219 26.192 224.131 26.192ZM239.53 22.52V26H237.442C235.954 26 234.794 25.64 233.962 24.92C233.13 24.184 232.714 22.992 232.714 21.344V16.016H231.082V12.608H232.714V9.344H236.818V12.608H239.506V16.016H236.818V21.392C236.818 21.792 236.914 22.08 237.106 22.256C237.298 22.432 237.618 22.52 238.066 22.52H239.53ZM241 19.28C241 17.904 241.256 16.696 241.768 15.656C242.296 14.616 243.008 13.816 243.904 13.256C244.8 12.696 245.8 12.416 246.904 12.416C247.848 12.416 248.672 12.608 249.376 12.992C250.096 13.376 250.648 13.88 251.032 14.504V12.608H255.136V26H251.032V24.104C250.632 24.728 250.072 25.232 249.352 25.616C248.648 26 247.824 26.192 246.88 26.192C245.792 26.192 244.8 25.912 243.904 25.352C243.008 24.776 242.296 23.968 241.768 22.928C241.256 21.872 241 20.656 241 19.28ZM251.032 19.304C251.032 18.28 250.744 17.472 250.168 16.88C249.608 16.288 248.92 15.992 248.104 15.992C247.288 15.992 246.592 16.288 246.016 16.88C245.456 17.456 245.176 18.256 245.176 19.28C245.176 20.304 245.456 21.12 246.016 21.728C246.592 22.32 247.288 22.616 248.104 22.616C248.92 22.616 249.608 22.32 250.168 21.728C250.744 21.136 251.032 20.328 251.032 19.304ZM261.297 9.272L261.033 21.272H259.209L258.945 9.272H261.297ZM260.217 26.144C259.801 26.144 259.449 26 259.161 25.712C258.873 25.424 258.729 25.072 258.729 24.656C258.729 24.24 258.873 23.888 259.161 23.6C259.449 23.312 259.801 23.168 260.217 23.168C260.617 23.168 260.953 23.312 261.225 23.6C261.513 23.888 261.657 24.24 261.657 24.656C261.657 25.072 261.513 25.424 261.225 25.712C260.953 26 260.617 26.144 260.217 26.144Z" fill="white"/>
<path d="M312.061 17.0607C312.646 16.4749 312.646 15.5251 312.061 14.9393L302.515 5.3934C301.929 4.80761 300.979 4.80761 300.393 5.3934C299.808 5.97919 299.808 6.92893 300.393 7.51472L308.879 16L300.393 24.4853C299.808 25.0711 299.808 26.0208 300.393 26.6066C300.979 27.1924 301.929 27.1924 302.515 26.6066L312.061 17.0607ZM280 17.5H311V14.5H280V17.5Z" fill="white"/>
</svg>
