<svg width="112" height="293" viewBox="0 0 112 293" fill="none" xmlns="http://www.w3.org/2000/svg">
<g filter="url(#filter0_d_158_5600)">
<path d="M9.868 9.14H6.22L5.548 11H4.396L7.42 2.684H8.68L11.692 11H10.54L9.868 9.14ZM9.556 8.252L8.044 4.028L6.532 8.252H9.556ZM12.6019 7.688C12.6019 7.016 12.7379 6.428 13.0099 5.924C13.2819 5.412 13.6539 5.016 14.1259 4.736C14.6059 4.456 15.1419 4.316 15.7339 4.316C16.3019 4.316 16.7979 4.444 17.2219 4.7C17.6539 4.948 17.9699 5.256 18.1699 5.624V4.424H19.2739V14.12H18.1699V9.788C17.9619 10.156 17.6419 10.468 17.2099 10.724C16.7779 10.98 16.2739 11.108 15.6979 11.108C15.1219 11.108 14.5979 10.964 14.1259 10.676C13.6539 10.388 13.2819 9.984 13.0099 9.464C12.7379 8.944 12.6019 8.352 12.6019 7.688ZM18.1699 7.7C18.1699 7.204 18.0699 6.772 17.8699 6.404C17.6699 6.036 17.3979 5.756 17.0539 5.564C16.7179 5.364 16.3459 5.264 15.9379 5.264C15.5299 5.264 15.1579 5.36 14.8219 5.552C14.4859 5.744 14.2179 6.024 14.0179 6.392C13.8179 6.76 13.7179 7.192 13.7179 7.688C13.7179 8.192 13.8179 8.632 14.0179 9.008C14.2179 9.376 14.4859 9.66 14.8219 9.86C15.1579 10.052 15.5299 10.148 15.9379 10.148C16.3459 10.148 16.7179 10.052 17.0539 9.86C17.3979 9.66 17.6699 9.376 17.8699 9.008C18.0699 8.632 18.1699 8.196 18.1699 7.7ZM26.9513 4.424V11H25.8593V10.028C25.6513 10.364 25.3593 10.628 24.9833 10.82C24.6153 11.004 24.2073 11.096 23.7593 11.096C23.2473 11.096 22.7873 10.992 22.3793 10.784C21.9713 10.568 21.6473 10.248 21.4073 9.824C21.1753 9.4 21.0593 8.884 21.0593 8.276V4.424H22.1393V8.132C22.1393 8.78 22.3033 9.28 22.6313 9.632C22.9593 9.976 23.4073 10.148 23.9753 10.148C24.5593 10.148 25.0193 9.968 25.3553 9.608C25.6913 9.248 25.8593 8.724 25.8593 8.036V4.424H26.9513ZM29.3591 3.356C29.1511 3.356 28.9751 3.284 28.8311 3.14C28.6871 2.996 28.6151 2.82 28.6151 2.612C28.6151 2.404 28.6871 2.228 28.8311 2.084C28.9751 1.94 29.1511 1.868 29.3591 1.868C29.5591 1.868 29.7271 1.94 29.8631 2.084C30.0071 2.228 30.0791 2.404 30.0791 2.612C30.0791 2.82 30.0071 2.996 29.8631 3.14C29.7271 3.284 29.5591 3.356 29.3591 3.356ZM29.8871 4.424V11H28.7951V4.424H29.8871ZM40.9474 7.46C40.9474 7.668 40.9354 7.888 40.9114 8.12H35.6554C35.6954 8.768 35.9154 9.276 36.3154 9.644C36.7234 10.004 37.2154 10.184 37.7914 10.184C38.2634 10.184 38.6554 10.076 38.9674 9.86C39.2874 9.636 39.5114 9.34 39.6394 8.972H40.8154C40.6394 9.604 40.2874 10.12 39.7594 10.52C39.2314 10.912 38.5754 11.108 37.7914 11.108C37.1674 11.108 36.6074 10.968 36.1114 10.688C35.6234 10.408 35.2394 10.012 34.9594 9.5C34.6794 8.98 34.5394 8.38 34.5394 7.7C34.5394 7.02 34.6754 6.424 34.9474 5.912C35.2194 5.4 35.5994 5.008 36.0874 4.736C36.5834 4.456 37.1514 4.316 37.7914 4.316C38.4154 4.316 38.9674 4.452 39.4474 4.724C39.9274 4.996 40.2954 5.372 40.5514 5.852C40.8154 6.324 40.9474 6.86 40.9474 7.46ZM39.8194 7.232C39.8194 6.816 39.7274 6.46 39.5434 6.164C39.3594 5.86 39.1074 5.632 38.7874 5.48C38.4754 5.32 38.1274 5.24 37.7434 5.24C37.1914 5.24 36.7194 5.416 36.3274 5.768C35.9434 6.12 35.7234 6.608 35.6674 7.232H39.8194ZM38.9194 2.564L36.3634 3.932V3.116L38.9194 1.616V2.564ZM48.4561 11.108C47.8401 11.108 47.2801 10.968 46.7761 10.688C46.2801 10.408 45.8881 10.012 45.6001 9.5C45.3201 8.98 45.1801 8.38 45.1801 7.7C45.1801 7.028 45.3241 6.436 45.6121 5.924C45.9081 5.404 46.3081 5.008 46.8121 4.736C47.3161 4.456 47.8801 4.316 48.5041 4.316C49.1281 4.316 49.6921 4.456 50.1961 4.736C50.7001 5.008 51.0961 5.4 51.3841 5.912C51.6801 6.424 51.8281 7.02 51.8281 7.7C51.8281 8.38 51.6761 8.98 51.3721 9.5C51.0761 10.012 50.6721 10.408 50.1601 10.688C49.6481 10.968 49.0801 11.108 48.4561 11.108ZM48.4561 10.148C48.8481 10.148 49.2161 10.056 49.5601 9.872C49.9041 9.688 50.1801 9.412 50.3881 9.044C50.6041 8.676 50.7121 8.228 50.7121 7.7C50.7121 7.172 50.6081 6.724 50.4001 6.356C50.1921 5.988 49.9201 5.716 49.5841 5.54C49.2481 5.356 48.8841 5.264 48.4921 5.264C48.0921 5.264 47.7241 5.356 47.3881 5.54C47.0601 5.716 46.7961 5.988 46.5961 6.356C46.3961 6.724 46.2961 7.172 46.2961 7.7C46.2961 8.236 46.3921 8.688 46.5841 9.056C46.7841 9.424 47.0481 9.7 47.3761 9.884C47.7041 10.06 48.0641 10.148 48.4561 10.148ZM57.5551 2.12V11H56.4631V2.12H57.5551ZM65.2482 4.424V11H64.1562V10.028C63.9482 10.364 63.6562 10.628 63.2802 10.82C62.9122 11.004 62.5042 11.096 62.0562 11.096C61.5442 11.096 61.0842 10.992 60.6762 10.784C60.2682 10.568 59.9442 10.248 59.7042 9.824C59.4722 9.4 59.3562 8.884 59.3562 8.276V4.424H60.4362V8.132C60.4362 8.78 60.6002 9.28 60.9282 9.632C61.2562 9.976 61.7042 10.148 62.2722 10.148C62.8562 10.148 63.3162 9.968 63.6522 9.608C63.9882 9.248 64.1562 8.724 64.1562 8.036V4.424H65.2482ZM66.684 7.7C66.684 7.02 66.82 6.428 67.092 5.924C67.364 5.412 67.74 5.016 68.22 4.736C68.708 4.456 69.264 4.316 69.888 4.316C70.696 4.316 71.36 4.512 71.88 4.904C72.408 5.296 72.756 5.84 72.924 6.536H71.748C71.636 6.136 71.416 5.82 71.088 5.588C70.768 5.356 70.368 5.24 69.888 5.24C69.264 5.24 68.76 5.456 68.376 5.888C67.992 6.312 67.8 6.916 67.8 7.7C67.8 8.492 67.992 9.104 68.376 9.536C68.76 9.968 69.264 10.184 69.888 10.184C70.368 10.184 70.768 10.072 71.088 9.848C71.408 9.624 71.628 9.304 71.748 8.888H72.924C72.748 9.56 72.396 10.1 71.868 10.508C71.34 10.908 70.68 11.108 69.888 11.108C69.264 11.108 68.708 10.968 68.22 10.688C67.74 10.408 67.364 10.012 67.092 9.5C66.82 8.988 66.684 8.388 66.684 7.7ZM75.473 5.492C75.665 5.116 75.937 4.824 76.289 4.616C76.649 4.408 77.085 4.304 77.597 4.304V5.432H77.309C76.085 5.432 75.473 6.096 75.473 7.424V11H74.381V4.424H75.473V5.492ZM81.7256 11.108C81.1096 11.108 80.5496 10.968 80.0456 10.688C79.5496 10.408 79.1576 10.012 78.8696 9.5C78.5896 8.98 78.4496 8.38 78.4496 7.7C78.4496 7.028 78.5936 6.436 78.8816 5.924C79.1776 5.404 79.5776 5.008 80.0816 4.736C80.5856 4.456 81.1496 4.316 81.7736 4.316C82.3976 4.316 82.9616 4.456 83.4656 4.736C83.9696 5.008 84.3656 5.4 84.6536 5.912C84.9496 6.424 85.0976 7.02 85.0976 7.7C85.0976 8.38 84.9456 8.98 84.6416 9.5C84.3456 10.012 83.9416 10.408 83.4296 10.688C82.9176 10.968 82.3496 11.108 81.7256 11.108ZM81.7256 10.148C82.1176 10.148 82.4856 10.056 82.8296 9.872C83.1736 9.688 83.4496 9.412 83.6576 9.044C83.8736 8.676 83.9816 8.228 83.9816 7.7C83.9816 7.172 83.8776 6.724 83.6696 6.356C83.4616 5.988 83.1896 5.716 82.8536 5.54C82.5176 5.356 82.1536 5.264 81.7616 5.264C81.3616 5.264 80.9936 5.356 80.6576 5.54C80.3296 5.716 80.0656 5.988 79.8656 6.356C79.6656 6.724 79.5656 7.172 79.5656 7.7C79.5656 8.236 79.6616 8.688 79.8536 9.056C80.0536 9.424 80.3176 9.7 80.6456 9.884C80.9736 10.06 81.3336 10.148 81.7256 10.148ZM95.7326 7.46C95.7326 7.668 95.7206 7.888 95.6966 8.12H90.4406C90.4806 8.768 90.7006 9.276 91.1006 9.644C91.5086 10.004 92.0006 10.184 92.5766 10.184C93.0486 10.184 93.4406 10.076 93.7526 9.86C94.0726 9.636 94.2966 9.34 94.4246 8.972H95.6006C95.4246 9.604 95.0726 10.12 94.5446 10.52C94.0166 10.912 93.3606 11.108 92.5766 11.108C91.9526 11.108 91.3926 10.968 90.8966 10.688C90.4086 10.408 90.0246 10.012 89.7446 9.5C89.4646 8.98 89.3246 8.38 89.3246 7.7C89.3246 7.02 89.4606 6.424 89.7326 5.912C90.0046 5.4 90.3846 5.008 90.8726 4.736C91.3686 4.456 91.9366 4.316 92.5766 4.316C93.2006 4.316 93.7526 4.452 94.2326 4.724C94.7126 4.996 95.0806 5.372 95.3366 5.852C95.6006 6.324 95.7326 6.86 95.7326 7.46ZM94.6046 7.232C94.6046 6.816 94.5126 6.46 94.3286 6.164C94.1446 5.86 93.8926 5.632 93.5726 5.48C93.2606 5.32 92.9126 5.24 92.5286 5.24C91.9766 5.24 91.5046 5.416 91.1126 5.768C90.7286 6.12 90.5086 6.608 90.4526 7.232H94.6046ZM105.082 4.304C105.594 4.304 106.05 4.412 106.45 4.628C106.85 4.836 107.166 5.152 107.398 5.576C107.63 6 107.746 6.516 107.746 7.124V11H106.666V7.28C106.666 6.624 106.502 6.124 106.174 5.78C105.854 5.428 105.418 5.252 104.866 5.252C104.298 5.252 103.846 5.436 103.51 5.804C103.174 6.164 103.006 6.688 103.006 7.376V11H101.926V7.28C101.926 6.624 101.762 6.124 101.434 5.78C101.114 5.428 100.678 5.252 100.126 5.252C99.558 5.252 99.106 5.436 98.77 5.804C98.434 6.164 98.266 6.688 98.266 7.376V11H97.174V4.424H98.266V5.372C98.482 5.028 98.77 4.764 99.13 4.58C99.498 4.396 99.902 4.304 100.342 4.304C100.894 4.304 101.382 4.428 101.806 4.676C102.23 4.924 102.546 5.288 102.754 5.768C102.938 5.304 103.242 4.944 103.666 4.688C104.09 4.432 104.562 4.304 105.082 4.304ZM4.516 21.7C4.516 21.02 4.652 20.428 4.924 19.924C5.196 19.412 5.572 19.016 6.052 18.736C6.54 18.456 7.096 18.316 7.72 18.316C8.528 18.316 9.192 18.512 9.712 18.904C10.24 19.296 10.588 19.84 10.756 20.536H9.58C9.468 20.136 9.248 19.82 8.92 19.588C8.6 19.356 8.2 19.24 7.72 19.24C7.096 19.24 6.592 19.456 6.208 19.888C5.824 20.312 5.632 20.916 5.632 21.7C5.632 22.492 5.824 23.104 6.208 23.536C6.592 23.968 7.096 24.184 7.72 24.184C8.2 24.184 8.6 24.072 8.92 23.848C9.24 23.624 9.46 23.304 9.58 22.888H10.756C10.58 23.56 10.228 24.1 9.7 24.508C9.172 24.908 8.512 25.108 7.72 25.108C7.096 25.108 6.54 24.968 6.052 24.688C5.572 24.408 5.196 24.012 4.924 23.5C4.652 22.988 4.516 22.388 4.516 21.7ZM11.8051 21.688C11.8051 21.016 11.9411 20.428 12.2131 19.924C12.4851 19.412 12.8571 19.016 13.3291 18.736C13.8091 18.456 14.3411 18.316 14.9251 18.316C15.5011 18.316 16.0011 18.44 16.4251 18.688C16.8491 18.936 17.1651 19.248 17.3731 19.624V18.424H18.4771V25H17.3731V23.776C17.1571 24.16 16.8331 24.48 16.4011 24.736C15.9771 24.984 15.4811 25.108 14.9131 25.108C14.3291 25.108 13.8011 24.964 13.3291 24.676C12.8571 24.388 12.4851 23.984 12.2131 23.464C11.9411 22.944 11.8051 22.352 11.8051 21.688ZM17.3731 21.7C17.3731 21.204 17.2731 20.772 17.0731 20.404C16.8731 20.036 16.6011 19.756 16.2571 19.564C15.9211 19.364 15.5491 19.264 15.1411 19.264C14.7331 19.264 14.3611 19.36 14.0251 19.552C13.6891 19.744 13.4211 20.024 13.2211 20.392C13.0211 20.76 12.9211 21.192 12.9211 21.688C12.9211 22.192 13.0211 22.632 13.2211 23.008C13.4211 23.376 13.6891 23.66 14.0251 23.86C14.3611 24.052 14.7331 24.148 15.1411 24.148C15.5491 24.148 15.9211 24.052 16.2571 23.86C16.6011 23.66 16.8731 23.376 17.0731 23.008C17.2731 22.632 17.3731 22.196 17.3731 21.7ZM22.6504 25.108C22.1464 25.108 21.6944 25.024 21.2944 24.856C20.8944 24.68 20.5784 24.44 20.3464 24.136C20.1144 23.824 19.9864 23.468 19.9624 23.068H21.0904C21.1224 23.396 21.2744 23.664 21.5464 23.872C21.8264 24.08 22.1904 24.184 22.6384 24.184C23.0544 24.184 23.3824 24.092 23.6224 23.908C23.8624 23.724 23.9824 23.492 23.9824 23.212C23.9824 22.924 23.8544 22.712 23.5984 22.576C23.3424 22.432 22.9464 22.292 22.4104 22.156C21.9224 22.028 21.5224 21.9 21.2104 21.772C20.9064 21.636 20.6424 21.44 20.4184 21.184C20.2024 20.92 20.0944 20.576 20.0944 20.152C20.0944 19.816 20.1944 19.508 20.3944 19.228C20.5944 18.948 20.8784 18.728 21.2464 18.568C21.6144 18.4 22.0344 18.316 22.5064 18.316C23.2344 18.316 23.8224 18.5 24.2704 18.868C24.7184 19.236 24.9584 19.74 24.9904 20.38H23.8984C23.8744 20.036 23.7344 19.76 23.4784 19.552C23.2304 19.344 22.8944 19.24 22.4704 19.24C22.0784 19.24 21.7664 19.324 21.5344 19.492C21.3024 19.66 21.1864 19.88 21.1864 20.152C21.1864 20.368 21.2544 20.548 21.3904 20.692C21.5344 20.828 21.7104 20.94 21.9184 21.028C22.1344 21.108 22.4304 21.2 22.8064 21.304C23.2784 21.432 23.6624 21.56 23.9584 21.688C24.2544 21.808 24.5064 21.992 24.7144 22.24C24.9304 22.488 25.0424 22.812 25.0504 23.212C25.0504 23.572 24.9504 23.896 24.7504 24.184C24.5504 24.472 24.2664 24.7 23.8984 24.868C23.5384 25.028 23.1224 25.108 22.6504 25.108ZM29.46 25.108C28.844 25.108 28.284 24.968 27.78 24.688C27.284 24.408 26.892 24.012 26.604 23.5C26.324 22.98 26.184 22.38 26.184 21.7C26.184 21.028 26.328 20.436 26.616 19.924C26.912 19.404 27.312 19.008 27.816 18.736C28.32 18.456 28.884 18.316 29.508 18.316C30.132 18.316 30.696 18.456 31.2 18.736C31.704 19.008 32.1 19.4 32.388 19.912C32.684 20.424 32.832 21.02 32.832 21.7C32.832 22.38 32.68 22.98 32.376 23.5C32.08 24.012 31.676 24.408 31.164 24.688C30.652 24.968 30.084 25.108 29.46 25.108ZM29.46 24.148C29.852 24.148 30.22 24.056 30.564 23.872C30.908 23.688 31.184 23.412 31.392 23.044C31.608 22.676 31.716 22.228 31.716 21.7C31.716 21.172 31.612 20.724 31.404 20.356C31.196 19.988 30.924 19.716 30.588 19.54C30.252 19.356 29.888 19.264 29.496 19.264C29.096 19.264 28.728 19.356 28.392 19.54C28.064 19.716 27.8 19.988 27.6 20.356C27.4 20.724 27.3 21.172 27.3 21.7C27.3 22.236 27.396 22.688 27.588 23.056C27.788 23.424 28.052 23.7 28.38 23.884C28.708 24.06 29.068 24.148 29.46 24.148ZM37.059 21.688C37.059 21.016 37.195 20.428 37.467 19.924C37.739 19.412 38.111 19.016 38.583 18.736C39.063 18.456 39.599 18.316 40.191 18.316C40.703 18.316 41.179 18.436 41.619 18.676C42.059 18.908 42.395 19.216 42.627 19.6V16.12H43.731V25H42.627V23.764C42.411 24.156 42.091 24.48 41.667 24.736C41.243 24.984 40.747 25.108 40.179 25.108C39.595 25.108 39.063 24.964 38.583 24.676C38.111 24.388 37.739 23.984 37.467 23.464C37.195 22.944 37.059 22.352 37.059 21.688ZM42.627 21.7C42.627 21.204 42.527 20.772 42.327 20.404C42.127 20.036 41.855 19.756 41.511 19.564C41.175 19.364 40.803 19.264 40.395 19.264C39.987 19.264 39.615 19.36 39.279 19.552C38.943 19.744 38.675 20.024 38.475 20.392C38.275 20.76 38.175 21.192 38.175 21.688C38.175 22.192 38.275 22.632 38.475 23.008C38.675 23.376 38.943 23.66 39.279 23.86C39.615 24.052 39.987 24.148 40.395 24.148C40.803 24.148 41.175 24.052 41.511 23.86C41.855 23.66 42.127 23.376 42.327 23.008C42.527 22.632 42.627 22.196 42.627 21.7ZM51.5763 21.46C51.5763 21.668 51.5643 21.888 51.5403 22.12H46.2843C46.3243 22.768 46.5443 23.276 46.9443 23.644C47.3523 24.004 47.8443 24.184 48.4203 24.184C48.8923 24.184 49.2843 24.076 49.5963 23.86C49.9163 23.636 50.1403 23.34 50.2683 22.972H51.4443C51.2683 23.604 50.9163 24.12 50.3883 24.52C49.8603 24.912 49.2043 25.108 48.4203 25.108C47.7963 25.108 47.2363 24.968 46.7403 24.688C46.2523 24.408 45.8683 24.012 45.5883 23.5C45.3083 22.98 45.1683 22.38 45.1683 21.7C45.1683 21.02 45.3043 20.424 45.5763 19.912C45.8483 19.4 46.2283 19.008 46.7163 18.736C47.2123 18.456 47.7803 18.316 48.4203 18.316C49.0443 18.316 49.5963 18.452 50.0763 18.724C50.5563 18.996 50.9243 19.372 51.1803 19.852C51.4443 20.324 51.5763 20.86 51.5763 21.46ZM50.4483 21.232C50.4483 20.816 50.3563 20.46 50.1723 20.164C49.9883 19.86 49.7363 19.632 49.4163 19.48C49.1043 19.32 48.7563 19.24 48.3723 19.24C47.8203 19.24 47.3483 19.416 46.9563 19.768C46.5723 20.12 46.3523 20.608 46.2963 21.232H50.4483Z" fill="white"/>
<path d="M59.049 23.08L60.501 18.304H62.685L60.309 25H57.777L55.401 18.304H57.597L59.049 23.08ZM64.5807 17.608C64.2207 17.608 63.9247 17.504 63.6927 17.296C63.4687 17.08 63.3567 16.816 63.3567 16.504C63.3567 16.184 63.4687 15.92 63.6927 15.712C63.9247 15.496 64.2207 15.388 64.5807 15.388C64.9327 15.388 65.2207 15.496 65.4447 15.712C65.6767 15.92 65.7927 16.184 65.7927 16.504C65.7927 16.816 65.6767 17.08 65.4447 17.296C65.2207 17.504 64.9327 17.608 64.5807 17.608ZM65.6007 18.304V25H63.5487V18.304H65.6007ZM70.8198 23.26V25H69.7758C69.0318 25 68.4518 24.82 68.0358 24.46C67.6198 24.092 67.4118 23.496 67.4118 22.672V20.008H66.5958V18.304H67.4118V16.672H69.4638V18.304H70.8078V20.008H69.4638V22.696C69.4638 22.896 69.5118 23.04 69.6078 23.128C69.7038 23.216 69.8638 23.26 70.0878 23.26H70.8198ZM75.0108 25.096C74.3548 25.096 73.7628 24.956 73.2348 24.676C72.7148 24.396 72.3028 23.996 71.9988 23.476C71.7028 22.956 71.5548 22.348 71.5548 21.652C71.5548 20.964 71.7068 20.36 72.0107 19.84C72.3148 19.312 72.7308 18.908 73.2588 18.628C73.7868 18.348 74.3788 18.208 75.0348 18.208C75.6908 18.208 76.2828 18.348 76.8108 18.628C77.3388 18.908 77.7548 19.312 78.0588 19.84C78.3628 20.36 78.5148 20.964 78.5148 21.652C78.5148 22.34 78.3588 22.948 78.0468 23.476C77.7428 23.996 77.3228 24.396 76.7868 24.676C76.2588 24.956 75.6668 25.096 75.0108 25.096ZM75.0108 23.32C75.4028 23.32 75.7348 23.176 76.0068 22.888C76.2868 22.6 76.4268 22.188 76.4268 21.652C76.4268 21.116 76.2908 20.704 76.0188 20.416C75.7548 20.128 75.4268 19.984 75.0348 19.984C74.6348 19.984 74.3028 20.128 74.0388 20.416C73.7748 20.696 73.6428 21.108 73.6428 21.652C73.6428 22.188 73.7708 22.6 74.0268 22.888C74.2908 23.176 74.6188 23.32 75.0108 23.32ZM81.6554 19.42C81.8954 19.052 82.1954 18.764 82.5554 18.556C82.9154 18.34 83.3154 18.232 83.7554 18.232V20.404H83.1914C82.6794 20.404 82.2954 20.516 82.0394 20.74C81.7834 20.956 81.6554 21.34 81.6554 21.892V25H79.6034V18.304H81.6554V19.42ZM85.7682 17.608C85.4082 17.608 85.1122 17.504 84.8802 17.296C84.6562 17.08 84.5442 16.816 84.5442 16.504C84.5442 16.184 84.6562 15.92 84.8802 15.712C85.1122 15.496 85.4082 15.388 85.7682 15.388C86.1202 15.388 86.4082 15.496 86.6322 15.712C86.8642 15.92 86.9802 16.184 86.9802 16.504C86.9802 16.816 86.8642 17.08 86.6322 17.296C86.4082 17.504 86.1202 17.608 85.7682 17.608ZM86.7882 18.304V25H84.7362V18.304H86.7882ZM87.8673 21.64C87.8673 20.952 87.9953 20.348 88.2513 19.828C88.5153 19.308 88.8713 18.908 89.3193 18.628C89.7673 18.348 90.2673 18.208 90.8193 18.208C91.2913 18.208 91.7033 18.304 92.0553 18.496C92.4153 18.688 92.6913 18.94 92.8833 19.252V18.304H94.9353V25H92.8833V24.052C92.6833 24.364 92.4033 24.616 92.0433 24.808C91.6913 25 91.2793 25.096 90.8073 25.096C90.2633 25.096 89.7673 24.956 89.3193 24.676C88.8713 24.388 88.5153 23.984 88.2513 23.464C87.9953 22.936 87.8673 22.328 87.8673 21.64ZM92.8833 21.652C92.8833 21.14 92.7393 20.736 92.4513 20.44C92.1713 20.144 91.8273 19.996 91.4193 19.996C91.0113 19.996 90.6633 20.144 90.3753 20.44C90.0953 20.728 89.9553 21.128 89.9553 21.64C89.9553 22.152 90.0953 22.56 90.3753 22.864C90.6633 23.16 91.0113 23.308 91.4193 23.308C91.8273 23.308 92.1713 23.16 92.4513 22.864C92.7393 22.568 92.8833 22.164 92.8833 21.652Z" fill="#04D47C"/>
<path d="M43.3769 174.639L45.3495 174.309L43.3769 174.639ZM60.3384 284.628C61.2376 285.27 62.4866 285.061 63.1281 284.162L73.5821 269.508C74.2236 268.609 74.0148 267.36 73.1156 266.719C72.2164 266.077 70.9674 266.286 70.3259 267.185L61.0334 280.21L48.0084 270.918C47.1093 270.276 45.8603 270.485 45.2188 271.384C44.5773 272.284 44.7861 273.533 45.6853 274.174L60.3384 284.628ZM35.5 40.5V103.873H39.5V40.5H35.5ZM41.4043 174.969L59.5274 283.33L63.4726 282.67L45.3495 174.309L41.4043 174.969ZM35.5 103.873C35.5 127.694 37.4749 151.474 41.4043 174.969L45.3495 174.309C41.4565 151.032 39.5 127.473 39.5 103.873H35.5Z" fill="#04D47C"/>
</g>
<defs>
<filter id="filter0_d_158_5600" x="0.395996" y="1.616" width="111.35" height="291.384" filterUnits="userSpaceOnUse" color-interpolation-filters="sRGB">
<feFlood flood-opacity="0" result="BackgroundImageFix"/>
<feColorMatrix in="SourceAlpha" type="matrix" values="0 0 0 0 0 0 0 0 0 0 0 0 0 0 0 0 0 0 127 0" result="hardAlpha"/>
<feOffset dy="4"/>
<feGaussianBlur stdDeviation="2"/>
<feComposite in2="hardAlpha" operator="out"/>
<feColorMatrix type="matrix" values="0 0 0 0 0 0 0 0 0 0 0 0 0 0 0 0 0 0 0.25 0"/>
<feBlend mode="normal" in2="BackgroundImageFix" result="effect1_dropShadow_158_5600"/>
<feBlend mode="normal" in="SourceGraphic" in2="effect1_dropShadow_158_5600" result="shape"/>
</filter>
</defs>
</svg>
