<svg width="143" height="347" viewBox="0 0 143 347" fill="none" xmlns="http://www.w3.org/2000/svg">
<path d="M39.868 9.14H36.22L35.548 11H34.396L37.42 2.684H38.68L41.692 11H40.54L39.868 9.14ZM39.556 8.252L38.044 4.028L36.532 8.252H39.556ZM42.6019 7.688C42.6019 7.016 42.7379 6.428 43.0099 5.924C43.2819 5.412 43.6539 5.016 44.1259 4.736C44.6059 4.456 45.1419 4.316 45.7339 4.316C46.3019 4.316 46.7979 4.444 47.2219 4.7C47.6539 4.948 47.9699 5.256 48.1699 5.624V4.424H49.2739V14.12H48.1699V9.788C47.9619 10.156 47.6419 10.468 47.2099 10.724C46.7779 10.98 46.2739 11.108 45.6979 11.108C45.1219 11.108 44.5979 10.964 44.1259 10.676C43.6539 10.388 43.2819 9.984 43.0099 9.464C42.7379 8.944 42.6019 8.352 42.6019 7.688ZM48.1699 7.7C48.1699 7.204 48.0699 6.772 47.8699 6.404C47.6699 6.036 47.3979 5.756 47.0539 5.564C46.7179 5.364 46.3459 5.264 45.9379 5.264C45.5299 5.264 45.1579 5.36 44.8219 5.552C44.4859 5.744 44.2179 6.024 44.0179 6.392C43.8179 6.76 43.7179 7.192 43.7179 7.688C43.7179 8.192 43.8179 8.632 44.0179 9.008C44.2179 9.376 44.4859 9.66 44.8219 9.86C45.1579 10.052 45.5299 10.148 45.9379 10.148C46.3459 10.148 46.7179 10.052 47.0539 9.86C47.3979 9.66 47.6699 9.376 47.8699 9.008C48.0699 8.632 48.1699 8.196 48.1699 7.7ZM56.9513 4.424V11H55.8593V10.028C55.6513 10.364 55.3593 10.628 54.9833 10.82C54.6153 11.004 54.2073 11.096 53.7593 11.096C53.2473 11.096 52.7873 10.992 52.3793 10.784C51.9713 10.568 51.6473 10.248 51.4073 9.824C51.1753 9.4 51.0593 8.884 51.0593 8.276V4.424H52.1393V8.132C52.1393 8.78 52.3033 9.28 52.6313 9.632C52.9593 9.976 53.4073 10.148 53.9753 10.148C54.5593 10.148 55.0193 9.968 55.3553 9.608C55.6913 9.248 55.8593 8.724 55.8593 8.036V4.424H56.9513ZM59.3591 3.356C59.1511 3.356 58.9751 3.284 58.8311 3.14C58.6871 2.996 58.6151 2.82 58.6151 2.612C58.6151 2.404 58.6871 2.228 58.8311 2.084C58.9751 1.94 59.1511 1.868 59.3591 1.868C59.5591 1.868 59.7271 1.94 59.8631 2.084C60.0071 2.228 60.0791 2.404 60.0791 2.612C60.0791 2.82 60.0071 2.996 59.8631 3.14C59.7271 3.284 59.5591 3.356 59.3591 3.356ZM59.8871 4.424V11H58.7951V4.424H59.8871ZM70.9474 7.46C70.9474 7.668 70.9354 7.888 70.9114 8.12H65.6554C65.6954 8.768 65.9154 9.276 66.3154 9.644C66.7234 10.004 67.2154 10.184 67.7914 10.184C68.2634 10.184 68.6554 10.076 68.9674 9.86C69.2874 9.636 69.5114 9.34 69.6394 8.972H70.8154C70.6394 9.604 70.2874 10.12 69.7594 10.52C69.2314 10.912 68.5754 11.108 67.7914 11.108C67.1674 11.108 66.6074 10.968 66.1114 10.688C65.6234 10.408 65.2394 10.012 64.9594 9.5C64.6794 8.98 64.5394 8.38 64.5394 7.7C64.5394 7.02 64.6754 6.424 64.9474 5.912C65.2194 5.4 65.5994 5.008 66.0874 4.736C66.5834 4.456 67.1514 4.316 67.7914 4.316C68.4154 4.316 68.9674 4.452 69.4474 4.724C69.9274 4.996 70.2954 5.372 70.5514 5.852C70.8154 6.324 70.9474 6.86 70.9474 7.46ZM69.8194 7.232C69.8194 6.816 69.7274 6.46 69.5434 6.164C69.3594 5.86 69.1074 5.632 68.7874 5.48C68.4754 5.32 68.1274 5.24 67.7434 5.24C67.1914 5.24 66.7194 5.416 66.3274 5.768C65.9434 6.12 65.7234 6.608 65.6674 7.232H69.8194ZM68.9194 2.564L66.3634 3.932V3.116L68.9194 1.616V2.564ZM78.4561 11.108C77.8401 11.108 77.2801 10.968 76.7761 10.688C76.2801 10.408 75.8881 10.012 75.6001 9.5C75.3201 8.98 75.1801 8.38 75.1801 7.7C75.1801 7.028 75.3241 6.436 75.6121 5.924C75.9081 5.404 76.3081 5.008 76.8121 4.736C77.3161 4.456 77.8801 4.316 78.5041 4.316C79.1281 4.316 79.6921 4.456 80.1961 4.736C80.7001 5.008 81.0961 5.4 81.3841 5.912C81.6801 6.424 81.8281 7.02 81.8281 7.7C81.8281 8.38 81.6761 8.98 81.3721 9.5C81.0761 10.012 80.6721 10.408 80.1601 10.688C79.6481 10.968 79.0801 11.108 78.4561 11.108ZM78.4561 10.148C78.8481 10.148 79.2161 10.056 79.5601 9.872C79.9041 9.688 80.1801 9.412 80.3881 9.044C80.6041 8.676 80.7121 8.228 80.7121 7.7C80.7121 7.172 80.6081 6.724 80.4001 6.356C80.1921 5.988 79.9201 5.716 79.5841 5.54C79.2481 5.356 78.8841 5.264 78.4921 5.264C78.0921 5.264 77.7241 5.356 77.3881 5.54C77.0601 5.716 76.7961 5.988 76.5961 6.356C76.3961 6.724 76.2961 7.172 76.2961 7.7C76.2961 8.236 76.3921 8.688 76.5841 9.056C76.7841 9.424 77.0481 9.7 77.3761 9.884C77.7041 10.06 78.0641 10.148 78.4561 10.148ZM87.5551 2.12V11H86.4631V2.12H87.5551ZM95.2482 4.424V11H94.1562V10.028C93.9482 10.364 93.6562 10.628 93.2802 10.82C92.9122 11.004 92.5042 11.096 92.0562 11.096C91.5442 11.096 91.0842 10.992 90.6762 10.784C90.2682 10.568 89.9442 10.248 89.7042 9.824C89.4722 9.4 89.3562 8.884 89.3562 8.276V4.424H90.4362V8.132C90.4362 8.78 90.6002 9.28 90.9282 9.632C91.2562 9.976 91.7042 10.148 92.2722 10.148C92.8562 10.148 93.3162 9.968 93.6522 9.608C93.9882 9.248 94.1562 8.724 94.1562 8.036V4.424H95.2482ZM96.684 7.7C96.684 7.02 96.82 6.428 97.092 5.924C97.364 5.412 97.74 5.016 98.22 4.736C98.708 4.456 99.264 4.316 99.888 4.316C100.696 4.316 101.36 4.512 101.88 4.904C102.408 5.296 102.756 5.84 102.924 6.536H101.748C101.636 6.136 101.416 5.82 101.088 5.588C100.768 5.356 100.368 5.24 99.888 5.24C99.264 5.24 98.76 5.456 98.376 5.888C97.992 6.312 97.8 6.916 97.8 7.7C97.8 8.492 97.992 9.104 98.376 9.536C98.76 9.968 99.264 10.184 99.888 10.184C100.368 10.184 100.768 10.072 101.088 9.848C101.408 9.624 101.628 9.304 101.748 8.888H102.924C102.748 9.56 102.396 10.1 101.868 10.508C101.34 10.908 100.68 11.108 99.888 11.108C99.264 11.108 98.708 10.968 98.22 10.688C97.74 10.408 97.364 10.012 97.092 9.5C96.82 8.988 96.684 8.388 96.684 7.7ZM105.473 5.492C105.665 5.116 105.937 4.824 106.289 4.616C106.649 4.408 107.085 4.304 107.597 4.304V5.432H107.309C106.085 5.432 105.473 6.096 105.473 7.424V11H104.381V4.424H105.473V5.492ZM111.726 11.108C111.11 11.108 110.55 10.968 110.046 10.688C109.55 10.408 109.158 10.012 108.87 9.5C108.59 8.98 108.45 8.38 108.45 7.7C108.45 7.028 108.594 6.436 108.882 5.924C109.178 5.404 109.578 5.008 110.082 4.736C110.586 4.456 111.15 4.316 111.774 4.316C112.398 4.316 112.962 4.456 113.466 4.736C113.97 5.008 114.366 5.4 114.654 5.912C114.95 6.424 115.098 7.02 115.098 7.7C115.098 8.38 114.946 8.98 114.642 9.5C114.346 10.012 113.942 10.408 113.43 10.688C112.918 10.968 112.35 11.108 111.726 11.108ZM111.726 10.148C112.118 10.148 112.486 10.056 112.83 9.872C113.174 9.688 113.45 9.412 113.658 9.044C113.874 8.676 113.982 8.228 113.982 7.7C113.982 7.172 113.878 6.724 113.67 6.356C113.462 5.988 113.19 5.716 112.854 5.54C112.518 5.356 112.154 5.264 111.762 5.264C111.362 5.264 110.994 5.356 110.658 5.54C110.33 5.716 110.066 5.988 109.866 6.356C109.666 6.724 109.566 7.172 109.566 7.7C109.566 8.236 109.662 8.688 109.854 9.056C110.054 9.424 110.318 9.7 110.646 9.884C110.974 10.06 111.334 10.148 111.726 10.148ZM125.733 7.46C125.733 7.668 125.721 7.888 125.697 8.12H120.441C120.481 8.768 120.701 9.276 121.101 9.644C121.509 10.004 122.001 10.184 122.577 10.184C123.049 10.184 123.441 10.076 123.753 9.86C124.073 9.636 124.297 9.34 124.425 8.972H125.601C125.425 9.604 125.073 10.12 124.545 10.52C124.017 10.912 123.361 11.108 122.577 11.108C121.953 11.108 121.393 10.968 120.897 10.688C120.409 10.408 120.025 10.012 119.745 9.5C119.465 8.98 119.325 8.38 119.325 7.7C119.325 7.02 119.461 6.424 119.733 5.912C120.005 5.4 120.385 5.008 120.873 4.736C121.369 4.456 121.937 4.316 122.577 4.316C123.201 4.316 123.753 4.452 124.233 4.724C124.713 4.996 125.081 5.372 125.337 5.852C125.601 6.324 125.733 6.86 125.733 7.46ZM124.605 7.232C124.605 6.816 124.513 6.46 124.329 6.164C124.145 5.86 123.893 5.632 123.573 5.48C123.261 5.32 122.913 5.24 122.529 5.24C121.977 5.24 121.505 5.416 121.113 5.768C120.729 6.12 120.509 6.608 120.453 7.232H124.605ZM135.082 4.304C135.594 4.304 136.05 4.412 136.45 4.628C136.85 4.836 137.166 5.152 137.398 5.576C137.63 6 137.746 6.516 137.746 7.124V11H136.666V7.28C136.666 6.624 136.502 6.124 136.174 5.78C135.854 5.428 135.418 5.252 134.866 5.252C134.298 5.252 133.846 5.436 133.51 5.804C133.174 6.164 133.006 6.688 133.006 7.376V11H131.926V7.28C131.926 6.624 131.762 6.124 131.434 5.78C131.114 5.428 130.678 5.252 130.126 5.252C129.558 5.252 129.106 5.436 128.77 5.804C128.434 6.164 128.266 6.688 128.266 7.376V11H127.174V4.424H128.266V5.372C128.482 5.028 128.77 4.764 129.13 4.58C129.498 4.396 129.902 4.304 130.342 4.304C130.894 4.304 131.382 4.428 131.806 4.676C132.23 4.924 132.546 5.288 132.754 5.768C132.938 5.304 133.242 4.944 133.666 4.688C134.09 4.432 134.562 4.304 135.082 4.304ZM34.516 21.7C34.516 21.02 34.652 20.428 34.924 19.924C35.196 19.412 35.572 19.016 36.052 18.736C36.54 18.456 37.096 18.316 37.72 18.316C38.528 18.316 39.192 18.512 39.712 18.904C40.24 19.296 40.588 19.84 40.756 20.536H39.58C39.468 20.136 39.248 19.82 38.92 19.588C38.6 19.356 38.2 19.24 37.72 19.24C37.096 19.24 36.592 19.456 36.208 19.888C35.824 20.312 35.632 20.916 35.632 21.7C35.632 22.492 35.824 23.104 36.208 23.536C36.592 23.968 37.096 24.184 37.72 24.184C38.2 24.184 38.6 24.072 38.92 23.848C39.24 23.624 39.46 23.304 39.58 22.888H40.756C40.58 23.56 40.228 24.1 39.7 24.508C39.172 24.908 38.512 25.108 37.72 25.108C37.096 25.108 36.54 24.968 36.052 24.688C35.572 24.408 35.196 24.012 34.924 23.5C34.652 22.988 34.516 22.388 34.516 21.7ZM41.8051 21.688C41.8051 21.016 41.9411 20.428 42.2131 19.924C42.4851 19.412 42.8571 19.016 43.3291 18.736C43.8091 18.456 44.3411 18.316 44.9251 18.316C45.5011 18.316 46.0011 18.44 46.4251 18.688C46.8491 18.936 47.1651 19.248 47.3731 19.624V18.424H48.4771V25H47.3731V23.776C47.1571 24.16 46.8331 24.48 46.4011 24.736C45.9771 24.984 45.4811 25.108 44.9131 25.108C44.3291 25.108 43.8011 24.964 43.3291 24.676C42.8571 24.388 42.4851 23.984 42.2131 23.464C41.9411 22.944 41.8051 22.352 41.8051 21.688ZM47.3731 21.7C47.3731 21.204 47.2731 20.772 47.0731 20.404C46.8731 20.036 46.6011 19.756 46.2571 19.564C45.9211 19.364 45.5491 19.264 45.1411 19.264C44.7331 19.264 44.3611 19.36 44.0251 19.552C43.6891 19.744 43.4211 20.024 43.2211 20.392C43.0211 20.76 42.9211 21.192 42.9211 21.688C42.9211 22.192 43.0211 22.632 43.2211 23.008C43.4211 23.376 43.6891 23.66 44.0251 23.86C44.3611 24.052 44.7331 24.148 45.1411 24.148C45.5491 24.148 45.9211 24.052 46.2571 23.86C46.6011 23.66 46.8731 23.376 47.0731 23.008C47.2731 22.632 47.3731 22.196 47.3731 21.7ZM52.6504 25.108C52.1464 25.108 51.6944 25.024 51.2944 24.856C50.8944 24.68 50.5784 24.44 50.3464 24.136C50.1144 23.824 49.9864 23.468 49.9624 23.068H51.0904C51.1224 23.396 51.2744 23.664 51.5464 23.872C51.8264 24.08 52.1904 24.184 52.6384 24.184C53.0544 24.184 53.3824 24.092 53.6224 23.908C53.8624 23.724 53.9824 23.492 53.9824 23.212C53.9824 22.924 53.8544 22.712 53.5984 22.576C53.3424 22.432 52.9464 22.292 52.4104 22.156C51.9224 22.028 51.5224 21.9 51.2104 21.772C50.9064 21.636 50.6424 21.44 50.4184 21.184C50.2024 20.92 50.0944 20.576 50.0944 20.152C50.0944 19.816 50.1944 19.508 50.3944 19.228C50.5944 18.948 50.8784 18.728 51.2464 18.568C51.6144 18.4 52.0344 18.316 52.5064 18.316C53.2344 18.316 53.8224 18.5 54.2704 18.868C54.7184 19.236 54.9584 19.74 54.9904 20.38H53.8984C53.8744 20.036 53.7344 19.76 53.4784 19.552C53.2304 19.344 52.8944 19.24 52.4704 19.24C52.0784 19.24 51.7664 19.324 51.5344 19.492C51.3024 19.66 51.1864 19.88 51.1864 20.152C51.1864 20.368 51.2544 20.548 51.3904 20.692C51.5344 20.828 51.7104 20.94 51.9184 21.028C52.1344 21.108 52.4304 21.2 52.8064 21.304C53.2784 21.432 53.6624 21.56 53.9584 21.688C54.2544 21.808 54.5064 21.992 54.7144 22.24C54.9304 22.488 55.0424 22.812 55.0504 23.212C55.0504 23.572 54.9504 23.896 54.7504 24.184C54.5504 24.472 54.2664 24.7 53.8984 24.868C53.5384 25.028 53.1224 25.108 52.6504 25.108ZM59.46 25.108C58.844 25.108 58.284 24.968 57.78 24.688C57.284 24.408 56.892 24.012 56.604 23.5C56.324 22.98 56.184 22.38 56.184 21.7C56.184 21.028 56.328 20.436 56.616 19.924C56.912 19.404 57.312 19.008 57.816 18.736C58.32 18.456 58.884 18.316 59.508 18.316C60.132 18.316 60.696 18.456 61.2 18.736C61.704 19.008 62.1 19.4 62.388 19.912C62.684 20.424 62.832 21.02 62.832 21.7C62.832 22.38 62.68 22.98 62.376 23.5C62.08 24.012 61.676 24.408 61.164 24.688C60.652 24.968 60.084 25.108 59.46 25.108ZM59.46 24.148C59.852 24.148 60.22 24.056 60.564 23.872C60.908 23.688 61.184 23.412 61.392 23.044C61.608 22.676 61.716 22.228 61.716 21.7C61.716 21.172 61.612 20.724 61.404 20.356C61.196 19.988 60.924 19.716 60.588 19.54C60.252 19.356 59.888 19.264 59.496 19.264C59.096 19.264 58.728 19.356 58.392 19.54C58.064 19.716 57.8 19.988 57.6 20.356C57.4 20.724 57.3 21.172 57.3 21.7C57.3 22.236 57.396 22.688 57.588 23.056C57.788 23.424 58.052 23.7 58.38 23.884C58.708 24.06 59.068 24.148 59.46 24.148ZM67.059 21.688C67.059 21.016 67.195 20.428 67.467 19.924C67.739 19.412 68.111 19.016 68.583 18.736C69.063 18.456 69.599 18.316 70.191 18.316C70.703 18.316 71.179 18.436 71.619 18.676C72.059 18.908 72.395 19.216 72.627 19.6V16.12H73.731V25H72.627V23.764C72.411 24.156 72.091 24.48 71.667 24.736C71.243 24.984 70.747 25.108 70.179 25.108C69.595 25.108 69.063 24.964 68.583 24.676C68.111 24.388 67.739 23.984 67.467 23.464C67.195 22.944 67.059 22.352 67.059 21.688ZM72.627 21.7C72.627 21.204 72.527 20.772 72.327 20.404C72.127 20.036 71.855 19.756 71.511 19.564C71.175 19.364 70.803 19.264 70.395 19.264C69.987 19.264 69.615 19.36 69.279 19.552C68.943 19.744 68.675 20.024 68.475 20.392C68.275 20.76 68.175 21.192 68.175 21.688C68.175 22.192 68.275 22.632 68.475 23.008C68.675 23.376 68.943 23.66 69.279 23.86C69.615 24.052 69.987 24.148 70.395 24.148C70.803 24.148 71.175 24.052 71.511 23.86C71.855 23.66 72.127 23.376 72.327 23.008C72.527 22.632 72.627 22.196 72.627 21.7ZM81.5763 21.46C81.5763 21.668 81.5643 21.888 81.5403 22.12H76.2843C76.3243 22.768 76.5443 23.276 76.9443 23.644C77.3523 24.004 77.8443 24.184 78.4203 24.184C78.8923 24.184 79.2843 24.076 79.5963 23.86C79.9163 23.636 80.1403 23.34 80.2683 22.972H81.4443C81.2683 23.604 80.9163 24.12 80.3883 24.52C79.8603 24.912 79.2043 25.108 78.4203 25.108C77.7963 25.108 77.2363 24.968 76.7403 24.688C76.2523 24.408 75.8683 24.012 75.5883 23.5C75.3083 22.98 75.1683 22.38 75.1683 21.7C75.1683 21.02 75.3043 20.424 75.5763 19.912C75.8483 19.4 76.2283 19.008 76.7163 18.736C77.2123 18.456 77.7803 18.316 78.4203 18.316C79.0443 18.316 79.5963 18.452 80.0763 18.724C80.5563 18.996 80.9243 19.372 81.1803 19.852C81.4443 20.324 81.5763 20.86 81.5763 21.46ZM80.4483 21.232C80.4483 20.816 80.3563 20.46 80.1723 20.164C79.9883 19.86 79.7363 19.632 79.4163 19.48C79.1043 19.32 78.7563 19.24 78.3723 19.24C77.8203 19.24 77.3483 19.416 76.9563 19.768C76.5723 20.12 76.3523 20.608 76.2963 21.232H80.4483Z" fill="white"/>
<path d="M88.089 19.252C88.281 18.94 88.557 18.688 88.917 18.496C89.277 18.304 89.689 18.208 90.153 18.208C90.705 18.208 91.205 18.348 91.653 18.628C92.101 18.908 92.453 19.308 92.709 19.828C92.973 20.348 93.105 20.952 93.105 21.64C93.105 22.328 92.973 22.936 92.709 23.464C92.453 23.984 92.101 24.388 91.653 24.676C91.205 24.956 90.705 25.096 90.153 25.096C89.681 25.096 89.269 25.004 88.917 24.82C88.565 24.628 88.289 24.376 88.089 24.064V25H86.037V16.12H88.089V19.252ZM91.017 21.64C91.017 21.128 90.873 20.728 90.585 20.44C90.305 20.144 89.957 19.996 89.541 19.996C89.133 19.996 88.785 20.144 88.497 20.44C88.217 20.736 88.077 21.14 88.077 21.652C88.077 22.164 88.217 22.568 88.497 22.864C88.785 23.16 89.133 23.308 89.541 23.308C89.949 23.308 90.297 23.16 90.585 22.864C90.873 22.56 91.017 22.152 91.017 21.64ZM96.2335 19.42C96.4735 19.052 96.7735 18.764 97.1335 18.556C97.4935 18.34 97.8935 18.232 98.3335 18.232V20.404H97.7695C97.2575 20.404 96.8735 20.516 96.6175 20.74C96.3615 20.956 96.2335 21.34 96.2335 21.892V25H94.1815V18.304H96.2335V19.42ZM98.9063 21.64C98.9063 20.952 99.0343 20.348 99.2903 19.828C99.5543 19.308 99.9103 18.908 100.358 18.628C100.806 18.348 101.306 18.208 101.858 18.208C102.33 18.208 102.742 18.304 103.094 18.496C103.454 18.688 103.73 18.94 103.922 19.252V18.304H105.974V25H103.922V24.052C103.722 24.364 103.442 24.616 103.082 24.808C102.73 25 102.318 25.096 101.846 25.096C101.302 25.096 100.806 24.956 100.358 24.676C99.9103 24.388 99.5543 23.984 99.2903 23.464C99.0343 22.936 98.9063 22.328 98.9063 21.64ZM103.922 21.652C103.922 21.14 103.778 20.736 103.49 20.44C103.21 20.144 102.866 19.996 102.458 19.996C102.05 19.996 101.702 20.144 101.414 20.44C101.134 20.728 100.994 21.128 100.994 21.64C100.994 22.152 101.134 22.56 101.414 22.864C101.702 23.16 102.05 23.308 102.458 23.308C102.866 23.308 103.21 23.16 103.49 22.864C103.778 22.568 103.922 22.164 103.922 21.652ZM111.539 18.232C112.323 18.232 112.947 18.488 113.411 19C113.883 19.504 114.119 20.2 114.119 21.088V25H112.079V21.364C112.079 20.916 111.963 20.568 111.731 20.32C111.499 20.072 111.187 19.948 110.795 19.948C110.403 19.948 110.091 20.072 109.859 20.32C109.627 20.568 109.511 20.916 109.511 21.364V25H107.459V18.304H109.511V19.192C109.719 18.896 109.999 18.664 110.351 18.496C110.703 18.32 111.099 18.232 111.539 18.232ZM115.137 21.652C115.137 20.956 115.277 20.348 115.557 19.828C115.845 19.308 116.241 18.908 116.745 18.628C117.257 18.348 117.841 18.208 118.497 18.208C119.337 18.208 120.037 18.428 120.597 18.868C121.165 19.308 121.537 19.928 121.713 20.728H119.529C119.345 20.216 118.989 19.96 118.461 19.96C118.085 19.96 117.785 20.108 117.561 20.404C117.337 20.692 117.225 21.108 117.225 21.652C117.225 22.196 117.337 22.616 117.561 22.912C117.785 23.2 118.085 23.344 118.461 23.344C118.989 23.344 119.345 23.088 119.529 22.576H121.713C121.537 23.36 121.165 23.976 120.597 24.424C120.029 24.872 119.329 25.096 118.497 25.096C117.841 25.096 117.257 24.956 116.745 24.676C116.241 24.396 115.845 23.996 115.557 23.476C115.277 22.956 115.137 22.348 115.137 21.652ZM125.858 25.096C125.202 25.096 124.61 24.956 124.082 24.676C123.562 24.396 123.15 23.996 122.846 23.476C122.55 22.956 122.402 22.348 122.402 21.652C122.402 20.964 122.554 20.36 122.858 19.84C123.162 19.312 123.578 18.908 124.106 18.628C124.634 18.348 125.226 18.208 125.882 18.208C126.538 18.208 127.13 18.348 127.658 18.628C128.186 18.908 128.602 19.312 128.906 19.84C129.21 20.36 129.362 20.964 129.362 21.652C129.362 22.34 129.206 22.948 128.894 23.476C128.59 23.996 128.17 24.396 127.634 24.676C127.106 24.956 126.514 25.096 125.858 25.096ZM125.858 23.32C126.25 23.32 126.582 23.176 126.854 22.888C127.134 22.6 127.274 22.188 127.274 21.652C127.274 21.116 127.138 20.704 126.866 20.416C126.602 20.128 126.274 19.984 125.882 19.984C125.482 19.984 125.15 20.128 124.886 20.416C124.622 20.696 124.49 21.108 124.49 21.652C124.49 22.188 124.618 22.6 124.874 22.888C125.138 23.176 125.466 23.32 125.858 23.32Z" fill="url(#paint0_linear_160_6929)"/>
<g filter="url(#filter0_d_160_6929)">
<path d="M46 233.5L47.9151 234.076L47.95 233.961L47.9706 233.842L46 233.5ZM13.2382 337.447C13.761 338.42 14.9736 338.785 15.9466 338.262L31.8027 329.742C32.7757 329.219 33.1407 328.007 32.6179 327.034C32.095 326.061 30.8824 325.696 29.9094 326.219L15.8152 333.792L8.24211 319.697C7.7193 318.724 6.5067 318.359 5.53369 318.882C4.56068 319.405 4.19572 320.618 4.71853 321.591L13.2382 337.447ZM76.5294 45.6584L44.0294 233.158L47.9706 233.842L80.4706 46.3416L76.5294 45.6584ZM44.0849 232.924L13.0849 335.924L16.9151 337.076L47.9151 234.076L44.0849 232.924Z" fill="url(#paint1_linear_160_6929)"/>
</g>
<defs>
<filter id="filter0_d_160_6929" x="0.47998" y="45.6584" width="83.9907" height="300.842" filterUnits="userSpaceOnUse" color-interpolation-filters="sRGB">
<feFlood flood-opacity="0" result="BackgroundImageFix"/>
<feColorMatrix in="SourceAlpha" type="matrix" values="0 0 0 0 0 0 0 0 0 0 0 0 0 0 0 0 0 0 127 0" result="hardAlpha"/>
<feOffset dy="4"/>
<feGaussianBlur stdDeviation="2"/>
<feComposite in2="hardAlpha" operator="out"/>
<feColorMatrix type="matrix" values="0 0 0 0 0 0 0 0 0 0 0 0 0 0 0 0 0 0 0.25 0"/>
<feBlend mode="normal" in2="BackgroundImageFix" result="effect1_dropShadow_160_6929"/>
<feBlend mode="normal" in="SourceGraphic" in2="effect1_dropShadow_160_6929" result="shape"/>
</filter>
<linearGradient id="paint0_linear_160_6929" x1="88.5" y1="0" x2="88.5" y2="34" gradientUnits="userSpaceOnUse">
<stop stop-color="#ECDD59"/>
<stop offset="0.21875" stop-color="#E1D250" stop-opacity="0.85"/>
<stop offset="0.442708" stop-color="#D7C947"/>
<stop offset="0.604167" stop-color="#CEC040" stop-opacity="0.81"/>
<stop offset="1" stop-color="#CCBE3E"/>
</linearGradient>
<linearGradient id="paint1_linear_160_6929" x1="46.75" y1="46" x2="46.75" y2="336.5" gradientUnits="userSpaceOnUse">
<stop stop-color="#ECDD59"/>
<stop offset="0.21875" stop-color="#E1D250" stop-opacity="0.85"/>
<stop offset="0.442708" stop-color="#D7C947"/>
<stop offset="0.604167" stop-color="#CEC040" stop-opacity="0.81"/>
<stop offset="1" stop-color="#CCBE3E"/>
</linearGradient>
</defs>
</svg>
