<svg width="504" height="150" viewBox="0 0 504 150" fill="none" xmlns="http://www.w3.org/2000/svg">
<path d="M283.114 56.9998V39.5452H289.011C290.381 39.5452 291.5 39.7924 292.369 40.2867C293.244 40.7753 293.892 41.4373 294.312 42.2725C294.733 43.1077 294.943 44.0395 294.943 45.0679C294.943 46.0963 294.733 47.031 294.312 47.8719C293.898 48.7128 293.256 49.3833 292.386 49.8833C291.517 50.3776 290.403 50.6248 289.045 50.6248H284.818V48.7498H288.977C289.915 48.7498 290.668 48.5878 291.236 48.264C291.804 47.9401 292.216 47.5026 292.472 46.9515C292.733 46.3946 292.864 45.7668 292.864 45.0679C292.864 44.3691 292.733 43.7441 292.472 43.1929C292.216 42.6418 291.801 42.21 291.227 41.8975C290.653 41.5793 289.892 41.4202 288.943 41.4202H285.227V56.9998H283.114ZM298.075 56.9998V43.9088H300.018V45.8861H300.155C300.393 45.2384 300.825 44.7128 301.45 44.3094C302.075 43.906 302.78 43.7043 303.564 43.7043C303.712 43.7043 303.896 43.7071 304.118 43.7128C304.339 43.7185 304.507 43.727 304.621 43.7384V45.7838C304.553 45.7668 304.396 45.7412 304.152 45.7071C303.913 45.6674 303.661 45.6475 303.393 45.6475C302.757 45.6475 302.189 45.781 301.689 46.0481C301.195 46.3094 300.803 46.6731 300.513 47.139C300.229 47.5992 300.087 48.1248 300.087 48.7157V56.9998H298.075ZM307.005 56.9998V43.9088H309.016V56.9998H307.005ZM308.028 41.727C307.636 41.727 307.298 41.5935 307.013 41.3265C306.735 41.0594 306.596 40.7384 306.596 40.3634C306.596 39.9884 306.735 39.6674 307.013 39.4003C307.298 39.1333 307.636 38.9998 308.028 38.9998C308.42 38.9998 308.755 39.1333 309.033 39.4003C309.317 39.6674 309.46 39.9884 309.46 40.3634C309.46 40.7384 309.317 41.0594 309.033 41.3265C308.755 41.5935 308.42 41.727 308.028 41.727ZM312.7 56.9998V43.9088H314.643V45.9543H314.814C315.087 45.2554 315.527 44.7128 316.135 44.3265C316.743 43.9344 317.473 43.7384 318.325 43.7384C319.189 43.7384 319.908 43.9344 320.482 44.3265C321.061 44.7128 321.513 45.2554 321.837 45.9543H321.973C322.308 45.2782 322.811 44.7412 323.482 44.3435C324.152 43.9401 324.956 43.7384 325.893 43.7384C327.064 43.7384 328.021 44.1049 328.766 44.8378C329.51 45.5651 329.882 46.6986 329.882 48.2384V56.9998H327.871V48.2384C327.871 47.2725 327.607 46.5821 327.078 46.1674C326.55 45.7526 325.928 45.5452 325.212 45.5452C324.291 45.5452 323.578 45.8236 323.072 46.3804C322.567 46.9316 322.314 47.6304 322.314 48.477V56.9998H320.268V48.0338C320.268 47.2895 320.027 46.6901 319.544 46.2356C319.061 45.7753 318.439 45.5452 317.678 45.5452C317.155 45.5452 316.666 45.6844 316.212 45.9628C315.763 46.2412 315.399 46.6276 315.121 47.1219C314.848 47.6106 314.712 48.1759 314.712 48.8179V56.9998H312.7ZM339.048 57.2725C337.787 57.2725 336.699 56.9941 335.784 56.4373C334.875 55.8748 334.173 55.0907 333.679 54.085C333.19 53.0736 332.946 51.8975 332.946 50.5566C332.946 49.2157 333.19 48.0338 333.679 47.0111C334.173 45.9827 334.861 45.1816 335.741 44.6077C336.628 44.0282 337.662 43.7384 338.844 43.7384C339.526 43.7384 340.199 43.852 340.864 44.0793C341.528 44.3066 342.134 44.6759 342.679 45.1873C343.224 45.6929 343.659 46.3634 343.983 47.1986C344.307 48.0338 344.469 49.0623 344.469 50.2838V51.1361H334.378V49.3975H342.423C342.423 48.6588 342.276 47.9998 341.98 47.4202C341.69 46.8407 341.276 46.3833 340.736 46.0481C340.202 45.7128 339.571 45.5452 338.844 45.5452C338.043 45.5452 337.349 45.7441 336.764 46.1418C336.185 46.5338 335.739 47.0452 335.426 47.6759C335.114 48.3066 334.957 48.9827 334.957 49.7043V50.8634C334.957 51.852 335.128 52.6901 335.469 53.3776C335.815 54.0594 336.295 54.5793 336.909 54.9373C337.523 55.2895 338.236 55.4657 339.048 55.4657C339.577 55.4657 340.054 55.3918 340.48 55.2441C340.912 55.0907 341.284 54.8634 341.597 54.5623C341.909 54.2554 342.151 53.8748 342.321 53.4202L344.264 53.9657C344.06 54.6248 343.716 55.2043 343.233 55.7043C342.75 56.1986 342.153 56.585 341.443 56.8634C340.733 57.1361 339.935 57.2725 339.048 57.2725ZM347.528 56.9998V43.9088H349.54V56.9998H347.528ZM348.551 41.727C348.159 41.727 347.821 41.5935 347.537 41.3265C347.259 41.0594 347.119 40.7384 347.119 40.3634C347.119 39.9884 347.259 39.6674 347.537 39.4003C347.821 39.1333 348.159 38.9998 348.551 38.9998C348.943 38.9998 349.278 39.1333 349.557 39.4003C349.841 39.6674 349.983 39.9884 349.983 40.3634C349.983 40.7384 349.841 41.0594 349.557 41.3265C349.278 41.5935 348.943 41.727 348.551 41.727ZM353.224 56.9998V43.9088H355.167V45.8861H355.303C355.542 45.2384 355.974 44.7128 356.599 44.3094C357.224 43.906 357.928 43.7043 358.712 43.7043C358.86 43.7043 359.045 43.7071 359.266 43.7128C359.488 43.7185 359.656 43.727 359.769 43.7384V45.7838C359.701 45.7668 359.545 45.7412 359.3 45.7071C359.062 45.6674 358.809 45.6475 358.542 45.6475C357.906 45.6475 357.337 45.781 356.837 46.0481C356.343 46.3094 355.951 46.6731 355.661 47.139C355.377 47.5992 355.235 48.1248 355.235 48.7157V56.9998H353.224ZM367.073 57.2725C365.891 57.2725 364.854 56.9912 363.962 56.4287C363.076 55.8662 362.383 55.0793 361.883 54.0679C361.388 53.0566 361.141 51.8748 361.141 50.5225C361.141 49.1588 361.388 47.9685 361.883 46.9515C362.383 45.9344 363.076 45.1446 363.962 44.5821C364.854 44.0196 365.891 43.7384 367.073 43.7384C368.255 43.7384 369.289 44.0196 370.175 44.5821C371.067 45.1446 371.761 45.9344 372.255 46.9515C372.755 47.9685 373.005 49.1588 373.005 50.5225C373.005 51.8748 372.755 53.0566 372.255 54.0679C371.761 55.0793 371.067 55.8662 370.175 56.4287C369.289 56.9912 368.255 57.2725 367.073 57.2725ZM367.073 55.4657C367.971 55.4657 368.71 55.2356 369.289 54.7753C369.869 54.3151 370.298 53.71 370.576 52.96C370.854 52.21 370.994 51.3975 370.994 50.5225C370.994 49.6475 370.854 48.8321 370.576 48.0765C370.298 47.3208 369.869 46.71 369.289 46.2441C368.71 45.7782 367.971 45.5452 367.073 45.5452C366.175 45.5452 365.437 45.7782 364.857 46.2441C364.278 46.71 363.849 47.3208 363.57 48.0765C363.292 48.8321 363.153 49.6475 363.153 50.5225C363.153 51.3975 363.292 52.21 363.57 52.96C363.849 53.71 364.278 54.3151 364.857 54.7753C365.437 55.2356 366.175 55.4657 367.073 55.4657ZM392.098 46.8407L390.291 47.352C390.178 47.0509 390.01 46.7583 389.788 46.4742C389.572 46.1844 389.277 45.9458 388.902 45.7583C388.527 45.5708 388.047 45.477 387.462 45.477C386.661 45.477 385.993 45.6617 385.459 46.031C384.93 46.3946 384.666 46.8577 384.666 47.4202C384.666 47.9202 384.848 48.3151 385.212 48.6049C385.575 48.8946 386.143 49.1361 386.916 49.3293L388.859 49.8066C390.03 50.0907 390.902 50.5253 391.476 51.1106C392.05 51.6901 392.337 52.4373 392.337 53.352C392.337 54.102 392.121 54.7725 391.689 55.3634C391.263 55.9543 390.666 56.4202 389.899 56.7611C389.132 57.102 388.24 57.2725 387.223 57.2725C385.888 57.2725 384.783 56.9827 383.908 56.4032C383.033 55.8236 382.479 54.977 382.246 53.8634L384.155 53.3861C384.337 54.0907 384.68 54.6191 385.186 54.9713C385.697 55.3236 386.365 55.4998 387.189 55.4998C388.126 55.4998 388.871 55.3009 389.422 54.9032C389.979 54.4998 390.257 54.0168 390.257 53.4543C390.257 52.9998 390.098 52.6191 389.78 52.3123C389.462 51.9998 388.973 51.7668 388.314 51.6134L386.132 51.102C384.933 50.8179 384.053 50.3776 383.49 49.781C382.933 49.1787 382.655 48.4259 382.655 47.5225C382.655 46.7838 382.862 46.1304 383.277 45.5623C383.697 44.9941 384.268 44.5481 384.99 44.2242C385.717 43.9003 386.541 43.7384 387.462 43.7384C388.757 43.7384 389.774 44.0225 390.513 44.5907C391.257 45.1588 391.786 45.9088 392.098 46.8407ZM400.853 57.2725C399.592 57.2725 398.504 56.9941 397.589 56.4373C396.68 55.8748 395.978 55.0907 395.484 54.085C394.995 53.0736 394.751 51.8975 394.751 50.5566C394.751 49.2157 394.995 48.0338 395.484 47.0111C395.978 45.9827 396.665 45.1816 397.546 44.6077C398.433 44.0282 399.467 43.7384 400.648 43.7384C401.33 43.7384 402.004 43.852 402.668 44.0793C403.333 44.3066 403.938 44.6759 404.484 45.1873C405.029 45.6929 405.464 46.3634 405.788 47.1986C406.112 48.0338 406.273 49.0623 406.273 50.2838V51.1361H396.183V49.3975H404.228C404.228 48.6588 404.08 47.9998 403.785 47.4202C403.495 46.8407 403.08 46.3833 402.54 46.0481C402.006 45.7128 401.376 45.5452 400.648 45.5452C399.847 45.5452 399.154 45.7441 398.569 46.1418C397.989 46.5338 397.543 47.0452 397.231 47.6759C396.918 48.3066 396.762 48.9827 396.762 49.7043V50.8634C396.762 51.852 396.933 52.6901 397.273 53.3776C397.62 54.0594 398.1 54.5793 398.714 54.9373C399.327 55.2895 400.04 55.4657 400.853 55.4657C401.381 55.4657 401.859 55.3918 402.285 55.2441C402.717 55.0907 403.089 54.8634 403.401 54.5623C403.714 54.2554 403.955 53.8748 404.126 53.4202L406.069 53.9657C405.864 54.6248 405.521 55.2043 405.038 55.7043C404.555 56.1986 403.958 56.585 403.248 56.8634C402.538 57.1361 401.739 57.2725 400.853 57.2725ZM411.344 39.5452V56.9998H409.333V39.5452H411.344ZM420.517 57.2725C419.256 57.2725 418.168 56.9941 417.253 56.4373C416.344 55.8748 415.642 55.0907 415.148 54.085C414.659 53.0736 414.415 51.8975 414.415 50.5566C414.415 49.2157 414.659 48.0338 415.148 47.0111C415.642 45.9827 416.33 45.1816 417.21 44.6077C418.097 44.0282 419.131 43.7384 420.312 43.7384C420.994 43.7384 421.668 43.852 422.332 44.0793C422.997 44.3066 423.602 44.6759 424.148 45.1873C424.693 45.6929 425.128 46.3634 425.452 47.1986C425.776 48.0338 425.938 49.0623 425.938 50.2838V51.1361H415.847V49.3975H423.892C423.892 48.6588 423.744 47.9998 423.449 47.4202C423.159 46.8407 422.744 46.3833 422.205 46.0481C421.67 45.7128 421.04 45.5452 420.312 45.5452C419.511 45.5452 418.818 45.7441 418.233 46.1418C417.653 46.5338 417.207 47.0452 416.895 47.6759C416.582 48.3066 416.426 48.9827 416.426 49.7043V50.8634C416.426 51.852 416.597 52.6901 416.938 53.3776C417.284 54.0594 417.764 54.5793 418.378 54.9373C418.991 55.2895 419.705 55.4657 420.517 55.4657C421.045 55.4657 421.523 55.3918 421.949 55.2441C422.381 55.0907 422.753 54.8634 423.065 54.5623C423.378 54.2554 423.619 53.8748 423.79 53.4202L425.733 53.9657C425.528 54.6248 425.185 55.2043 424.702 55.7043C424.219 56.1986 423.622 56.585 422.912 56.8634C422.202 57.1361 421.403 57.2725 420.517 57.2725ZM434.315 57.2725C433.088 57.2725 432.031 56.9827 431.145 56.4032C430.259 55.8236 429.577 55.0253 429.099 54.0083C428.622 52.9912 428.384 51.8293 428.384 50.5225C428.384 49.1929 428.628 48.0196 429.116 47.0026C429.611 45.9799 430.298 45.1816 431.179 44.6077C432.065 44.0282 433.099 43.7384 434.281 43.7384C435.202 43.7384 436.031 43.9088 436.77 44.2498C437.509 44.5907 438.114 45.0679 438.585 45.6816C439.057 46.2952 439.349 47.0111 439.463 47.8293H437.452C437.298 47.2327 436.957 46.7043 436.429 46.2441C435.906 45.7782 435.202 45.5452 434.315 45.5452C433.531 45.5452 432.844 45.7498 432.253 46.1588C431.668 46.5623 431.21 47.1333 430.881 47.8719C430.557 48.6049 430.395 49.4657 430.395 50.4543C430.395 51.4657 430.554 52.3463 430.872 53.0963C431.196 53.8463 431.651 54.4287 432.236 54.8435C432.827 55.2583 433.52 55.4657 434.315 55.4657C434.838 55.4657 435.312 55.3748 435.739 55.1929C436.165 55.0111 436.526 54.7498 436.821 54.4088C437.116 54.0679 437.327 53.6588 437.452 53.1816H439.463C439.349 53.9543 439.068 54.6503 438.619 55.2696C438.176 55.8833 437.588 56.3719 436.855 56.7356C436.128 57.0935 435.281 57.2725 434.315 57.2725ZM442.403 56.9998V43.9088H444.415V56.9998H442.403ZM443.426 41.727C443.034 41.727 442.696 41.5935 442.412 41.3265C442.134 41.0594 441.994 40.7384 441.994 40.3634C441.994 39.9884 442.134 39.6674 442.412 39.4003C442.696 39.1333 443.034 38.9998 443.426 38.9998C443.818 38.9998 444.153 39.1333 444.432 39.4003C444.716 39.6674 444.858 39.9884 444.858 40.3634C444.858 40.7384 444.716 41.0594 444.432 41.3265C444.153 41.5935 443.818 41.727 443.426 41.727ZM453.417 57.2725C452.235 57.2725 451.198 56.9912 450.306 56.4287C449.42 55.8662 448.727 55.0793 448.227 54.0679C447.732 53.0566 447.485 51.8748 447.485 50.5225C447.485 49.1588 447.732 47.9685 448.227 46.9515C448.727 45.9344 449.42 45.1446 450.306 44.5821C451.198 44.0196 452.235 43.7384 453.417 43.7384C454.599 43.7384 455.633 44.0196 456.519 44.5821C457.411 45.1446 458.104 45.9344 458.599 46.9515C459.099 47.9685 459.349 49.1588 459.349 50.5225C459.349 51.8748 459.099 53.0566 458.599 54.0679C458.104 55.0793 457.411 55.8662 456.519 56.4287C455.633 56.9912 454.599 57.2725 453.417 57.2725ZM453.417 55.4657C454.315 55.4657 455.053 55.2356 455.633 54.7753C456.212 54.3151 456.641 53.71 456.92 52.96C457.198 52.21 457.337 51.3975 457.337 50.5225C457.337 49.6475 457.198 48.8321 456.92 48.0765C456.641 47.3208 456.212 46.71 455.633 46.2441C455.053 45.7782 454.315 45.5452 453.417 45.5452C452.519 45.5452 451.781 45.7782 451.201 46.2441C450.621 46.71 450.192 47.3208 449.914 48.0765C449.636 48.8321 449.496 49.6475 449.496 50.5225C449.496 51.3975 449.636 52.21 449.914 52.96C450.192 53.71 450.621 54.3151 451.201 54.7753C451.781 55.2356 452.519 55.4657 453.417 55.4657ZM464.43 49.1248V56.9998H462.419V43.9088H464.362V45.9543H464.533C464.839 45.2895 465.305 44.7554 465.93 44.352C466.555 43.9429 467.362 43.7384 468.351 43.7384C469.237 43.7384 470.013 43.9202 470.678 44.2838C471.342 44.6418 471.859 45.1873 472.229 45.9202C472.598 46.6475 472.783 47.5679 472.783 48.6816V56.9998H470.771V48.8179C470.771 47.7895 470.504 46.9884 469.97 46.4145C469.436 45.835 468.703 45.5452 467.771 45.5452C467.129 45.5452 466.555 45.6844 466.05 45.9628C465.55 46.2412 465.155 46.6475 464.865 47.1816C464.575 47.7157 464.43 48.3634 464.43 49.1248ZM481.947 57.2725C480.685 57.2725 479.597 56.9941 478.683 56.4373C477.773 55.8748 477.072 55.0907 476.577 54.085C476.089 53.0736 475.844 51.8975 475.844 50.5566C475.844 49.2157 476.089 48.0338 476.577 47.0111C477.072 45.9827 477.759 45.1816 478.64 44.6077C479.526 44.0282 480.56 43.7384 481.742 43.7384C482.424 43.7384 483.097 43.852 483.762 44.0793C484.427 44.3066 485.032 44.6759 485.577 45.1873C486.123 45.6929 486.558 46.3634 486.881 47.1986C487.205 48.0338 487.367 49.0623 487.367 50.2838V51.1361H477.276V49.3975H485.322C485.322 48.6588 485.174 47.9998 484.879 47.4202C484.589 46.8407 484.174 46.3833 483.634 46.0481C483.1 45.7128 482.469 45.5452 481.742 45.5452C480.941 45.5452 480.248 45.7441 479.663 46.1418C479.083 46.5338 478.637 47.0452 478.325 47.6759C478.012 48.3066 477.856 48.9827 477.856 49.7043V50.8634C477.856 51.852 478.026 52.6901 478.367 53.3776C478.714 54.0594 479.194 54.5793 479.808 54.9373C480.421 55.2895 481.134 55.4657 481.947 55.4657C482.475 55.4657 482.952 55.3918 483.379 55.2441C483.81 55.0907 484.183 54.8634 484.495 54.5623C484.808 54.2554 485.049 53.8748 485.219 53.4202L487.163 53.9657C486.958 54.6248 486.614 55.2043 486.131 55.7043C485.648 56.1986 485.052 56.585 484.342 56.8634C483.631 57.1361 482.833 57.2725 481.947 57.2725ZM288.159 86.2725C286.977 86.2725 285.94 85.9912 285.048 85.4287C284.162 84.8662 283.469 84.0793 282.969 83.0679C282.474 82.0566 282.227 80.8748 282.227 79.5225C282.227 78.1588 282.474 76.9685 282.969 75.9515C283.469 74.9344 284.162 74.1446 285.048 73.5821C285.94 73.0196 286.977 72.7384 288.159 72.7384C289.341 72.7384 290.375 73.0196 291.261 73.5821C292.153 74.1446 292.847 74.9344 293.341 75.9515C293.841 76.9685 294.091 78.1588 294.091 79.5225C294.091 80.8748 293.841 82.0566 293.341 83.0679C292.847 84.0793 292.153 84.8662 291.261 85.4287C290.375 85.9912 289.341 86.2725 288.159 86.2725ZM288.159 84.4657C289.057 84.4657 289.795 84.2356 290.375 83.7753C290.955 83.3151 291.384 82.71 291.662 81.96C291.94 81.21 292.08 80.3975 292.08 79.5225C292.08 78.6475 291.94 77.8321 291.662 77.0765C291.384 76.3208 290.955 75.71 290.375 75.2441C289.795 74.7782 289.057 74.5452 288.159 74.5452C287.261 74.5452 286.523 74.7782 285.943 75.2441C285.364 75.71 284.935 76.3208 284.656 77.0765C284.378 77.8321 284.239 78.6475 284.239 79.5225C284.239 80.3975 284.378 81.21 284.656 81.96C284.935 82.71 285.364 83.3151 285.943 83.7753C286.523 84.2356 287.261 84.4657 288.159 84.4657ZM374.861 86.2725C373.599 86.2725 372.511 85.9941 371.597 85.4373C370.688 84.8748 369.986 84.0907 369.491 83.085C369.003 82.0736 368.759 80.8975 368.759 79.5566C368.759 78.2157 369.003 77.0338 369.491 76.0111C369.986 74.9827 370.673 74.1816 371.554 73.6077C372.44 73.0282 373.474 72.7384 374.656 72.7384C375.338 72.7384 376.011 72.852 376.676 73.0793C377.341 73.3066 377.946 73.6759 378.491 74.1873C379.037 74.6929 379.472 75.3634 379.795 76.1986C380.119 77.0338 380.281 78.0623 380.281 79.2838V80.1361H370.19V78.3975H378.236C378.236 77.6588 378.088 76.9998 377.793 76.4202C377.503 75.8407 377.088 75.3833 376.548 75.0481C376.014 74.7128 375.384 74.5452 374.656 74.5452C373.855 74.5452 373.162 74.7441 372.577 75.1418C371.997 75.5338 371.551 76.0452 371.239 76.6759C370.926 77.3066 370.77 77.9827 370.77 78.7043V79.8634C370.77 80.852 370.94 81.6901 371.281 82.3776C371.628 83.0594 372.108 83.5793 372.722 83.9373C373.335 84.2895 374.048 84.4657 374.861 84.4657C375.389 84.4657 375.866 84.3918 376.293 84.2441C376.724 84.0907 377.097 83.8634 377.409 83.5623C377.722 83.2554 377.963 82.8748 378.134 82.4202L380.077 82.9657C379.872 83.6248 379.528 84.2043 379.045 84.7043C378.563 85.1986 377.966 85.585 377.256 85.8634C376.545 86.1361 375.747 86.2725 374.861 86.2725ZM395.58 86.2725C394.318 86.2725 393.23 85.9941 392.315 85.4373C391.406 84.8748 390.705 84.0907 390.21 83.085C389.722 82.0736 389.477 80.8975 389.477 79.5566C389.477 78.2157 389.722 77.0338 390.21 76.0111C390.705 74.9827 391.392 74.1816 392.273 73.6077C393.159 73.0282 394.193 72.7384 395.375 72.7384C396.057 72.7384 396.73 72.852 397.395 73.0793C398.06 73.3066 398.665 73.6759 399.21 74.1873C399.756 74.6929 400.19 75.3634 400.514 76.1986C400.838 77.0338 401 78.0623 401 79.2838V80.1361H390.909V78.3975H398.955C398.955 77.6588 398.807 76.9998 398.511 76.4202C398.222 75.8407 397.807 75.3833 397.267 75.0481C396.733 74.7128 396.102 74.5452 395.375 74.5452C394.574 74.5452 393.881 74.7441 393.295 75.1418C392.716 75.5338 392.27 76.0452 391.957 76.6759C391.645 77.3066 391.489 77.9827 391.489 78.7043V79.8634C391.489 80.852 391.659 81.6901 392 82.3776C392.347 83.0594 392.827 83.5793 393.44 83.9373C394.054 84.2895 394.767 84.4657 395.58 84.4657C396.108 84.4657 396.585 84.3918 397.011 84.2441C397.443 84.0907 397.815 83.8634 398.128 83.5623C398.44 83.2554 398.682 82.8748 398.852 82.4202L400.795 82.9657C400.591 83.6248 400.247 84.2043 399.764 84.7043C399.281 85.1986 398.685 85.585 397.974 85.8634C397.264 86.1361 396.466 86.2725 395.58 86.2725ZM404.06 85.9998V72.9088H406.003V74.9543H406.173C406.446 74.2554 406.886 73.7128 407.494 73.3265C408.102 72.9344 408.832 72.7384 409.685 72.7384C410.548 72.7384 411.267 72.9344 411.841 73.3265C412.42 73.7128 412.872 74.2554 413.196 74.9543H413.332C413.668 74.2782 414.17 73.7412 414.841 73.3435C415.511 72.9401 416.315 72.7384 417.253 72.7384C418.423 72.7384 419.381 73.1049 420.125 73.8378C420.869 74.5651 421.241 75.6986 421.241 77.2384V85.9998H419.23V77.2384C419.23 76.2725 418.966 75.5821 418.438 75.1674C417.909 74.7526 417.287 74.5452 416.571 74.5452C415.651 74.5452 414.938 74.8236 414.432 75.3804C413.926 75.9316 413.673 76.6304 413.673 77.477V85.9998H411.628V77.0338C411.628 76.2895 411.386 75.6901 410.903 75.2356C410.42 74.7753 409.798 74.5452 409.037 74.5452C408.514 74.5452 408.026 74.6844 407.571 74.9628C407.122 75.2412 406.759 75.6276 406.48 76.1219C406.207 76.6106 406.071 77.1759 406.071 77.8179V85.9998H404.06ZM440.601 90.9088V83.9884H440.43C440.283 84.227 440.072 84.5282 439.8 84.8918C439.527 85.2498 439.138 85.5708 438.632 85.8549C438.126 86.1333 437.453 86.2725 436.612 86.2725C435.521 86.2725 434.558 85.9969 433.723 85.4458C432.888 84.889 432.234 84.1049 431.763 83.0935C431.291 82.0765 431.055 80.8748 431.055 79.4884C431.055 78.1134 431.291 76.9202 431.763 75.9088C432.234 74.8975 432.891 74.1162 433.732 73.5651C434.572 73.014 435.544 72.7384 436.646 72.7384C437.499 72.7384 438.172 72.8804 438.666 73.1645C439.166 73.4429 439.547 73.7611 439.808 74.1191C440.075 74.4713 440.283 74.7611 440.43 74.9884H440.669V72.9088H442.612V90.9088H440.601ZM436.885 84.4657C437.692 84.4657 438.374 84.2554 438.93 83.835C439.487 83.4088 439.911 82.8208 440.2 82.0708C440.49 81.3151 440.635 80.4429 440.635 79.4543C440.635 78.477 440.493 77.6219 440.209 76.889C439.925 76.1503 439.504 75.5765 438.947 75.1674C438.391 74.7526 437.703 74.5452 436.885 74.5452C436.033 74.5452 435.322 74.764 434.754 75.2015C434.192 75.6333 433.768 76.2213 433.484 76.9657C433.206 77.7043 433.067 78.5338 433.067 79.4543C433.067 80.3861 433.209 81.2327 433.493 81.9941C433.783 82.7498 434.209 83.352 434.771 83.8009C435.339 84.2441 436.044 84.4657 436.885 84.4657ZM454.544 80.6475V72.9088H456.555V85.9998H454.544V83.7838H454.408C454.101 84.4486 453.624 85.014 452.976 85.4799C452.328 85.9401 451.51 86.1702 450.521 86.1702C449.703 86.1702 448.976 85.9912 448.339 85.6333C447.703 85.2696 447.203 84.7242 446.839 83.9969C446.476 83.264 446.294 82.3407 446.294 81.227V72.9088H448.305V81.0907C448.305 82.0452 448.572 82.8066 449.107 83.3748C449.646 83.9429 450.334 84.227 451.169 84.227C451.669 84.227 452.178 84.0992 452.695 83.8435C453.217 83.5878 453.655 83.1958 454.007 82.6674C454.365 82.139 454.544 81.4657 454.544 80.6475ZM464.092 86.3066C463.262 86.3066 462.509 86.1503 461.833 85.8378C461.157 85.5196 460.62 85.0623 460.222 84.4657C459.825 83.8634 459.626 83.1361 459.626 82.2838C459.626 81.5338 459.773 80.9259 460.069 80.46C460.364 79.9884 460.759 79.6191 461.254 79.352C461.748 79.085 462.293 78.8861 462.89 78.7554C463.492 78.6191 464.097 78.5111 464.705 78.4316C465.501 78.3293 466.146 78.2526 466.64 78.2015C467.14 78.1446 467.504 78.0509 467.731 77.9202C467.964 77.7895 468.08 77.5623 468.08 77.2384V77.1702C468.08 76.3293 467.85 75.6759 467.39 75.21C466.935 74.7441 466.245 74.5111 465.319 74.5111C464.359 74.5111 463.606 74.7213 463.06 75.1418C462.515 75.5623 462.131 76.0111 461.91 76.4884L460.001 75.8066C460.342 75.0111 460.796 74.3918 461.364 73.9486C461.938 73.4998 462.563 73.1873 463.239 73.0111C463.921 72.8293 464.592 72.7384 465.251 72.7384C465.671 72.7384 466.154 72.7895 466.7 72.8918C467.251 72.9884 467.782 73.1901 468.293 73.4969C468.81 73.8037 469.239 74.2668 469.58 74.8861C469.921 75.5054 470.092 76.335 470.092 77.3748V85.9998H468.08V84.227H467.978C467.842 84.5111 467.614 84.8151 467.296 85.139C466.978 85.4628 466.555 85.7384 466.026 85.9657C465.498 86.1929 464.853 86.3066 464.092 86.3066ZM464.398 84.4998C465.194 84.4998 465.864 84.3435 466.41 84.031C466.961 83.7185 467.376 83.3151 467.654 82.8208C467.938 82.3265 468.08 81.8066 468.08 81.2611V79.4202C467.995 79.5225 467.808 79.6162 467.518 79.7015C467.234 79.781 466.904 79.852 466.529 79.9145C466.16 79.9713 465.799 80.0225 465.447 80.0679C465.1 80.1077 464.819 80.1418 464.603 80.1702C464.08 80.2384 463.592 80.3492 463.137 80.5026C462.688 80.6503 462.325 80.8748 462.046 81.1759C461.773 81.4713 461.637 81.8748 461.637 82.3861C461.637 83.085 461.896 83.6134 462.413 83.9713C462.935 84.3236 463.597 84.4998 464.398 84.4998ZM475.774 68.5452V85.9998H473.763V68.5452H475.774ZM368.452 101.909L363.611 115H361.565L356.724 101.909H358.906L362.52 112.341H362.656L366.27 101.909H368.452ZM375.956 115.272C374.774 115.272 373.737 114.991 372.845 114.429C371.959 113.866 371.266 113.079 370.766 112.068C370.271 111.057 370.024 109.875 370.024 108.522C370.024 107.159 370.271 105.969 370.766 104.951C371.266 103.934 371.959 103.145 372.845 102.582C373.737 102.02 374.774 101.738 375.956 101.738C377.138 101.738 378.172 102.02 379.058 102.582C379.95 103.145 380.643 103.934 381.138 104.951C381.638 105.969 381.888 107.159 381.888 108.522C381.888 109.875 381.638 111.057 381.138 112.068C380.643 113.079 379.95 113.866 379.058 114.429C378.172 114.991 377.138 115.272 375.956 115.272ZM375.956 113.466C376.854 113.466 377.592 113.236 378.172 112.775C378.751 112.315 379.18 111.71 379.459 110.96C379.737 110.21 379.876 109.397 379.876 108.522C379.876 107.647 379.737 106.832 379.459 106.076C379.18 105.321 378.751 104.71 378.172 104.244C377.592 103.778 376.854 103.545 375.956 103.545C375.058 103.545 374.32 103.778 373.74 104.244C373.161 104.71 372.732 105.321 372.453 106.076C372.175 106.832 372.036 107.647 372.036 108.522C372.036 109.397 372.175 110.21 372.453 110.96C372.732 111.71 373.161 112.315 373.74 112.775C374.32 113.236 375.058 113.466 375.956 113.466ZM390.276 115.272C389.049 115.272 387.992 114.983 387.106 114.403C386.219 113.824 385.538 113.025 385.06 112.008C384.583 110.991 384.344 109.829 384.344 108.522C384.344 107.193 384.589 106.02 385.077 105.003C385.572 103.98 386.259 103.182 387.14 102.608C388.026 102.028 389.06 101.738 390.242 101.738C391.163 101.738 391.992 101.909 392.731 102.25C393.469 102.591 394.075 103.068 394.546 103.682C395.018 104.295 395.31 105.011 395.424 105.829H393.413C393.259 105.233 392.918 104.704 392.39 104.244C391.867 103.778 391.163 103.545 390.276 103.545C389.492 103.545 388.805 103.75 388.214 104.159C387.629 104.562 387.171 105.133 386.842 105.872C386.518 106.605 386.356 107.466 386.356 108.454C386.356 109.466 386.515 110.346 386.833 111.096C387.157 111.846 387.612 112.429 388.197 112.844C388.788 113.258 389.481 113.466 390.276 113.466C390.799 113.466 391.273 113.375 391.7 113.193C392.126 113.011 392.487 112.75 392.782 112.409C393.077 112.068 393.288 111.659 393.413 111.182H395.424C395.31 111.954 395.029 112.65 394.58 113.27C394.137 113.883 393.549 114.372 392.816 114.736C392.089 115.094 391.242 115.272 390.276 115.272ZM403.853 115.272C402.592 115.272 401.504 114.994 400.589 114.437C399.68 113.875 398.978 113.091 398.484 112.085C397.995 111.074 397.751 109.897 397.751 108.557C397.751 107.216 397.995 106.034 398.484 105.011C398.978 103.983 399.665 103.182 400.546 102.608C401.433 102.028 402.467 101.738 403.648 101.738C404.33 101.738 405.004 101.852 405.668 102.079C406.333 102.307 406.938 102.676 407.484 103.187C408.029 103.693 408.464 104.363 408.788 105.199C409.112 106.034 409.273 107.062 409.273 108.284V109.136H399.183V107.397H407.228C407.228 106.659 407.08 106 406.785 105.42C406.495 104.841 406.08 104.383 405.54 104.048C405.006 103.713 404.376 103.545 403.648 103.545C402.847 103.545 402.154 103.744 401.569 104.142C400.989 104.534 400.543 105.045 400.231 105.676C399.918 106.307 399.762 106.983 399.762 107.704V108.863C399.762 109.852 399.933 110.69 400.273 111.378C400.62 112.059 401.1 112.579 401.714 112.937C402.327 113.29 403.04 113.466 403.853 113.466C404.381 113.466 404.859 113.392 405.285 113.244C405.717 113.091 406.089 112.863 406.401 112.562C406.714 112.255 406.955 111.875 407.126 111.42L409.069 111.966C408.864 112.625 408.521 113.204 408.038 113.704C407.555 114.199 406.958 114.585 406.248 114.863C405.538 115.136 404.739 115.272 403.853 115.272ZM405.319 100.341L403.546 97.9543L401.773 100.341H399.864V100.204L402.626 96.6588H404.467L407.228 100.204V100.341H405.319ZM282.841 148.909V130.909H284.784V132.988H285.023C285.17 132.761 285.375 132.471 285.636 132.119C285.903 131.761 286.284 131.443 286.778 131.165C287.278 130.88 287.955 130.738 288.807 130.738C289.909 130.738 290.881 131.014 291.722 131.565C292.563 132.116 293.219 132.897 293.69 133.909C294.162 134.92 294.398 136.113 294.398 137.488C294.398 138.875 294.162 140.076 293.69 141.094C293.219 142.105 292.565 142.889 291.73 143.446C290.895 143.997 289.932 144.272 288.841 144.272C288 144.272 287.327 144.133 286.821 143.855C286.315 143.571 285.926 143.25 285.653 142.892C285.381 142.528 285.17 142.227 285.023 141.988H284.852V148.909H282.841ZM284.818 137.454C284.818 138.443 284.963 139.315 285.253 140.071C285.543 140.821 285.966 141.409 286.523 141.835C287.08 142.255 287.761 142.466 288.568 142.466C289.409 142.466 290.111 142.244 290.673 141.801C291.241 141.352 291.668 140.75 291.952 139.994C292.241 139.233 292.386 138.386 292.386 137.454C292.386 136.534 292.244 135.704 291.96 134.966C291.682 134.221 291.259 133.633 290.69 133.201C290.128 132.764 289.42 132.545 288.568 132.545C287.75 132.545 287.063 132.753 286.506 133.167C285.949 133.576 285.528 134.15 285.244 134.889C284.96 135.622 284.818 136.477 284.818 137.454ZM297.466 144V130.909H299.409V132.886H299.545C299.784 132.238 300.216 131.713 300.841 131.309C301.466 130.906 302.17 130.704 302.955 130.704C303.102 130.704 303.287 130.707 303.509 130.713C303.73 130.719 303.898 130.727 304.011 130.738V132.784C303.943 132.767 303.787 132.741 303.543 132.707C303.304 132.667 303.051 132.647 302.784 132.647C302.148 132.647 301.58 132.781 301.08 133.048C300.585 133.309 300.193 133.673 299.903 134.139C299.619 134.599 299.477 135.125 299.477 135.716V144H297.466ZM311.486 144.272C310.224 144.272 309.136 143.994 308.222 143.437C307.312 142.875 306.611 142.091 306.116 141.085C305.628 140.074 305.384 138.897 305.384 137.557C305.384 136.216 305.628 135.034 306.116 134.011C306.611 132.983 307.298 132.182 308.179 131.608C309.065 131.028 310.099 130.738 311.281 130.738C311.963 130.738 312.636 130.852 313.301 131.079C313.966 131.307 314.571 131.676 315.116 132.187C315.662 132.693 316.097 133.363 316.42 134.199C316.744 135.034 316.906 136.062 316.906 137.284V138.136H306.815V136.397H314.861C314.861 135.659 314.713 135 314.418 134.42C314.128 133.841 313.713 133.383 313.173 133.048C312.639 132.713 312.009 132.545 311.281 132.545C310.48 132.545 309.787 132.744 309.202 133.142C308.622 133.534 308.176 134.045 307.864 134.676C307.551 135.307 307.395 135.983 307.395 136.704V137.863C307.395 138.852 307.565 139.69 307.906 140.378C308.253 141.059 308.733 141.579 309.347 141.937C309.96 142.29 310.673 142.466 311.486 142.466C312.014 142.466 312.491 142.392 312.918 142.244C313.349 142.091 313.722 141.863 314.034 141.562C314.347 141.255 314.588 140.875 314.759 140.42L316.702 140.966C316.497 141.625 316.153 142.204 315.67 142.704C315.188 143.199 314.591 143.585 313.881 143.863C313.17 144.136 312.372 144.272 311.486 144.272ZM325.659 130.909V132.613H318.875V130.909H325.659ZM320.852 127.772H322.864V140.25C322.864 140.818 322.946 141.244 323.111 141.528C323.281 141.807 323.497 141.994 323.759 142.091C324.026 142.182 324.307 142.227 324.602 142.227C324.824 142.227 325.006 142.216 325.148 142.193C325.29 142.165 325.403 142.142 325.489 142.125L325.898 143.932C325.761 143.983 325.571 144.034 325.327 144.085C325.082 144.142 324.773 144.17 324.398 144.17C323.83 144.17 323.273 144.048 322.727 143.804C322.188 143.559 321.739 143.187 321.381 142.687C321.028 142.187 320.852 141.557 320.852 140.795V127.772ZM334.033 144.272C332.771 144.272 331.683 143.994 330.768 143.437C329.859 142.875 329.158 142.091 328.663 141.085C328.175 140.074 327.93 138.897 327.93 137.557C327.93 136.216 328.175 135.034 328.663 134.011C329.158 132.983 329.845 132.182 330.726 131.608C331.612 131.028 332.646 130.738 333.828 130.738C334.51 130.738 335.183 130.852 335.848 131.079C336.513 131.307 337.118 131.676 337.663 132.187C338.209 132.693 338.643 133.363 338.967 134.199C339.291 135.034 339.453 136.062 339.453 137.284V138.136H329.362V136.397H337.408C337.408 135.659 337.26 135 336.964 134.42C336.675 133.841 336.26 133.383 335.72 133.048C335.186 132.713 334.555 132.545 333.828 132.545C333.027 132.545 332.334 132.744 331.749 133.142C331.169 133.534 330.723 134.045 330.411 134.676C330.098 135.307 329.942 135.983 329.942 136.704V137.863C329.942 138.852 330.112 139.69 330.453 140.378C330.8 141.059 331.28 141.579 331.893 141.937C332.507 142.29 333.22 142.466 334.033 142.466C334.561 142.466 335.038 142.392 335.464 142.244C335.896 142.091 336.268 141.863 336.581 141.562C336.893 141.255 337.135 140.875 337.305 140.42L339.249 140.966C339.044 141.625 338.7 142.204 338.217 142.704C337.734 143.199 337.138 143.585 336.428 143.863C335.717 144.136 334.919 144.272 334.033 144.272ZM344.524 136.125V144H342.513V130.909H344.456V132.954H344.626C344.933 132.29 345.399 131.755 346.024 131.352C346.649 130.943 347.456 130.738 348.445 130.738C349.331 130.738 350.107 130.92 350.771 131.284C351.436 131.642 351.953 132.187 352.322 132.92C352.692 133.647 352.876 134.568 352.876 135.682V144H350.865V135.818C350.865 134.79 350.598 133.988 350.064 133.415C349.53 132.835 348.797 132.545 347.865 132.545C347.223 132.545 346.649 132.684 346.143 132.963C345.643 133.241 345.249 133.647 344.959 134.182C344.669 134.716 344.524 135.363 344.524 136.125ZM361.495 144.272C360.404 144.272 359.441 143.997 358.606 143.446C357.771 142.889 357.117 142.105 356.646 141.094C356.174 140.076 355.938 138.875 355.938 137.488C355.938 136.113 356.174 134.92 356.646 133.909C357.117 132.897 357.773 132.116 358.614 131.565C359.455 131.014 360.427 130.738 361.529 130.738C362.381 130.738 363.055 130.88 363.549 131.165C364.049 131.443 364.43 131.761 364.691 132.119C364.958 132.471 365.165 132.761 365.313 132.988H365.484V126.545H367.495V144H365.552V141.988H365.313C365.165 142.227 364.955 142.528 364.683 142.892C364.41 143.25 364.021 143.571 363.515 143.855C363.009 144.133 362.336 144.272 361.495 144.272ZM361.768 142.466C362.575 142.466 363.256 142.255 363.813 141.835C364.37 141.409 364.793 140.821 365.083 140.071C365.373 139.315 365.518 138.443 365.518 137.454C365.518 136.477 365.376 135.622 365.092 134.889C364.808 134.15 364.387 133.576 363.83 133.167C363.273 132.753 362.586 132.545 361.768 132.545C360.915 132.545 360.205 132.764 359.637 133.201C359.075 133.633 358.651 134.221 358.367 134.966C358.089 135.704 357.95 136.534 357.95 137.454C357.95 138.386 358.092 139.233 358.376 139.994C358.665 140.75 359.092 141.352 359.654 141.801C360.222 142.244 360.927 142.466 361.768 142.466ZM376.947 144.272C375.685 144.272 374.597 143.994 373.683 143.437C372.773 142.875 372.072 142.091 371.577 141.085C371.089 140.074 370.844 138.897 370.844 137.557C370.844 136.216 371.089 135.034 371.577 134.011C372.072 132.983 372.759 132.182 373.64 131.608C374.526 131.028 375.56 130.738 376.742 130.738C377.424 130.738 378.097 130.852 378.762 131.079C379.427 131.307 380.032 131.676 380.577 132.187C381.123 132.693 381.558 133.363 381.881 134.199C382.205 135.034 382.367 136.062 382.367 137.284V138.136H372.276V136.397H380.322C380.322 135.659 380.174 135 379.879 134.42C379.589 133.841 379.174 133.383 378.634 133.048C378.1 132.713 377.469 132.545 376.742 132.545C375.941 132.545 375.248 132.744 374.663 133.142C374.083 133.534 373.637 134.045 373.325 134.676C373.012 135.307 372.856 135.983 372.856 136.704V137.863C372.856 138.852 373.026 139.69 373.367 140.378C373.714 141.059 374.194 141.579 374.808 141.937C375.421 142.29 376.134 142.466 376.947 142.466C377.475 142.466 377.952 142.392 378.379 142.244C378.81 142.091 379.183 141.863 379.495 141.562C379.808 141.255 380.049 140.875 380.219 140.42L382.163 140.966C381.958 141.625 381.614 142.204 381.131 142.704C380.648 143.199 380.052 143.585 379.342 143.863C378.631 144.136 377.833 144.272 376.947 144.272ZM396.029 144.307C395.2 144.307 394.447 144.15 393.771 143.838C393.094 143.52 392.558 143.062 392.16 142.466C391.762 141.863 391.563 141.136 391.563 140.284C391.563 139.534 391.711 138.926 392.006 138.46C392.302 137.988 392.697 137.619 393.191 137.352C393.685 137.085 394.231 136.886 394.827 136.755C395.43 136.619 396.035 136.511 396.643 136.432C397.438 136.329 398.083 136.253 398.577 136.201C399.077 136.145 399.441 136.051 399.668 135.92C399.901 135.79 400.018 135.562 400.018 135.238V135.17C400.018 134.329 399.788 133.676 399.327 133.21C398.873 132.744 398.183 132.511 397.256 132.511C396.296 132.511 395.543 132.721 394.998 133.142C394.452 133.562 394.069 134.011 393.847 134.488L391.938 133.807C392.279 133.011 392.734 132.392 393.302 131.949C393.876 131.5 394.501 131.187 395.177 131.011C395.859 130.829 396.529 130.738 397.188 130.738C397.609 130.738 398.092 130.79 398.637 130.892C399.188 130.988 399.719 131.19 400.231 131.497C400.748 131.804 401.177 132.267 401.518 132.886C401.859 133.505 402.029 134.335 402.029 135.375V144H400.018V142.227H399.915C399.779 142.511 399.552 142.815 399.234 143.139C398.915 143.463 398.492 143.738 397.964 143.966C397.435 144.193 396.79 144.307 396.029 144.307ZM396.336 142.5C397.131 142.5 397.802 142.344 398.347 142.031C398.898 141.719 399.313 141.315 399.592 140.821C399.876 140.326 400.018 139.807 400.018 139.261V137.42C399.933 137.522 399.745 137.616 399.455 137.701C399.171 137.781 398.842 137.852 398.467 137.915C398.097 137.971 397.737 138.022 397.384 138.068C397.038 138.108 396.756 138.142 396.54 138.17C396.018 138.238 395.529 138.349 395.075 138.503C394.626 138.65 394.262 138.875 393.984 139.176C393.711 139.471 393.575 139.875 393.575 140.386C393.575 141.085 393.833 141.613 394.35 141.971C394.873 142.324 395.535 142.5 396.336 142.5ZM405.7 148.909V130.909H407.643V132.988H407.882C408.03 132.761 408.234 132.471 408.496 132.119C408.763 131.761 409.143 131.443 409.638 131.165C410.138 130.88 410.814 130.738 411.666 130.738C412.768 130.738 413.74 131.014 414.581 131.565C415.422 132.116 416.078 132.897 416.55 133.909C417.021 134.92 417.257 136.113 417.257 137.488C417.257 138.875 417.021 140.076 416.55 141.094C416.078 142.105 415.425 142.889 414.589 143.446C413.754 143.997 412.791 144.272 411.7 144.272C410.859 144.272 410.186 144.133 409.68 143.855C409.175 143.571 408.786 143.25 408.513 142.892C408.24 142.528 408.03 142.227 407.882 141.988H407.712V148.909H405.7ZM407.678 137.454C407.678 138.443 407.822 139.315 408.112 140.071C408.402 140.821 408.825 141.409 409.382 141.835C409.939 142.255 410.621 142.466 411.428 142.466C412.268 142.466 412.97 142.244 413.533 141.801C414.101 141.352 414.527 140.75 414.811 139.994C415.101 139.233 415.246 138.386 415.246 137.454C415.246 136.534 415.104 135.704 414.82 134.966C414.541 134.221 414.118 133.633 413.55 133.201C412.987 132.764 412.28 132.545 411.428 132.545C410.609 132.545 409.922 132.753 409.365 133.167C408.808 133.576 408.388 134.15 408.104 134.889C407.82 135.622 407.678 136.477 407.678 137.454ZM425.643 144.272C424.462 144.272 423.425 143.991 422.533 143.429C421.646 142.866 420.953 142.079 420.453 141.068C419.959 140.057 419.712 138.875 419.712 137.522C419.712 136.159 419.959 134.969 420.453 133.951C420.953 132.934 421.646 132.145 422.533 131.582C423.425 131.02 424.462 130.738 425.643 130.738C426.825 130.738 427.859 131.02 428.746 131.582C429.638 132.145 430.331 132.934 430.825 133.951C431.325 134.969 431.575 136.159 431.575 137.522C431.575 138.875 431.325 140.057 430.825 141.068C430.331 142.079 429.638 142.866 428.746 143.429C427.859 143.991 426.825 144.272 425.643 144.272ZM425.643 142.466C426.541 142.466 427.28 142.236 427.859 141.775C428.439 141.315 428.868 140.71 429.146 139.96C429.425 139.21 429.564 138.397 429.564 137.522C429.564 136.647 429.425 135.832 429.146 135.076C428.868 134.321 428.439 133.71 427.859 133.244C427.28 132.778 426.541 132.545 425.643 132.545C424.746 132.545 424.007 132.778 423.428 133.244C422.848 133.71 422.419 134.321 422.141 135.076C421.862 135.832 421.723 136.647 421.723 137.522C421.723 138.397 421.862 139.21 422.141 139.96C422.419 140.71 422.848 141.315 423.428 141.775C424.007 142.236 424.746 142.466 425.643 142.466ZM443.918 133.841L442.112 134.352C441.998 134.051 441.83 133.758 441.609 133.474C441.393 133.184 441.097 132.946 440.722 132.758C440.347 132.571 439.867 132.477 439.282 132.477C438.481 132.477 437.813 132.662 437.279 133.031C436.751 133.395 436.487 133.858 436.487 134.42C436.487 134.92 436.668 135.315 437.032 135.605C437.396 135.895 437.964 136.136 438.737 136.329L440.68 136.807C441.85 137.091 442.722 137.525 443.296 138.111C443.87 138.69 444.157 139.437 444.157 140.352C444.157 141.102 443.941 141.772 443.509 142.363C443.083 142.954 442.487 143.42 441.719 143.761C440.952 144.102 440.06 144.272 439.043 144.272C437.708 144.272 436.603 143.983 435.728 143.403C434.853 142.824 434.299 141.977 434.066 140.863L435.975 140.386C436.157 141.091 436.501 141.619 437.006 141.971C437.518 142.324 438.185 142.5 439.009 142.5C439.947 142.5 440.691 142.301 441.242 141.903C441.799 141.5 442.077 141.017 442.077 140.454C442.077 140 441.918 139.619 441.6 139.312C441.282 139 440.793 138.767 440.134 138.613L437.952 138.102C436.754 137.818 435.873 137.378 435.31 136.781C434.754 136.179 434.475 135.426 434.475 134.522C434.475 133.784 434.683 133.13 435.097 132.562C435.518 131.994 436.089 131.548 436.81 131.224C437.538 130.9 438.362 130.738 439.282 130.738C440.577 130.738 441.594 131.022 442.333 131.591C443.077 132.159 443.606 132.909 443.918 133.841ZM452.878 130.909V132.613H446.094V130.909H452.878ZM448.071 127.772H450.082V140.25C450.082 140.818 450.165 141.244 450.33 141.528C450.5 141.807 450.716 141.994 450.977 142.091C451.244 142.182 451.526 142.227 451.821 142.227C452.043 142.227 452.224 142.216 452.366 142.193C452.509 142.165 452.622 142.142 452.707 142.125L453.116 143.932C452.98 143.983 452.79 144.034 452.545 144.085C452.301 144.142 451.991 144.17 451.616 144.17C451.048 144.17 450.491 144.048 449.946 143.804C449.406 143.559 448.957 143.187 448.599 142.687C448.247 142.187 448.071 141.557 448.071 140.795V127.772ZM459.756 144.307C458.926 144.307 458.173 144.15 457.497 143.838C456.821 143.52 456.284 143.062 455.886 142.466C455.489 141.863 455.29 141.136 455.29 140.284C455.29 139.534 455.438 138.926 455.733 138.46C456.028 137.988 456.423 137.619 456.918 137.352C457.412 137.085 457.957 136.886 458.554 136.755C459.156 136.619 459.761 136.511 460.369 136.432C461.165 136.329 461.81 136.253 462.304 136.201C462.804 136.145 463.168 136.051 463.395 135.92C463.628 135.79 463.744 135.562 463.744 135.238V135.17C463.744 134.329 463.514 133.676 463.054 133.21C462.599 132.744 461.909 132.511 460.983 132.511C460.023 132.511 459.27 132.721 458.724 133.142C458.179 133.562 457.795 134.011 457.574 134.488L455.665 133.807C456.006 133.011 456.46 132.392 457.028 131.949C457.602 131.5 458.227 131.187 458.903 131.011C459.585 130.829 460.256 130.738 460.915 130.738C461.335 130.738 461.818 130.79 462.364 130.892C462.915 130.988 463.446 131.19 463.957 131.497C464.474 131.804 464.903 132.267 465.244 132.886C465.585 133.505 465.756 134.335 465.756 135.375V144H463.744V142.227H463.642C463.506 142.511 463.278 142.815 462.96 143.139C462.642 143.463 462.219 143.738 461.69 143.966C461.162 144.193 460.517 144.307 459.756 144.307ZM460.062 142.5C460.858 142.5 461.528 142.344 462.074 142.031C462.625 141.719 463.04 141.315 463.318 140.821C463.602 140.326 463.744 139.807 463.744 139.261V137.42C463.659 137.522 463.472 137.616 463.182 137.701C462.898 137.781 462.568 137.852 462.193 137.915C461.824 137.971 461.463 138.022 461.111 138.068C460.764 138.108 460.483 138.142 460.267 138.17C459.744 138.238 459.256 138.349 458.801 138.503C458.352 138.65 457.989 138.875 457.71 139.176C457.438 139.471 457.301 139.875 457.301 140.386C457.301 141.085 457.56 141.613 458.077 141.971C458.599 142.324 459.261 142.5 460.062 142.5ZM469.427 144V130.909H471.37V132.886H471.506C471.745 132.238 472.177 131.713 472.802 131.309C473.427 130.906 474.131 130.704 474.915 130.704C475.063 130.704 475.248 130.707 475.469 130.713C475.691 130.719 475.859 130.727 475.972 130.738V132.784C475.904 132.767 475.748 132.741 475.504 132.707C475.265 132.667 475.012 132.647 474.745 132.647C474.109 132.647 473.54 132.781 473.04 133.048C472.546 133.309 472.154 133.673 471.864 134.139C471.58 134.599 471.438 135.125 471.438 135.716V144H469.427Z" fill="white"/>
<path d="M315.724 72.9088L311.147 85.9998H307.056L302.479 72.9088H306.315L309.033 82.2753H309.17L311.88 72.9088H315.724ZM320.963 86.2469C320.128 86.2469 319.384 86.102 318.73 85.8123C318.077 85.5168 317.56 85.0821 317.179 84.5083C316.804 83.9287 316.616 83.2071 316.616 82.3435C316.616 81.6162 316.75 81.0054 317.017 80.5111C317.284 80.0168 317.648 79.6191 318.108 79.3179C318.568 79.0168 319.091 78.7895 319.676 78.6361C320.267 78.4827 320.886 78.3748 321.534 78.3123C322.295 78.2327 322.909 78.1588 323.375 78.0907C323.841 78.0168 324.179 77.9088 324.389 77.7668C324.599 77.6248 324.705 77.4145 324.705 77.1361V77.085C324.705 76.5452 324.534 76.1276 324.193 75.8321C323.858 75.5367 323.381 75.389 322.761 75.389C322.108 75.389 321.588 75.5338 321.202 75.8236C320.815 76.1077 320.56 76.4657 320.435 76.8975L317.077 76.6248C317.247 75.8293 317.582 75.1418 318.082 74.5623C318.582 73.977 319.227 73.5282 320.017 73.2157C320.813 72.8975 321.733 72.7384 322.778 72.7384C323.506 72.7384 324.202 72.8236 324.866 72.9941C325.537 73.1645 326.131 73.4287 326.648 73.7867C327.17 74.1446 327.582 74.6049 327.884 75.1674C328.185 75.7242 328.335 76.3918 328.335 77.1702V85.9998H324.892V84.1844H324.79C324.58 84.5935 324.298 84.9543 323.946 85.2668C323.594 85.5736 323.17 85.8151 322.676 85.9912C322.182 86.1617 321.611 86.2469 320.963 86.2469ZM322.003 83.7412C322.537 83.7412 323.009 83.6361 323.418 83.4259C323.827 83.21 324.148 82.9202 324.381 82.5566C324.614 82.1929 324.73 81.781 324.73 81.3208V79.9316C324.616 80.0054 324.46 80.0736 324.261 80.1361C324.068 80.1929 323.849 80.2469 323.605 80.2981C323.361 80.3435 323.116 80.3861 322.872 80.4259C322.628 80.46 322.406 80.4912 322.207 80.5196C321.781 80.5821 321.409 80.6816 321.091 80.8179C320.773 80.9543 320.526 81.139 320.349 81.3719C320.173 81.5992 320.085 81.8833 320.085 82.2242C320.085 82.7185 320.264 83.0963 320.622 83.3577C320.986 83.6134 321.446 83.7412 322.003 83.7412ZM334.783 68.5452V85.9998H331.152V68.5452H334.783ZM343.606 86.2554C342.282 86.2554 341.137 85.9742 340.171 85.4117C339.211 84.8435 338.469 84.0537 337.947 83.0424C337.424 82.0253 337.163 80.8463 337.163 79.5054C337.163 78.1532 337.424 76.9713 337.947 75.96C338.469 74.9429 339.211 74.1532 340.171 73.5907C341.137 73.0225 342.282 72.7384 343.606 72.7384C344.93 72.7384 346.072 73.0225 347.032 73.5907C347.998 74.1532 348.742 74.9429 349.265 75.96C349.788 76.9713 350.049 78.1532 350.049 79.5054C350.049 80.8463 349.788 82.0253 349.265 83.0424C348.742 84.0537 347.998 84.8435 347.032 85.4117C346.072 85.9742 344.93 86.2554 343.606 86.2554ZM343.623 83.4429C344.225 83.4429 344.728 83.2725 345.131 82.9316C345.535 82.585 345.839 82.1134 346.043 81.5168C346.254 80.9202 346.359 80.2412 346.359 79.4799C346.359 78.7185 346.254 78.0395 346.043 77.4429C345.839 76.8463 345.535 76.3748 345.131 76.0282C344.728 75.6816 344.225 75.5083 343.623 75.5083C343.015 75.5083 342.504 75.6816 342.089 76.0282C341.68 76.3748 341.37 76.8463 341.16 77.4429C340.955 78.0395 340.853 78.7185 340.853 79.4799C340.853 80.2412 340.955 80.9202 341.16 81.5168C341.37 82.1134 341.68 82.585 342.089 82.9316C342.504 83.2725 343.015 83.4429 343.623 83.4429ZM352.41 85.9998V72.9088H355.93V75.1929H356.066C356.305 74.3804 356.705 73.7668 357.268 73.352C357.83 72.9316 358.478 72.7213 359.211 72.7213C359.393 72.7213 359.589 72.7327 359.799 72.7554C360.009 72.7782 360.194 72.8094 360.353 72.8492V76.0708C360.183 76.0196 359.947 75.9742 359.646 75.9344C359.344 75.8946 359.069 75.8748 358.819 75.8748C358.285 75.8748 357.808 75.9912 357.387 76.2242C356.972 76.4515 356.643 76.7696 356.398 77.1787C356.16 77.5878 356.04 78.0594 356.04 78.5935V85.9998H352.41ZM282.449 119.909V101.909H286.028V104.108H286.19C286.349 103.755 286.58 103.397 286.881 103.034C287.188 102.665 287.585 102.358 288.074 102.113C288.568 101.863 289.182 101.738 289.915 101.738C290.869 101.738 291.75 101.988 292.557 102.488C293.364 102.983 294.009 103.73 294.491 104.73C294.974 105.724 295.216 106.971 295.216 108.471C295.216 109.932 294.98 111.165 294.509 112.17C294.043 113.17 293.406 113.929 292.599 114.446C291.798 114.957 290.901 115.213 289.906 115.213C289.202 115.213 288.602 115.096 288.108 114.863C287.619 114.63 287.219 114.338 286.906 113.986C286.594 113.628 286.355 113.267 286.19 112.903H286.08V119.909H282.449ZM286.003 108.454C286.003 109.233 286.111 109.912 286.327 110.491C286.543 111.071 286.855 111.522 287.264 111.846C287.673 112.165 288.17 112.324 288.756 112.324C289.347 112.324 289.847 112.162 290.256 111.838C290.665 111.508 290.974 111.054 291.185 110.474C291.401 109.889 291.509 109.216 291.509 108.454C291.509 107.699 291.403 107.034 291.193 106.46C290.983 105.886 290.673 105.437 290.264 105.113C289.855 104.79 289.352 104.628 288.756 104.628C288.165 104.628 287.665 104.784 287.256 105.096C286.852 105.409 286.543 105.852 286.327 106.426C286.111 107 286.003 107.676 286.003 108.454ZM303.602 115.255C302.256 115.255 301.097 114.983 300.125 114.437C299.159 113.886 298.415 113.108 297.892 112.102C297.369 111.091 297.108 109.895 297.108 108.514C297.108 107.167 297.369 105.986 297.892 104.969C298.415 103.951 299.151 103.159 300.099 102.591C301.054 102.022 302.173 101.738 303.457 101.738C304.321 101.738 305.125 101.878 305.869 102.156C306.619 102.429 307.273 102.841 307.83 103.392C308.392 103.943 308.83 104.636 309.142 105.471C309.455 106.301 309.611 107.272 309.611 108.386V109.383H298.557V107.133H306.193C306.193 106.611 306.08 106.147 305.852 105.744C305.625 105.341 305.31 105.025 304.906 104.798C304.509 104.565 304.045 104.449 303.517 104.449C302.966 104.449 302.477 104.576 302.051 104.832C301.631 105.082 301.301 105.42 301.062 105.846C300.824 106.267 300.702 106.736 300.696 107.253V109.392C300.696 110.04 300.815 110.599 301.054 111.071C301.298 111.542 301.642 111.906 302.085 112.162C302.528 112.417 303.054 112.545 303.662 112.545C304.065 112.545 304.435 112.488 304.77 112.375C305.105 112.261 305.392 112.091 305.631 111.863C305.869 111.636 306.051 111.358 306.176 111.028L309.534 111.25C309.364 112.057 309.014 112.761 308.486 113.363C307.963 113.96 307.287 114.426 306.457 114.761C305.634 115.091 304.682 115.255 303.602 115.255ZM316.804 115.213C315.81 115.213 314.909 114.957 314.102 114.446C313.301 113.929 312.665 113.17 312.193 112.17C311.727 111.165 311.494 109.932 311.494 108.471C311.494 106.971 311.736 105.724 312.219 104.73C312.702 103.73 313.344 102.983 314.145 102.488C314.952 101.988 315.835 101.738 316.795 101.738C317.528 101.738 318.139 101.863 318.628 102.113C319.122 102.358 319.52 102.665 319.821 103.034C320.128 103.397 320.361 103.755 320.52 104.108H320.631V97.5452H324.253V115H320.673V112.903H320.52C320.349 113.267 320.108 113.628 319.795 113.986C319.489 114.338 319.088 114.63 318.594 114.863C318.105 115.096 317.509 115.213 316.804 115.213ZM317.955 112.324C318.54 112.324 319.034 112.165 319.438 111.846C319.847 111.522 320.159 111.071 320.375 110.491C320.597 109.912 320.707 109.233 320.707 108.454C320.707 107.676 320.599 107 320.384 106.426C320.168 105.852 319.855 105.409 319.446 105.096C319.037 104.784 318.54 104.628 317.955 104.628C317.358 104.628 316.855 104.79 316.446 105.113C316.037 105.437 315.727 105.886 315.517 106.46C315.307 107.034 315.202 107.699 315.202 108.454C315.202 109.216 315.307 109.889 315.517 110.474C315.733 111.054 316.043 111.508 316.446 111.838C316.855 112.162 317.358 112.324 317.955 112.324ZM327.238 115V101.909H330.758V104.193H330.894C331.133 103.38 331.533 102.767 332.096 102.352C332.658 101.932 333.306 101.721 334.039 101.721C334.221 101.721 334.417 101.733 334.627 101.755C334.837 101.778 335.022 101.809 335.181 101.849V105.071C335.011 105.02 334.775 104.974 334.474 104.934C334.173 104.895 333.897 104.875 333.647 104.875C333.113 104.875 332.636 104.991 332.215 105.224C331.8 105.451 331.471 105.77 331.227 106.179C330.988 106.588 330.869 107.059 330.869 107.594V115H327.238ZM340.416 115.247C339.581 115.247 338.837 115.102 338.183 114.812C337.53 114.517 337.013 114.082 336.632 113.508C336.257 112.929 336.07 112.207 336.07 111.344C336.07 110.616 336.203 110.005 336.47 109.511C336.737 109.017 337.101 108.619 337.561 108.318C338.021 108.017 338.544 107.79 339.129 107.636C339.72 107.483 340.339 107.375 340.987 107.312C341.749 107.233 342.362 107.159 342.828 107.091C343.294 107.017 343.632 106.909 343.842 106.767C344.053 106.625 344.158 106.415 344.158 106.136V106.085C344.158 105.545 343.987 105.128 343.646 104.832C343.311 104.537 342.834 104.389 342.214 104.389C341.561 104.389 341.041 104.534 340.655 104.824C340.268 105.108 340.013 105.466 339.888 105.897L336.53 105.625C336.7 104.829 337.036 104.142 337.536 103.562C338.036 102.977 338.68 102.528 339.47 102.216C340.266 101.897 341.186 101.738 342.232 101.738C342.959 101.738 343.655 101.824 344.32 101.994C344.99 102.165 345.584 102.429 346.101 102.787C346.624 103.145 347.036 103.605 347.337 104.167C347.638 104.724 347.788 105.392 347.788 106.17V115H344.345V113.184H344.243C344.033 113.594 343.751 113.954 343.399 114.267C343.047 114.574 342.624 114.815 342.129 114.991C341.635 115.162 341.064 115.247 340.416 115.247ZM341.456 112.741C341.99 112.741 342.462 112.636 342.871 112.426C343.28 112.21 343.601 111.92 343.834 111.557C344.067 111.193 344.183 110.781 344.183 110.321V108.932C344.07 109.005 343.913 109.074 343.714 109.136C343.521 109.193 343.303 109.247 343.058 109.298C342.814 109.344 342.57 109.386 342.325 109.426C342.081 109.46 341.859 109.491 341.661 109.52C341.234 109.582 340.862 109.682 340.544 109.818C340.226 109.954 339.979 110.139 339.803 110.372C339.626 110.599 339.538 110.883 339.538 111.224C339.538 111.719 339.717 112.096 340.075 112.358C340.439 112.613 340.899 112.741 341.456 112.741Z" fill="#04D47C"/>
<path d="M222.169 38.5549L222.889 37.2394L222.889 37.2394L222.169 38.5549ZM134.17 12.7477L134.066 14.2441L134.066 14.2441L134.17 12.7477ZM121.185 11.8459L121.289 10.3495L121.289 10.3495L121.185 11.8459ZM29.9206 30.3428L30.5989 31.6807L30.5989 31.6807L29.9206 30.3428ZM0.574327 44.0334C0.316774 44.8208 0.74628 45.6679 1.53365 45.9254L14.3647 50.1225C15.152 50.38 15.9991 49.9505 16.2567 49.1632C16.5142 48.3758 16.0847 47.5287 15.2973 47.2711L3.892 43.5404L7.62272 32.1351C7.88027 31.3477 7.45077 30.5006 6.66339 30.2431C5.87602 29.9855 5.02894 30.415 4.77139 31.2024L0.574327 44.0334ZM275.721 66.1843L222.889 37.2394L221.448 39.8705L274.279 68.8153L275.721 66.1843ZM134.274 11.2513L121.289 10.3495L121.081 13.3423L134.066 14.2441L134.274 11.2513ZM29.2422 29.005L1.32165 43.1619L2.67834 45.8376L30.5989 31.6807L29.2422 29.005ZM121.289 10.3495C89.4847 8.14092 57.6764 14.5877 29.2422 29.005L30.5989 31.6807C58.5498 17.5084 89.8175 11.1713 121.081 13.3423L121.289 10.3495ZM222.889 37.2394C195.576 22.2751 165.343 13.4089 134.274 11.2513L134.066 14.2441C164.703 16.3716 194.515 25.1145 221.448 39.8705L222.889 37.2394Z" fill="white"/>
<path d="M138 109L138 107.5L138 107.5L138 109ZM33.9394 107.939C33.3536 108.525 33.3536 109.475 33.9394 110.06L43.4853 119.606C44.0711 120.192 45.0208 120.192 45.6066 119.606C46.1924 119.021 46.1924 118.071 45.6066 117.485L37.1213 109L45.6066 100.514C46.1924 99.9287 46.1924 98.9789 45.6066 98.3932C45.0208 97.8074 44.0711 97.8074 43.4853 98.3932L33.9394 107.939ZM260.5 107.5L138 107.5L138 110.5L260.5 110.5L260.5 107.5ZM138 107.5L35 107.5L35 110.5L138 110.5L138 107.5Z" fill="white"/>
</svg>
