<svg width="140" height="127" viewBox="0 0 140 127" fill="none" xmlns="http://www.w3.org/2000/svg">
<g filter="url(#filter0_d_162_4287)">
<path d="M29.0957 94.2241H28.1724L30.8429 86.9514H31.752L34.4224 94.2241H33.4991L31.3258 88.102H31.269L29.0957 94.2241ZM29.4366 91.3832H33.1582V92.1645H29.4366V91.3832ZM39.1632 96.2696V93.3861H39.0922C39.0306 93.4855 38.943 93.611 38.8294 93.7625C38.7158 93.9116 38.5536 94.0454 38.3429 94.1638C38.1322 94.2798 37.8516 94.3378 37.5013 94.3378C37.0467 94.3378 36.6454 94.2229 36.2974 93.9933C35.9494 93.7613 35.6772 93.4346 35.4807 93.0132C35.2842 92.5894 35.1859 92.0887 35.1859 91.5111C35.1859 90.9381 35.2842 90.441 35.4807 90.0196C35.6772 89.5982 35.9506 89.2727 36.301 89.043C36.6514 88.8134 37.0562 88.6986 37.5155 88.6986C37.8706 88.6986 38.1511 88.7577 38.3571 88.8761C38.5654 88.9921 38.724 89.1247 38.8329 89.2738C38.9442 89.4206 39.0306 89.5414 39.0922 89.6361H39.1916V88.7696H40.0013V96.2696H39.1632ZM37.6149 93.5849C37.9511 93.5849 38.2352 93.4973 38.4672 93.3221C38.6992 93.1446 38.8756 92.8995 38.9963 92.587C39.117 92.2722 39.1774 91.9088 39.1774 91.4968C39.1774 91.0897 39.1182 90.7334 38.9998 90.428C38.8815 90.1202 38.7063 89.8811 38.4743 89.7106C38.2423 89.5378 37.9558 89.4514 37.6149 89.4514C37.2598 89.4514 36.9639 89.5425 36.7271 89.7248C36.4927 89.9048 36.3164 90.1498 36.198 90.4599C36.082 90.7677 36.024 91.1133 36.024 91.4968C36.024 91.8851 36.0832 92.2379 36.2015 92.5551C36.3223 92.87 36.4998 93.1209 36.7342 93.3079C36.971 93.4926 37.2645 93.5849 37.6149 93.5849ZM44.9729 91.994V88.7696H45.8109V94.2241H44.9729V93.3008H44.916C44.7882 93.5778 44.5893 93.8134 44.3194 94.0075C44.0496 94.1993 43.7087 94.2951 43.2967 94.2951C42.9558 94.2951 42.6528 94.2206 42.3876 94.0714C42.1225 93.9199 41.9141 93.6926 41.7626 93.3896C41.6111 93.0842 41.5354 92.6995 41.5354 92.2355V88.7696H42.3734V92.1787C42.3734 92.5764 42.4847 92.8936 42.7072 93.1304C42.9321 93.3671 43.2186 93.4855 43.5666 93.4855C43.7749 93.4855 43.9868 93.4322 44.2023 93.3257C44.4201 93.2191 44.6024 93.0558 44.7491 92.8356C44.8983 92.6155 44.9729 92.3349 44.9729 91.994ZM47.3459 94.2241V88.7696H48.184V94.2241H47.3459ZM47.772 87.8605C47.6087 87.8605 47.4678 87.8048 47.3495 87.6936C47.2335 87.5823 47.1755 87.4486 47.1755 87.2923C47.1755 87.1361 47.2335 87.0023 47.3495 86.891C47.4678 86.7798 47.6087 86.7241 47.772 86.7241C47.9354 86.7241 48.0751 86.7798 48.1911 86.891C48.3094 87.0023 48.3686 87.1361 48.3686 87.2923C48.3686 87.4486 48.3094 87.5823 48.1911 87.6936C48.0751 87.8048 47.9354 87.8605 47.772 87.8605ZM56.9917 88.7696L54.9746 94.2241H54.1224L52.1053 88.7696H53.0144L54.5201 93.1162H54.5769L56.0826 88.7696H56.9917ZM60.1185 94.3378C59.626 94.3378 59.194 94.2206 58.8223 93.9862C58.453 93.7518 58.1641 93.4239 57.9558 93.0025C57.7498 92.5811 57.6469 92.0887 57.6469 91.5253C57.6469 90.9571 57.7498 90.4611 57.9558 90.0373C58.1641 89.6136 58.453 89.2845 58.8223 89.0501C59.194 88.8157 59.626 88.6986 60.1185 88.6986C60.6109 88.6986 61.0418 88.8157 61.4111 89.0501C61.7828 89.2845 62.0716 89.6136 62.2775 90.0373C62.4859 90.4611 62.59 90.9571 62.59 91.5253C62.59 92.0887 62.4859 92.5811 62.2775 93.0025C62.0716 93.4239 61.7828 93.7518 61.4111 93.9862C61.0418 94.2206 60.6109 94.3378 60.1185 94.3378ZM60.1185 93.5849C60.4925 93.5849 60.8003 93.489 61.0418 93.2973C61.2832 93.1055 61.462 92.8534 61.578 92.5409C61.694 92.2284 61.752 91.8898 61.752 91.5253C61.752 91.1607 61.694 90.8209 61.578 90.5061C61.462 90.1912 61.2832 89.9367 61.0418 89.7426C60.8003 89.5485 60.4925 89.4514 60.1185 89.4514C59.7444 89.4514 59.4366 89.5485 59.1952 89.7426C58.9537 89.9367 58.7749 90.1912 58.6589 90.5061C58.5429 90.8209 58.4849 91.1607 58.4849 91.5253C58.4849 91.8898 58.5429 92.2284 58.6589 92.5409C58.7749 92.8534 58.9537 93.1055 59.1952 93.2973C59.4366 93.489 59.7444 93.5849 60.1185 93.5849ZM66.0853 94.3378C65.5739 94.3378 65.1335 94.217 64.7642 93.9755C64.3949 93.7341 64.1108 93.4014 63.912 92.9777C63.7131 92.5539 63.6137 92.0698 63.6137 91.5253C63.6137 90.9713 63.7155 90.4824 63.9191 90.0586C64.125 89.6325 64.4115 89.2999 64.7784 89.0608C65.1478 88.8193 65.5786 88.6986 66.071 88.6986C66.4546 88.6986 66.8002 88.7696 67.108 88.9116C67.4157 89.0537 67.6679 89.2525 67.8644 89.5082C68.0609 89.7639 68.1828 90.0622 68.2301 90.4031H67.3921C67.3282 90.1545 67.1861 89.9343 66.9659 89.7426C66.7481 89.5485 66.4546 89.4514 66.0853 89.4514C65.7585 89.4514 65.4721 89.5366 65.2259 89.7071C64.982 89.8752 64.7915 90.1131 64.6541 90.4209C64.5192 90.7263 64.4517 91.0849 64.4517 91.4968C64.4517 91.9182 64.518 92.2852 64.6506 92.5977C64.7855 92.9102 64.9749 93.1529 65.2188 93.3257C65.465 93.4985 65.7538 93.5849 66.0853 93.5849C66.3031 93.5849 66.5007 93.547 66.6783 93.4713C66.8559 93.3955 67.0062 93.2866 67.1293 93.1446C67.2524 93.0025 67.34 92.8321 67.3921 92.6332H68.2301C68.1828 92.9552 68.0656 93.2452 67.8786 93.5032C67.6939 93.7589 67.4489 93.9625 67.1435 94.114C66.8405 94.2632 66.4877 94.3378 66.0853 94.3378ZM71.7422 94.3378C71.2166 94.3378 70.7633 94.2218 70.3821 93.9897C70.0033 93.7554 69.711 93.4287 69.505 93.0096C69.3014 92.5882 69.1996 92.0982 69.1996 91.5395C69.1996 90.9807 69.3014 90.4883 69.505 90.0622C69.711 89.6337 69.9974 89.2999 70.3644 89.0608C70.7337 88.8193 71.1646 88.6986 71.657 88.6986C71.9411 88.6986 72.2216 88.7459 72.4986 88.8406C72.7756 88.9353 73.0277 89.0892 73.255 89.3022C73.4823 89.5129 73.6634 89.7923 73.7983 90.1403C73.9333 90.4883 74.0007 90.9168 74.0007 91.4258V91.7809H69.7962V91.0565H73.1485C73.1485 90.7487 73.0869 90.4741 72.9638 90.2326C72.8431 89.9912 72.6702 89.8006 72.4453 89.6609C72.2228 89.5212 71.96 89.4514 71.657 89.4514C71.3232 89.4514 71.0344 89.5343 70.7905 89.7C70.549 89.8633 70.3632 90.0764 70.233 90.3392C70.1028 90.602 70.0377 90.8837 70.0377 91.1843V91.6673C70.0377 92.0792 70.1087 92.4284 70.2507 92.7149C70.3951 92.999 70.5952 93.2156 70.8509 93.3647C71.1066 93.5115 71.4037 93.5849 71.7422 93.5849C71.9624 93.5849 72.1612 93.5541 72.3388 93.4926C72.5187 93.4287 72.6738 93.334 72.804 93.2085C72.9342 93.0807 73.0348 92.922 73.1059 92.7326L73.9155 92.9599C73.8303 93.2345 73.6871 93.476 73.4858 93.6843C73.2846 93.8903 73.036 94.0513 72.7401 94.1673C72.4442 94.2809 72.1115 94.3378 71.7422 94.3378ZM72.353 88.1162L71.6144 87.1218L70.8757 88.1162H70.0803V88.0593L71.2309 86.5821H71.9979L73.1485 88.0593V88.1162H72.353ZM82.5483 88.7696L80.5313 94.2241H79.679L77.662 88.7696H78.571L80.0767 93.1162H80.1335L81.6392 88.7696H82.5483ZM85.7461 94.3378C85.2206 94.3378 84.7672 94.2218 84.386 93.9897C84.0072 93.7554 83.7149 93.4287 83.5089 93.0096C83.3053 92.5882 83.2035 92.0982 83.2035 91.5395C83.2035 90.9807 83.3053 90.4883 83.5089 90.0622C83.7149 89.6337 84.0013 89.2999 84.3683 89.0608C84.7376 88.8193 85.1685 88.6986 85.6609 88.6986C85.945 88.6986 86.2255 88.7459 86.5025 88.8406C86.7795 88.9353 87.0316 89.0892 87.2589 89.3022C87.4862 89.5129 87.6673 89.7923 87.8022 90.1403C87.9372 90.4883 88.0046 90.9168 88.0046 91.4258V91.7809H83.8001V91.0565H87.1524C87.1524 90.7487 87.0908 90.4741 86.9677 90.2326C86.847 89.9912 86.6742 89.8006 86.4492 89.6609C86.2267 89.5212 85.9639 89.4514 85.6609 89.4514C85.3271 89.4514 85.0383 89.5343 84.7944 89.7C84.5529 89.8633 84.3671 90.0764 84.2369 90.3392C84.1067 90.602 84.0416 90.8837 84.0416 91.1843V91.6673C84.0416 92.0792 84.1126 92.4284 84.2546 92.7149C84.3991 92.999 84.5991 93.2156 84.8548 93.3647C85.1105 93.5115 85.4076 93.5849 85.7461 93.5849C85.9663 93.5849 86.1652 93.5541 86.3427 93.4926C86.5226 93.4287 86.6777 93.334 86.8079 93.2085C86.9381 93.0807 87.0387 92.922 87.1098 92.7326L87.9194 92.9599C87.8342 93.2345 87.691 93.476 87.4897 93.6843C87.2885 93.8903 87.0399 94.0513 86.744 94.1673C86.4481 94.2809 86.1154 94.3378 85.7461 94.3378ZM86.3569 88.1162L85.6183 87.1218L84.8796 88.1162H84.0842V88.0593L85.2348 86.5821H86.0018L87.1524 88.0593V88.1162H86.3569ZM94.3079 94.3378C93.8155 94.3378 93.3834 94.2206 93.0117 93.9862C92.6424 93.7518 92.3536 93.4239 92.1453 93.0025C91.9393 92.5811 91.8363 92.0887 91.8363 91.5253C91.8363 90.9571 91.9393 90.4611 92.1453 90.0373C92.3536 89.6136 92.6424 89.2845 93.0117 89.0501C93.3834 88.8157 93.8155 88.6986 94.3079 88.6986C94.8003 88.6986 95.2312 88.8157 95.6005 89.0501C95.9722 89.2845 96.261 89.6136 96.467 90.0373C96.6753 90.4611 96.7795 90.9571 96.7795 91.5253C96.7795 92.0887 96.6753 92.5811 96.467 93.0025C96.261 93.4239 95.9722 93.7518 95.6005 93.9862C95.2312 94.2206 94.8003 94.3378 94.3079 94.3378ZM94.3079 93.5849C94.682 93.5849 94.9897 93.489 95.2312 93.2973C95.4727 93.1055 95.6514 92.8534 95.7674 92.5409C95.8834 92.2284 95.9414 91.8898 95.9414 91.5253C95.9414 91.1607 95.8834 90.8209 95.7674 90.5061C95.6514 90.1912 95.4727 89.9367 95.2312 89.7426C94.9897 89.5485 94.682 89.4514 94.3079 89.4514C93.9339 89.4514 93.6261 89.5485 93.3846 89.7426C93.1431 89.9367 92.9644 90.1912 92.8484 90.5061C92.7324 90.8209 92.6744 91.1607 92.6744 91.5253C92.6744 91.8898 92.7324 92.2284 92.8484 92.5409C92.9644 92.8534 93.1431 93.1055 93.3846 93.2973C93.6261 93.489 93.9339 93.5849 94.3079 93.5849ZM105.332 88.7696L103.314 94.2241H102.462L100.445 88.7696H101.354L102.86 93.1162H102.917L104.422 88.7696H105.332ZM107.877 94.352C107.531 94.352 107.217 94.2869 106.936 94.1566C106.654 94.0241 106.43 93.8335 106.265 93.5849C106.099 93.334 106.016 93.0309 106.016 92.6758C106.016 92.3633 106.078 92.11 106.201 91.9159C106.324 91.7194 106.488 91.5655 106.694 91.4542C106.9 91.343 107.128 91.2601 107.376 91.2057C107.627 91.1488 107.879 91.1039 108.132 91.0707C108.464 91.0281 108.733 90.9961 108.939 90.9748C109.147 90.9512 109.298 90.9121 109.393 90.8576C109.49 90.8032 109.539 90.7085 109.539 90.5736V90.5451C109.539 90.1948 109.443 89.9225 109.251 89.7284C109.062 89.5343 108.774 89.4372 108.388 89.4372C107.988 89.4372 107.674 89.5248 107.447 89.7C107.22 89.8752 107.06 90.0622 106.968 90.2611L106.172 89.977C106.314 89.6455 106.504 89.3875 106.74 89.2028C106.98 89.0158 107.24 88.8856 107.522 88.8122C107.806 88.7364 108.085 88.6986 108.36 88.6986C108.535 88.6986 108.736 88.7199 108.963 88.7625C109.193 88.8027 109.414 88.8868 109.628 89.0146C109.843 89.1424 110.022 89.3354 110.164 89.5934C110.306 89.8515 110.377 90.1971 110.377 90.6304V94.2241H109.539V93.4855H109.496C109.439 93.6039 109.345 93.7305 109.212 93.8655C109.079 94.0004 108.903 94.1152 108.683 94.2099C108.463 94.3046 108.194 94.352 107.877 94.352ZM108.005 93.5991C108.336 93.5991 108.615 93.534 108.843 93.4038C109.072 93.2736 109.245 93.1055 109.361 92.8995C109.48 92.6936 109.539 92.477 109.539 92.2497V91.4826C109.503 91.5253 109.425 91.5643 109.304 91.5998C109.186 91.633 109.049 91.6626 108.892 91.6886C108.739 91.7123 108.588 91.7336 108.441 91.7525C108.297 91.7691 108.18 91.7833 108.09 91.7951C107.872 91.8236 107.668 91.8697 107.479 91.9336C107.292 91.9952 107.141 92.0887 107.025 92.2142C106.911 92.3373 106.854 92.5054 106.854 92.7184C106.854 93.0096 106.962 93.2298 107.177 93.379C107.395 93.5257 107.671 93.5991 108.005 93.5991ZM112.745 86.9514V94.2241H111.906V86.9514H112.745ZM116.495 94.3378C116.003 94.3378 115.571 94.2206 115.199 93.9862C114.83 93.7518 114.541 93.4239 114.333 93.0025C114.127 92.5811 114.024 92.0887 114.024 91.5253C114.024 90.9571 114.127 90.4611 114.333 90.0373C114.541 89.6136 114.83 89.2845 115.199 89.0501C115.571 88.8157 116.003 88.6986 116.495 88.6986C116.988 88.6986 117.419 88.8157 117.788 89.0501C118.16 89.2845 118.449 89.6136 118.655 90.0373C118.863 90.4611 118.967 90.9571 118.967 91.5253C118.967 92.0887 118.863 92.5811 118.655 93.0025C118.449 93.4239 118.16 93.7518 117.788 93.9862C117.419 94.2206 116.988 94.3378 116.495 94.3378ZM116.495 93.5849C116.869 93.5849 117.177 93.489 117.419 93.2973C117.66 93.1055 117.839 92.8534 117.955 92.5409C118.071 92.2284 118.129 91.8898 118.129 91.5253C118.129 91.1607 118.071 90.8209 117.955 90.5061C117.839 90.1912 117.66 89.9367 117.419 89.7426C117.177 89.5485 116.869 89.4514 116.495 89.4514C116.121 89.4514 115.814 89.5485 115.572 89.7426C115.331 89.9367 115.152 90.1912 115.036 90.5061C114.92 90.8209 114.862 91.1607 114.862 91.5253C114.862 91.8898 114.92 92.2284 115.036 92.5409C115.152 92.8534 115.331 93.1055 115.572 93.2973C115.814 93.489 116.121 93.5849 116.495 93.5849ZM120.246 94.2241V88.7696H121.056V89.5934H121.113C121.212 89.3236 121.392 89.1046 121.653 88.9365C121.913 88.7684 122.207 88.6843 122.533 88.6843C122.595 88.6843 122.672 88.6855 122.764 88.6879C122.856 88.6903 122.926 88.6938 122.974 88.6986V89.5508C122.945 89.5437 122.88 89.5331 122.778 89.5189C122.679 89.5023 122.573 89.494 122.462 89.494C122.197 89.494 121.96 89.5496 121.752 89.6609C121.546 89.7698 121.383 89.9213 121.262 90.1155C121.144 90.3072 121.084 90.5262 121.084 90.7724V94.2241H120.246ZM129.066 94.3378C128.541 94.3378 128.088 94.2218 127.706 93.9897C127.328 93.7554 127.035 93.4287 126.829 93.0096C126.626 92.5882 126.524 92.0982 126.524 91.5395C126.524 90.9807 126.626 90.4883 126.829 90.0622C127.035 89.6337 127.322 89.2999 127.689 89.0608C128.058 88.8193 128.489 88.6986 128.981 88.6986C129.265 88.6986 129.546 88.7459 129.823 88.8406C130.1 88.9353 130.352 89.0892 130.579 89.3022C130.806 89.5129 130.988 89.7923 131.123 90.1403C131.257 90.4883 131.325 90.9168 131.325 91.4258V91.7809H127.12V91.0565H130.473C130.473 90.7487 130.411 90.4741 130.288 90.2326C130.167 89.9912 129.994 89.8006 129.77 89.6609C129.547 89.5212 129.284 89.4514 128.981 89.4514C128.647 89.4514 128.359 89.5343 128.115 89.7C127.873 89.8633 127.687 90.0764 127.557 90.3392C127.427 90.602 127.362 90.8837 127.362 91.1843V91.6673C127.362 92.0792 127.433 92.4284 127.575 92.7149C127.719 92.999 127.919 93.2156 128.175 93.3647C128.431 93.5115 128.728 93.5849 129.066 93.5849C129.287 93.5849 129.485 93.5541 129.663 93.4926C129.843 93.4287 129.998 93.334 130.128 93.2085C130.258 93.0807 130.359 92.922 130.43 92.7326L131.24 92.9599C131.155 93.2345 131.011 93.476 130.81 93.6843C130.609 93.8903 130.36 94.0513 130.064 94.1673C129.768 94.2809 129.436 94.3378 129.066 94.3378ZM30.2889 106.352C29.9433 106.352 29.6296 106.287 29.3479 106.157C29.0661 106.024 28.8424 105.833 28.6767 105.585C28.511 105.334 28.4281 105.031 28.4281 104.676C28.4281 104.363 28.4897 104.11 28.6128 103.916C28.7359 103.719 28.9004 103.566 29.1064 103.454C29.3123 103.343 29.5396 103.26 29.7882 103.206C30.0391 103.149 30.2913 103.104 30.5446 103.071C30.876 103.028 31.1447 102.996 31.3507 102.975C31.559 102.951 31.7105 102.912 31.8052 102.858C31.9023 102.803 31.9508 102.708 31.9508 102.574V102.545C31.9508 102.195 31.855 101.923 31.6632 101.728C31.4738 101.534 31.1862 101.437 30.8003 101.437C30.4002 101.437 30.0865 101.525 29.8592 101.7C29.6319 101.875 29.4721 102.062 29.3798 102.261L28.5844 101.977C28.7264 101.646 28.9158 101.387 29.1525 101.203C29.3917 101.016 29.6521 100.886 29.9338 100.812C30.2179 100.736 30.4972 100.699 30.7719 100.699C30.9471 100.699 31.1483 100.72 31.3756 100.762C31.6052 100.803 31.8265 100.887 32.0396 101.015C32.2551 101.142 32.4338 101.335 32.5758 101.593C32.7179 101.851 32.7889 102.197 32.7889 102.63V106.224H31.9508V105.485H31.9082C31.8514 105.604 31.7567 105.731 31.6241 105.865C31.4916 106 31.3152 106.115 31.095 106.21C30.8748 106.305 30.6061 106.352 30.2889 106.352ZM30.4167 105.599C30.7482 105.599 31.0275 105.534 31.2548 105.404C31.4845 105.274 31.6573 105.106 31.7733 104.9C31.8917 104.694 31.9508 104.477 31.9508 104.25V103.483C31.9153 103.525 31.8372 103.564 31.7165 103.6C31.5981 103.633 31.4608 103.663 31.3045 103.689C31.1506 103.712 31.0003 103.734 30.8535 103.753C30.7091 103.769 30.5919 103.783 30.502 103.795C30.2842 103.824 30.0806 103.87 29.8912 103.934C29.7042 103.995 29.5526 104.089 29.4366 104.214C29.323 104.337 29.2662 104.505 29.2662 104.718C29.2662 105.01 29.3739 105.23 29.5893 105.379C29.8071 105.526 30.0829 105.599 30.4167 105.599ZM37.1311 108.27V100.77H37.9407V101.636H38.0402C38.1017 101.541 38.1869 101.421 38.2958 101.274C38.4071 101.125 38.5657 100.992 38.7717 100.876C38.98 100.758 39.2617 100.699 39.6169 100.699C40.0761 100.699 40.481 100.813 40.8313 101.043C41.1817 101.273 41.4552 101.598 41.6517 102.02C41.8482 102.441 41.9464 102.938 41.9464 103.511C41.9464 104.089 41.8482 104.589 41.6517 105.013C41.4552 105.435 41.1829 105.761 40.8349 105.993C40.4869 106.223 40.0856 106.338 39.6311 106.338C39.2807 106.338 39.0001 106.28 38.7894 106.164C38.5787 106.045 38.4166 105.912 38.3029 105.762C38.1893 105.611 38.1017 105.485 38.0402 105.386H37.9691V108.27H37.1311ZM37.9549 103.497C37.9549 103.909 38.0153 104.272 38.136 104.587C38.2568 104.9 38.4331 105.145 38.6652 105.322C38.8972 105.497 39.1812 105.585 39.5174 105.585C39.8678 105.585 40.1602 105.493 40.3946 105.308C40.6313 105.121 40.8089 104.87 40.9272 104.555C41.048 104.238 41.1083 103.885 41.1083 103.497C41.1083 103.113 41.0491 102.768 40.9308 102.46C40.8148 102.15 40.6384 101.905 40.4017 101.725C40.1673 101.543 39.8725 101.451 39.5174 101.451C39.1765 101.451 38.8901 101.538 38.658 101.711C38.426 101.881 38.2509 102.12 38.1325 102.428C38.0141 102.733 37.9549 103.09 37.9549 103.497ZM45.5117 106.338C44.9862 106.338 44.5328 106.222 44.1517 105.99C43.7729 105.755 43.4805 105.429 43.2745 105.01C43.0709 104.588 42.9691 104.098 42.9691 103.539C42.9691 102.981 43.0709 102.488 43.2745 102.062C43.4805 101.634 43.767 101.3 44.1339 101.061C44.5032 100.819 44.9341 100.699 45.4265 100.699C45.7106 100.699 45.9911 100.746 46.2681 100.841C46.5451 100.935 46.7973 101.089 47.0245 101.302C47.2518 101.513 47.4329 101.792 47.5679 102.14C47.7028 102.488 47.7703 102.917 47.7703 103.426V103.781H43.5657V103.057H46.918C46.918 102.749 46.8564 102.474 46.7333 102.233C46.6126 101.991 46.4398 101.801 46.2149 101.661C45.9923 101.521 45.7295 101.451 45.4265 101.451C45.0927 101.451 44.8039 101.534 44.56 101.7C44.3186 101.863 44.1327 102.076 44.0025 102.339C43.8723 102.602 43.8072 102.884 43.8072 103.184V103.667C43.8072 104.079 43.8782 104.428 44.0203 104.715C44.1647 104.999 44.3647 105.216 44.6204 105.365C44.8761 105.512 45.1732 105.585 45.5117 105.585C45.7319 105.585 45.9308 105.554 46.1083 105.493C46.2883 105.429 46.4433 105.334 46.5735 105.208C46.7037 105.081 46.8044 104.922 46.8754 104.733L47.685 104.96C47.5998 105.235 47.4566 105.476 47.2554 105.684C47.0541 105.89 46.8055 106.051 46.5096 106.167C46.2137 106.281 45.8811 106.338 45.5117 106.338ZM51.1048 106.338C50.6502 106.338 50.249 106.223 49.9009 105.993C49.5529 105.761 49.2807 105.435 49.0842 105.013C48.8877 104.589 48.7894 104.089 48.7894 103.511C48.7894 102.938 48.8877 102.441 49.0842 102.02C49.2807 101.598 49.5541 101.273 49.9045 101.043C50.2549 100.813 50.6597 100.699 51.119 100.699C51.4741 100.699 51.7546 100.758 51.9606 100.876C52.1689 100.992 52.3276 101.125 52.4365 101.274C52.5477 101.421 52.6341 101.541 52.6957 101.636H52.7667V98.9514H53.6048V106.224H52.7951V105.386H52.6957C52.6341 105.485 52.5465 105.611 52.4329 105.762C52.3193 105.912 52.1571 106.045 51.9464 106.164C51.7357 106.28 51.4552 106.338 51.1048 106.338ZM51.2184 105.585C51.5546 105.585 51.8387 105.497 52.0707 105.322C52.3027 105.145 52.4791 104.9 52.5998 104.587C52.7206 104.272 52.7809 103.909 52.7809 103.497C52.7809 103.09 52.7217 102.733 52.6034 102.428C52.485 102.12 52.3098 101.881 52.0778 101.711C51.8458 101.538 51.5593 101.451 51.2184 101.451C50.8633 101.451 50.5674 101.543 50.3306 101.725C50.0963 101.905 49.9199 102.15 49.8015 102.46C49.6855 102.768 49.6275 103.113 49.6275 103.497C49.6275 103.885 49.6867 104.238 49.8051 104.555C49.9258 104.87 50.1034 105.121 50.3377 105.308C50.5745 105.493 50.868 105.585 51.2184 105.585ZM55.2561 106.224V100.77H56.0657V101.593H56.1225C56.222 101.324 56.4019 101.105 56.6623 100.936C56.9227 100.768 57.2163 100.684 57.543 100.684C57.6045 100.684 57.6815 100.686 57.7738 100.688C57.8661 100.69 57.936 100.694 57.9833 100.699V101.551C57.9549 101.544 57.8898 101.533 57.788 101.519C57.6886 101.502 57.5832 101.494 57.472 101.494C57.2068 101.494 56.9701 101.55 56.7617 101.661C56.5558 101.77 56.3924 101.921 56.2717 102.115C56.1533 102.307 56.0941 102.526 56.0941 102.772V106.224H55.2561ZM60.5819 106.352C60.2362 106.352 59.9226 106.287 59.6408 106.157C59.3591 106.024 59.1354 105.833 58.9697 105.585C58.8039 105.334 58.7211 105.031 58.7211 104.676C58.7211 104.363 58.7826 104.11 58.9057 103.916C59.0288 103.719 59.1934 103.566 59.3993 103.454C59.6053 103.343 59.8326 103.26 60.0812 103.206C60.3321 103.149 60.5842 103.104 60.8376 103.071C61.169 103.028 61.4377 102.996 61.6437 102.975C61.852 102.951 62.0035 102.912 62.0982 102.858C62.1953 102.803 62.2438 102.708 62.2438 102.574V102.545C62.2438 102.195 62.1479 101.923 61.9562 101.728C61.7668 101.534 61.4791 101.437 61.0932 101.437C60.6931 101.437 60.3795 101.525 60.1522 101.7C59.9249 101.875 59.7651 102.062 59.6728 102.261L58.8773 101.977C59.0194 101.646 59.2088 101.387 59.4455 101.203C59.6846 101.016 59.945 100.886 60.2268 100.812C60.5109 100.736 60.7902 100.699 61.0648 100.699C61.24 100.699 61.4413 100.72 61.6685 100.762C61.8982 100.803 62.1195 100.887 62.3326 101.015C62.548 101.142 62.7268 101.335 62.8688 101.593C63.0109 101.851 63.0819 102.197 63.0819 102.63V106.224H62.2438V105.485H62.2012C62.1444 105.604 62.0497 105.731 61.9171 105.865C61.7845 106 61.6082 106.115 61.388 106.21C61.1678 106.305 60.8991 106.352 60.5819 106.352ZM60.7097 105.599C61.0412 105.599 61.3205 105.534 61.5478 105.404C61.7774 105.274 61.9502 105.106 62.0663 104.9C62.1846 104.694 62.2438 104.477 62.2438 104.25V103.483C62.2083 103.525 62.1302 103.564 62.0094 103.6C61.8911 103.633 61.7538 103.663 61.5975 103.689C61.4436 103.712 61.2933 103.734 61.1465 103.753C61.0021 103.769 60.8849 103.783 60.7949 103.795C60.5771 103.824 60.3735 103.87 60.1842 103.934C59.9971 103.995 59.8456 104.089 59.7296 104.214C59.616 104.337 59.5592 104.505 59.5592 104.718C59.5592 105.01 59.6669 105.23 59.8823 105.379C60.1001 105.526 60.3759 105.599 60.7097 105.599ZM71.1456 108.27V105.386H71.0746C71.013 105.485 70.9255 105.611 70.8118 105.762C70.6982 105.912 70.536 106.045 70.3253 106.164C70.1146 106.28 69.8341 106.338 69.4837 106.338C69.0291 106.338 68.6279 106.223 68.2799 105.993C67.9318 105.761 67.6596 105.435 67.4631 105.013C67.2666 104.589 67.1683 104.089 67.1683 103.511C67.1683 102.938 67.2666 102.441 67.4631 102.02C67.6596 101.598 67.933 101.273 68.2834 101.043C68.6338 100.813 69.0386 100.699 69.4979 100.699C69.853 100.699 70.1335 100.758 70.3395 100.876C70.5478 100.992 70.7065 101.125 70.8154 101.274C70.9266 101.421 71.013 101.541 71.0746 101.636H71.174V100.77H71.9837V108.27H71.1456ZM69.5973 105.585C69.9335 105.585 70.2176 105.497 70.4496 105.322C70.6816 105.145 70.858 104.9 70.9787 104.587C71.0995 104.272 71.1598 103.909 71.1598 103.497C71.1598 103.09 71.1006 102.733 70.9823 102.428C70.8639 102.12 70.6887 101.881 70.4567 101.711C70.2247 101.538 69.9382 101.451 69.5973 101.451C69.2422 101.451 68.9463 101.543 68.7095 101.725C68.4752 101.905 68.2988 102.15 68.1804 102.46C68.0644 102.768 68.0064 103.113 68.0064 103.497C68.0064 103.885 68.0656 104.238 68.184 104.555C68.3047 104.87 68.4823 105.121 68.7166 105.308C68.9534 105.493 69.2469 105.585 69.5973 105.585ZM76.9553 103.994V100.77H77.7934V106.224H76.9553V105.301H76.8985C76.7706 105.578 76.5718 105.813 76.3019 106.008C76.032 106.199 75.6911 106.295 75.2791 106.295C74.9382 106.295 74.6352 106.221 74.3701 106.071C74.1049 105.92 73.8966 105.693 73.7451 105.39C73.5935 105.084 73.5178 104.699 73.5178 104.235V100.77H74.3559V104.179C74.3559 104.576 74.4671 104.894 74.6897 105.13C74.9146 105.367 75.201 105.485 75.549 105.485C75.7574 105.485 75.9692 105.432 76.1847 105.326C76.4025 105.219 76.5848 105.056 76.7316 104.836C76.8807 104.615 76.9553 104.335 76.9553 103.994ZM81.6153 106.338C81.0897 106.338 80.6363 106.222 80.2552 105.99C79.8764 105.755 79.584 105.429 79.378 105.01C79.1744 104.588 79.0726 104.098 79.0726 103.539C79.0726 102.981 79.1744 102.488 79.378 102.062C79.584 101.634 79.8705 101.3 80.2374 101.061C80.6067 100.819 81.0376 100.699 81.53 100.699C81.8141 100.699 82.0947 100.746 82.3717 100.841C82.6486 100.935 82.9008 101.089 83.128 101.302C83.3553 101.513 83.5364 101.792 83.6714 102.14C83.8063 102.488 83.8738 102.917 83.8738 103.426V103.781H79.6692V103.057H83.0215C83.0215 102.749 82.96 102.474 82.8369 102.233C82.7161 101.991 82.5433 101.801 82.3184 101.661C82.0958 101.521 81.8331 101.451 81.53 101.451C81.1962 101.451 80.9074 101.534 80.6636 101.7C80.4221 101.863 80.2362 102.076 80.106 102.339C79.9758 102.602 79.9107 102.884 79.9107 103.184V103.667C79.9107 104.079 79.9817 104.428 80.1238 104.715C80.2682 104.999 80.4682 105.216 80.7239 105.365C80.9796 105.512 81.2767 105.585 81.6153 105.585C81.8354 105.585 82.0343 105.554 82.2119 105.493C82.3918 105.429 82.5468 105.334 82.6771 105.208C82.8073 105.081 82.9079 104.922 82.9789 104.733L83.7886 104.96C83.7033 105.235 83.5601 105.476 83.3589 105.684C83.1576 105.89 82.9091 106.051 82.6131 106.167C82.3172 106.281 81.9846 106.338 81.6153 106.338ZM92.4214 100.77L90.4043 106.224H89.5521L87.535 100.77H88.4441L89.9498 105.116H90.0066L91.5123 100.77H92.4214ZM95.5481 106.338C95.0557 106.338 94.6237 106.221 94.252 105.986C93.8827 105.752 93.5938 105.424 93.3855 105.003C93.1795 104.581 93.0766 104.089 93.0766 103.525C93.0766 102.957 93.1795 102.461 93.3855 102.037C93.5938 101.614 93.8827 101.284 94.252 101.05C94.6237 100.816 95.0557 100.699 95.5481 100.699C96.0406 100.699 96.4714 100.816 96.8408 101.05C97.2124 101.284 97.5013 101.614 97.7072 102.037C97.9156 102.461 98.0197 102.957 98.0197 103.525C98.0197 104.089 97.9156 104.581 97.7072 105.003C97.5013 105.424 97.2124 105.752 96.8408 105.986C96.4714 106.221 96.0406 106.338 95.5481 106.338ZM95.5481 105.585C95.9222 105.585 96.23 105.489 96.4714 105.297C96.7129 105.106 96.8917 104.853 97.0077 104.541C97.1237 104.228 97.1817 103.89 97.1817 103.525C97.1817 103.161 97.1237 102.821 97.0077 102.506C96.8917 102.191 96.7129 101.937 96.4714 101.743C96.23 101.548 95.9222 101.451 95.5481 101.451C95.1741 101.451 94.8663 101.548 94.6249 101.743C94.3834 101.937 94.2046 102.191 94.0886 102.506C93.9726 102.821 93.9146 103.161 93.9146 103.525C93.9146 103.89 93.9726 104.228 94.0886 104.541C94.2046 104.853 94.3834 105.106 94.6249 105.297C94.8663 105.489 95.1741 105.585 95.5481 105.585ZM101.515 106.338C101.004 106.338 100.563 106.217 100.194 105.976C99.8246 105.734 99.5405 105.401 99.3416 104.978C99.1428 104.554 99.0434 104.07 99.0434 103.525C99.0434 102.971 99.1452 102.482 99.3488 102.059C99.5547 101.633 99.8412 101.3 100.208 101.061C100.577 100.819 101.008 100.699 101.501 100.699C101.884 100.699 102.23 100.77 102.538 100.912C102.845 101.054 103.098 101.253 103.294 101.508C103.491 101.764 103.612 102.062 103.66 102.403H102.822C102.758 102.155 102.616 101.934 102.396 101.743C102.178 101.548 101.884 101.451 101.515 101.451C101.188 101.451 100.902 101.537 100.656 101.707C100.412 101.875 100.221 102.113 100.084 102.421C99.9489 102.726 99.8814 103.085 99.8814 103.497C99.8814 103.918 99.9477 104.285 100.08 104.598C100.215 104.91 100.405 105.153 100.648 105.326C100.895 105.499 101.184 105.585 101.515 105.585C101.733 105.585 101.93 105.547 102.108 105.471C102.286 105.396 102.436 105.287 102.559 105.145C102.682 105.003 102.77 104.832 102.822 104.633H103.66C103.612 104.955 103.495 105.245 103.308 105.503C103.124 105.759 102.879 105.963 102.573 106.114C102.27 106.263 101.917 106.338 101.515 106.338ZM107.172 106.338C106.646 106.338 106.193 106.222 105.812 105.99C105.433 105.755 105.141 105.429 104.935 105.01C104.731 104.588 104.629 104.098 104.629 103.539C104.629 102.981 104.731 102.488 104.935 102.062C105.141 101.634 105.427 101.3 105.794 101.061C106.163 100.819 106.594 100.699 107.087 100.699C107.371 100.699 107.651 100.746 107.928 100.841C108.205 100.935 108.457 101.089 108.685 101.302C108.912 101.513 109.093 101.792 109.228 102.14C109.363 102.488 109.43 102.917 109.43 103.426V103.781H105.226V103.057H108.578C108.578 102.749 108.517 102.474 108.393 102.233C108.273 101.991 108.1 101.801 107.875 101.661C107.652 101.521 107.39 101.451 107.087 101.451C106.753 101.451 106.464 101.534 106.22 101.7C105.979 101.863 105.793 102.076 105.663 102.339C105.532 102.602 105.467 102.884 105.467 103.184V103.667C105.467 104.079 105.538 104.428 105.68 104.715C105.825 104.999 106.025 105.216 106.281 105.365C106.536 105.512 106.833 105.585 107.172 105.585C107.392 105.585 107.591 105.554 107.768 105.493C107.948 105.429 108.103 105.334 108.234 105.208C108.364 105.081 108.465 104.922 108.536 104.733L109.345 104.96C109.26 105.235 109.117 105.476 108.916 105.684C108.714 105.89 108.466 106.051 108.17 106.167C107.874 106.281 107.541 106.338 107.172 106.338ZM107.783 100.116L107.044 99.1218L106.305 100.116H105.51V100.059L106.661 98.5821H107.428L108.578 100.059V100.116H107.783ZM30.9707 118.338C30.4452 118.338 29.9918 118.222 29.6106 117.99C29.2319 117.755 28.9395 117.429 28.7335 117.01C28.5299 116.588 28.4281 116.098 28.4281 115.539C28.4281 114.981 28.5299 114.488 28.7335 114.062C28.9395 113.634 29.2259 113.3 29.5929 113.061C29.9622 112.819 30.3931 112.699 30.8855 112.699C31.1696 112.699 31.4501 112.746 31.7271 112.841C32.0041 112.935 32.2562 113.089 32.4835 113.302C32.7108 113.513 32.8919 113.792 33.0268 114.14C33.1618 114.488 33.2292 114.917 33.2292 115.426V115.781H29.0247V115.057H32.377C32.377 114.749 32.3154 114.474 32.1923 114.233C32.0716 113.991 31.8988 113.801 31.6739 113.661C31.4513 113.521 31.1885 113.451 30.8855 113.451C30.5517 113.451 30.2629 113.534 30.019 113.7C29.7775 113.863 29.5917 114.076 29.4615 114.339C29.3313 114.602 29.2662 114.884 29.2662 115.184V115.667C29.2662 116.079 29.3372 116.428 29.4792 116.715C29.6237 116.999 29.8237 117.216 30.0794 117.365C30.3351 117.512 30.6322 117.585 30.9707 117.585C31.1909 117.585 31.3898 117.554 31.5673 117.493C31.7472 117.429 31.9023 117.334 32.0325 117.208C32.1627 117.081 32.2633 116.922 32.3344 116.733L33.144 116.96C33.0588 117.235 32.9156 117.476 32.7143 117.684C32.5131 117.89 32.2645 118.051 31.9686 118.167C31.6727 118.281 31.34 118.338 30.9707 118.338ZM38.3677 113.991L37.6149 114.204C37.5676 114.079 37.4977 113.957 37.4054 113.838C37.3154 113.718 37.1923 113.618 37.0361 113.54C36.8798 113.462 36.6798 113.423 36.4359 113.423C36.1021 113.423 35.8239 113.5 35.6014 113.654C35.3812 113.805 35.2712 113.998 35.2712 114.233C35.2712 114.441 35.3469 114.606 35.4984 114.726C35.6499 114.847 35.8867 114.948 36.2087 115.028L37.0183 115.227C37.506 115.345 37.8694 115.526 38.1085 115.77C38.3476 116.012 38.4672 116.323 38.4672 116.704C38.4672 117.017 38.3772 117.296 38.1973 117.542C38.0197 117.789 37.7712 117.983 37.4516 118.125C37.1319 118.267 36.7603 118.338 36.3365 118.338C35.7801 118.338 35.3197 118.217 34.9551 117.976C34.5905 117.734 34.3597 117.381 34.2626 116.917L35.0581 116.718C35.1338 117.012 35.2771 117.232 35.4878 117.379C35.7008 117.526 35.979 117.599 36.3223 117.599C36.7129 117.599 37.023 117.516 37.2527 117.351C37.4847 117.182 37.6007 116.981 37.6007 116.747C37.6007 116.557 37.5344 116.399 37.4018 116.271C37.2693 116.141 37.0657 116.044 36.791 115.98L35.8819 115.767C35.3824 115.648 35.0155 115.465 34.7811 115.216C34.5491 114.965 34.4331 114.652 34.4331 114.275C34.4331 113.967 34.5195 113.695 34.6923 113.458C34.8675 113.222 35.1054 113.036 35.4061 112.901C35.7091 112.766 36.0524 112.699 36.4359 112.699C36.9757 112.699 37.3995 112.817 37.7072 113.054C38.0174 113.29 38.2375 113.603 38.3677 113.991ZM41.9446 118.338C41.4333 118.338 40.9929 118.217 40.6236 117.976C40.2543 117.734 39.9702 117.401 39.7713 116.978C39.5725 116.554 39.473 116.07 39.473 115.525C39.473 114.971 39.5748 114.482 39.7784 114.059C39.9844 113.633 40.2709 113.3 40.6378 113.061C41.0071 112.819 41.438 112.699 41.9304 112.699C42.3139 112.699 42.6596 112.77 42.9674 112.912C43.2751 113.054 43.5272 113.253 43.7237 113.508C43.9202 113.764 44.0422 114.062 44.0895 114.403H43.2514C43.1875 114.155 43.0455 113.934 42.8253 113.743C42.6075 113.548 42.3139 113.451 41.9446 113.451C41.6179 113.451 41.3315 113.537 41.0853 113.707C40.8414 113.875 40.6508 114.113 40.5135 114.421C40.3786 114.726 40.3111 115.085 40.3111 115.497C40.3111 115.918 40.3774 116.285 40.51 116.598C40.6449 116.91 40.8343 117.153 41.0781 117.326C41.3244 117.499 41.6132 117.585 41.9446 117.585C42.1624 117.585 42.3601 117.547 42.5377 117.471C42.7152 117.396 42.8656 117.287 42.9887 117.145C43.1118 117.003 43.1994 116.832 43.2514 116.633H44.0895C44.0422 116.955 43.925 117.245 43.7379 117.503C43.5533 117.759 43.3083 117.963 43.0029 118.114C42.6998 118.263 42.3471 118.338 41.9446 118.338ZM47.5306 118.338C47.0381 118.338 46.6061 118.221 46.2344 117.986C45.8651 117.752 45.5763 117.424 45.3679 117.003C45.162 116.581 45.059 116.089 45.059 115.525C45.059 114.957 45.162 114.461 45.3679 114.037C45.5763 113.614 45.8651 113.284 46.2344 113.05C46.6061 112.816 47.0381 112.699 47.5306 112.699C48.023 112.699 48.4539 112.816 48.8232 113.05C49.1949 113.284 49.4837 113.614 49.6897 114.037C49.898 114.461 50.0022 114.957 50.0022 115.525C50.0022 116.089 49.898 116.581 49.6897 117.003C49.4837 117.424 49.1949 117.752 48.8232 117.986C48.4539 118.221 48.023 118.338 47.5306 118.338ZM47.5306 117.585C47.9046 117.585 48.2124 117.489 48.4539 117.297C48.6953 117.106 48.8741 116.853 48.9901 116.541C49.1061 116.228 49.1641 115.89 49.1641 115.525C49.1641 115.161 49.1061 114.821 48.9901 114.506C48.8741 114.191 48.6953 113.937 48.4539 113.743C48.2124 113.548 47.9046 113.451 47.5306 113.451C47.1565 113.451 46.8487 113.548 46.6073 113.743C46.3658 113.937 46.1871 114.191 46.071 114.506C45.955 114.821 45.897 115.161 45.897 115.525C45.897 115.89 45.955 116.228 46.071 116.541C46.1871 116.853 46.3658 117.106 46.6073 117.297C46.8487 117.489 47.1565 117.585 47.5306 117.585ZM52.1195 110.951V118.224H51.2815V110.951H52.1195ZM54.4926 114.943V118.224H53.6545V110.951H54.4926V113.622H54.5636C54.6914 113.34 54.8832 113.116 55.1389 112.951C55.3969 112.783 55.7402 112.699 56.1687 112.699C56.5404 112.699 56.8659 112.773 57.1453 112.922C57.4246 113.069 57.6412 113.295 57.7951 113.601C57.9514 113.904 58.0295 114.289 58.0295 114.758V118.224H57.1914V114.815C57.1914 114.382 57.079 114.047 56.8541 113.81C56.6315 113.571 56.3226 113.451 55.9272 113.451C55.6526 113.451 55.4064 113.509 55.1886 113.625C54.9732 113.741 54.8027 113.911 54.6772 114.133C54.5541 114.356 54.4926 114.626 54.4926 114.943ZM61.8496 118.338C61.3241 118.338 60.8707 118.222 60.4895 117.99C60.1108 117.755 59.8184 117.429 59.6124 117.01C59.4088 116.588 59.307 116.098 59.307 115.539C59.307 114.981 59.4088 114.488 59.6124 114.062C59.8184 113.634 60.1048 113.3 60.4718 113.061C60.8411 112.819 61.272 112.699 61.7644 112.699C62.0485 112.699 62.329 112.746 62.606 112.841C62.883 112.935 63.1351 113.089 63.3624 113.302C63.5897 113.513 63.7708 113.792 63.9057 114.14C64.0407 114.488 64.1082 114.917 64.1082 115.426V115.781H59.9036V115.057H63.2559C63.2559 114.749 63.1943 114.474 63.0712 114.233C62.9505 113.991 62.7777 113.801 62.5528 113.661C62.3302 113.521 62.0674 113.451 61.7644 113.451C61.4306 113.451 61.1418 113.534 60.8979 113.7C60.6565 113.863 60.4706 114.076 60.3404 114.339C60.2102 114.602 60.1451 114.884 60.1451 115.184V115.667C60.1451 116.079 60.2161 116.428 60.3582 116.715C60.5026 116.999 60.7026 117.216 60.9583 117.365C61.214 117.512 61.5111 117.585 61.8496 117.585C62.0698 117.585 62.2687 117.554 62.4462 117.493C62.6261 117.429 62.7812 117.334 62.9114 117.208C63.0416 117.081 63.1422 116.922 63.2133 116.733L64.0229 116.96C63.9377 117.235 63.7945 117.476 63.5932 117.684C63.392 117.89 63.1434 118.051 62.8475 118.167C62.5516 118.281 62.219 118.338 61.8496 118.338ZM68.8205 115.994V112.77H69.6586V118.224H68.8205V117.301H68.7637C68.6359 117.578 68.437 117.813 68.1671 118.008C67.8972 118.199 67.5563 118.295 67.1444 118.295C66.8035 118.295 66.5004 118.221 66.2353 118.071C65.9701 117.92 65.7618 117.693 65.6103 117.39C65.4588 117.084 65.383 116.699 65.383 116.235V112.77H66.2211V116.179C66.2211 116.576 66.3324 116.894 66.5549 117.13C66.7798 117.367 67.0663 117.485 67.4143 117.485C67.6226 117.485 67.8345 117.432 68.0499 117.326C68.2677 117.219 68.45 117.056 68.5968 116.836C68.7459 116.615 68.8205 116.335 68.8205 115.994Z" fill="white"/>
<path d="M19.8006 15.1139L19.0768 14.9172L19.8006 15.1139ZM24.1508 1.12729C23.945 0.767845 23.4867 0.643319 23.1273 0.849157L17.2697 4.20349C16.9103 4.40932 16.7858 4.86758 16.9916 5.22703C17.1974 5.58648 17.6557 5.711 18.0151 5.50517L23.2219 2.52354L26.2035 7.73026C26.4093 8.08971 26.8676 8.21423 27.227 8.00839C27.5865 7.80256 27.711 7.3443 27.5052 6.98485L24.1508 1.12729ZM20.5243 15.3106L24.2238 1.69667L22.7762 1.30332L19.0768 14.9172L20.5243 15.3106ZM28.1533 76.3554C17.6786 57.8032 14.9375 35.8701 20.5243 15.3106L19.0768 14.9172C13.3865 35.8576 16.1783 58.197 26.8472 77.0929L28.1533 76.3554Z" fill="white"/>
</g>
<defs>
<filter id="filter0_d_162_4287" x="12.1904" y="0.749878" width="123.135" height="125.588" filterUnits="userSpaceOnUse" color-interpolation-filters="sRGB">
<feFlood flood-opacity="0" result="BackgroundImageFix"/>
<feColorMatrix in="SourceAlpha" type="matrix" values="0 0 0 0 0 0 0 0 0 0 0 0 0 0 0 0 0 0 127 0" result="hardAlpha"/>
<feOffset dy="4"/>
<feGaussianBlur stdDeviation="2"/>
<feComposite in2="hardAlpha" operator="out"/>
<feColorMatrix type="matrix" values="0 0 0 0 0 0 0 0 0 0 0 0 0 0 0 0 0 0 0.25 0"/>
<feBlend mode="normal" in2="BackgroundImageFix" result="effect1_dropShadow_162_4287"/>
<feBlend mode="normal" in="SourceGraphic" in2="effect1_dropShadow_162_4287" result="shape"/>
</filter>
</defs>
</svg>
