<svg width="175" height="175" viewBox="0 0 175 175" fill="none" xmlns="http://www.w3.org/2000/svg">
<path d="M37.8807 148V140.728H40.3381C40.9086 140.728 41.375 140.831 41.7372 141.037C42.1018 141.24 42.3717 141.516 42.5469 141.864C42.7221 142.212 42.8097 142.6 42.8097 143.029C42.8097 143.457 42.7221 143.847 42.5469 144.197C42.3741 144.548 42.1065 144.827 41.7443 145.035C41.3821 145.241 40.9181 145.344 40.3523 145.344H38.5909V144.563H40.3239C40.7145 144.563 41.0282 144.495 41.2649 144.36C41.5017 144.226 41.6733 144.043 41.7798 143.814C41.8887 143.582 41.9432 143.32 41.9432 143.029C41.9432 142.738 41.8887 142.477 41.7798 142.248C41.6733 142.018 41.5005 141.838 41.2614 141.708C41.0223 141.575 40.705 141.509 40.3097 141.509H38.7614V148H37.8807ZM44.1147 148V142.546H44.9244V143.37H44.9812C45.0806 143.1 45.2605 142.881 45.521 142.713C45.7814 142.545 46.0749 142.461 46.4016 142.461C46.4632 142.461 46.5401 142.462 46.6325 142.464C46.7248 142.467 46.7946 142.47 46.842 142.475V143.327C46.8136 143.32 46.7485 143.309 46.6467 143.295C46.5472 143.279 46.4419 143.27 46.3306 143.27C46.0655 143.27 45.8287 143.326 45.6204 143.437C45.4144 143.546 45.2511 143.698 45.1303 143.892C45.012 144.083 44.9528 144.302 44.9528 144.549V148H44.1147ZM47.8354 148V142.546H48.6735V148H47.8354ZM48.2615 141.637C48.0982 141.637 47.9573 141.581 47.839 141.47C47.723 141.359 47.665 141.225 47.665 141.069C47.665 140.912 47.723 140.779 47.839 140.667C47.9573 140.556 48.0982 140.5 48.2615 140.5C48.4249 140.5 48.5646 140.556 48.6806 140.667C48.7989 140.779 48.8581 140.912 48.8581 141.069C48.8581 141.225 48.7989 141.359 48.6806 141.47C48.5646 141.581 48.4249 141.637 48.2615 141.637ZM50.2085 148V142.546H51.0181V143.398H51.0891C51.2028 143.107 51.3862 142.881 51.6396 142.72C51.8929 142.557 52.1971 142.475 52.5522 142.475C52.9121 142.475 53.2115 142.557 53.4506 142.72C53.6921 142.881 53.8803 143.107 54.0153 143.398H54.0721C54.2118 143.116 54.4213 142.893 54.7006 142.727C54.98 142.559 55.315 142.475 55.7056 142.475C56.1933 142.475 56.5922 142.628 56.9023 142.933C57.2125 143.236 57.3675 143.708 57.3675 144.35V148H56.5295V144.35C56.5295 143.947 56.4194 143.66 56.1992 143.487C55.979 143.314 55.7198 143.228 55.4215 143.228C55.038 143.228 54.7409 143.344 54.5302 143.576C54.3195 143.805 54.2141 144.097 54.2141 144.449V148H53.3619V144.265C53.3619 143.954 53.2612 143.705 53.06 143.515C52.8588 143.324 52.5996 143.228 52.2823 143.228C52.0645 143.228 51.8609 143.286 51.6715 143.402C51.4845 143.518 51.333 143.679 51.217 143.885C51.1033 144.088 51.0465 144.324 51.0465 144.591V148H50.2085ZM61.1868 148.114C60.6612 148.114 60.2079 147.998 59.8267 147.766C59.4479 147.532 59.1555 147.205 58.9496 146.786C58.746 146.365 58.6442 145.874 58.6442 145.316C58.6442 144.757 58.746 144.265 58.9496 143.838C59.1555 143.41 59.442 143.076 59.8089 142.837C60.1783 142.596 60.6091 142.475 61.1016 142.475C61.3857 142.475 61.6662 142.522 61.9432 142.617C62.2202 142.712 62.4723 142.865 62.6996 143.079C62.9268 143.289 63.108 143.569 63.2429 143.917C63.3778 144.265 63.4453 144.693 63.4453 145.202V145.557H59.2408V144.833H62.593C62.593 144.525 62.5315 144.25 62.4084 144.009C62.2876 143.767 62.1148 143.577 61.8899 143.437C61.6674 143.298 61.4046 143.228 61.1016 143.228C60.7678 143.228 60.4789 143.311 60.2351 143.476C59.9936 143.64 59.8078 143.853 59.6776 144.115C59.5473 144.378 59.4822 144.66 59.4822 144.961V145.444C59.4822 145.856 59.5533 146.205 59.6953 146.491C59.8397 146.775 60.0398 146.992 60.2955 147.141C60.5511 147.288 60.8482 147.361 61.1868 147.361C61.407 147.361 61.6058 147.33 61.7834 147.269C61.9633 147.205 62.1184 147.11 62.2486 146.985C62.3788 146.857 62.4794 146.698 62.5504 146.509L63.3601 146.736C63.2749 147.011 63.1316 147.252 62.9304 147.461C62.7292 147.667 62.4806 147.828 62.1847 147.944C61.8887 148.057 61.5561 148.114 61.1868 148.114ZM64.7202 148V142.546H65.5582V148H64.7202ZM65.1463 141.637C64.983 141.637 64.8421 141.581 64.7237 141.47C64.6077 141.359 64.5497 141.225 64.5497 141.069C64.5497 140.912 64.6077 140.779 64.7237 140.667C64.8421 140.556 64.983 140.5 65.1463 140.5C65.3097 140.5 65.4493 140.556 65.5653 140.667C65.6837 140.779 65.7429 140.912 65.7429 141.069C65.7429 141.225 65.6837 141.359 65.5653 141.47C65.4493 141.581 65.3097 141.637 65.1463 141.637ZM67.0932 148V142.546H67.9029V143.37H67.9597C68.0591 143.1 68.2391 142.881 68.4995 142.713C68.7599 142.545 69.0534 142.461 69.3801 142.461C69.4417 142.461 69.5186 142.462 69.611 142.464C69.7033 142.467 69.7731 142.47 69.8205 142.475V143.327C69.7921 143.32 69.727 143.309 69.6252 143.295C69.5257 143.279 69.4204 143.27 69.3091 143.27C69.044 143.27 68.8072 143.326 68.5989 143.437C68.3929 143.546 68.2296 143.698 68.1088 143.892C67.9905 144.083 67.9313 144.302 67.9313 144.549V148H67.0932ZM72.8638 148.114C72.3714 148.114 71.9393 147.997 71.5676 147.762C71.1983 147.528 70.9095 147.2 70.7012 146.779C70.4952 146.357 70.3922 145.865 70.3922 145.302C70.3922 144.733 70.4952 144.237 70.7012 143.814C70.9095 143.39 71.1983 143.061 71.5676 142.826C71.9393 142.592 72.3714 142.475 72.8638 142.475C73.3562 142.475 73.7871 142.592 74.1564 142.826C74.5281 143.061 74.8169 143.39 75.0229 143.814C75.2312 144.237 75.3354 144.733 75.3354 145.302C75.3354 145.865 75.2312 146.357 75.0229 146.779C74.8169 147.2 74.5281 147.528 74.1564 147.762C73.7871 147.997 73.3562 148.114 72.8638 148.114ZM72.8638 147.361C73.2379 147.361 73.5456 147.265 73.7871 147.074C74.0286 146.882 74.2073 146.63 74.3233 146.317C74.4393 146.005 74.4973 145.666 74.4973 145.302C74.4973 144.937 74.4393 144.597 74.3233 144.282C74.2073 143.967 74.0286 143.713 73.7871 143.519C73.5456 143.325 73.2379 143.228 72.8638 143.228C72.4898 143.228 72.182 143.325 71.9405 143.519C71.699 143.713 71.5203 143.967 71.4043 144.282C71.2883 144.597 71.2303 144.937 71.2303 145.302C71.2303 145.666 71.2883 146.005 71.4043 146.317C71.5203 146.63 71.699 146.882 71.9405 147.074C72.182 147.265 72.4898 147.361 72.8638 147.361ZM83.2908 143.767L82.538 143.981C82.4906 143.855 82.4208 143.733 82.3285 143.615C82.2385 143.494 82.1154 143.395 81.9592 143.316C81.8029 143.238 81.6029 143.199 81.359 143.199C81.0252 143.199 80.747 143.276 80.5245 143.43C80.3043 143.582 80.1942 143.775 80.1942 144.009C80.1942 144.217 80.27 144.382 80.4215 144.503C80.573 144.623 80.8098 144.724 81.1317 144.804L81.9414 145.003C82.4291 145.122 82.7925 145.303 83.0316 145.547C83.2707 145.788 83.3903 146.099 83.3903 146.481C83.3903 146.793 83.3003 147.072 83.1204 147.319C82.9428 147.565 82.6942 147.759 82.3746 147.901C82.055 148.043 81.6834 148.114 81.2596 148.114C80.7032 148.114 80.2428 147.993 79.8782 147.752C79.5136 147.51 79.2828 147.158 79.1857 146.694L79.9812 146.495C80.0569 146.788 80.2002 147.008 80.4109 147.155C80.6239 147.302 80.9021 147.375 81.2454 147.375C81.636 147.375 81.9461 147.293 82.1758 147.127C82.4078 146.959 82.5238 146.757 82.5238 146.523C82.5238 146.334 82.4575 146.175 82.3249 146.047C82.1924 145.917 81.9888 145.82 81.7141 145.756L80.805 145.543C80.3055 145.425 79.9386 145.241 79.7042 144.993C79.4722 144.742 79.3562 144.428 79.3562 144.052C79.3562 143.744 79.4426 143.472 79.6154 143.235C79.7906 142.998 80.0285 142.812 80.3292 142.677C80.6322 142.542 80.9755 142.475 81.359 142.475C81.8988 142.475 82.3226 142.593 82.6303 142.83C82.9405 143.067 83.1606 143.379 83.2908 143.767ZM86.9387 148.114C86.4132 148.114 85.9598 147.998 85.5787 147.766C85.1999 147.532 84.9075 147.205 84.7015 146.786C84.4979 146.365 84.3961 145.874 84.3961 145.316C84.3961 144.757 84.4979 144.265 84.7015 143.838C84.9075 143.41 85.194 143.076 85.5609 142.837C85.9302 142.596 86.3611 142.475 86.8535 142.475C87.1376 142.475 87.4181 142.522 87.6951 142.617C87.9721 142.712 88.2243 142.865 88.4515 143.079C88.6788 143.289 88.8599 143.569 88.9949 143.917C89.1298 144.265 89.1973 144.693 89.1973 145.202V145.557H84.9927V144.833H88.345C88.345 144.525 88.2834 144.25 88.1603 144.009C88.0396 143.767 87.8668 143.577 87.6419 143.437C87.4193 143.298 87.1565 143.228 86.8535 143.228C86.5197 143.228 86.2309 143.311 85.987 143.476C85.7456 143.64 85.5597 143.853 85.4295 144.115C85.2993 144.378 85.2342 144.66 85.2342 144.961V145.444C85.2342 145.856 85.3052 146.205 85.4473 146.491C85.5917 146.775 85.7917 146.992 86.0474 147.141C86.3031 147.288 86.6002 147.361 86.9387 147.361C87.1589 147.361 87.3578 147.33 87.5353 147.269C87.7153 147.205 87.8703 147.11 88.0005 146.985C88.1307 146.857 88.2314 146.698 88.3024 146.509L89.112 146.736C89.0268 147.011 88.8836 147.252 88.6824 147.461C88.4811 147.667 88.2325 147.828 87.9366 147.944C87.6407 148.057 87.3081 148.114 86.9387 148.114ZM91.3102 140.728V148H90.4721V140.728H91.3102ZM95.1321 148.114C94.6065 148.114 94.1532 147.998 93.772 147.766C93.3932 147.532 93.1009 147.205 92.8949 146.786C92.6913 146.365 92.5895 145.874 92.5895 145.316C92.5895 144.757 92.6913 144.265 92.8949 143.838C93.1009 143.41 93.3873 143.076 93.7543 142.837C94.1236 142.596 94.5545 142.475 95.0469 142.475C95.331 142.475 95.6115 142.522 95.8885 142.617C96.1655 142.712 96.4176 142.865 96.6449 143.079C96.8722 143.289 97.0533 143.569 97.1882 143.917C97.3232 144.265 97.3906 144.693 97.3906 145.202V145.557H93.1861V144.833H96.5384C96.5384 144.525 96.4768 144.25 96.3537 144.009C96.233 143.767 96.0601 143.577 95.8352 143.437C95.6127 143.298 95.3499 143.228 95.0469 143.228C94.7131 143.228 94.4242 143.311 94.1804 143.476C93.9389 143.64 93.7531 143.853 93.6229 144.115C93.4927 144.378 93.4276 144.66 93.4276 144.961V145.444C93.4276 145.856 93.4986 146.205 93.6406 146.491C93.785 146.775 93.9851 146.992 94.2408 147.141C94.4964 147.288 94.7936 147.361 95.1321 147.361C95.3523 147.361 95.5511 147.33 95.7287 147.269C95.9086 147.205 96.0637 147.11 96.1939 146.985C96.3241 146.857 96.4247 146.698 96.4957 146.509L97.3054 146.736C97.2202 147.011 97.0769 147.252 96.8757 147.461C96.6745 147.667 96.4259 147.828 96.13 147.944C95.834 148.057 95.5014 148.114 95.1321 148.114ZM100.881 148.114C100.37 148.114 99.9297 147.993 99.5604 147.752C99.1911 147.51 98.907 147.178 98.7081 146.754C98.5092 146.33 98.4098 145.846 98.4098 145.302C98.4098 144.748 98.5116 144.259 98.7152 143.835C98.9212 143.409 99.2076 143.076 99.5746 142.837C99.9439 142.596 100.375 142.475 100.867 142.475C101.251 142.475 101.596 142.546 101.904 142.688C102.212 142.83 102.464 143.029 102.661 143.284C102.857 143.54 102.979 143.838 103.026 144.179H102.188C102.124 143.931 101.982 143.711 101.762 143.519C101.544 143.325 101.251 143.228 100.881 143.228C100.555 143.228 100.268 143.313 100.022 143.483C99.7782 143.651 99.5876 143.889 99.4503 144.197C99.3153 144.503 99.2479 144.861 99.2479 145.273C99.2479 145.695 99.3142 146.061 99.4467 146.374C99.5817 146.686 99.7711 146.929 100.015 147.102C100.261 147.275 100.55 147.361 100.881 147.361C101.099 147.361 101.297 147.323 101.474 147.248C101.652 147.172 101.802 147.063 101.925 146.921C102.049 146.779 102.136 146.608 102.188 146.409H103.026C102.979 146.731 102.862 147.021 102.675 147.28C102.49 147.535 102.245 147.739 101.94 147.89C101.637 148.039 101.284 148.114 100.881 148.114ZM104.251 148V142.546H105.089V148H104.251ZM104.678 141.637C104.514 141.637 104.373 141.581 104.255 141.47C104.139 141.359 104.081 141.225 104.081 141.069C104.081 140.912 104.139 140.779 104.255 140.667C104.373 140.556 104.514 140.5 104.678 140.5C104.841 140.5 104.981 140.556 105.097 140.667C105.215 140.779 105.274 140.912 105.274 141.069C105.274 141.225 105.215 141.359 105.097 141.47C104.981 141.581 104.841 141.637 104.678 141.637ZM108.84 148.114C108.348 148.114 107.916 147.997 107.544 147.762C107.175 147.528 106.886 147.2 106.678 146.779C106.472 146.357 106.369 145.865 106.369 145.302C106.369 144.733 106.472 144.237 106.678 143.814C106.886 143.39 107.175 143.061 107.544 142.826C107.916 142.592 108.348 142.475 108.84 142.475C109.333 142.475 109.764 142.592 110.133 142.826C110.505 143.061 110.794 143.39 110.999 143.814C111.208 144.237 111.312 144.733 111.312 145.302C111.312 145.865 111.208 146.357 110.999 146.779C110.794 147.2 110.505 147.528 110.133 147.762C109.764 147.997 109.333 148.114 108.84 148.114ZM108.84 147.361C109.214 147.361 109.522 147.265 109.764 147.074C110.005 146.882 110.184 146.63 110.3 146.317C110.416 146.005 110.474 145.666 110.474 145.302C110.474 144.937 110.416 144.597 110.3 144.282C110.184 143.967 110.005 143.713 109.764 143.519C109.522 143.325 109.214 143.228 108.84 143.228C108.466 143.228 108.159 143.325 107.917 143.519C107.676 143.713 107.497 143.967 107.381 144.282C107.265 144.597 107.207 144.937 107.207 145.302C107.207 145.666 107.265 146.005 107.381 146.317C107.497 146.63 107.676 146.882 107.917 147.074C108.159 147.265 108.466 147.361 108.84 147.361ZM113.429 144.719V148H112.591V142.546H113.401V143.398H113.472C113.6 143.121 113.794 142.899 114.054 142.731C114.315 142.56 114.651 142.475 115.063 142.475C115.432 142.475 115.755 142.551 116.032 142.702C116.309 142.851 116.525 143.079 116.679 143.384C116.833 143.687 116.909 144.07 116.909 144.534V148H116.071V144.591C116.071 144.163 115.96 143.829 115.738 143.59C115.515 143.348 115.21 143.228 114.821 143.228C114.554 143.228 114.315 143.286 114.104 143.402C113.896 143.518 113.731 143.687 113.61 143.909C113.49 144.132 113.429 144.402 113.429 144.719ZM120.728 148.114C120.202 148.114 119.749 147.998 119.368 147.766C118.989 147.532 118.697 147.205 118.491 146.786C118.287 146.365 118.185 145.874 118.185 145.316C118.185 144.757 118.287 144.265 118.491 143.838C118.697 143.41 118.983 143.076 119.35 142.837C119.719 142.596 120.15 142.475 120.643 142.475C120.927 142.475 121.207 142.522 121.484 142.617C121.761 142.712 122.013 142.865 122.241 143.079C122.468 143.289 122.649 143.569 122.784 143.917C122.919 144.265 122.986 144.693 122.986 145.202V145.557H118.782V144.833H122.134C122.134 144.525 122.073 144.25 121.949 144.009C121.829 143.767 121.656 143.577 121.431 143.437C121.208 143.298 120.946 143.228 120.643 143.228C120.309 143.228 120.02 143.311 119.776 143.476C119.535 143.64 119.349 143.853 119.219 144.115C119.088 144.378 119.023 144.66 119.023 144.961V145.444C119.023 145.856 119.094 146.205 119.236 146.491C119.381 146.775 119.581 146.992 119.836 147.141C120.092 147.288 120.389 147.361 120.728 147.361C120.948 147.361 121.147 147.33 121.324 147.269C121.504 147.205 121.659 147.11 121.79 146.985C121.92 146.857 122.02 146.698 122.091 146.509L122.901 146.736C122.816 147.011 122.673 147.252 122.471 147.461C122.27 147.667 122.022 147.828 121.726 147.944C121.43 148.057 121.097 148.114 120.728 148.114ZM129.29 148.114C128.797 148.114 128.365 147.997 127.993 147.762C127.624 147.528 127.335 147.2 127.127 146.779C126.921 146.357 126.818 145.865 126.818 145.302C126.818 144.733 126.921 144.237 127.127 143.814C127.335 143.39 127.624 143.061 127.993 142.826C128.365 142.592 128.797 142.475 129.29 142.475C129.782 142.475 130.213 142.592 130.582 142.826C130.954 143.061 131.243 143.39 131.449 143.814C131.657 144.237 131.761 144.733 131.761 145.302C131.761 145.865 131.657 146.357 131.449 146.779C131.243 147.2 130.954 147.528 130.582 147.762C130.213 147.997 129.782 148.114 129.29 148.114ZM129.29 147.361C129.664 147.361 129.971 147.265 130.213 147.074C130.454 146.882 130.633 146.63 130.749 146.317C130.865 146.005 130.923 145.666 130.923 145.302C130.923 144.937 130.865 144.597 130.749 144.282C130.633 143.967 130.454 143.713 130.213 143.519C129.971 143.325 129.664 143.228 129.29 143.228C128.916 143.228 128.608 143.325 128.366 143.519C128.125 143.713 127.946 143.967 127.83 144.282C127.714 144.597 127.656 144.937 127.656 145.302C127.656 145.666 127.714 146.005 127.83 146.317C127.946 146.63 128.125 146.882 128.366 147.074C128.608 147.265 128.916 147.361 129.29 147.361ZM67.3294 160.114C66.8038 160.114 66.3504 159.998 65.9693 159.766C65.5905 159.532 65.2981 159.205 65.0922 158.786C64.8886 158.365 64.7868 157.874 64.7868 157.316C64.7868 156.757 64.8886 156.265 65.0922 155.838C65.2981 155.41 65.5846 155.076 65.9515 154.837C66.3208 154.596 66.7517 154.475 67.2441 154.475C67.5282 154.475 67.8088 154.522 68.0858 154.617C68.3627 154.712 68.6149 154.865 68.8422 155.079C69.0694 155.289 69.2505 155.569 69.3855 155.917C69.5204 156.265 69.5879 156.693 69.5879 157.202V157.557H65.3833V156.833H68.7356C68.7356 156.525 68.6741 156.25 68.551 156.009C68.4302 155.767 68.2574 155.577 68.0325 155.437C67.81 155.298 67.5472 155.228 67.2441 155.228C66.9103 155.228 66.6215 155.311 66.3777 155.476C66.1362 155.64 65.9503 155.853 65.8201 156.115C65.6899 156.378 65.6248 156.66 65.6248 156.961V157.444C65.6248 157.856 65.6958 158.205 65.8379 158.491C65.9823 158.775 66.1824 158.992 66.438 159.141C66.6937 159.288 66.9908 159.361 67.3294 159.361C67.5495 159.361 67.7484 159.33 67.926 159.269C68.1059 159.205 68.2609 159.11 68.3912 158.985C68.5214 158.857 68.622 158.698 68.693 158.509L69.5027 158.736C69.4174 159.011 69.2742 159.252 69.073 159.461C68.8717 159.667 68.6232 159.828 68.3272 159.944C68.0313 160.057 67.6987 160.114 67.3294 160.114ZM75.9622 160.114C75.4366 160.114 74.9833 159.998 74.6021 159.766C74.2233 159.532 73.9309 159.205 73.725 158.786C73.5214 158.365 73.4196 157.874 73.4196 157.316C73.4196 156.757 73.5214 156.265 73.725 155.838C73.9309 155.41 74.2174 155.076 74.5843 154.837C74.9537 154.596 75.3845 154.475 75.877 154.475C76.161 154.475 76.4416 154.522 76.7186 154.617C76.9956 154.712 77.2477 154.865 77.475 155.079C77.7022 155.289 77.8833 155.569 78.0183 155.917C78.1532 156.265 78.2207 156.693 78.2207 157.202V157.557H74.0162V156.833H77.3684C77.3684 156.525 77.3069 156.25 77.1838 156.009C77.063 155.767 76.8902 155.577 76.6653 155.437C76.4428 155.298 76.18 155.228 75.877 155.228C75.5431 155.228 75.2543 155.311 75.0105 155.476C74.769 155.64 74.5832 155.853 74.4529 156.115C74.3227 156.378 74.2576 156.66 74.2576 156.961V157.444C74.2576 157.856 74.3287 158.205 74.4707 158.491C74.6151 158.775 74.8152 158.992 75.0708 159.141C75.3265 159.288 75.6236 159.361 75.9622 159.361C76.1824 159.361 76.3812 159.33 76.5588 159.269C76.7387 159.205 76.8938 159.11 77.024 158.985C77.1542 158.857 77.2548 158.698 77.3258 158.509L78.1355 158.736C78.0502 159.011 77.907 159.252 77.7058 159.461C77.5046 159.667 77.256 159.828 76.96 159.944C76.6641 160.057 76.3315 160.114 75.9622 160.114ZM79.4956 160V154.546H80.3052V155.398H80.3762C80.4899 155.107 80.6734 154.881 80.9267 154.72C81.18 154.557 81.4842 154.475 81.8393 154.475C82.1992 154.475 82.4986 154.557 82.7377 154.72C82.9792 154.881 83.1674 155.107 83.3024 155.398H83.3592C83.4989 155.116 83.7084 154.893 83.9877 154.727C84.2671 154.559 84.6021 154.475 84.9927 154.475C85.4804 154.475 85.8793 154.628 86.1895 154.933C86.4996 155.236 86.6547 155.708 86.6547 156.35V160H85.8166V156.35C85.8166 155.947 85.7065 155.66 85.4863 155.487C85.2662 155.314 85.0069 155.228 84.7086 155.228C84.3251 155.228 84.028 155.344 83.8173 155.576C83.6066 155.805 83.5012 156.097 83.5012 156.449V160H82.649V156.265C82.649 155.954 82.5484 155.705 82.3471 155.515C82.1459 155.324 81.8867 155.228 81.5694 155.228C81.3516 155.228 81.148 155.286 80.9586 155.402C80.7716 155.518 80.6201 155.679 80.5041 155.885C80.3904 156.088 80.3336 156.324 80.3336 156.591V160H79.4956ZM94.7211 162.046V159.162H94.65C94.5885 159.262 94.5009 159.387 94.3873 159.539C94.2736 159.688 94.1114 159.822 93.9007 159.94C93.69 160.056 93.4095 160.114 93.0591 160.114C92.6046 160.114 92.2033 159.999 91.8553 159.77C91.5073 159.538 91.235 159.211 91.0385 158.789C90.842 158.366 90.7438 157.865 90.7438 157.287C90.7438 156.714 90.842 156.217 91.0385 155.796C91.235 155.374 91.5085 155.049 91.8588 154.819C92.2092 154.59 92.6141 154.475 93.0733 154.475C93.4284 154.475 93.709 154.534 93.915 154.652C94.1233 154.768 94.2819 154.901 94.3908 155.05C94.5021 155.197 94.5885 155.318 94.65 155.412H94.7495V154.546H95.5591V162.046H94.7211ZM93.1728 159.361C93.5089 159.361 93.793 159.274 94.025 159.098C94.257 158.921 94.4334 158.676 94.5542 158.363C94.6749 158.048 94.7353 157.685 94.7353 157.273C94.7353 156.866 94.6761 156.51 94.5577 156.204C94.4393 155.896 94.2641 155.657 94.0321 155.487C93.8001 155.314 93.5137 155.228 93.1728 155.228C92.8176 155.228 92.5217 155.319 92.285 155.501C92.0506 155.681 91.8742 155.926 91.7559 156.236C91.6399 156.544 91.5819 156.89 91.5819 157.273C91.5819 157.661 91.641 158.014 91.7594 158.331C91.8801 158.646 92.0577 158.897 92.2921 159.084C92.5288 159.269 92.8224 159.361 93.1728 159.361ZM100.531 157.77V154.546H101.369V160H100.531V159.077H100.474C100.346 159.354 100.147 159.59 99.8773 159.784C99.6074 159.976 99.2665 160.071 98.8546 160.071C98.5137 160.071 98.2106 159.997 97.9455 159.848C97.6803 159.696 97.472 159.469 97.3205 159.166C97.169 158.86 97.0932 158.476 97.0932 158.012V154.546H97.9313V157.955C97.9313 158.353 98.0426 158.67 98.2651 158.907C98.49 159.143 98.7765 159.262 99.1245 159.262C99.3328 159.262 99.5447 159.208 99.7601 159.102C99.9779 158.995 100.16 158.832 100.307 158.612C100.456 158.392 100.531 158.111 100.531 157.77ZM104.509 160.128C104.163 160.128 103.85 160.063 103.568 159.933C103.286 159.8 103.062 159.61 102.897 159.361C102.731 159.11 102.648 158.807 102.648 158.452C102.648 158.14 102.71 157.886 102.833 157.692C102.956 157.496 103.12 157.342 103.326 157.231C103.532 157.119 103.76 157.036 104.008 156.982C104.259 156.925 104.511 156.88 104.765 156.847C105.096 156.804 105.365 156.772 105.571 156.751C105.779 156.727 105.931 156.688 106.025 156.634C106.122 156.579 106.171 156.485 106.171 156.35V156.321C106.171 155.971 106.075 155.699 105.883 155.505C105.694 155.311 105.406 155.213 105.02 155.213C104.62 155.213 104.306 155.301 104.079 155.476C103.852 155.651 103.692 155.838 103.6 156.037L102.804 155.753C102.946 155.422 103.136 155.164 103.373 154.979C103.612 154.792 103.872 154.662 104.154 154.588C104.438 154.513 104.717 154.475 104.992 154.475C105.167 154.475 105.368 154.496 105.596 154.539C105.825 154.579 106.047 154.663 106.26 154.791C106.475 154.919 106.654 155.112 106.796 155.37C106.938 155.628 107.009 155.973 107.009 156.407V160H106.171V159.262H106.128C106.071 159.38 105.977 159.507 105.844 159.642C105.712 159.777 105.535 159.891 105.315 159.986C105.095 160.081 104.826 160.128 104.509 160.128ZM104.637 159.375C104.968 159.375 105.248 159.31 105.475 159.18C105.704 159.05 105.877 158.882 105.993 158.676C106.112 158.47 106.171 158.253 106.171 158.026V157.259C106.135 157.302 106.057 157.341 105.936 157.376C105.818 157.409 105.681 157.439 105.525 157.465C105.371 157.489 105.22 157.51 105.074 157.529C104.929 157.545 104.812 157.56 104.722 157.571C104.504 157.6 104.301 157.646 104.111 157.71C103.924 157.771 103.773 157.865 103.657 157.99C103.543 158.114 103.486 158.282 103.486 158.495C103.486 158.786 103.594 159.006 103.809 159.155C104.027 159.302 104.303 159.375 104.637 159.375ZM109.377 152.728V160H108.539V152.728H109.377ZM42.2273 166.546L40.2102 172H39.358L37.3409 166.546H38.25L39.7557 170.892H39.8125L41.3182 166.546H42.2273ZM45.354 172.114C44.8616 172.114 44.4296 171.997 44.0579 171.762C43.6886 171.528 43.3997 171.2 43.1914 170.779C42.9854 170.357 42.8825 169.865 42.8825 169.302C42.8825 168.733 42.9854 168.237 43.1914 167.814C43.3997 167.39 43.6886 167.061 44.0579 166.826C44.4296 166.592 44.8616 166.475 45.354 166.475C45.8465 166.475 46.2773 166.592 46.6467 166.826C47.0183 167.061 47.3072 167.39 47.5131 167.814C47.7215 168.237 47.8256 168.733 47.8256 169.302C47.8256 169.865 47.7215 170.357 47.5131 170.779C47.3072 171.2 47.0183 171.528 46.6467 171.762C46.2773 171.997 45.8465 172.114 45.354 172.114ZM45.354 171.361C45.7281 171.361 46.0359 171.265 46.2773 171.074C46.5188 170.882 46.6976 170.63 46.8136 170.317C46.9296 170.005 46.9876 169.666 46.9876 169.302C46.9876 168.937 46.9296 168.597 46.8136 168.282C46.6976 167.967 46.5188 167.713 46.2773 167.519C46.0359 167.325 45.7281 167.228 45.354 167.228C44.98 167.228 44.6722 167.325 44.4308 167.519C44.1893 167.713 44.0105 167.967 43.8945 168.282C43.7785 168.597 43.7205 168.937 43.7205 169.302C43.7205 169.666 43.7785 170.005 43.8945 170.317C44.0105 170.63 44.1893 170.882 44.4308 171.074C44.6722 171.265 44.98 171.361 45.354 171.361ZM51.3208 172.114C50.8095 172.114 50.3691 171.993 49.9998 171.752C49.6305 171.51 49.3464 171.178 49.1475 170.754C48.9487 170.33 48.8493 169.846 48.8493 169.302C48.8493 168.748 48.9511 168.259 49.1547 167.835C49.3606 167.409 49.6471 167.076 50.014 166.837C50.3833 166.596 50.8142 166.475 51.3066 166.475C51.6902 166.475 52.0358 166.546 52.3436 166.688C52.6513 166.83 52.9035 167.029 53.1 167.284C53.2965 167.54 53.4184 167.838 53.4657 168.179H52.6277C52.5637 167.931 52.4217 167.711 52.2015 167.519C51.9837 167.325 51.6902 167.228 51.3208 167.228C50.9941 167.228 50.7077 167.313 50.4615 167.483C50.2176 167.651 50.027 167.889 49.8897 168.197C49.7548 168.503 49.6873 168.861 49.6873 169.273C49.6873 169.695 49.7536 170.061 49.8862 170.374C50.0211 170.686 50.2105 170.929 50.4544 171.102C50.7006 171.275 50.9894 171.361 51.3208 171.361C51.5386 171.361 51.7363 171.323 51.9139 171.248C52.0914 171.172 52.2418 171.063 52.3649 170.921C52.488 170.779 52.5756 170.608 52.6277 170.409H53.4657C53.4184 170.731 53.3012 171.021 53.1142 171.28C52.9295 171.535 52.6845 171.739 52.3791 171.89C52.0761 172.039 51.7233 172.114 51.3208 172.114ZM56.9778 172.114C56.4522 172.114 55.9989 171.998 55.6177 171.766C55.2389 171.532 54.9466 171.205 54.7406 170.786C54.537 170.365 54.4352 169.874 54.4352 169.316C54.4352 168.757 54.537 168.265 54.7406 167.838C54.9466 167.41 55.233 167.076 55.6 166.837C55.9693 166.596 56.4002 166.475 56.8926 166.475C57.1767 166.475 57.4572 166.522 57.7342 166.617C58.0112 166.712 58.2633 166.865 58.4906 167.079C58.7179 167.289 58.899 167.569 59.0339 167.917C59.1689 168.265 59.2363 168.693 59.2363 169.202V169.557H55.0318V168.833H58.3841C58.3841 168.525 58.3225 168.25 58.1994 168.009C58.0787 167.767 57.9058 167.577 57.6809 167.437C57.4584 167.298 57.1956 167.228 56.8926 167.228C56.5588 167.228 56.2699 167.311 56.0261 167.476C55.7846 167.64 55.5988 167.853 55.4686 168.115C55.3384 168.378 55.2733 168.66 55.2733 168.961V169.444C55.2733 169.856 55.3443 170.205 55.4863 170.491C55.6307 170.775 55.8308 170.992 56.0865 171.141C56.3422 171.288 56.6393 171.361 56.9778 171.361C57.198 171.361 57.3968 171.33 57.5744 171.269C57.7543 171.205 57.9094 171.11 58.0396 170.985C58.1698 170.857 58.2704 170.698 58.3414 170.509L59.1511 170.736C59.0659 171.011 58.9226 171.252 58.7214 171.461C58.5202 171.667 58.2716 171.828 57.9757 171.944C57.6797 172.057 57.3471 172.114 56.9778 172.114ZM57.5886 165.892L56.85 164.898L56.1113 165.892H55.3159V165.836L56.4664 164.358H57.2335L58.3841 165.836V165.892H57.5886ZM63.3237 174.046V166.546H64.1333V167.412H64.2328C64.2943 167.318 64.3796 167.197 64.4885 167.05C64.5997 166.901 64.7583 166.768 64.9643 166.652C65.1726 166.534 65.4544 166.475 65.8095 166.475C66.2688 166.475 66.6736 166.59 67.024 166.819C67.3743 167.049 67.6478 167.374 67.8443 167.796C68.0408 168.217 68.139 168.714 68.139 169.287C68.139 169.865 68.0408 170.366 67.8443 170.789C67.6478 171.211 67.3755 171.538 67.0275 171.77C66.6795 171.999 66.2782 172.114 65.8237 172.114C65.4733 172.114 65.1928 172.056 64.9821 171.94C64.7714 171.822 64.6092 171.688 64.4956 171.539C64.3819 171.387 64.2943 171.262 64.2328 171.162H64.1618V174.046H63.3237ZM64.1475 169.273C64.1475 169.685 64.2079 170.048 64.3287 170.363C64.4494 170.676 64.6258 170.921 64.8578 171.098C65.0898 171.274 65.3739 171.361 65.71 171.361C66.0604 171.361 66.3528 171.269 66.5872 171.084C66.8239 170.897 67.0015 170.646 67.1199 170.331C67.2406 170.014 67.301 169.661 67.301 169.273C67.301 168.89 67.2418 168.544 67.1234 168.236C67.0074 167.926 66.831 167.681 66.5943 167.501C66.3599 167.319 66.0652 167.228 65.71 167.228C65.3691 167.228 65.0827 167.314 64.8507 167.487C64.6187 167.657 64.4435 167.896 64.3251 168.204C64.2067 168.51 64.1475 168.866 64.1475 169.273ZM69.4174 172V166.546H70.2271V167.37H70.2839C70.3833 167.1 70.5633 166.881 70.8237 166.713C71.0841 166.545 71.3777 166.461 71.7044 166.461C71.7659 166.461 71.8429 166.462 71.9352 166.464C72.0275 166.467 72.0974 166.47 72.1447 166.475V167.327C72.1163 167.32 72.0512 167.309 71.9494 167.295C71.85 167.279 71.7446 167.27 71.6333 167.27C71.3682 167.27 71.1315 167.326 70.9231 167.437C70.7172 167.546 70.5538 167.698 70.4331 167.892C70.3147 168.083 70.2555 168.302 70.2555 168.549V172H69.4174ZM75.2591 172.114C74.7335 172.114 74.2801 171.998 73.899 171.766C73.5202 171.532 73.2278 171.205 73.0218 170.786C72.8182 170.365 72.7164 169.874 72.7164 169.316C72.7164 168.757 72.8182 168.265 73.0218 167.838C73.2278 167.41 73.5143 167.076 73.8812 166.837C74.2505 166.596 74.6814 166.475 75.1738 166.475C75.4579 166.475 75.7385 166.522 76.0154 166.617C76.2924 166.712 76.5446 166.865 76.7718 167.079C76.9991 167.289 77.1802 167.569 77.3152 167.917C77.4501 168.265 77.5176 168.693 77.5176 169.202V169.557H73.313V168.833H76.6653C76.6653 168.525 76.6038 168.25 76.4806 168.009C76.3599 167.767 76.1871 167.577 75.9622 167.437C75.7396 167.298 75.4769 167.228 75.1738 167.228C74.84 167.228 74.5512 167.311 74.3074 167.476C74.0659 167.64 73.88 167.853 73.7498 168.115C73.6196 168.378 73.5545 168.66 73.5545 168.961V169.444C73.5545 169.856 73.6255 170.205 73.7676 170.491C73.912 170.775 74.112 170.992 74.3677 171.141C74.6234 171.288 74.9205 171.361 75.2591 171.361C75.4792 171.361 75.6781 171.33 75.8556 171.269C76.0356 171.205 76.1906 171.11 76.3208 170.985C76.4511 170.857 76.5517 170.698 76.6227 170.509L77.4324 170.736C77.3471 171.011 77.2039 171.252 77.0027 171.461C76.8014 171.667 76.5529 171.828 76.2569 171.944C75.961 172.057 75.6284 172.114 75.2591 172.114ZM81.1646 166.546V167.256H78.3379V166.546H81.1646ZM79.1618 165.239H79.9998V170.438C79.9998 170.675 80.0342 170.852 80.1028 170.971C80.1738 171.087 80.2638 171.165 80.3727 171.205C80.484 171.243 80.6011 171.262 80.7243 171.262C80.8166 171.262 80.8923 171.257 80.9515 171.248C81.0107 171.236 81.0581 171.226 81.0936 171.219L81.264 171.972C81.2072 171.993 81.1279 172.015 81.0261 172.036C80.9243 172.06 80.7953 172.071 80.639 172.071C80.4023 172.071 80.1703 172.021 79.943 171.919C79.7181 171.817 79.5311 171.662 79.3819 171.454C79.2351 171.245 79.1618 170.982 79.1618 170.665V165.239ZM84.6536 172.114C84.128 172.114 83.6747 171.998 83.2935 171.766C82.9147 171.532 82.6223 171.205 82.4164 170.786C82.2128 170.365 82.111 169.874 82.111 169.316C82.111 168.757 82.2128 168.265 82.4164 167.838C82.6223 167.41 82.9088 167.076 83.2757 166.837C83.6451 166.596 84.0759 166.475 84.5684 166.475C84.8525 166.475 85.133 166.522 85.41 166.617C85.687 166.712 85.9391 166.865 86.1664 167.079C86.3936 167.289 86.5748 167.569 86.7097 167.917C86.8446 168.265 86.9121 168.693 86.9121 169.202V169.557H82.7076V168.833H86.0598C86.0598 168.525 85.9983 168.25 85.8752 168.009C85.7544 167.767 85.5816 167.577 85.3567 167.437C85.1342 167.298 84.8714 167.228 84.5684 167.228C84.2346 167.228 83.9457 167.311 83.7019 167.476C83.4604 167.64 83.2746 167.853 83.1444 168.115C83.0141 168.378 82.949 168.66 82.949 168.961V169.444C82.949 169.856 83.0201 170.205 83.1621 170.491C83.3065 170.775 83.5066 170.992 83.7623 171.141C84.0179 171.288 84.315 171.361 84.6536 171.361C84.8738 171.361 85.0726 171.33 85.2502 171.269C85.4301 171.205 85.5852 171.11 85.7154 170.985C85.8456 170.857 85.9462 170.698 86.0172 170.509L86.8269 170.736C86.7417 171.011 86.5984 171.252 86.3972 171.461C86.196 171.667 85.9474 171.828 85.6515 171.944C85.3555 172.057 85.0229 172.114 84.6536 172.114ZM89.025 168.719V172H88.187V166.546H88.9966V167.398H89.0676C89.1955 167.121 89.3896 166.899 89.65 166.731C89.9105 166.56 90.2466 166.475 90.6586 166.475C91.0279 166.475 91.351 166.551 91.628 166.702C91.905 166.851 92.1204 167.079 92.2743 167.384C92.4282 167.687 92.5051 168.07 92.5051 168.534V172H91.6671V168.591C91.6671 168.163 91.5558 167.829 91.3333 167.59C91.1107 167.348 90.8053 167.228 90.4171 167.228C90.1496 167.228 89.9105 167.286 89.6998 167.402C89.4914 167.518 89.3269 167.687 89.2061 167.909C89.0854 168.132 89.025 168.402 89.025 168.719ZM96.0962 172.114C95.6417 172.114 95.2404 171.999 94.8924 171.77C94.5444 171.538 94.2721 171.211 94.0756 170.789C93.8791 170.366 93.7809 169.865 93.7809 169.287C93.7809 168.714 93.8791 168.217 94.0756 167.796C94.2721 167.374 94.5456 167.049 94.896 166.819C95.2463 166.59 95.6512 166.475 96.1104 166.475C96.4656 166.475 96.7461 166.534 96.9521 166.652C97.1604 166.768 97.319 166.901 97.4279 167.05C97.5392 167.197 97.6256 167.318 97.6871 167.412H97.7582V164.728H98.5962V172H97.7866V171.162H97.6871C97.6256 171.262 97.538 171.387 97.4244 171.539C97.3107 171.688 97.1486 171.822 96.9379 171.94C96.7272 172.056 96.4466 172.114 96.0962 172.114ZM96.2099 171.361C96.546 171.361 96.8301 171.274 97.0621 171.098C97.2942 170.921 97.4705 170.676 97.5913 170.363C97.712 170.048 97.7724 169.685 97.7724 169.273C97.7724 168.866 97.7132 168.51 97.5948 168.204C97.4764 167.896 97.3013 167.657 97.0692 167.487C96.8372 167.314 96.5508 167.228 96.2099 167.228C95.8548 167.228 95.5588 167.319 95.3221 167.501C95.0877 167.681 94.9113 167.926 94.793 168.236C94.677 168.544 94.619 168.89 94.619 169.273C94.619 169.661 94.6781 170.014 94.7965 170.331C94.9173 170.646 95.0948 170.897 95.3292 171.084C95.5659 171.269 95.8595 171.361 96.2099 171.361ZM102.534 172.114C102.009 172.114 101.556 171.998 101.174 171.766C100.796 171.532 100.503 171.205 100.297 170.786C100.094 170.365 99.9918 169.874 99.9918 169.316C99.9918 168.757 100.094 168.265 100.297 167.838C100.503 167.41 100.79 167.076 101.157 166.837C101.526 166.596 101.957 166.475 102.449 166.475C102.733 166.475 103.014 166.522 103.291 166.617C103.568 166.712 103.82 166.865 104.047 167.079C104.275 167.289 104.456 167.569 104.591 167.917C104.725 168.265 104.793 168.693 104.793 169.202V169.557H100.588V168.833H103.941C103.941 168.525 103.879 168.25 103.756 168.009C103.635 167.767 103.462 167.577 103.238 167.437C103.015 167.298 102.752 167.228 102.449 167.228C102.115 167.228 101.827 167.311 101.583 167.476C101.341 167.64 101.155 167.853 101.025 168.115C100.895 168.378 100.83 168.66 100.83 168.961V169.444C100.83 169.856 100.901 170.205 101.043 170.491C101.187 170.775 101.387 170.992 101.643 171.141C101.899 171.288 102.196 171.361 102.534 171.361C102.755 171.361 102.953 171.33 103.131 171.269C103.311 171.205 103.466 171.11 103.596 170.985C103.726 170.857 103.827 170.698 103.898 170.509L104.708 170.736C104.623 171.011 104.479 171.252 104.278 171.461C104.077 171.667 103.828 171.828 103.532 171.944C103.236 172.057 102.904 172.114 102.534 172.114ZM110.485 172.128C110.14 172.128 109.826 172.063 109.544 171.933C109.263 171.8 109.039 171.61 108.873 171.361C108.708 171.11 108.625 170.807 108.625 170.452C108.625 170.14 108.686 169.886 108.809 169.692C108.932 169.496 109.097 169.342 109.303 169.231C109.509 169.119 109.736 169.036 109.985 168.982C110.236 168.925 110.488 168.88 110.741 168.847C111.073 168.804 111.341 168.772 111.547 168.751C111.756 168.727 111.907 168.688 112.002 168.634C112.099 168.579 112.147 168.485 112.147 168.35V168.321C112.147 167.971 112.051 167.699 111.86 167.505C111.67 167.311 111.383 167.213 110.997 167.213C110.597 167.213 110.283 167.301 110.056 167.476C109.828 167.651 109.669 167.838 109.576 168.037L108.781 167.753C108.923 167.422 109.112 167.164 109.349 166.979C109.588 166.792 109.849 166.662 110.13 166.588C110.414 166.513 110.694 166.475 110.968 166.475C111.144 166.475 111.345 166.496 111.572 166.539C111.802 166.579 112.023 166.663 112.236 166.791C112.452 166.919 112.63 167.112 112.772 167.37C112.914 167.628 112.985 167.973 112.985 168.407V172H112.147V171.262H112.105C112.048 171.38 111.953 171.507 111.821 171.642C111.688 171.777 111.512 171.891 111.292 171.986C111.071 172.081 110.803 172.128 110.485 172.128ZM110.613 171.375C110.945 171.375 111.224 171.31 111.451 171.18C111.681 171.05 111.854 170.882 111.97 170.676C112.088 170.47 112.147 170.253 112.147 170.026V169.259C112.112 169.302 112.034 169.341 111.913 169.376C111.795 169.409 111.657 169.439 111.501 169.465C111.347 169.489 111.197 169.51 111.05 169.529C110.906 169.545 110.788 169.56 110.699 169.571C110.481 169.6 110.277 169.646 110.088 169.71C109.901 169.771 109.749 169.865 109.633 169.99C109.52 170.114 109.463 170.282 109.463 170.495C109.463 170.786 109.57 171.006 109.786 171.155C110.004 171.302 110.279 171.375 110.613 171.375ZM114.515 174.046V166.546H115.325V167.412H115.424C115.486 167.318 115.571 167.197 115.68 167.05C115.791 166.901 115.95 166.768 116.156 166.652C116.364 166.534 116.646 166.475 117.001 166.475C117.46 166.475 117.865 166.59 118.215 166.819C118.566 167.049 118.839 167.374 119.036 167.796C119.232 168.217 119.33 168.714 119.33 169.287C119.33 169.865 119.232 170.366 119.036 170.789C118.839 171.211 118.567 171.538 118.219 171.77C117.871 171.999 117.47 172.114 117.015 172.114C116.665 172.114 116.384 172.056 116.173 171.94C115.963 171.822 115.801 171.688 115.687 171.539C115.573 171.387 115.486 171.262 115.424 171.162H115.353V174.046H114.515ZM115.339 169.273C115.339 169.685 115.399 170.048 115.52 170.363C115.641 170.676 115.817 170.921 116.049 171.098C116.281 171.274 116.565 171.361 116.901 171.361C117.252 171.361 117.544 171.269 117.779 171.084C118.015 170.897 118.193 170.646 118.311 170.331C118.432 170.014 118.492 169.661 118.492 169.273C118.492 168.89 118.433 168.544 118.315 168.236C118.199 167.926 118.022 167.681 117.786 167.501C117.551 167.319 117.257 167.228 116.901 167.228C116.561 167.228 116.274 167.314 116.042 167.487C115.81 167.657 115.635 167.896 115.517 168.204C115.398 168.51 115.339 168.866 115.339 169.273ZM122.825 172.114C122.332 172.114 121.9 171.997 121.529 171.762C121.159 171.528 120.87 171.2 120.662 170.779C120.456 170.357 120.353 169.865 120.353 169.302C120.353 168.733 120.456 168.237 120.662 167.814C120.87 167.39 121.159 167.061 121.529 166.826C121.9 166.592 122.332 166.475 122.825 166.475C123.317 166.475 123.748 166.592 124.117 166.826C124.489 167.061 124.778 167.39 124.984 167.814C125.192 168.237 125.296 168.733 125.296 169.302C125.296 169.865 125.192 170.357 124.984 170.779C124.778 171.2 124.489 171.528 124.117 171.762C123.748 171.997 123.317 172.114 122.825 172.114ZM122.825 171.361C123.199 171.361 123.507 171.265 123.748 171.074C123.99 170.882 124.168 170.63 124.284 170.317C124.4 170.005 124.458 169.666 124.458 169.302C124.458 168.937 124.4 168.597 124.284 168.282C124.168 167.967 123.99 167.713 123.748 167.519C123.507 167.325 123.199 167.228 122.825 167.228C122.451 167.228 122.143 167.325 121.901 167.519C121.66 167.713 121.481 167.967 121.365 168.282C121.249 168.597 121.191 168.937 121.191 169.302C121.191 169.666 121.249 170.005 121.365 170.317C121.481 170.63 121.66 170.882 121.901 171.074C122.143 171.265 122.451 171.361 122.825 171.361ZM130.439 167.767L129.686 167.981C129.639 167.855 129.569 167.733 129.477 167.615C129.387 167.494 129.264 167.395 129.108 167.316C128.951 167.238 128.751 167.199 128.507 167.199C128.174 167.199 127.895 167.276 127.673 167.43C127.453 167.582 127.343 167.775 127.343 168.009C127.343 168.217 127.418 168.382 127.57 168.503C127.721 168.623 127.958 168.724 128.28 168.804L129.09 169.003C129.578 169.122 129.941 169.303 130.18 169.547C130.419 169.788 130.539 170.099 130.539 170.481C130.539 170.793 130.449 171.072 130.269 171.319C130.091 171.565 129.843 171.759 129.523 171.901C129.203 172.043 128.832 172.114 128.408 172.114C127.852 172.114 127.391 171.993 127.027 171.752C126.662 171.51 126.431 171.158 126.334 170.694L127.13 170.495C127.205 170.788 127.349 171.008 127.559 171.155C127.772 171.302 128.051 171.375 128.394 171.375C128.784 171.375 129.095 171.293 129.324 171.127C129.556 170.959 129.672 170.757 129.672 170.523C129.672 170.334 129.606 170.175 129.473 170.047C129.341 169.917 129.137 169.82 128.863 169.756L127.953 169.543C127.454 169.425 127.087 169.241 126.853 168.993C126.621 168.742 126.505 168.428 126.505 168.052C126.505 167.744 126.591 167.472 126.764 167.235C126.939 166.998 127.177 166.812 127.478 166.677C127.781 166.542 128.124 166.475 128.507 166.475C129.047 166.475 129.471 166.593 129.779 166.83C130.089 167.067 130.309 167.379 130.439 167.767ZM134.172 166.546V167.256H131.346V166.546H134.172ZM132.17 165.239H133.008V170.438C133.008 170.675 133.042 170.852 133.111 170.971C133.182 171.087 133.272 171.165 133.381 171.205C133.492 171.243 133.609 171.262 133.732 171.262C133.824 171.262 133.9 171.257 133.959 171.248C134.019 171.236 134.066 171.226 134.101 171.219L134.272 171.972C134.215 171.993 134.136 172.015 134.034 172.036C133.932 172.06 133.803 172.071 133.647 172.071C133.41 172.071 133.178 172.021 132.951 171.919C132.726 171.817 132.539 171.662 132.39 171.454C132.243 171.245 132.17 170.982 132.17 170.665V165.239ZM137.038 172.128C136.693 172.128 136.379 172.063 136.097 171.933C135.815 171.8 135.592 171.61 135.426 171.361C135.26 171.11 135.177 170.807 135.177 170.452C135.177 170.14 135.239 169.886 135.362 169.692C135.485 169.496 135.65 169.342 135.856 169.231C136.062 169.119 136.289 169.036 136.537 168.982C136.788 168.925 137.041 168.88 137.294 168.847C137.625 168.804 137.894 168.772 138.1 168.751C138.308 168.727 138.46 168.688 138.555 168.634C138.652 168.579 138.7 168.485 138.7 168.35V168.321C138.7 167.971 138.604 167.699 138.412 167.505C138.223 167.311 137.935 167.213 137.55 167.213C137.149 167.213 136.836 167.301 136.608 167.476C136.381 167.651 136.221 167.838 136.129 168.037L135.334 167.753C135.476 167.422 135.665 167.164 135.902 166.979C136.141 166.792 136.401 166.662 136.683 166.588C136.967 166.513 137.247 166.475 137.521 166.475C137.696 166.475 137.898 166.496 138.125 166.539C138.354 166.579 138.576 166.663 138.789 166.791C139.004 166.919 139.183 167.112 139.325 167.37C139.467 167.628 139.538 167.973 139.538 168.407V172H138.7V171.262H138.657C138.601 171.38 138.506 171.507 138.373 171.642C138.241 171.777 138.064 171.891 137.844 171.986C137.624 172.081 137.355 172.128 137.038 172.128ZM137.166 171.375C137.497 171.375 137.777 171.31 138.004 171.18C138.234 171.05 138.407 170.882 138.523 170.676C138.641 170.47 138.7 170.253 138.7 170.026V169.259C138.665 169.302 138.586 169.341 138.466 169.376C138.347 169.409 138.21 169.439 138.054 169.465C137.9 169.489 137.75 169.51 137.603 169.529C137.458 169.545 137.341 169.56 137.251 169.571C137.033 169.6 136.83 169.646 136.64 169.71C136.453 169.771 136.302 169.865 136.186 169.99C136.072 170.114 136.015 170.282 136.015 170.495C136.015 170.786 136.123 171.006 136.339 171.155C136.556 171.302 136.832 171.375 137.166 171.375ZM141.068 172V166.546H141.877V167.37H141.934C142.034 167.1 142.214 166.881 142.474 166.713C142.734 166.545 143.028 166.461 143.355 166.461C143.416 166.461 143.493 166.462 143.586 166.464C143.678 166.467 143.748 166.47 143.795 166.475V167.327C143.767 167.32 143.702 167.309 143.6 167.295C143.5 167.279 143.395 167.27 143.284 167.27C143.019 167.27 142.782 167.326 142.574 167.437C142.368 167.546 142.204 167.698 142.083 167.892C141.965 168.083 141.906 168.302 141.906 168.549V172H141.068Z" fill="white"/>
<path d="M42.6889 154.546L40.782 160H39.0774L37.1705 154.546H38.7685L39.9013 158.449H39.9581L41.0874 154.546H42.6889ZM44.872 160.103C44.524 160.103 44.2138 160.043 43.9416 159.922C43.6693 159.799 43.4539 159.618 43.2953 159.379C43.139 159.137 43.0609 158.837 43.0609 158.477C43.0609 158.174 43.1165 157.919 43.2278 157.713C43.3391 157.507 43.4906 157.342 43.6824 157.216C43.8741 157.091 44.0919 156.996 44.3358 156.932C44.582 156.868 44.84 156.823 45.1099 156.797C45.4271 156.764 45.6828 156.733 45.877 156.705C46.0711 156.674 46.2119 156.629 46.2995 156.57C46.3871 156.511 46.4309 156.423 46.4309 156.307V156.286C46.4309 156.061 46.3599 155.887 46.2179 155.764C46.0782 155.641 45.8793 155.579 45.6213 155.579C45.349 155.579 45.1324 155.64 44.9714 155.76C44.8104 155.879 44.7039 156.028 44.6518 156.208L43.2527 156.094C43.3237 155.763 43.4634 155.476 43.6717 155.235C43.88 154.991 44.1487 154.804 44.4778 154.674C44.8092 154.541 45.1928 154.475 45.6284 154.475C45.9314 154.475 46.2214 154.51 46.4984 154.581C46.7778 154.652 47.0252 154.762 47.2406 154.912C47.4584 155.061 47.63 155.253 47.7555 155.487C47.881 155.719 47.9437 155.997 47.9437 156.321V160H46.5091V159.244H46.4664C46.3788 159.414 46.2617 159.565 46.1149 159.695C45.9681 159.823 45.7917 159.923 45.5858 159.997C45.3798 160.068 45.1419 160.103 44.872 160.103ZM45.3052 159.059C45.5278 159.059 45.7243 159.016 45.8947 158.928C46.0652 158.838 46.1989 158.717 46.296 158.566C46.3931 158.414 46.4416 158.243 46.4416 158.051V157.472C46.3942 157.503 46.3291 157.531 46.2463 157.557C46.1658 157.581 46.0746 157.603 45.9728 157.625C45.871 157.644 45.7692 157.661 45.6674 157.678C45.5656 157.692 45.4733 157.705 45.3904 157.717C45.2129 157.743 45.0578 157.784 44.9252 157.841C44.7927 157.898 44.6897 157.975 44.6163 158.072C44.5429 158.167 44.5062 158.285 44.5062 158.427C44.5062 158.633 44.5808 158.791 44.7299 158.9C44.8815 159.006 45.0732 159.059 45.3052 159.059ZM50.6301 152.728V160H49.1174V152.728H50.6301ZM54.3065 160.107C53.7549 160.107 53.2778 159.99 52.8754 159.755C52.4753 159.519 52.1663 159.19 51.9485 158.768C51.7307 158.344 51.6218 157.853 51.6218 157.294C51.6218 156.731 51.7307 156.239 51.9485 155.817C52.1663 155.393 52.4753 155.064 52.8754 154.83C53.2778 154.593 53.7549 154.475 54.3065 154.475C54.8581 154.475 55.3339 154.593 55.734 154.83C56.1365 155.064 56.4466 155.393 56.6644 155.817C56.8822 156.239 56.9911 156.731 56.9911 157.294C56.9911 157.853 56.8822 158.344 56.6644 158.768C56.4466 159.19 56.1365 159.519 55.734 159.755C55.3339 159.99 54.8581 160.107 54.3065 160.107ZM54.3136 158.935C54.5645 158.935 54.774 158.864 54.9421 158.722C55.1102 158.578 55.2369 158.381 55.3221 158.132C55.4097 157.884 55.4535 157.601 55.4535 157.284C55.4535 156.967 55.4097 156.684 55.3221 156.435C55.2369 156.186 55.1102 155.99 54.9421 155.846C54.774 155.701 54.5645 155.629 54.3136 155.629C54.0603 155.629 53.8472 155.701 53.6744 155.846C53.5039 155.99 53.3749 156.186 53.2873 156.435C53.2021 156.684 53.1594 156.967 53.1594 157.284C53.1594 157.601 53.2021 157.884 53.2873 158.132C53.3749 158.381 53.5039 158.578 53.6744 158.722C53.8472 158.864 54.0603 158.935 54.3136 158.935ZM57.9748 160V154.546H59.4414V155.498H59.4982C59.5977 155.159 59.7646 154.903 59.9989 154.731C60.2333 154.555 60.5032 154.468 60.8086 154.468C60.8844 154.468 60.966 154.472 61.0536 154.482C61.1412 154.491 61.2182 154.504 61.2844 154.521V155.863C61.2134 155.842 61.1152 155.823 60.9897 155.807C60.8642 155.79 60.7494 155.782 60.6452 155.782C60.4227 155.782 60.2238 155.83 60.0487 155.927C59.8758 156.022 59.7385 156.155 59.6367 156.325C59.5373 156.495 59.4876 156.692 59.4876 156.914V160H57.9748ZM113.561 162.046V154.546H115.052V155.462H115.12C115.186 155.315 115.282 155.166 115.407 155.015C115.535 154.861 115.701 154.733 115.904 154.631C116.11 154.527 116.366 154.475 116.672 154.475C117.069 154.475 117.436 154.579 117.772 154.787C118.109 154.993 118.377 155.305 118.578 155.721C118.78 156.136 118.88 156.655 118.88 157.28C118.88 157.889 118.782 158.402 118.586 158.821C118.391 159.238 118.126 159.554 117.79 159.77C117.456 159.983 117.082 160.089 116.668 160.089C116.374 160.089 116.125 160.041 115.919 159.944C115.715 159.847 115.548 159.725 115.418 159.578C115.288 159.429 115.188 159.278 115.12 159.127H115.074V162.046H113.561ZM115.042 157.273C115.042 157.597 115.087 157.88 115.176 158.122C115.266 158.363 115.397 158.552 115.567 158.686C115.738 158.819 115.945 158.885 116.189 158.885C116.435 158.885 116.643 158.818 116.814 158.683C116.984 158.546 117.113 158.356 117.201 158.115C117.291 157.871 117.336 157.59 117.336 157.273C117.336 156.958 117.292 156.681 117.204 156.442C117.117 156.203 116.988 156.016 116.817 155.881C116.647 155.746 116.437 155.679 116.189 155.679C115.942 155.679 115.734 155.744 115.564 155.874C115.395 156.004 115.266 156.189 115.176 156.428C115.087 156.667 115.042 156.949 115.042 157.273ZM122.375 160.107C121.814 160.107 121.331 159.993 120.926 159.766C120.523 159.536 120.213 159.212 119.995 158.793C119.778 158.372 119.669 157.873 119.669 157.298C119.669 156.737 119.778 156.244 119.995 155.821C120.213 155.397 120.52 155.067 120.915 154.83C121.313 154.593 121.779 154.475 122.314 154.475C122.674 154.475 123.009 154.533 123.319 154.649C123.632 154.762 123.904 154.934 124.136 155.164C124.37 155.393 124.553 155.682 124.683 156.03C124.813 156.376 124.878 156.781 124.878 157.245V157.66H120.272V156.723H123.454C123.454 156.505 123.407 156.312 123.312 156.144C123.217 155.976 123.086 155.844 122.918 155.75C122.752 155.653 122.559 155.604 122.339 155.604C122.109 155.604 121.906 155.657 121.728 155.764C121.553 155.868 121.416 156.009 121.316 156.186C121.217 156.362 121.166 156.557 121.164 156.772V157.664C121.164 157.934 121.213 158.167 121.313 158.363C121.415 158.56 121.558 158.711 121.743 158.818C121.927 158.924 122.146 158.978 122.4 158.978C122.568 158.978 122.721 158.954 122.861 158.907C123.001 158.859 123.12 158.788 123.22 158.694C123.319 158.599 123.395 158.483 123.447 158.346L124.846 158.438C124.775 158.774 124.63 159.068 124.409 159.319C124.192 159.567 123.91 159.761 123.564 159.901C123.221 160.038 122.824 160.107 122.375 160.107ZM127.875 160.089C127.461 160.089 127.086 159.983 126.75 159.77C126.416 159.554 126.151 159.238 125.954 158.821C125.76 158.402 125.663 157.889 125.663 157.28C125.663 156.655 125.764 156.136 125.965 155.721C126.166 155.305 126.434 154.993 126.767 154.787C127.104 154.579 127.472 154.475 127.872 154.475C128.177 154.475 128.432 154.527 128.635 154.631C128.841 154.733 129.007 154.861 129.132 155.015C129.26 155.166 129.357 155.315 129.424 155.462H129.47V152.728H130.979V160H129.488V159.127H129.424C129.353 159.278 129.252 159.429 129.122 159.578C128.994 159.725 128.827 159.847 128.621 159.944C128.417 160.041 128.169 160.089 127.875 160.089ZM128.355 158.885C128.599 158.885 128.805 158.819 128.973 158.686C129.143 158.552 129.273 158.363 129.363 158.122C129.456 157.88 129.502 157.597 129.502 157.273C129.502 156.949 129.457 156.667 129.367 156.428C129.277 156.189 129.147 156.004 128.976 155.874C128.806 155.744 128.599 155.679 128.355 155.679C128.106 155.679 127.897 155.746 127.726 155.881C127.556 156.016 127.427 156.203 127.339 156.442C127.252 156.681 127.208 156.958 127.208 157.273C127.208 157.59 127.252 157.871 127.339 158.115C127.429 158.356 127.558 158.546 127.726 158.683C127.897 158.818 128.106 158.885 128.355 158.885ZM132.223 160V154.546H133.689V155.498H133.746C133.846 155.159 134.013 154.903 134.247 154.731C134.481 154.555 134.751 154.468 135.057 154.468C135.132 154.468 135.214 154.472 135.302 154.482C135.389 154.491 135.466 154.504 135.532 154.521V155.863C135.461 155.842 135.363 155.823 135.238 155.807C135.112 155.79 134.997 155.782 134.893 155.782C134.671 155.782 134.472 155.83 134.297 155.927C134.124 156.022 133.987 156.155 133.885 156.325C133.785 156.495 133.736 156.692 133.736 156.914V160H132.223ZM137.714 160.103C137.366 160.103 137.056 160.043 136.783 159.922C136.511 159.799 136.296 159.618 136.137 159.379C135.981 159.137 135.903 158.837 135.903 158.477C135.903 158.174 135.958 157.919 136.07 157.713C136.181 157.507 136.332 157.342 136.524 157.216C136.716 157.091 136.934 156.996 137.178 156.932C137.424 156.868 137.682 156.823 137.952 156.797C138.269 156.764 138.525 156.733 138.719 156.705C138.913 156.674 139.054 156.629 139.141 156.57C139.229 156.511 139.273 156.423 139.273 156.307V156.286C139.273 156.061 139.202 155.887 139.06 155.764C138.92 155.641 138.721 155.579 138.463 155.579C138.191 155.579 137.974 155.64 137.813 155.76C137.652 155.879 137.546 156.028 137.494 156.208L136.094 156.094C136.165 155.763 136.305 155.476 136.513 155.235C136.722 154.991 136.991 154.804 137.32 154.674C137.651 154.541 138.035 154.475 138.47 154.475C138.773 154.475 139.063 154.51 139.34 154.581C139.62 154.652 139.867 154.762 140.082 154.912C140.3 155.061 140.472 155.253 140.597 155.487C140.723 155.719 140.786 155.997 140.786 156.321V160H139.351V159.244H139.308C139.221 159.414 139.103 159.565 138.957 159.695C138.81 159.823 138.634 159.923 138.428 159.997C138.222 160.068 137.984 160.103 137.714 160.103ZM138.147 159.059C138.37 159.059 138.566 159.016 138.737 158.928C138.907 158.838 139.041 158.717 139.138 158.566C139.235 158.414 139.283 158.243 139.283 158.051V157.472C139.236 157.503 139.171 157.531 139.088 157.557C139.008 157.581 138.916 157.603 138.815 157.625C138.713 157.644 138.611 157.661 138.509 157.678C138.407 157.692 138.315 157.705 138.232 157.717C138.055 157.743 137.9 157.784 137.767 157.841C137.634 157.898 137.531 157.975 137.458 158.072C137.385 158.167 137.348 158.285 137.348 158.427C137.348 158.633 137.423 158.791 137.572 158.9C137.723 159.006 137.915 159.059 138.147 159.059Z" fill="#04D47C"/>
<path d="M25.9001 127.2L25.4501 126.6L25.4501 126.6L25.9001 127.2ZM63.8761 98.718L64.3261 99.318L64.3261 99.318L63.8761 98.718ZM69.0102 42.5996L69.5616 42.0912L69.0102 42.5996ZM32.5304 2.25062C32.1165 2.23382 31.7674 2.55571 31.7506 2.96958L31.4769 9.71403C31.4601 10.1279 31.7819 10.477 32.1958 10.4938C32.6097 10.5106 32.9588 10.1887 32.9756 9.77486L33.219 3.7798L39.214 4.02315C39.6279 4.03995 39.977 3.71806 39.9938 3.30418C40.0106 2.89031 39.6887 2.54118 39.2749 2.52438L32.5304 2.25062ZM26.3501 127.8L64.3261 99.318L63.4261 98.118L25.4501 126.6L26.3501 127.8ZM69.5616 42.0912L33.0514 2.49161L31.9486 3.50838L68.4588 43.1079L69.5616 42.0912ZM64.3261 99.318C82.6741 85.5569 85.108 58.9531 69.5616 42.0912L68.4588 43.1079C83.403 59.3167 81.0634 84.89 63.4261 98.118L64.3261 99.318ZM28.3531 153.839C18.3575 148.508 17.2874 134.597 26.3501 127.8L25.4501 126.6C15.5091 134.056 16.6829 149.315 27.6472 155.162L28.3531 153.839Z" fill="white"/>
<path d="M142.556 59.484L143.029 58.9013L143.029 58.9013L142.556 59.484ZM128.922 47.7545C128.51 47.7976 128.211 48.1666 128.254 48.5786L128.958 55.2918C129.001 55.7037 129.37 56.0027 129.782 55.9595C130.194 55.9163 130.493 55.5473 130.45 55.1354L129.824 49.1681L135.791 48.5425C136.203 48.4993 136.502 48.1303 136.459 47.7184C136.416 47.3064 136.047 47.0075 135.635 47.0507L128.922 47.7545ZM143.029 58.9013L129.472 47.9176L128.528 49.0831L142.084 60.0667L143.029 58.9013ZM147.525 154.036C174.75 127.35 172.649 82.9006 143.029 58.9013L142.084 60.0667C171.009 83.5018 173.06 126.906 146.475 152.965L147.525 154.036Z" fill="white"/>
</svg>
