<svg width="152" height="114" viewBox="0 0 152 114" fill="none" xmlns="http://www.w3.org/2000/svg">
<path d="M41.179 88H40.2557L42.9261 80.7272H43.8352L46.5057 88H45.5824L43.4091 81.8778H43.3523L41.179 88ZM41.5199 85.1591H45.2415V85.9403H41.5199V85.1591ZM51.2464 90.0454V87.1619H51.1754C51.1139 87.2613 51.0263 87.3868 50.9126 87.5383C50.799 87.6875 50.6368 87.8212 50.4261 87.9396C50.2154 88.0556 49.9349 88.1136 49.5845 88.1136C49.13 88.1136 48.7287 87.9988 48.3807 87.7691C48.0327 87.5371 47.7604 87.2104 47.5639 86.789C47.3674 86.3653 47.2692 85.8646 47.2692 85.2869C47.2692 84.714 47.3674 84.2168 47.5639 83.7954C47.7604 83.374 48.0339 83.0485 48.3842 82.8189C48.7346 82.5892 49.1394 82.4744 49.5987 82.4744C49.9538 82.4744 50.2344 82.5336 50.4403 82.652C50.6487 82.768 50.8073 82.9005 50.9162 83.0497C51.0275 83.1965 51.1139 83.3172 51.1754 83.4119H51.2749V82.5454H52.0845V90.0454H51.2464ZM49.6982 87.3608C50.0343 87.3608 50.3184 87.2732 50.5504 87.098C50.7824 86.9204 50.9588 86.6754 51.0795 86.3629C51.2003 86.048 51.2607 85.6846 51.2607 85.2727C51.2607 84.8655 51.2015 84.5092 51.0831 84.2038C50.9647 83.896 50.7895 83.6569 50.5575 83.4865C50.3255 83.3137 50.0391 83.2272 49.6982 83.2272C49.343 83.2272 49.0471 83.3184 48.8104 83.5007C48.576 83.6806 48.3996 83.9256 48.2813 84.2358C48.1652 84.5435 48.1072 84.8892 48.1072 85.2727C48.1072 85.661 48.1664 86.0137 48.2848 86.3309C48.4055 86.6458 48.5831 86.8967 48.8175 87.0838C49.0542 87.2684 49.3478 87.3608 49.6982 87.3608ZM57.0561 85.7699V82.5454H57.8942V88H57.0561V87.0767H56.9993C56.8715 87.3537 56.6726 87.5892 56.4027 87.7834C56.1328 87.9751 55.7919 88.071 55.38 88.071C55.0391 88.071 54.736 87.9964 54.4709 87.8473C54.2057 87.6958 53.9974 87.4685 53.8459 87.1655C53.6944 86.8601 53.6186 86.4753 53.6186 86.0113V82.5454H54.4567V85.9545C54.4567 86.3522 54.5679 86.6695 54.7905 86.9062C55.0154 87.143 55.3018 87.2613 55.6499 87.2613C55.8582 87.2613 56.0701 87.2081 56.2855 87.1015C56.5033 86.995 56.6856 86.8316 56.8324 86.6115C56.9815 86.3913 57.0561 86.1108 57.0561 85.7699ZM59.4292 88V82.5454H60.2672V88H59.4292ZM59.8553 81.6363C59.6919 81.6363 59.5511 81.5807 59.4327 81.4694C59.3167 81.3582 59.2587 81.2244 59.2587 81.0682C59.2587 80.9119 59.3167 80.7781 59.4327 80.6669C59.5511 80.5556 59.6919 80.5 59.8553 80.5C60.0186 80.5 60.1583 80.5556 60.2743 80.6669C60.3927 80.7781 60.4519 80.9119 60.4519 81.0682C60.4519 81.2244 60.3927 81.3582 60.2743 81.4694C60.1583 81.5807 60.0186 81.6363 59.8553 81.6363ZM69.0749 82.5454L67.0579 88H66.2056L64.1886 82.5454H65.0977L66.6033 86.892H66.6602L68.1658 82.5454H69.0749ZM72.2017 88.1136C71.7093 88.1136 71.2772 87.9964 70.9055 87.762C70.5362 87.5277 70.2474 87.1998 70.0391 86.7784C69.8331 86.357 69.7301 85.8646 69.7301 85.3011C69.7301 84.7329 69.8331 84.2369 70.0391 83.8132C70.2474 83.3894 70.5362 83.0603 70.9055 82.826C71.2772 82.5916 71.7093 82.4744 72.2017 82.4744C72.6941 82.4744 73.125 82.5916 73.4943 82.826C73.866 83.0603 74.1548 83.3894 74.3608 83.8132C74.5691 84.2369 74.6733 84.7329 74.6733 85.3011C74.6733 85.8646 74.5691 86.357 74.3608 86.7784C74.1548 87.1998 73.866 87.5277 73.4943 87.762C73.125 87.9964 72.6941 88.1136 72.2017 88.1136ZM72.2017 87.3608C72.5758 87.3608 72.8835 87.2649 73.125 87.0731C73.3665 86.8814 73.5452 86.6292 73.6612 86.3167C73.7772 86.0042 73.8352 85.6657 73.8352 85.3011C73.8352 84.9365 73.7772 84.5968 73.6612 84.2819C73.5452 83.9671 73.3665 83.7126 73.125 83.5184C72.8835 83.3243 72.5758 83.2272 72.2017 83.2272C71.8277 83.2272 71.5199 83.3243 71.2784 83.5184C71.0369 83.7126 70.8582 83.9671 70.7422 84.2819C70.6262 84.5968 70.5682 84.9365 70.5682 85.3011C70.5682 85.6657 70.6262 86.0042 70.7422 86.3167C70.8582 86.6292 71.0369 86.8814 71.2784 87.0731C71.5199 87.2649 71.8277 87.3608 72.2017 87.3608ZM78.1685 88.1136C77.6571 88.1136 77.2168 87.9929 76.8475 87.7514C76.4782 87.5099 76.1941 87.1773 75.9952 86.7535C75.7963 86.3298 75.6969 85.8456 75.6969 85.3011C75.6969 84.7471 75.7987 84.2583 76.0023 83.8345C76.2083 83.4083 76.4947 83.0757 76.8617 82.8366C77.231 82.5951 77.6619 82.4744 78.1543 82.4744C78.5378 82.4744 78.8835 82.5454 79.1912 82.6875C79.499 82.8295 79.7511 83.0284 79.9476 83.2841C80.1441 83.5397 80.266 83.838 80.3134 84.1789H79.4753C79.4114 83.9304 79.2694 83.7102 79.0492 83.5184C78.8314 83.3243 78.5378 83.2272 78.1685 83.2272C77.8418 83.2272 77.5553 83.3125 77.3091 83.4829C77.0653 83.651 76.8747 83.8889 76.7374 84.1967C76.6025 84.5021 76.535 84.8608 76.535 85.2727C76.535 85.6941 76.6013 86.061 76.7338 86.3735C76.8688 86.686 77.0582 86.9287 77.302 87.1015C77.5482 87.2744 77.8371 87.3608 78.1685 87.3608C78.3863 87.3608 78.584 87.3229 78.7615 87.2471C78.9391 87.1714 79.0894 87.0625 79.2125 86.9204C79.3356 86.7784 79.4232 86.6079 79.4753 86.4091H80.3134C80.266 86.731 80.1489 87.021 79.9618 87.2791C79.7772 87.5348 79.5321 87.7384 79.2267 87.8899C78.9237 88.039 78.571 88.1136 78.1685 88.1136ZM83.8255 88.1136C83.2999 88.1136 82.8465 87.9976 82.4654 87.7656C82.0866 87.5312 81.7942 87.2045 81.5882 86.7855C81.3847 86.3641 81.2829 85.874 81.2829 85.3153C81.2829 84.7566 81.3847 84.2642 81.5882 83.838C81.7942 83.4095 82.0807 83.0757 82.4476 82.8366C82.8169 82.5951 83.2478 82.4744 83.7402 82.4744C84.0243 82.4744 84.3049 82.5217 84.5819 82.6164C84.8588 82.7111 85.111 82.865 85.3383 83.0781C85.5655 83.2888 85.7466 83.5682 85.8816 83.9162C86.0165 84.2642 86.084 84.6927 86.084 85.2017V85.5568H81.8794V84.8324H85.2317C85.2317 84.5246 85.1702 84.25 85.0471 84.0085C84.9263 83.767 84.7535 83.5764 84.5286 83.4368C84.3061 83.2971 84.0433 83.2272 83.7402 83.2272C83.4064 83.2272 83.1176 83.3101 82.8738 83.4758C82.6323 83.6392 82.4464 83.8522 82.3162 84.115C82.186 84.3778 82.1209 84.6595 82.1209 84.9602V85.4432C82.1209 85.8551 82.1919 86.2043 82.334 86.4907C82.4784 86.7748 82.6784 86.9914 82.9341 87.1406C83.1898 87.2874 83.4869 87.3608 83.8255 87.3608C84.0456 87.3608 84.2445 87.33 84.4221 87.2684C84.602 87.2045 84.757 87.1098 84.8873 86.9843C85.0175 86.8565 85.1181 86.6979 85.1891 86.5085L85.9988 86.7358C85.9135 87.0104 85.7703 87.2519 85.5691 87.4602C85.3678 87.6662 85.1193 87.8271 84.8233 87.9432C84.5274 88.0568 84.1948 88.1136 83.8255 88.1136ZM84.4363 81.892L83.6976 80.8977L82.959 81.892H82.1635V81.8352L83.3141 80.3579H84.0811L85.2317 81.8352V81.892H84.4363ZM94.6316 82.5454L92.6145 88H91.7623L89.7452 82.5454H90.6543L92.16 86.892H92.2168L93.7225 82.5454H94.6316ZM97.8294 88.1136C97.3038 88.1136 96.8504 87.9976 96.4693 87.7656C96.0905 87.5312 95.7981 87.2045 95.5922 86.7855C95.3886 86.3641 95.2868 85.874 95.2868 85.3153C95.2868 84.7566 95.3886 84.2642 95.5922 83.838C95.7981 83.4095 96.0846 83.0757 96.4515 82.8366C96.8208 82.5951 97.2517 82.4744 97.7441 82.4744C98.0282 82.4744 98.3088 82.5217 98.5858 82.6164C98.8628 82.7111 99.1149 82.865 99.3422 83.0781C99.5694 83.2888 99.7505 83.5682 99.8855 83.9162C100.02 84.2642 100.088 84.6927 100.088 85.2017V85.5568H95.8833V84.8324H99.2356C99.2356 84.5246 99.1741 84.25 99.051 84.0085C98.9302 83.767 98.7574 83.5764 98.5325 83.4368C98.31 83.2971 98.0472 83.2272 97.7441 83.2272C97.4103 83.2272 97.1215 83.3101 96.8777 83.4758C96.6362 83.6392 96.4503 83.8522 96.3201 84.115C96.1899 84.3778 96.1248 84.6595 96.1248 84.9602V85.4432C96.1248 85.8551 96.1958 86.2043 96.3379 86.4907C96.4823 86.7748 96.6824 86.9914 96.938 87.1406C97.1937 87.2874 97.4908 87.3608 97.8294 87.3608C98.0495 87.3608 98.2484 87.33 98.426 87.2684C98.6059 87.2045 98.761 87.1098 98.8912 86.9843C99.0214 86.8565 99.122 86.6979 99.193 86.5085L100.003 86.7358C99.9174 87.0104 99.7742 87.2519 99.573 87.4602C99.3717 87.6662 99.1232 87.8271 98.8272 87.9432C98.5313 88.0568 98.1987 88.1136 97.8294 88.1136ZM98.4402 81.892L97.7015 80.8977L96.9629 81.892H96.1674V81.8352L97.318 80.3579H98.0851L99.2356 81.8352V81.892H98.4402ZM106.391 88.1136C105.899 88.1136 105.467 87.9964 105.095 87.762C104.726 87.5277 104.437 87.1998 104.229 86.7784C104.023 86.357 103.92 85.8646 103.92 85.3011C103.92 84.7329 104.023 84.2369 104.229 83.8132C104.437 83.3894 104.726 83.0603 105.095 82.826C105.467 82.5916 105.899 82.4744 106.391 82.4744C106.884 82.4744 107.314 82.5916 107.684 82.826C108.055 83.0603 108.344 83.3894 108.55 83.8132C108.759 84.2369 108.863 84.7329 108.863 85.3011C108.863 85.8646 108.759 86.357 108.55 86.7784C108.344 87.1998 108.055 87.5277 107.684 87.762C107.314 87.9964 106.884 88.1136 106.391 88.1136ZM106.391 87.3608C106.765 87.3608 107.073 87.2649 107.314 87.0731C107.556 86.8814 107.735 86.6292 107.851 86.3167C107.967 86.0042 108.025 85.6657 108.025 85.3011C108.025 84.9365 107.967 84.5968 107.851 84.2819C107.735 83.9671 107.556 83.7126 107.314 83.5184C107.073 83.3243 106.765 83.2272 106.391 83.2272C106.017 83.2272 105.709 83.3243 105.468 83.5184C105.226 83.7126 105.048 83.9671 104.932 84.2819C104.816 84.5968 104.758 84.9365 104.758 85.3011C104.758 85.6657 104.816 86.0042 104.932 86.3167C105.048 86.6292 105.226 86.8814 105.468 87.0731C105.709 87.2649 106.017 87.3608 106.391 87.3608ZM117.415 82.5454L115.398 88H114.545L112.528 82.5454H113.438L114.943 86.892H115L116.506 82.5454H117.415ZM119.96 88.1278C119.614 88.1278 119.301 88.0627 119.019 87.9325C118.737 87.7999 118.514 87.6093 118.348 87.3608C118.182 87.1098 118.099 86.8068 118.099 86.4517C118.099 86.1392 118.161 85.8859 118.284 85.6917C118.407 85.4952 118.572 85.3414 118.778 85.2301C118.983 85.1188 119.211 85.036 119.459 84.9815C119.71 84.9247 119.962 84.8797 120.216 84.8466C120.547 84.8039 120.816 84.772 121.022 84.7507C121.23 84.727 121.382 84.6879 121.476 84.6335C121.573 84.579 121.622 84.4843 121.622 84.3494V84.321C121.622 83.9706 121.526 83.6984 121.334 83.5042C121.145 83.3101 120.857 83.213 120.471 83.213C120.071 83.213 119.758 83.3006 119.53 83.4758C119.303 83.651 119.143 83.838 119.051 84.0369L118.256 83.7528C118.398 83.4214 118.587 83.1633 118.824 82.9787C119.063 82.7916 119.323 82.6614 119.605 82.588C119.889 82.5123 120.168 82.4744 120.443 82.4744C120.618 82.4744 120.819 82.4957 121.047 82.5383C121.276 82.5786 121.498 82.6626 121.711 82.7905C121.926 82.9183 122.105 83.1112 122.247 83.3693C122.389 83.6273 122.46 83.973 122.46 84.4062V88H121.622V87.2613H121.579C121.523 87.3797 121.428 87.5064 121.295 87.6413C121.163 87.7762 120.986 87.8911 120.766 87.9858C120.546 88.0805 120.277 88.1278 119.96 88.1278ZM120.088 87.375C120.419 87.375 120.699 87.3099 120.926 87.1797C121.156 87.0494 121.328 86.8814 121.444 86.6754C121.563 86.4694 121.622 86.2528 121.622 86.0255V85.2585C121.586 85.3011 121.508 85.3402 121.388 85.3757C121.269 85.4088 121.132 85.4384 120.976 85.4645C120.822 85.4881 120.671 85.5094 120.525 85.5284C120.38 85.545 120.263 85.5592 120.173 85.571C119.955 85.5994 119.752 85.6456 119.562 85.7095C119.375 85.771 119.224 85.8646 119.108 85.99C118.994 86.1131 118.937 86.2812 118.937 86.4943C118.937 86.7855 119.045 87.0057 119.26 87.1548C119.478 87.3016 119.754 87.375 120.088 87.375ZM124.828 80.7272V88H123.99V80.7272H124.828ZM128.579 88.1136C128.086 88.1136 127.654 87.9964 127.283 87.762C126.913 87.5277 126.624 87.1998 126.416 86.7784C126.21 86.357 126.107 85.8646 126.107 85.3011C126.107 84.7329 126.21 84.2369 126.416 83.8132C126.624 83.3894 126.913 83.0603 127.283 82.826C127.654 82.5916 128.086 82.4744 128.579 82.4744C129.071 82.4744 129.502 82.5916 129.871 82.826C130.243 83.0603 130.532 83.3894 130.738 83.8132C130.946 84.2369 131.05 84.7329 131.05 85.3011C131.05 85.8646 130.946 86.357 130.738 86.7784C130.532 87.1998 130.243 87.5277 129.871 87.762C129.502 87.9964 129.071 88.1136 128.579 88.1136ZM128.579 87.3608C128.953 87.3608 129.26 87.2649 129.502 87.0731C129.743 86.8814 129.922 86.6292 130.038 86.3167C130.154 86.0042 130.212 85.6657 130.212 85.3011C130.212 84.9365 130.154 84.5968 130.038 84.2819C129.922 83.9671 129.743 83.7126 129.502 83.5184C129.26 83.3243 128.953 83.2272 128.579 83.2272C128.205 83.2272 127.897 83.3243 127.655 83.5184C127.414 83.7126 127.235 83.9671 127.119 84.2819C127.003 84.5968 126.945 84.9365 126.945 85.3011C126.945 85.6657 127.003 86.0042 127.119 86.3167C127.235 86.6292 127.414 86.8814 127.655 87.0731C127.897 87.2649 128.205 87.3608 128.579 87.3608ZM132.33 88V82.5454H133.139V83.3693H133.196C133.295 83.0994 133.475 82.8804 133.736 82.7123C133.996 82.5442 134.29 82.4602 134.616 82.4602C134.678 82.4602 134.755 82.4614 134.847 82.4637C134.94 82.4661 135.009 82.4697 135.057 82.4744V83.3267C135.028 83.3196 134.963 83.3089 134.862 83.2947C134.762 83.2781 134.657 83.2699 134.545 83.2699C134.28 83.2699 134.044 83.3255 133.835 83.4368C133.629 83.5457 133.466 83.6972 133.345 83.8913C133.227 84.0831 133.168 84.3021 133.168 84.5483V88H132.33ZM141.15 88.1136C140.624 88.1136 140.171 87.9976 139.79 87.7656C139.411 87.5312 139.118 87.2045 138.912 86.7855C138.709 86.3641 138.607 85.874 138.607 85.3153C138.607 84.7566 138.709 84.2642 138.912 83.838C139.118 83.4095 139.405 83.0757 139.772 82.8366C140.141 82.5951 140.572 82.4744 141.064 82.4744C141.349 82.4744 141.629 82.5217 141.906 82.6164C142.183 82.7111 142.435 82.865 142.662 83.0781C142.89 83.2888 143.071 83.5682 143.206 83.9162C143.341 84.2642 143.408 84.6927 143.408 85.2017V85.5568H139.204V84.8324H142.556C142.556 84.5246 142.494 84.25 142.371 84.0085C142.251 83.767 142.078 83.5764 141.853 83.4368C141.63 83.2971 141.367 83.2272 141.064 83.2272C140.731 83.2272 140.442 83.3101 140.198 83.4758C139.957 83.6392 139.771 83.8522 139.64 84.115C139.51 84.3778 139.445 84.6595 139.445 84.9602V85.4432C139.445 85.8551 139.516 86.2043 139.658 86.4907C139.803 86.7748 140.003 86.9914 140.258 87.1406C140.514 87.2874 140.811 87.3608 141.15 87.3608C141.37 87.3608 141.569 87.33 141.746 87.2684C141.926 87.2045 142.081 87.1098 142.211 86.9843C142.342 86.8565 142.442 86.6979 142.513 86.5085L143.323 86.7358C143.238 87.0104 143.095 87.2519 142.893 87.4602C142.692 87.6662 142.443 87.8271 142.148 87.9432C141.852 88.0568 141.519 88.1136 141.15 88.1136ZM42.3722 100.128C42.0265 100.128 41.7128 100.063 41.4311 99.9325C41.1494 99.7999 40.9257 99.6093 40.7599 99.3608C40.5942 99.1098 40.5114 98.8068 40.5114 98.4517C40.5114 98.1392 40.5729 97.8859 40.696 97.6917C40.8191 97.4952 40.9837 97.3414 41.1896 97.2301C41.3956 97.1188 41.6229 97.036 41.8714 96.9815C42.1224 96.9247 42.3745 96.8797 42.6278 96.8466C42.9593 96.8039 43.228 96.772 43.4339 96.7507C43.6423 96.727 43.7938 96.6879 43.8885 96.6335C43.9856 96.579 44.0341 96.4843 44.0341 96.3494V96.321C44.0341 95.9706 43.9382 95.6984 43.7464 95.5042C43.5571 95.3101 43.2694 95.213 42.8835 95.213C42.4834 95.213 42.1697 95.3006 41.9425 95.4758C41.7152 95.651 41.5554 95.838 41.4631 96.0369L40.6676 95.7528C40.8097 95.4214 40.9991 95.1633 41.2358 94.9787C41.4749 94.7916 41.7353 94.6614 42.017 94.588C42.3011 94.5123 42.5805 94.4744 42.8551 94.4744C43.0303 94.4744 43.2315 94.4957 43.4588 94.5383C43.6884 94.5786 43.9098 94.6626 44.1229 94.7905C44.3383 94.9183 44.517 95.1112 44.6591 95.3693C44.8011 95.6273 44.8722 95.973 44.8722 96.4062V100H44.0341V99.2613H43.9915C43.9347 99.3797 43.84 99.5064 43.7074 99.6413C43.5748 99.7762 43.3984 99.8911 43.1783 99.9858C42.9581 100.08 42.6894 100.128 42.3722 100.128ZM42.5 99.375C42.8314 99.375 43.1108 99.3099 43.3381 99.1797C43.5677 99.0494 43.7405 98.8814 43.8565 98.6754C43.9749 98.4694 44.0341 98.2528 44.0341 98.0255V97.2585C43.9986 97.3011 43.9205 97.3402 43.7997 97.3757C43.6813 97.4088 43.544 97.4384 43.3878 97.4645C43.2339 97.4881 43.0836 97.5094 42.9368 97.5284C42.7924 97.545 42.6752 97.5592 42.5852 97.571C42.3674 97.5994 42.1638 97.6456 41.9744 97.7095C41.7874 97.771 41.6359 97.8646 41.5199 97.99C41.4063 98.1131 41.3494 98.2812 41.3494 98.4943C41.3494 98.7855 41.4571 99.0057 41.6726 99.1548C41.8904 99.3016 42.1662 99.375 42.5 99.375ZM49.2143 102.045V94.5454H50.024V95.4119H50.1234C50.185 95.3172 50.2702 95.1965 50.3791 95.0497C50.4904 94.9005 50.649 94.768 50.8549 94.652C51.0633 94.5336 51.345 94.4744 51.7001 94.4744C52.1594 94.4744 52.5642 94.5892 52.9146 94.8189C53.265 95.0485 53.5384 95.374 53.7349 95.7954C53.9314 96.2168 54.0297 96.714 54.0297 97.2869C54.0297 97.8646 53.9314 98.3653 53.7349 98.789C53.5384 99.2104 53.2662 99.5371 52.9181 99.7691C52.5701 99.9988 52.1689 100.114 51.7143 100.114C51.3639 100.114 51.0834 100.056 50.8727 99.9396C50.662 99.8212 50.4998 99.6875 50.3862 99.5383C50.2726 99.3868 50.185 99.2613 50.1234 99.1619H50.0524V102.045H49.2143ZM50.0382 97.2727C50.0382 97.6846 50.0985 98.048 50.2193 98.3629C50.34 98.6754 50.5164 98.9204 50.7484 99.098C50.9804 99.2732 51.2645 99.3608 51.6007 99.3608C51.9511 99.3608 52.2434 99.2684 52.4778 99.0838C52.7145 98.8967 52.8921 98.6458 53.0105 98.3309C53.1312 98.0137 53.1916 97.661 53.1916 97.2727C53.1916 96.8892 53.1324 96.5435 53.014 96.2358C52.898 95.9256 52.7217 95.6806 52.4849 95.5007C52.2505 95.3184 51.9558 95.2272 51.6007 95.2272C51.2598 95.2272 50.9733 95.3137 50.7413 95.4865C50.5093 95.6569 50.3341 95.896 50.2157 96.2038C50.0974 96.5092 50.0382 96.8655 50.0382 97.2727ZM57.595 100.114C57.0694 100.114 56.6161 99.9976 56.2349 99.7656C55.8561 99.5312 55.5637 99.2045 55.3578 98.7855C55.1542 98.3641 55.0524 97.874 55.0524 97.3153C55.0524 96.7566 55.1542 96.2642 55.3578 95.838C55.5637 95.4095 55.8502 95.0757 56.2172 94.8366C56.5865 94.5951 57.0173 94.4744 57.5098 94.4744C57.7939 94.4744 58.0744 94.5217 58.3514 94.6164C58.6284 94.7111 58.8805 94.865 59.1078 95.0781C59.3351 95.2888 59.5162 95.5682 59.6511 95.9162C59.786 96.2642 59.8535 96.6927 59.8535 97.2017V97.5568H55.649V96.8324H59.0012C59.0012 96.5246 58.9397 96.25 58.8166 96.0085C58.6958 95.767 58.523 95.5764 58.2981 95.4368C58.0756 95.2971 57.8128 95.2272 57.5098 95.2272C57.176 95.2272 56.8871 95.3101 56.6433 95.4758C56.4018 95.6392 56.216 95.8522 56.0858 96.115C55.9556 96.3778 55.8904 96.6595 55.8904 96.9602V97.4432C55.8904 97.8551 55.9615 98.2043 56.1035 98.4907C56.2479 98.7748 56.448 98.9914 56.7037 99.1406C56.9593 99.2874 57.2565 99.3608 57.595 99.3608C57.8152 99.3608 58.014 99.33 58.1916 99.2684C58.3715 99.2045 58.5266 99.1098 58.6568 98.9843C58.787 98.8565 58.8876 98.6979 58.9586 98.5085L59.7683 98.7358C59.6831 99.0104 59.5398 99.2519 59.3386 99.4602C59.1374 99.6662 58.8888 99.8271 58.5929 99.9432C58.2969 100.057 57.9643 100.114 57.595 100.114ZM63.188 100.114C62.7335 100.114 62.3322 99.9988 61.9842 99.7691C61.6362 99.5371 61.3639 99.2104 61.1674 98.789C60.9709 98.3653 60.8727 97.8646 60.8727 97.2869C60.8727 96.714 60.9709 96.2168 61.1674 95.7954C61.3639 95.374 61.6374 95.0485 61.9878 94.8189C62.3381 94.5892 62.743 94.4744 63.2022 94.4744C63.5574 94.4744 63.8379 94.5336 64.0439 94.652C64.2522 94.768 64.4108 94.9005 64.5197 95.0497C64.631 95.1965 64.7174 95.3172 64.7789 95.4119H64.85V92.7272H65.688V100H64.8784V99.1619H64.7789C64.7174 99.2613 64.6298 99.3868 64.5162 99.5383C64.4025 99.6875 64.2404 99.8212 64.0297 99.9396C63.819 100.056 63.5384 100.114 63.188 100.114ZM63.3017 99.3608C63.6378 99.3608 63.9219 99.2732 64.1539 99.098C64.386 98.9204 64.5623 98.6754 64.6831 98.3629C64.8038 98.048 64.8642 97.6846 64.8642 97.2727C64.8642 96.8655 64.805 96.5092 64.6866 96.2038C64.5682 95.896 64.3931 95.6569 64.161 95.4865C63.929 95.3137 63.6426 95.2272 63.3017 95.2272C62.9466 95.2272 62.6506 95.3184 62.4139 95.5007C62.1795 95.6806 62.0031 95.9256 61.8848 96.2358C61.7688 96.5435 61.7108 96.8892 61.7108 97.2727C61.7108 97.661 61.7699 98.0137 61.8883 98.3309C62.0091 98.6458 62.1866 98.8967 62.421 99.0838C62.6577 99.2684 62.9513 99.3608 63.3017 99.3608ZM67.3393 100V94.5454H68.149V95.3693H68.2058C68.3052 95.0994 68.4851 94.8804 68.7456 94.7123C69.006 94.5442 69.2995 94.4602 69.6262 94.4602C69.6878 94.4602 69.7647 94.4614 69.8571 94.4637C69.9494 94.4661 70.0192 94.4697 70.0666 94.4744V95.3267C70.0382 95.3196 69.9731 95.3089 69.8713 95.2947C69.7718 95.2781 69.6665 95.2699 69.5552 95.2699C69.2901 95.2699 69.0533 95.3255 68.845 95.4368C68.639 95.5457 68.4757 95.6972 68.3549 95.8913C68.2366 96.0831 68.1774 96.3021 68.1774 96.5483V100H67.3393ZM72.6651 100.128C72.3195 100.128 72.0058 100.063 71.7241 99.9325C71.4424 99.7999 71.2186 99.6093 71.0529 99.3608C70.8872 99.1098 70.8043 98.8068 70.8043 98.4517C70.8043 98.1392 70.8659 97.8859 70.989 97.6917C71.1121 97.4952 71.2766 97.3414 71.4826 97.2301C71.6886 97.1188 71.9158 97.036 72.1644 96.9815C72.4154 96.9247 72.6675 96.8797 72.9208 96.8466C73.2523 96.8039 73.521 96.772 73.7269 96.7507C73.9353 96.727 74.0868 96.6879 74.1815 96.6335C74.2785 96.579 74.3271 96.4843 74.3271 96.3494V96.321C74.3271 95.9706 74.2312 95.6984 74.0394 95.5042C73.85 95.3101 73.5624 95.213 73.1765 95.213C72.7764 95.213 72.4627 95.3006 72.2354 95.4758C72.0082 95.651 71.8484 95.838 71.756 96.0369L70.9606 95.7528C71.1026 95.4214 71.292 95.1633 71.5288 94.9787C71.7679 94.7916 72.0283 94.6614 72.31 94.588C72.5941 94.5123 72.8735 94.4744 73.1481 94.4744C73.3233 94.4744 73.5245 94.4957 73.7518 94.5383C73.9814 94.5786 74.2028 94.6626 74.4158 94.7905C74.6313 94.9183 74.81 95.1112 74.9521 95.3693C75.0941 95.6273 75.1651 95.973 75.1651 96.4062V100H74.3271V99.2613H74.2844C74.2276 99.3797 74.1329 99.5064 74.0004 99.6413C73.8678 99.7762 73.6914 99.8911 73.4712 99.9858C73.2511 100.08 72.9824 100.128 72.6651 100.128ZM72.793 99.375C73.1244 99.375 73.4038 99.3099 73.631 99.1797C73.8607 99.0494 74.0335 98.8814 74.1495 98.6754C74.2679 98.4694 74.3271 98.2528 74.3271 98.0255V97.2585C74.2916 97.3011 74.2134 97.3402 74.0927 97.3757C73.9743 97.4088 73.837 97.4384 73.6808 97.4645C73.5269 97.4881 73.3765 97.5094 73.2298 97.5284C73.0853 97.545 72.9682 97.5592 72.8782 97.571C72.6604 97.5994 72.4568 97.6456 72.2674 97.7095C72.0804 97.771 71.9289 97.8646 71.8129 97.99C71.6992 98.1131 71.6424 98.2812 71.6424 98.4943C71.6424 98.7855 71.7501 99.0057 71.9656 99.1548C72.1834 99.3016 72.4592 99.375 72.793 99.375ZM83.2289 102.045V99.1619H83.1579C83.0963 99.2613 83.0087 99.3868 82.8951 99.5383C82.7814 99.6875 82.6193 99.8212 82.4086 99.9396C82.1979 100.056 81.9173 100.114 81.5669 100.114C81.1124 100.114 80.7111 99.9988 80.3631 99.7691C80.0151 99.5371 79.7428 99.2104 79.5463 98.789C79.3499 98.3653 79.2516 97.8646 79.2516 97.2869C79.2516 96.714 79.3499 96.2168 79.5463 95.7954C79.7428 95.374 80.0163 95.0485 80.3667 94.8189C80.717 94.5892 81.1219 94.4744 81.5811 94.4744C81.9363 94.4744 82.2168 94.5336 82.4228 94.652C82.6311 94.768 82.7897 94.9005 82.8986 95.0497C83.0099 95.1965 83.0963 95.3172 83.1579 95.4119H83.2573V94.5454H84.0669V102.045H83.2289ZM81.6806 99.3608C82.0168 99.3608 82.3008 99.2732 82.5329 99.098C82.7649 98.9204 82.9412 98.6754 83.062 98.3629C83.1827 98.048 83.2431 97.6846 83.2431 97.2727C83.2431 96.8655 83.1839 96.5092 83.0655 96.2038C82.9472 95.896 82.772 95.6569 82.54 95.4865C82.3079 95.3137 82.0215 95.2272 81.6806 95.2272C81.3255 95.2272 81.0295 95.3184 80.7928 95.5007C80.5584 95.6806 80.382 95.9256 80.2637 96.2358C80.1477 96.5435 80.0897 96.8892 80.0897 97.2727C80.0897 97.661 80.1489 98.0137 80.2672 98.3309C80.388 98.6458 80.5655 98.8967 80.7999 99.0838C81.0366 99.2684 81.3302 99.3608 81.6806 99.3608ZM89.0385 97.7699V94.5454H89.8766V100H89.0385V99.0767H88.9817C88.8539 99.3537 88.655 99.5892 88.3851 99.7834C88.1152 99.9751 87.7743 100.071 87.3624 100.071C87.0215 100.071 86.7185 99.9964 86.4533 99.8473C86.1882 99.6958 85.9798 99.4685 85.8283 99.1655C85.6768 98.8601 85.601 98.4753 85.601 98.0113V94.5454H86.4391V97.9545C86.4391 98.3522 86.5504 98.6695 86.7729 98.9062C86.9978 99.143 87.2843 99.2613 87.6323 99.2613C87.8406 99.2613 88.0525 99.2081 88.2679 99.1015C88.4857 98.995 88.668 98.8316 88.8148 98.6115C88.964 98.3913 89.0385 98.1108 89.0385 97.7699ZM93.6985 100.114C93.1729 100.114 92.7196 99.9976 92.3384 99.7656C91.9596 99.5312 91.6673 99.2045 91.4613 98.7855C91.2577 98.3641 91.1559 97.874 91.1559 97.3153C91.1559 96.7566 91.2577 96.2642 91.4613 95.838C91.6673 95.4095 91.9537 95.0757 92.3207 94.8366C92.69 94.5951 93.1209 94.4744 93.6133 94.4744C93.8974 94.4744 94.1779 94.5217 94.4549 94.6164C94.7319 94.7111 94.984 94.865 95.2113 95.0781C95.4386 95.2888 95.6197 95.5682 95.7546 95.9162C95.8896 96.2642 95.957 96.6927 95.957 97.2017V97.5568H91.7525V96.8324H95.1048C95.1048 96.5246 95.0432 96.25 94.9201 96.0085C94.7994 95.767 94.6265 95.5764 94.4016 95.4368C94.1791 95.2971 93.9163 95.2272 93.6133 95.2272C93.2795 95.2272 92.9907 95.3101 92.7468 95.4758C92.5053 95.6392 92.3195 95.8522 92.1893 96.115C92.0591 96.3778 91.994 96.6595 91.994 96.9602V97.4432C91.994 97.8551 92.065 98.2043 92.207 98.4907C92.3514 98.7748 92.5515 98.9914 92.8072 99.1406C93.0629 99.2874 93.36 99.3608 93.6985 99.3608C93.9187 99.3608 94.1175 99.33 94.2951 99.2684C94.475 99.2045 94.6301 99.1098 94.7603 98.9843C94.8905 98.8565 94.9911 98.6979 95.0621 98.5085L95.8718 98.7358C95.7866 99.0104 95.6434 99.2519 95.4421 99.4602C95.2409 99.6662 94.9923 99.8271 94.6964 99.9432C94.4005 100.057 94.0678 100.114 93.6985 100.114ZM104.505 94.5454L102.488 100H101.635L99.6183 94.5454H100.527L102.033 98.892H102.09L103.596 94.5454H104.505ZM107.631 100.114C107.139 100.114 106.707 99.9964 106.335 99.762C105.966 99.5277 105.677 99.1998 105.469 98.7784C105.263 98.357 105.16 97.8646 105.16 97.3011C105.16 96.7329 105.263 96.2369 105.469 95.8132C105.677 95.3894 105.966 95.0603 106.335 94.826C106.707 94.5916 107.139 94.4744 107.631 94.4744C108.124 94.4744 108.555 94.5916 108.924 94.826C109.296 95.0603 109.585 95.3894 109.79 95.8132C109.999 96.2369 110.103 96.7329 110.103 97.3011C110.103 97.8646 109.999 98.357 109.79 98.7784C109.585 99.1998 109.296 99.5277 108.924 99.762C108.555 99.9964 108.124 100.114 107.631 100.114ZM107.631 99.3608C108.005 99.3608 108.313 99.2649 108.555 99.0731C108.796 98.8814 108.975 98.6292 109.091 98.3167C109.207 98.0042 109.265 97.6657 109.265 97.3011C109.265 96.9365 109.207 96.5968 109.091 96.2819C108.975 95.9671 108.796 95.7126 108.555 95.5184C108.313 95.3243 108.005 95.2272 107.631 95.2272C107.257 95.2272 106.95 95.3243 106.708 95.5184C106.467 95.7126 106.288 95.9671 106.172 96.2819C106.056 96.5968 105.998 96.9365 105.998 97.3011C105.998 97.6657 106.056 98.0042 106.172 98.3167C106.288 98.6292 106.467 98.8814 106.708 99.0731C106.95 99.2649 107.257 99.3608 107.631 99.3608ZM113.598 100.114C113.087 100.114 112.646 99.9929 112.277 99.7514C111.908 99.5099 111.624 99.1773 111.425 98.7535C111.226 98.3298 111.127 97.8456 111.127 97.3011C111.127 96.7471 111.228 96.2583 111.432 95.8345C111.638 95.4083 111.924 95.0757 112.291 94.8366C112.661 94.5951 113.092 94.4744 113.584 94.4744C113.968 94.4744 114.313 94.5454 114.621 94.6875C114.929 94.8295 115.181 95.0284 115.377 95.2841C115.574 95.5397 115.696 95.838 115.743 96.1789H114.905C114.841 95.9304 114.699 95.7102 114.479 95.5184C114.261 95.3243 113.968 95.2272 113.598 95.2272C113.271 95.2272 112.985 95.3125 112.739 95.4829C112.495 95.651 112.304 95.8889 112.167 96.1967C112.032 96.5021 111.965 96.8608 111.965 97.2727C111.965 97.6941 112.031 98.061 112.164 98.3735C112.298 98.686 112.488 98.9287 112.732 99.1015C112.978 99.2744 113.267 99.3608 113.598 99.3608C113.816 99.3608 114.014 99.3229 114.191 99.2471C114.369 99.1714 114.519 99.0625 114.642 98.9204C114.765 98.7784 114.853 98.6079 114.905 98.4091H115.743C115.696 98.731 115.579 99.021 115.392 99.2791C115.207 99.5348 114.962 99.7384 114.656 99.8899C114.353 100.039 114.001 100.114 113.598 100.114ZM119.255 100.114C118.73 100.114 118.276 99.9976 117.895 99.7656C117.516 99.5312 117.224 99.2045 117.018 98.7855C116.814 98.3641 116.713 97.874 116.713 97.3153C116.713 96.7566 116.814 96.2642 117.018 95.838C117.224 95.4095 117.51 95.0757 117.877 94.8366C118.247 94.5951 118.678 94.4744 119.17 94.4744C119.454 94.4744 119.735 94.5217 120.012 94.6164C120.289 94.7111 120.541 94.865 120.768 95.0781C120.995 95.2888 121.176 95.5682 121.311 95.9162C121.446 96.2642 121.514 96.6927 121.514 97.2017V97.5568H117.309V96.8324H120.661C120.661 96.5246 120.6 96.25 120.477 96.0085C120.356 95.767 120.183 95.5764 119.958 95.4368C119.736 95.2971 119.473 95.2272 119.17 95.2272C118.836 95.2272 118.547 95.3101 118.303 95.4758C118.062 95.6392 117.876 95.8522 117.746 96.115C117.616 96.3778 117.551 96.6595 117.551 96.9602V97.4432C117.551 97.8551 117.622 98.2043 117.764 98.4907C117.908 98.7748 118.108 98.9914 118.364 99.1406C118.62 99.2874 118.917 99.3608 119.255 99.3608C119.475 99.3608 119.674 99.33 119.852 99.2684C120.032 99.2045 120.187 99.1098 120.317 98.9843C120.447 98.8565 120.548 98.6979 120.619 98.5085L121.428 98.7358C121.343 99.0104 121.2 99.2519 120.999 99.4602C120.798 99.6662 120.549 99.8271 120.253 99.9432C119.957 100.057 119.624 100.114 119.255 100.114ZM119.866 93.892L119.127 92.8977L118.389 93.892H117.593V93.8352L118.744 92.3579H119.511L120.661 93.8352V93.892H119.866ZM43.054 112.114C42.5284 112.114 42.075 111.998 41.6939 111.766C41.3151 111.531 41.0227 111.205 40.8168 110.785C40.6132 110.364 40.5114 109.874 40.5114 109.315C40.5114 108.757 40.6132 108.264 40.8168 107.838C41.0227 107.41 41.3092 107.076 41.6761 106.837C42.0455 106.595 42.4763 106.474 42.9688 106.474C43.2528 106.474 43.5334 106.522 43.8104 106.616C44.0874 106.711 44.3395 106.865 44.5668 107.078C44.794 107.289 44.9751 107.568 45.1101 107.916C45.245 108.264 45.3125 108.693 45.3125 109.202V109.557H41.108V108.832H44.4602C44.4602 108.525 44.3987 108.25 44.2756 108.008C44.1548 107.767 43.982 107.576 43.7571 107.437C43.5346 107.297 43.2718 107.227 42.9688 107.227C42.6349 107.227 42.3461 107.31 42.1023 107.476C41.8608 107.639 41.675 107.852 41.5447 108.115C41.4145 108.378 41.3494 108.66 41.3494 108.96V109.443C41.3494 109.855 41.4205 110.204 41.5625 110.491C41.7069 110.775 41.907 110.991 42.1626 111.141C42.4183 111.287 42.7154 111.361 43.054 111.361C43.2741 111.361 43.473 111.33 43.6506 111.268C43.8305 111.205 43.9856 111.11 44.1158 110.984C44.246 110.857 44.3466 110.698 44.4176 110.508L45.2273 110.736C45.142 111.01 44.9988 111.252 44.7976 111.46C44.5964 111.666 44.3478 111.827 44.0518 111.943C43.7559 112.057 43.4233 112.114 43.054 112.114ZM50.451 107.767L49.6982 107.98C49.6508 107.855 49.581 107.733 49.4886 107.614C49.3987 107.494 49.2756 107.394 49.1193 107.316C48.9631 107.238 48.763 107.199 48.5192 107.199C48.1854 107.199 47.9072 107.276 47.6847 107.43C47.4645 107.581 47.3544 107.774 47.3544 108.008C47.3544 108.217 47.4302 108.381 47.5817 108.502C47.7332 108.623 47.9699 108.723 48.2919 108.804L49.1016 109.003C49.5893 109.121 49.9527 109.302 50.1918 109.546C50.4309 109.788 50.5504 110.099 50.5504 110.48C50.5504 110.793 50.4605 111.072 50.2805 111.318C50.103 111.564 49.8544 111.758 49.5348 111.901C49.2152 112.043 48.8435 112.114 48.4197 112.114C47.8634 112.114 47.4029 111.993 47.0384 111.751C46.6738 111.51 46.4429 111.157 46.3459 110.693L47.1413 110.494C47.2171 110.788 47.3603 111.008 47.571 111.155C47.7841 111.302 48.0623 111.375 48.4055 111.375C48.7962 111.375 49.1063 111.292 49.3359 111.126C49.5679 110.958 49.6839 110.757 49.6839 110.523C49.6839 110.333 49.6177 110.175 49.4851 110.047C49.3525 109.917 49.1489 109.82 48.8743 109.756L47.9652 109.543C47.4657 109.424 47.0987 109.241 46.8643 108.992C46.6323 108.741 46.5163 108.428 46.5163 108.051C46.5163 107.743 46.6027 107.471 46.7756 107.234C46.9508 106.998 47.1887 106.812 47.4893 106.677C47.7924 106.542 48.1357 106.474 48.5192 106.474C49.0589 106.474 49.4827 106.593 49.7905 106.83C50.1006 107.066 50.3208 107.379 50.451 107.767ZM54.0279 112.114C53.5165 112.114 53.0762 111.993 52.7069 111.751C52.3375 111.51 52.0534 111.177 51.8546 110.754C51.6557 110.33 51.5563 109.846 51.5563 109.301C51.5563 108.747 51.6581 108.258 51.8617 107.834C52.0677 107.408 52.3541 107.076 52.7211 106.837C53.0904 106.595 53.5212 106.474 54.0137 106.474C54.3972 106.474 54.7428 106.545 55.0506 106.687C55.3584 106.83 55.6105 107.028 55.807 107.284C56.0035 107.54 56.1254 107.838 56.1728 108.179H55.3347C55.2708 107.93 55.1287 107.71 54.9086 107.518C54.6908 107.324 54.3972 107.227 54.0279 107.227C53.7012 107.227 53.4147 107.312 53.1685 107.483C52.9247 107.651 52.7341 107.889 52.5968 108.197C52.4618 108.502 52.3944 108.861 52.3944 109.273C52.3944 109.694 52.4606 110.061 52.5932 110.374C52.7282 110.686 52.9176 110.929 53.1614 111.102C53.4076 111.274 53.6964 111.361 54.0279 111.361C54.2457 111.361 54.4434 111.323 54.6209 111.247C54.7985 111.171 54.9488 111.062 55.0719 110.92C55.195 110.778 55.2826 110.608 55.3347 110.409H56.1728C56.1254 110.731 56.0082 111.021 55.8212 111.279C55.6365 111.535 55.3915 111.738 55.0861 111.89C54.7831 112.039 54.4303 112.114 54.0279 112.114ZM59.6138 112.114C59.1214 112.114 58.6893 111.996 58.3177 111.762C57.9483 111.528 57.6595 111.2 57.4512 110.778C57.2452 110.357 57.1422 109.865 57.1422 109.301C57.1422 108.733 57.2452 108.237 57.4512 107.813C57.6595 107.389 57.9483 107.06 58.3177 106.826C58.6893 106.592 59.1214 106.474 59.6138 106.474C60.1062 106.474 60.5371 106.592 60.9064 106.826C61.2781 107.06 61.5669 107.389 61.7729 107.813C61.9812 108.237 62.0854 108.733 62.0854 109.301C62.0854 109.865 61.9812 110.357 61.7729 110.778C61.5669 111.2 61.2781 111.528 60.9064 111.762C60.5371 111.996 60.1062 112.114 59.6138 112.114ZM59.6138 111.361C59.9879 111.361 60.2956 111.265 60.5371 111.073C60.7786 110.881 60.9573 110.629 61.0733 110.317C61.1893 110.004 61.2473 109.666 61.2473 109.301C61.2473 108.937 61.1893 108.597 61.0733 108.282C60.9573 107.967 60.7786 107.713 60.5371 107.518C60.2956 107.324 59.9879 107.227 59.6138 107.227C59.2398 107.227 58.932 107.324 58.6905 107.518C58.449 107.713 58.2703 107.967 58.1543 108.282C58.0383 108.597 57.9803 108.937 57.9803 109.301C57.9803 109.666 58.0383 110.004 58.1543 110.317C58.2703 110.629 58.449 110.881 58.6905 111.073C58.932 111.265 59.2398 111.361 59.6138 111.361ZM64.2028 104.727V112H63.3647V104.727H64.2028ZM66.5758 108.719V112H65.7378V104.727H66.5758V107.398H66.6468C66.7747 107.116 66.9664 106.892 67.2221 106.727C67.4802 106.558 67.8235 106.474 68.252 106.474C68.6236 106.474 68.9492 106.549 69.2285 106.698C69.5079 106.845 69.7245 107.071 69.8784 107.376C70.0346 107.679 70.1128 108.065 70.1128 108.534V112H69.2747V108.591C69.2747 108.158 69.1622 107.823 68.9373 107.586C68.7148 107.347 68.4058 107.227 68.0105 107.227C67.7359 107.227 67.4896 107.285 67.2718 107.401C67.0564 107.517 66.886 107.687 66.7605 107.909C66.6374 108.132 66.5758 108.401 66.5758 108.719ZM73.9329 112.114C73.4073 112.114 72.954 111.998 72.5728 111.766C72.194 111.531 71.9016 111.205 71.6957 110.785C71.4921 110.364 71.3903 109.874 71.3903 109.315C71.3903 108.757 71.4921 108.264 71.6957 107.838C71.9016 107.41 72.1881 107.076 72.555 106.837C72.9244 106.595 73.3552 106.474 73.8477 106.474C74.1317 106.474 74.4123 106.522 74.6893 106.616C74.9663 106.711 75.2184 106.865 75.4457 107.078C75.6729 107.289 75.8541 107.568 75.989 107.916C76.1239 108.264 76.1914 108.693 76.1914 109.202V109.557H71.9869V108.832H75.3391C75.3391 108.525 75.2776 108.25 75.1545 108.008C75.0337 107.767 74.8609 107.576 74.636 107.437C74.4135 107.297 74.1507 107.227 73.8477 107.227C73.5139 107.227 73.225 107.31 72.9812 107.476C72.7397 107.639 72.5539 107.852 72.4237 108.115C72.2934 108.378 72.2283 108.66 72.2283 108.96V109.443C72.2283 109.855 72.2994 110.204 72.4414 110.491C72.5858 110.775 72.7859 110.991 73.0416 111.141C73.2972 111.287 73.5943 111.361 73.9329 111.361C74.1531 111.361 74.3519 111.33 74.5295 111.268C74.7094 111.205 74.8645 111.11 74.9947 110.984C75.1249 110.857 75.2255 110.698 75.2965 110.508L76.1062 110.736C76.021 111.01 75.8777 111.252 75.6765 111.46C75.4753 111.666 75.2267 111.827 74.9308 111.943C74.6348 112.057 74.3022 112.114 73.9329 112.114ZM80.9038 109.77V106.545H81.7418V112H80.9038V111.077H80.847C80.7191 111.354 80.5202 111.589 80.2504 111.783C79.9805 111.975 79.6396 112.071 79.2276 112.071C78.8867 112.071 78.5837 111.996 78.3185 111.847C78.0534 111.696 77.8451 111.468 77.6935 111.165C77.542 110.86 77.4663 110.475 77.4663 110.011V106.545H78.3043V109.955C78.3043 110.352 78.4156 110.669 78.6381 110.906C78.863 111.143 79.1495 111.261 79.4975 111.261C79.7059 111.261 79.9177 111.208 80.1332 111.102C80.351 110.995 80.5333 110.832 80.68 110.611C80.8292 110.391 80.9038 110.111 80.9038 109.77Z" fill="white"/>
<path d="M30.0636 9.78008L30.2741 9.0602L30.2741 9.0602L30.0636 9.78008ZM11.6399 3.84215C11.2766 4.0411 11.1434 4.4969 11.3423 4.8602L14.5844 10.7806C14.7834 11.1439 15.2392 11.2771 15.6025 11.0782C15.9658 10.8792 16.099 10.4234 15.9001 10.0601L13.0182 4.79755L18.2808 1.91567C18.6441 1.71672 18.7773 1.26092 18.5784 0.897612C18.3794 0.534306 17.9236 0.401072 17.5603 0.600025L11.6399 3.84215ZM30.2741 9.0602L12.2106 3.78009L11.7897 5.21984L29.8532 10.5L30.2741 9.0602ZM91.2211 70.2929C82.745 40.784 59.743 17.6742 30.2741 9.0602L29.8532 10.5C58.8285 18.9697 81.4453 41.6924 89.7794 70.707L91.2211 70.2929Z" fill="white"/>
</svg>
